<svg xmlns="http://www.w3.org/2000/svg" viewBox="0 0 225.26 48.03"><defs><style>.a{opacity:0.1;}.b{fill:#103254;}.c{opacity:0.2;}.d{opacity:0.3;}.e{opacity:0.4;}.f{opacity:0.5;}.g{opacity:0.6;}.h{opacity:0.7;}.i{opacity:0.8;}.j{opacity:0.9;}.k{fill:#231f20;}.l{fill:#404649;}.m{fill:#fff;}</style></defs><title>01-feel</title><g class="a"><rect class="b" x="207.68" y="14.04" width="19.93" height="19.93" transform="translate(431.71 48.01) rotate(-180)"/></g><g class="c"><rect class="b" x="184.96" y="14.04" width="19.93" height="19.93" transform="translate(386.26 48.01) rotate(-180)"/></g><g class="d"><rect class="b" x="162.23" y="14.04" width="19.93" height="19.93" transform="translate(340.81 48.01) rotate(-180)"/></g><g class="e"><rect class="b" x="139.51" y="14.04" width="19.93" height="19.93" transform="translate(295.36 48.01) rotate(-180)"/></g><g class="f"><rect class="b" x="117.06" y="14.04" width="19.93" height="19.93" transform="translate(250.47 48.01) rotate(-180)"/></g><g class="g"><rect class="b" x="94.62" y="14.04" width="19.93" height="19.93" transform="translate(205.58 48.01) rotate(-180)"/></g><g class="h"><rect class="b" x="72.18" y="14.04" width="19.93" height="19.93" transform="translate(160.69 48.01) rotate(-180)"/></g><g class="i"><rect class="b" x="49.59" y="14.04" width="19.93" height="19.93" transform="translate(115.53 48.01) rotate(-180)"/></g><g class="j"><rect class="b" x="27.29" y="14.04" width="19.93" height="19.93" transform="translate(70.92 48.01) rotate(-180)"/></g><rect class="b" x="4.98" y="14.04" width="19.93" height="19.93" transform="translate(26.31 48.01) rotate(-180)"/><g class="d"><line class="b" x1="44.81" x2="44.81" y2="2.91"/><rect class="k" x="44.31" width="1" height="2.91"/></g><g class="d"><line class="b" x1="44.81" y1="3.59" x2="44.81" y2="6.5"/><rect class="k" x="44.31" y="3.59" width="1" height="2.91"/></g><g class="d"><line class="b" x1="44.8" y1="7.13" x2="44.8" y2="10.04"/><rect class="k" x="44.3" y="7.13" width="1" height="2.91"/></g><g class="d"><line class="b" x1="44.81" y1="10.66" x2="44.81" y2="13.57"/><rect class="k" x="44.31" y="10.66" width="1" height="2.91"/></g><g class="d"><line class="b" x1="44.83" y1="33.96" x2="44.83" y2="36.87"/><rect class="k" x="44.33" y="33.96" width="1" height="2.91"/></g><g class="d"><line class="b" x1="44.82" y1="37.54" x2="44.82" y2="40.46"/><rect class="k" x="44.32" y="37.54" width="1" height="2.91"/></g><g class="d"><line class="b" x1="44.82" y1="41.08" x2="44.82" y2="44"/><rect class="k" x="44.32" y="41.08" width="1" height="2.91"/></g><g class="d"><line class="b" x1="44.83" y1="44.61" x2="44.83" y2="47.52"/><rect class="k" x="44.33" y="44.61" width="1" height="2.91"/></g><g class="d"><line class="b" x1="89.79" y1="0.25" x2="89.79" y2="3.16"/><rect class="k" x="89.29" y="0.25" width="1" height="2.91"/></g><g class="d"><line class="b" x1="89.78" y1="3.83" x2="89.78" y2="6.75"/><rect class="k" x="89.28" y="3.83" width="1" height="2.91"/></g><g class="d"><line class="b" x1="89.78" y1="7.37" x2="89.78" y2="10.28"/><rect class="k" x="89.28" y="7.37" width="1" height="2.91"/></g><g class="d"><line class="b" x1="89.79" y1="10.9" x2="89.79" y2="13.81"/><rect class="k" x="89.29" y="10.9" width="1" height="2.91"/></g><g class="d"><line class="b" x1="89.8" y1="34.2" x2="89.8" y2="37.11"/><rect class="k" x="89.3" y="34.2" width="1" height="2.91"/></g><g class="d"><line class="b" x1="89.8" y1="37.79" x2="89.8" y2="40.7"/><rect class="k" x="89.3" y="37.79" width="1" height="2.91"/></g><g class="d"><line class="b" x1="89.79" y1="41.33" x2="89.79" y2="44.24"/><rect class="k" x="89.29" y="41.33" width="1" height="2.91"/></g><g class="d"><line class="b" x1="89.8" y1="44.86" x2="89.8" y2="47.77"/><rect class="k" x="89.3" y="44.86" width="1" height="2.91"/></g><g class="d"><line class="b" x1="134.65" y1="0.25" x2="134.65" y2="3.16"/><rect class="k" x="134.15" y="0.25" width="1" height="2.91"/></g><g class="d"><line class="b" x1="134.65" y1="3.83" x2="134.65" y2="6.75"/><rect class="k" x="134.15" y="3.83" width="1" height="2.91"/></g><g class="d"><line class="b" x1="134.64" y1="7.37" x2="134.64" y2="10.28"/><rect class="k" x="134.14" y="7.37" width="1" height="2.91"/></g><g class="d"><line class="b" x1="134.65" y1="10.9" x2="134.65" y2="13.81"/><rect class="k" x="134.15" y="10.9" width="1" height="2.91"/></g><g class="d"><line class="b" x1="134.67" y1="34.2" x2="134.67" y2="37.11"/><rect class="k" x="134.17" y="34.2" width="1" height="2.91"/></g><g class="d"><line class="b" x1="134.66" y1="37.79" x2="134.66" y2="40.7"/><rect class="k" x="134.16" y="37.79" width="1" height="2.91"/></g><g class="d"><line class="b" x1="134.66" y1="41.33" x2="134.66" y2="44.24"/><rect class="k" x="134.16" y="41.33" width="1" height="2.91"/></g><g class="d"><line class="b" x1="134.66" y1="44.86" x2="134.66" y2="47.77"/><rect class="k" x="134.16" y="44.86" width="1" height="2.91"/></g><g class="d"><line class="b" x1="179.97" y1="0.51" x2="179.97" y2="3.42"/><rect class="k" x="179.47" y="0.51" width="1" height="2.91"/></g><g class="d"><line class="b" x1="179.97" y1="4.1" x2="179.97" y2="7.01"/><rect class="k" x="179.47" y="4.1" width="1" height="2.91"/></g><g class="d"><line class="b" x1="179.96" y1="7.64" x2="179.96" y2="10.55"/><rect class="k" x="179.46" y="7.64" width="1" height="2.91"/></g><g class="d"><line class="b" x1="179.97" y1="11.17" x2="179.97" y2="14.08"/><rect class="k" x="179.47" y="11.17" width="1" height="2.91"/></g><g class="d"><line class="b" x1="180" y1="33.96" x2="180" y2="36.87"/><rect class="k" x="179.5" y="33.96" width="1" height="2.91"/></g><g class="d"><line class="b" x1="180" y1="37.54" x2="180" y2="40.46"/><rect class="k" x="179.5" y="37.54" width="1" height="2.91"/></g><g class="d"><line class="b" x1="179.99" y1="41.08" x2="179.99" y2="44"/><rect class="k" x="179.49" y="41.08" width="1" height="2.91"/></g><g class="d"><line class="b" x1="180" y1="44.61" x2="180" y2="47.52"/><rect class="k" x="179.5" y="44.61" width="1" height="2.91"/></g><g class="d"><line class="b" x1="0.51" y1="0.25" x2="0.51" y2="3.16"/><rect class="k" x="0.01" y="0.25" width="1" height="2.91"/></g><g class="d"><line class="b" x1="0.51" y1="3.83" x2="0.51" y2="6.75"/><rect class="k" x="0.01" y="3.83" width="1" height="2.91"/></g><g class="d"><line class="b" x1="0.5" y1="7.37" x2="0.5" y2="10.28"/><rect class="k" y="7.37" width="1" height="2.91"/></g><g class="d"><line class="b" x1="0.51" y1="10.9" x2="0.51" y2="13.81"/><rect class="k" x="0.01" y="10.9" width="1" height="2.91"/></g><g class="d"><line class="b" x1="0.53" y1="34.2" x2="0.53" y2="37.11"/><rect class="k" x="0.03" y="34.2" width="1" height="2.91"/></g><g class="d"><line class="b" x1="0.52" y1="37.79" x2="0.52" y2="40.7"/><rect class="k" x="0.02" y="37.79" width="1" height="2.91"/></g><g class="d"><line class="b" x1="0.52" y1="41.33" x2="0.52" y2="44.24"/><rect class="k" x="0.02" y="41.33" width="1" height="2.91"/></g><g class="d"><line class="b" x1="0.53" y1="44.86" x2="0.53" y2="47.77"/><rect class="k" x="0.03" y="44.86" width="1" height="2.91"/></g><g class="d"><line class="b" x1="224.74" y1="0.51" x2="224.74" y2="3.42"/><rect class="k" x="224.24" y="0.51" width="1" height="2.91"/></g><g class="d"><line class="b" x1="224.74" y1="4.1" x2="224.74" y2="7.01"/><rect class="k" x="224.24" y="4.1" width="1" height="2.91"/></g><g class="d"><line class="b" x1="224.73" y1="7.64" x2="224.73" y2="10.55"/><rect class="k" x="224.23" y="7.64" width="1" height="2.91"/></g><g class="d"><line class="b" x1="224.74" y1="11.17" x2="224.74" y2="14.08"/><rect class="k" x="224.24" y="11.17" width="1" height="2.91"/></g><g class="d"><line class="b" x1="224.76" y1="34.47" x2="224.76" y2="37.38"/><rect class="k" x="224.26" y="34.47" width="1" height="2.91"/></g><g class="d"><line class="b" x1="224.76" y1="38.05" x2="224.76" y2="40.97"/><rect class="k" x="224.26" y="38.05" width="1" height="2.91"/></g><g class="d"><line class="b" x1="224.75" y1="41.59" x2="224.75" y2="44.51"/><rect class="k" x="224.25" y="41.59" width="1" height="2.91"/></g><g class="d"><line class="b" x1="224.76" y1="45.12" x2="224.76" y2="48.03"/><rect class="k" x="224.26" y="45.12" width="1" height="2.91"/></g><path class="l" d="M20.91,39.66h1.91V40H21.27v1.37H22.6v.32H21.27v1.63h-.36Z" transform="translate(-3.59 0)"/><path class="l" d="M23.57,39.66h.36v3.64h-.36Z" transform="translate(-3.59 0)"/><path class="l" d="M25,39.66h1.08a1.62,1.62,0,0,1,.68.1,1.06,1.06,0,0,1-.14,1.92h0l.09.15.79,1.46h-.41l-.82-1.53h-.92v1.53H25Zm1.22,1.78a.75.75,0,0,0,.39-1.38,1.05,1.05,0,0,0-.52-.09h-.73v1.46Z" transform="translate(-3.59 0)"/><path class="l" d="M28.41,39.66h.37l1,2.14c.08.19.18.44.18.44h0s.1-.26.18-.44l1-2.14h.37l.29,3.64h-.36l-.2-2.54c0-.2,0-.51,0-.51h0s-.11.32-.19.51l-.85,1.87h-.34l-.85-1.87c-.08-.18-.2-.52-.2-.52h0s0,.32,0,.52l-.2,2.54h-.36Z" transform="translate(-3.59 0)"/><path class="k" d="M106.1,39.23h.37l1,2.14c.08.19.18.44.18.44h0s.1-.26.18-.44l1-2.14h.37l.29,3.64H109l-.2-2.54c0-.2,0-.51,0-.51h0s-.11.32-.19.51l-.85,1.87h-.34l-.85-1.87c-.08-.18-.2-.52-.2-.52h0s0,.32,0,.52l-.2,2.54h-.36Z" transform="translate(-3.59 0)"/><path class="k" d="M110.35,39.23h2v.32H110.7v1.32h1.38v.32H110.7v1.35h1.78v.32h-2.14Z" transform="translate(-3.59 0)"/><path class="k" d="M113.3,39.23h1.17a1.82,1.82,0,1,1,0,3.64H113.3Zm1.14,3.32a1.5,1.5,0,0,0,0-3h-.78v3Z" transform="translate(-3.59 0)"/><path class="k" d="M117.13,39.23h.36v3.64h-.36Z" transform="translate(-3.59 0)"/><path class="k" d="M118.5,39.23h.36v2.36a1,1,0,0,0,2.06,0V39.23h.36V41.6a1.39,1.39,0,0,1-2.78,0Z" transform="translate(-3.59 0)"/><path class="k" d="M122.47,39.23h.37l1,2.14c.08.19.18.44.18.44h0s.1-.26.18-.44l1-2.14h.37l.29,3.64h-.36l-.2-2.54c0-.2,0-.51,0-.51h0s-.11.32-.19.51l-.85,1.87h-.34L123,40.32c-.08-.18-.2-.52-.2-.52h0s0,.32,0,.52l-.2,2.54h-.36Z" transform="translate(-3.59 0)"/><path class="l" d="M54.15,39.58h.37l1,2.14c.08.19.18.44.18.44h0s.1-.26.18-.44l1-2.14h.37l.29,3.64H57.1l-.2-2.54c0-.2,0-.51,0-.51h0s-.11.32-.19.51l-.85,1.87h-.34l-.85-1.87c-.08-.18-.2-.52-.2-.52h0s0,.32,0,.52l-.2,2.54h-.36Z" transform="translate(-3.59 0)"/><path class="l" d="M58.4,39.58h2v.32H58.76v1.32h1.38v.32H58.76V42.9h1.78v.32H58.4Z" transform="translate(-3.59 0)"/><path class="l" d="M61.36,39.58h1.17a1.82,1.82,0,1,1,0,3.64H61.36Zm1.14,3.32a1.5,1.5,0,0,0,0-3h-.78v3Z" transform="translate(-3.59 0)"/><path class="l" d="M65.19,39.58h.36v3.64h-.36Z" transform="translate(-3.59 0)"/><path class="l" d="M66.55,39.58h.36v2.36a1,1,0,0,0,2.06,0V39.58h.36V42a1.39,1.39,0,0,1-2.78,0Z" transform="translate(-3.59 0)"/><path class="l" d="M70.52,39.58h.37l1,2.14c.08.19.18.44.18.44h0s.1-.26.18-.44l1-2.14h.37l.29,3.64h-.36l-.2-2.54c0-.2,0-.51,0-.51h0s-.11.32-.19.51l-.85,1.87h-.34L71,40.67c-.08-.18-.2-.52-.2-.52h0s0,.32,0,.52l-.2,2.54h-.36Z" transform="translate(-3.59 0)"/><path class="l" d="M74.68,41.59h1.47v.32H74.68Z" transform="translate(-3.59 0)"/><path class="l" d="M77.11,39.58H79v.32H77.47v1.37H78.8v.32H77.47v1.63h-.36Z" transform="translate(-3.59 0)"/><path class="l" d="M79.77,39.58h.36v3.64h-.36Z" transform="translate(-3.59 0)"/><path class="l" d="M81.18,39.58h1.08a1.62,1.62,0,0,1,.68.1,1.06,1.06,0,0,1-.14,1.92h0l.09.15.79,1.46h-.41l-.82-1.53h-.92v1.53h-.36Zm1.22,1.78A.75.75,0,0,0,82.79,40a1.05,1.05,0,0,0-.52-.09h-.73v1.46Z" transform="translate(-3.59 0)"/><path class="l" d="M84.61,39.58H85l1,2.14c.08.19.18.44.18.44h0s.1-.26.18-.44l1-2.14h.37l.29,3.64h-.36l-.2-2.54c0-.2,0-.51,0-.51h0s-.11.32-.19.51l-.85,1.87H86l-.85-1.87c-.08-.18-.2-.52-.2-.52h0s0,.32,0,.52l-.2,2.54h-.36Z" transform="translate(-3.59 0)"/><path class="k" d="M150,36.73h.37l1,2.14c.08.19.18.44.18.44h0s.1-.26.18-.44l1-2.14H153l.29,3.64h-.36l-.2-2.54c0-.2,0-.51,0-.51h0s-.11.32-.19.51l-.85,1.87h-.34l-.85-1.87c-.08-.18-.2-.52-.2-.52h0s0,.32,0,.52l-.2,2.54h-.36Z" transform="translate(-3.59 0)"/><path class="k" d="M154.23,36.73h2V37h-1.69v1.32H156v.32h-1.38V40h1.78v.32h-2.14Z" transform="translate(-3.59 0)"/><path class="k" d="M157.18,36.73h1.17a1.82,1.82,0,1,1,0,3.64h-1.17ZM158.32,40a1.5,1.5,0,0,0,0-3h-.78v3Z" transform="translate(-3.59 0)"/><path class="k" d="M161,36.73h.36v3.64H161Z" transform="translate(-3.59 0)"/><path class="k" d="M162.38,36.73h.36v2.36a1,1,0,0,0,2.06,0V36.73h.36V39.1a1.39,1.39,0,0,1-2.78,0Z" transform="translate(-3.59 0)"/><path class="k" d="M166.35,36.73h.37l1,2.14c.08.19.18.44.18.44h0s.1-.26.18-.44l1-2.14h.37l.29,3.64h-.36l-.2-2.54c0-.2,0-.51,0-.51h0s-.11.32-.19.51L168,39.68h-.34l-.85-1.87c-.08-.18-.2-.52-.2-.52h0s0,.32,0,.52l-.2,2.54h-.36Z" transform="translate(-3.59 0)"/><path class="k" d="M170.51,38.73H172v.32h-1.47Z" transform="translate(-3.59 0)"/><path class="k" d="M153.37,42.94h1.26a1.1,1.1,0,1,1,0,2.21h-.9v1.43h-.36Zm1.21,1.89a.74.74,0,0,0,.8-.79.73.73,0,0,0-.8-.78h-.86v1.57Z" transform="translate(-3.59 0)"/><path class="k" d="M156.46,42.94h.36v3.32h1.69v.32h-2Z" transform="translate(-3.59 0)"/><path class="k" d="M159,42.94h.36V45.3a1,1,0,0,0,2.06,0V42.94h.36v2.37a1.39,1.39,0,0,1-2.78,0Z" transform="translate(-3.59 0)"/><path class="k" d="M162.75,45.9a1.42,1.42,0,0,0,1,.4.65.65,0,0,0,.72-.63c0-.92-1.82-.68-1.82-1.81a1,1,0,0,1,1.13-1,1.41,1.41,0,0,1,1,.35l-.18.3a1.24,1.24,0,0,0-.8-.31.7.7,0,0,0-.77.63c0,.86,1.82.62,1.82,1.81a1,1,0,0,1-1.1,1,1.6,1.6,0,0,1-1.15-.47Z" transform="translate(-3.59 0)"/><path class="k" d="M165.6,42.94H166V44.6h2.11V42.94h.36v3.64h-.36V44.92H166v1.66h-.36Z" transform="translate(-3.59 0)"/><path class="k" d="M197.69,39.23h1.26a1.1,1.1,0,1,1,0,2.21H198v1.43h-.36Zm1.21,1.89a.74.74,0,0,0,.8-.79.73.73,0,0,0-.8-.78H198v1.57Z" transform="translate(-3.59 0)"/><path class="k" d="M200.78,39.23h.36v3.32h1.69v.32h-2Z" transform="translate(-3.59 0)"/><path class="k" d="M203.34,39.23h.36v2.36a1,1,0,0,0,2.06,0V39.23h.36V41.6a1.39,1.39,0,0,1-2.78,0Z" transform="translate(-3.59 0)"/><path class="k" d="M207.07,42.19a1.42,1.42,0,0,0,1,.4.65.65,0,0,0,.72-.63c0-.92-1.82-.68-1.82-1.81a1,1,0,0,1,1.13-1,1.41,1.41,0,0,1,1,.35l-.18.3a1.24,1.24,0,0,0-.8-.31.7.7,0,0,0-.77.63c0,.86,1.82.62,1.82,1.81a1,1,0,0,1-1.1,1,1.6,1.6,0,0,1-1.15-.47Z" transform="translate(-3.59 0)"/><path class="k" d="M209.92,39.23h.36v1.66h2.11V39.23h.36v3.64h-.36V41.2h-2.11v1.66h-.36Z" transform="translate(-3.59 0)"/><path class="m" d="M14.67,22.07l-1,1-.54-.64L14.75,21h.85v5.5h-.93Z" transform="translate(-3.59 0)"/><polygon class="k" points="17.48 4.31 11.27 4.28 5.06 4.25 8.15 7.2 11.24 10.14 14.36 7.23 17.48 4.31"/></svg>