<?xml version="1.0" encoding="UTF-8"?>
<svg width="55px" height="55px" viewBox="0 0 55 55" version="1.1" xmlns="http://www.w3.org/2000/svg" xmlns:xlink="http://www.w3.org/1999/xlink">
    <!-- Generator: Sketch 41 (35326) - http://www.bohemiancoding.com/sketch -->
    <title>120</title>
    <desc>Created with Sketch.</desc>
    <defs></defs>
    <g id="Revision-3" stroke="none" stroke-width="1" fill="none" fill-rule="evenodd">
        <g id="Desktop" transform="translate(-124.000000, -1310.000000)" fill="#FFFFFF">
            <g id="Guatantees" transform="translate(0.000000, 1186.000000)">
                <g id="120-night" transform="translate(42.000000, 124.000000)">
                    <g id="120" transform="translate(82.000000, 0.000000)">
                        <path d="M2.29166667,6.875 L2.29166667,16.0416667 L52.7083333,16.0416667 L52.7083333,6.875 L2.29166667,6.875 Z M41.25,4.58333333 L55,4.58333333 L55,55 L0,55 L0,4.58333333 L13.75,4.58333333 L13.75,0 L16.0416667,0 L16.0416667,4.58333333 L38.9583333,4.58333333 L38.9583333,0 L41.25,0 L41.25,4.58333333 Z M52.7083333,52.7083333 L52.7083333,18.3333333 L2.29166667,18.3333333 L2.29166667,52.7083333 L52.7083333,52.7083333 Z M2.29166667,16.0416667 L2.29166667,6.875 L13.75,6.875 L13.75,11.4583333 L16.0416667,11.4583333 L16.0416667,6.875 L38.9583333,6.875 L38.9583333,11.4583333 L41.25,11.4583333 L41.25,6.875 L52.7083333,6.875 L52.7083333,16.0416667 L2.29166667,16.0416667 Z" id="ion-ios-calendar-outline---Ionicons"></path>
                        <path d="M19.6915,25.628 L17.8715,27.308 L17.0875,26.37 L19.8455,24.088 L21.0355,24.088 L21.0355,34 L19.6915,34 L19.6915,25.628 Z M24.2811667,32.572 L28.2571667,28.624 C28.3971674,28.4933327 28.5324993,28.3510008 28.6631667,28.197 C28.793834,28.0429992 28.9104995,27.8820008 29.0131667,27.714 C29.1158338,27.5459992 29.1974997,27.3686676 29.2581667,27.182 C29.3188336,26.9953324 29.3491667,26.7993344 29.3491667,26.594 C29.3491667,26.3513321 29.3048338,26.132001 29.2161667,25.936 C29.1274996,25.739999 29.0061674,25.574334 28.8521667,25.439 C28.6981659,25.303666 28.5161677,25.198667 28.3061667,25.124 C28.0961656,25.049333 27.8745012,25.012 27.6411667,25.012 C27.1558309,25.012 26.7545016,25.147332 26.4371667,25.418 C26.1198317,25.688668 25.9191671,26.0619976 25.8351667,26.538 L24.3791667,26.412 C24.4445003,25.9733311 24.5728324,25.5930016 24.7641667,25.271 C24.955501,24.9489984 25.1934986,24.6806677 25.4781667,24.466 C25.7628348,24.2513323 26.0894982,24.0926672 26.4581667,23.99 C26.8268352,23.8873328 27.2258312,23.836 27.6551667,23.836 C28.0845021,23.836 28.4881648,23.8943328 28.8661667,24.011 C29.2441686,24.1276673 29.5754986,24.3003322 29.8601667,24.529 C30.1448348,24.7576678 30.3688325,25.0423316 30.5321667,25.383 C30.6955008,25.7236684 30.7771667,26.1226644 30.7771667,26.58 C30.7771667,26.9066683 30.7281672,27.2123319 30.6301667,27.497 C30.5321662,27.7816681 30.4038341,28.0499987 30.2451667,28.302 C30.0864992,28.5540013 29.904501,28.7919989 29.6991667,29.016 C29.4938323,29.2400011 29.2791678,29.4593323 29.0551667,29.674 L25.7931667,32.824 L30.7771667,32.824 L30.7771667,34 L24.2811667,34 L24.2811667,32.572 Z M31.8388333,29.044 C31.8388333,28.6799982 31.8574998,28.302002 31.8948333,27.91 C31.9321669,27.517998 31.9998328,27.1330019 32.0978333,26.755 C32.1958338,26.3769981 32.3264992,26.0153351 32.4898333,25.67 C32.6531675,25.3246649 32.8631654,25.023668 33.1198333,24.767 C33.3765013,24.5103321 33.6798316,24.3050008 34.0298333,24.151 C34.3798351,23.9969992 34.7881643,23.92 35.2548333,23.92 C35.7215023,23.92 36.1298316,23.9969992 36.4798333,24.151 C36.8298351,24.3050008 37.1331654,24.5103321 37.3898333,24.767 C37.6465013,25.023668 37.8564992,25.3246649 38.0198333,25.67 C38.1831675,26.0153351 38.3138328,26.3769981 38.4118333,26.755 C38.5098338,27.1330019 38.5774998,27.517998 38.6148333,27.91 C38.6521669,28.302002 38.6708333,28.6799982 38.6708333,29.044 C38.6708333,29.5666693 38.6241671,30.1266637 38.5308333,30.724 C38.4374995,31.3213363 38.2648346,31.8766641 38.0128333,32.39 C37.7608321,32.9033359 37.4131689,33.3279983 36.9698333,33.664 C36.5264978,34.0000017 35.9548368,34.168 35.2548333,34.168 C34.5548298,34.168 33.9831689,34.0000017 33.5398333,33.664 C33.0964978,33.3279983 32.7488346,32.9033359 32.4968333,32.39 C32.2448321,31.8766641 32.0721671,31.3213363 31.9788333,30.724 C31.8854995,30.1266637 31.8388333,29.5666693 31.8388333,29.044 Z M33.1828333,29.044 C33.1828333,29.3706683 33.2038331,29.7579978 33.2458333,30.206 C33.2878335,30.6540022 33.3788326,31.0856646 33.5188333,31.501 C33.658834,31.9163354 33.8664986,32.2686652 34.1418333,32.558 C34.417168,32.8473348 34.7881643,32.992 35.2548333,32.992 C35.7215023,32.992 36.0924986,32.8473348 36.3678333,32.558 C36.643168,32.2686652 36.8508326,31.9163354 36.9908333,31.501 C37.130834,31.0856646 37.2218331,30.6540022 37.2638333,30.206 C37.3058335,29.7579978 37.3268333,29.3706683 37.3268333,29.044 C37.3268333,28.8199989 37.3198334,28.5656681 37.3058333,28.281 C37.2918333,27.9963319 37.2591669,27.7070015 37.2078333,27.413 C37.1564997,27.1189985 37.0841671,26.8343347 36.9908333,26.559 C36.8974995,26.2836653 36.7738341,26.0363344 36.6198333,25.817 C36.4658326,25.5976656 36.2768345,25.4226673 36.0528333,25.292 C35.8288322,25.1613327 35.5628349,25.096 35.2548333,25.096 C34.9468318,25.096 34.6808345,25.1613327 34.4568333,25.292 C34.2328322,25.4226673 34.0438341,25.5976656 33.8898333,25.817 C33.7358326,26.0363344 33.6121671,26.2836653 33.5188333,26.559 C33.4254995,26.8343347 33.3531669,27.1189985 33.3018333,27.413 C33.2504997,27.7070015 33.2178334,27.9963319 33.2038333,28.281 C33.1898333,28.5656681 33.1828333,28.8199989 33.1828333,29.044 Z"></path>
                        <path d="M16.361,42.016 C16.3770001,41.9119995 16.3929999,41.7860007 16.409,41.638 C16.4250001,41.4899993 16.439,41.3400008 16.451,41.188 C16.4630001,41.0359992 16.475,40.8940007 16.487,40.762 C16.4990001,40.6299993 16.509,40.5280004 16.517,40.456 L17.237,40.456 C17.2209999,40.664001 17.2010001,40.863999 17.177,41.056 C17.1529999,41.248001 17.145,41.3719997 17.153,41.428 L17.189,41.428 C17.2850005,41.2759992 17.4029993,41.1320007 17.543,40.996 C17.6830007,40.8599993 17.8409991,40.7420005 18.017,40.642 C18.1930009,40.5419995 18.384999,40.4620003 18.593,40.402 C18.8010011,40.3419997 19.0169989,40.312 19.241,40.312 C19.6730022,40.312 20.0169987,40.3799993 20.273,40.516 C20.5290013,40.6520007 20.7189994,40.8299989 20.843,41.05 C20.9670006,41.2700011 21.0369999,41.5239986 21.053,41.812 C21.0690001,42.1000014 21.0570002,42.3959985 21.017,42.7 L20.561,46 L19.841,46 L20.297,42.736 C20.3290002,42.5119989 20.3410001,42.2940011 20.333,42.082 C20.325,41.8699989 20.2810004,41.6800008 20.201,41.512 C20.1209996,41.3439992 19.9990008,41.2100005 19.835,41.11 C19.6709992,41.0099995 19.4450015,40.96 19.157,40.96 C18.8929987,40.96 18.6370013,41.0059995 18.389,41.098 C18.1409988,41.1900005 17.917001,41.3299991 17.717,41.518 C17.516999,41.7060009 17.3470007,41.9419986 17.207,42.226 C17.0669993,42.5100014 16.9690003,42.8439981 16.913,43.228 L16.529,46 L15.809,46 L16.361,42.016 Z M23.319,40.456 L24.039,40.456 L23.271,46 L22.551,46 L23.319,40.456 Z M23.451,38.26 C23.4750001,38.1079992 23.5449994,37.9800005 23.661,37.876 C23.7770006,37.7719995 23.9109992,37.72 24.063,37.72 C24.2150008,37.72 24.3369995,37.7719995 24.429,37.876 C24.5210005,37.9800005 24.5550001,38.1079992 24.531,38.26 C24.5149999,38.4120008 24.4470006,38.5399995 24.327,38.644 C24.2069994,38.7480005 24.0710008,38.8 23.919,38.8 C23.7669992,38.8 23.6470004,38.7480005 23.559,38.644 C23.4709996,38.5399995 23.4349999,38.4120008 23.451,38.26 Z M30.877,45.64 C30.7809995,46.3280034 30.6010013,46.8839979 30.337,47.308 C30.0729987,47.7320021 29.7770016,48.0599988 29.449,48.292 C29.1209984,48.5240012 28.7790018,48.6799996 28.423,48.76 C28.0669982,48.8400004 27.7490014,48.88 27.469,48.88 C26.9089972,48.88 26.3950023,48.778001 25.927,48.574 C25.4589977,48.369999 25.1090012,48.0840018 24.877,47.716 L25.525,47.188 C25.725001,47.5480018 26.0049982,47.8119992 26.365,47.98 C26.7250018,48.1480008 27.1209978,48.232 27.553,48.232 C27.9210018,48.232 28.2369987,48.1840005 28.501,48.088 C28.7650013,47.9919995 28.9909991,47.8660008 29.179,47.71 C29.3670009,47.5539992 29.5209994,47.3820009 29.641,47.194 C29.7610006,47.0059991 29.8549997,46.8180009 29.923,46.63 C29.9910003,46.4419991 30.0409998,46.2640008 30.073,46.096 C30.1050002,45.9279992 30.1289999,45.7920005 30.145,45.688 L30.253,44.92 L30.229,44.92 C29.9729987,45.2560017 29.6550019,45.519999 29.275,45.712 C28.8949981,45.904001 28.4650024,46 27.985,46 C27.576998,46 27.2030017,45.9260007 26.863,45.778 C26.5229983,45.6299993 26.2370012,45.4260013 26.005,45.166 C25.7729988,44.9059987 25.6030005,44.6040017 25.495,44.26 C25.3869995,43.9159983 25.3609997,43.548002 25.417,43.156 C25.4730003,42.763998 25.602999,42.3960017 25.807,42.052 C26.011001,41.7079983 26.2649985,41.4080013 26.569,41.152 C26.8730015,40.8959987 27.2149981,40.6920008 27.595,40.54 C27.9750019,40.3879992 28.368998,40.312 28.777,40.312 C29.2570024,40.312 29.6609984,40.407999 29.989,40.6 C30.3170016,40.792001 30.5609992,41.0559983 30.721,41.392 L30.745,41.392 L30.877,40.456 L31.597,40.456 L30.877,45.64 Z M30.529,43.156 C30.5690002,42.8519985 30.5510004,42.5660013 30.475,42.298 C30.3989996,42.0299987 30.2750009,41.798001 30.103,41.602 C29.9309991,41.405999 29.7210012,41.2500006 29.473,41.134 C29.2249988,41.0179994 28.9490015,40.96 28.645,40.96 C28.3409985,40.96 28.0470014,41.0179994 27.763,41.134 C27.4789986,41.2500006 27.2230011,41.405999 26.995,41.602 C26.7669989,41.798001 26.5770008,42.0299987 26.425,42.298 C26.2729992,42.5660013 26.1770002,42.8519985 26.137,43.156 C26.0969998,43.4600015 26.1149996,43.7459987 26.191,44.014 C26.2670004,44.2820013 26.3909991,44.513999 26.563,44.71 C26.7350009,44.906001 26.9449988,45.0619994 27.193,45.178 C27.4410012,45.2940006 27.7169985,45.352 28.021,45.352 C28.3250015,45.352 28.6189986,45.2940006 28.903,45.178 C29.1870014,45.0619994 29.4429989,44.906001 29.671,44.71 C29.8990011,44.513999 30.0889992,44.2820013 30.241,44.014 C30.3930008,43.7459987 30.4889998,43.4600015 30.529,43.156 Z M33.815,36.928 L34.535,36.928 L33.899,41.428 L33.923,41.428 C34.0190005,41.2759992 34.1369993,41.1320007 34.277,40.996 C34.4170007,40.8599993 34.5749991,40.7420005 34.751,40.642 C34.9270009,40.5419995 35.118999,40.4620003 35.327,40.402 C35.535001,40.3419997 35.7509989,40.312 35.975,40.312 C36.4070022,40.312 36.7509987,40.3799993 37.007,40.516 C37.2630013,40.6520007 37.4529994,40.8299989 37.577,41.05 C37.7010006,41.2700011 37.7709999,41.5239986 37.787,41.812 C37.8030001,42.1000014 37.7910002,42.3959985 37.751,42.7 L37.295,46 L36.575,46 L37.031,42.736 C37.0630002,42.5119989 37.075,42.2940011 37.067,42.082 C37.059,41.8699989 37.0150004,41.6800008 36.935,41.512 C36.8549996,41.3439992 36.7330008,41.2100005 36.569,41.11 C36.4049992,41.0099995 36.1790014,40.96 35.891,40.96 C35.6269987,40.96 35.3710012,41.0059995 35.123,41.098 C34.8749988,41.1900005 34.651001,41.3299991 34.451,41.518 C34.250999,41.7060009 34.0810007,41.9419986 33.941,42.226 C33.8009993,42.5100014 33.7030003,42.8439981 33.647,43.228 L33.263,46 L32.543,46 L33.815,36.928 Z M42.561,41.104 L40.977,41.104 L40.473,44.716 C40.4329998,44.9640012 40.4709994,45.1559993 40.587,45.292 C40.7030006,45.4280007 40.8809988,45.496 41.121,45.496 C41.2570007,45.496 41.3989993,45.4780002 41.547,45.442 C41.6950007,45.4059998 41.8369993,45.3600003 41.973,45.304 L41.937,45.952 C41.8009993,46.0000002 41.6410009,46.0439998 41.457,46.084 C41.2729991,46.1240002 41.1130007,46.144 40.977,46.144 C40.7209987,46.144 40.5070009,46.1060004 40.335,46.03 C40.1629991,45.9539996 40.0290005,45.8520006 39.933,45.724 C39.8369995,45.5959994 39.7750001,45.4460009 39.747,45.274 C39.7189999,45.1019991 39.7209998,44.916001 39.753,44.716 L40.257,41.104 L39.057,41.104 L39.141,40.456 L40.341,40.456 L40.569,38.86 L41.289,38.86 L41.061,40.456 L42.645,40.456 L42.561,41.104 Z" id="night"></path>
                    </g>
                </g>
            </g>
        </g>
    </g>
</svg>