<?xml version="1.0" encoding="utf-8"?>
<!-- Generator: Adobe Illustrator 21.0.0, SVG Export Plug-In . SVG Version: 6.00 Build 0)  -->
<svg width="76px" height="50px" viewBox="0 0 76 55" version="1.1" xmlns="http://www.w3.org/2000/svg" xmlns:xlink="http://www.w3.org/1999/xlink">
<style type="text/css">
	.st0{fill:#FFFFFF;}
</style>
<title>freeshipping</title>
<desc>Created with Sketch.</desc>
<g>
	<g>
		<path class="st0" d="M18.6,49.1c-0.2,0.1-0.6,0.2-1,0.1c-0.5-0.1-1-0.4-1.3-0.9c-0.6-0.7-0.7-2-0.3-2.3c0.4-0.3,1.1,0.2,1.5,0.7
			c0.3,0.4,0.5,0.8,0.7,1.3C18.3,48.5,18.5,48.9,18.6,49.1z"/>
		<path class="st0" d="M18.8,49.7c0,0.3-0.1,0.7-0.4,1.2c-0.3,0.5-0.8,0.9-1.6,1.2c-0.6,0.2-1.3,0.2-1.9,0.1c-0.6-0.1-1-0.3-1.1-0.6
			c-0.1-0.5,1-1.1,2-1.4c0.7-0.2,1.4-0.3,1.9-0.4C18.1,49.7,18.5,49.7,18.8,49.7z"/>
	</g>
	<g>
		<path class="st0" d="M14.7,47.6c-0.5-0.1-1.6-0.7-2.1-1.9c-0.4-0.9-0.3-2.2,0.2-2.3c0.4-0.2,1.1,0.6,1.5,1.2
			c0.3,0.5,0.4,1.2,0.5,1.7C14.8,46.8,14.7,47.3,14.7,47.6z"/>
		<path class="st0" d="M14.5,48.1c-0.4,0.4-1.4,1.2-2.8,1.2c-1.1,0-2.4-0.7-2.4-1.2c0-0.5,1.3-0.8,2.2-0.9
			C12.9,47.1,14,47.8,14.5,48.1z"/>
	</g>
	<g>
		<path class="st0" d="M11.2,44.5c-0.4-0.3-1.4-1-1.7-2.3c-0.2-1,0.1-2.2,0.5-2.3c0.5-0.1,1.1,0.8,1.3,1.6
			C11.8,42.7,11.4,44,11.2,44.5z"/>
		<path class="st0" d="M10.9,45c-0.5,0.3-1.6,0.9-3,0.5c-1-0.3-2.2-1.1-2.1-1.6c0.1-0.5,1.4-0.6,2.3-0.4C9.6,43.7,10.6,44.6,10.9,45
			z"/>
	</g>
	<g>
		<path class="st0" d="M8.4,40.8c-0.2-0.2-0.5-0.5-0.8-0.9c-0.3-0.4-0.5-1-0.5-1.6c0-0.5,0.1-1,0.2-1.4c0.2-0.4,0.4-0.7,0.7-0.7
			c0.2,0,0.4,0.2,0.6,0.5C8.8,37,8.9,37.4,9,37.8C9.3,39.1,8.7,40.3,8.4,40.8z"/>
		<path class="st0" d="M8,41.2c-0.5,0.2-1.7,0.6-3,0.1c-0.5-0.2-1-0.5-1.3-0.9c-0.4-0.4-0.6-0.8-0.5-1c0.2-0.5,1.5-0.4,2.3-0.1
			C6.9,39.7,7.7,40.8,8,41.2z"/>
	</g>
	<g>
		<path class="st0" d="M6.2,36.7c-0.2-0.2-0.4-0.5-0.6-1c-0.2-0.5-0.3-1-0.2-1.7c0.1-0.9,0.9-2,1.3-1.9c0.2,0,0.4,0.3,0.5,0.7
			c0.1,0.4,0.2,0.8,0.1,1.2C7.3,35.2,6.5,36.3,6.2,36.7z"/>
		<path class="st0" d="M5.7,37.1c-0.5,0.1-1.8,0.3-3-0.5C1.8,36,1,34.8,1.3,34.3c0.3-0.4,1.5,0,2.3,0.4c0.3,0.2,0.6,0.4,0.8,0.6
			c0.2,0.2,0.4,0.4,0.6,0.7C5.4,36.5,5.6,36.8,5.7,37.1z"/>
	</g>
	<g>
		<path class="st0" d="M4.8,32.3c-0.1-0.2-0.3-0.6-0.4-1.1c-0.1-0.5-0.1-1.1,0.2-1.7c0.4-0.9,1.2-1.8,1.7-1.6c0.4,0.2,0.5,1.2,0.3,2
			c-0.2,0.6-0.5,1.1-0.8,1.6C5.4,31.9,5,32.2,4.8,32.3z"/>
		<path class="st0" d="M4.3,32.6c-0.5,0-1.8-0.1-2.8-1.1c-0.4-0.4-0.7-0.9-0.9-1.4c-0.2-0.5-0.2-0.9,0-1.1c0.4-0.3,1.5,0.3,2.2,0.9
			c0.6,0.5,0.9,1,1.2,1.5C4.1,31.9,4.2,32.3,4.3,32.6z"/>
	</g>
	<g>
		<path class="st0" d="M4.4,27.7c-0.1-0.2-0.2-0.7-0.2-1.2c0-0.5,0.1-1.1,0.5-1.7c0.5-0.8,1.5-1.6,2-1.4c0.4,0.2,0.3,1.3-0.1,2.1
			C6,26.8,4.8,27.5,4.4,27.7z"/>
		<path class="st0" d="M3.8,27.9c-0.3-0.1-0.7-0.2-1.2-0.4c-0.5-0.2-1-0.6-1.4-1.2c-0.3-0.4-0.5-1-0.6-1.5c-0.1-0.5-0.1-0.9,0.1-1.1
			c0.4-0.3,1.4,0.5,2,1.2c0.5,0.6,0.7,1.2,0.9,1.7C3.8,27.1,3.8,27.6,3.8,27.9z"/>
	</g>
	<g>
		<path class="st0" d="M4.8,23.1c-0.1-0.5-0.1-1.7,0.7-2.8c0.6-0.8,1.7-1.4,2.1-1.1c0.4,0.3,0.1,1.3-0.4,2.1c-0.4,0.6-0.8,1-1.3,1.3
			C5.4,22.8,5,23,4.8,23.1z"/>
		<path class="st0" d="M4.2,23.1c-0.5-0.2-1.7-0.7-2.3-2c-0.5-0.9-0.6-2.3-0.1-2.6c0.4-0.2,1.3,0.7,1.8,1.5
			C4.4,21.3,4.2,22.6,4.2,23.1z"/>
	</g>
	<g>
		<path class="st0" d="M5.8,18.5c0-0.5,0.1-1.8,1.1-2.6c0.7-0.7,1.9-1.1,2.3-0.7C9.5,15.4,9,16.4,8.5,17C7.7,18,6.3,18.4,5.8,18.5z"
			/>
		<path class="st0" d="M5.2,18.5c-0.5-0.3-1.6-0.9-2-2.3c-0.3-1-0.2-2.5,0.2-2.6c0.5-0.2,1.2,0.9,1.6,1.7C5.6,16.7,5.4,18,5.2,18.5z
			"/>
	</g>
	<g>
		<path class="st0" d="M7.5,14.1c0.1-0.5,0.4-1.7,1.5-2.4c0.8-0.5,2.1-0.8,2.4-0.4c0.3,0.4-0.3,1.3-1,1.9C9.4,14,8,14.1,7.5,14.1z"
			/>
		<path class="st0" d="M6.9,14c-0.4-0.3-1.4-1.1-1.6-2.6c-0.2-1,0.1-2.4,0.6-2.5c0.5-0.1,1.1,1,1.3,1.9C7.6,12.3,7.1,13.6,6.9,14z"
			/>
	</g>
	<g>
		<path class="st0" d="M9.8,10.1C9.9,9.8,10,9.4,10.3,9c0.3-0.4,0.6-0.9,1.2-1.1c0.9-0.4,2.2-0.5,2.5-0.1c0.1,0.2,0,0.5-0.3,0.8
			c-0.1,0.2-0.3,0.3-0.5,0.5C13,9.2,13,9.2,12.8,9.3c-0.5,0.3-1.1,0.5-1.7,0.7C10.5,10.2,10.1,10.1,9.8,10.1z"/>
		<path class="st0" d="M9.3,9.9c-0.2-0.2-0.5-0.5-0.8-1C8.3,8.4,8,7.9,7.9,7.2c-0.1-0.5,0-1.1,0.3-1.7c0.1-0.3,0.3-0.5,0.4-0.6
			c0.1-0.1,0.2-0.2,0.4-0.2c0.2,0,0.5,0.3,0.7,0.7c0.2,0.4,0.3,0.9,0.4,1.4c0.1,0.8,0,1.4-0.1,1.9C9.6,9.3,9.4,9.7,9.3,9.9z"/>
	</g>
	<g>
		<path class="st0" d="M12.7,6.4c0.2-0.5,0.8-1.6,2.1-2c0.9-0.3,2.2-0.2,2.3,0.3c0.2,0.4-0.6,1.1-1.3,1.4c-0.6,0.3-1.2,0.3-1.7,0.4
			C13.4,6.5,12.9,6.4,12.7,6.4z"/>
		<path class="st0" d="M12.1,6.1c-0.2-0.2-0.4-0.6-0.6-1.1c-0.2-0.5-0.4-1.1-0.3-1.8c0.1-1.1,0.8-2.4,1.3-2.3c0.5,0,0.7,1.3,0.7,2.2
			C13.3,4.7,12.5,5.7,12.1,6.1z"/>
	</g>
</g>
<g>
	<g>
		<path class="st0" d="M46.4,50.9c0.3-0.1,0.8-0.2,1.3-0.4c0.6-0.1,1.2-0.3,1.9-0.3c1.1-0.1,2.5,0,2.6,0.5c0,0.2-0.2,0.6-0.7,0.9
			c-0.5,0.3-1.1,0.6-1.7,0.7c-0.9,0.2-1.8,0-2.4-0.4C46.8,51.5,46.5,51.1,46.4,50.9z"/>
		<path class="st0" d="M46.2,50.3c0.1-0.5,0.5-1.7,0.9-2.7c0.3-0.7,0.8-1.5,1.2-1.3c0.4,0.2,0.6,1.4,0.3,2.2
			c-0.2,0.7-0.6,1.2-1.1,1.4C47,50.3,46.5,50.3,46.2,50.3z"/>
	</g>
	<g>
		<path class="st0" d="M51.3,49c0.4-0.4,1.1-1.4,2.5-1.8c1-0.3,2.3-0.5,2.6-0.1c0.2,0.4-0.8,1.5-1.7,1.9c-0.7,0.4-1.4,0.4-2,0.3
			C52,49.3,51.5,49.1,51.3,49z"/>
		<path class="st0" d="M50.8,48.6c-0.2-0.5-0.6-1.7-0.4-3c0.2-0.9,0.6-1.9,1-1.9c0.4,0.1,0.9,1.2,0.9,2.1
			C52.3,47.4,51.3,48.3,50.8,48.6z"/>
	</g>
	<g>
		<path class="st0" d="M55,45.7c0.2-0.5,0.8-1.6,2-2.3c0.9-0.5,2.2-0.9,2.5-0.5c0.3,0.4-0.5,1.5-1.3,2.1C57,46,55.5,45.8,55,45.7z"
			/>
		<path class="st0" d="M54.5,45.4c-0.3-0.4-1-1.5-1-2.8c0-0.9,0.2-2.1,0.7-2.1c0.5,0,1.1,1,1.2,1.9C55.7,43.9,54.9,45,54.5,45.4z"/>
	</g>
	<g>
		<path class="st0" d="M58,41.8c0.1-0.3,0.2-0.7,0.5-1.1c0.3-0.5,0.6-0.9,1.2-1.4c0.4-0.3,0.9-0.6,1.4-0.8c0.4-0.2,0.8-0.3,1-0.1
			c0.2,0.2,0.1,0.6-0.1,1c-0.2,0.4-0.5,1-0.9,1.3C60,41.8,58.5,41.8,58,41.8z"/>
		<path class="st0" d="M57.5,41.6c-0.4-0.4-1.2-1.3-1.4-2.6c-0.1-0.5-0.1-1,0-1.5c0-0.4,0.2-0.7,0.4-0.7c0.4-0.1,1.2,0.9,1.5,1.7
			C58.4,39.9,57.7,41.1,57.5,41.6z"/>
	</g>
	<g>
		<path class="st0" d="M60.4,37.4c0-0.3,0.1-0.7,0.3-1.2c0.2-0.5,0.4-1.1,0.9-1.6c0.7-0.8,1.7-1.6,2.1-1.4c0.2,0.1,0.2,0.5,0.1,1
			c-0.1,0.5-0.3,1-0.6,1.5C62.3,37.1,60.9,37.4,60.4,37.4z"/>
		<path class="st0" d="M59.8,37.3c-0.5-0.3-1.4-1.1-1.9-2.3c-0.3-0.9-0.5-2-0.1-2.2c0.4-0.2,1.4,0.6,1.8,1.4
			c0.2,0.3,0.3,0.6,0.4,0.9c0.1,0.3,0.1,0.6,0.1,0.9C60.1,36.7,59.9,37.1,59.8,37.3z"/>
	</g>
	<g>
		<path class="st0" d="M61.9,32.7c0-0.3-0.1-0.7,0-1.3c0.1-0.5,0.2-1.1,0.5-1.8c0.5-0.9,1.4-1.9,1.8-1.8c0.5,0.2,0.4,1.6,0,2.5
			C64,31.2,63.5,31.7,63,32C62.6,32.4,62.1,32.6,61.9,32.7z"/>
		<path class="st0" d="M61.3,32.7c-0.5-0.2-1.6-0.8-2.3-1.9c-0.3-0.4-0.5-0.9-0.6-1.3c-0.1-0.4-0.1-0.7,0.1-0.9
			c0.4-0.3,1.5,0.3,2.1,1c0.5,0.5,0.7,1.2,0.8,1.7C61.4,32,61.4,32.4,61.3,32.7z"/>
	</g>
	<g>
		<path class="st0" d="M62.3,27.7c-0.1-0.3-0.2-0.7-0.2-1.2c-0.1-0.5,0-1.2,0.2-1.8c0.3-1,1-2.1,1.5-2c0.2,0.1,0.4,0.4,0.5,0.9
			c0.1,0.5,0.1,1.1,0,1.5C64,26.7,62.8,27.5,62.3,27.7z"/>
		<path class="st0" d="M61.8,27.9c-0.3-0.1-0.7-0.2-1.2-0.4c-0.5-0.2-1-0.5-1.5-1c-0.3-0.3-0.6-0.8-0.8-1.2
			c-0.2-0.4-0.2-0.7-0.1-0.9c0.3-0.3,1.5,0.1,2.2,0.6c0.6,0.4,0.9,1,1.1,1.5C61.7,27.1,61.8,27.6,61.8,27.9z"/>
	</g>
	<g>
		<path class="st0" d="M61.9,22.8c-0.2-0.5-0.7-1.6-0.5-3c0.2-1,0.7-2.2,1.2-2.2c0.5,0,0.8,1.3,0.8,2.3c0,0.8-0.3,1.4-0.7,1.9
			C62.5,22.3,62.1,22.6,61.9,22.8z"/>
		<path class="st0" d="M61.4,23c-0.5,0-1.8-0.2-2.8-1c-0.8-0.6-1.5-1.6-1.2-1.9c0.3-0.4,1.5-0.1,2.3,0.3
			C60.9,21.2,61.3,22.5,61.4,23z"/>
	</g>
	<g>
		<path class="st0" d="M60.8,18c-0.3-0.5-0.9-1.5-0.9-2.9c0-1,0.4-2.3,0.9-2.4c0.5,0,1.1,1.2,1.1,2.2C62.1,16.6,61.2,17.6,60.8,18z"
			/>
		<path class="st0" d="M60.3,18.3c-0.5,0-1.8,0.1-2.9-0.6c-0.8-0.5-1.6-1.3-1.4-1.7c0.2-0.4,1.5-0.4,2.3,0
			C59.7,16.5,60.2,17.8,60.3,18.3z"/>
	</g>
	<g>
		<path class="st0" d="M59.1,13.4c-0.4-0.4-1.1-1.4-1.3-2.7c-0.1-1,0.1-2.3,0.5-2.5c0.5-0.1,1.2,1,1.4,2
			C60.1,11.7,59.4,12.9,59.1,13.4z"/>
		<path class="st0" d="M58.6,13.8c-0.5,0.1-1.8,0.3-3-0.1c-0.9-0.3-1.9-1-1.7-1.5c0.2-0.4,1.4-0.6,2.3-0.4
			C57.6,12.1,58.4,13.3,58.6,13.8z"/>
	</g>
	<g>
		<path class="st0" d="M56.6,9.1c-0.2-0.2-0.5-0.5-0.8-0.9c-0.3-0.4-0.6-1-0.8-1.7c-0.3-0.9-0.3-2.2,0.2-2.4
			c0.2-0.1,0.6,0.1,0.9,0.4c0.2,0.2,0.3,0.4,0.5,0.6c0.1,0.2,0.3,0.5,0.4,0.8c0.3,0.8,0.2,1.5,0.1,2C56.9,8.4,56.7,8.9,56.6,9.1z"/>
		<path class="st0" d="M56.2,9.6C56,9.7,55.6,9.8,55,9.9c-0.5,0.1-1.2,0-1.8-0.2c-0.5-0.2-0.9-0.4-1.2-0.5c-0.1,0-0.3-0.2-0.4-0.3
			c-0.1-0.1-0.2-0.2-0.1-0.4c0-0.2,0.4-0.4,0.8-0.5c0.4-0.1,1-0.2,1.4-0.2c0.7,0,1.3,0.4,1.7,0.8C55.8,9,56.1,9.3,56.2,9.6z"/>
	</g>
	<g>
		<path class="st0" d="M53.6,5.2c-0.5-0.3-1.4-1-2-2.3C51.3,2,51,0.6,51.4,0.4c0.4-0.2,1.5,0.7,2,1.6c0.4,0.7,0.5,1.4,0.5,2
			C53.9,4.5,53.7,5,53.6,5.2z"/>
		<path class="st0" d="M53.3,5.7c-0.2,0.1-0.6,0.3-1.2,0.5c-0.5,0.2-1.2,0.2-1.8,0.2c-0.9-0.1-2-0.5-1.9-0.9c0-0.4,1.2-1,2.1-1
			C51.9,4.3,52.9,5.3,53.3,5.7z"/>
	</g>
</g>
<g>
	<path class="st0" d="M19.4,28.4c1.4-1.3,2.7-2.6,3.9-3.9s2.6-2.6,3.9-4c1.1-1.1,2-2.3,2.7-3.4c0.7-1.1,1-2.2,1-3.2
		c0-0.9-0.2-1.6-0.6-2.2c-0.4-0.6-1.1-0.9-2.1-0.9c-0.5,0-0.9,0.1-1.2,0.2s-0.7,0.3-0.9,0.5c-0.3,0.2-0.4,0.4-0.6,0.7
		c-0.1,0.3-0.2,0.5-0.2,0.8c0,0.1,0,0.2,0,0.3c0,0.1,0,0.1,0,0.2c0,0.1,0,0.1,0,0.2s0,0.2,0,0.3c0,0.3-0.1,0.5-0.3,0.7
		C25,14.9,24.7,15,24.4,15c-0.7,0-1-0.4-1-1.1c0-0.3,0.1-0.7,0.4-1.1c0.3-0.4,0.6-0.8,1.1-1.1c0.4-0.3,1-0.6,1.6-0.9
		c0.6-0.2,1.3-0.4,2.1-0.4c0.6,0,1.2,0.1,1.8,0.3c0.6,0.2,1,0.5,1.5,0.9s0.7,0.8,1,1.3c0.2,0.5,0.4,1,0.4,1.5c0,0.6-0.1,1.1-0.3,1.6
		s-0.5,1-0.8,1.5c-0.3,0.5-0.7,0.9-1.2,1.4s-1,0.9-1.5,1.4L21.4,27V27h6.8c0.5,0,0.9-0.1,1.3-0.2s0.6-0.5,0.8-0.9l0.3-1H31l-1,3.8
		H19.5L19.4,28.4z"/>
	<path class="st0" d="M41.5,10.8c0.8,0,1.5,0,2.1,0c0.6,0,1.1-0.1,1.4-0.3s0.5-0.4,0.7-0.5l0.2,0.2c-0.1,0.2-0.3,0.4-0.4,0.7
		c-0.2,0.3-0.4,0.6-0.6,0.8s-0.5,0.5-0.9,0.7c-0.3,0.2-0.8,0.3-1.2,0.3h-1.1c-0.5,0-0.9,0-1.3,0c-0.4,0-0.8-0.1-1.2-0.1l-1.3,4.6
		c2.1,0.1,3.6,0.5,4.6,1.4c1,0.8,1.4,1.9,1.4,3.2c0,0.9-0.2,1.9-0.7,2.8c-0.5,0.9-1.1,1.8-1.9,2.5c-0.8,0.7-1.6,1.3-2.6,1.8
		c-1,0.5-2,0.7-3,0.7c-0.4,0-0.8,0-1.1-0.1s-0.7-0.2-1-0.3c-0.3-0.1-0.5-0.3-0.7-0.5c-0.2-0.2-0.3-0.4-0.3-0.7
		c0-0.3,0.1-0.5,0.3-0.7s0.4-0.3,0.7-0.3c0.2,0,0.4,0,0.5,0.1s0.2,0.2,0.3,0.3c0.1,0.1,0.2,0.2,0.2,0.3s0.1,0.2,0.2,0.3
		c0.1,0.2,0.3,0.5,0.5,0.6s0.6,0.3,1.2,0.3c0.7,0,1.3-0.2,2-0.5c0.7-0.3,1.3-0.8,1.8-1.4c0.5-0.6,1-1.3,1.3-2.1
		c0.3-0.8,0.5-1.7,0.5-2.6c0-0.8-0.2-1.4-0.5-1.9c-0.3-0.5-0.7-0.8-1.2-1c-0.5-0.2-1-0.4-1.6-0.4c-0.6-0.1-1.2-0.1-1.7-0.1l2.3-8.3
		C40,10.7,40.8,10.8,41.5,10.8z"/>
</g>
<g>
	<path class="st0" d="M20.2,35.4l-0.7-3.9h-1.1l0-0.1h3.2l0,0.1h-1.2l0.7,3.6l3.2-3.6h-1l0-0.1h2l0,0.1h-0.8l-3.3,3.7l-1.2,3.4h1.2
		l0,0.1h-3.2l0-0.1h1.2L20.2,35.4z"/>
	<path class="st0" d="M25.6,31.5l0-0.1h5.8l-0.6,1.8h-0.1c0-0.1,0.1-0.2,0.1-0.3c0-0.1,0-0.3,0-0.4c0-0.3-0.1-0.5-0.2-0.6
		c-0.1-0.2-0.3-0.2-0.7-0.2h-2.2l-1.2,3.2h1c0.2,0,0.4-0.1,0.6-0.2c0.2-0.1,0.3-0.2,0.4-0.4c0.1-0.1,0.2-0.3,0.3-0.4
		c0.1-0.1,0.1-0.2,0.2-0.3h0.1l-1.1,3H28c0-0.1,0.1-0.2,0.1-0.3s0-0.3,0-0.4c0-0.3-0.1-0.5-0.2-0.6c-0.2-0.1-0.4-0.2-0.6-0.2h-0.7
		l-1.3,3.8h2.4c0.3,0,0.5-0.1,0.8-0.2c0.2-0.2,0.5-0.3,0.6-0.6c0.2-0.2,0.3-0.4,0.5-0.6s0.2-0.4,0.3-0.5h0.1l-0.7,2h-6l0-0.1h1.1
		l2.5-7.1H25.6z"/>
	<path class="st0" d="M31.2,38.6l5.2-7.4h0.2l0.2,7.4H38l0,0.1h-3.2l0-0.1h1.1l-0.1-2.9h-2.4l-2,2.9h1.1l0,0.1h-2.1l0-0.1H31.2z
		 M35.8,32.4l-2.2,3.2h2.3L35.8,32.4L35.8,32.4z"/>
	<path class="st0" d="M40.2,31.5l0.1-0.1h2.5c0.2,0,0.5,0,0.8,0.1c0.3,0.1,0.5,0.1,0.7,0.3c0.2,0.1,0.4,0.3,0.5,0.5
		C45,32.4,45,32.7,45,33c0,0.2-0.1,0.5-0.2,0.7c-0.1,0.2-0.2,0.3-0.4,0.5c-0.2,0.1-0.4,0.2-0.6,0.3c-0.2,0.1-0.4,0.2-0.6,0.2
		s-0.4,0.1-0.5,0.1s-0.3,0-0.3,0l0,0c0.1,0,0.3,0,0.4,0.1c0.2,0,0.3,0.1,0.5,0.2c0.2,0.1,0.3,0.2,0.4,0.4c0.1,0.2,0.2,0.4,0.2,0.6
		c0,0.2,0,0.3,0,0.5c0,0.2-0.1,0.3-0.1,0.5s-0.1,0.3-0.1,0.5c0,0.2,0,0.3,0,0.5c0,0.2,0.1,0.3,0.2,0.5c0.1,0.1,0.2,0.2,0.4,0.2
		c0.1,0,0.1,0,0.2,0c0.1,0,0.1,0,0.1,0l0,0.1c0,0-0.1,0-0.2,0s-0.2,0-0.3,0c-0.2,0-0.4,0-0.5-0.1s-0.3-0.1-0.4-0.2s-0.2-0.2-0.3-0.3
		c-0.1-0.1-0.1-0.3-0.1-0.5c0-0.1,0-0.2,0-0.4c0-0.2,0.1-0.3,0.1-0.5c0-0.2,0.1-0.4,0.1-0.5c0-0.2,0-0.3,0-0.5c0-0.1,0-0.2-0.1-0.4
		c0-0.1-0.1-0.2-0.2-0.3s-0.2-0.1-0.4-0.2c-0.2,0-0.4-0.1-0.7-0.1h-0.4l-1.4,3.8H41L41,38.8h-3.2l0.1-0.1h1.1l2.5-7.1H40.2z
		 M41.9,34.7c0.3,0,0.5,0,0.7-0.1c0.2,0,0.4-0.1,0.5-0.2c0.1-0.1,0.2-0.1,0.3-0.2c0.1-0.1,0.2-0.2,0.3-0.4c0.1-0.1,0.2-0.3,0.2-0.5
		s0.1-0.4,0.1-0.7c0-0.4-0.1-0.7-0.4-0.9c-0.2-0.2-0.5-0.3-0.9-0.3h-0.4l-1.1,3.2H41.9z"/>
</g>
</svg>
