<?xml version="1.0" encoding="UTF-8"?>
<svg width="65px" height="53px" viewBox="0 0 65 53" version="1.1" xmlns="http://www.w3.org/2000/svg" xmlns:xlink="http://www.w3.org/1999/xlink">
    <!-- Generator: Sketch 44 (41411) - http://www.bohemiancoding.com/sketch -->
    <title>25year</title>
    <desc>Created with Sketch.</desc>
    <defs></defs>
    <g id="Page-1" stroke="none" stroke-width="1" fill="none" fill-rule="evenodd">
        <g id="25year" fill-rule="nonzero" fill="#454D5A">
            <g id="Group">
                <path d="M18.6,49.1 C18.4,49.2 18,49.3 17.6,49.2 C17.1,49.1 16.6,48.8 16.3,48.3 C15.7,47.6 15.6,46.3 16,46 C16.4,45.7 17.1,46.2 17.5,46.7 C17.8,47.1 18,47.5 18.2,48 C18.3,48.5 18.5,48.9 18.6,49.1 Z" id="Shape"></path>
                <path d="M18.8,49.7 C18.8,50 18.7,50.4 18.4,50.9 C18.1,51.4 17.6,51.8 16.8,52.1 C16.2,52.3 15.5,52.3 14.9,52.2 C14.3,52.1 13.9,51.9 13.8,51.6 C13.7,51.1 14.8,50.5 15.8,50.2 C16.5,50 17.2,49.9 17.7,49.8 C18.1,49.7 18.5,49.7 18.8,49.7 Z" id="Shape"></path>
                <path d="M14.7,47.6 C14.2,47.5 13.1,46.9 12.6,45.7 C12.2,44.8 12.3,43.5 12.8,43.4 C13.2,43.2 13.9,44 14.3,44.6 C14.6,45.1 14.7,45.8 14.8,46.3 C14.8,46.8 14.7,47.3 14.7,47.6 Z" id="Shape"></path>
                <path d="M14.5,48.1 C14.1,48.5 13.1,49.3 11.7,49.3 C10.6,49.3 9.3,48.6 9.3,48.1 C9.3,47.6 10.6,47.3 11.5,47.2 C12.9,47.1 14,47.8 14.5,48.1 Z" id="Shape"></path>
                <path d="M11.2,44.5 C10.8,44.2 9.8,43.5 9.5,42.2 C9.3,41.2 9.6,40 10,39.9 C10.5,39.8 11.1,40.7 11.3,41.5 C11.8,42.7 11.4,44 11.2,44.5 Z" id="Shape"></path>
                <path d="M10.9,45 C10.4,45.3 9.3,45.9 7.9,45.5 C6.9,45.2 5.7,44.4 5.8,43.9 C5.9,43.4 7.2,43.3 8.1,43.5 C9.6,43.7 10.6,44.6 10.9,45 Z" id="Shape"></path>
                <path d="M8.4,40.8 C8.2,40.6 7.9,40.3 7.6,39.9 C7.3,39.5 7.1,38.9 7.1,38.3 C7.1,37.8 7.2,37.3 7.3,36.9 C7.5,36.5 7.7,36.2 8,36.2 C8.2,36.2 8.4,36.4 8.6,36.7 C8.8,37 8.9,37.4 9,37.8 C9.3,39.1 8.7,40.3 8.4,40.8 Z" id="Shape"></path>
                <path d="M8,41.2 C7.5,41.4 6.3,41.8 5,41.3 C4.5,41.1 4,40.8 3.7,40.4 C3.3,40 3.1,39.6 3.2,39.4 C3.4,38.9 4.7,39 5.5,39.3 C6.9,39.7 7.7,40.8 8,41.2 Z" id="Shape"></path>
                <path d="M6.2,36.7 C6,36.5 5.8,36.2 5.6,35.7 C5.4,35.2 5.3,34.7 5.4,34 C5.5,33.1 6.3,32 6.7,32.1 C6.9,32.1 7.1,32.4 7.2,32.8 C7.3,33.2 7.4,33.6 7.3,34 C7.3,35.2 6.5,36.3 6.2,36.7 Z" id="Shape"></path>
                <path d="M5.7,37.1 C5.2,37.2 3.9,37.4 2.7,36.6 C1.8,36 1,34.8 1.3,34.3 C1.6,33.9 2.8,34.3 3.6,34.7 C3.9,34.9 4.2,35.1 4.4,35.3 C4.6,35.5 4.8,35.7 5,36 C5.4,36.5 5.6,36.8 5.7,37.1 Z" id="Shape"></path>
                <path d="M4.8,32.3 C4.7,32.1 4.5,31.7 4.4,31.2 C4.3,30.7 4.3,30.1 4.6,29.5 C5,28.6 5.8,27.7 6.3,27.9 C6.7,28.1 6.8,29.1 6.6,29.9 C6.4,30.5 6.1,31 5.8,31.5 C5.4,31.9 5,32.2 4.8,32.3 Z" id="Shape"></path>
                <path d="M4.3,32.6 C3.8,32.6 2.5,32.5 1.5,31.5 C1.1,31.1 0.8,30.6 0.6,30.1 C0.4,29.6 0.4,29.2 0.6,29 C1,28.7 2.1,29.3 2.8,29.9 C3.4,30.4 3.7,30.9 4,31.4 C4.1,31.9 4.2,32.3 4.3,32.6 Z" id="Shape"></path>
                <path d="M4.4,27.7 C4.3,27.5 4.2,27 4.2,26.5 C4.2,26 4.3,25.4 4.7,24.8 C5.2,24 6.2,23.2 6.7,23.4 C7.1,23.6 7,24.7 6.6,25.5 C6,26.8 4.8,27.5 4.4,27.7 Z" id="Shape"></path>
                <path d="M3.8,27.9 C3.5,27.8 3.1,27.7 2.6,27.5 C2.1,27.3 1.6,26.9 1.2,26.3 C0.9,25.9 0.7,25.3 0.6,24.8 C0.5,24.3 0.5,23.9 0.7,23.7 C1.1,23.4 2.1,24.2 2.7,24.9 C3.2,25.5 3.4,26.1 3.6,26.6 C3.8,27.1 3.8,27.6 3.8,27.9 Z" id="Shape"></path>
                <path d="M4.8,23.1 C4.7,22.6 4.7,21.4 5.5,20.3 C6.1,19.5 7.2,18.9 7.6,19.2 C8,19.5 7.7,20.5 7.2,21.3 C6.8,21.9 6.4,22.3 5.9,22.6 C5.4,22.8 5,23 4.8,23.1 Z" id="Shape"></path>
                <path d="M4.2,23.1 C3.7,22.9 2.5,22.4 1.9,21.1 C1.4,20.2 1.3,18.8 1.8,18.5 C2.2,18.3 3.1,19.2 3.6,20 C4.4,21.3 4.2,22.6 4.2,23.1 Z" id="Shape"></path>
                <path d="M5.8,18.5 C5.8,18 5.9,16.7 6.9,15.9 C7.6,15.2 8.8,14.8 9.2,15.2 C9.5,15.4 9,16.4 8.5,17 C7.7,18 6.3,18.4 5.8,18.5 Z" id="Shape"></path>
                <path d="M5.2,18.5 C4.7,18.2 3.6,17.6 3.2,16.2 C2.9,15.2 3,13.7 3.4,13.6 C3.9,13.4 4.6,14.5 5,15.3 C5.6,16.7 5.4,18 5.2,18.5 Z" id="Shape"></path>
                <path d="M7.5,14.1 C7.6,13.6 7.9,12.4 9,11.7 C9.8,11.2 11.1,10.9 11.4,11.3 C11.7,11.7 11.1,12.6 10.4,13.2 C9.4,14 8,14.1 7.5,14.1 Z" id="Shape"></path>
                <path d="M6.9,14 C6.5,13.7 5.5,12.9 5.3,11.4 C5.1,10.4 5.4,9 5.9,8.9 C6.4,8.8 7,9.9 7.2,10.8 C7.6,12.3 7.1,13.6 6.9,14 Z" id="Shape"></path>
                <path d="M9.8,10.1 C9.9,9.8 10,9.4 10.3,9 C10.6,8.6 10.9,8.1 11.5,7.9 C12.4,7.5 13.7,7.4 14,7.8 C14.1,8 14,8.3 13.7,8.6 C13.6,8.8 13.4,8.9 13.2,9.1 C13,9.2 13,9.2 12.8,9.3 C12.3,9.6 11.7,9.8 11.1,10 C10.5,10.2 10.1,10.1 9.8,10.1 Z" id="Shape"></path>
                <path d="M9.3,9.9 C9.1,9.7 8.8,9.4 8.5,8.9 C8.3,8.4 8,7.9 7.9,7.2 C7.8,6.7 7.9,6.1 8.2,5.5 C8.3,5.2 8.5,5 8.6,4.9 C8.7,4.8 8.8,4.7 9,4.7 C9.2,4.7 9.5,5 9.7,5.4 C9.9,5.8 10,6.3 10.1,6.8 C10.2,7.6 10.1,8.2 10,8.7 C9.6,9.3 9.4,9.7 9.3,9.9 Z" id="Shape"></path>
                <path d="M12.7,6.4 C12.9,5.9 13.5,4.8 14.8,4.4 C15.7,4.1 17,4.2 17.1,4.7 C17.3,5.1 16.5,5.8 15.8,6.1 C15.2,6.4 14.6,6.4 14.1,6.5 C13.4,6.5 12.9,6.4 12.7,6.4 Z" id="Shape"></path>
                <path d="M12.1,6.1 C11.9,5.9 11.7,5.5 11.5,5 C11.3,4.5 11.1,3.9 11.2,3.2 C11.3,2.1 12,0.8 12.5,0.9 C13,0.9 13.2,2.2 13.2,3.1 C13.3,4.7 12.5,5.7 12.1,6.1 Z" id="Shape"></path>
            </g>
            <g id="Group" transform="translate(46.000000, 0.000000)">
                <path d="M0.4,50.9 C0.7,50.8 1.2,50.7 1.7,50.5 C2.3,50.4 2.9,50.2 3.6,50.2 C4.7,50.1 6.1,50.2 6.2,50.7 C6.2,50.9 6,51.3 5.5,51.6 C5,51.9 4.4,52.2 3.8,52.3 C2.9,52.5 2,52.3 1.4,51.9 C0.8,51.5 0.5,51.1 0.4,50.9 Z" id="Shape"></path>
                <path d="M0.2,50.3 C0.3,49.8 0.7,48.6 1.1,47.6 C1.4,46.9 1.9,46.1 2.3,46.3 C2.7,46.5 2.9,47.7 2.6,48.5 C2.4,49.2 2,49.7 1.5,49.9 C1,50.3 0.5,50.3 0.2,50.3 Z" id="Shape"></path>
                <path d="M5.3,49 C5.7,48.6 6.4,47.6 7.8,47.2 C8.8,46.9 10.1,46.7 10.4,47.1 C10.6,47.5 9.6,48.6 8.7,49 C8,49.4 7.3,49.4 6.7,49.3 C6,49.3 5.5,49.1 5.3,49 Z" id="Shape"></path>
                <path d="M4.8,48.6 C4.6,48.1 4.2,46.9 4.4,45.6 C4.6,44.7 5,43.7 5.4,43.7 C5.8,43.8 6.3,44.9 6.3,45.8 C6.3,47.4 5.3,48.3 4.8,48.6 Z" id="Shape"></path>
                <path d="M9,45.7 C9.2,45.2 9.8,44.1 11,43.4 C11.9,42.9 13.2,42.5 13.5,42.9 C13.8,43.3 13,44.4 12.2,45 C11,46 9.5,45.8 9,45.7 Z" id="Shape"></path>
                <path d="M8.5,45.4 C8.2,45 7.5,43.9 7.5,42.6 C7.5,41.7 7.7,40.5 8.2,40.5 C8.7,40.5 9.3,41.5 9.4,42.4 C9.7,43.9 8.9,45 8.5,45.4 Z" id="Shape"></path>
                <path d="M12,41.8 C12.1,41.5 12.2,41.1 12.5,40.7 C12.8,40.2 13.1,39.8 13.7,39.3 C14.1,39 14.6,38.7 15.1,38.5 C15.5,38.3 15.9,38.2 16.1,38.4 C16.3,38.6 16.2,39 16,39.4 C15.8,39.8 15.5,40.4 15.1,40.7 C14,41.8 12.5,41.8 12,41.8 Z" id="Shape"></path>
                <path d="M11.5,41.6 C11.1,41.2 10.3,40.3 10.1,39 C10,38.5 10,38 10.1,37.5 C10.1,37.1 10.3,36.8 10.5,36.8 C10.9,36.7 11.7,37.7 12,38.5 C12.4,39.9 11.7,41.1 11.5,41.6 Z" id="Shape"></path>
                <path d="M14.4,37.4 C14.4,37.1 14.5,36.7 14.7,36.2 C14.9,35.7 15.1,35.1 15.6,34.6 C16.3,33.8 17.3,33 17.7,33.2 C17.9,33.3 17.9,33.7 17.8,34.2 C17.7,34.7 17.5,35.2 17.2,35.7 C16.3,37.1 14.9,37.4 14.4,37.4 Z" id="Shape"></path>
                <path d="M13.8,37.3 C13.3,37 12.4,36.2 11.9,35 C11.6,34.1 11.4,33 11.8,32.8 C12.2,32.6 13.2,33.4 13.6,34.2 C13.8,34.5 13.9,34.8 14,35.1 C14.1,35.4 14.1,35.7 14.1,36 C14.1,36.7 13.9,37.1 13.8,37.3 Z" id="Shape"></path>
                <path d="M15.9,32.7 C15.9,32.4 15.8,32 15.9,31.4 C16,30.9 16.1,30.3 16.4,29.6 C16.9,28.7 17.8,27.7 18.2,27.8 C18.7,28 18.6,29.4 18.2,30.3 C18,31.2 17.5,31.7 17,32 C16.6,32.4 16.1,32.6 15.9,32.7 Z" id="Shape"></path>
                <path d="M15.3,32.7 C14.8,32.5 13.7,31.9 13,30.8 C12.7,30.4 12.5,29.9 12.4,29.5 C12.3,29.1 12.3,28.8 12.5,28.6 C12.9,28.3 14,28.9 14.6,29.6 C15.1,30.1 15.3,30.8 15.4,31.3 C15.4,32 15.4,32.4 15.3,32.7 Z" id="Shape"></path>
                <path d="M16.3,27.7 C16.2,27.4 16.1,27 16.1,26.5 C16,26 16.1,25.3 16.3,24.7 C16.6,23.7 17.3,22.6 17.8,22.7 C18,22.8 18.2,23.1 18.3,23.6 C18.4,24.1 18.4,24.7 18.3,25.1 C18,26.7 16.8,27.5 16.3,27.7 Z" id="Shape"></path>
                <path d="M15.8,27.9 C15.5,27.8 15.1,27.7 14.6,27.5 C14.1,27.3 13.6,27 13.1,26.5 C12.8,26.2 12.5,25.7 12.3,25.3 C12.1,24.9 12.1,24.6 12.2,24.4 C12.5,24.1 13.7,24.5 14.4,25 C15,25.4 15.3,26 15.5,26.5 C15.7,27.1 15.8,27.6 15.8,27.9 Z" id="Shape"></path>
                <path d="M15.9,22.8 C15.7,22.3 15.2,21.2 15.4,19.8 C15.6,18.8 16.1,17.6 16.6,17.6 C17.1,17.6 17.4,18.9 17.4,19.9 C17.4,20.7 17.1,21.3 16.7,21.8 C16.5,22.3 16.1,22.6 15.9,22.8 Z" id="Shape"></path>
                <path d="M15.4,23 C14.9,23 13.6,22.8 12.6,22 C11.8,21.4 11.1,20.4 11.4,20.1 C11.7,19.7 12.9,20 13.7,20.4 C14.9,21.2 15.3,22.5 15.4,23 Z" id="Shape"></path>
                <path d="M14.8,18 C14.5,17.5 13.9,16.5 13.9,15.1 C13.9,14.1 14.3,12.8 14.8,12.7 C15.3,12.7 15.9,13.9 15.9,14.9 C16.1,16.6 15.2,17.6 14.8,18 Z" id="Shape"></path>
                <path d="M14.3,18.3 C13.8,18.3 12.5,18.4 11.4,17.7 C10.6,17.2 9.8,16.4 10,16 C10.2,15.6 11.5,15.6 12.3,16 C13.7,16.5 14.2,17.8 14.3,18.3 Z" id="Shape"></path>
                <path d="M13.1,13.4 C12.7,13 12,12 11.8,10.7 C11.7,9.7 11.9,8.4 12.3,8.2 C12.8,8.1 13.5,9.2 13.7,10.2 C14.1,11.7 13.4,12.9 13.1,13.4 Z" id="Shape"></path>
                <path d="M12.6,13.8 C12.1,13.9 10.8,14.1 9.6,13.7 C8.7,13.4 7.7,12.7 7.9,12.2 C8.1,11.8 9.3,11.6 10.2,11.8 C11.6,12.1 12.4,13.3 12.6,13.8 Z" id="Shape"></path>
                <path d="M10.6,9.1 C10.4,8.9 10.1,8.6 9.8,8.2 C9.5,7.8 9.2,7.2 9,6.5 C8.7,5.6 8.7,4.3 9.2,4.1 C9.4,4 9.8,4.2 10.1,4.5 C10.3,4.7 10.4,4.9 10.6,5.1 C10.7,5.3 10.9,5.6 11,5.9 C11.3,6.7 11.2,7.4 11.1,7.9 C10.9,8.4 10.7,8.9 10.6,9.1 Z" id="Shape"></path>
                <path d="M10.2,9.6 C10,9.7 9.6,9.8 9,9.9 C8.5,10 7.8,9.9 7.2,9.7 C6.7,9.5 6.3,9.3 6,9.2 C5.9,9.2 5.7,9 5.6,8.9 C5.5,8.8 5.4,8.7 5.5,8.5 C5.5,8.3 5.9,8.1 6.3,8 C6.7,7.9 7.3,7.8 7.7,7.8 C8.4,7.8 9,8.2 9.4,8.6 C9.8,9 10.1,9.3 10.2,9.6 Z" id="Shape"></path>
                <path d="M7.6,5.2 C7.1,4.9 6.2,4.2 5.6,2.9 C5.3,2 5,0.6 5.4,0.4 C5.8,0.2 6.9,1.1 7.4,2 C7.8,2.7 7.9,3.4 7.9,4 C7.9,4.5 7.7,5 7.6,5.2 Z" id="Shape"></path>
                <path d="M7.3,5.7 C7.1,5.8 6.7,6 6.1,6.2 C5.6,6.4 4.9,6.4 4.3,6.4 C3.4,6.3 2.3,5.9 2.4,5.5 C2.4,5.1 3.6,4.5 4.5,4.5 C5.9,4.3 6.9,5.3 7.3,5.7 Z" id="Shape"></path>
            </g>
            <g id="Group" transform="translate(19.000000, 10.000000)">
                <path d="M0.4,18.4 C1.8,17.1 3.1,15.8 4.3,14.5 C5.5,13.2 6.9,11.9 8.2,10.5 C9.3,9.4 10.2,8.2 10.9,7.1 C11.6,6 11.9,4.9 11.9,3.9 C11.9,3 11.7,2.3 11.3,1.7 C10.9,1.1 10.2,0.8 9.2,0.8 C8.7,0.8 8.3,0.9 8,1 C7.7,1.1 7.3,1.3 7.1,1.5 C6.8,1.7 6.7,1.9 6.5,2.2 C6.4,2.5 6.3,2.7 6.3,3 C6.3,3.1 6.3,3.2 6.3,3.3 C6.3,3.4 6.3,3.4 6.3,3.5 C6.3,3.6 6.3,3.6 6.3,3.7 C6.3,3.8 6.3,3.9 6.3,4 C6.3,4.3 6.2,4.5 6,4.7 C6,4.9 5.7,5 5.4,5 C4.7,5 4.4,4.6 4.4,3.9 C4.4,3.6 4.5,3.2 4.8,2.8 C5.1,2.4 5.4,2 5.9,1.7 C6.3,1.4 6.9,1.1 7.5,0.8 C8.1,0.6 8.8,0.4 9.6,0.4 C10.2,0.4 10.8,0.5 11.4,0.7 C12,0.9 12.4,1.2 12.9,1.6 C13.4,2 13.6,2.4 13.9,2.9 C14.1,3.4 14.3,3.9 14.3,4.4 C14.3,5 14.2,5.5 14,6 C13.8,6.5 13.5,7 13.2,7.5 C12.9,8 12.5,8.4 12,8.9 C11.5,9.4 11,9.8 10.5,10.3 L2.4,17 L2.4,17 L9.2,17 C9.7,17 10.1,16.9 10.5,16.8 C10.9,16.7 11.1,16.3 11.3,15.9 L11.6,14.9 L12,14.9 L11,18.7 L0.5,18.7 L0.4,18.4 Z" id="Shape"></path>
                <path d="M22.5,0.8 C23.3,0.8 24,0.8 24.6,0.8 C25.2,0.8 25.7,0.7 26,0.5 C26.3,0.3 26.5,0.1 26.7,0 L26.9,0.2 C26.8,0.4 26.6,0.6 26.5,0.9 C26.3,1.2 26.1,1.5 25.9,1.7 C25.7,1.9 25.4,2.2 25,2.4 C24.7,2.6 24.2,2.7 23.8,2.7 L22.7,2.7 C22.2,2.7 21.8,2.7 21.4,2.7 C21,2.7 20.6,2.6 20.2,2.6 L18.9,7.2 C21,7.3 22.5,7.7 23.5,8.6 C24.5,9.4 24.9,10.5 24.9,11.8 C24.9,12.7 24.7,13.7 24.2,14.6 C23.7,15.5 23.1,16.4 22.3,17.1 C21.5,17.8 20.7,18.4 19.7,18.9 C18.7,19.4 17.7,19.6 16.7,19.6 C16.3,19.6 15.9,19.6 15.6,19.5 C15.3,19.4 14.9,19.3 14.6,19.2 C14.3,19.1 14.1,18.9 13.9,18.7 C13.7,18.5 13.6,18.3 13.6,18 C13.6,17.7 13.7,17.5 13.9,17.3 C14.1,17.1 14.3,17 14.6,17 C14.8,17 15,17 15.1,17.1 C15.2,17.2 15.3,17.3 15.4,17.4 C15.5,17.5 15.6,17.6 15.6,17.7 C15.6,17.8 15.7,17.9 15.8,18 C15.9,18.2 16.1,18.5 16.3,18.6 C16.5,18.7 16.9,18.9 17.5,18.9 C18.2,18.9 18.8,18.7 19.5,18.4 C20.2,18.1 20.8,17.6 21.3,17 C21.8,16.4 22.3,15.7 22.6,14.9 C22.9,14.1 23.1,13.2 23.1,12.3 C23.1,11.5 22.9,10.9 22.6,10.4 C22.3,9.9 21.9,9.6 21.4,9.4 C20.9,9.2 20.4,9 19.8,9 C19.2,8.9 18.6,8.9 18.1,8.9 L20.4,0.6 C21,0.7 21.8,0.8 22.5,0.8 Z" id="Shape"></path>
            </g>
            <g id="Group" transform="translate(18.000000, 31.000000)">
                <polygon id="Shape" points="2.2 4.4 1.5 0.5 0.4 0.5 0.4 0.4 3.6 0.4 3.6 0.5 2.4 0.5 3.1 4.1 6.3 0.5 5.3 0.5 5.3 0.4 7.3 0.4 7.3 0.5 6.5 0.5 3.2 4.2 2 7.6 3.2 7.6 3.2 7.7 -3.55271368e-15 7.7 -3.55271368e-15 7.6 1.2 7.6"></polygon>
                <path d="M7.6,0.5 L7.6,0.4 L13.4,0.4 L12.8,2.2 L12.7,2.2 C12.7,2.1 12.8,2 12.8,1.9 C12.8,1.8 12.8,1.6 12.8,1.5 C12.8,1.2 12.7,1 12.6,0.9 C12.5,0.7 12.3,0.7 11.9,0.7 L9.7,0.7 L8.5,3.9 L9.5,3.9 C9.7,3.9 9.9,3.8 10.1,3.7 C10.3,3.6 10.4,3.5 10.5,3.3 C10.6,3.2 10.7,3 10.8,2.9 C10.9,2.8 10.9,2.7 11,2.6 L11.1,2.6 L10,5.6 L10,5.6 C10,5.5 10.1,5.4 10.1,5.3 C10.1,5.2 10.1,5 10.1,4.9 C10.1,4.6 10,4.4 9.9,4.3 C9.7,4.2 9.5,4.1 9.3,4.1 L8.6,4.1 L7.3,7.9 L9.7,7.9 C10,7.9 10.2,7.8 10.5,7.7 C10.7,7.5 11,7.4 11.1,7.1 C11.3,6.9 11.4,6.7 11.6,6.5 C11.8,6.3 11.8,6.1 11.9,6 L12,6 L11.3,8 L5.3,8 L5.3,7.9 L6.4,7.9 L8.9,0.8 L7.6,0.8 L7.6,0.5 Z" id="Shape"></path>
                <path d="M13.2,7.6 L18.4,0.2 L18.6,0.2 L18.8,7.6 L20,7.6 L20,7.7 L16.8,7.7 L16.8,7.6 L17.9,7.6 L17.8,4.7 L15.4,4.7 L13.4,7.6 L14.5,7.6 L14.5,7.7 L12.4,7.7 L12.4,7.6 L13.2,7.6 Z M17.8,1.4 L15.6,4.6 L17.9,4.6 L17.8,1.4 L17.8,1.4 Z" id="Shape"></path>
                <path d="M22.2,0.5 L22.3,0.4 L24.8,0.4 C25,0.4 25.3,0.4 25.6,0.5 C25.9,0.6 26.1,0.6 26.3,0.8 C26.5,0.9 26.7,1.1 26.8,1.3 C27,1.4 27,1.7 27,2 C27,2.2 26.9,2.5 26.8,2.7 C26.7,2.9 26.6,3 26.4,3.2 C26.2,3.3 26,3.4 25.8,3.5 C25.6,3.6 25.4,3.7 25.2,3.7 C25,3.7 24.8,3.8 24.7,3.8 C24.6,3.8 24.4,3.8 24.4,3.8 L24.4,3.8 C24.5,3.8 24.7,3.8 24.8,3.9 C25,3.9 25.1,4 25.3,4.1 C25.5,4.2 25.6,4.3 25.7,4.5 C25.8,4.7 25.9,4.9 25.9,5.1 C25.9,5.3 25.9,5.4 25.9,5.6 C25.9,5.8 25.8,5.9 25.8,6.1 C25.8,6.3 25.7,6.4 25.7,6.6 C25.7,6.8 25.7,6.9 25.7,7.1 C25.7,7.3 25.8,7.4 25.9,7.6 C26,7.7 26.1,7.8 26.3,7.8 C26.4,7.8 26.4,7.8 26.5,7.8 C26.6,7.8 26.6,7.8 26.6,7.8 L26.6,7.9 C26.6,7.9 26.5,7.9 26.4,7.9 C26.3,7.9 26.2,7.9 26.1,7.9 C25.9,7.9 25.7,7.9 25.6,7.8 C25.5,7.7 25.3,7.7 25.2,7.6 C25.1,7.5 25,7.4 24.9,7.3 C24.8,7.2 24.8,7 24.8,6.8 C24.8,6.7 24.8,6.6 24.8,6.4 C24.8,6.2 24.9,6.1 24.9,5.9 C24.9,5.7 25,5.5 25,5.4 C25,5.2 25,5.1 25,4.9 C25,4.8 25,4.7 24.9,4.5 C24.9,4.4 24.8,4.3 24.7,4.2 C24.6,4.1 24.5,4.1 24.3,4 C24.1,4 23.9,3.9 23.6,3.9 L23.2,3.9 L21.8,7.7 L23,7.7 L23,7.8 L19.8,7.8 L19.9,7.7 L21,7.7 L23.5,0.6 L22.2,0.6 L22.2,0.5 Z M23.9,3.7 C24.2,3.7 24.4,3.7 24.6,3.6 C24.8,3.6 25,3.5 25.1,3.4 C25.2,3.3 25.3,3.3 25.4,3.2 C25.5,3.1 25.6,3 25.7,2.8 C25.8,2.7 25.9,2.5 25.9,2.3 C25.9,2.1 26,1.9 26,1.6 C26,1.2 25.9,0.9 25.6,0.7 C25.4,0.5 25.1,0.4 24.7,0.4 L24.3,0.4 L23.2,3.6 L23.9,3.6 L23.9,3.7 Z" id="Shape"></path>
            </g>
        </g>
    </g>
</svg>