<svg xmlns="http://www.w3.org/2000/svg" width="158.04" height="158.01" viewBox="0 0 158.04 158.01"><defs><style>.a{fill:#fff;}.b,.d{fill:none;stroke:#231f20;stroke-miterlimit:10;}.b{stroke-width:0.02px;}.c{fill:#231f20;}.d{stroke-width:0px;}.e{fill:#8e8e8e;}.f{opacity:0.1;}.g{fill:#140c0c;}</style></defs><title>base-slatted</title><circle class="a" cx="80.16" cy="78.34" r="76.98"/><path class="b" d="M38.29,14.45" transform="translate(-1.03 -0.97)"/><path class="c" d="M117.92,61.59c-0.14.29-46.26-22-60.63-29s-25.91-13-25.76-13.25S43.43,24.54,57.8,31.56,118.06,61.3,117.92,61.59Z" transform="translate(-1.03 -0.97)"/><path class="c" d="M103.44,91.32a2.51,2.51,0,0,1-.59-0.22l-1.62-.73-5.87-2.74-18.8-8.95L38.17,60.19c-7.74-3.77-14.71-7.24-19.74-9.8C15.92,49.11,13.9,48,12.51,47.3A9.88,9.88,0,0,1,10.41,46a9.88,9.88,0,0,1,2.3.87c1.45,0.63,3.53,1.57,6.09,2.76,5.12,2.37,12.15,5.72,19.89,9.49L76.92,77.94l18.64,9.28,5.78,2.94L102.91,91A2.52,2.52,0,0,1,103.44,91.32Z" transform="translate(-1.03 -0.97)"/><path class="c" d="M98.06,102a0.33,0.33,0,0,1,.15,0l0,0.05c-3-1.1-49.29-23.38-64-30.56-7.61-3.71-14.47-7.12-19.41-9.64-2.47-1.26-4.46-2.3-5.82-3a9.57,9.57,0,0,1-2.06-1.26,9.57,9.57,0,0,1,2.27.85c1.43,0.62,3.47,1.54,6,2.71,5,2.33,12,5.63,19.56,9.33,14.75,7.18,60.85,29.91,63.55,31.57l0,0.05A0.33,0.33,0,0,1,98.06,102Z" transform="translate(-1.03 -0.97)"/><path class="c" d="M88,120.39a6.42,6.42,0,0,1,1.12.45L89,121c-7.1-3.14-46.61-22.13-59.73-28.52C22.06,89,15.56,85.72,10.88,83.33c-2.34-1.2-4.22-2.19-5.51-2.89a8.61,8.61,0,0,1-2-1.21A8.61,8.61,0,0,1,5.56,80c1.35,0.58,3.29,1.45,5.68,2.56,4.77,2.2,11.33,5.32,18.54,8.83,13.12,6.39,52.43,25.77,59.29,29.43L89,121A6.42,6.42,0,0,1,88,120.39Z" transform="translate(-1.03 -0.97)"/><path class="c" d="M84.51,132.31a1.89,1.89,0,0,1-.51-0.18l-1.4-.62-5.07-2.35-16.23-7.7L28.16,105.53c-6.68-3.25-12.69-6.25-17-8.48s-7-3.68-6.9-3.82,2.84,1,7.26,3.07,10.49,4.92,17.17,8.17l33,16.25,16.07,8,5,2.55L84.05,132A1.89,1.89,0,0,1,84.51,132.31Z" transform="translate(-1.03 -0.97)"/><path class="c" d="M74.72,150.31c-0.14.29-31.37-14.62-41.09-19.35s-17.48-8.81-17.34-9.1,8.14,3.31,17.86,8S74.86,150,74.72,150.31Z" transform="translate(-1.03 -0.97)"/><path class="c" d="M50.34,42.27s0.39,0.17.51,0.23a0.76,0.76,0,0,1,.21.12,0.76,0.76,0,0,1-.23-0.09C50.71,42.47,50.33,42.28,50.34,42.27Z" transform="translate(-1.03 -0.97)"/><path class="d" d="M51,42.82" transform="translate(-1.03 -0.97)"/><path class="c" d="M41.92,61.39c-0.07,0,4.82-10.2,6.36-13.37s2.85-5.71,2.92-5.68-1.13,2.63-2.67,5.8S42,61.43,41.92,61.39Z" transform="translate(-1.03 -0.97)"/><path class="c" d="M31.38,92.84c-0.07,0,4.65-9.87,6.14-12.93s2.76-5.52,2.83-5.49S39.26,77,37.77,80,31.45,92.88,31.38,92.84Z" transform="translate(-1.03 -0.97)"/><path class="c" d="M27.63,90.6c-0.07,0,4.59-9.74,6.06-12.77s2.72-5.45,2.79-5.42S35.42,74.93,33.94,78,27.7,90.63,27.63,90.6Z" transform="translate(-1.03 -0.97)"/><path class="c" d="M17,122.21s0.06-.16.18-0.44l0.54-1.17,1.77-3.73,3.66-7.61c1.16-2.39,2.19-4.41,2.61-5.16l0.09,0a1.22,1.22,0,0,1-.21.33,1.22,1.22,0,0,1,.13-0.37l0.09,0c-0.33.8-1.29,2.85-2.45,5.24L19.68,117l-1.85,3.69-0.59,1.14C17.11,122.07,17,122.21,17,122.21Z" transform="translate(-1.03 -0.97)"/><path class="c" d="M13.93,118.77a0.49,0.49,0,0,1,0,.13h0c0.46-1.11,4.28-9.07,5.55-11.68,0.68-1.4,1.31-2.66,1.78-3.56a9.82,9.82,0,0,1,.81-1.44,9.82,9.82,0,0,1-.63,1.53c-0.42.93-1,2.2-1.71,3.6-1.27,2.6-5.18,10.52-5.77,11.57h0Z" transform="translate(-1.03 -0.97)"/><path class="c" d="M80.39,158a79,79,0,0,1-8.06-.41l-1.42-.15L122.46,51.58a5.58,5.58,0,0,0-2.58-7.47L46.78,8.52l2-.87c2.12-.93,4-1.68,5.84-2.31a78.5,78.5,0,0,1,96.29,108.47A78.55,78.55,0,0,1,80.39,158ZM74,155.75A76.5,76.5,0,0,0,152.57,54.49h0A76.5,76.5,0,0,0,55.26,7.23c-1.17.4-2.39,0.87-3.68,1.4l69.18,33.69a7.58,7.58,0,0,1,3.5,10.14Z" transform="translate(-1.03 -0.97)"/><path class="e" d="M80.13,159A79,79,0,1,1,154.72,54.13h0A79,79,0,0,1,80.13,159ZM80,4a76,76,0,1,0,71.88,51.14h0A76.14,76.14,0,0,0,80,4Z" transform="translate(-1.03 -0.97)"/><path class="c" d="M27.62,90.62c-0.07,0,4.65-9.87,6.14-12.93s2.76-5.52,2.83-5.49S35.51,74.74,34,77.8,27.69,90.65,27.62,90.62Z" transform="translate(-1.03 -0.97)"/><path class="c" d="M23.54,89.07c-0.07,0,4.77-10.11,6.3-13.25s2.82-5.66,2.89-5.63-1.12,2.61-2.65,5.75S23.6,89.1,23.54,89.07Z" transform="translate(-1.03 -0.97)"/><path class="c" d="M13.07,120.32s0.06-.16.18-0.44l0.54-1.17L15.56,115l3.66-7.61c1.16-2.39,2.19-4.41,2.61-5.16l0.09,0a1.22,1.22,0,0,1-.21.33,1.22,1.22,0,0,1,.13-0.37l0.09,0c-0.33.8-1.29,2.85-2.45,5.24l-3.73,7.58-1.85,3.69-0.59,1.14C13.17,120.17,13.07,120.32,13.07,120.32Z" transform="translate(-1.03 -0.97)"/><path class="c" d="M10.58,115.66a0.42,0.42,0,0,1,0,.12h0c0.42-1,4-8.41,5.14-10.83,0.63-1.3,1.22-2.46,1.65-3.3a8.44,8.44,0,0,1,.76-1.33,8.44,8.44,0,0,1-.58,1.42c-0.39.86-.95,2-1.58,3.34-1.18,2.41-4.81,9.75-5.35,10.72h0Z" transform="translate(-1.03 -0.97)"/><rect class="c" x="113.59" y="37.73" width="2" height="24.69" transform="translate(-11.1 39.15) rotate(-19.04)"/><path class="c" d="M111.72,65.3C110.43,68,110,70.54,110.78,71h0l2.06,1,4.8-10.13-2.06-1h0C114.7,60.68,113,62.58,111.72,65.3Z" transform="translate(-1.03 -0.97)"/><path class="c" d="M113.07,72.7l-3-1.41,0.09-.17c-0.69-1.11,0-3.72,1.09-6s2.68-4.5,4-4.67l0.07-.16,0.47,0.21,2.51,1.19Zm-2-2,1.5,0.71L117,62.14l-1.54-.72c-0.3-.1-1.79,1-3.25,4.1s-1.39,4.93-1.12,5.11Z" transform="translate(-1.03 -0.97)"/><path class="c" d="M97.31,94.9c-1.29,2.72-1.69,5.24-.94,5.74h0l2.06,1,4.8-10.13-2.06-1h0C100.29,90.28,98.6,92.18,97.31,94.9Z" transform="translate(-1.03 -0.97)"/><path class="c" d="M98.66,102.3l-3-1.41,0.08-.16c-0.7-1.1,0-3.72,1.09-6h0c1.09-2.31,2.68-4.5,4-4.67l0.07-.16,0.48,0.21,2.51,1.19Zm-2-2,1.5,0.71,4.37-9.23L101,91c-0.29-.1-1.79,1-3.25,4.1s-1.39,4.93-1.12,5.11Z" transform="translate(-1.03 -0.97)"/><path class="c" d="M82.73,124.83c-1.29,2.72-1.69,5.24-.94,5.74h0l2.06,1,4.8-10.13-2.06-1h0C85.72,120.21,84,122.11,82.73,124.83Z" transform="translate(-1.03 -0.97)"/><path class="c" d="M84.09,132.23l-3-1.41,0.08-.16c-0.7-1.1,0-3.72,1.09-6s2.7-4.53,4-4.67l0.07-.14L86.8,120l2.51,1.19Zm-2-2,1.5,0.71L88,121.67l-1.55-.72c-0.31-.09-1.79,1-3.25,4.1s-1.39,4.93-1.12,5.11Z" transform="translate(-1.03 -0.97)"/><path class="c" d="M71.19,157.51l3.26-6.88-2.06-1h0c-0.86-.26-2.56,1.65-3.85,4.37a17.14,17.14,0,0,0-.74,1.83Z" transform="translate(-1.03 -0.97)"/><path class="c" d="M71.43,158.18l-4.24-2.06,0.14-.42a17.61,17.61,0,0,1,.76-1.88c1.1-2.32,2.69-4.51,4-4.67l0.07-.15,0.46,0.21,2.51,1.19Zm-3-2.57L71,156.84l2.83-6-1.55-.72c-0.31-.1-1.79,1-3.25,4.1C68.79,154.67,68.6,155.12,68.42,155.61Z" transform="translate(-1.03 -0.97)"/><path class="c" d="M35,64.53c-1.29,2.72-1.69,5.24-.94,5.74h0l2.06,1,4.8-10.13-2.06-1h0C37.94,59.91,36.25,61.81,35,64.53Z" transform="translate(-1.03 -0.97)"/><path class="c" d="M36.31,71.93l-3-1.4,0.07-.16c-0.71-1.1,0-3.72,1.08-6h0c1.1-2.32,2.69-4.51,4-4.67l0.07-.15L39,59.71l2.51,1.19Zm-2-2,1.5,0.71,4.37-9.23-1.55-.72c-0.31-.1-1.79,1-3.25,4.1h0c-1.46,3.08-1.39,4.93-1.12,5.11Z" transform="translate(-1.03 -0.97)"/><path class="c" d="M43.75,68.78c1.3-2.72,1.72-5.23,1-5.74h0l-2.06-1L37.82,72.15l2.06,1h0C40.75,73.39,42.45,71.49,43.75,68.78Z" transform="translate(-1.03 -0.97)"/><path class="c" d="M40.1,73.79l-0.44-.2-2.51-1.2,5.27-11,3,1.42L45.31,63c0.7,1.1,0,3.72-1.11,6s-2.72,4.52-4,4.65ZM40,72.64h0c0.31,0.1,1.79-1,3.27-4.09h0c1.47-3.07,1.41-4.92,1.14-5.11l0,0-1.5-.72-4.41,9.21Z" transform="translate(-1.03 -0.97)"/><path class="c" d="M20.51,94.21c-1.29,2.72-1.69,5.24-.94,5.74h0l2.06,1,4.8-10.13-2.06-1h0C23.49,89.58,21.8,91.49,20.51,94.21Z" transform="translate(-1.03 -0.97)"/><path class="c" d="M21.86,101.6l-3-1.4L19,100c-0.71-1.1,0-3.72,1.08-6s2.69-4.49,4-4.66l0.07-.16,0.46,0.21,2.51,1.19Zm-2-2,1.5,0.71L25.76,91l-1.55-.72c-0.32-.1-1.79,1-3.25,4.1h0c-1.46,3.08-1.39,4.93-1.12,5.11Z" transform="translate(-1.03 -0.97)"/><path class="c" d="M29.3,98.45c1.3-2.72,1.72-5.23,1-5.74h0l-2.06-1-4.84,10.11,2.06,1h0C26.3,103.07,28,101.16,29.3,98.45Z" transform="translate(-1.03 -0.97)"/><path class="c" d="M25.68,103.47l-0.46-.21-2.51-1.2L28,91l3,1.41-0.07.16c0.7,1.1,0,3.72-1.11,6s-2.71,4.5-4,4.65Zm-0.14-1.16h0c0.31,0.1,1.79-1,3.27-4.09h0c1.47-3.07,1.41-4.92,1.14-5.11l0,0-1.49-.72L24,101.59Z" transform="translate(-1.03 -0.97)"/><path class="c" d="M49.28,35.12c-1.29,2.72-1.69,5.24-.94,5.74h0l2.06,1,4.8-10.13-2.06-1h0C52.26,30.49,50.57,32.4,49.28,35.12Z" transform="translate(-1.03 -0.97)"/><path class="c" d="M50.63,42.51l-3-1.4L47.75,41c-0.71-1.1,0-3.72,1.08-6h0c1.1-2.32,2.69-4.51,4-4.67l0.07-.15,0.46,0.21,2.51,1.19Zm-2-2,1.5,0.71L54.53,32,53,31.23c-0.3-.1-1.79,1-3.25,4.1s-1.39,4.93-1.12,5.11Z" transform="translate(-1.03 -0.97)"/><path class="c" d="M58.07,39.36c1.3-2.72,1.72-5.23,1-5.74h0l-2.06-1L52.14,42.74l2.06,1h0C55.07,44,56.77,42.08,58.07,39.36Z" transform="translate(-1.03 -0.97)"/><path class="c" d="M54.45,44.38L54,44.17,51.48,43l5.27-11,3,1.41-0.07.16c0.7,1.1,0,3.72-1.11,6h0c-1.11,2.31-2.71,4.5-4,4.65Zm-0.14-1.16h0c0.31,0.08,1.79-1,3.27-4.09h0C59.09,36.07,59,34.22,58.76,34l0,0-1.49-.72L52.81,42.5Z" transform="translate(-1.03 -0.97)"/><path class="c" d="M67.71,18a0.12,0.12,0,0,1,.06-0.09l-0.13.3-0.52,1.11-1.8,3.79L60.41,33.3l-0.23-.11,2.61-5.38,3.12-6.32,1-1.9a4.29,4.29,0,0,1,.39-0.68,4.29,4.29,0,0,1-.3.73l-0.9,1.94L63,27.94,60.41,33.3l-0.23-.11,5-10.15L67,19.28l0.55-1.09,0.15-.29A0.12,0.12,0,0,1,67.71,18Z" transform="translate(-1.03 -0.97)"/><path class="c" d="M56.4,31.64c-0.07,0,4-8.53,5.29-11.17a51.63,51.63,0,0,1,2.46-4.73,51.63,51.63,0,0,1-2.21,4.85C60.65,23.23,56.47,31.67,56.4,31.64Z" transform="translate(-1.03 -0.97)"/><path class="c" d="M63.87,16.31a0.12,0.12,0,0,1,.06-0.09l-0.13.3-0.52,1.11-1.82,3.81L56.52,31.7l-0.23-.11,2.62-5.41,3.14-6.36,1-1.91a4.34,4.34,0,0,1,.39-0.69,4.34,4.34,0,0,1-.3.73l-0.9,2-3.07,6.4-2.64,5.4-0.23-.11,5-10.21,1.88-3.78,0.56-1.09,0.15-.29A0.12,0.12,0,0,1,63.87,16.31Z" transform="translate(-1.03 -0.97)"/><path class="c" d="M52.63,29.8c-0.07,0,4-8.48,5.25-11.11A51,51,0,0,1,60.32,14a51,51,0,0,1-2.19,4.82C56.85,21.45,52.69,29.83,52.63,29.8Z" transform="translate(-1.03 -0.97)"/><g class="f"><path class="g" d="M113.07,72.53l-0.88,1.83L54,46.56l0.88-2Z" transform="translate(-1.03 -0.97)"/></g><path class="c" d="M54.73,44.68a0.17,0.17,0,0,1,.07-0.11l-0.16.36L54,46.25l-2.18,4.56L45.9,63.1,45.67,63l3.14-6.48,3.76-7.63,1.17-2.3a6.21,6.21,0,0,1,.46-0.83,6.21,6.21,0,0,1-.37.87L52.74,49l-3.69,7.66L45.9,63.1,45.67,63l6-12.24,2.25-4.53,0.66-1.31,0.18-.35A0.17,0.17,0,0,1,54.73,44.68Z" transform="translate(-1.03 -0.97)"/><path class="c" d="M50.9,42.93A0.17,0.17,0,0,1,51,42.82l-0.16.36-0.63,1.33L48,49.07,42.07,61.36l-0.23-.11L45,54.77l3.76-7.63,1.17-2.3A6.21,6.21,0,0,1,50.37,44a6.21,6.21,0,0,1-.37.87l-1.09,2.34-3.69,7.66-3.16,6.47-0.23-.11,6-12.24,2.25-4.53,0.66-1.31L51,42.81A0.17,0.17,0,0,1,50.9,42.93Z" transform="translate(-1.03 -0.97)"/><path class="c" d="M38.09,59.65c-0.07,0,4.82-10.2,6.36-13.37s2.85-5.71,2.92-5.68-1.13,2.63-2.67,5.8S38.16,59.68,38.09,59.65Z" transform="translate(-1.03 -0.97)"/><path class="c" d="M112.24,72.14a1.66,1.66,0,0,1,.46.16l0,0.1c-4.77-2-47.85-22.67-61.8-29.46-7.38-3.59-14-6.9-18.82-9.35-2.39-1.22-4.32-2.23-5.65-3a9,9,0,0,1-2-1.23,9,9,0,0,1,2.2.81C28,30.82,30,31.71,32.4,32.84c4.88,2.26,11.59,5.45,19,9,14,6.78,56.82,27.9,61.33,30.43l0,0.1A1.66,1.66,0,0,1,112.24,72.14Z" transform="translate(-1.03 -0.97)"/><g class="f"><path class="g" d="M99.13,102.51l-0.95,1.78L39.51,76.19l0.88-1.83Z" transform="translate(-1.03 -0.97)"/></g><g class="f"><path class="g" d="M83.79,131.9l-0.92,1.72L25.13,105.81l0.57-1.64Z" transform="translate(-1.03 -0.97)"/></g><g class="f"><path class="g" d="M47.3,40.56l-1,2.29L20.72,30.48l1.83-1.95Z" transform="translate(-1.03 -0.97)"/></g><g class="f"><path class="g" d="M32.48,70.42l-0.88,2L5,59.47l1.82-1.85Z" transform="translate(-1.03 -0.97)"/></g><g class="f"><path class="g" d="M18.09,100.48l-0.92,1.6L3.76,95.44l1.4-1.61Z" transform="translate(-1.03 -0.97)"/></g></svg>