<svg xmlns="http://www.w3.org/2000/svg" width="156.59" height="156.59" viewBox="0 0 156.59 156.59"><defs><style>.a{fill:#fff;}.b,.g{fill:none;stroke-miterlimit:10;}.b{stroke:#000;stroke-width:0.5px;}.c{fill:#231f20;}.d{opacity:0.58;}.e{fill:#080808;}.e,.i{opacity:0.52;}.f{fill:#e5e5e4;}.g{stroke:#8e8e8e;stroke-width:3px;}.h{opacity:0.18;}.i{fill:#5e5e5e;}</style></defs><title>base-adjustable</title><circle class="a" cx="78.55" cy="78.98" r="76.28"/><path class="b" d="M143.76,124.88l-19.15,4.52-111-41.67V77.49" transform="translate(-2.33 -1.11)"/><path class="c" d="M124.06,128a0.28,0.28,0,0,1,0,.13H124c-0.1-.94-0.17-6.7-0.17-8.61a18.22,18.22,0,0,1,.2-3.77,18.22,18.22,0,0,1,.2,3.77c0,1.91-.07,7.67-0.17,8.61H124A0.28,0.28,0,0,1,124.06,128Z" transform="translate(-2.33 -1.11)"/><path class="c" d="M69.77,86.24l0.15,0v0C68.59,86,58.64,83,55.4,81.94c-1.74-.54-3.3-1.06-4.43-1.45a9.46,9.46,0,0,1-1.8-.71,9.46,9.46,0,0,1,1.88.44c1.15,0.32,2.73.8,4.47,1.34,3.25,1,13.14,4.2,14.4,4.7v0Z" transform="translate(-2.33 -1.11)"/><path class="c" d="M124.72,87.6c0-.11,16.06-3.34,21.09-4.32s9.12-1.69,9.14-1.59-4,1-9.07,2S124.74,87.71,124.72,87.6Z" transform="translate(-2.33 -1.11)"/><path class="c" d="M41.22,84.22A1.87,1.87,0,0,1,41.06,84l-0.42-.78L39.12,80.3,34.3,71,24.49,52l-5-9.86-1.47-3A7.36,7.36,0,0,1,17.52,38a7.36,7.36,0,0,1,.63,1.06l1.59,3,5.1,9.81,9.71,19,4.71,9.32,1.45,2.91,0.39,0.8A1.87,1.87,0,0,1,41.22,84.22Z" transform="translate(-2.33 -1.11)"/><path class="c" d="M88.89,3l-0.32.11-0.92.26-3.37.93L73.45,7.28,51.25,13.22l-11.5,3-3.5.86a8.49,8.49,0,0,1-1.3.26,8.49,8.49,0,0,1,1.26-.41l3.46-1,11.47-3.1L73.37,7,84.24,4.2l3.39-.86,0.93-.23Z" transform="translate(-2.33 -1.11)"/><polygon class="d" points="84.82 81.17 82.72 82.87 69.45 92.63 67.83 93.31 65.06 93.54 63.32 93.16 62.34 92.87 65.67 92.39 68 91.72 69.87 90.4 73.58 87.56 77.68 84.64 80.86 82.35 82.72 80.89 83.76 80.72 84.82 81.17"/><path class="e" d="M35,72.72c-0.25-.1-0.32-0.05-2.24.34-2.81.57-2.93,0.53-4.11,0.84-1.38.36-2.35,0.72-2.72,0.85a76.12,76.12,0,0,1-11.31,2.57l-0.11.23,109.55,37.21,27.19-5.9,1.48-4.65c0.81-2.55,1.43-4.15,1.7-4.94a46.72,46.72,0,0,0,2.19-10.18c-5.45,1.54-9.9,2.54-13,3.18l-11.35,2.27c-3.49.7-4.17,0.83-5.07,1.06-0.27.07-1,.26-2,0.45-0.18,0-.91.17-1.89,0.3-0.7.09-1.06,0.14-1.36,0.15a6.81,6.81,0,0,1-2.19-.3l-7.87-3.1-10.07-4.31c-4-1.72-6-2.58-6.28-2.72a83.15,83.15,0,0,0-8-3.69l-0.28-.09h0l-0.28-.11a3.35,3.35,0,0,1-.61-0.34l-0.91.08L81.7,84.54l-7.11,5.07-3.86,2.72-2,1.06-2,.3a4,4,0,0,1-1.59.23,4.13,4.13,0,0,1-1.74-.53c-1.77-1-4.9-1.23-13-4.25-4.93-1.83-2.72-1.34-6.09-2.61a6,6,0,0,1-1.77-.93,9.37,9.37,0,0,1-2.38-3.48,33.68,33.68,0,0,0-2-3.52,11.13,11.13,0,0,1-.61-1.25C36,73.81,35.75,73,35,72.72Z" transform="translate(-2.33 -1.11)"/><path class="c" d="M34.81,72.35s1,1.54,2.69,4.48c0.41,0.74.85,1.56,1.29,2.48s0.8,2,1.39,3q0.43,0.79.93,1.6a6.46,6.46,0,0,0,1.17,1.56,9.48,9.48,0,0,0,1.84.93l2,0.9c0.69,0.32,1.39.62,2.12,0.91l1.1,0.45c0.38,0.13.77,0.26,1.15,0.42a46.32,46.32,0,0,0,4.83,1.68c1.69,0.54,3.46,1,5.24,1.66,0.88,0.34,1.79.64,2.71,0.92a5.67,5.67,0,0,0,2.85.33c1-.23,2-0.39,2.94-0.68a10.34,10.34,0,0,0,2.66-1.51l5.15-3.78,5.32-4,1.36-1a10.22,10.22,0,0,1,1.43-1,3.09,3.09,0,0,1,.86-0.21,0.88,0.88,0,0,1,.48,0,2.69,2.69,0,0,1,.39.24,12,12,0,0,0,1.53.75c8.53,3.53,17.18,7.92,26.33,11.35,2.28,0.87,4.6,1.69,6.91,2.44a3.55,3.55,0,0,0,1.74,0c0.58-.2,1.19-0.29,1.79-0.43l3.58-.8L142.84,92l7-1.54,3.46-.75,1.72-.36,0.86-.17c0.16,0,.24-0.05.48-0.08s0.24,0,.3,0,0.14,0.09.1,0.16a0.27,0.27,0,0,1-.17.18l-0.11,0c-4.5,1.24-8.92,2.19-13.23,3.05S134.75,94,130.84,95l-5.75,1.32-1.39.32-0.34.08-0.17,0-0.09,0a0.27,0.27,0,0,1-.17,0l-0.69-.12-2.72-.5c-6.2-2.46-11.56-4.57-15.91-6.45l-4.5-1.91-4.39-2-8.49-3.87L85.37,82l-3.91,2.72-3.78,2.77-7.26,5.31-1.81.66L64.82,94c-1.53-.46-2.91-0.82-4.3-1.29l-4-1.37-7.38-2.53L42.69,86l-1.14-1c-2.18-4-3.85-7.1-5-9.26-0.58-1.09-1-1.88-1.28-2.45l-0.46-.88,0.46,0.82c0.32,0.54.8,1.4,1.38,2.46l5.07,9.18,1.09,1,6.4,2.8,7.38,2.49,4,1.36c1.36,0.45,2.85.84,4.23,1.26l3.68-.56,1.73-.63,7.21-5.29,3.78-2.77,4-2.78,1.07-.1,8.58,3.9,4.38,2,4.5,1.91c4.32,1.87,9.74,4,15.86,6.44l2.68,0.49L123,96.4h0l0.08,0,0.17,0,0.34-.08,1.39-.32,5.76-1.32c3.92-1,8.12-1.59,12.42-2.43s8.74-1.81,13.19-3l0.1,0a0.12,0.12,0,0,0-.07.14c0.32,0-.05.27,0.05,0.15a0.23,0.23,0,0,0-.13.06l-0.38.08-0.85.17-1.72.36-3.46.74-7,1.53L128.68,95.5l-3.59.8c-0.6.15-1.2,0.23-1.78,0.43a3.87,3.87,0,0,1-1.9,0c-2.35-.76-4.65-1.58-6.94-2.46-9.17-3.44-17.81-7.85-26.32-11.39a12.12,12.12,0,0,1-1.56-.77,0.73,0.73,0,0,0-.7-0.23,2.89,2.89,0,0,0-.79.19,10.07,10.07,0,0,0-1.39.94l-1.36,1L77,87.92l-5.17,3.77a10.54,10.54,0,0,1-2.71,1.53c-1,.3-2,0.45-3,0.68a5.85,5.85,0,0,1-2.95-.34c-0.93-.29-1.84-0.59-2.73-0.93C58.73,92,57,91.5,55.28,91a46.39,46.39,0,0,1-4.84-1.7c-0.37-.16-0.76-0.29-1.14-0.42l-1.11-.46c-0.73-.29-1.44-0.61-2.12-0.92l-2-.9a9.52,9.52,0,0,1-1.87-1A6.54,6.54,0,0,1,41,84q-0.5-.82-0.93-1.61c-0.58-1.05-.91-2.12-1.38-3s-0.87-1.75-1.27-2.49c-0.81-1.47-1.47-2.59-1.93-3.35Z" transform="translate(-2.33 -1.11)"/><path class="b" d="M155.68,97l-2.44,7.72-0.68,3.75-1,.17-15.7,3.61-11.12,2.45-0.58.13-0.82-.28-26.19-8.88L65.37,94.88,22,80.17l-7.71-2.61,20-4.76,0.54-.13" transform="translate(-2.33 -1.11)"/><path class="c" d="M123.62,91.93c0,0.1-20.43-8.7-26.79-11.48s-11.48-5.11-11.44-5.2S90.62,77.32,97,80.09,123.66,91.83,123.62,91.93Z" transform="translate(-2.33 -1.11)"/><path class="c" d="M155.81,85.52c0,0.11-17.39,3.5-22.83,4.53s-9.87,1.78-9.89,1.68,4.38-1,9.82-2.06S155.79,85.41,155.81,85.52Z" transform="translate(-2.33 -1.11)"/><path class="c" d="M66.18,89.24c0-.05,3.14-2.55,4.15-3.32a11.21,11.21,0,0,1,1.89-1.3,11.21,11.21,0,0,1-1.75,1.48C69.47,86.87,66.22,89.29,66.18,89.24Z" transform="translate(-2.33 -1.11)"/><path class="c" d="M44,82.4c0-.06,12,3.51,15.68,4.64s6.73,2.1,6.71,2.16-3.05-.8-6.78-1.93S44,82.46,44,82.4Z" transform="translate(-2.33 -1.11)"/><path class="c" d="M44.56,82.4c-0.1,0-14-26.57-18.26-34.89s-7.72-15.12-7.62-15.17,3.66,6.66,8,15S44.66,82.35,44.56,82.4Z" transform="translate(-2.33 -1.11)"/><path class="f" d="M91.19,6.65a11.32,11.32,0,0,0,4.54-1.14,11,11,0,0,0,1.72-1.05l18.79,6.91,18,12.69,12.21,15.72L151.17,49l5.11,17.22,1.12,15.08L142,84.22,123.4,87.69l-0.48-.23-19.18-8.61-8.89-4-2.37-.56-4,.44L83,76.23,69.91,86.28l-20.75-6.5L23.28,29.72v-1.4l4.34-3.73" transform="translate(-2.33 -1.11)"/><path class="c" d="M27.62,24.59a1.94,1.94,0,0,1-.27.27l-0.82.74-3.15,2.78v1.32l26,49.79,20.41,6.34,13-10,5.57-1.58,4.12-.46L95,74.36l28.47,12.77,33.31-6.27-1.09-14.5-2.58-8.67-2.5-8.44-4.68-9.17L133.85,24.45,116,11.75l-18.56-7-0.57.38q-0.33.21-.66,0.38A11,11,0,0,1,95,6a10.68,10.68,0,0,1-2.07.54,9.32,9.32,0,0,1-1.3.12,1.19,1.19,0,0,1-.44,0s0.6-.07,1.7-0.31a11.69,11.69,0,0,0,2-.63,11.23,11.23,0,0,0,1.19-.59l0.62-.38c0.21-.14.39-0.27,0.73-0.53l19,6.79,18.14,12.68,12.32,15.8,4.8,9.35,2.54,8.54,2.61,8.79L158,81.81l-34.69,6.44-28.63-13-2.24-.54-3.88.42-5.33,1.49L70,86.75,48.91,80.08,23.16,29.75V28.27l3.29-2.76,0.85-.7A1.94,1.94,0,0,1,27.62,24.59Z" transform="translate(-2.33 -1.11)"/><circle class="g" cx="80.63" cy="79.4" r="76.79" transform="translate(-32.1 103.15) rotate(-57.25)"/><path class="c" d="M99.3,4.59l-1.79.52-5,1.4L75.23,11.3l-47,12.94-0.1-.35,26.46-7.26L84.36,8.54l9-2.41,2.46-.64,0.64-.16,0.22,0-0.21.08-0.63.19-2.44.71-9,2.53L54.71,17,28.25,24.24l-0.1-.35,47-12.81L92.47,6.4l5-1.35Z" transform="translate(-2.33 -1.11)"/><path class="c" d="M49.19,79.89c-0.1,0-14-26.6-18.28-34.93s-7.72-15.13-7.63-15.18,3.67,6.67,8,15S49.29,79.84,49.19,79.89Z" transform="translate(-2.33 -1.11)"/><path class="c" d="M125,87.54l-0.55.1-0.67.11a1.22,1.22,0,0,1-.89-0.25l0,0c0.06-.07.06,0,0.1,0a0.46,0.46,0,0,1,.1.06c0,0.08-.13,0-0.21,0s-0.26-.11-0.41-0.17L121.66,87l-2-.86L114.88,84,103,78.67,96.7,75.84a17.36,17.36,0,0,0-3.05-1.22,7.9,7.9,0,0,0-3.09-.11c-2,.35-3.9.73-5.53,1.17a8.51,8.51,0,0,0-2.14,1,10.3,10.3,0,0,0-.86.59l-0.38.31-0.08.06a0.65,0.65,0,0,1-.17.05,0.32,0.32,0,0,1-.14-0.1,0.23,0.23,0,0,1,0-.1,0.23,0.23,0,0,1,.06-0.15l0,0,0.05,0,0.19-.15,0.69-.52,0.34-.25,0.17-.13,0.09-.06,0,0,0,0a0.2,0.2,0,0,1,.15,0,0.21,0.21,0,0,1,.18.19l-0.06-.14,0,0.29L83,76.49l0,0h0l-0.24-.31h0L83,76.47h0l-0.24-.31h0L83,76.48h0l0,0,0.06,0,0,0h0l-0.14,0-0.12-.33h0l0,0h0L83,76.48h0l0,0,0,0h0l-0.15-.13h0L83,76.47h0l-0.24-.31h0l0,0h0l0,0a1.65,1.65,0,0,0,.23.31l0.05,0,0.1-.08a0.21,0.21,0,0,0,.08-0.11l0.1-.19c0.07-.22.12,0,0.18,0l-9.77,7.41L71,85.56l-0.77.55a1.18,1.18,0,0,1-.28.17,1.18,1.18,0,0,1,.24-0.23l0.73-.6,2.76-2.19,9.17-7.11s0,0,0,0h0L83,76.47h0a0,0,0,0,0,0,0l-0.08-.11,0,0,0,0L83,76.47l0,0h0l-0.24-.31h0l0,0h0L83,76.47h0l0,0-0.12-.16h0s0,0,0,0L83,76.46v0h0l0,0h0l-0.15-.13h0L83,76.47l0,0h0l-0.12-.33-0.14,0h0L83,76.48h0l0,0-0.11-.14h0L83,76.52h0l-0.24-.31h0l0,0h0l0.15,0.13h0l0-.05-0.08-.1h0L83,76.49h0l-0.24-.31h0l0,0,0.12,0.16h0s0,0,0,0l-0.1-.12h0l0,0h0l0.15,0.13h0l-0.11-.14,0.18-.14,0,0.29L83,76.22H82.84v0a0.18,0.18,0,0,0,0,.05,0.19,0.19,0,0,0,.14.12,0.15,0.15,0,0,0,.13,0l0,0,0,0L83,76.5l-0.17.13-0.34.25-0.68.52-0.17.14,0,0h0a0.08,0.08,0,0,0,0,0,0.16,0.16,0,0,0-.06-0.08,0.09,0.09,0,0,0-.08,0s0,0,0,0l0-.15s0,0,0,0H81.37s0,0,0,0l0.39-.31a10.63,10.63,0,0,1,.89-0.62,8.88,8.88,0,0,1,2.23-1c1.67-.45,3.56-0.82,5.6-1.17a8.26,8.26,0,0,1,3.22.13,17.62,17.62,0,0,1,3.12,1.25l6.25,2.86,19.78,9,0.07,0a1.84,1.84,0,0,0,1.5.17Z" transform="translate(-2.33 -1.11)"/><g class="h"><path class="c" d="M147.53,47.47c0.07,0.22-54.86,18.5-72,24.16S44.33,81.7,44.26,81.48s13.8-5,31-10.63S147.46,47.26,147.53,47.47Z" transform="translate(-2.33 -1.11)"/></g><polygon class="i" points="11.55 76.39 121.81 113.7 148.26 107.74 143.13 117.59 138.11 124.56 122.28 128.3 11.28 86.63 11.55 76.39"/></svg>