<svg xmlns="http://www.w3.org/2000/svg" width="157.34" height="157.34" viewBox="0 0 157.34 157.34"><defs><style>.a{fill:#fff;}.b,.e{fill:none;stroke-miterlimit:10;}.b{stroke:#231f20;}.c{fill:#231f20;}.d{fill:#140c0c;opacity:0.1;}.e{stroke:#8e8e8e;stroke-width:3px;}</style></defs><title>base-boxspring</title><circle class="a" cx="79.94" cy="79.42" r="77.15" transform="translate(-22.85 29.78) rotate(-19.09)"/><path class="b" d="M10.28,108.08c38.21,8.36,61.29,13.46,63.87,14.14,0.26,0.07,1.56.41,3.35,0.68,2.2,0.34,6.6,1,10.8-.15a17.42,17.42,0,0,0,6.24-3.35c5.34-4.2,28.7-23.79,60.36-50.82" transform="translate(-1.27 -0.75)"/><path class="b" d="M12.86,43.53C46.5,49.45,71,53.69,74.15,54.17c0.9,0.14,1.93.25,4.11,0.61a31.8,31.8,0,0,0,4.41.61,13.85,13.85,0,0,0,3.8-.3,14.39,14.39,0,0,0,2.59-.91c2.22-1.06,19.48-13.18,42.89-30.11" transform="translate(-1.27 -0.75)"/><path class="c" d="M86.77,117s0,0.19,0,.55H86.75c-0.11-4.12-.19-31.23-0.19-40.18l0.06-12.41,0.07-3.76a8.43,8.43,0,0,1,.08-1.38,8.43,8.43,0,0,1,.08,1.38l0.07,3.76L87,77.35c0,8.95-.08,36.06-0.19,40.18H86.75C86.76,117.16,86.77,117,86.77,117Z" transform="translate(-1.27 -0.75)"/><path class="d" d="M126.62,18.89L92.9,42.61l-0.17.12c-0.27.18-.78,0.53-1.44,0.94C91,43.85,90,44.43,89,44.94a23.6,23.6,0,0,1-4.21,1.53,22.57,22.57,0,0,1-4.85.78,34.82,34.82,0,0,1-5.88-.47l-5.37-.6-0.59-.08-1.25-.17c-0.68-.09-22-3.87-51.11-9.11l4.89-6.14L38.91,13l17-7.3L71,2.92,89.66,3.38,102.44,5.2l10.95,5Z" transform="translate(-1.27 -0.75)"/><circle class="e" cx="79.94" cy="79.42" r="77.15" transform="translate(-22.85 29.78) rotate(-19.09)"/></svg>