<svg xmlns="http://www.w3.org/2000/svg" xmlns:xlink="http://www.w3.org/1999/xlink" width="157.82" height="157.82" viewBox="0 0 157.82 157.82"><defs><style>.a{fill:#fff;}.b{fill:#231f20;}.c,.e,.g{fill:none;stroke-miterlimit:10;}.c{stroke:#000;stroke-width:0.5px;}.d{fill:#e5e5e4;}.e{stroke:#1e1a1b;stroke-width:0.75px;}.f{opacity:0.1;fill:url(#a);}.g{stroke:#8e8e8e;stroke-width:3px;}</style><linearGradient id="a" x1="73.58" y1="-3.95" x2="80.47" y2="64.81" gradientUnits="userSpaceOnUse"><stop offset="0" stop-color="#fff"/><stop offset="0.05" stop-color="#e9e9e9"/><stop offset="0.26" stop-color="#868686"/><stop offset="0.43" stop-color="#3e3e3e"/><stop offset="0.55" stop-color="#111"/><stop offset="0.61"/></linearGradient></defs><title>base-flat</title><circle class="a" cx="79.35" cy="78.65" r="76.89"/><path class="b" d="M102.28,92.57a0.56,0.56,0,0,1,0-.24h0.09c0.21,2.29.37,20.26,0.37,26.14,0,6.28-.18,11.37-0.41,11.37s-0.41-5.09-.41-11.37c0-5.88.16-23.85,0.37-26.14h0.09A0.56,0.56,0,0,1,102.28,92.57Z" transform="translate(-1.56 -0.83)"/><line class="c" x1="100.72" y1="91.48" x2="1.54" y2="82.97"/><path class="d" d="M111.81,59.19v72.55l3.66-1.75V90.78L157.26,70l-1.82-9.52-6.1-16.12-1.64-3Z" transform="translate(-1.56 -0.83)"/><path class="b" d="M111.81,59.19l0.16-.11,0.5-.28,2-1L121.88,54l26-13.07,1.82,3.33,6.17,16.15,1.91,9.86L116,91.11l0.05,39.25-1.91.92-0.76.36c-0.27.13-.4,0.19-1,0.49a0.69,0.69,0,0,1-.71,0l-0.11,0h-0.35v-2.55c0-19.44.07-37,.17-49.77,0.05-6.37.12-11.52,0.19-15.08l0.11-4.1a6.56,6.56,0,0,1,.12-1.43,6.56,6.56,0,0,1,.12,1.43l0.11,4.1c0.07,3.56.13,8.72,0.19,15.08,0.11,12.74.17,30.33,0.17,49.77v1.23h0l2.48-1.19,0.05-39.17,41.84-20.66-1.72-9.17-6-16.08-1.47-2.75L122,54.3l-7.5,3.63-2,1-0.52.24Z" transform="translate(-1.56 -0.83)"/><path class="e" d="M111.81,59.19L9.32,49.24Z" transform="translate(-1.56 -0.83)"/><path class="b" d="M103,130a0.86,0.86,0,0,1-.58.08l0.07-.35a65.87,65.87,0,0,1,6.75.83c1.72,0.32,3.07.84,3,1.16s-1.5.32-3.22,0a65.86,65.86,0,0,1-6.6-1.64l0.07-.35A0.86,0.86,0,0,1,103,130Z" transform="translate(-1.56 -0.83)"/><path class="e" d="M147.7,41.35L111.81,59.19Z" transform="translate(-1.56 -0.83)"/><path class="f" d="M140.38,30.7l-13.5-12.91L112.22,9.23l-11.31-4-20-2.63-20,2.63L46.13,10.67l-19.68,13L13.25,41.35,9.32,49.24l102.49,10L147.7,41.35Z" transform="translate(-1.56 -0.83)"/><circle class="g" cx="80.47" cy="79.74" r="77.4" transform="translate(-31.68 103.45) rotate(-57.25)"/></svg>