<?xml version="1.0" encoding="UTF-8"?>
<svg width="232px" height="35px" viewBox="0 0 232 35" version="1.1" xmlns="http://www.w3.org/2000/svg" xmlns:xlink="http://www.w3.org/1999/xlink">
    <!-- Generator: Sketch 49 (51002) - http://www.bohemiancoding.com/sketch -->
    <title>Artboard</title>
    <desc>Created with Sketch.</desc>
    <defs></defs>
    <g id="Artboard" stroke="none" stroke-width="1" fill="none" fill-rule="evenodd">
        <g id="trees">
            <polygon id="Fill-1" fill="#53585A" points="29.5235955 8.63947753 33.1025266 7.11716191 33.2048193 6.89361114 30.3616083 7.58336293 32.917613 4.35555029 32.6937932 4.01002328 27.4558852 8.58304724 27.0318516 1.79665364 26.2323078 0 25.5704656 14.2343238 19.3140026 7.12410718 18.8641773 7.2256817 21.0110114 10.4947319 18.1686747 9.80454599 18.2709673 10.0276627 21.6448761 11.4696737 25.4345126 17.2411902 24.6301601 33 28.8176014 33 28.1942282 22.9402155 29.8754997 20.6322166 32.9031871 19.3325836 33.0046055 19.1290004 30.5299103 19.7384476 32.8620952 16.5310367 32.6981647 15.9011878 28.0744497 20.6113808 27.5844067 11.0946293"></polygon>
            <polygon id="Fill-2" fill="#888C8D" points="11.3552509 8.63947753 14.933849 7.11716191 15.0361446 6.89361114 12.1937253 7.58336293 14.7493671 4.35555029 14.5242293 4.01002328 9.28748049 8.58304724 8.86343455 1.79665364 8.06430467 0 7.40200611 14.2343238 1.14492405 7.12410718 0.69552278 7.2256817 2.84285647 10.4947319 0 9.80454599 0.102295619 10.0276627 3.47630242 11.4696737 7.26604911 17.2411902 6.46211046 33 10.6492363 33 10.0262822 22.9402155 11.7071653 20.6322166 14.7340665 19.3325836 14.8359249 19.1290004 12.361595 19.7384476 14.6934105 16.5310367 14.5294752 15.9011878 9.90650014 20.6113808 9.41688008 11.0946293"></polygon>
            <polygon id="Fill-3" fill="#888C8D" points="48.318232 8.63947753 51.8968301 7.11716191 52 6.89361114 49.1571435 7.58336293 51.7132225 4.35555029 51.4876476 4.01002328 46.2508988 8.58304724 45.82729 1.79665364 45.0272858 0 44.3654244 14.2343238 38.1079051 7.12410718 37.658941 7.2256817 39.8062747 10.4947319 36.9638554 9.80454599 37.066151 10.0276627 40.4392835 11.4696737 44.2290302 17.2411902 43.4255287 33 47.6113431 33 46.9888261 22.9402155 48.6697093 20.6322166 51.6970476 19.3325836 51.7984689 19.1290004 49.3250133 19.7384476 51.6559545 16.5310367 51.4924563 15.9011878 46.8703556 20.6113808 46.379424 11.0946293"></polygon>
        </g>
        <g id="name" transform="translate(64.000000, 8.000000)" fill="#53585A">
            <path d="M5.3638263,7.35971017 C5.3638263,6.37615106 4.86990029,5.45397083 3.22470631,5.45397083 L0.904304963,5.45397083 L0.904304963,9.2355086 L3.22470631,9.2355086 C4.85256033,9.2355086 5.3638263,8.34426731 5.3638263,7.35971017 Z M4.86990029,3.01777825 C4.86990029,2.17194736 4.44165593,1.39098845 3.06023946,1.39098845 L0.904304963,1.39098845 L0.904304963,4.68798238 L3.06023946,4.68798238 C4.44165593,4.68798238 4.86990029,3.85961702 4.86990029,3.01777825 Z M3.06023946,0.625 C4.93558194,0.625 5.74162715,1.71884149 5.74162715,3.01777825 C5.74162715,3.70392426 5.47890055,4.65654442 4.57354468,5.01733246 C5.84041236,5.35965694 6.26865672,6.4230585 6.26865672,7.35971017 C6.26865672,8.84477963 5.3470118,10 3.22470631,10 L0,10 L0,0.625 L3.06023946,0.625 Z" id="Fill-1"></path>
            <path d="M16.1803234,3.34437151 C16.1803234,2.38645033 15.6998044,1.38216221 14.1657066,1.38216221 L12.1357487,1.38216221 L12.1357487,5.30559429 L14.1657066,5.30559429 C15.6998044,5.30559429 16.1803234,4.31709066 16.1803234,3.34437151 Z M15.9017115,8.07034621 C16.4906071,9.13629249 17.0636669,9.29117779 17.8218081,9.29117779 C17.9475052,9.29117779 18.0553869,9.29117779 18.1791045,9.27490003 L18.1791045,9.9388351 C17.9475052,9.98569531 17.7144213,10 17.4971732,10 C16.5049583,10 15.6998044,9.49144349 15.0648858,8.30218089 L13.8712587,6.06176997 L12.1357487,6.06176997 L12.1357487,9.8919749 L11.2835821,9.8919749 L11.2835821,0.625 L14.1657066,0.625 C16.1649825,0.625 17.0324901,1.89219852 17.0324901,3.34437151 C17.0324901,4.65695044 16.334723,5.78455488 14.7699432,6.01540303 L15.9017115,8.07034621 Z" id="Fill-3"></path>
            <polygon id="Fill-5" points="28.2089552 0.625 28.2089552 1.39098845 23.4792846 1.39098845 23.4792846 4.6884814 27.3789839 4.6884814 27.3789839 5.45397083 23.4792846 5.45397083 23.4792846 9.2355086 28.2089552 9.2355086 28.2089552 10 22.5671642 10 22.5671642 0.625"></polygon>
            <polygon id="Fill-7" points="33.8014651 0.625 39.3274122 8.26592191 39.3274122 0.625 40.119403 0.625 40.119403 10 39.5408461 10 34.0148991 2.36007612 34.0148991 10 33.2238806 10 33.2238806 0.625"></polygon>
            <polygon id="Fill-9" points="44.5074627 1.39098845 44.5074627 0.625 52.0298507 0.625 52.0298507 1.39098845 48.697122 1.39098845 48.697122 10 47.8406888 10 47.8406888 1.39098845"></polygon>
            <polygon id="Fill-11" points="57.3411242 0.625 59.9181963 8.37620429 62.4327723 0.625 63.0363925 0.625 65.5336932 8.37620429 68.0792633 0.625 68.9552239 0.625 65.8045094 10 65.1993649 10 62.7020641 2.31316868 60.1722452 10 59.5681169 10 56.4179104 0.625"></polygon>
            <path d="M77.7308215,0.809043443 C75.3626623,0.809043443 73.6471947,2.4915091 73.6471947,4.9987327 C73.6471947,7.50798398 75.3626623,9.1894358 77.7308215,9.1894358 C80.0676766,9.1894358 81.8154918,7.50798398 81.8154918,4.9987327 C81.8154918,2.4915091 80.0676766,0.809043443 77.7308215,0.809043443 M77.7308215,0 C80.606108,0 82.7462687,2.09509809 82.7462687,4.9987327 C82.7462687,7.92010949 80.606108,10 77.7308215,10 C74.839883,10 72.7164179,7.92010949 72.7164179,4.9987327 C72.7164179,2.09509809 74.839883,0 77.7308215,0" id="Fill-13"></path>
            <path d="M92.1482104,0.809043443 C89.7802975,0.809043443 88.0650084,2.4915091 88.0650084,4.9987327 C88.0650084,7.50798398 89.7802975,9.1894358 92.1482104,9.1894358 C94.4848223,9.1894358 96.2334991,7.50798398 96.2334991,4.9987327 C96.2334991,2.4915091 94.4848223,0.809043443 92.1482104,0.809043443 M92.1482104,0 C95.0242411,0 97.1641791,2.09509809 97.1641791,4.9987327 C97.1641791,7.92010949 95.0242411,10 92.1482104,10 C89.2575725,10 87.1343284,7.92010949 87.1343284,4.9987327 C87.1343284,2.09509809 89.2575725,0 92.1482104,0" id="Fill-15"></path>
            <path d="M108.767217,5.31200101 C108.767217,3.26564829 107.701493,1.43835161 104.453522,1.43835161 L102.452998,1.43835161 L102.452998,9.18814536 L104.453522,9.18814536 C107.701493,9.18814536 108.767217,7.3598507 108.767217,5.31200101 Z M104.437287,0.625 C108.127258,0.625 109.701493,2.73522328 109.701493,5.31200101 C109.701493,7.89127369 108.127258,10 104.437287,10 L101.552239,10 L101.552239,0.625 L104.437287,0.625 Z" id="Fill-17"></path>
            <polygon id="Fill-19" points="121.242682 0.625 121.242682 4.6884814 126.996124 4.6884814 126.996124 0.625 127.880597 0.625 127.880597 10 126.996124 10 126.996124 5.45397083 121.242682 5.45397083 121.242682 10 120.358209 10 120.358209 0.625"></polygon>
            <path d="M137.910448,0.809043443 C135.541492,0.809043443 133.826724,2.4915091 133.826724,4.9987327 C133.826724,7.50798398 135.541492,9.1894358 137.910448,9.1894358 C140.246538,9.1894358 141.994693,7.50798398 141.994693,4.9987327 C141.994693,2.4915091 140.246538,0.809043443 137.910448,0.809043443 M137.910448,0 C140.785435,0 142.925373,2.09509809 142.925373,4.9987327 C142.925373,7.92010949 140.785435,10 137.910448,10 C135.019288,10 132.895522,7.92010949 132.895522,4.9987327 C132.895522,2.09509809 135.019288,0 137.910448,0" id="Fill-21"></path>
            <path d="M148.298015,0.625 L152.031411,8.85975009 L155.763793,0.625 L156.716418,0.625 L156.716418,10 L155.841403,10 L155.841403,3.62507984 C155.841403,2.89152739 155.85865,2.10957045 155.85865,2.09410097 C155.841403,2.12553894 155.524369,2.95340528 155.238784,3.59364188 L152.348446,10 L151.649448,10 L148.759617,3.59364188 C148.456786,2.92296535 148.171201,2.15647788 148.139244,2.09410097 C148.139244,2.10957045 148.155983,2.87605791 148.155983,3.62507984 L148.155983,10 L147.313433,10 L147.313433,0.625 L148.298015,0.625 Z" id="Fill-23"></path>
            <polygon id="Fill-25" points="168 0.625 168 1.39098845 163.270244 1.39098845 163.270244 4.6884814 167.170107 4.6884814 167.170107 5.45397083 163.270244 5.45397083 163.270244 9.2355086 168 9.2355086 168 10 162.358209 10 162.358209 0.625"></polygon>
        </g>
        <path d="M63.816,33 L63.816,27.376 L64.368,27.376 L64.368,32.504 L66.976,32.504 L66.976,33 L63.816,33 Z M68.9262223,30.152 C68.9262223,28.536 70.1982223,27.28 71.7902223,27.28 C73.3822223,27.28 74.6542223,28.536 74.6542223,30.152 C74.6542223,31.8 73.3822223,33.096 71.7902223,33.096 C70.1982223,33.096 68.9262223,31.8 68.9262223,30.152 Z M69.5022223,30.152 C69.5022223,31.528 70.5182223,32.584 71.7902223,32.584 C73.0542223,32.584 74.0782223,31.528 74.0782223,30.152 C74.0782223,28.808 73.0542223,27.792 71.7902223,27.792 C70.5182223,27.792 69.5022223,28.808 69.5022223,30.152 Z M77.0684447,32.376 L77.3964447,31.952 C77.3964447,31.952 77.9804447,32.568 78.8684447,32.568 C79.4844447,32.568 79.9884447,32.2 79.9884447,31.592 C79.9884447,30.176 77.1804447,30.536 77.1804447,28.792 C77.1804447,27.984 77.8924447,27.28 78.9324447,27.28 C79.9084447,27.28 80.4364447,27.824 80.4364447,27.824 L80.1644447,28.288 C80.1644447,28.288 79.6684447,27.808 78.9324447,27.808 C78.2124447,27.808 77.7484447,28.28 77.7484447,28.776 C77.7484447,30.112 80.5564447,29.728 80.5564447,31.576 C80.5564447,32.416 79.9084447,33.096 78.8524447,33.096 C77.7004447,33.096 77.0684447,32.376 77.0684447,32.376 Z M90.5288894,33 L89.8808894,31.208 L87.6168894,31.208 L86.9768894,33 L86.3928894,33 L88.4568894,27.376 L89.0488894,27.376 L91.1128894,33 L90.5288894,33 Z M88.7608894,27.96 L88.7448894,27.96 C88.7448894,27.96 88.6248894,28.424 88.5288894,28.688 L87.7768894,30.728 L89.7128894,30.728 L88.9768894,28.688 C88.8808894,28.424 88.7608894,27.96 88.7608894,27.96 Z M93.6151117,33 L93.6151117,27.376 L94.1511117,27.376 L97.0231117,31.424 C97.2151117,31.704 97.4871117,32.184 97.4871117,32.184 L97.5031117,32.184 C97.5031117,32.184 97.4551117,31.72 97.4551117,31.424 L97.4551117,27.376 L98.0071117,27.376 L98.0071117,33 L97.4711117,33 L94.5991117,28.952 C94.4071117,28.672 94.1351117,28.192 94.1351117,28.192 L94.1191117,28.192 C94.1191117,28.192 94.1671117,28.656 94.1671117,28.952 L94.1671117,33 L93.6151117,33 Z M100.845334,30.184 C100.845334,28.56 102.061334,27.28 103.677334,27.28 C104.981334,27.28 105.677334,27.936 105.677334,27.936 L105.381334,28.352 C105.381334,28.352 104.725334,27.792 103.701334,27.792 C102.341334,27.792 101.421334,28.84 101.421334,30.176 C101.421334,31.56 102.373334,32.584 103.653334,32.584 C104.749334,32.584 105.421334,31.76 105.421334,31.76 L105.421334,30.808 L104.461334,30.808 L104.461334,30.312 L105.949334,30.312 L105.949334,33 L105.437334,33 L105.437334,32.576 C105.437334,32.456 105.445334,32.336 105.445334,32.336 L105.429334,32.336 C105.429334,32.336 104.781334,33.096 103.597334,33.096 C102.061334,33.096 100.845334,31.856 100.845334,30.184 Z M108.867556,33 L108.867556,27.376 L112.035556,27.376 L112.035556,27.872 L109.419556,27.872 L109.419556,29.92 L111.555556,29.92 L111.555556,30.416 L109.419556,30.416 L109.419556,32.504 L112.179556,32.504 L112.179556,33 L108.867556,33 Z M115.017779,33 L115.017779,27.376 L115.569779,27.376 L115.569779,32.504 L118.177779,32.504 L118.177779,33 L115.017779,33 Z M120.744001,33 L120.744001,27.376 L123.912001,27.376 L123.912001,27.872 L121.296001,27.872 L121.296001,29.92 L123.432001,29.92 L123.432001,30.416 L121.296001,30.416 L121.296001,32.504 L124.056001,32.504 L124.056001,33 L120.744001,33 Z M126.478223,32.376 L126.806223,31.952 C126.806223,31.952 127.390223,32.568 128.278223,32.568 C128.894223,32.568 129.398223,32.2 129.398223,31.592 C129.398223,30.176 126.590223,30.536 126.590223,28.792 C126.590223,27.984 127.302223,27.28 128.342223,27.28 C129.318223,27.28 129.846223,27.824 129.846223,27.824 L129.574223,28.288 C129.574223,28.288 129.078223,27.808 128.342223,27.808 C127.622223,27.808 127.158223,28.28 127.158223,28.776 C127.158223,30.112 129.966223,29.728 129.966223,31.576 C129.966223,32.416 129.318223,33.096 128.262223,33.096 C127.110223,33.096 126.478223,32.376 126.478223,32.376 Z" id="LOS-ANGELES" fill="#53585A"></path>
        <rect id="Rectangle" fill="#888C8D" x="140" y="25" width="45" height="10"></rect>
        <path d="M143.7312,30.976 C143.7312,29.688 144.6032,28.856 145.7552,28.856 C146.8992,28.856 147.5072,29.704 147.5072,30.752 C147.5072,30.856 147.4832,31.088 147.4832,31.088 L144.5312,31.088 C144.5712,31.976 145.2032,32.424 145.9232,32.424 C146.6192,32.424 147.1232,31.952 147.1232,31.952 L147.4432,32.52 C147.4432,32.52 146.8432,33.096 145.8752,33.096 C144.6032,33.096 143.7312,32.176 143.7312,30.976 Z M144.5552,30.504 L146.7152,30.504 C146.6912,29.808 146.2592,29.472 145.7392,29.472 C145.1472,29.472 144.6672,29.84 144.5552,30.504 Z M148.8992,32.504 L149.2752,31.952 C149.2752,31.952 149.7312,32.424 150.4352,32.424 C150.7712,32.424 151.1072,32.248 151.1072,31.92 C151.1072,31.176 149.0272,31.328 149.0272,30.008 C149.0272,29.272 149.6832,28.856 150.4912,28.856 C151.3792,28.856 151.7952,29.304 151.7952,29.304 L151.4832,29.888 C151.4832,29.888 151.1232,29.528 150.4832,29.528 C150.1472,29.528 149.8192,29.672 149.8192,30.024 C149.8192,30.752 151.8992,30.592 151.8992,31.92 C151.8992,32.592 151.3232,33.096 150.4352,33.096 C149.4432,33.096 148.8992,32.504 148.8992,32.504 Z M153.7552,31.52 L153.7552,29.632 L153.2272,29.632 L153.2272,29.008 L153.7792,29.008 L153.7792,27.84 L154.5312,27.84 L154.5312,29.008 L155.5072,29.008 L155.5072,29.632 L154.5312,29.632 L154.5312,31.432 C154.5312,32.24 155.0992,32.344 155.3952,32.344 C155.5072,32.344 155.5792,32.328 155.5792,32.328 L155.5792,33.016 C155.5792,33.016 155.4672,33.032 155.3072,33.032 C154.7872,33.032 153.7552,32.872 153.7552,31.52 Z M157.2272,33 L157.2272,32.176 L158.0432,32.176 L158.0432,33 L157.2272,33 Z M162.7072,33 L162.7072,32.312 L163.9552,32.312 L163.9552,28.664 C163.9552,28.488 163.9632,28.312 163.9632,28.312 L163.9472,28.312 C163.9472,28.312 163.8832,28.44 163.6752,28.64 L163.1472,29.16 L162.6672,28.664 L164.0192,27.352 L164.7232,27.352 L164.7232,32.312 L165.9552,32.312 L165.9552,33 L162.7072,33 Z M168.7232,33.096 C168.0512,33.096 167.6272,32.864 167.6272,32.864 L167.8832,32.176 C167.8832,32.176 168.2432,32.368 168.6912,32.368 C169.7312,32.368 170.2672,31.408 170.3872,30.472 L170.3712,30.472 C170.1392,30.792 169.6192,31 169.1232,31 C168.0512,31 167.3392,30.192 167.3392,29.144 C167.3392,28.032 168.0992,27.256 169.1552,27.256 C170.3552,27.256 171.2672,28.304 171.2672,29.92 C171.2672,31.368 170.4752,33.096 168.7232,33.096 Z M169.2832,30.336 C169.9232,30.336 170.4352,29.944 170.4352,29.544 C170.4352,28.808 169.8832,27.984 169.1632,27.984 C168.5072,27.984 168.1232,28.488 168.1232,29.144 C168.1232,29.832 168.5552,30.336 169.2832,30.336 Z M172.9712,31.368 C172.9712,30.504 173.7232,29.968 173.8752,29.864 C173.5072,29.6 173.2432,29.256 173.2432,28.736 C173.2432,27.984 173.8112,27.256 175.0032,27.256 C176.0512,27.256 176.7792,27.84 176.7792,28.768 C176.7792,29.52 176.1792,30.16 176.1072,30.24 C176.5392,30.504 176.8752,30.856 176.8752,31.44 C176.8752,32.32 176.1152,33.096 174.9392,33.096 C173.8112,33.096 172.9712,32.392 172.9712,31.368 Z M176.0592,31.416 C176.0592,30.808 175.2192,30.568 174.4592,30.2 C174.2752,30.328 173.7792,30.712 173.7792,31.32 C173.7792,31.968 174.3392,32.384 174.9392,32.384 C175.5312,32.384 176.0592,32 176.0592,31.416 Z M174.0272,28.752 C174.0272,29.376 174.7792,29.616 175.5072,29.928 C175.5952,29.84 176.0032,29.408 176.0032,28.816 C176.0032,28.296 175.5872,27.968 174.9952,27.968 C174.3712,27.968 174.0272,28.32 174.0272,28.752 Z M178.8352,33 L181.0352,28.552 C181.1952,28.232 181.3632,28.032 181.3632,28.032 L181.3632,28.016 C181.3632,28.016 181.2352,28.04 180.9472,28.04 L178.4272,28.04 L178.4272,27.352 L182.2032,27.352 L182.2032,27.896 L179.6512,33 L178.8352,33 Z" id="est.-1987" fill="#FFFFFF"></path>
    </g>
</svg>