<?xml version="1.0" encoding="UTF-8"?>
<svg width="66px" height="53px" viewBox="0 0 66 53" version="1.1" xmlns="http://www.w3.org/2000/svg" xmlns:xlink="http://www.w3.org/1999/xlink">
    <!-- Generator: Sketch 44 (41411) - http://www.bohemiancoding.com/sketch -->
    <title>freeshipping</title>
    <desc>Created with Sketch.</desc>
    <defs></defs>
    <g id="Page-1" stroke="none" stroke-width="1" fill="none" fill-rule="evenodd">
        <g id="freeshipping" fill-rule="nonzero">
            <path d="M21.6818182,43.3636364 C21.6818182,42.0587056 21.2050237,40.9294555 20.2514205,39.9758523 C19.2978172,39.022249 18.1685671,38.5454545 16.8636364,38.5454545 C15.5587056,38.5454545 14.4294555,39.022249 13.4758523,39.9758523 C12.522249,40.9294555 12.0454545,42.0587056 12.0454545,43.3636364 C12.0454545,44.6685671 12.522249,45.7978172 13.4758523,46.7514205 C14.4294555,47.7050237 15.5587056,48.1818182 16.8636364,48.1818182 C18.1685671,48.1818182 19.2978172,47.7050237 20.2514205,46.7514205 C21.2050237,45.7978172 21.6818182,44.6685671 21.6818182,43.3636364 L21.6818182,43.3636364 Z M7.22727273,24.0909091 L21.6818182,24.0909091 L21.6818182,14.4545455 L15.734375,14.4545455 C15.4081423,14.4545455 15.1321034,14.5674705 14.90625,14.7933239 L7.56605114,22.1335227 C7.34019773,22.3593761 7.22727273,22.635415 7.22727273,22.9616477 L7.22727273,24.0909091 Z M55.4090909,43.3636364 C55.4090909,42.0587056 54.9322964,40.9294555 53.9786932,39.9758523 C53.0250899,39.022249 51.8958399,38.5454545 50.5909091,38.5454545 C49.2859783,38.5454545 48.1567283,39.022249 47.203125,39.9758523 C46.2495217,40.9294555 45.7727273,42.0587056 45.7727273,43.3636364 C45.7727273,44.6685671 46.2495217,45.7978172 47.203125,46.7514205 C48.1567283,47.7050237 49.2859783,48.1818182 50.5909091,48.1818182 C51.8958399,48.1818182 53.0250899,47.7050237 53.9786932,46.7514205 C54.9322964,45.7978172 55.4090909,44.6685671 55.4090909,43.3636364 L55.4090909,43.3636364 Z M65.0454545,2.40909091 L65.0454545,40.9545455 C65.0454545,41.3309678 64.9952657,41.6634692 64.8948864,41.9520597 C64.7945071,42.2406501 64.6251196,42.4727737 64.3867188,42.6484375 C64.1483179,42.8241013 63.9412888,42.9683943 63.765625,43.081321 C63.5899612,43.1942477 63.2951015,43.2695311 62.8810369,43.3071733 C62.4669724,43.3448155 62.1846598,43.36991 62.0340909,43.3824574 C61.883522,43.3950048 61.5635678,43.3950048 61.0742188,43.3824574 C60.5848697,43.36991 60.3025572,43.3636364 60.2272727,43.3636364 C60.2272727,46.0236875 59.286231,48.2947349 57.4041193,50.1768466 C55.5220076,52.0589583 53.2509603,53 50.5909091,53 C47.9308579,53 45.6598105,52.0589583 43.7776989,50.1768466 C41.8955872,48.2947349 40.9545455,46.0236875 40.9545455,43.3636364 L26.5,43.3636364 C26.5,46.0236875 25.5589583,48.2947349 23.6768466,50.1768466 C21.7947349,52.0589583 19.5236875,53 16.8636364,53 C14.2035852,53 11.9325378,52.0589583 10.0504261,50.1768466 C8.16831445,48.2947349 7.22727273,46.0236875 7.22727273,43.3636364 L4.81818182,43.3636364 C4.74289735,43.3636364 4.46058483,43.36991 3.9712358,43.3824574 C3.48188676,43.3950048 3.16193257,43.3950048 3.01136364,43.3824574 C2.8607947,43.36991 2.57848218,43.3448155 2.16441761,43.3071733 C1.75035304,43.2695311 1.4554933,43.1942477 1.27982955,43.081321 C1.10416579,42.9683943 0.897136609,42.8241013 0.658735795,42.6484375 C0.420334982,42.4727737 0.250947472,42.2406501 0.150568182,41.9520597 C0.050188892,41.6634692 0,41.3309678 0,40.9545455 C0,40.3020801 0.238397237,39.737455 0.715198864,39.2606534 C1.19200049,38.7838518 1.75662553,38.5454545 2.40909091,38.5454545 L2.40909091,26.5 C2.40909091,26.2992414 2.4028173,25.8600886 2.39026989,25.1825284 C2.37772248,24.5049682 2.37772248,24.0281737 2.39026989,23.7521307 C2.4028173,23.4760876 2.43418536,23.0432084 2.484375,22.4534801 C2.53456464,21.8637518 2.61612159,21.3995045 2.7290483,21.0607244 C2.841975,20.7219443 3.01763612,20.339254 3.25603693,19.912642 C3.49443775,19.4860301 3.77675026,19.1096134 4.10298295,18.7833807 L11.556108,11.3302557 C12.0329096,10.8534541 12.6665443,10.4519429 13.4570313,10.1257102 C14.2475182,9.79947754 14.9815307,9.63636364 15.6590909,9.63636364 L21.6818182,9.63636364 L21.6818182,2.40909091 C21.6818182,1.75662553 21.9202154,1.19200049 22.397017,0.715198864 C22.8738187,0.238397237 23.4384437,0 24.0909091,0 L62.6363636,0 C63.288829,0 63.8534541,0.238397237 64.3302557,0.715198864 C64.8070573,1.19200049 65.0454545,1.75662553 65.0454545,2.40909091 L65.0454545,2.40909091 Z" id="truck---FontAwesome" fill="#454D5A"></path>
            <rect id="Rectangle-20" fill="#FFFFFF" x="29" y="6" width="28" height="18"></rect>
        </g>
    </g>
</svg>