<?xml version="1.0" encoding="UTF-8"?>
<svg width="263px" height="352px" viewBox="0 0 263 352" version="1.1" xmlns="http://www.w3.org/2000/svg" xmlns:xlink="http://www.w3.org/1999/xlink">
    <!-- Generator: Sketch 53.2 (72643) - https://sketchapp.com -->
    <title>greenguard-logo</title>
    <desc>Created with Sketch.</desc>
    <g id="Page-1" stroke="none" stroke-width="1" fill="none" fill-rule="evenodd">
        <g id="greenguard-logo">
            <path d="M48.4081151,352 C21.7805043,352 0,330.062222 0,303.255841 L0,48.7496943 C0,21.9405454 21.7805043,0 48.4081151,0 L214.586411,0 C241.216759,0 263,21.9405454 263,48.7496943 L263,303.255841 C263,330.062222 241.216759,352 214.586411,352 L48.4081151,352 Z" id="Fill-1" fill="#93C847"></path>
            <path d="M0,308 L263,308" id="Stroke-3" stroke="#FEFEFE" stroke-width="3.7422"></path>
            <path d="M16.5,206 L245.5,206" id="Stroke-3-Copy" stroke="#FEFEFE" stroke-width="3.7422"></path>
            <path d="M32.365,222.38 L36.1,222.38 C36.7800034,222.38 37.3399978,222.472499 37.78,222.6575 C38.2200022,222.842501 38.5674987,223.077499 38.8225,223.3625 C39.0775013,223.647501 39.2549995,223.967498 39.355,224.3225 C39.4550005,224.677502 39.505,225.019998 39.505,225.35 C39.505,225.680002 39.4550005,226.022498 39.355,226.3775 C39.2549995,226.732502 39.0775013,227.052499 38.8225,227.3375 C38.5674987,227.622501 38.2200022,227.857499 37.78,228.0425 C37.3399978,228.227501 36.7800034,228.32 36.1,228.32 L33.805,228.32 L33.805,233 L32.365,233 L32.365,222.38 Z M33.805,227.06 L35.695,227.06 C35.9750014,227.06 36.2524986,227.0375 36.5275,226.9925 C36.8025014,226.9475 37.0474989,226.865001 37.2625,226.745 C37.4775011,226.624999 37.6499994,226.452501 37.78,226.2275 C37.9100007,226.002499 37.975,225.710002 37.975,225.35 C37.975,224.989998 37.9100007,224.697501 37.78,224.4725 C37.6499994,224.247499 37.4775011,224.075001 37.2625,223.955 C37.0474989,223.834999 36.8025014,223.7525 36.5275,223.7075 C36.2524986,223.6625 35.9750014,223.64 35.695,223.64 L33.805,223.64 L33.805,227.06 Z M41.26,222.38 L44.995,222.38 C45.6750034,222.38 46.2349978,222.472499 46.675,222.6575 C47.1150022,222.842501 47.4624987,223.077499 47.7175,223.3625 C47.9725013,223.647501 48.1499995,223.967498 48.25,224.3225 C48.3500005,224.677502 48.4,225.019998 48.4,225.35 C48.4,225.690002 48.3400006,226.017498 48.22,226.3325 C48.0999994,226.647502 47.9275011,226.932499 47.7025,227.1875 C47.4774989,227.442501 47.2025016,227.657499 46.8775,227.8325 C46.5524984,228.007501 46.190002,228.115 45.79,228.155 L48.805,233 L47.005,233 L44.305,228.32 L42.7,228.32 L42.7,233 L41.26,233 L41.26,222.38 Z M42.7,227.06 L44.59,227.06 C44.8700014,227.06 45.1474986,227.0375 45.4225,226.9925 C45.6975014,226.9475 45.9424989,226.865001 46.1575,226.745 C46.3725011,226.624999 46.5449993,226.452501 46.675,226.2275 C46.8050006,226.002499 46.87,225.710002 46.87,225.35 C46.87,224.989998 46.8050006,224.697501 46.675,224.4725 C46.5449993,224.247499 46.3725011,224.075001 46.1575,223.955 C45.9424989,223.834999 45.6975014,223.7525 45.4225,223.7075 C45.1474986,223.6625 44.8700014,223.64 44.59,223.64 L42.7,223.64 L42.7,227.06 Z M55.3,233.27 C54.4899959,233.27 53.7450034,233.127501 53.065,232.8425 C52.3849966,232.557499 51.8025024,232.165003 51.3175,231.665 C50.8324976,231.164997 50.4525014,230.575003 50.1775,229.895 C49.9024986,229.214997 49.765,228.480004 49.765,227.69 C49.765,226.899996 49.9024986,226.165003 50.1775,225.485 C50.4525014,224.804997 50.8324976,224.215002 51.3175,223.715 C51.8025024,223.214998 52.3849966,222.822501 53.065,222.5375 C53.7450034,222.252499 54.4899959,222.11 55.3,222.11 C56.1100041,222.11 56.8549966,222.252499 57.535,222.5375 C58.2150034,222.822501 58.7974976,223.214998 59.2825,223.715 C59.7675024,224.215002 60.1474986,224.804997 60.4225,225.485 C60.6975014,226.165003 60.835,226.899996 60.835,227.69 C60.835,228.480004 60.6975014,229.214997 60.4225,229.895 C60.1474986,230.575003 59.7675024,231.164997 59.2825,231.665 C58.7974976,232.165003 58.2150034,232.557499 57.535,232.8425 C56.8549966,233.127501 56.1100041,233.27 55.3,233.27 Z M55.3,231.92 C55.9100031,231.92 56.4599975,231.807501 56.95,231.5825 C57.4400024,231.357499 57.8599982,231.055002 58.21,230.675 C58.5600017,230.294998 58.829999,229.847503 59.02,229.3325 C59.2100009,228.817497 59.305,228.270003 59.305,227.69 C59.305,227.109997 59.2100009,226.562503 59.02,226.0475 C58.829999,225.532497 58.5600017,225.085002 58.21,224.705 C57.8599982,224.324998 57.4400024,224.022501 56.95,223.7975 C56.4599975,223.572499 55.9100031,223.46 55.3,223.46 C54.6899969,223.46 54.1400024,223.572499 53.65,223.7975 C53.1599975,224.022501 52.7400017,224.324998 52.39,224.705 C52.0399982,225.085002 51.7700009,225.532497 51.58,226.0475 C51.3899991,226.562503 51.295,227.109997 51.295,227.69 C51.295,228.270003 51.3899991,228.817497 51.58,229.3325 C51.7700009,229.847503 52.0399982,230.294998 52.39,230.675 C52.7400017,231.055002 53.1599975,231.357499 53.65,231.5825 C54.1400024,231.807501 54.6899969,231.92 55.3,231.92 Z M62.665,222.38 L66.37,222.38 C67.1200037,222.38 67.7774972,222.464999 68.3425,222.635 C68.9075028,222.805001 69.3974979,223.032499 69.8125,223.3175 C70.2275021,223.602501 70.5724986,223.929998 70.8475,224.3 C71.1225014,224.670002 71.3399992,225.049998 71.5,225.44 C71.6600008,225.830002 71.7749996,226.219998 71.845,226.61 C71.9150003,227.000002 71.95,227.359998 71.95,227.69 C71.95,228.370003 71.8250012,229.027497 71.575,229.6625 C71.3249987,230.297503 70.9550024,230.862498 70.465,231.3575 C69.9749975,231.852502 69.3675036,232.249999 68.6425,232.55 C67.9174964,232.850001 67.0800048,233 66.13,233 L62.665,233 L62.665,222.38 Z M64.105,231.65 L65.92,231.65 C66.5300031,231.65 67.1074973,231.567501 67.6525,231.4025 C68.1975027,231.237499 68.674998,230.990002 69.085,230.66 C69.4950021,230.329998 69.8199988,229.917502 70.06,229.4225 C70.3000012,228.927498 70.42,228.350003 70.42,227.69 C70.42,227.349998 70.3650006,226.952502 70.255,226.4975 C70.1449995,226.042498 69.9375015,225.610002 69.6325,225.2 C69.3274985,224.789998 68.9050027,224.442501 68.365,224.1575 C67.8249973,223.872499 67.1250043,223.73 66.265,223.73 L64.105,223.73 L64.105,231.65 Z M75.265,222.38 L75.265,228.89 C75.265,229.220002 75.3099996,229.562498 75.4,229.9175 C75.4900004,230.272502 75.639999,230.599998 75.85,230.9 C76.0600011,231.200001 76.3349983,231.444999 76.675,231.635 C77.0150017,231.825001 77.4349975,231.92 77.935,231.92 C78.4350025,231.92 78.8549983,231.825001 79.195,231.635 C79.5350017,231.444999 79.8099989,231.200001 80.02,230.9 C80.230001,230.599998 80.3799996,230.272502 80.47,229.9175 C80.5600005,229.562498 80.605,229.220002 80.605,228.89 L80.605,222.38 L82.045,222.38 L82.045,229.115 C82.045,229.735003 81.9400011,230.297497 81.73,230.8025 C81.519999,231.307503 81.2300019,231.744998 80.86,232.115 C80.4899981,232.485002 80.0550025,232.769999 79.555,232.97 C79.0549975,233.170001 78.5150029,233.27 77.935,233.27 C77.3549971,233.27 76.8150025,233.170001 76.315,232.97 C75.8149975,232.769999 75.3800018,232.485002 75.01,232.115 C74.6399981,231.744998 74.3500011,231.307503 74.14,230.8025 C73.9299989,230.297497 73.825,229.735003 73.825,229.115 L73.825,222.38 L75.265,222.38 Z M91.975,224.675 C91.6749985,224.284998 91.2950023,223.985001 90.835,223.775 C90.3749977,223.564999 89.9000025,223.46 89.41,223.46 C88.809997,223.46 88.2675024,223.572499 87.7825,223.7975 C87.2974976,224.022501 86.8825017,224.329998 86.5375,224.72 C86.1924983,225.110002 85.925001,225.567497 85.735,226.0925 C85.5449991,226.617503 85.45,227.179997 85.45,227.78 C85.45,228.340003 85.5399991,228.869998 85.72,229.37 C85.9000009,229.870002 86.1599983,230.309998 86.5,230.69 C86.8400017,231.070002 87.2549976,231.369999 87.745,231.59 C88.2350024,231.810001 88.7899969,231.92 89.41,231.92 C90.020003,231.92 90.5549977,231.795001 91.015,231.545 C91.4750023,231.294999 91.8649984,230.945002 92.185,230.495 L93.4,231.41 C93.3199996,231.520001 93.180001,231.677499 92.98,231.8825 C92.779999,232.087501 92.5150017,232.292499 92.185,232.4975 C91.8549984,232.702501 91.4575023,232.882499 90.9925,233.0375 C90.5274977,233.192501 89.990003,233.27 89.38,233.27 C88.5399958,233.27 87.7825034,233.110002 87.1075,232.79 C86.4324966,232.469998 85.8575024,232.050003 85.3825,231.53 C84.9074976,231.009997 84.5450013,230.422503 84.295,229.7675 C84.0449988,229.112497 83.92,228.450003 83.92,227.78 C83.92,226.959996 84.0549987,226.202503 84.325,225.5075 C84.5950014,224.812497 84.9724976,224.212503 85.4575,223.7075 C85.9425024,223.202497 86.5249966,222.810001 87.205,222.53 C87.8850034,222.249999 88.6349959,222.11 89.455,222.11 C90.1550035,222.11 90.8424966,222.244999 91.5175,222.515 C92.1925034,222.785001 92.7449979,223.199997 93.175,223.76 L91.975,224.675 Z M97.36,223.73 L93.94,223.73 L93.94,222.38 L102.22,222.38 L102.22,223.73 L98.8,223.73 L98.8,233 L97.36,233 L97.36,223.73 Z M115.315,224.675 C115.014999,224.284998 114.635002,223.985001 114.175,223.775 C113.714998,223.564999 113.240002,223.46 112.75,223.46 C112.149997,223.46 111.607502,223.572499 111.1225,223.7975 C110.637498,224.022501 110.222502,224.329998 109.8775,224.72 C109.532498,225.110002 109.265001,225.567497 109.075,226.0925 C108.884999,226.617503 108.79,227.179997 108.79,227.78 C108.79,228.340003 108.879999,228.869998 109.06,229.37 C109.240001,229.870002 109.499998,230.309998 109.84,230.69 C110.180002,231.070002 110.594998,231.369999 111.085,231.59 C111.575002,231.810001 112.129997,231.92 112.75,231.92 C113.360003,231.92 113.894998,231.795001 114.355,231.545 C114.815002,231.294999 115.204998,230.945002 115.525,230.495 L116.74,231.41 C116.66,231.520001 116.520001,231.677499 116.32,231.8825 C116.119999,232.087501 115.855002,232.292499 115.525,232.4975 C115.194998,232.702501 114.797502,232.882499 114.3325,233.0375 C113.867498,233.192501 113.330003,233.27 112.72,233.27 C111.879996,233.27 111.122503,233.110002 110.4475,232.79 C109.772497,232.469998 109.197502,232.050003 108.7225,231.53 C108.247498,231.009997 107.885001,230.422503 107.635,229.7675 C107.384999,229.112497 107.26,228.450003 107.26,227.78 C107.26,226.959996 107.394999,226.202503 107.665,225.5075 C107.935001,224.812497 108.312498,224.212503 108.7975,223.7075 C109.282502,223.202497 109.864997,222.810001 110.545,222.53 C111.225003,222.249999 111.974996,222.11 112.795,222.11 C113.495004,222.11 114.182497,222.244999 114.8575,222.515 C115.532503,222.785001 116.084998,223.199997 116.515,223.76 L115.315,224.675 Z M118.48,222.38 L125.335,222.38 L125.335,223.73 L119.92,223.73 L119.92,226.895 L124.96,226.895 L124.96,228.245 L119.92,228.245 L119.92,231.65 L125.605,231.65 L125.605,233 L118.48,233 L118.48,222.38 Z M127.645,222.38 L131.38,222.38 C132.060003,222.38 132.619998,222.472499 133.06,222.6575 C133.500002,222.842501 133.847499,223.077499 134.1025,223.3625 C134.357501,223.647501 134.534999,223.967498 134.635,224.3225 C134.735001,224.677502 134.785,225.019998 134.785,225.35 C134.785,225.690002 134.725001,226.017498 134.605,226.3325 C134.484999,226.647502 134.312501,226.932499 134.0875,227.1875 C133.862499,227.442501 133.587502,227.657499 133.2625,227.8325 C132.937498,228.007501 132.575002,228.115 132.175,228.155 L135.19,233 L133.39,233 L130.69,228.32 L129.085,228.32 L129.085,233 L127.645,233 L127.645,222.38 Z M129.085,227.06 L130.975,227.06 C131.255001,227.06 131.532499,227.0375 131.8075,226.9925 C132.082501,226.9475 132.327499,226.865001 132.5425,226.745 C132.757501,226.624999 132.929999,226.452501 133.06,226.2275 C133.190001,226.002499 133.255,225.710002 133.255,225.35 C133.255,224.989998 133.190001,224.697501 133.06,224.4725 C132.929999,224.247499 132.757501,224.075001 132.5425,223.955 C132.327499,223.834999 132.082501,223.7525 131.8075,223.7075 C131.532499,223.6625 131.255001,223.64 130.975,223.64 L129.085,223.64 L129.085,227.06 Z M139.03,223.73 L135.61,223.73 L135.61,222.38 L143.89,222.38 L143.89,223.73 L140.47,223.73 L140.47,233 L139.03,233 L139.03,223.73 Z M145.42,222.38 L146.86,222.38 L146.86,233 L145.42,233 L145.42,222.38 Z M149.59,222.38 L156.265,222.38 L156.265,223.73 L151.03,223.73 L151.03,227.06 L155.905,227.06 L155.905,228.41 L151.03,228.41 L151.03,233 L149.59,233 L149.59,222.38 Z M158.2,222.38 L159.64,222.38 L159.64,233 L158.2,233 L158.2,222.38 Z M162.37,222.38 L169.225,222.38 L169.225,223.73 L163.81,223.73 L163.81,226.895 L168.85,226.895 L168.85,228.245 L163.81,228.245 L163.81,231.65 L169.495,231.65 L169.495,233 L162.37,233 L162.37,222.38 Z M171.295,222.38 L175,222.38 C175.750004,222.38 176.407497,222.464999 176.9725,222.635 C177.537503,222.805001 178.027498,223.032499 178.4425,223.3175 C178.857502,223.602501 179.202499,223.929998 179.4775,224.3 C179.752501,224.670002 179.969999,225.049998 180.13,225.44 C180.290001,225.830002 180.405,226.219998 180.475,226.61 C180.545,227.000002 180.58,227.359998 180.58,227.69 C180.58,228.370003 180.455001,229.027497 180.205,229.6625 C179.954999,230.297503 179.585002,230.862498 179.095,231.3575 C178.604998,231.852502 177.997504,232.249999 177.2725,232.55 C176.547496,232.850001 175.710005,233 174.76,233 L171.295,233 L171.295,222.38 Z M172.735,231.65 L174.55,231.65 C175.160003,231.65 175.737497,231.567501 176.2825,231.4025 C176.827503,231.237499 177.304998,230.990002 177.715,230.66 C178.125002,230.329998 178.449999,229.917502 178.69,229.4225 C178.930001,228.927498 179.05,228.350003 179.05,227.69 C179.05,227.349998 178.995001,226.952502 178.885,226.4975 C178.774999,226.042498 178.567502,225.610002 178.2625,225.2 C177.957498,224.789998 177.535003,224.442501 176.995,224.1575 C176.454997,223.872499 175.755004,223.73 174.895,223.73 L172.735,223.73 L172.735,231.65 Z M186.82,222.38 L193.495,222.38 L193.495,223.73 L188.26,223.73 L188.26,227.06 L193.135,227.06 L193.135,228.41 L188.26,228.41 L188.26,233 L186.82,233 L186.82,222.38 Z M200.305,233.27 C199.494996,233.27 198.750003,233.127501 198.07,232.8425 C197.389997,232.557499 196.807502,232.165003 196.3225,231.665 C195.837498,231.164997 195.457501,230.575003 195.1825,229.895 C194.907499,229.214997 194.77,228.480004 194.77,227.69 C194.77,226.899996 194.907499,226.165003 195.1825,225.485 C195.457501,224.804997 195.837498,224.215002 196.3225,223.715 C196.807502,223.214998 197.389997,222.822501 198.07,222.5375 C198.750003,222.252499 199.494996,222.11 200.305,222.11 C201.115004,222.11 201.859997,222.252499 202.54,222.5375 C203.220003,222.822501 203.802498,223.214998 204.2875,223.715 C204.772502,224.215002 205.152499,224.804997 205.4275,225.485 C205.702501,226.165003 205.84,226.899996 205.84,227.69 C205.84,228.480004 205.702501,229.214997 205.4275,229.895 C205.152499,230.575003 204.772502,231.164997 204.2875,231.665 C203.802498,232.165003 203.220003,232.557499 202.54,232.8425 C201.859997,233.127501 201.115004,233.27 200.305,233.27 Z M200.305,231.92 C200.915003,231.92 201.464998,231.807501 201.955,231.5825 C202.445002,231.357499 202.864998,231.055002 203.215,230.675 C203.565002,230.294998 203.834999,229.847503 204.025,229.3325 C204.215001,228.817497 204.31,228.270003 204.31,227.69 C204.31,227.109997 204.215001,226.562503 204.025,226.0475 C203.834999,225.532497 203.565002,225.085002 203.215,224.705 C202.864998,224.324998 202.445002,224.022501 201.955,223.7975 C201.464998,223.572499 200.915003,223.46 200.305,223.46 C199.694997,223.46 199.145002,223.572499 198.655,223.7975 C198.164998,224.022501 197.745002,224.324998 197.395,224.705 C197.044998,225.085002 196.775001,225.532497 196.585,226.0475 C196.394999,226.562503 196.3,227.109997 196.3,227.69 C196.3,228.270003 196.394999,228.817497 196.585,229.3325 C196.775001,229.847503 197.044998,230.294998 197.395,230.675 C197.745002,231.055002 198.164998,231.357499 198.655,231.5825 C199.145002,231.807501 199.694997,231.92 200.305,231.92 Z M207.91,222.38 L211.645,222.38 C212.325003,222.38 212.884998,222.472499 213.325,222.6575 C213.765002,222.842501 214.112499,223.077499 214.3675,223.3625 C214.622501,223.647501 214.8,223.967498 214.9,224.3225 C215,224.677502 215.05,225.019998 215.05,225.35 C215.05,225.690002 214.990001,226.017498 214.87,226.3325 C214.749999,226.647502 214.577501,226.932499 214.3525,227.1875 C214.127499,227.442501 213.852502,227.657499 213.5275,227.8325 C213.202498,228.007501 212.840002,228.115 212.44,228.155 L215.455,233 L213.655,233 L210.955,228.32 L209.35,228.32 L209.35,233 L207.91,233 L207.91,222.38 Z M209.35,227.06 L211.24,227.06 C211.520001,227.06 211.797499,227.0375 212.0725,226.9925 C212.347501,226.9475 212.592499,226.865001 212.8075,226.745 C213.022501,226.624999 213.194999,226.452501 213.325,226.2275 C213.455001,226.002499 213.52,225.710002 213.52,225.35 C213.52,224.989998 213.455001,224.697501 213.325,224.4725 C213.194999,224.247499 213.022501,224.075001 212.8075,223.955 C212.592499,223.834999 212.347501,223.7525 212.0725,223.7075 C211.797499,223.6625 211.520001,223.64 211.24,223.64 L209.35,223.64 L209.35,227.06 Z M32.365,242.38 L33.805,242.38 L33.805,251.65 L38.68,251.65 L38.68,253 L32.365,253 L32.365,242.38 Z M45.025,253.27 C44.214996,253.27 43.4700034,253.127501 42.79,252.8425 C42.1099966,252.557499 41.5275024,252.165003 41.0425,251.665 C40.5574976,251.164997 40.1775014,250.575003 39.9025,249.895 C39.6274986,249.214997 39.49,248.480004 39.49,247.69 C39.49,246.899996 39.6274986,246.165003 39.9025,245.485 C40.1775014,244.804997 40.5574976,244.215002 41.0425,243.715 C41.5275024,243.214998 42.1099966,242.822501 42.79,242.5375 C43.4700034,242.252499 44.214996,242.11 45.025,242.11 C45.8350041,242.11 46.5799966,242.252499 47.26,242.5375 C47.9400034,242.822501 48.5224976,243.214998 49.0075,243.715 C49.4925024,244.215002 49.8724986,244.804997 50.1475,245.485 C50.4225014,246.165003 50.56,246.899996 50.56,247.69 C50.56,248.480004 50.4225014,249.214997 50.1475,249.895 C49.8724986,250.575003 49.4925024,251.164997 49.0075,251.665 C48.5224976,252.165003 47.9400034,252.557499 47.26,252.8425 C46.5799966,253.127501 45.8350041,253.27 45.025,253.27 Z M45.025,251.92 C45.6350031,251.92 46.1849975,251.807501 46.675,251.5825 C47.1650025,251.357499 47.5849982,251.055002 47.935,250.675 C48.2850017,250.294998 48.554999,249.847503 48.745,249.3325 C48.935001,248.817497 49.03,248.270003 49.03,247.69 C49.03,247.109997 48.935001,246.562503 48.745,246.0475 C48.554999,245.532497 48.2850017,245.085002 47.935,244.705 C47.5849982,244.324998 47.1650025,244.022501 46.675,243.7975 C46.1849975,243.572499 45.6350031,243.46 45.025,243.46 C44.414997,243.46 43.8650024,243.572499 43.375,243.7975 C42.8849976,244.022501 42.4650017,244.324998 42.115,244.705 C41.7649982,245.085002 41.4950009,245.532497 41.305,246.0475 C41.1149991,246.562503 41.02,247.109997 41.02,247.69 C41.02,248.270003 41.1149991,248.817497 41.305,249.3325 C41.4950009,249.847503 41.7649982,250.294998 42.115,250.675 C42.4650017,251.055002 42.8849976,251.357499 43.375,251.5825 C43.8650024,251.807501 44.414997,251.92 45.025,251.92 Z M51.28,242.38 L52.78,242.38 L55.12,250.87 L55.15,250.87 L57.655,242.38 L59.305,242.38 L61.81,250.87 L61.84,250.87 L64.18,242.38 L65.68,242.38 L62.59,253 L61.075,253 L58.495,244.33 L58.465,244.33 L55.9,253 L54.385,253 L51.28,242.38 Z M78.625,244.675 C78.3249985,244.284998 77.9450023,243.985001 77.485,243.775 C77.0249977,243.564999 76.5500024,243.46 76.06,243.46 C75.459997,243.46 74.9175024,243.572499 74.4325,243.7975 C73.9474976,244.022501 73.5325017,244.329998 73.1875,244.72 C72.8424983,245.110002 72.575001,245.567497 72.385,246.0925 C72.1949991,246.617503 72.1,247.179997 72.1,247.78 C72.1,248.340003 72.1899991,248.869998 72.37,249.37 C72.5500009,249.870002 72.8099983,250.309998 73.15,250.69 C73.4900017,251.070002 73.9049976,251.369999 74.395,251.59 C74.8850025,251.810001 75.4399969,251.92 76.06,251.92 C76.670003,251.92 77.2049977,251.795001 77.665,251.545 C78.1250023,251.294999 78.5149984,250.945002 78.835,250.495 L80.05,251.41 C79.9699996,251.520001 79.830001,251.677499 79.63,251.8825 C79.429999,252.087501 79.1650016,252.292499 78.835,252.4975 C78.5049983,252.702501 78.1075023,252.882499 77.6425,253.0375 C77.1774977,253.192501 76.640003,253.27 76.03,253.27 C75.1899958,253.27 74.4325034,253.110002 73.7575,252.79 C73.0824966,252.469998 72.5075024,252.050003 72.0325,251.53 C71.5574976,251.009997 71.1950013,250.422503 70.945,249.7675 C70.6949987,249.112497 70.57,248.450003 70.57,247.78 C70.57,246.959996 70.7049986,246.202503 70.975,245.5075 C71.2450013,244.812497 71.6224976,244.212503 72.1075,243.7075 C72.5925024,243.202497 73.1749966,242.810001 73.855,242.53 C74.5350034,242.249999 75.2849959,242.11 76.105,242.11 C76.8050035,242.11 77.4924966,242.244999 78.1675,242.515 C78.8425034,242.785001 79.3949978,243.199997 79.825,243.76 L78.625,244.675 Z M81.79,242.38 L83.23,242.38 L83.23,246.79 L88.735,246.79 L88.735,242.38 L90.175,242.38 L90.175,253 L88.735,253 L88.735,248.14 L83.23,248.14 L83.23,253 L81.79,253 L81.79,242.38 Z M92.905,242.38 L99.76,242.38 L99.76,243.73 L94.345,243.73 L94.345,246.895 L99.385,246.895 L99.385,248.245 L94.345,248.245 L94.345,251.65 L100.03,251.65 L100.03,253 L92.905,253 L92.905,242.38 Z M101.965,242.38 L104.11,242.38 L107.485,250.42 L107.545,250.42 L110.89,242.38 L113.035,242.38 L113.035,253 L111.595,253 L111.595,244.27 L111.565,244.27 L107.98,253 L107.02,253 L103.435,244.27 L103.405,244.27 L103.405,253 L101.965,253 L101.965,242.38 Z M115.66,242.38 L117.1,242.38 L117.1,253 L115.66,253 L115.66,242.38 Z M127.225,244.675 C126.924999,244.284998 126.545002,243.985001 126.085,243.775 C125.624998,243.564999 125.150002,243.46 124.66,243.46 C124.059997,243.46 123.517502,243.572499 123.0325,243.7975 C122.547498,244.022501 122.132502,244.329998 121.7875,244.72 C121.442498,245.110002 121.175001,245.567497 120.985,246.0925 C120.794999,246.617503 120.7,247.179997 120.7,247.78 C120.7,248.340003 120.789999,248.869998 120.97,249.37 C121.150001,249.870002 121.409998,250.309998 121.75,250.69 C122.090002,251.070002 122.504998,251.369999 122.995,251.59 C123.485002,251.810001 124.039997,251.92 124.66,251.92 C125.270003,251.92 125.804998,251.795001 126.265,251.545 C126.725002,251.294999 127.114998,250.945002 127.435,250.495 L128.65,251.41 C128.57,251.520001 128.430001,251.677499 128.23,251.8825 C128.029999,252.087501 127.765002,252.292499 127.435,252.4975 C127.104998,252.702501 126.707502,252.882499 126.2425,253.0375 C125.777498,253.192501 125.240003,253.27 124.63,253.27 C123.789996,253.27 123.032503,253.110002 122.3575,252.79 C121.682497,252.469998 121.107502,252.050003 120.6325,251.53 C120.157498,251.009997 119.795001,250.422503 119.545,249.7675 C119.294999,249.112497 119.17,248.450003 119.17,247.78 C119.17,246.959996 119.304999,246.202503 119.575,245.5075 C119.845001,244.812497 120.222498,244.212503 120.7075,243.7075 C121.192502,243.202497 121.774997,242.810001 122.455,242.53 C123.135003,242.249999 123.884996,242.11 124.705,242.11 C125.405004,242.11 126.092497,242.244999 126.7675,242.515 C127.442503,242.785001 127.994998,243.199997 128.425,243.76 L127.225,244.675 Z M133.72,242.38 L135.025,242.38 L139.57,253 L137.89,253 L136.825,250.375 L131.77,250.375 L130.72,253 L129.04,253 L133.72,242.38 Z M136.3,249.115 L134.32,244.24 L134.29,244.24 L132.28,249.115 L136.3,249.115 Z M140.95,242.38 L142.39,242.38 L142.39,251.65 L147.265,251.65 L147.265,253 L140.95,253 L140.95,242.38 Z M152.905,242.38 L159.76,242.38 L159.76,243.73 L154.345,243.73 L154.345,246.895 L159.385,246.895 L159.385,248.245 L154.345,248.245 L154.345,251.65 L160.03,251.65 L160.03,253 L152.905,253 L152.905,242.38 Z M161.965,242.38 L164.11,242.38 L167.485,250.42 L167.545,250.42 L170.89,242.38 L173.035,242.38 L173.035,253 L171.595,253 L171.595,244.27 L171.565,244.27 L167.98,253 L167.02,253 L163.435,244.27 L163.405,244.27 L163.405,253 L161.965,253 L161.965,242.38 Z M175.66,242.38 L177.1,242.38 L177.1,253 L175.66,253 L175.66,242.38 Z M180.145,250.78 C180.405001,251.170002 180.737498,251.457499 181.1425,251.6425 C181.547502,251.827501 181.964998,251.92 182.395,251.92 C182.635001,251.92 182.879999,251.8825 183.13,251.8075 C183.380001,251.7325 183.607499,251.620001 183.8125,251.47 C184.017501,251.319999 184.184999,251.135001 184.315,250.915 C184.445001,250.694999 184.51,250.440001 184.51,250.15 C184.51,249.739998 184.380001,249.427501 184.12,249.2125 C183.859999,248.997499 183.537502,248.817501 183.1525,248.6725 C182.767498,248.527499 182.347502,248.387501 181.8925,248.2525 C181.437498,248.117499 181.017502,247.930001 180.6325,247.69 C180.247498,247.449999 179.925001,247.127502 179.665,246.7225 C179.404999,246.317498 179.275,245.770003 179.275,245.08 C179.275,244.769998 179.342499,244.440002 179.4775,244.09 C179.612501,243.739998 179.824999,243.420001 180.115,243.13 C180.405001,242.839999 180.777498,242.597501 181.2325,242.4025 C181.687502,242.207499 182.234997,242.11 182.875,242.11 C183.455003,242.11 184.009997,242.189999 184.54,242.35 C185.070003,242.510001 185.534998,242.834998 185.935,243.325 L184.765,244.39 C184.584999,244.109999 184.330002,243.885001 184,243.715 C183.669998,243.544999 183.295002,243.46 182.875,243.46 C182.474998,243.46 182.142501,243.512499 181.8775,243.6175 C181.612499,243.722501 181.400001,243.857499 181.24,244.0225 C181.079999,244.187501 180.9675,244.364999 180.9025,244.555 C180.8375,244.745001 180.805,244.919999 180.805,245.08 C180.805,245.530002 180.934999,245.874999 181.195,246.115 C181.455001,246.355001 181.777498,246.549999 182.1625,246.7 C182.547502,246.850001 182.967498,246.984999 183.4225,247.105 C183.877502,247.225001 184.297498,247.392499 184.6825,247.6075 C185.067502,247.822501 185.389999,248.112498 185.65,248.4775 C185.910001,248.842502 186.04,249.344997 186.04,249.985 C186.04,250.495003 185.942501,250.954998 185.7475,251.365 C185.552499,251.775002 185.290002,252.119999 184.96,252.4 C184.629998,252.680001 184.240002,252.894999 183.79,253.045 C183.339998,253.195001 182.860003,253.27 182.35,253.27 C181.669997,253.27 181.025003,253.150001 180.415,252.91 C179.804997,252.669999 179.320002,252.300003 178.96,251.8 L180.145,250.78 Z M188.485,250.78 C188.745001,251.170002 189.077498,251.457499 189.4825,251.6425 C189.887502,251.827501 190.304998,251.92 190.735,251.92 C190.975001,251.92 191.219999,251.8825 191.47,251.8075 C191.720001,251.7325 191.947499,251.620001 192.1525,251.47 C192.357501,251.319999 192.524999,251.135001 192.655,250.915 C192.785001,250.694999 192.85,250.440001 192.85,250.15 C192.85,249.739998 192.720001,249.427501 192.46,249.2125 C192.199999,248.997499 191.877502,248.817501 191.4925,248.6725 C191.107498,248.527499 190.687502,248.387501 190.2325,248.2525 C189.777498,248.117499 189.357502,247.930001 188.9725,247.69 C188.587498,247.449999 188.265001,247.127502 188.005,246.7225 C187.744999,246.317498 187.615,245.770003 187.615,245.08 C187.615,244.769998 187.682499,244.440002 187.8175,244.09 C187.952501,243.739998 188.164999,243.420001 188.455,243.13 C188.745001,242.839999 189.117498,242.597501 189.5725,242.4025 C190.027502,242.207499 190.574997,242.11 191.215,242.11 C191.795003,242.11 192.349997,242.189999 192.88,242.35 C193.410003,242.510001 193.874998,242.834998 194.275,243.325 L193.105,244.39 C192.924999,244.109999 192.670002,243.885001 192.34,243.715 C192.009998,243.544999 191.635002,243.46 191.215,243.46 C190.814998,243.46 190.482501,243.512499 190.2175,243.6175 C189.952499,243.722501 189.740001,243.857499 189.58,244.0225 C189.419999,244.187501 189.3075,244.364999 189.2425,244.555 C189.1775,244.745001 189.145,244.919999 189.145,245.08 C189.145,245.530002 189.274999,245.874999 189.535,246.115 C189.795001,246.355001 190.117498,246.549999 190.5025,246.7 C190.887502,246.850001 191.307498,246.984999 191.7625,247.105 C192.217502,247.225001 192.637498,247.392499 193.0225,247.6075 C193.407502,247.822501 193.729999,248.112498 193.99,248.4775 C194.250001,248.842502 194.38,249.344997 194.38,249.985 C194.38,250.495003 194.282501,250.954998 194.0875,251.365 C193.892499,251.775002 193.630002,252.119999 193.3,252.4 C192.969998,252.680001 192.580002,252.894999 192.13,253.045 C191.679998,253.195001 191.200003,253.27 190.69,253.27 C190.009997,253.27 189.365003,253.150001 188.755,252.91 C188.144997,252.669999 187.660002,252.300003 187.3,251.8 L188.485,250.78 Z M196.51,242.38 L197.95,242.38 L197.95,253 L196.51,253 L196.51,242.38 Z M205.555,253.27 C204.744996,253.27 204.000003,253.127501 203.32,252.8425 C202.639997,252.557499 202.057502,252.165003 201.5725,251.665 C201.087498,251.164997 200.707501,250.575003 200.4325,249.895 C200.157499,249.214997 200.02,248.480004 200.02,247.69 C200.02,246.899996 200.157499,246.165003 200.4325,245.485 C200.707501,244.804997 201.087498,244.215002 201.5725,243.715 C202.057502,243.214998 202.639997,242.822501 203.32,242.5375 C204.000003,242.252499 204.744996,242.11 205.555,242.11 C206.365004,242.11 207.109997,242.252499 207.79,242.5375 C208.470003,242.822501 209.052498,243.214998 209.5375,243.715 C210.022502,244.215002 210.402499,244.804997 210.6775,245.485 C210.952501,246.165003 211.09,246.899996 211.09,247.69 C211.09,248.480004 210.952501,249.214997 210.6775,249.895 C210.402499,250.575003 210.022502,251.164997 209.5375,251.665 C209.052498,252.165003 208.470003,252.557499 207.79,252.8425 C207.109997,253.127501 206.365004,253.27 205.555,253.27 Z M205.555,251.92 C206.165003,251.92 206.714998,251.807501 207.205,251.5825 C207.695002,251.357499 208.114998,251.055002 208.465,250.675 C208.815002,250.294998 209.084999,249.847503 209.275,249.3325 C209.465001,248.817497 209.56,248.270003 209.56,247.69 C209.56,247.109997 209.465001,246.562503 209.275,246.0475 C209.084999,245.532497 208.815002,245.085002 208.465,244.705 C208.114998,244.324998 207.695002,244.022501 207.205,243.7975 C206.714998,243.572499 206.165003,243.46 205.555,243.46 C204.944997,243.46 204.395002,243.572499 203.905,243.7975 C203.414998,244.022501 202.995002,244.324998 202.645,244.705 C202.294998,245.085002 202.025001,245.532497 201.835,246.0475 C201.644999,246.562503 201.55,247.109997 201.55,247.69 C201.55,248.270003 201.644999,248.817497 201.835,249.3325 C202.025001,249.847503 202.294998,250.294998 202.645,250.675 C202.995002,251.055002 203.414998,251.357499 203.905,251.5825 C204.395002,251.807501 204.944997,251.92 205.555,251.92 Z M213.16,242.38 L215.05,242.38 L220.9,251.11 L220.93,251.11 L220.93,242.38 L222.37,242.38 L222.37,253 L220.54,253 L214.63,244.27 L214.6,244.27 L214.6,253 L213.16,253 L213.16,242.38 Z M225.415,250.78 C225.675001,251.170002 226.007498,251.457499 226.4125,251.6425 C226.817502,251.827501 227.234998,251.92 227.665,251.92 C227.905001,251.92 228.149999,251.8825 228.4,251.8075 C228.650001,251.7325 228.877499,251.620001 229.0825,251.47 C229.287501,251.319999 229.454999,251.135001 229.585,250.915 C229.715001,250.694999 229.78,250.440001 229.78,250.15 C229.78,249.739998 229.650001,249.427501 229.39,249.2125 C229.129999,248.997499 228.807502,248.817501 228.4225,248.6725 C228.037498,248.527499 227.617502,248.387501 227.1625,248.2525 C226.707498,248.117499 226.287502,247.930001 225.9025,247.69 C225.517498,247.449999 225.195001,247.127502 224.935,246.7225 C224.674999,246.317498 224.545,245.770003 224.545,245.08 C224.545,244.769998 224.612499,244.440002 224.7475,244.09 C224.882501,243.739998 225.094999,243.420001 225.385,243.13 C225.675001,242.839999 226.047498,242.597501 226.5025,242.4025 C226.957502,242.207499 227.504997,242.11 228.145,242.11 C228.725003,242.11 229.279997,242.189999 229.81,242.35 C230.340003,242.510001 230.804998,242.834998 231.205,243.325 L230.035,244.39 C229.854999,244.109999 229.600002,243.885001 229.27,243.715 C228.939998,243.544999 228.565002,243.46 228.145,243.46 C227.744998,243.46 227.412501,243.512499 227.1475,243.6175 C226.882499,243.722501 226.670001,243.857499 226.51,244.0225 C226.349999,244.187501 226.2375,244.364999 226.1725,244.555 C226.1075,244.745001 226.075,244.919999 226.075,245.08 C226.075,245.530002 226.204999,245.874999 226.465,246.115 C226.725001,246.355001 227.047498,246.549999 227.4325,246.7 C227.817502,246.850001 228.237498,246.984999 228.6925,247.105 C229.147502,247.225001 229.567498,247.392499 229.9525,247.6075 C230.337502,247.822501 230.659999,248.112498 230.92,248.4775 C231.180001,248.842502 231.31,249.344997 231.31,249.985 C231.31,250.495003 231.212501,250.954998 231.0175,251.365 C230.822499,251.775002 230.560002,252.119999 230.23,252.4 C229.899998,252.680001 229.510002,252.894999 229.06,253.045 C228.609998,253.195001 228.130003,253.27 227.62,253.27 C226.939997,253.27 226.295003,253.150001 225.685,252.91 C225.074997,252.669999 224.590002,252.300003 224.23,251.8 L225.415,250.78 Z M33.61,262.38 L33.61,268.89 C33.61,269.220002 33.6549995,269.562498 33.745,269.9175 C33.8350005,270.272502 33.9849989,270.599998 34.195,270.9 C34.4050011,271.200001 34.6799983,271.444999 35.02,271.635 C35.3600017,271.825001 35.7799975,271.92 36.28,271.92 C36.7800025,271.92 37.1999983,271.825001 37.54,271.635 C37.8800017,271.444999 38.1549989,271.200001 38.365,270.9 C38.575001,270.599998 38.7249995,270.272502 38.815,269.9175 C38.9050005,269.562498 38.95,269.220002 38.95,268.89 L38.95,262.38 L40.39,262.38 L40.39,269.115 C40.39,269.735003 40.285001,270.297497 40.075,270.8025 C39.864999,271.307503 39.5750018,271.744998 39.205,272.115 C38.8349981,272.485002 38.4000025,272.769999 37.9,272.97 C37.3999975,273.170001 36.8600029,273.27 36.28,273.27 C35.6999971,273.27 35.1600025,273.170001 34.66,272.97 C34.1599975,272.769999 33.7250018,272.485002 33.355,272.115 C32.9849982,271.744998 32.6950011,271.307503 32.485,270.8025 C32.2749989,270.297497 32.17,269.735003 32.17,269.115 L32.17,262.38 L33.61,262.38 Z M42.925,262.38 L44.365,262.38 L44.365,271.65 L49.24,271.65 L49.24,273 L42.925,273 L42.925,262.38 Z M51.43,273.09 C51.1599986,273.09 50.927501,272.992501 50.7325,272.7975 C50.537499,272.602499 50.44,272.370001 50.44,272.1 C50.44,271.829999 50.537499,271.597501 50.7325,271.4025 C50.927501,271.207499 51.1599986,271.11 51.43,271.11 C51.7000014,271.11 51.932499,271.207499 52.1275,271.4025 C52.322501,271.597501 52.42,271.829999 52.42,272.1 C52.42,272.370001 52.322501,272.602499 52.1275,272.7975 C51.932499,272.992501 51.7000014,273.09 51.43,273.09 Z M62.275,264.675 C61.9749985,264.284998 61.5950023,263.985001 61.135,263.775 C60.6749977,263.564999 60.2000024,263.46 59.71,263.46 C59.109997,263.46 58.5675024,263.572499 58.0825,263.7975 C57.5974976,264.022501 57.1825017,264.329998 56.8375,264.72 C56.4924983,265.110002 56.225001,265.567497 56.035,266.0925 C55.844999,266.617503 55.75,267.179997 55.75,267.78 C55.75,268.340003 55.8399991,268.869998 56.02,269.37 C56.2000009,269.870002 56.4599983,270.309998 56.8,270.69 C57.1400017,271.070002 57.5549976,271.369999 58.045,271.59 C58.5350025,271.810001 59.0899969,271.92 59.71,271.92 C60.320003,271.92 60.8549977,271.795001 61.315,271.545 C61.7750023,271.294999 62.1649984,270.945002 62.485,270.495 L63.7,271.41 C63.6199996,271.520001 63.480001,271.677499 63.28,271.8825 C63.079999,272.087501 62.8150016,272.292499 62.485,272.4975 C62.1549983,272.702501 61.7575023,272.882499 61.2925,273.0375 C60.8274977,273.192501 60.290003,273.27 59.68,273.27 C58.8399958,273.27 58.0825034,273.110002 57.4075,272.79 C56.7324966,272.469998 56.1575024,272.050003 55.6825,271.53 C55.2074976,271.009997 54.8450012,270.422503 54.595,269.7675 C54.3449988,269.112497 54.22,268.450003 54.22,267.78 C54.22,266.959996 54.3549986,266.202503 54.625,265.5075 C54.8950014,264.812497 55.2724976,264.212503 55.7575,263.7075 C56.2425024,263.202497 56.8249966,262.810001 57.505,262.53 C58.1850034,262.249999 58.9349959,262.11 59.755,262.11 C60.4550035,262.11 61.1424966,262.244999 61.8175,262.515 C62.4925034,262.785001 63.0449979,263.199997 63.475,263.76 L62.275,264.675 Z M70.315,273.27 C69.5049959,273.27 68.7600034,273.127501 68.08,272.8425 C67.3999966,272.557499 66.8175024,272.165003 66.3325,271.665 C65.8474976,271.164998 65.4675014,270.575003 65.1925,269.895 C64.9174986,269.214997 64.78,268.480004 64.78,267.69 C64.78,266.899996 64.9174986,266.165003 65.1925,265.485 C65.4675014,264.804997 65.8474976,264.215003 66.3325,263.715 C66.8175024,263.214997 67.3999966,262.822501 68.08,262.5375 C68.7600034,262.252499 69.5049959,262.11 70.315,262.11 C71.1250041,262.11 71.8699966,262.252499 72.55,262.5375 C73.2300034,262.822501 73.8124976,263.214997 74.2975,263.715 C74.7825024,264.215003 75.1624986,264.804997 75.4375,265.485 C75.7125014,266.165003 75.85,266.899996 75.85,267.69 C75.85,268.480004 75.7125014,269.214997 75.4375,269.895 C75.1624986,270.575003 74.7825024,271.164998 74.2975,271.665 C73.8124976,272.165003 73.2300034,272.557499 72.55,272.8425 C71.8699966,273.127501 71.1250041,273.27 70.315,273.27 Z M70.315,271.92 C70.9250031,271.92 71.4749976,271.807501 71.965,271.5825 C72.4550024,271.357499 72.8749983,271.055002 73.225,270.675 C73.5750017,270.294998 73.844999,269.847503 74.035,269.3325 C74.225001,268.817497 74.32,268.270003 74.32,267.69 C74.32,267.109997 74.225001,266.562503 74.035,266.0475 C73.844999,265.532497 73.5750017,265.085002 73.225,264.705 C72.8749983,264.324998 72.4550024,264.022501 71.965,263.7975 C71.4749976,263.572499 70.9250031,263.46 70.315,263.46 C69.704997,263.46 69.1550025,263.572499 68.665,263.7975 C68.1749976,264.022501 67.7550018,264.324998 67.405,264.705 C67.0549982,265.085002 66.785001,265.532497 66.595,266.0475 C66.4049991,266.562503 66.31,267.109997 66.31,267.69 C66.31,268.270003 66.4049991,268.817497 66.595,269.3325 C66.785001,269.847503 67.0549982,270.294998 67.405,270.675 C67.7550018,271.055002 68.1749976,271.357499 68.665,271.5825 C69.1550025,271.807501 69.704997,271.92 70.315,271.92 Z M77.815,262.38 L79.96,262.38 L83.335,270.42 L83.395,270.42 L86.74,262.38 L88.885,262.38 L88.885,273 L87.445,273 L87.445,264.27 L87.415,264.27 L83.83,273 L82.87,273 L79.285,264.27 L79.255,264.27 L79.255,273 L77.815,273 L77.815,262.38 Z M91.195,273.66 L90.145,273.27 L94.945,261.72 L95.98,262.11 L91.195,273.66 Z M106.39,267.06 L106.39,272.295 C106.129999,272.455001 105.835002,272.594999 105.505,272.715 C105.174998,272.835001 104.832502,272.9375 104.4775,273.0225 C104.122498,273.1075 103.762502,273.17 103.3975,273.21 C103.032498,273.25 102.690002,273.27 102.37,273.27 C101.469996,273.27 100.667504,273.120002 99.9625,272.82 C99.2574965,272.519998 98.6625024,272.115003 98.1775,271.605 C97.6924976,271.094997 97.3225013,270.502503 97.0675,269.8275 C96.8124987,269.152497 96.685,268.440004 96.685,267.69 C96.685,266.899996 96.8224986,266.165003 97.0975,265.485 C97.3725014,264.804997 97.7524976,264.215003 98.2375,263.715 C98.7225024,263.214997 99.3049966,262.822501 99.985,262.5375 C100.665003,262.252499 101.409996,262.11 102.22,262.11 C103.200005,262.11 103.999997,262.232499 104.62,262.4775 C105.240003,262.722501 105.759998,263.059998 106.18,263.49 L105.16,264.585 C104.719998,264.164998 104.255002,263.872501 103.765,263.7075 C103.274998,263.542499 102.760003,263.46 102.22,263.46 C101.609997,263.46 101.060002,263.572499 100.57,263.7975 C100.079998,264.022501 99.6600018,264.324998 99.31,264.705 C98.9599983,265.085002 98.690001,265.532497 98.5,266.0475 C98.3099991,266.562503 98.215,267.109997 98.215,267.69 C98.215,268.290003 98.319999,268.847497 98.53,269.3625 C98.7400011,269.877503 99.0299982,270.324998 99.4,270.705 C99.7700019,271.085002 100.204998,271.382499 100.705,271.5975 C101.205003,271.812501 101.749997,271.92 102.34,271.92 C102.850003,271.92 103.332498,271.8725 103.7875,271.7775 C104.242502,271.6825 104.629998,271.545001 104.95,271.365 L104.95,268.41 L102.595,268.41 L102.595,267.06 L106.39,267.06 Z M118.06,267.06 L118.06,272.295 C117.799999,272.455001 117.505002,272.594999 117.175,272.715 C116.844998,272.835001 116.502502,272.9375 116.1475,273.0225 C115.792498,273.1075 115.432502,273.17 115.0675,273.21 C114.702498,273.25 114.360002,273.27 114.04,273.27 C113.139996,273.27 112.337504,273.120002 111.6325,272.82 C110.927496,272.519998 110.332502,272.115003 109.8475,271.605 C109.362498,271.094997 108.992501,270.502503 108.7375,269.8275 C108.482499,269.152497 108.355,268.440004 108.355,267.69 C108.355,266.899996 108.492499,266.165003 108.7675,265.485 C109.042501,264.804997 109.422498,264.215003 109.9075,263.715 C110.392502,263.214997 110.974997,262.822501 111.655,262.5375 C112.335003,262.252499 113.079996,262.11 113.89,262.11 C114.870005,262.11 115.669997,262.232499 116.29,262.4775 C116.910003,262.722501 117.429998,263.059998 117.85,263.49 L116.83,264.585 C116.389998,264.164998 115.925002,263.872501 115.435,263.7075 C114.944998,263.542499 114.430003,263.46 113.89,263.46 C113.279997,263.46 112.730002,263.572499 112.24,263.7975 C111.749998,264.022501 111.330002,264.324998 110.98,264.705 C110.629998,265.085002 110.360001,265.532497 110.17,266.0475 C109.979999,266.562503 109.885,267.109997 109.885,267.69 C109.885,268.290003 109.989999,268.847497 110.2,269.3625 C110.410001,269.877503 110.699998,270.324998 111.07,270.705 C111.440002,271.085002 111.874998,271.382499 112.375,271.5975 C112.875002,271.812501 113.419997,271.92 114.01,271.92 C114.520003,271.92 115.002498,271.8725 115.4575,271.7775 C115.912502,271.6825 116.299998,271.545001 116.62,271.365 L116.62,268.41 L114.265,268.41 L114.265,267.06 L118.06,267.06 Z M33.61,282.38 L33.61,288.89 C33.61,289.220002 33.6549995,289.562498 33.745,289.9175 C33.8350005,290.272502 33.9849989,290.599998 34.195,290.9 C34.4050011,291.200001 34.6799983,291.444999 35.02,291.635 C35.3600017,291.825001 35.7799975,291.92 36.28,291.92 C36.7800025,291.92 37.1999983,291.825001 37.54,291.635 C37.8800017,291.444999 38.1549989,291.200001 38.365,290.9 C38.575001,290.599998 38.7249995,290.272502 38.815,289.9175 C38.9050005,289.562498 38.95,289.220002 38.95,288.89 L38.95,282.38 L40.39,282.38 L40.39,289.115 C40.39,289.735003 40.285001,290.297497 40.075,290.8025 C39.864999,291.307503 39.5750018,291.744998 39.205,292.115 C38.8349981,292.485002 38.4000025,292.769999 37.9,292.97 C37.3999975,293.170001 36.8600029,293.27 36.28,293.27 C35.6999971,293.27 35.1600025,293.170001 34.66,292.97 C34.1599975,292.769999 33.7250018,292.485002 33.355,292.115 C32.9849982,291.744998 32.6950011,291.307503 32.485,290.8025 C32.2749989,290.297497 32.17,289.735003 32.17,289.115 L32.17,282.38 L33.61,282.38 Z M42.925,282.38 L44.365,282.38 L44.365,291.65 L49.24,291.65 L49.24,293 L42.925,293 L42.925,282.38 Z M54.205,291.47 L58.465,287.24 C58.6150008,287.099999 58.7599993,286.947501 58.9,286.7825 C59.0400007,286.617499 59.1649994,286.445001 59.275,286.265 C59.3850006,286.084999 59.4724997,285.895001 59.5375,285.695 C59.6025003,285.494999 59.635,285.285001 59.635,285.065 C59.635,284.804999 59.5875005,284.570001 59.4925,284.36 C59.3974995,284.149999 59.2675008,283.972501 59.1025,283.8275 C58.9374992,283.682499 58.7425011,283.57 58.5175,283.49 C58.2924989,283.41 58.0550013,283.37 57.805,283.37 C57.2849974,283.37 56.8550017,283.514999 56.515,283.805 C56.1749983,284.095001 55.9600004,284.494997 55.87,285.005 L54.31,284.87 C54.3800004,284.399998 54.517499,283.992502 54.7225,283.6475 C54.927501,283.302498 55.1824985,283.015001 55.4875,282.785 C55.7925015,282.554999 56.142498,282.385001 56.5375,282.275 C56.932502,282.164999 57.3599977,282.11 57.82,282.11 C58.2800023,282.11 58.712498,282.172499 59.1175,282.2975 C59.522502,282.422501 59.8774985,282.607499 60.1825,282.8525 C60.4875015,283.097501 60.7274991,283.402498 60.9025,283.7675 C61.0775009,284.132502 61.165,284.559998 61.165,285.05 C61.165,285.400002 61.1125005,285.727498 61.0075,286.0325 C60.9024995,286.337502 60.7650008,286.624999 60.595,286.895 C60.4249992,287.165001 60.2300011,287.419999 60.01,287.66 C59.7899989,287.900001 59.5600012,288.134999 59.32,288.365 L55.825,291.74 L61.165,291.74 L61.165,293 L54.205,293 L54.205,291.47 Z M66.025,293.18 C65.5449976,293.18 65.0925021,293.107501 64.6675,292.9625 C64.2424979,292.817499 63.8750016,292.605001 63.565,292.325 C63.2549985,292.044999 63.0100009,291.705002 62.83,291.305 C62.6499991,290.904998 62.56,290.455002 62.56,289.955 C62.56,289.624998 62.6124995,289.320001 62.7175,289.04 C62.8225005,288.759999 62.9649991,288.507501 63.145,288.2825 C63.3250009,288.057499 63.5374988,287.867501 63.7825,287.7125 C64.0275012,287.557499 64.2949986,287.44 64.585,287.36 L64.585,287.315 C64.384999,287.265 64.185001,287.175001 63.985,287.045 C63.784999,286.914999 63.6075008,286.750001 63.4525,286.55 C63.2974992,286.349999 63.1700005,286.107501 63.07,285.8225 C62.9699995,285.537499 62.92,285.210002 62.92,284.84 C62.92,284.439998 63.0024992,284.077502 63.1675,283.7525 C63.3325008,283.427498 63.5574986,283.150001 63.8425,282.92 C64.1275014,282.689999 64.4574981,282.512501 64.8325,282.3875 C65.2075019,282.262499 65.6049979,282.2 66.025,282.2 C66.4450021,282.2 66.8424981,282.262499 67.2175,282.3875 C67.5925019,282.512501 67.9224986,282.689999 68.2075,282.92 C68.4925014,283.150001 68.7174992,283.427498 68.8825,283.7525 C69.0475008,284.077502 69.13,284.439998 69.13,284.84 C69.13,285.210002 69.0800005,285.537499 68.98,285.8225 C68.8799995,286.107501 68.7525008,286.349999 68.5975,286.55 C68.4424992,286.750001 68.265001,286.914999 68.065,287.045 C67.864999,287.175001 67.665001,287.265 67.465,287.315 L67.465,287.36 C67.7550015,287.44 68.0224988,287.557499 68.2675,287.7125 C68.5125012,287.867501 68.7249991,288.057499 68.905,288.2825 C69.0850009,288.507501 69.2274995,288.759999 69.3325,289.04 C69.4375005,289.320001 69.49,289.624998 69.49,289.955 C69.49,290.455002 69.4000009,290.904998 69.22,291.305 C69.0399991,291.705002 68.7950015,292.044999 68.485,292.325 C68.1749985,292.605001 67.8075021,292.817499 67.3825,292.9625 C66.9574979,293.107501 66.5050024,293.18 66.025,293.18 Z M64.36,285.05 C64.36,285.260001 64.3974996,285.464999 64.4725,285.665 C64.5475004,285.865001 64.6549993,286.042499 64.795,286.1975 C64.9350007,286.352501 65.107499,286.48 65.3125,286.58 C65.517501,286.680001 65.7549987,286.73 66.025,286.73 C66.3050014,286.73 66.547499,286.6825 66.7525,286.5875 C66.957501,286.4925 67.1299993,286.367501 67.27,286.2125 C67.4100007,286.057499 67.5149997,285.880001 67.585,285.68 C67.6550003,285.479999 67.69,285.270001 67.69,285.05 C67.69,284.559998 67.5375015,284.157502 67.2325,283.8425 C66.9274985,283.527498 66.5250025,283.37 66.025,283.37 C65.5649977,283.37 65.1725016,283.524998 64.8475,283.835 C64.5224984,284.145002 64.36,284.549998 64.36,285.05 Z M66.025,291.92 C66.625003,291.92 67.1124981,291.737502 67.4875,291.3725 C67.8625019,291.007498 68.05,290.535003 68.05,289.955 C68.05,289.634998 67.9975005,289.352501 67.8925,289.1075 C67.7874995,288.862499 67.6425009,288.657501 67.4575,288.4925 C67.2724991,288.327499 67.0575012,288.2025 66.8125,288.1175 C66.5674988,288.0325 66.3050014,287.99 66.025,287.99 C65.434997,288 64.9500019,288.187498 64.57,288.5525 C64.1899981,288.917502 64,289.384997 64,289.955 C64,290.265002 64.0549994,290.542499 64.165,290.7875 C64.2750006,291.032501 64.4224991,291.237499 64.6075,291.4025 C64.7925009,291.567501 65.0074988,291.695 65.2525,291.785 C65.4975012,291.875 65.7549987,291.92 66.025,291.92 Z M74.245,284.03 L72.295,285.83 L71.455,284.825 L74.41,282.38 L75.685,282.38 L75.685,293 L74.245,293 L74.245,284.03 Z M82.705,293.18 C82.2249976,293.18 81.7725021,293.107501 81.3475,292.9625 C80.9224979,292.817499 80.5550016,292.605001 80.245,292.325 C79.9349984,292.044999 79.6900009,291.705002 79.51,291.305 C79.3299991,290.904998 79.24,290.455002 79.24,289.955 C79.24,289.624998 79.2924995,289.320001 79.3975,289.04 C79.5025005,288.759999 79.6449991,288.507501 79.825,288.2825 C80.0050009,288.057499 80.2174988,287.867501 80.4625,287.7125 C80.7075012,287.557499 80.9749985,287.44 81.265,287.36 L81.265,287.315 C81.064999,287.265 80.865001,287.175001 80.665,287.045 C80.464999,286.914999 80.2875008,286.750001 80.1325,286.55 C79.9774992,286.349999 79.8500005,286.107501 79.75,285.8225 C79.6499995,285.537499 79.6,285.210002 79.6,284.84 C79.6,284.439998 79.6824992,284.077502 79.8475,283.7525 C80.0125008,283.427498 80.2374986,283.150001 80.5225,282.92 C80.8075014,282.689999 81.1374981,282.512501 81.5125,282.3875 C81.8875019,282.262499 82.2849979,282.2 82.705,282.2 C83.1250021,282.2 83.5224981,282.262499 83.8975,282.3875 C84.2725019,282.512501 84.6024986,282.689999 84.8875,282.92 C85.1725014,283.150001 85.3974992,283.427498 85.5625,283.7525 C85.7275008,284.077502 85.81,284.439998 85.81,284.84 C85.81,285.210002 85.7600005,285.537499 85.66,285.8225 C85.5599995,286.107501 85.4325008,286.349999 85.2775,286.55 C85.1224992,286.750001 84.945001,286.914999 84.745,287.045 C84.544999,287.175001 84.345001,287.265 84.145,287.315 L84.145,287.36 C84.4350015,287.44 84.7024988,287.557499 84.9475,287.7125 C85.1925012,287.867501 85.4049991,288.057499 85.585,288.2825 C85.7650009,288.507501 85.9074995,288.759999 86.0125,289.04 C86.1175005,289.320001 86.17,289.624998 86.17,289.955 C86.17,290.455002 86.0800009,290.904998 85.9,291.305 C85.7199991,291.705002 85.4750016,292.044999 85.165,292.325 C84.8549984,292.605001 84.4875021,292.817499 84.0625,292.9625 C83.6374979,293.107501 83.1850024,293.18 82.705,293.18 Z M81.04,285.05 C81.04,285.260001 81.0774996,285.464999 81.1525,285.665 C81.2275004,285.865001 81.3349993,286.042499 81.475,286.1975 C81.6150007,286.352501 81.787499,286.48 81.9925,286.58 C82.197501,286.680001 82.4349986,286.73 82.705,286.73 C82.9850014,286.73 83.227499,286.6825 83.4325,286.5875 C83.637501,286.4925 83.8099993,286.367501 83.95,286.2125 C84.0900007,286.057499 84.1949996,285.880001 84.265,285.68 C84.3350004,285.479999 84.37,285.270001 84.37,285.05 C84.37,284.559998 84.2175015,284.157502 83.9125,283.8425 C83.6074985,283.527498 83.2050025,283.37 82.705,283.37 C82.2449977,283.37 81.8525016,283.524998 81.5275,283.835 C81.2024984,284.145002 81.04,284.549998 81.04,285.05 Z M82.705,291.92 C83.305003,291.92 83.7924981,291.737502 84.1675,291.3725 C84.5425019,291.007498 84.73,290.535003 84.73,289.955 C84.73,289.634998 84.6775005,289.352501 84.5725,289.1075 C84.4674995,288.862499 84.3225009,288.657501 84.1375,288.4925 C83.9524991,288.327499 83.7375012,288.2025 83.4925,288.1175 C83.2474988,288.0325 82.9850014,287.99 82.705,287.99 C82.114997,288 81.6300019,288.187498 81.25,288.5525 C80.8699981,288.917502 80.68,289.384997 80.68,289.955 C80.68,290.265002 80.7349995,290.542499 80.845,290.7875 C80.9550005,291.032501 81.1024991,291.237499 81.2875,291.4025 C81.4725009,291.567501 81.6874988,291.695 81.9325,291.785 C82.1775012,291.875 82.4349986,291.92 82.705,291.92 Z" id="PRODUCTCERTIFIEDFORLOWCHEMICALEMISSIONSUL.COM/GGUL2818" fill="#FFFFFF" fill-rule="nonzero"></path>
            <path d="M110.314022,337.5 C105.201496,337.5 102.194286,334.545921 102.194286,329.642731 C102.194286,324.617887 105.201496,321 110.995154,321 C112.594332,321 114.118129,321.259176 115.52616,321.68761 L115.041561,323.668456 C113.708912,323.165972 112.25242,322.880349 110.774391,322.880349 C106.361843,322.880349 104.568824,325.926992 104.568824,329.30686 C104.568824,333.308222 106.824904,335.593204 110.629012,335.593204 C111.719361,335.593204 112.6401,335.429235 113.512379,335.16477 L113.512379,329.092643 L115.72,329.092643 L115.72,336.569082 C114.096591,337.164129 112.109733,337.5 110.314022,337.5" id="Fill-5" fill="#FEFEFE"></path>
            <path d="M127.756295,323.097506 C124.923656,323.097506 122.601645,325.534527 122.601645,329.859015 C122.601645,334.056905 124.270591,336.879476 127.72942,336.879476 C130.562058,336.879476 132.884069,334.471228 132.884069,330.143862 C132.884069,325.945972 131.190936,323.097506 127.756295,323.097506 M127.514419,339 C122.601645,339 120.228571,335.504156 120.228571,330.224425 C120.228571,324.366368 123.714275,321 127.971296,321 C132.884069,321 135.257143,324.495844 135.257143,329.78133 C135.257143,335.633632 131.747251,339 127.514419,339" id="Fill-7" fill="#FEFEFE"></path>
            <polygon id="Fill-9" fill="#FEFEFE" points="138.262857 337.5 138.262857 321 140.331972 321 140.331972 335.569207 145.777143 335.569207 145.777143 337.5"></polygon>
            <path d="M153.556962,322.816317 C152.688943,322.816317 151.672591,322.86468 151.057287,322.886175 L151.057287,335.466048 C151.672591,335.562775 152.590055,335.611138 153.25755,335.611138 C157.166383,335.611138 159.910532,333.62555 159.910532,329.20298 C159.910532,325.041036 157.880576,322.816317 153.556962,322.816317 M153.01033,337.5 C151.329229,337.5 150.01896,337.400586 148.782857,337.400586 L148.782857,321.096727 C150.068404,321.075232 151.947281,321 153.776713,321 C159.119426,321 162.308571,323.445042 162.308571,329.055203 C162.308571,334.643869 158.476652,337.5 153.01033,337.5" id="Fill-11" fill="#FEFEFE"></path>
            <path d="M130.756819,135 C154.22658,135 173.86948,118.55354 178.84,96.5441439 C164.610238,88.5605054 148.225117,84 130.756819,84 C113.285772,84 96.8924037,88.5605054 82.6571429,96.5441439 C87.633161,118.55354 107.270563,135 130.756819,135" id="Fill-13" fill="#FEFEFE"></path>
            <polygon id="Fill-15" fill="#FEFEFE" points="148.782857 76.5 135.257143 76.5 135.257143 48 141.498179 48 141.498179 70.2936493 148.782857 70.2936493"></polygon>
            <path d="M130.748571,58.1660179 C130.748571,63.3020794 126.868809,66 121.770817,66 C116.720654,66 112.714286,63.3832605 112.714286,58.1660179 L112.714286,37.5 L119.430017,37.5 L119.430017,58.4203855 C119.430017,59.9005887 120.456931,60.8774687 121.703294,60.8774687 C123.298526,60.8774687 124.007519,59.643515 124.007519,58.4203855 L124.007519,37.5 L130.748571,37.5 L130.748571,58.1660179 Z" id="Fill-17" fill="#FEFEFE"></path>
            <path d="M130.748571,28.9050569 C103.504605,28.9050569 81.4307246,51.2207032 81.4307246,78.7444447 C81.4307246,106.276519 103.504605,128.589388 130.748571,128.589388 C157.976047,128.589388 180.066418,106.276519 180.066418,78.7444447 C180.066418,51.2207032 157.976047,28.9050569 130.748571,28.9050569 M190.862857,78.7444447 C190.862857,112.298466 163.951469,139.5 130.748571,139.5 C97.5511711,139.5 70.6342857,112.298466 70.6342857,78.7444447 C70.6342857,45.1987563 97.5511711,18 130.748571,18 C163.951469,18 190.862857,45.1987563 190.862857,78.7444447" id="Fill-19" fill="#FEFEFE"></path>
            <path d="M120.226974,124.396028 L120.226974,124.396028 C120.226974,116.859908 122.727475,101.701333 139.885989,96.031141 C124.085362,105.416479 123.574775,120.536064 123.602374,123.496484 L130.096501,122.335152 C137.907116,120.945454 144.274286,113.426044 144.274286,105.578007 L144.274286,91.5 L130.248297,93.9953303 C122.421122,95.3878137 115.72,103.302689 115.72,111.710504 L115.72,122.669348 L115.72,124.836053 L115.72,140.534911 C116.890212,140.949871 118.982243,140.757708 120.226974,141 L120.226974,124.396028 Z" id="Fill-21" fill="#93C847"></path>
            <path d="M36.5899337,186 C28.4223285,186 24.0457143,181.376978 24.0457143,174.002158 C24.0457143,165.966906 28.8664969,160.5 37.8375658,160.5 C40.4148739,160.5 42.879018,160.940288 44.8650447,161.564029 L43.9088096,165.930216 C42.0331178,165.159712 39.8603707,164.756115 37.5461688,164.756115 C31.6616454,164.756115 29.2342796,168.682014 29.2342796,173.378417 C29.2342796,178.62518 31.9926499,181.707194 37.1416078,181.707194 C38.3185125,181.707194 39.348304,181.560432 40.30171,181.266906 L40.30171,172.644604 L45.0857143,172.644604 L45.0857143,184.458993 C42.6215701,185.44964 39.5689737,186 36.5899337,186" id="Fill-23" fill="#FEFEFE"></path>
            <path d="M55.7781381,164.246686 C55.1292802,164.246686 54.4804222,164.282032 54.0364668,164.352725 L54.0364668,171.245214 C54.3438206,171.28056 54.9585281,171.315906 55.6389094,171.315906 C58.3052689,171.315906 59.9444889,169.902062 59.9444889,167.675258 C59.9444889,165.377761 58.5784722,164.246686 55.7781381,164.246686 L55.7781381,164.246686 Z M60.6274972,184.5 L54.4121214,174.638439 L54.0364668,174.638439 L54.0364668,184.5 L49.5942857,184.5 L49.5942857,160.641384 C51.4068847,160.535346 53.555734,160.5 56.2220935,160.5 C61.3078786,160.5 64.5889455,162.337997 64.5889455,167.215758 C64.5889455,170.750368 62.1301155,173.295287 58.9173494,173.860825 C59.5688343,174.744477 60.2150653,175.62813 60.7640989,176.476436 L66.1257143,184.5 L60.6274972,184.5 Z" id="Fill-25" fill="#FEFEFE"></path>
            <polygon id="Fill-27" fill="#FEFEFE" points="70.6342857 184.5 70.6342857 160.5 84.16 160.5 84.16 164.375556 75.4225757 164.375556 75.4225757 170.277778 83.7177423 170.277778 83.7177423 174.046667 75.4225757 174.046667 75.4225757 180.517778 84.16 180.517778 84.16 184.5"></polygon>
            <polygon id="Fill-29" fill="#FEFEFE" points="87.1657143 184.5 87.1657143 160.5 100.691429 160.5 100.691429 164.375556 91.9568392 164.375556 91.9568392 170.277778 100.249171 170.277778 100.249171 174.046667 91.9568392 174.046667 91.9568392 180.517778 100.691429 180.517778 100.691429 184.5"></polygon>
            <path d="M118.727576,184.5 L111.419297,171.273333 C110.545423,169.531111 109.846323,168.073333 109.321998,166.58 C109.464507,168.677778 109.569372,174.508889 109.569372,177.993333 L109.569372,184.5 L105.2,184.5 L105.2,160.5 L111.209567,160.5 L118.340382,173.406667 C119.179302,174.9 119.983266,176.642222 120.612456,178.206667 C120.472636,175.788889 120.367771,169.886667 120.367771,166.544444 L120.367771,160.5 L124.737143,160.5 L124.737143,184.5 L118.727576,184.5 Z" id="Fill-31" fill="#FEFEFE"></path>
            <path d="M141.791621,186 C133.622917,186 129.245714,181.376978 129.245714,174.002158 C129.245714,165.966906 134.067145,160.5 143.039421,160.5 C145.617075,160.5 148.081551,160.940288 150.065015,161.564029 L149.108651,165.930216 C147.235537,165.159712 145.062498,164.756115 142.747984,164.756115 C136.86267,164.756115 134.432148,168.682014 134.432148,173.378417 C134.432148,178.62518 137.190889,181.707194 142.340539,181.707194 C143.517602,181.707194 144.550362,181.560432 145.503896,181.266906 L145.503896,172.644604 L150.285714,172.644604 L150.285714,184.458993 C147.821239,185.44964 144.771061,186 141.791621,186" id="Fill-33" fill="#FEFEFE"></path>
            <path d="M164.218443,184.5 C156.527464,184.5 154.794286,180.441691 154.794286,175.928571 L154.794286,160.5 L159.488311,160.5 L159.488311,175.648688 C159.488311,178.622449 160.499331,180.721574 164.543414,180.721574 C168.15698,180.721574 169.670734,179.252187 169.670734,175.228863 L169.670734,160.5 L174.331429,160.5 L174.331429,174.94898 C174.331429,181.421283 170.645647,184.5 164.218443,184.5" id="Fill-35" fill="#FEFEFE"></path>
            <path d="M187.826941,168.784444 C187.426723,167.611111 187.104325,166.544444 186.851409,165.477778 L186.815278,165.477778 C186.526231,166.544444 186.239964,167.611111 185.875876,168.784444 L183.382849,175.931111 L190.319968,175.931111 L187.826941,168.784444 Z M193.177083,184.5 L191.512286,179.593333 L182.262794,179.593333 L180.564645,184.5 L175.834286,184.5 L184.249989,160.5 L189.778006,160.5 L198.377143,184.5 L193.177083,184.5 Z" id="Fill-37" fill="#FEFEFE"></path>
            <path d="M206.062208,164.246686 C205.415874,164.246686 204.764286,164.282032 204.322887,164.352725 L204.322887,171.245214 C204.63029,171.28056 205.242468,171.315906 205.925584,171.315906 C208.592368,171.315906 210.229221,169.902062 210.229221,167.675258 C210.229221,165.377761 208.862987,164.246686 206.062208,164.246686 L206.062208,164.246686 Z M210.914965,184.5 L204.695974,174.638439 L204.322887,174.638439 L204.322887,184.5 L199.88,184.5 L199.88,160.641384 C201.69026,160.535346 203.842078,160.5 206.508861,160.5 C211.595455,160.5 214.874416,162.337997 214.874416,167.215758 C214.874416,170.750368 212.415195,173.295287 209.204545,173.860825 C209.853506,174.744477 210.502468,175.62813 211.048961,176.476436 L216.411429,184.5 L210.914965,184.5 Z" id="Fill-39" fill="#FEFEFE"></path>
            <path d="M228.210539,164.330161 C227.166734,164.330161 226.187327,164.3653 225.457469,164.435578 L225.457469,180.423865 C226.082679,180.529283 227.027202,180.599561 227.931476,180.599561 C232.364295,180.599561 235.573528,178.069546 235.573528,172.447291 C235.573528,167.352123 233.585199,164.330161 228.210539,164.330161 M227.48068,184.5 C225.03619,184.5 222.908329,184.394583 220.92,184.324305 L220.92,160.675695 C222.77148,160.605417 225.631883,160.5 228.524486,160.5 C235.817709,160.5 240.457143,163.767936 240.457143,172.0959 C240.457143,180.213031 235.154932,184.5 227.48068,184.5" id="Fill-41" fill="#FEFEFE"></path>
        </g>
    </g>
</svg>