<?xml version="1.0" encoding="UTF-8"?>
<svg width="29px" height="22px" viewBox="0 0 29 22" version="1.1" xmlns="http://www.w3.org/2000/svg" xmlns:xlink="http://www.w3.org/1999/xlink">
    <!-- Generator: Sketch 51.2 (57519) - http://www.bohemiancoding.com/sketch -->
    <title>Envelope Outlined - FontAwesome</title>
    <desc>Created with Sketch.</desc>
    <defs></defs>
    <g id="Page-1" stroke="none" stroke-width="1" fill="none" fill-rule="evenodd">
        <g id="Ways-to-Reach-Us" transform="translate(-615.000000, -629.000000)" fill="#FFFFFF">
            <g id="contact-us" transform="translate(-1.000000, 555.000000)">
                <g id="live-chat" transform="translate(523.000000, 48.000000)">
                    <path d="M119.083637,45.5 L119.083637,33.5 C118.750302,33.8750019 118.39093,34.2187484 118.005512,34.53125 C115.213831,36.6770941 112.995103,38.4374931 111.349262,39.8125 C110.818009,40.2604189 110.385722,40.6093738 110.052387,40.859375 C109.719052,41.1093762 109.268535,41.3619779 108.700824,41.6171875 C108.133113,41.8723971 107.599264,42 107.099262,42 L107.068012,42 C106.568009,42 106.03416,41.8723971 105.466449,41.6171875 C104.898738,41.3619779 104.448222,41.1093762 104.114887,40.859375 C103.781552,40.6093738 103.349264,40.2604189 102.818012,39.8125 C101.17217,38.4374931 98.9534423,36.6770941 96.1617617,34.53125 C95.7763431,34.2187484 95.4169717,33.8750019 95.0836367,33.5 L95.0836367,45.5 C95.0836367,45.6354173 95.1331154,45.7526037 95.2320742,45.8515625 C95.331033,45.9505213 95.4482194,46 95.5836367,46 L118.583637,46 C118.719054,46 118.83624,45.9505213 118.935199,45.8515625 C119.034158,45.7526037 119.083637,45.6354173 119.083637,45.5 Z M119.083637,29.078125 L119.083637,28.6953125 C119.083637,28.6484373 119.081033,28.5807296 119.075824,28.4921875 C119.070616,28.4036454 119.054991,28.3385419 119.028949,28.296875 C119.002907,28.2552081 118.974262,28.2083336 118.943012,28.15625 C118.911762,28.1041664 118.864887,28.0651043 118.802387,28.0390625 C118.739886,28.0130207 118.66697,28 118.583637,28 L95.5836367,28 C95.4482194,28 95.331033,28.0494787 95.2320742,28.1484375 C95.1331154,28.2473963 95.0836367,28.3645827 95.0836367,28.5 C95.0836367,30.2500087 95.849254,31.7291606 97.3805117,32.9375 C99.3909384,34.5208413 101.479459,36.1718664 103.646137,37.890625 C103.708637,37.9427086 103.890927,38.0963529 104.193012,38.3515625 C104.495097,38.6067721 104.734677,38.8020827 104.911762,38.9375 C105.088846,39.0729173 105.320614,39.2369782 105.607074,39.4296875 C105.893534,39.6223968 106.156552,39.7656245 106.396137,39.859375 C106.635721,39.9531255 106.859677,40 107.068012,40 L107.099262,40 C107.307596,40 107.531552,39.9531255 107.771137,39.859375 C108.010721,39.7656245 108.273739,39.6223968 108.560199,39.4296875 C108.846659,39.2369782 109.078427,39.0729173 109.255512,38.9375 C109.432596,38.8020827 109.672177,38.6067721 109.974262,38.3515625 C110.276347,38.0963529 110.458636,37.9427086 110.521137,37.890625 C112.687814,36.1718664 114.776335,34.5208413 116.786762,32.9375 C117.349265,32.4895811 117.872697,31.8880246 118.357074,31.1328125 C118.841452,30.3776004 119.083637,29.6927114 119.083637,29.078125 Z M121.083637,28.5 L121.083637,45.5 C121.083637,46.1875034 120.838847,46.7760392 120.349262,47.265625 C119.859676,47.7552108 119.27114,48 118.583637,48 L95.5836367,48 C94.8961333,48 94.3075975,47.7552108 93.8180117,47.265625 C93.3284259,46.7760392 93.0836367,46.1875034 93.0836367,45.5 L93.0836367,28.5 C93.0836367,27.8124966 93.3284259,27.2239608 93.8180117,26.734375 C94.3075975,26.2447892 94.8961333,26 95.5836367,26 L118.583637,26 C119.27114,26 119.859676,26.2447892 120.349262,26.734375 C120.838847,27.2239608 121.083637,27.8124966 121.083637,28.5 Z" id="Envelope-Outlined---FontAwesome"></path>
                </g>
            </g>
        </g>
    </g>
</svg>