<?xml version="1.0" encoding="UTF-8"?>
<svg width="75px" height="75px" viewBox="0 0 75 75" version="1.1" xmlns="http://www.w3.org/2000/svg" xmlns:xlink="http://www.w3.org/1999/xlink">
    <!-- Generator: Sketch 51.2 (57519) - http://www.bohemiancoding.com/sketch -->
    <title>Artboard</title>
    <desc>Created with Sketch.</desc>
    <defs></defs>
    <g id="Artboard" stroke="none" stroke-width="1" fill="none" fill-rule="evenodd">
        <g id="np_refund_1353553_FFFFFF" transform="translate(2.000000, 0.000000)" fill="#4A4A4A" fill-rule="nonzero">
            <path d="M52.9137897,14.3244078 C58.9602213,18.7007913 63.3253543,25.1376419 65.2388351,32.5046751 C65.3640548,33.0189956 65.6830726,33.4563028 66.1213108,33.7273629 C66.562564,33.9953009 67.0902634,34.0692157 67.5852344,33.9337093 C68.0771753,33.7951201 68.4975534,33.459425 68.7509541,33.0005307 C69.0043777,32.5416443 69.0669876,31.9965517 68.9268615,31.4883336 C66.8517232,23.4929266 62.2006748,16.4649157 55.7401009,11.5680146 C49.279298,6.66811762 41.3962453,4.19191459 33.3912244,4.54615346 L34.4377237,3.30194166 L34.4347424,3.30194166 C34.7835729,2.9077297 34.9624647,2.38721222 34.9326443,1.85754903 C34.90283,1.32474791 34.6643143,0.828892328 34.276718,0.480882007 C33.8861451,0.132863801 33.3763058,-0.0365211956 32.8634746,0.00659770899 C32.3506663,0.0527938322 31.8765856,0.31149701 31.5515915,0.724189631 L27.4669548,5.61793695 C27.1330307,6.01523165 26.9690529,6.52951269 27.0048267,7.05310502 C27.0406043,7.57359096 27.276141,8.06015891 27.6577687,8.40201952 L32.374457,12.6520975 C32.7560846,13.0124309 33.2599857,13.1972217 33.7727406,13.166418 C34.2885332,13.1325402 34.7685597,12.8892397 35.1054606,12.4857874 C35.4423691,12.0854178 35.6063468,11.5587585 35.5646044,11.0290165 C35.5198822,10.4992902 35.2694383,10.0095844 34.86992,9.67079861 L33.5729967,8.48201301 C40.4661074,8.18635404 47.261216,10.2375177 52.9138843,14.324392 L52.9137897,14.3244078 Z" id="Shape"></path>
            <path d="M27.4310139,73.7970406 C35.1489292,75.8841479 43.3408713,75.2412368 50.6461937,71.9790695 C57.9550807,68.7169021 63.9363892,63.0300589 67.5958764,55.8622773 L68.2950698,57.3932003 C68.4580137,57.9134768 68.8283462,58.338086 69.3201813,58.5622897 C69.811986,58.7865469 70.3719141,58.7895399 70.8667222,58.5712594 C71.3614849,58.3529804 71.7377181,57.9313795 71.9066234,57.4141112 C72.0725327,56.8968276 72.0162411,56.3346574 71.7466374,55.8622911 L69.1601953,50.1213297 C68.7246822,49.1585322 67.6018226,48.7339307 66.6478531,49.1734587 L60.9684048,51.7838356 C60.0410567,52.2353354 59.6381718,53.3506587 60.0647959,54.2985297 C60.4943856,55.2464007 61.5905556,55.6739875 62.5386092,55.2643125 L64.0021766,54.6064902 C60.6691991,60.8587799 55.3422751,65.7921793 48.8803413,68.6060159 C42.4217447,71.416714 35.2109243,71.9459541 28.4145171,70.1010387 C27.9256779,69.9605077 27.4013132,70.0232985 26.9598236,70.2744617 C26.5183871,70.5286179 26.1954648,70.9502188 26.0650885,71.4465364 C25.9317694,71.9428922 26.0058351,72.4691164 26.2635882,72.9117063 C26.5213374,73.3542349 26.9450036,73.6741748 27.4368235,73.7967329 L27.4310139,73.7970406 Z" id="Shape"></path>
            <path d="M1.72935808,60.2662338 C1.67709775,60.7758226 1.83387716,61.2824033 2.16588914,61.6780664 C2.49789325,62.0737448 2.97742501,62.322546 3.50005978,62.3705074 L9.94654438,63 L10.1432899,63 C11.1515713,62.9970026 11.9939568,62.2506037 12.0953988,61.2733866 L12.740968,54.9874393 L12.7378933,54.9874393 C12.8485587,53.9292939 12.0554304,52.9850282 10.9671837,52.877134 C9.88201422,52.7722173 8.91363283,53.5455943 8.80298316,54.6037475 L8.66157035,56.0246352 C4.88956548,49.9784954 3.30639373,42.8739799 4.17026391,35.8478143 C5.03106485,28.8214953 8.29271188,22.2804697 13.4235986,17.277895 C14.1921338,16.5284988 14.1921338,15.3114742 13.4235986,14.5620472 C12.6550634,13.8126509 11.4069572,13.8126509 10.6383905,14.5620472 C4.77907321,20.2754494 1.09938133,27.7694889 0.210878613,35.8032293 C-0.680614631,43.8369698 1.2714943,51.9244271 5.74430667,58.7257493 L3.87829357,58.5488903 C3.35875952,58.4979314 2.8392412,58.6508066 2.43654249,58.97155 C2.03382805,59.2952938 1.77867273,59.7628761 1.72948636,60.26651 L1.72935808,60.2662338 Z" id="Shape"></path>
            <path d="M35.9939818,64 C42.0913228,64 47.9450414,61.5806835 52.2598553,57.2658624 C56.5717745,52.9539361 58.997029,47.1065308 59,41.0060563 C59,34.9057342 56.5777165,29.0549769 52.2658735,24.7401558 C47.9539544,20.4252586 42.1035115,18.002971 36.0030472,18 C29.9027352,18 24.0519876,20.4222875 19.7371737,24.7371848 C15.4252545,29.0491111 13,34.8995636 13,41.0000381 C13.0089275,47.0973892 15.4311966,52.9419759 19.7401447,57.2537498 C24.0520638,61.5656761 29.8964123,63.9909346 35.9938295,63.9998476 L35.9939818,64 Z M35.9939818,21.8124156 L35.9939818,21.8094401 C41.0825522,21.8094401 45.9658947,23.8269846 49.5630966,27.4276967 C53.1638028,31.0254378 55.187286,35.9057412 55.190257,40.9945486 C55.190257,46.0860984 53.1697448,50.966478 49.5720096,54.566733 C45.9742745,58.1674451 41.090932,60.1879607 36.0028948,60.1909317 C30.9143244,60.1909317 26.0309819,58.1674451 22.43378,54.569704 C18.8330739,50.9719629 16.8095907,46.0886124 16.8095907,41.0005668 C16.8185182,35.914959 18.8420631,31.0408261 22.436751,27.4459037 C26.0344862,23.8511336 30.9086871,21.827647 35.9944389,21.818734 L35.9939818,21.8124156 Z" id="Shape"></path>
            <path d="M35.5423976,42.3972307 C39.1953741,43.2573782 39.1953741,44.7945717 39.1953741,45.2947628 C39.1953741,47.2468042 37.5427538,48.1374035 36.000161,48.1374035 C34.7101903,48.1374035 33.550944,47.341361 33.0546024,46.1213352 C32.6473939,45.1270434 31.5327825,44.6603494 30.5638398,45.0782424 C29.594897,45.4991494 29.1401011,46.6429206 29.5473401,47.6372124 C30.3736123,49.6532807 32.0559842,51.1722031 34.1127999,51.7578155 L34.1127999,53.0479587 C34.1127999,54.1246266 34.9628885,55 36.0150748,55 C37.0642936,55 37.9173497,54.1246266 37.9173497,53.0479587 L37.9173497,51.7669511 C40.8807136,51.0989859 42.9940649,48.4088153 43,45.2946847 C43,43.3670049 42.1469438,39.9387518 36.4252814,38.5967624 C32.8109591,37.7549641 32.8109591,36.2146474 32.8109591,35.7083659 C32.8109591,33.7563246 34.4635794,32.8657252 36.0061722,32.8657252 L36.0061722,32.8626746 C37.2931753,32.8626746 38.4553892,33.6526267 38.9517307,34.8696073 C39.3767674,35.8304021 40.4705831,36.2696114 41.418753,35.8638991 C42.3669229,35.4551885 42.8276539,34.3480219 42.4590691,33.3628657 C41.6357645,31.340707 39.9533926,29.8186613 37.8936093,29.2330489 L37.8936093,27.9520413 C37.8936093,26.8753734 37.0435207,26 35.9913344,26 C34.9421157,26 34.0890595,26.8753734 34.0890595,27.9520413 L34.0890595,29.2025971 C31.1107818,29.8675092 28.9915715,32.5759588 29.0004741,35.7053153 C28.9766957,37.6329951 29.8297138,41.0612482 35.5425497,42.3971472 L35.5423976,42.3972307 Z" id="Shape"></path>
        </g>
    </g>
</svg>