<?xml version="1.0" encoding="UTF-8"?>
<svg width="75px" height="75px" viewBox="0 0 75 75" version="1.1" xmlns="http://www.w3.org/2000/svg" xmlns:xlink="http://www.w3.org/1999/xlink">
    <!-- Generator: Sketch 51.2 (57519) - http://www.bohemiancoding.com/sketch -->
    <title>Artboard</title>
    <desc>Created with Sketch.</desc>
    <defs></defs>
    <g id="Artboard" stroke="none" stroke-width="1" fill="none" fill-rule="evenodd">
        <g id="np_sleep_1673015_FFFFFF" transform="translate(3.000000, 0.000000)" fill="#4A4A4A" fill-rule="nonzero">
            <path d="M45.3003784,73.2066121 C30.1340445,76.3678041 13.9649778,69.9701977 5.45412827,56.0187482 C-5.29894327,38.3707634 0.349398084,15.3238734 17.9875148,4.61238361 C21.5478353,2.45374636 25.3377939,0.91230302 29.2852807,0.066358917 C30.3672418,-0.165458746 31.4522977,0.219902088 32.147402,1.06891366 C32.8425373,1.91794065 32.9211156,3.14924559 32.4556805,4.07349502 C31.9902453,5.07604976 31.5278431,6.07860451 31.062377,7.07807637 C26.8069522,17.6361925 27.8133989,29.1970175 33.6917653,38.8310384 C39.576244,48.5436729 49.4801649,54.7094462 60.852981,55.8655287 C61.9349421,55.9438032 63.0199981,56.0190719 64.1805684,56.0190719 C65.2625295,56.0190719 66.2689762,56.6362504 66.7344423,57.6388205 C67.1998774,58.6413753 67.0427207,59.7974578 66.3475855,60.6434019 C63.7181972,63.7262886 60.6233428,66.4238144 57.1419411,68.5039922 C53.348965,70.8161572 49.3235653,72.3576005 45.3002546,73.2066275 L45.3003784,73.2066121 Z M28.1247103,4.30563638 C25.262589,5.15466337 22.5545914,6.31074588 20.0007176,7.85218921 C4.13958887,17.4831272 -0.968468281,38.2170815 8.70295165,54.0168757 C13.3452332,61.6457871 20.7744311,67.0405305 29.5142999,69.1993219 C38.2580372,71.3579591 47.3097126,69.9700435 55.0468485,65.2674082 C57.6007224,63.7259649 59.9218631,61.877466 61.9316616,59.7188288 C61.3906655,59.7188288 60.9252149,59.6405543 60.3842344,59.5652856 C47.9320878,58.4092031 36.9430336,51.5482388 30.4453868,40.8359783 C23.8688213,30.1992486 22.8623747,17.3289674 27.5046562,5.6895288 C27.7373738,5.22889928 27.891513,4.76527937 28.1242306,4.30461903 L28.1247103,4.30563638 Z" id="Shape"></path>
            <path d="M54.5243134,41.9997702 L42.4756711,41.9997702 C41.9321452,41.9997702 41.3886503,41.6945834 41.1548289,41.233816 C40.9210231,40.7730486 40.9999689,40.1627057 41.309689,39.7019077 L51.5696909,26.9081749 L42.4756866,26.9081749 C41.6983549,26.9081749 41,26.2948141 41,25.4540874 C41,24.6881332 41.6224717,24 42.4756866,24 L54.5243289,24 C55.0678548,24 55.6113497,24.3051868 55.8451711,24.7659542 C56.0789769,25.2267216 56.0000311,25.8370645 55.690311,26.2978626 L45.4303091,39.163595 L54.5243134,39.163595 C55.3016451,39.163595 56,39.7769558 56,40.6176825 C55.9240881,41.3866239 55.3016141,42 54.5243134,42 L54.5243134,41.9997702 Z" id="Shape"></path>
            <path d="M67.3308972,27 L61.669044,27 C61.3760384,27 61.1548502,26.8467432 61.0801648,26.6153579 C60.933662,26.3839725 61.0054794,26.0774589 61.1548502,25.8460736 L66.0095481,19.3853164 L61.7437441,19.3853164 C61.3760531,19.3853164 61.0830475,19.0788027 61.0830475,18.6941606 C61.0830475,18.3095185 61.3760531,18.0030048 61.7437441,18.0030048 L67.330956,18 C67.6239616,18 67.8451498,18.1532568 67.9198352,18.3846421 C68.066338,18.6160275 67.9945206,18.9225411 67.8451498,19.1539264 L62.9904519,25.6146836 L67.3308972,25.6176884 C67.6985882,25.6176884 67.9915938,25.9242021 67.9915938,26.3088442 C67.9915938,26.6934864 67.6985882,27 67.3308972,27 Z" id="Shape"></path>
            <path d="M51.2641028,14 L45.6619852,14 C45.372071,14 45.1532164,13.846692 45.079319,13.6152294 C44.9343619,13.3837668 45.0054216,13.0771508 45.1532164,12.8456882 L49.9566946,6.38277322 L45.7358972,6.38277322 C45.3720855,6.38277322 45.0821713,6.07615722 45.0821713,5.69138661 C45.0821713,5.306616 45.3720855,5 45.7358972,5 L51.3380148,5 C51.627929,5 51.8467836,5.153308 51.920681,5.38477061 C52.0656381,5.61623322 51.9945784,5.92284922 51.8467836,6.15431182 L47.0433054,12.6172268 L51.2641028,12.6172268 C51.6279145,12.6172268 51.9178287,12.9238428 51.9178287,13.3086134 C51.9917261,13.6152294 51.6279145,14 51.2641028,14 Z" id="Shape"></path>
        </g>
    </g>
</svg>