<?xml version="1.0" encoding="UTF-8"?>
<svg width="75px" height="75px" viewBox="0 0 75 75" version="1.1" xmlns="http://www.w3.org/2000/svg" xmlns:xlink="http://www.w3.org/1999/xlink">
    <!-- Generator: Sketch 51.2 (57519) - http://www.bohemiancoding.com/sketch -->
    <title>Artboard</title>
    <desc>Created with Sketch.</desc>
    <defs></defs>
    <g id="Artboard" stroke="none" stroke-width="1" fill="none" fill-rule="evenodd">
        <g id="np_chat_945182_FFFFFF" transform="translate(37.500000, 37.500000) scale(-1, 1) translate(-37.500000, -37.500000) translate(1.000000, 1.000000)" fill="#4A4A4A" fill-rule="nonzero">
            <path d="M10.2245999,56.5749765 C10.7833905,57.0854074 10.9573001,57.8952552 10.6550969,58.5910186 C10.201792,59.6774782 9.81693286,60.7810198 9.2609303,61.8247014 C7.91814545,64.3283837 5.89674261,66.2047037 3.86118061,68.0810237 C2.92609203,68.9707482 1.9339289,69.8603997 1.06438119,70.8099842 C0.194833477,71.7595687 0.414358876,72.181582 1.62032536,72.4895691 C2.9517245,72.8289025 4.32304663,73 5.70006163,73 C7.4648479,72.9743361 9.22671476,72.7775762 10.9544245,72.4154303 C16.7932542,71.2691107 22.3416021,69.0277905 27.7410598,66.4727891 C28.1943647,66.244664 28.6933,66.1249001 29.2007672,66.1163445 C29.3775305,66.1163445 29.5514401,66.1306029 29.7253496,66.1591181 C31.9776052,66.5269726 34.2555516,66.7123197 36.5363444,66.715174 C39.5412981,66.7294317 42.5377125,66.3900976 45.4624553,65.7000355 C55.1614813,63.3703122 63.0300341,58.1949014 68.444089,49.4202967 C72.3670527,43.1895973 73.8296065,35.7211093 72.5466697,28.4700154 C71.0413464,19.4194705 66.2773723,12.4472367 59.1239301,7.30000394 C52.6920942,2.57208339 44.920247,0.0142350077 36.937837,0 C35.0390495,0.125472468 33.12603,0.139729375 31.2443941,0.402069617 C23.0846296,1.52561322 15.8233151,4.78207198 9.821728,10.6593052 C4.19389902,16.1913211 0.735779152,22.8926518 0.10810496,31.0022261 C-0.516262994,38.3766901 1.5791981,45.7248741 5.99824336,51.6619673 C7.32110322,53.3729422 8.72950192,55.0125231 10.2234395,56.575235 L10.2245999,56.5749765 Z M4.47415555,31.3468929 C5.00729179,24.5716132 7.75849725,18.8288461 12.8900987,13.7838134 C18.0218461,8.7393647 24.2115895,5.75380909 31.8662952,4.73837854 C32.9610757,4.58439226 34.1357023,4.53306593 35.3758697,4.46748269 L37.06081,4.37908694 C44.0685734,4.42756335 50.8849691,6.68026719 56.5413354,10.8179094 C63.1100188,15.585688 66.9702151,21.5854152 68.2189948,29.1708493 C69.3223146,35.3815467 68.0707396,41.7830661 64.7065738,47.121559 C60.1022187,54.5894631 53.4733953,59.2694956 44.4305079,61.4310268 L44.4333587,61.4281754 C41.8589457,62.0384119 39.2246117,62.3463699 36.578673,62.3406759 C34.5316523,62.3349724 32.4846316,62.1667314 30.4633018,61.8388006 C28.9095162,61.5850087 27.3158076,61.8216908 25.9017161,62.5174747 C21.6622878,64.5249757 16.0340939,66.9716451 10.1529327,68.1179647 L10.0788088,68.1179647 L10.0788088,68.1151133 C11.2705139,66.8433066 12.2997536,65.4260839 13.1436105,63.897682 C13.6054692,63.0051105 14.0160046,62.084069 14.3695457,61.1459455 C14.4864391,60.8550842 14.5947713,60.5699314 14.7202185,60.2847641 L14.7202185,60.2819127 C15.680998,58.0348985 15.2105927,55.4314251 13.5228205,53.6634371 C13.1436396,53.2414093 12.7929668,52.8251047 12.3767313,52.4001714 C11.3817217,51.3564899 10.4437867,50.2557953 9.57423899,49.1066287 C5.73966057,44.0194019 3.92356558,37.6916125 4.4738023,31.3471791 L4.47415555,31.3468929 Z" id="Shape"></path>
        </g>
    </g>
</svg>