<?xml version="1.0" encoding="UTF-8"?>
<svg width="36px" height="29px" viewBox="0 0 36 29" version="1.1" xmlns="http://www.w3.org/2000/svg" xmlns:xlink="http://www.w3.org/1999/xlink">
    <!-- Generator: Sketch 51.2 (57519) - http://www.bohemiancoding.com/sketch -->
    <title>comments-o - FontAwesome</title>
    <desc>Created with Sketch.</desc>
    <defs></defs>
    <g id="Page-1" stroke="none" stroke-width="1" fill="none" fill-rule="evenodd">
        <g id="Ways-to-Reach-Us" transform="translate(-373.000000, -622.000000)" fill="#FFFFFF">
            <g id="contact-us" transform="translate(-1.000000, 555.000000)">
                <g id="live-chat-copy" transform="translate(281.000000, 48.000000)">
                    <path d="M112.897484,22.9017857 C111.116225,22.2053537 109.201066,21.8571429 107.151948,21.8571429 C105.102831,21.8571429 103.187671,22.2053537 101.406413,22.9017857 C99.6251536,23.5982178 98.2088732,24.5424048 97.1575286,25.734375 C96.1061841,26.9263452 95.5805197,28.2053503 95.5805197,29.5714286 C95.5805197,30.6696483 95.9354268,31.7276735 96.6452518,32.7455357 C97.3550768,33.7633979 98.3528347,34.6473177 99.6385554,35.3973214 L101.587216,36.5223214 L100.884091,38.2098214 C101.339451,37.9419629 101.754625,37.6808048 102.129627,37.4263393 L103.013555,36.8035714 L104.078288,37.0044643 C105.122936,37.1919652 106.147479,37.2857143 107.151948,37.2857143 C109.201066,37.2857143 111.116225,36.9375035 112.897484,36.2410714 C114.678743,35.5446394 116.095023,34.6004524 117.146368,33.4084821 C118.197712,32.2165119 118.723377,30.9375068 118.723377,29.5714286 C118.723377,28.2053503 118.197712,26.9263452 117.146368,25.734375 C116.095023,24.5424048 114.678743,23.5982178 112.897484,22.9017857 Z M100.040341,20.671875 C102.223388,19.7477632 104.5939,19.2857143 107.151948,19.2857143 C109.709997,19.2857143 112.077161,19.7444151 114.253511,20.6618304 C116.429861,21.5792457 118.147478,22.8281171 119.406413,24.4084821 C120.665347,25.9888472 121.294805,27.7098121 121.294805,29.5714286 C121.294805,31.433045 120.665347,33.15401 119.406413,34.734375 C118.147478,36.31474 116.429861,37.5636115 114.253511,38.4810268 C112.077161,39.3984421 109.709997,39.8571429 107.151948,39.8571429 C106.000157,39.8571429 104.821597,39.7500011 103.616234,39.5357143 C101.955511,40.7142916 100.093923,41.5714259 98.0314125,42.1071429 C97.5492673,42.2276792 96.9733802,42.334821 96.303734,42.4285714 L96.2434661,42.4285714 C96.0961439,42.4285714 95.9588685,42.3750005 95.8316358,42.2678571 C95.704403,42.1607137 95.6273948,42.0200902 95.600609,41.8459821 C95.587216,41.8058034 95.5805197,41.762277 95.5805197,41.7154018 C95.5805197,41.6685266 95.5838679,41.6250002 95.5905643,41.5848214 C95.5972608,41.5446427 95.6106535,41.5044645 95.6307429,41.4642857 L95.6809661,41.3638393 C95.694359,41.3370534 95.7177963,41.3002234 95.7512786,41.2533482 C95.7847609,41.206473 95.8115464,41.1729912 95.8316358,41.1529018 C95.8517251,41.1328124 95.8818588,41.0993306 95.9220375,41.0524554 C95.9622163,41.0055801 95.9890018,40.9754465 96.0023947,40.9620536 C96.0693593,40.881696 96.2233756,40.714287 96.4644483,40.4598214 C96.7055209,40.2053559 96.8796263,40.0078132 96.9867697,39.8671875 C97.0939131,39.7265618 97.2445812,39.5323673 97.4387786,39.2845982 C97.632976,39.0368291 97.800385,38.7790192 97.9410108,38.5111607 C98.0816365,38.2433022 98.2189119,37.9486623 98.3528411,37.6272321 C96.6921185,36.6629416 95.386328,35.4776856 94.4354304,34.0714286 C93.4845328,32.6651715 93.0090911,31.1651865 93.0090911,29.5714286 C93.0090911,27.7098121 93.6385491,25.9888472 94.897484,24.4084821 C96.1564188,22.8281171 97.8706874,21.5825938 100.040341,20.671875 Z M123.665341,42.7700893 C123.79927,43.0915195 123.936546,43.3861594 124.077171,43.6540179 C124.217797,43.9218763 124.385206,44.1796863 124.579404,44.4274554 C124.773601,44.6752245 124.924269,44.8694189 125.031413,45.0100446 C125.138556,45.1506703 125.312661,45.348213 125.553734,45.6026786 C125.794807,45.8571441 125.948823,46.0245532 126.015788,46.1049107 C126.02918,46.1183036 126.055966,46.1484373 126.096145,46.1953125 C126.136323,46.2421877 126.166457,46.2756695 126.186546,46.2957589 C126.206636,46.3158483 126.233421,46.3493301 126.266904,46.3962054 C126.300386,46.4430806 126.323823,46.4799106 126.337216,46.5066964 L126.387439,46.6071429 C126.407529,46.6473216 126.420921,46.6874998 126.427618,46.7276786 C126.434314,46.7678573 126.437663,46.8113837 126.437663,46.8582589 C126.437663,46.9051342 126.430966,46.9486605 126.417573,46.9888393 C126.377394,47.1763402 126.290342,47.3236602 126.156413,47.4308036 C126.022483,47.537947 125.875163,47.5848215 125.714448,47.5714286 C125.044802,47.4776781 124.468915,47.3705363 123.98677,47.25 C121.924259,46.714283 120.062671,45.8571487 118.401948,44.6785714 C117.196585,44.8928582 116.018025,45 114.866234,45 C111.236752,45 108.076069,44.1160803 105.384091,42.3482143 C106.160881,42.401786 106.750161,42.4285714 107.151948,42.4285714 C109.308209,42.4285714 111.377385,42.1272352 113.359538,41.5245536 C115.34169,40.921872 117.10953,40.0580413 118.663109,38.9330357 C120.337224,37.7008867 121.622926,36.281258 122.520252,34.6741071 C123.417578,33.0669562 123.866234,31.3660804 123.866234,29.5714286 C123.866234,28.5401734 123.712218,27.5223265 123.40418,26.5178571 C125.131868,27.4687548 126.497925,28.6607071 127.502395,30.09375 C128.506864,31.5267929 129.009091,33.066956 129.009091,34.7142857 C129.009091,36.3214366 128.533649,37.8247698 127.582752,39.2243304 C126.631854,40.6238909 125.326064,41.8057987 123.665341,42.7700893 Z" id="comments-o---FontAwesome"></path>
                </g>
            </g>
        </g>
    </g>
</svg>