<?xml version="1.0" encoding="UTF-8"?>
<svg width="24px" height="24px" viewBox="0 0 24 24" version="1.1" xmlns="http://www.w3.org/2000/svg" xmlns:xlink="http://www.w3.org/1999/xlink">
    <!-- Generator: Sketch 51.2 (57519) - http://www.bohemiancoding.com/sketch -->
    <title>Question Circle - FontAwesome</title>
    <desc>Created with Sketch.</desc>
    <defs></defs>
    <g id="Page-1" stroke="none" stroke-width="1" fill="none" fill-rule="evenodd">
        <g id="Ways-to-Reach-Us" transform="translate(-860.000000, -626.000000)" fill="#FFFFFF">
            <g id="contact-us" transform="translate(-1.000000, 555.000000)">
                <g id="live-chat" transform="translate(763.000000, 48.000000)">
                    <path d="M112.030982,42.5 L112.030982,39.5 C112.030982,39.3541659 111.984108,39.2343755 111.890357,39.140625 C111.796607,39.0468745 111.676816,39 111.530982,39 L108.530982,39 C108.385148,39 108.265358,39.0468745 108.171607,39.140625 C108.077857,39.2343755 108.030982,39.3541659 108.030982,39.5 L108.030982,42.5 C108.030982,42.6458341 108.077857,42.7656245 108.171607,42.859375 C108.265358,42.9531255 108.385148,43 108.530982,43 L111.530982,43 C111.676816,43 111.796607,42.9531255 111.890357,42.859375 C111.984108,42.7656245 112.030982,42.6458341 112.030982,42.5 Z M116.030982,32 C116.030982,31.0833287 115.741923,30.2343789 115.163795,29.453125 C114.585667,28.6718711 113.86432,28.0677105 112.999732,27.640625 C112.135145,27.2135395 111.249737,27 110.343482,27 C107.81222,27 105.879947,28.1093639 104.546607,30.328125 C104.390356,30.5781263 104.432023,30.7968741 104.671607,30.984375 L106.734107,32.546875 C106.807024,32.6093753 106.905982,32.640625 107.030982,32.640625 C107.19765,32.640625 107.327857,32.5781256 107.421607,32.453125 C107.973693,31.7447881 108.421606,31.2656263 108.765357,31.015625 C109.119526,30.7656238 109.567438,30.640625 110.109107,30.640625 C110.60911,30.640625 111.054418,30.7760403 111.445045,31.046875 C111.835672,31.3177097 112.030982,31.6249983 112.030982,31.96875 C112.030982,32.3645853 111.926817,32.6822905 111.718482,32.921875 C111.510148,33.1614595 111.155985,33.3958322 110.655982,33.625 C109.999729,33.9166681 109.398172,34.3671845 108.851295,34.9765625 C108.304417,35.5859405 108.030982,36.2395798 108.030982,36.9375 L108.030982,37.5 C108.030982,37.6458341 108.077857,37.7656245 108.171607,37.859375 C108.265358,37.9531255 108.385148,38 108.530982,38 L111.530982,38 C111.676816,38 111.796607,37.9531255 111.890357,37.859375 C111.984108,37.7656245 112.030982,37.6458341 112.030982,37.5 C112.030982,37.3020823 112.14296,37.0442724 112.36692,36.7265625 C112.590879,36.4088526 112.874731,36.1510427 113.218482,35.953125 C113.551817,35.7656241 113.807023,35.617188 113.984107,35.5078125 C114.161191,35.398437 114.400772,35.2161471 114.702857,34.9609375 C115.004942,34.7057279 115.236711,34.4557304 115.39817,34.2109375 C115.559629,33.9661446 115.705461,33.6510436 115.83567,33.265625 C115.965879,32.8802064 116.030982,32.4583356 116.030982,32 Z M120.421607,28.984375 C121.494529,30.8177175 122.030982,32.8229058 122.030982,35 C122.030982,37.1770942 121.494529,39.1848866 120.421607,41.0234375 C119.348685,42.8619884 117.892971,44.317703 116.05442,45.390625 C114.215869,46.463547 112.208076,47 110.030982,47 C107.853888,47 105.846096,46.463547 104.007545,45.390625 C102.168994,44.317703 100.713279,42.8619884 99.6403573,41.0234375 C98.5674352,39.1848866 98.0309823,37.1770942 98.0309823,35 C98.0309823,32.8229058 98.5674352,30.8151134 99.6403573,28.9765625 C100.713279,27.1380116 102.168994,25.682297 104.007545,24.609375 C105.846096,23.536453 107.853888,23 110.030982,23 C112.208076,23 114.215869,23.536453 116.05442,24.609375 C117.892971,25.682297 119.348685,27.1406158 120.421607,28.984375 Z" id="Question-Circle---FontAwesome"></path>
                </g>
            </g>
        </g>
    </g>
</svg>