<?xml version="1.0" encoding="utf-8"?>
<!-- Generator: Adobe Illustrator 16.0.0, SVG Export Plug-In . SVG Version: 6.00 Build 0)  -->
<!DOCTYPE svg PUBLIC "-//W3C//DTD SVG 1.1//EN" "http://www.w3.org/Graphics/SVG/1.1/DTD/svg11.dtd">
<svg version="1.1" id="Layer_1" xmlns="http://www.w3.org/2000/svg" xmlns:xlink="http://www.w3.org/1999/xlink" x="0px" y="0px"
	 width="84px" height="84px" viewBox="0 0 84 84" enable-background="new 0 0 84 84" xml:space="preserve">
<g>
	<g>
		<g>
			<path fill="#464D5A" d="M19.823,65.135c-0.269,0-0.485-0.217-0.485-0.484V45.503c0-0.269,0.217-0.485,0.485-0.485
				c0.267,0,0.484,0.217,0.484,0.485V64.65C20.308,64.918,20.09,65.135,19.823,65.135z"/>
		</g>
		<path fill="#464D5A" d="M16.004,50.021c-0.113,0-0.227-0.039-0.32-0.12c-0.2-0.176-0.221-0.481-0.045-0.684l4.187-4.783
			l4.181,4.783c0.178,0.202,0.156,0.508-0.046,0.684c-0.2,0.177-0.505,0.158-0.684-0.045l-3.451-3.949l-3.458,3.949
			C16.273,49.966,16.139,50.021,16.004,50.021z"/>
	</g>
	<g>
		<g>
			<path fill="#464D5A" d="M64.053,65.135c-0.27,0-0.485-0.217-0.485-0.484V45.503c0-0.269,0.216-0.485,0.485-0.485
				c0.267,0,0.484,0.217,0.484,0.485V64.65C64.537,64.918,64.319,65.135,64.053,65.135z"/>
		</g>
		<path fill="#464D5A" d="M60.233,50.021c-0.114,0-0.228-0.039-0.32-0.12c-0.2-0.176-0.222-0.481-0.045-0.684l4.186-4.783
			l4.181,4.783c0.178,0.202,0.157,0.508-0.045,0.684c-0.201,0.177-0.506,0.158-0.684-0.045l-3.452-3.949l-3.457,3.949
			C60.502,49.966,60.367,50.021,60.233,50.021z"/>
	</g>
	<path fill="#464D5A" d="M61.585,55.419H22.244v1.821h39.341V55.419z M66.473,57.24h6.042c1.4,0,2.541-1.141,2.541-2.541
		c0,0-0.016-13.074,0-13.152c0.071-0.364-0.212-0.606-0.579-0.876c-1.644-1.207-6.307-1.936-9.818-1.936
		c-5.975,0-9.341,1.694-12.597,3.335c-3.024,1.524-5.881,2.962-10.823,2.962c-5.521,0-8.358-1.484-11.362-3.057
		c-3.047-1.594-6.194-3.24-12.053-3.24c-3.023,0-5.798,0.569-8.249,1.694c0,0-0.641,0.264-0.641,0.508s0,13.762,0,13.762
		c0,1.4,1.141,2.541,2.541,2.541h5.881v-1.821h-5.881c-0.396,0-0.721-0.324-0.721-0.72V42.152l0.008-0.001
		c2.191-1.007,4.323-1.456,7.062-1.456c5.378,0,8.178,1.466,11.144,3.018c3.083,1.613,6.271,3.28,12.271,3.28
		c5.408,0,8.609-1.613,11.705-3.173c3.19-1.606,6.206-3.125,11.715-3.125c4.436,0,6.722,0.528,8.57,1.578h0.007v12.426
		c0,0.396-0.324,0.72-0.721,0.72h-6.042V57.24z"/>
	<path fill="#464D5A" d="M44.459,30.917l17.831-0.02h2.136c0.997,0,2.26,0.783,2.704,1.677l6.063,9.198l1.821-0.55l-6.246-9.464
		c-0.75-1.51-2.656-2.69-4.343-2.69H62.29H44.459V30.917z"/>
	<path fill="#464D5A" d="M39.57,29.068H20.987h-0.894c-1.664,0-3.614,1.13-4.441,2.576l-6.666,9.23l1.588,0.908l6.666-9.231
		c0.504-0.88,1.838-1.654,2.854-1.654l1.018,0.045l18.459-0.021V29.068z"/>
	<g>
		<g>
			<path fill="#464D5A" d="M41.998,20.865c0.27,0,0.484,0.217,0.484,0.484v19.148c0,0.268-0.215,0.484-0.484,0.484
				c-0.267,0-0.484-0.217-0.484-0.484V21.35C41.514,21.082,41.731,20.865,41.998,20.865z"/>
		</g>
		<path fill="#464D5A" d="M45.817,35.979c0.113,0,0.228,0.039,0.319,0.12c0.201,0.176,0.222,0.481,0.046,0.684l-4.187,4.783
			l-4.181-4.783c-0.178-0.202-0.157-0.508,0.046-0.684c0.2-0.177,0.506-0.158,0.684,0.045l3.451,3.949l3.457-3.949
			C45.549,36.034,45.683,35.979,45.817,35.979z"/>
	</g>
</g>
</svg>
