<?xml version="1.0" encoding="utf-8"?>
<!-- Generator: Adobe Illustrator 16.0.0, SVG Export Plug-In . SVG Version: 6.00 Build 0)  -->
<!DOCTYPE svg PUBLIC "-//W3C//DTD SVG 1.1//EN" "http://www.w3.org/Graphics/SVG/1.1/DTD/svg11.dtd">
<svg version="1.1" id="Layer_1" xmlns="http://www.w3.org/2000/svg" xmlns:xlink="http://www.w3.org/1999/xlink" x="0px" y="0px"
	 width="84px" height="84px" viewBox="0 0 84 84" enable-background="new 0 0 84 84" xml:space="preserve">
<g>
	<path fill="#464D5A" d="M42.5,17.4c13.6,0,24.6,11,24.6,24.6c0,13.6-11,24.6-24.6,24.6V17.4z"/>
	<path fill="#464D5A" d="M42,74.7C23.9,74.7,9.3,60.1,9.3,42C9.3,23.9,23.9,9.3,42,9.3S74.7,23.9,74.7,42
		C74.7,60.1,60.1,74.7,42,74.7z M42,12c-16.5,0-30,13.5-30,30c0,16.5,13.5,30,30,30s30-13.5,30-30C72,25.5,58.5,12,42,12z"/>
</g>
</svg>
