<svg xmlns="http://www.w3.org/2000/svg" viewBox="0 0 84 84"><defs><style>.cls-1{fill:#556774;}</style></defs><title>BrentwoodHome_Guranatee_FINAL_ALL</title><g id="Layer_2" data-name="Layer 2"><path class="cls-1" d="M42,69.86A27.86,27.86,0,1,1,69.85,42,27.89,27.89,0,0,1,42,69.86Zm0-54A26.16,26.16,0,1,0,68.16,42,26.2,26.2,0,0,0,42,15.84Z"/><path class="cls-1" d="M75.56,40.83a.49.49,0,0,0,0-.76l-2.65-1.9a.48.48,0,0,1-.1-.69l2.1-2.61a.48.48,0,0,0-.17-.74l-3.06-1.4a.49.49,0,0,1-.22-.67L73,29.14a.48.48,0,0,0-.3-.69l-3.16-.82a.48.48,0,0,1-.33-.62l1.08-3.18a.48.48,0,0,0-.42-.63l-3.29-.26a.48.48,0,0,1-.44-.55l.51-3.3a.48.48,0,0,0-.52-.55l-3.3.32a.49.49,0,0,1-.53-.46L62.18,15a.47.47,0,0,0-.61-.44l-3.25,1a.49.49,0,0,1-.61-.36L57,11.93a.48.48,0,0,0-.68-.33l-3,1.46a.48.48,0,0,1-.66-.25L51.42,9.69a.48.48,0,0,0-.73-.2l-2.66,2a.47.47,0,0,1-.69-.13L45.56,8.54a.48.48,0,0,0-.75-.08L42.43,11a.48.48,0,0,1-.7,0L39.44,8.55a.48.48,0,0,0-.75.07L36.92,11.4a.48.48,0,0,1-.7.13l-2.66-2a.48.48,0,0,0-.73.2l-1.27,3.11a.48.48,0,0,1-.66.25l-3-1.46a.48.48,0,0,0-.68.33l-.7,3.24a.49.49,0,0,1-.61.36l-3.25-1a.47.47,0,0,0-.61.44l-.13,3.39a.49.49,0,0,1-.53.46l-3.3-.32a.48.48,0,0,0-.52.55l.51,3.3a.48.48,0,0,1-.44.55l-3.37.26a.47.47,0,0,0-.42.63L15,27a.49.49,0,0,1-.34.62l-3.23.82a.48.48,0,0,0-.31.7l1.59,2.91a.49.49,0,0,1-.22.67l-3.06,1.4a.48.48,0,0,0-.17.74l2.09,2.6a.48.48,0,0,1-.1.7l-2.72,1.9a.48.48,0,0,0,0,.76L11,43a.47.47,0,0,1,0,.69L8.8,46.11a.48.48,0,0,0,.11.74l2.87,1.66a.48.48,0,0,1,.16.68L10.09,52a.48.48,0,0,0,.24.72l3.11,1.14a.49.49,0,0,1,.28.65l-1.34,3.05a.49.49,0,0,0,.36.67l3.31.57a.47.47,0,0,1,.38.59l-.82,3.23a.48.48,0,0,0,.48.59l3.35-.06a.48.48,0,0,1,.49.51L19.74,67a.49.49,0,0,0,.58.5l3.3-.64a.48.48,0,0,1,.57.42l.38,3.29a.48.48,0,0,0,.65.39l3.12-1.2A.48.48,0,0,1,29,70l1,3.19a.48.48,0,0,0,.7.26l2.87-1.72a.48.48,0,0,1,.67.2l1.53,3a.48.48,0,0,0,.75.14L39,72.84a.49.49,0,0,1,.7.07l2,2.59a.48.48,0,0,0,.76,0l2-2.59a.49.49,0,0,1,.7-.07l2.47,2.22a.48.48,0,0,0,.75-.14l1.52-3a.49.49,0,0,1,.68-.2l2.86,1.72a.49.49,0,0,0,.71-.26l1-3.19a.47.47,0,0,1,.63-.3l3.11,1.2a.48.48,0,0,0,.65-.39L60,67.23a.49.49,0,0,1,.57-.42l3.31.64a.48.48,0,0,0,.57-.5l-.19-3.29a.48.48,0,0,1,.49-.51l3.37.07a.49.49,0,0,0,.48-.6l-.76-3.23a.48.48,0,0,1,.38-.59l3.32-.57a.49.49,0,0,0,.36-.67l-1.34-3.05a.49.49,0,0,1,.28-.65l3.11-1.14a.48.48,0,0,0,.23-.72l-1.92-2.81a.48.48,0,0,1,.16-.68l2.84-1.65a.47.47,0,0,0,.11-.75L73,43.69a.48.48,0,0,1,0-.7ZM42,71.22A29.22,29.22,0,1,1,71.22,42,29.26,29.26,0,0,1,42,71.22Z"/><path class="cls-1" d="M30.62,43.86l5.9-5.7.53-.54a4,4,0,0,0,.5-.61,3.8,3.8,0,0,0,.38-.68,2,2,0,0,0,0-1.57,2,2,0,0,0-.48-.62,2.2,2.2,0,0,0-.7-.4,2.61,2.61,0,0,0-.85-.14,2.28,2.28,0,0,0-1.58.56,2.31,2.31,0,0,0-.75,1.5l-2.7-.22a4.86,4.86,0,0,1,.5-1.85,4.31,4.31,0,0,1,1.08-1.34A4.77,4.77,0,0,1,34,31.44a6.1,6.1,0,0,1,1.9-.28,6.55,6.55,0,0,1,1.92.27,4.63,4.63,0,0,1,1.55.79,3.57,3.57,0,0,1,1,1.34,4.37,4.37,0,0,1,.39,1.91,4.59,4.59,0,0,1-.65,2.47,9.89,9.89,0,0,1-1.69,2l-4.69,4.35h7v2.31H30.62Z"/><path class="cls-1" d="M52.86,33.73h-6.1l-.07,3a3.28,3.28,0,0,1,.76-.15c.31,0,.6,0,.87,0a5.92,5.92,0,0,1,2,.35,4.53,4.53,0,0,1,1.59,1,4.78,4.78,0,0,1,1,1.58,5.93,5.93,0,0,1,0,4.28,4.78,4.78,0,0,1-1.16,1.65,5.18,5.18,0,0,1-1.75,1,6.36,6.36,0,0,1-2.16.36A5.42,5.42,0,0,1,44.8,46,4.6,4.6,0,0,1,43,43.37l2.7-.73a2.57,2.57,0,0,0,.87,1.29,2.63,2.63,0,0,0,1.61.47,3,3,0,0,0,1.06-.19,2.66,2.66,0,0,0,.84-.55,2.66,2.66,0,0,0,.74-1.85,2.93,2.93,0,0,0-.29-1.35,2.58,2.58,0,0,0-.79-.91A3.17,3.17,0,0,0,48.6,39a5.43,5.43,0,0,0-1.35-.16,7.75,7.75,0,0,0-1.66.19,6.91,6.91,0,0,0-1.51.54l.15-8.18h8.63Z"/><path class="cls-1" d="M57.31,27.06a.37.37,0,0,1-.26-.1A22,22,0,0,0,27,27a.38.38,0,0,1-.53,0,.37.37,0,0,1,0-.53,22.79,22.79,0,0,1,31.12,0,.37.37,0,0,1,0,.53A.36.36,0,0,1,57.31,27.06Z"/><path class="cls-1" d="M30.57,57.9l0-3.89,1.3.84-.14,2.44,2.22-1.1,1.25.8-3.55,1.58-1.31,2-1-.68Z"/><path class="cls-1" d="M36.21,57.27,40,58.1l-.24,1.13-2.54-.56-.23,1,2.4.53-.25,1.12-2.4-.52L36.45,62l2.68.59-.25,1.13L35,62.81Z"/><path class="cls-1" d="M43.48,58l1-.15L47.79,63l-1.39.21-.66-1.11-2.18.33-.28,1.26-1.36.21Zm.73,1.56-.42,1.84,1.37-.21Z"/><path class="cls-1" d="M48,56.87l1.89-1.11c1-.59,2-.74,2.71.4a1.46,1.46,0,0,1-.26,2l2.45,1.33-1.29.76-2.17-1.35-.53.31,1.15,1.95-1.08.64Zm2.26,1.39.64-.37c.39-.23.9-.55.58-1.08s-.77-.3-1.16-.07l-.71.41Z"/><path class="cls-1" d="M27.9,55.72a.36.36,0,0,1-.24-.09A20.5,20.5,0,0,1,23,49.93a.38.38,0,1,1,.66-.36,19.61,19.61,0,0,0,4.48,5.49.37.37,0,0,1,0,.53A.35.35,0,0,1,27.9,55.72Z"/><path class="cls-1" d="M56.06,55.75a.35.35,0,0,1-.28-.13.37.37,0,0,1,0-.53,19.77,19.77,0,0,0,4.36-5.23.36.36,0,0,1,.51-.13.37.37,0,0,1,.14.51,20.67,20.67,0,0,1-4.52,5.42A.38.38,0,0,1,56.06,55.75Z"/></g></svg>