<?xml version="1.0" encoding="utf-8"?>
<!-- Generator: Adobe Illustrator 16.0.0, SVG Export Plug-In . SVG Version: 6.00 Build 0)  -->
<!DOCTYPE svg PUBLIC "-//W3C//DTD SVG 1.1//EN" "http://www.w3.org/Graphics/SVG/1.1/DTD/svg11.dtd">
<svg version="1.1" id="Layer_1" xmlns="http://www.w3.org/2000/svg" xmlns:xlink="http://www.w3.org/1999/xlink" x="0px" y="0px"
	 width="84px" height="84px" viewBox="0 0 84 84" enable-background="new 0 0 84 84" xml:space="preserve">
<g>
	<g>
		<g>
			<g>
				<path fill="#464D5A" d="M21.389,63.949c-0.277,0-0.5-0.224-0.5-0.5V49.521c0-0.276,0.223-0.5,0.5-0.5c0.275,0,0.5,0.224,0.5,0.5
					v13.929C21.889,63.726,21.664,63.949,21.389,63.949z"/>
			</g>
			<path fill="#464D5A" d="M17.449,54.183c-0.117,0-0.234-0.041-0.33-0.124c-0.207-0.182-0.229-0.497-0.047-0.705l4.318-4.935
				l4.312,4.935c0.184,0.208,0.162,0.523-0.047,0.705c-0.207,0.182-0.521,0.163-0.705-0.047l-3.561-4.073l-3.566,4.073
				C17.727,54.125,17.588,54.183,17.449,54.183z"/>
		</g>
		<g>
			<g>
				<path fill="#464D5A" d="M42.139,63.949c-0.277,0-0.5-0.224-0.5-0.5V49.521c0-0.276,0.223-0.5,0.5-0.5c0.275,0,0.5,0.224,0.5,0.5
					v13.929C42.639,63.726,42.414,63.949,42.139,63.949z"/>
			</g>
			<path fill="#464D5A" d="M38.199,54.183c-0.117,0-0.234-0.041-0.33-0.124c-0.207-0.182-0.229-0.497-0.047-0.705l4.318-4.935
				l4.312,4.935c0.184,0.208,0.162,0.523-0.047,0.705c-0.207,0.182-0.521,0.163-0.705-0.047l-3.561-4.073l-3.566,4.073
				C38.477,54.125,38.338,54.183,38.199,54.183z"/>
		</g>
		<g>
			<g>
				<path fill="#464D5A" d="M62.889,63.949c-0.277,0-0.5-0.224-0.5-0.5V49.521c0-0.276,0.223-0.5,0.5-0.5c0.275,0,0.5,0.224,0.5,0.5
					v13.929C63.389,63.726,63.164,63.949,62.889,63.949z"/>
			</g>
			<path fill="#464D5A" d="M58.949,54.183c-0.117,0-0.234-0.041-0.33-0.124c-0.207-0.182-0.229-0.497-0.047-0.705l4.318-4.935
				l4.312,4.935c0.184,0.208,0.162,0.523-0.047,0.705c-0.207,0.182-0.521,0.163-0.705-0.047l-3.561-4.073l-3.566,4.073
				C59.227,54.125,59.088,54.183,58.949,54.183z"/>
		</g>
	</g>
	<path fill="#464D5A" d="M76.932,44.618c0,0.416-0.34,0.756-0.756,0.756H8.104c-0.416,0-0.758-0.34-0.758-0.756v-0.214
		c0-0.416,0.342-0.758,0.758-0.758h68.072c0.416,0,0.756,0.342,0.756,0.758V44.618z"/>
	<path fill="#464D5A" d="M74.457,25.04c-0.146,0.017-14.447,1.649-18.665,0.163c-9.1-3.206-16.078-3.831-21.334-1.913
		c-2.158,0.789-4.478,3.421-5.723,4.835l-0.331,0.374c-0.436,0.487-1.093,1.224-1.313,1.281c-0.649-0.057-1.403-0.086-2.076-0.102
		c0.362-2.834,0.217-4.735-0.432-5.656c-0.533-0.761-1.721-1.097-3.666-1.107c0.027-1.367-0.104-2.801-1.524-2.863
		c-0.889-0.031-1.632,0.706-2.647,1.726c-0.217,0.218-0.78,0.786-0.91,0.895c-0.398,0.087-0.818,0.165-1.283,0.251
		c-2.499,0.463-5.608,1.04-6.768,3.813c-1.135,2.716-0.91,5.894,0.601,8.499c1.241,2.142,3.211,3.575,5.271,3.833
		c1.698,0.213,3.017-0.197,4.172-0.695c-0.244-0.435-0.394-0.927-0.412-1.456c-1.065,0.477-2.147,0.843-3.573,0.663
		c-1.597-0.2-3.151-1.358-4.16-3.097c-1.276-2.202-1.469-4.882-0.513-7.168c0.846-2.025,3.291-2.479,5.686-2.922
		c0.488-0.09,0.952-0.177,1.393-0.275c0.032-0.007,0.065-0.017,0.097-0.029c0.278-0.103,0.58-0.361,1.465-1.254
		c0.513-0.514,1.288-1.292,1.474-1.319c0.181,0.224,0.141,1.301,0.117,1.945c-0.001,0.002-0.003,0.102-0.003,0.104l-0.002,0.124
		c0,0.206,0.084,0.402,0.233,0.543s0.377,0.22,0.554,0.206c2.184-0.107,3.021,0.229,3.174,0.448
		c0.441,0.626,0.464,2.752,0.058,5.417c-0.033,0.215,0.029,0.434,0.17,0.6c0.142,0.166,0.347,0.262,0.564,0.264
		c0.788,0.007,1.915,0.032,2.812,0.11c0.908,0.074,1.639-0.74,2.572-1.786l0.328-0.371c1.158-1.314,3.312-3.76,5.112-4.417
		c4.917-1.794,11.563-1.166,20.321,1.918c4.542,1.599,18.732-0.018,19.335-0.087c0.412-0.048,0.707-0.42,0.659-0.832
		C75.24,25.289,74.876,24.994,74.457,25.04z"/>
	<path fill="#464D5A" d="M38.959,39.002c-0.678,0.068-1.434,0.108-2.287,0.108c-0.173,0-0.347-0.002-0.523-0.007
		c-3.464-0.097-6.255-1.161-8.73-2.104c-1.293-0.492-2.519-0.949-3.73-1.236c0.112,0.328,0.187,0.674,0.187,1.04
		c0,0.185-0.024,0.363-0.055,0.539c0.977,0.27,1.999,0.654,3.078,1.064c2.573,0.981,5.491,2.092,9.208,2.196
		c0.19,0.006,0.38,0.008,0.566,0.008c0.883,0,1.674-0.04,2.389-0.111c-0.093-0.301-0.157-0.615-0.157-0.947
		C38.903,39.364,38.928,39.182,38.959,39.002z"/>
	<path fill="#464D5A" d="M60.345,36.859c-7.694-2.33-12.545-1.24-15.259,0.085c-0.209,0.102-0.426,0.217-0.648,0.336
		c0.354,0.357,0.611,0.802,0.768,1.291c0.185-0.098,0.365-0.194,0.539-0.279c3.494-1.705,8.525-1.705,14.165,0.003
		c0.188,0.057,0.358,0.098,0.543,0.15c0.078-0.517,0.272-0.993,0.565-1.399C60.791,36.982,60.578,36.93,60.345,36.859z"/>
	<path fill="#464D5A" d="M75.615,35.841c-0.313-0.269-0.787-0.233-1.058,0.081c-0.622,0.726-2.72,2.535-7.799,2.196
		c0.067,0.26,0.115,0.528,0.115,0.81c0,0.241-0.03,0.474-0.081,0.7c5.481,0.34,7.967-1.636,8.903-2.729
		C75.966,36.583,75.93,36.11,75.615,35.841z"/>
	<g>
		<g>
			<g>
				<g>
					<circle fill="#464D5A" cx="42.14" cy="39.553" r="2.235"/>
				</g>
			</g>
		</g>
		<g>
			<g>
				<g>
					<circle fill="#464D5A" cx="20.64" cy="36.803" r="2.235"/>
				</g>
			</g>
		</g>
		<g>
			<g>
				<g>
					<circle fill="#464D5A" cx="63.64" cy="38.928" r="2.235"/>
				</g>
			</g>
		</g>
	</g>
</g>
</svg>
