<?xml version="1.0" encoding="UTF-8"?>
<svg width="75px" height="75px" viewBox="0 0 75 75" version="1.1" xmlns="http://www.w3.org/2000/svg" xmlns:xlink="http://www.w3.org/1999/xlink">
    <!-- Generator: Sketch 46.2 (44496) - http://www.bohemiancoding.com/sketch -->
    <title>icon-MotionIsolation</title>
    <desc>Created with Sketch.</desc>
    <defs>
        <linearGradient x1="50%" y1="0%" x2="50%" y2="100%" id="linearGradient-1">
            <stop stop-color="#FFFFFF" stop-opacity="0.5" offset="0%"></stop>
            <stop stop-color="#000000" stop-opacity="0.5" offset="100%"></stop>
        </linearGradient>
    </defs>
    <g id="Page-1" stroke="none" stroke-width="1" fill="none" fill-rule="evenodd">
        <g id="icon-MotionIsolation" fill-rule="nonzero">
            <g transform="translate(1.000000, 4.000000)">
                <path d="M23,12.837658 C23,13.4020619 23.2127791,13.971523 23.6343412,14.4034235 L34.4531063,25.358724 C34.8506935,25.7602801 35.3951282,26 35.9995005,26 C36.6038729,26 37.1493065,25.7542112 37.5458946,25.358724 L48.3656588,14.4034235 C48.7922158,13.971523 49,13.4020619 49,12.837658 C49,12.2742657 48.786222,11.7523439 48.3656588,11.3204435 C47.9391017,10.8875316 47.3756868,10.6296051 46.8192646,10.6296051 C46.2618434,10.6296051 45.6994275,10.8875316 45.2728705,11.3204435 L38.1802359,18.4533748 L38.1802359,2.20805291 C38.1802359,0.990235363 37.2022516,0 35.9995005,0 C34.7967495,0 33.8197642,0.990235363 33.8197642,2.20805291 L33.8197642,18.4533748 L26.7271295,11.3204435 C26.3005725,10.8875316 25.7371575,10.6296051 25.1807354,10.6296051 C24.6233143,10.6296051 24.0608983,10.8875316 23.6343412,11.3204435 C23.2077842,11.7523439 23,12.2742657 23,12.837658 Z" id="Stroke-1" fill="#414A59"></path>
                <g id="Stroke-3" transform="translate(0.000000, 33.000000)">
                    <g id="path-2-link" fill="#D8D8D8">
                        <path d="M0,16.3518542 C0,16.1743322 0.0335291328,15.9819341 0.0887535869,15.8044122 C0.176521023,15.3868885 0.4082665,14.9961419 0.728765564,14.7095282 C20.2249701,-4.90317606 51.8833746,-4.90317606 71.3795792,14.7095282 C72.2444336,15.5029224 72.1961122,17.0708676 71.2908256,17.8166582 C70.4950017,18.488068 69.1814487,18.4057533 68.4733923,17.6391363 C50.5362924,-0.399672259 21.5789554,-0.399672259 3.64185552,17.6391363 C2.59357704,18.9531953 0.0138061135,18.0427755 0.00690305676,16.3587964 L0,16.3518542 Z M8.09334098,24.4028216 C8.11405014,24.3135649 8.14757928,24.224308 8.18209457,24.1419933 C8.29057117,23.7115769 8.55683193,23.3138881 8.91086013,23.0471093 C23.9003547,7.9726198 48.2977297,7.87741254 63.2862382,22.9578526 C64.0958682,23.7591807 64.0002115,25.2785305 63.1018281,25.9777091 C62.3464363,26.641185 61.0802185,26.6005236 60.3721621,25.8884522 C46.9072569,12.3471969 25.1922126,12.3471969 11.7213904,25.8884522 C10.7273502,27.4425131 7.73931277,26.2375457 8.08643791,24.4236483 L8.09334098,24.4028216 Z M16.7320234,32.7265184 C16.7862618,32.2405645 17.0111042,31.7823794 17.3651324,31.4471702 C27.65759,21.0963514 44.4507548,21.0963514 54.7353231,31.4471702 C55.5597454,32.2137874 55.5597454,33.699418 54.7353231,34.4660352 C53.9523193,35.2118257 52.5569157,35.1711643 51.8291364,34.3767783 C43.1026865,25.5939046 29.0036861,25.5939046 20.2782223,34.3767783 C19.1214672,35.6710026 16.5002779,34.4660352 16.7320234,32.7265184 L16.7320234,32.7265184 Z" id="path-2"></path>
                    </g>
                    <g id="path-2-link" fill="url(#linearGradient-1)">
                        <path d="M0,16.3518542 C0,16.1743322 0.0335291328,15.9819341 0.0887535869,15.8044122 C0.176521023,15.3868885 0.4082665,14.9961419 0.728765564,14.7095282 C20.2249701,-4.90317606 51.8833746,-4.90317606 71.3795792,14.7095282 C72.2444336,15.5029224 72.1961122,17.0708676 71.2908256,17.8166582 C70.4950017,18.488068 69.1814487,18.4057533 68.4733923,17.6391363 C50.5362924,-0.399672259 21.5789554,-0.399672259 3.64185552,17.6391363 C2.59357704,18.9531953 0.0138061135,18.0427755 0.00690305676,16.3587964 L0,16.3518542 Z M8.09334098,24.4028216 C8.11405014,24.3135649 8.14757928,24.224308 8.18209457,24.1419933 C8.29057117,23.7115769 8.55683193,23.3138881 8.91086013,23.0471093 C23.9003547,7.9726198 48.2977297,7.87741254 63.2862382,22.9578526 C64.0958682,23.7591807 64.0002115,25.2785305 63.1018281,25.9777091 C62.3464363,26.641185 61.0802185,26.6005236 60.3721621,25.8884522 C46.9072569,12.3471969 25.1922126,12.3471969 11.7213904,25.8884522 C10.7273502,27.4425131 7.73931277,26.2375457 8.08643791,24.4236483 L8.09334098,24.4028216 Z M16.7320234,32.7265184 C16.7862618,32.2405645 17.0111042,31.7823794 17.3651324,31.4471702 C27.65759,21.0963514 44.4507548,21.0963514 54.7353231,31.4471702 C55.5597454,32.2137874 55.5597454,33.699418 54.7353231,34.4660352 C53.9523193,35.2118257 52.5569157,35.1711643 51.8291364,34.3767783 C43.1026865,25.5939046 29.0036861,25.5939046 20.2782223,34.3767783 C19.1214672,35.6710026 16.5002779,34.4660352 16.7320234,32.7265184 L16.7320234,32.7265184 Z" id="path-2"></path>
                    </g>
                    <g id="path-2-link" fill="#414A59">
                        <path d="M0,16.3518542 C0,16.1743322 0.0335291328,15.9819341 0.0887535869,15.8044122 C0.176521023,15.3868885 0.4082665,14.9961419 0.728765564,14.7095282 C20.2249701,-4.90317606 51.8833746,-4.90317606 71.3795792,14.7095282 C72.2444336,15.5029224 72.1961122,17.0708676 71.2908256,17.8166582 C70.4950017,18.488068 69.1814487,18.4057533 68.4733923,17.6391363 C50.5362924,-0.399672259 21.5789554,-0.399672259 3.64185552,17.6391363 C2.59357704,18.9531953 0.0138061135,18.0427755 0.00690305676,16.3587964 L0,16.3518542 Z M8.09334098,24.4028216 C8.11405014,24.3135649 8.14757928,24.224308 8.18209457,24.1419933 C8.29057117,23.7115769 8.55683193,23.3138881 8.91086013,23.0471093 C23.9003547,7.9726198 48.2977297,7.87741254 63.2862382,22.9578526 C64.0958682,23.7591807 64.0002115,25.2785305 63.1018281,25.9777091 C62.3464363,26.641185 61.0802185,26.6005236 60.3721621,25.8884522 C46.9072569,12.3471969 25.1922126,12.3471969 11.7213904,25.8884522 C10.7273502,27.4425131 7.73931277,26.2375457 8.08643791,24.4236483 L8.09334098,24.4028216 Z M16.7320234,32.7265184 C16.7862618,32.2405645 17.0111042,31.7823794 17.3651324,31.4471702 C27.65759,21.0963514 44.4507548,21.0963514 54.7353231,31.4471702 C55.5597454,32.2137874 55.5597454,33.699418 54.7353231,34.4660352 C53.9523193,35.2118257 52.5569157,35.1711643 51.8291364,34.3767783 C43.1026865,25.5939046 29.0036861,25.5939046 20.2782223,34.3767783 C19.1214672,35.6710026 16.5002779,34.4660352 16.7320234,32.7265184 L16.7320234,32.7265184 Z" id="path-2"></path>
                    </g>
                </g>
            </g>
        </g>
    </g>
</svg>