<?xml version="1.0" encoding="UTF-8"?>
<svg width="90px" height="90px" viewBox="0 0 90 90" version="1.1" xmlns="http://www.w3.org/2000/svg" xmlns:xlink="http://www.w3.org/1999/xlink">
    <!-- Generator: Sketch 53.2 (72643) - https://sketchapp.com -->
    <title>iconv2-freeshipping90</title>
    <desc>Created with Sketch.</desc>
    <g id="iconv2-freeshipping90" stroke="none" stroke-width="1" fill="none" fill-rule="evenodd">
        <g id="iconv2-freeshipping" transform="translate(0.000000, 25.000000)" fill="#556774" fill-rule="nonzero">
            <path d="M88.2118421,34.9578947 L81.5210526,34.9578947 C81.2436985,34.9611015 80.9767677,34.8523386 80.7806356,34.6562065 C80.5845035,34.4600744 80.4757406,34.1931436 80.4789474,33.9157895 C80.3405969,30.8933777 77.8499187,28.5141019 74.8243421,28.5141019 C71.7987655,28.5141019 69.3080873,30.8933777 69.1697368,33.9157895 C69.1729013,34.1910783 69.0657546,34.4561823 68.8721987,34.6519629 C68.6786429,34.8477436 68.4147807,34.9579129 68.1394737,34.9578947 L41.4473684,34.9578947 C41.1720614,34.9579129 40.9081992,34.8477436 40.7146434,34.6519629 C40.5210875,34.4561823 40.4139408,34.1910783 40.4171053,33.9157895 C40.2787548,30.8933777 37.7880766,28.5141019 34.7625,28.5141019 C31.7369234,28.5141019 29.2462452,30.8933777 29.1078947,33.9157895 C29.1110592,34.1910783 29.0039125,34.4561823 28.8103566,34.6519629 C28.6168008,34.8477436 28.3529386,34.9579129 28.0776316,34.9578947 L21.9671053,34.9578947 C21.4375319,34.9012001 21.0359309,34.45431 21.0359309,33.9217105 C21.0359309,33.3891111 21.4375319,32.9422209 21.9671053,32.8855263 L27.1184211,32.8855263 C27.6409299,29.0606872 30.9080571,26.2095353 34.7684211,26.2095353 C38.628785,26.2095353 41.8959122,29.0606872 42.4184211,32.8855263 L67.1802632,32.8855263 C67.702772,29.0606872 70.9698992,26.2095353 74.8302632,26.2095353 C78.6906271,26.2095353 81.9577543,29.0606872 82.4802632,32.8855263 L88.2118421,32.8855263 C88.7414154,32.9422209 89.1430165,33.3891111 89.1430165,33.9217105 C89.1430165,34.45431 88.7414154,34.9012001 88.2118421,34.9578947 L88.2118421,34.9578947 Z" id="Path"></path>
            <path d="M23.7434211,30.8723684 C23.7009576,31.2690111 23.8886468,31.6550916 24.2268048,31.866699 C24.5649629,32.0783064 24.9942476,32.0783064 25.3324057,31.866699 C25.6705637,31.6550916 25.8582529,31.2690111 25.8157895,30.8723684 L25.8157895,3.06710526 L59.9921053,3.06710526 L59.9921053,30.8723684 C59.9496418,31.2690111 60.137331,31.6550916 60.475489,31.866699 C60.8136471,32.0783064 61.2429319,32.0783064 61.5810899,31.866699 C61.9192479,31.6550916 62.1069371,31.2690111 62.0644737,30.8723684 L62.0644737,2.025 C62.0644919,1.74969301 61.9543225,1.48583081 61.7585419,1.29227494 C61.5627612,1.09871908 61.2976572,0.991572393 61.0223684,0.994736842 L24.7855263,0.994736842 C24.5102375,0.991572393 24.2451335,1.09871908 24.0493529,1.29227494 C23.8535722,1.48583081 23.7434029,1.74969301 23.7434211,2.025 L23.7434211,30.8723684 Z" id="Path"></path>
            <path d="M84.8605263,31.9736842 C84.5852193,31.9737024 84.3213571,31.8635331 84.1278013,31.6677524 C83.9342454,31.4719718 83.8270987,31.2068677 83.8302632,30.9315789 L83.8302632,21.1026316 L79.0934211,19.1960526 C78.8118443,19.0863313 78.5944625,18.8559065 78.5013158,18.5684211 L75.3868421,9.225 L65.4157895,9.225 L65.4157895,30.8723684 C65.4582529,31.2690111 65.2705637,31.6550916 64.9324057,31.866699 C64.5942476,32.0783064 64.1649629,32.0783064 63.8268048,31.866699 C63.4886468,31.6550916 63.3009576,31.2690111 63.3434211,30.8723684 L63.3434211,8.13552632 C63.3434211,7.56652769 63.8046856,7.10526316 64.3736842,7.10526316 L76.2157895,7.10526316 C76.6597376,7.10205788 77.0558122,7.38360487 77.1986842,7.80394737 L80.3960526,17.4078947 L85.2631579,19.3855263 C85.6498646,19.5475138 85.901838,19.9254739 85.9026316,20.3447368 L85.9026316,30.8723684 C85.9225276,31.1597703 85.8211806,31.4423741 85.6231734,31.6516318 C85.4251661,31.8608895 85.1485882,31.9776834 84.8605263,31.9736842 Z" id="Path"></path>
            <path d="M34.8394737,39.2684211 C32.1710663,39.2684211 30.0078947,37.1052495 30.0078947,34.4368421 C30.0078947,31.7684347 32.1710663,29.6052632 34.8394737,29.6052632 C37.5078811,29.6052632 39.6710526,31.7684347 39.6710526,34.4368421 C39.6710526,37.1052495 37.5078811,39.2684211 34.8394737,39.2684211 Z M34.8394737,31.9144737 C33.4464081,31.9144737 32.3171053,33.0437765 32.3171053,34.4368421 C32.3171053,35.8299077 33.4464081,36.9592105 34.8394737,36.9592105 C36.2325393,36.9592105 37.3618421,35.8299077 37.3618421,34.4368421 C37.3296763,33.0669534 36.20974,31.9733066 34.8394737,31.9736842 L34.8394737,31.9144737 Z" id="Shape"></path>
            <path d="M74.9723684,39.2684211 C72.3039611,39.2684211 70.1407895,37.1052495 70.1407895,34.4368421 C70.1407895,31.7684347 72.3039611,29.6052632 74.9723684,29.6052632 C77.6407758,29.6052632 79.8039474,31.7684347 79.8039474,34.4368421 C79.8039474,37.1052495 77.6407758,39.2684211 74.9723684,39.2684211 Z M74.9723684,31.9144737 C73.5793028,31.9144737 72.45,33.0437765 72.45,34.4368421 C72.45,35.8299077 73.5793028,36.9592105 74.9723684,36.9592105 C76.365434,36.9592105 77.4947368,35.8299077 77.4947368,34.4368421 C77.462571,33.0669534 76.3426347,31.9733066 74.9723684,31.9736842 L74.9723684,31.9144737 Z" id="Shape"></path>
            <path d="M20.0605263,17.0052632 L1.35,17.0052632 C1.02298929,17.0052632 0.757894737,17.2703577 0.757894737,17.5973684 C0.757894737,17.9243791 1.02298929,18.1894737 1.35,18.1894737 L20.0605263,18.1894737 C20.387537,18.1894737 20.6526316,17.9243791 20.6526316,17.5973684 C20.6526316,17.2703577 20.387537,17.0052632 20.0605263,17.0052632 Z" id="Path"></path>
            <path d="M20.0605263,12.1736842 L5.68421053,12.1736842 C5.35719982,12.1736842 5.09210526,12.4387788 5.09210526,12.7657895 C5.09210526,13.0928002 5.35719982,13.3578947 5.68421053,13.3578947 L20.0605263,13.3578947 C20.3848916,13.3515946 20.6463315,13.0901547 20.6526316,12.7657895 C20.6526316,12.4387788 20.387537,12.1736842 20.0605263,12.1736842 Z" id="Path"></path>
            <path d="M20.0605263,21.825 L5.68421053,21.825 C5.35719982,21.825 5.09210526,22.0900946 5.09210526,22.4171053 C5.09210526,22.744116 5.35719982,23.0092105 5.68421053,23.0092105 L20.0605263,23.0092105 C20.387537,23.0092105 20.6526316,22.744116 20.6526316,22.4171053 C20.6526316,22.0900946 20.387537,21.825 20.0605263,21.825 Z" id="Path"></path>
            <path d="M76.3105263,18.7460526 L67.5,18.7460526 C67.3482682,18.7493168 67.2017838,18.6904786 67.0944684,18.5831632 C66.987153,18.4758478 66.9283148,18.3293634 66.9315789,18.1776316 L66.9315789,11.5934211 C66.9315789,11.2794908 67.1860697,11.025 67.5,11.025 L74.1315789,11.025 C74.376519,11.0300227 74.5930701,11.1853746 74.6763158,11.4157895 L76.8552632,18 C76.9127178,18.1730675 76.8817493,18.3633023 76.7723684,18.5092105 C76.668343,18.6611388 76.4946079,18.7502337 76.3105263,18.7460526 Z M68.0210526,17.5618421 L75.4815789,17.5618421 L73.6697368,12.1144737 L68.0684211,12.1144737 L68.0210526,17.5618421 Z" id="Shape"></path>
        </g>
    </g>
</svg>