<?xml version="1.0" encoding="UTF-8"?>
<svg width="75px" height="75px" viewBox="0 0 75 75" version="1.1" xmlns="http://www.w3.org/2000/svg" xmlns:xlink="http://www.w3.org/1999/xlink">
    <!-- Generator: Sketch 47.1 (45422) - http://www.bohemiancoding.com/sketch -->
    <title>icon-Unfold2</title>
    <desc>Created with Sketch.</desc>
    <defs>
        <polygon id="path-1" points="2.64471429 0.07100625 2.64471429 6.93756875 0.0322285714 6.93756875 0.0322285714 0.07100625 2.64471429 0.07100625"></polygon>
        <polygon id="path-3" points="57.423447 42 0 42 0 0.42 72.6309939 0.42 72.6309939 42 57.423447 42 57.423447 35.1334812 54.7099835 35.1334812 54.7099835 42.0000438 57.423447 42.0000438"></polygon>
        <polygon id="path-5" points="2.61274286 8 0.000171428571 8 0.000171428571 0.1528 2.61274286 0.1528 2.61274286 8"></polygon>
        <polygon id="path-7" points="2.61274286 8 0.000171428571 8 0.000171428571 0.1528 2.61274286 0.1528 2.61274286 8"></polygon>
    </defs>
    <g id="Page-1" stroke="none" stroke-width="1" fill="none" fill-rule="evenodd">
        <g id="icon-Unfold2">
            <path d="M18.4023078,17.242 L17.4223078,20.014 L17.6183078,20.056 C17.6369745,19.9439994 17.6976406,19.8436671 17.8003078,19.755 C17.902975,19.6663329 18.0149738,19.622 18.1363078,19.622 C18.313642,19.622 18.4933069,19.6499997 18.6753078,19.706 C18.8573087,19.7620003 19.0533067,19.827333 19.2633078,19.902 C19.4733088,19.976667 19.7066398,20.0419997 19.9633078,20.098 C20.2199757,20.1540003 20.5163061,20.182 20.8523078,20.182 C21.496311,20.182 22.060972,20.0886676 22.5463078,19.902 C23.0316435,19.7153324 23.4353062,19.4750015 23.7573078,19.181 C24.0793094,18.8869985 24.3219736,18.5580018 24.4853078,18.194 C24.6486419,17.8299982 24.7303078,17.4706684 24.7303078,17.116 C24.7303078,16.6586644 24.611309,16.2433352 24.3733078,15.87 C24.1353066,15.4966648 23.8483095,15.1606682 23.5123078,14.862 L22.2663078,13.742 C21.9863064,13.4899987 21.7343089,13.2170015 21.5103078,12.923 C21.2863067,12.6289985 21.1743078,12.2813353 21.1743078,11.88 C21.1743078,11.609332 21.2303072,11.3620011 21.3423078,11.138 C21.4543083,10.9139989 21.6106401,10.7226675 21.8113078,10.564 C22.0119755,10.4053325 22.2523064,10.2793338 22.5323078,10.186 C22.8123092,10.0926662 23.1203061,10.046 23.4563078,10.046 C23.7269758,10.046 23.9859732,10.0786663 24.2333078,10.144 C24.4806424,10.2093337 24.6976402,10.3143326 24.8843078,10.459 C25.0709754,10.6036674 25.2203072,10.7926655 25.3323078,11.026 C25.4443083,11.2593345 25.5003078,11.5439983 25.5003078,11.88 C25.5003078,12.0853344 25.4839746,12.255666 25.4513078,12.391 C25.418641,12.526334 25.3929745,12.631333 25.3743078,12.706 L25.5423078,12.706 L26.5083078,10.032 L26.2983078,9.99 C26.2516409,10.1020006 26.1909748,10.1906663 26.1163078,10.256 C26.0416407,10.3213337 25.9343085,10.354 25.7943078,10.354 C25.6356403,10.354 25.4793086,10.3283336 25.3253078,10.277 C25.171307,10.2256664 25.0033087,10.1673337 24.8213078,10.102 C24.6393069,10.0366663 24.4386422,9.97833359 24.2193078,9.927 C23.9999734,9.87566641 23.7456426,9.85 23.4563078,9.85 C23.0456391,9.85 22.6466431,9.91533268 22.2593078,10.046 C21.8719725,10.1766673 21.5289759,10.3586655 21.2303078,10.592 C20.9316396,10.8253345 20.693642,11.1053317 20.5163078,11.432 C20.3389736,11.7586683 20.2503078,12.117998 20.2503078,12.51 C20.2503078,13.0140025 20.3786398,13.4643313 20.6353078,13.861 C20.8919757,14.2576686 21.2443055,14.6566647 21.6923078,15.058 L22.6863078,15.968 C22.9569758,16.2200013 23.169307,16.4789987 23.3233078,16.745 C23.4773086,17.0110013 23.5543078,17.3166649 23.5543078,17.662 C23.5543078,17.9980017 23.495975,18.3083319 23.3793078,18.593 C23.2626405,18.8776681 23.0923089,19.1249989 22.8683078,19.335 C22.6443067,19.545001 22.3689761,19.7083327 22.0423078,19.825 C21.7156395,19.9416672 21.3469765,20 20.9363078,20 C20.6283062,20 20.3249759,19.9580004 20.0263078,19.874 C19.7276396,19.7899996 19.4569757,19.6686675 19.2143078,19.51 C18.9716399,19.3513325 18.7756419,19.1506679 18.6263078,18.908 C18.4769737,18.6653321 18.4023078,18.3853349 18.4023078,18.068 C18.4023078,17.9093325 18.4209743,17.7670006 18.4583078,17.641 C18.4956413,17.5149994 18.5376409,17.3820007 18.5843078,17.242 L18.4023078,17.242 Z M28.9755385,12.622 L29.9555385,12.622 L29.4515385,13.994 L30.9775385,13.994 L30.9215385,14.19 L29.3955385,14.19 L27.7995385,18.642 C27.7528716,18.7820007 27.7062054,18.9266659 27.6595385,19.076 C27.6128716,19.2253341 27.5895385,19.3746659 27.5895385,19.524 C27.5895385,19.6640007 27.6245382,19.7759996 27.6945385,19.86 C27.7645389,19.9440004 27.8788711,19.986 28.0375385,19.986 C28.2055394,19.986 28.3642044,19.9346672 28.5135385,19.832 C28.6628726,19.7293328 28.7982046,19.610334 28.9195385,19.475 C29.0408725,19.339666 29.1435381,19.2020007 29.2275385,19.062 C29.3115389,18.9219993 29.372205,18.8100004 29.4095385,18.726 L29.5775385,18.796 C29.540205,18.870667 29.4795389,18.9849992 29.3955385,19.139 C29.3115381,19.2930008 29.1995392,19.4469992 29.0595385,19.601 C28.9195378,19.7550008 28.7445396,19.8879994 28.5345385,20 C28.3245375,20.1120006 28.0748733,20.168 27.7855385,20.168 C27.4308701,20.168 27.1648727,20.0816675 26.9875385,19.909 C26.8102043,19.7363325 26.7215385,19.5286679 26.7215385,19.286 C26.7215385,19.0993324 26.7565382,18.8870012 26.8265385,18.649 C26.8965389,18.4109988 26.9688715,18.194001 27.0435385,17.998 L28.4155385,14.19 L27.1555385,14.19 L27.2115385,13.994 L28.4715385,13.994 L28.9755385,12.622 Z M35.4467693,14.68 C35.4467693,14.4933324 35.3907698,14.3346673 35.2787693,14.204 C35.1667687,14.0733327 34.9801039,14.008 34.7187693,14.008 C34.4294345,14.008 34.1517706,14.0919992 33.8857693,14.26 C33.6197679,14.4280008 33.379437,14.6356654 33.1647693,14.883 C32.9501015,15.1303346 32.7634367,15.3963319 32.6047693,15.681 C32.4461018,15.9656681 32.3247697,16.2293321 32.2407693,16.472 C32.455437,16.5093335 32.6934346,16.528 32.9547693,16.528 C33.2907709,16.528 33.6081011,16.4766672 33.9067693,16.374 C34.2054374,16.2713328 34.4691015,16.1360008 34.6977693,15.968 C34.9264371,15.7999992 35.1084353,15.6040011 35.2437693,15.38 C35.3791033,15.1559989 35.4467693,14.9226679 35.4467693,14.68 Z M35.4747693,18.628 C35.418769,18.6933337 35.3347698,18.8123325 35.2227693,18.985 C35.1107687,19.1576675 34.9567702,19.3303325 34.7607693,19.503 C34.5647683,19.6756675 34.3244374,19.829666 34.0397693,19.965 C33.7551012,20.100334 33.4121046,20.168 33.0107693,20.168 C32.6094339,20.168 32.271104,20.1026673 31.9957693,19.972 C31.7204346,19.8413327 31.4964368,19.6733344 31.3237693,19.468 C31.1511017,19.2626656 31.025103,19.0363346 30.9457693,18.789 C30.8664355,18.5416654 30.8267693,18.3013345 30.8267693,18.068 C30.8267693,17.601331 30.9411015,17.1183358 31.1697693,16.619 C31.3984371,16.1196642 31.6971008,15.6623354 32.0657693,15.247 C32.4344378,14.8316646 32.8521003,14.488668 33.3187693,14.218 C33.7854383,13.947332 34.2614335,13.812 34.7467693,13.812 C34.9334369,13.812 35.1201017,13.8329998 35.3067693,13.875 C35.4934369,13.9170002 35.6614352,13.9799996 35.8107693,14.064 C35.9601033,14.1480004 36.0814355,14.2553327 36.1747693,14.386 C36.2681031,14.5166673 36.3147693,14.6753324 36.3147693,14.862 C36.3147693,15.1140013 36.2471033,15.3356657 36.1117693,15.527 C35.9764353,15.7183343 35.801437,15.881666 35.5867693,16.017 C35.3721015,16.152334 35.1364372,16.2666662 34.8797693,16.36 C34.6231013,16.4533338 34.3734371,16.5256664 34.1307693,16.577 C33.8881014,16.6283336 33.6664369,16.6656666 33.4657693,16.689 C33.2651016,16.7123334 33.1181031,16.724 33.0247693,16.724 C32.8661018,16.724 32.7121033,16.7193334 32.5627693,16.71 C32.4134352,16.7006666 32.2827698,16.6866668 32.1707693,16.668 C32.0681021,16.9666682 31.9817696,17.2629985 31.9117693,17.557 C31.8417689,17.8510015 31.8067693,18.1613317 31.8067693,18.488 C31.8067693,18.9920025 31.9374346,19.3676654 32.1987693,19.615 C32.4601039,19.8623346 32.7914339,19.986 33.1927693,19.986 C33.4914374,19.986 33.7551015,19.9276672 33.9837693,19.811 C34.2124371,19.6943328 34.4131017,19.5566675 34.5857693,19.398 C34.7584368,19.2393325 34.903102,19.0783341 35.0197693,18.915 C35.1364365,18.7516659 35.2321022,18.6233338 35.3067693,18.53 L35.4747693,18.628 Z M38.306,18.516 C38.3433335,18.6933342 38.3899997,18.8683325 38.446,19.041 C38.5020003,19.2136675 38.5836661,19.3699993 38.691,19.51 C38.7983339,19.6500007 38.9289992,19.7643329 39.083,19.853 C39.2370008,19.9416671 39.4306655,19.986 39.664,19.986 C39.9253346,19.986 40.1749988,19.9090008 40.413,19.755 C40.6510012,19.6009992 40.8726656,19.4003346 41.078,19.153 C41.2833344,18.9056654 41.4699992,18.6210016 41.638,18.299 C41.8060008,17.9769984 41.9483328,17.650335 42.065,17.319 C42.1816673,16.987665 42.2726663,16.6610016 42.338,16.339 C42.4033337,16.0169984 42.436,15.7300013 42.436,15.478 C42.436,15.0766647 42.3566675,14.7313348 42.198,14.442 C42.0393325,14.1526652 41.7546687,14.008 41.344,14.008 C41.1013321,14.008 40.8796677,14.0593328 40.679,14.162 C40.4783323,14.2646672 40.2986675,14.3906659 40.14,14.54 C39.9813325,14.6893341 39.8413339,14.8409992 39.72,14.995 C39.5986661,15.1490008 39.4960004,15.2819994 39.412,15.394 L38.306,18.516 Z M38.838,14.19 L37.536,14.19 L37.592,13.994 L39.804,13.994 L39.51,14.904 L39.538,14.904 C39.6033337,14.8013328 39.6943328,14.6870006 39.811,14.561 C39.9276672,14.4349994 40.0653325,14.3160006 40.224,14.204 C40.3826675,14.0919994 40.5576657,13.998667 40.749,13.924 C40.9403343,13.849333 41.1479989,13.812 41.372,13.812 C41.7173351,13.812 42.018332,13.879666 42.275,14.015 C42.5316679,14.150334 42.7439992,14.3299989 42.912,14.554 C43.0800008,14.7780011 43.2059996,15.0393318 43.29,15.338 C43.3740004,15.6366682 43.416,15.9493317 43.416,16.276 C43.416,16.668002 43.3226676,17.0903311 43.136,17.543 C42.9493324,17.9956689 42.6880017,18.4156647 42.352,18.803 C42.0159983,19.1903353 41.6170023,19.5146654 41.155,19.776 C40.6929977,20.0373346 40.1866694,20.168 39.636,20.168 C39.2719982,20.168 38.9593346,20.0490012 38.698,19.811 C38.4366654,19.5729988 38.2733337,19.2533353 38.208,18.852 L38.18,18.852 L36.472,23.71 L37.648,23.71 L37.592,23.906 L34.428,23.906 L34.484,23.71 L35.492,23.71 L38.838,14.19 Z M47.0204615,20 L52.6484615,20 L53.1944615,17.928 L52.9844615,17.928 L52.8164615,18.46 C52.7417944,18.7213346 52.6041291,18.889333 52.4034615,18.964 C52.2027938,19.038667 51.9671295,19.076 51.6964615,19.076 L48.0284615,19.076 L48.0284615,19.048 L52.2564615,15.436 C52.5457963,15.1839987 52.8164602,14.9343346 53.0684615,14.687 C53.3204627,14.4396654 53.5374606,14.1900013 53.7194615,13.938 C53.9014624,13.6859987 54.0461276,13.424668 54.1534615,13.154 C54.2607953,12.883332 54.3144615,12.5986682 54.3144615,12.3 C54.3144615,12.0106652 54.2491288,11.7353346 54.1184615,11.474 C53.9877942,11.2126654 53.8104626,10.984001 53.5864615,10.788 C53.3624604,10.591999 53.1011296,10.4356672 52.8024615,10.319 C52.5037933,10.2023328 52.1864632,10.144 51.8504615,10.144 C51.4491261,10.144 51.0781298,10.2069994 50.7374615,10.333 C50.3967931,10.4590006 50.1051294,10.6153324 49.8624615,10.802 C49.6197936,10.9886676 49.4307955,11.1893323 49.2954615,11.404 C49.1601275,11.6186677 49.0924615,11.8099992 49.0924615,11.978 C49.0924615,12.3793353 49.269793,12.58 49.6244615,12.58 C49.8111291,12.58 49.9557943,12.5286672 50.0584615,12.426 C50.1611287,12.3233328 50.2124615,12.1926675 50.2124615,12.034 C50.2124615,11.959333 50.2101282,11.9033335 50.2054615,11.866 C50.2007948,11.8286665 50.1937949,11.7960001 50.1844615,11.768 C50.1751281,11.7399999 50.1681282,11.7073335 50.1634615,11.67 C50.1587948,11.6326665 50.1564615,11.576667 50.1564615,11.502 C50.1564615,11.3619993 50.1937944,11.224334 50.2684615,11.089 C50.3431285,10.953666 50.4481275,10.8300006 50.5834615,10.718 C50.7187955,10.6059994 50.8844605,10.5150003 51.0804615,10.445 C51.2764625,10.3749996 51.4957936,10.34 51.7384615,10.34 C52.242464,10.34 52.611127,10.5033317 52.8444615,10.83 C53.077796,11.1566683 53.1944615,11.5579976 53.1944615,12.034 C53.1944615,12.5940028 53.0077967,13.1703304 52.6344615,13.763 C52.2611263,14.3556696 51.7804644,14.9599969 51.1924615,15.576 C50.4644578,16.3320038 49.7574649,17.0529966 49.0714615,17.739 C48.385458,18.4250034 47.6784651,19.1179965 46.9504615,19.818 L47.0204615,20 Z" id="Step-2" fill="#4A4A4A"></path>
            <g id="Page-1" transform="translate(1.000000, 15.000000)">
                <path d="M4.36353978,38 C4.01463106,38 3.66527501,37.8740862 3.39956759,37.6226811 C2.8668108,37.119871 2.8668108,36.304389 3.39956759,35.8015789 L18.6723762,21.3772661 C19.205133,20.8740334 20.0684584,20.8744559 20.6007679,21.3772661 C21.1330774,21.8804987 21.1330774,22.6959807 20.6007679,23.1987908 L5.32751198,37.6226811 C5.06180456,37.8740862 4.71244851,38 4.36353978,38 Z" id="Fill-1" fill="#CDCFCE"></path>
                <path d="M11.363544,38 C11.0146342,38 10.6652771,37.8740862 10.3995688,37.6226811 C9.86681039,37.119871 9.86681039,36.304389 10.3995688,35.8015789 L25.6724249,21.3772661 C26.2051833,20.8740334 27.0680641,20.8744559 27.6008226,21.3772661 C28.1331337,21.8804987 28.1331337,22.6959807 27.6003752,23.1987908 L12.3275192,37.6226811 C12.0613636,37.8740862 11.7124538,38 11.363544,38" id="Fill-3" fill="#CDCFCE"></path>
                <path d="M17.3636211,38 C17.0147059,38 16.6653433,37.8740862 16.3991836,37.6226811 C15.8668643,37.119871 15.8668643,36.304389 16.399631,35.8015789 L31.6727242,21.3772661 C32.2054909,20.8740334 33.0683851,20.8744559 33.6011519,21.3772661 C34.1330239,21.8804987 34.1330239,22.6959807 33.6007045,23.1987908 L18.327164,37.6226811 C18.0614516,37.8740862 17.712089,38 17.3636211,38" id="Fill-5" fill="#CDCFCE"></path>
                <path d="M23.3634881,38 C23.0145783,38 22.6656685,37.8740862 22.3995129,37.6226811 C21.8667545,37.119871 21.8667545,36.304389 22.3999603,35.8015789 L37.6728163,21.3772661 C38.2051274,20.8740334 39.0684555,20.8744559 39.6007667,21.3772661 C40.1330778,21.8804987 40.1330778,22.6959807 39.6007667,23.1987908 L24.3274633,37.6226811 C24.0617551,37.8740862 23.7123979,38 23.3634881,38" id="Fill-7" fill="#CDCFCE"></path>
                <path d="M30.3635398,38 C30.0146311,38 29.665275,37.8740862 29.3995676,37.6226811 C28.8668108,37.119871 28.8668108,36.304389 29.3995676,35.8015789 L44.6723762,21.3772661 C45.205133,20.8740334 46.0680111,20.8744559 46.6007679,21.3772661 C47.1330774,21.8804987 47.1330774,22.6959807 46.6007679,23.1987908 L31.327512,37.6226811 C31.0613572,37.8740862 30.7124485,38 30.3635398,38" id="Fill-9" fill="#CDCFCE"></path>
                <path d="M37.3635694,38 C37.0146531,38 36.6652895,37.8740862 36.3995763,37.6226811 C35.8668079,37.119871 35.8668079,36.304389 36.3995763,35.8015789 L51.672717,21.3772661 C52.2054854,20.8740334 53.0683822,20.8744559 53.6011506,21.3772661 C54.1330243,21.8804987 54.1330243,22.6959807 53.6007033,23.1987908 L38.3271153,37.6226811 C38.0614021,37.8740862 37.7120384,38 37.3635694,38" id="Fill-11" fill="#CDCFCE"></path>
                <path d="M42.363178,38 C42.0147091,38 41.6653454,37.8740862 41.3991849,37.6226811 C40.8668638,37.119871 40.8668638,36.304389 41.3996322,35.8015789 L56.6727729,21.3772661 C57.2055413,20.8740334 58.0684382,20.8744559 58.6007592,21.3772661 C59.1330803,21.8804987 59.1330803,22.6959807 58.6007592,23.1987908 L43.3271712,37.6226811 C43.061458,37.8740862 42.7120944,38 42.363178,38" id="Fill-13" fill="#CDCFCE"></path>
                <path d="M49.3635398,38 C49.0146311,38 48.665275,37.8740862 48.3995676,37.6226811 C47.8668108,37.119871 47.8668108,36.304389 48.3995676,35.8015789 L63.6723762,21.3772661 C64.205133,20.8740334 65.0680111,20.8744559 65.6007679,21.3772661 C66.1330774,21.8804987 66.1330774,22.6959807 65.6007679,23.1987908 L50.327512,37.6226811 C50.0613572,37.8740862 49.7124485,38 49.3635398,38" id="Fill-15" fill="#CDCFCE"></path>
                <path d="M56.3635398,38 C56.0146311,38 55.665275,37.8740862 55.3995676,37.6226811 C54.8668108,37.119871 54.8668108,36.304389 55.3995676,35.8015789 L70.6723762,21.3772661 C71.205133,20.8740334 72.0680111,20.8744559 72.6007679,21.3772661 C73.1330774,21.8804987 73.1330774,22.6959807 72.6007679,23.1987908 L57.327512,37.6226811 C57.0613572,37.8740862 56.7120012,38 56.3635398,38" id="Fill-17" fill="#CDCFCE"></path>
                <path d="M4.36353978,38 C4.01463106,38 3.66527501,37.8740862 3.39956759,37.6226811 C2.8668108,37.119871 2.8668108,36.304389 3.39956759,35.8015789 L18.6723762,21.3772661 C19.205133,20.8740334 20.0684584,20.8744559 20.6007679,21.3772661 C21.1330774,21.8804987 21.1330774,22.6959807 20.6007679,23.1987908 L5.32751198,37.6226811 C5.06180456,37.8740862 4.71244851,38 4.36353978,38" id="Fill-19" fill="#CDCFCE"></path>
                <path d="M11.363544,38 C11.0146342,38 10.6652771,37.8740862 10.3995688,37.6226811 C9.86681039,37.119871 9.86681039,36.304389 10.3995688,35.8015789 L25.6724249,21.3772661 C26.2051833,20.8740334 27.0680641,20.8744559 27.6008226,21.3772661 C28.1331337,21.8804987 28.1331337,22.6959807 27.6003752,23.1987908 L12.3275192,37.6226811 C12.0613636,37.8740862 11.7124538,38 11.363544,38" id="Fill-21" fill="#CDCFCE"></path>
                <path d="M17.3636211,38 C17.0147059,38 16.6653433,37.8740862 16.3991836,37.6226811 C15.8668643,37.119871 15.8668643,36.304389 16.399631,35.8015789 L31.6727242,21.3772661 C32.2054909,20.8740334 33.0683851,20.8744559 33.6011519,21.3772661 C34.1330239,21.8804987 34.1330239,22.6959807 33.6007045,23.1987908 L18.327164,37.6226811 C18.0614516,37.8740862 17.712089,38 17.3636211,38" id="Fill-23" fill="#CDCFCE"></path>
                <path d="M23.3634881,38 C23.0145783,38 22.6656685,37.8740862 22.3995129,37.6226811 C21.8667545,37.119871 21.8667545,36.304389 22.3999603,35.8015789 L37.6728163,21.3772661 C38.2051274,20.8740334 39.0684555,20.8744559 39.6007667,21.3772661 C40.1330778,21.8804987 40.1330778,22.6959807 39.6007667,23.1987908 L24.3274633,37.6226811 C24.0617551,37.8740862 23.7123979,38 23.3634881,38" id="Fill-25" fill="#CDCFCE"></path>
                <path d="M30.3635398,38 C30.0146311,38 29.665275,37.8740862 29.3995676,37.6226811 C28.8668108,37.119871 28.8668108,36.304389 29.3995676,35.8015789 L44.6723762,21.3772661 C45.205133,20.8740334 46.0680111,20.8744559 46.6007679,21.3772661 C47.1330774,21.8804987 47.1330774,22.6959807 46.6007679,23.1987908 L31.327512,37.6226811 C31.0613572,37.8740862 30.7124485,38 30.3635398,38" id="Fill-27" fill="#CDCFCE"></path>
                <path d="M37.3635694,38 C37.0146531,38 36.6652895,37.8740862 36.3995763,37.6226811 C35.8668079,37.119871 35.8668079,36.304389 36.3995763,35.8015789 L51.672717,21.3772661 C52.2054854,20.8740334 53.0683822,20.8744559 53.6011506,21.3772661 C54.1330243,21.8804987 54.1330243,22.6959807 53.6007033,23.1987908 L38.3271153,37.6226811 C38.0614021,37.8740862 37.7120384,38 37.3635694,38" id="Fill-29" fill="#CDCFCE"></path>
                <path d="M42.363178,38 C42.0147091,38 41.6653454,37.8740862 41.3991849,37.6226811 C40.8668638,37.119871 40.8668638,36.304389 41.3996322,35.8015789 L56.6727729,21.3772661 C57.2055413,20.8740334 58.0684382,20.8744559 58.6007592,21.3772661 C59.1330803,21.8804987 59.1330803,22.6959807 58.6007592,23.1987908 L43.3271712,37.6226811 C43.061458,37.8740862 42.7120944,38 42.363178,38" id="Fill-31" fill="#CDCFCE"></path>
                <path d="M49.3635398,38 C49.0146311,38 48.665275,37.8740862 48.3995676,37.6226811 C47.8668108,37.119871 47.8668108,36.304389 48.3995676,35.8015789 L63.6723762,21.3772661 C64.205133,20.8740334 65.0680111,20.8744559 65.6007679,21.3772661 C66.1330774,21.8804987 66.1330774,22.6959807 65.6007679,23.1987908 L50.327512,37.6226811 C50.0613572,37.8740862 49.7124485,38 49.3635398,38" id="Fill-33" fill="#CDCFCE"></path>
                <path d="M56.3635398,38 C56.0146311,38 55.665275,37.8740862 55.3995676,37.6226811 C54.8668108,37.119871 54.8668108,36.304389 55.3995676,35.8015789 L70.6723762,21.3772661 C71.205133,20.8740334 72.0680111,20.8744559 72.6007679,21.3772661 C73.1330774,21.8804987 73.1330774,22.6959807 72.6007679,23.1987908 L57.327512,37.6226811 C57.0613572,37.8740862 56.7120012,38 56.3635398,38" id="Fill-35" fill="#CDCFCE"></path>
                <path d="M55.649845,38 L4.34971207,38 C3.60420324,38 3,37.328248 3,36.5 C3,35.671752 3.60420324,35 4.34971207,35 L55.649845,35 C56.3957968,35 57,35.671752 57,36.5 C57,37.328248 56.3957968,38 55.649845,38" id="Fill-37" fill="#CDCFCE"></path>
                <g id="Group-41" transform="translate(70.000000, 21.000000)">
                    <mask id="mask-2" fill="white">
                        <use xlink:href="#path-1"></use>
                    </mask>
                    <g id="Clip-40"></g>
                    <path d="M0.0322285714,5.60406875 L0.0322285714,1.40450625 C0.0322285714,0.66819375 0.617228571,0.07100625 1.33851429,0.07100625 C2.0598,0.07100625 2.6448,0.66819375 2.6448,1.40450625 L2.6448,5.60406875 C2.6448,6.34081875 2.0598,6.93756875 1.33851429,6.93756875 C0.617228571,6.93756875 0.0322285714,6.34081875 0.0322285714,5.60406875" id="Fill-39" fill="#CDCFCE" mask="url(#mask-2)"></path>
                </g>
                <g id="Group-44">
                    <mask id="mask-4" fill="white">
                        <use xlink:href="#path-3"></use>
                    </mask>
                    <g id="Clip-43"></g>
                    <path d="M54.7099835,40.6665438 L54.7099835,36.4669813 C54.7099835,35.7306688 55.3171299,35.1334813 56.0667152,35.1334813 C56.8158555,35.1334813 57.423447,35.7306688 57.423447,36.4669813 L57.423447,40.6665438 C57.423447,41.4028563 56.8158555,42.0000438 56.0667152,42.0000438 C55.3171299,42.0000438 54.7099835,41.4028563 54.7099835,40.6665438" id="Fill-42" fill="#CDCFCE" mask="url(#mask-4)"></path>
                </g>
                <path d="M18,26.6405862 L18,22.3594138 C18,21.6087926 18.6712598,21 19.5,21 C20.328248,21 21,21.6087926 21,22.3594138 L21,26.6405862 C21,27.3916534 20.328248,28 19.5,28 C18.6712598,28 18,27.3916534 18,26.6405862" id="Fill-45" fill="#CDCFCE"></path>
                <g id="Group-49" transform="translate(3.000000, 35.000000)">
                    <g>
                        <mask id="mask-6" fill="white">
                            <use xlink:href="#path-5"></use>
                        </mask>
                        <g id="Clip-48"></g>
                        <path d="M0.000171428571,6.4758 L0.000171428571,1.6763 C0.000171428571,0.8348 0.584742857,0.1528 1.30645714,0.1528 C2.02731429,0.1528 2.61274286,0.8348 2.61274286,1.6763 L2.61274286,6.4758 C2.61274286,7.3178 2.02731429,8.0003 1.30645714,8.0003 C0.584742857,8.0003 0.000171428571,7.3178 0.000171428571,6.4758" id="Fill-47" fill="#CDCFCE" mask="url(#mask-6)"></path>
                    </g>
                    <g id="Group-49-Copy" transform="translate(52.000000, 0.000000)">
                        <mask id="mask-8" fill="white">
                            <use xlink:href="#path-7"></use>
                        </mask>
                        <g id="Clip-48"></g>
                        <path d="M0.000171428571,6.4758 L0.000171428571,1.6763 C0.000171428571,0.8348 0.584742857,0.1528 1.30645714,0.1528 C2.02731429,0.1528 2.61274286,0.8348 2.61274286,1.6763 L2.61274286,6.4758 C2.61274286,7.3178 2.02731429,8.0003 1.30645714,8.0003 C0.584742857,8.0003 0.000171428571,7.3178 0.000171428571,6.4758" id="Fill-47" fill="#CDCFCE" mask="url(#mask-8)"></path>
                    </g>
                </g>
                <path d="M70.649845,24 L19.3497121,24 C18.6042032,24 18,23.328248 18,22.5 C18,21.671752 18.6042032,21 19.3497121,21 L70.649845,21 C71.3957968,21 72,21.671752 72,22.5 C72,23.328248 71.3957968,24 70.649845,24" id="Fill-50" fill="#CDCFCE"></path>
                <path d="M64.8217713,18.709347 C64.8191067,18.7027538 64.8151097,18.6970396 64.812445,18.6904464 C64.8057833,18.674183 64.796457,18.6592383 64.7893512,18.6434144 C64.7547105,18.5673721 64.7151845,18.4948463 64.6703292,18.4262763 C64.6561176,18.4042988 64.6410178,18.3836399 64.625918,18.3625415 C64.5797304,18.2988066 64.5299899,18.2390277 64.4758082,18.1823257 C64.4607084,18.1669414 64.4464969,18.150678 64.4309529,18.1357333 C64.2875048,17.9972748 64.1205188,17.8856289 63.9371006,17.8056306 C63.9144509,17.795521 63.8918012,17.7880486 63.8687074,17.7792576 C63.7945407,17.7502472 63.7181535,17.7269511 63.6399898,17.7084899 C63.6164519,17.7032153 63.5933581,17.6970616 63.5698201,17.6926661 C63.4672303,17.6733259 63.3633081,17.6601393 63.2567213,17.6601393 L57.1301988,17.6610184 L57.1301988,17.661458 L29.4926763,17.661458 C29.0996373,15.3520582 27.1300014,14 25.2185441,14 C24.531059,14 23.8737736,14.1723039 23.3181897,14.498011 C23.1956148,14.5692183 23.0841427,14.6558098 22.9837735,14.7551482 C22.9837735,14.7551482 13.3594263,24.3043889 13.3514323,24.3118613 C12.4800849,25.1905233 12,26.3509373 12,27.5829982 C12,30.7772137 14.2551998,34 19.2918719,34 L41.8634109,34 L51.1284717,34 L51.1289158,34 L51.1293599,34 C51.6094448,34 53.5781925,33.801323 53.8846296,33.4826487 L66,20.3264544 L66,19.3875739 C64.9492314,19.1603261 64.9105937,18.929562 64.8217713,18.709347" id="Fill-52" fill="#38414F"></path>
                <path d="M15.2582758,24.6833479 C15.2869442,24.6618257 15.3151647,24.6389583 15.344729,24.6183329 C15.3151647,24.6385099 15.2869442,24.6618257 15.2582758,24.6833479 L15.2582758,24.6833479 Z M63.3253958,18.7351491 L27.4849177,18.7351491 L28.3158545,17.9029573 C28.3158545,15.388895 25.8888919,14.4957236 24.5817902,15.2705229 L14.9012641,24.9842103 C14.8981285,24.9877973 14.8945449,24.9913844 14.8909614,24.9954198 L14.8878258,24.9981101 C14.8887217,24.9976617 14.8891696,24.9972133 14.8896175,24.9967649 C14.3399898,25.5500649 14,26.312758 14,27.1548141 C14,29.4523093 15.5471999,32 19.6552978,32 L51.7670868,32 L64,19.7543151 L64,19.2220889 L64,18.7351491 L63.3253958,18.7351491 Z" id="Fill-54" fill="#F6F6F6"></path>
                <path d="M19.5575808,26 L28,17.7427327 C28,15.3670527 25.6529823,14.5236185 24.388937,15.2556397 L15,24.4355588 C15.5354215,23.9123839 16.274875,23.588312 17.0914362,23.5895829 C18.4533822,23.5908537 19.5575808,24.668128 19.5575808,26 Z" id="Stroke-56" stroke="#000000" stroke-width="0.759" stroke-linecap="round" stroke-linejoin="round"></path>
                <polygon id="Stroke-58" stroke="#000000" stroke-width="0.759" stroke-linecap="round" stroke-linejoin="round" points="64 19 52 30.9998648 52 32 64 19.9988169"></polygon>
                <path d="M19.3639534,30.9674494 C17.008255,30.9674494 14.9992409,29.6159694 14.9992409,27.0990139 C14.9992409,25.9589437 15.8940377,25.0325516 16.9964062,25.0325516 C17.8236215,25.0325516 18.4950482,25.7262115 18.4950482,26.5813776 L19.4938503,26.5813776 C19.4938503,25.1550423 18.3752446,24.000001 16.9964062,24.000001 C15.3424146,23.99864 14,25.3864134 14,27.0976529 C14,29.4222528 15.5157568,32 19.5408063,32 L51,32 L51,30.9674494 L19.3639534,30.9674494 Z" id="Stroke-60" stroke="#000000" stroke-width="0.759" stroke-linecap="round" stroke-linejoin="round"></path>
                <path d="M64,19 L28,19" id="Stroke-62" stroke="#000000" stroke-width="0.759" stroke-linecap="round" stroke-linejoin="round"></path>
                <path d="M43.758,22 L43,22" id="Stroke-64" stroke="#000000" stroke-width="0.759" stroke-linecap="round" stroke-linejoin="round"></path>
                <path d="M42,22 L22,22" id="Stroke-66" stroke="#000000" stroke-width="0.759" stroke-linecap="round" stroke-linejoin="round" stroke-dasharray="1.572,2.358"></path>
                <path d="M21.759,22 L21,22" id="Stroke-68" stroke="#000000" stroke-width="0.759" stroke-linecap="round" stroke-linejoin="round"></path>
                <polygon id="Fill-70" fill="#6D7A68" points="0 18.5 4.20744911 23 4.20744911 20.4802846 12.2715461 20.4802846 16 16.5197154 4.20744911 16.5197154 4.20744911 14"></polygon>
                <path d="M45,24.1341068 C45.2304934,24.5053027 45.6901554,24.603195 46.020441,24.3433082 L47.7169075,23.0066054 L48.3342058,23.4925888 C48.104154,23.9393159 48.2123358,24.5167317 48.5951667,24.8183595 C48.9991925,25.1363854 49.5551142,25.0260702 49.838153,24.5713924 C50.1211918,24.1167147 50.0227243,23.4906011 49.6186986,23.1720783 C49.3414001,22.9539323 48.9925691,22.9375341 48.7090887,23.0955533 L47.9535827,22.4997515 L48.7095303,21.9044467 C48.9930107,22.0624659 49.3418416,22.0460677 49.6191402,21.8274248 C50.0231659,21.5093989 50.1211918,20.8827884 49.8385946,20.4286076 C49.5551142,19.9739298 48.9991925,19.8636146 48.5951667,20.1816405 C48.2123358,20.4827714 48.1045956,21.0601872 48.3342058,21.5069143 L47.7169075,21.9933946 L46.0208825,20.6561949 C45.6901554,20.396308 45.2309349,20.4942004 45,20.8653963 L47.0739988,22.4997515 L45,24.1341068 Z M49.1051664,23.4717183 C49.3603871,23.4717183 49.5679194,23.7052687 49.5679194,23.9929828 C49.5679194,24.2801999 49.3603871,24.5137502 49.1051664,24.5137502 C48.8490627,24.5137502 48.6419719,24.2801999 48.6419719,23.9929828 C48.6419719,23.7052687 48.8495042,23.4717183 49.1051664,23.4717183 L49.1051664,23.4717183 Z M49.1051664,20.4857528 C49.3603871,20.4857528 49.5679194,20.7193032 49.5679194,21.0065203 C49.5679194,21.2942344 49.3603871,21.5272878 49.1051664,21.5272878 C48.8490627,21.5272878 48.6419719,21.2942344 48.6419719,21.0065203 C48.6419719,20.7193032 48.8495042,20.4857528 49.1051664,20.4857528 L49.1051664,20.4857528 Z" id="Fill-73" fill="#6D7A68"></path>
            </g>
        </g>
    </g>
</svg>