<?xml version="1.0" encoding="utf-8"?>
<!-- Generator: Adobe Illustrator 16.0.0, SVG Export Plug-In . SVG Version: 6.00 Build 0)  -->
<!DOCTYPE svg PUBLIC "-//W3C//DTD SVG 1.1//EN" "http://www.w3.org/Graphics/SVG/1.1/DTD/svg11.dtd">
<svg version="1.1" id="Layer_1" xmlns="http://www.w3.org/2000/svg" xmlns:xlink="http://www.w3.org/1999/xlink" x="0px" y="0px"
	 width="84px" height="84px" viewBox="0 0 84 84" enable-background="new 0 0 84 84" xml:space="preserve">
<g>
	<path fill="#8E8882" d="M61.03,21.049c0,0,7.289,3.121,9.645,9.296c2.356,6.177,1.91,12.638-3.184,17.764
		c-5.094,5.124-12.701,6.494-18.94,4.044c-6.241-2.451-10.156-7.322-11.077-11.047l-0.319-0.064c0,0,0.636,9.996,10.026,14.39
		c9.392,4.394,16.715-0.063,17.764-0.7c1.053-0.637,10.061-5.54,10.061-15.631C75.005,28.275,70.708,24.742,61.03,21.049z"/>
	<path fill="#6E6965" d="M32.729,44.26c0,0,0.733,15.469,17.668,18.875C66.543,66.382,74.27,52.473,75.32,49.513
		s2.769-8.786,1.911-14.42l-3.534-3.819c0,0,3.914,8.498-2.77,18.43c-6.685,9.932-18.843,9.195-21.519,8.528
		c-2.672-0.665-11.492-2.45-16.33-13.848C32.977,44.145,32.921,44.225,32.729,44.26z"/>
	<g>
		<path fill="#464D5A" d="M9.522,40.084c-0.299,0.139-0.875,0.248-1.592,0.248c-2.685,0-3.963-2.215-3.963-5.193
			c0-3.963,2.198-5.507,4.243-5.507c0.716,0,1.217,0.14,1.418,0.28l-0.343,1.717c-0.234-0.109-0.499-0.203-0.95-0.203
			c-1.157,0-2.2,0.998-2.2,3.604c0,2.51,0.952,3.494,2.2,3.494c0.343,0,0.731-0.078,0.983-0.156L9.522,40.084z"/>
		<path fill="#464D5A" d="M11.831,37.15c0.031,1.186,0.716,1.623,1.623,1.623c0.576,0,1.092-0.126,1.449-0.25l0.28,1.466
			c-0.53,0.202-1.325,0.343-2.106,0.343c-2.073,0-3.211-1.372-3.211-3.759c0-2.558,1.324-4.087,3.056-4.087
			c1.639,0,2.59,1.295,2.59,3.604c0,0.546-0.015,0.842-0.062,1.061H11.831z M13.655,35.714c0-0.981-0.248-1.745-0.856-1.745
			c-0.672,0-0.937,0.982-0.951,1.745H13.655z"/>
		<path fill="#464D5A" d="M16.53,34.904c0-0.764-0.031-1.592-0.062-2.293h1.777l0.11,1.107h0.047
			c0.343-0.811,0.951-1.232,1.511-1.232c0.205,0,0.314,0,0.438,0.031v2.027c-0.123-0.031-0.264-0.031-0.438-0.031
			c-0.437,0-1.013,0.298-1.246,1.092c-0.047,0.172-0.078,0.438-0.078,0.766v3.867H16.53V34.904z"/>
		<path fill="#464D5A" d="M23.871,30.553v2.059h1.496v1.451h-1.496v3.477c0,0.891,0.375,1.108,0.78,1.108
			c0.203,0,0.359-0.015,0.531-0.047l0.016,1.591c-0.282,0.079-0.702,0.141-1.249,0.141c-0.593,0-1.108-0.141-1.466-0.483
			c-0.42-0.405-0.655-0.982-0.655-2.184v-3.603h-0.905v-1.451h0.905v-1.576L23.871,30.553z"/>
		<path fill="#464D5A" d="M28.243,30.584c0.017,0.654-0.454,1.107-1.077,1.107c-0.56,0-1.03-0.453-1.013-1.107
			c-0.018-0.688,0.482-1.107,1.043-1.107C27.789,29.477,28.243,29.896,28.243,30.584z M26.2,40.238v-7.627h2.043v7.627H26.2z"/>
		<path fill="#464D5A" d="M29.674,29.882c0.577-0.124,1.358-0.204,2.137-0.204c1.218,0,2.17,0.172,2.854,0.812
			c0.625,0.545,0.905,1.419,0.905,2.309c0,1.138-0.344,1.934-0.889,2.526c-0.655,0.687-1.716,0.998-2.558,0.998
			c-0.143,0-0.282,0-0.407,0v3.915h-2.043V29.882z M31.717,34.654c0.094,0.031,0.204,0.031,0.329,0.031
			c1.027,0,1.498-0.732,1.498-1.716c0-0.92-0.375-1.638-1.329-1.638c-0.187,0-0.373,0.031-0.498,0.078V34.654z"/>
		<path fill="#464D5A" d="M38.472,29.727v6.83c0,1.545,0.468,2.014,0.998,2.014c0.594,0,1.014-0.422,1.014-2.014v-6.83h2.045v6.473
			c0,2.699-1.016,4.164-3.044,4.164c-2.198,0-3.056-1.512-3.056-4.149v-6.487H38.472z"/>
		<path fill="#464D5A" d="M43.978,29.882c0.64-0.124,1.451-0.204,2.231-0.204c1.123,0,2.122,0.156,2.809,0.781
			c0.638,0.576,0.824,1.279,0.824,2.184c0,1.123-0.545,2.137-1.619,2.637v0.03c0.716,0.28,1.074,0.952,1.278,2.075
			c0.201,1.17,0.482,2.464,0.67,2.854h-2.137c-0.125-0.296-0.358-1.355-0.516-2.512c-0.187-1.31-0.513-1.684-1.199-1.684h-0.299
			v4.195h-2.043V29.882z M46.021,34.467h0.36c0.888,0,1.403-0.717,1.403-1.637c0-0.89-0.358-1.529-1.278-1.561
			c-0.172,0-0.375,0.016-0.485,0.062V34.467z"/>
		<path fill="#464D5A" d="M53.523,35.2v1.467h-3.103V35.2H53.523z"/>
		<path fill="#464D5A" d="M56.501,29.727v6.83c0,1.545,0.469,2.014,1,2.014c0.592,0,1.012-0.422,1.012-2.014v-6.83h2.045v6.473
			c0,2.699-1.014,4.164-3.041,4.164c-2.2,0-3.059-1.512-3.059-4.149v-6.487H56.501z"/>
		<path fill="#464D5A" d="M61.709,38.148c0.423,0.234,1.14,0.406,1.733,0.406c0.967,0,1.437-0.5,1.437-1.186
			c0-0.765-0.47-1.139-1.358-1.717c-1.435-0.873-1.981-1.98-1.981-2.932c0-1.686,1.123-3.089,3.323-3.089
			c0.687,0,1.342,0.188,1.653,0.374l-0.329,1.764c-0.295-0.188-0.748-0.359-1.34-0.359c-0.875,0-1.295,0.53-1.295,1.092
			c0,0.624,0.311,0.952,1.45,1.639c1.39,0.842,1.901,1.902,1.901,3.01c0,1.919-1.418,3.182-3.477,3.182
			c-0.843,0-1.67-0.217-2.013-0.42L61.709,38.148z"/>
	</g>
	<g>
		<g>
			<path fill="#464D5A" d="M67.919,30.416h0.627c0.218,0,0.433,0.098,0.433,0.346c0,0.133-0.063,0.26-0.192,0.31v0.003
				c0.131,0.032,0.17,0.179,0.179,0.296c0.004,0.052,0.01,0.233,0.053,0.278h-0.319c-0.025-0.041-0.031-0.162-0.035-0.197
				c-0.008-0.123-0.03-0.252-0.182-0.252h-0.242v0.449h-0.32V30.416z M68.239,30.951h0.271c0.097,0,0.147-0.053,0.147-0.146
				c0-0.092-0.07-0.134-0.16-0.134h-0.258V30.951z"/>
		</g>
		<path fill="#464D5A" d="M68.469,32.454c-0.783,0-1.424-0.638-1.424-1.422s0.641-1.422,1.424-1.422
			c0.782,0,1.422,0.638,1.422,1.422S69.251,32.454,68.469,32.454z M68.469,29.992c-0.574,0-1.041,0.467-1.041,1.04
			s0.467,1.04,1.041,1.04c0.573,0,1.039-0.467,1.039-1.04S69.042,29.992,68.469,29.992z"/>
	</g>
	<path fill="#464D5A" d="M40.367,21.054c0,0,8.48-4.841,19.293-2.456c11.111,2.451,19.789,11.567,20.342,22.922
		c0.578,11.838-7.225,21.01-16.013,24.543c0,0,11.428-5.854,13.051-17.505c1.624-11.651-3.343-17.571-6.494-21.2
		C67.394,23.728,55.554,15.133,40.367,21.054z"/>
</g>
</svg>
