<?xml version="1.0" encoding="UTF-8"?>
<svg width="75px" height="75px" viewBox="0 0 75 75" version="1.1" xmlns="http://www.w3.org/2000/svg" xmlns:xlink="http://www.w3.org/1999/xlink">
    <!-- Generator: Sketch 46.2 (44496) - http://www.bohemiancoding.com/sketch -->
    <title>icon-MicroCoils</title>
    <desc>Created with Sketch.</desc>
    <defs>
        <polygon id="path-1" points="41.189 0.8461 41.189 24 0 24 0 0.8461"></polygon>
        <polygon id="path-3" points="41.189 23.1915 41.189 0.0375 0 0.0375 5.42101086e-20 23.1915 41.189 23.1915"></polygon>
        <polygon id="path-5" points="41.189 23.3829 41.189 0.2289 0 0.2289 5.42101086e-20 23.3829 41.189 23.3829"></polygon>
        <polygon id="path-7" points="41.189 23.5743 41.189 0.4203 0 0.4203 5.42101086e-20 23.5743 41.189 23.5743"></polygon>
        <polygon id="path-9" points="41.189 23.7657 41.189 0.6117 0 0.6117 5.42101086e-20 23.7657 41.189 23.7657"></polygon>
        <polygon id="path-11" points="41.189 23.9561 41.189 0.8031 0 0.8031 5.42101086e-20 23.9561 41.189 23.9561"></polygon>
    </defs>
    <g id="Page-1" stroke="none" stroke-width="1" fill="none" fill-rule="evenodd">
        <g id="icon-MicroCoils">
            <g transform="translate(17.000000, 3.000000)">
                <g id="Group-3" transform="translate(0.000000, 44.197300)">
                    <mask id="mask-2" fill="white">
                        <use xlink:href="#path-1"></use>
                    </mask>
                    <g id="Clip-2"></g>
                    <path d="M20.6016,4.6871 C16.8656,4.7611 13.5766,5.3001 10.5516,6.3341 C8.7396,6.9611 7.2076,7.7161 5.8736,8.6421 C5.3446,9.0181 4.5626,9.6131 3.9626,10.3701 C3.4706,10.9561 3.2916,11.5101 3.2796,11.6481 C3.2996,11.8001 3.5056,12.3061 3.9906,12.8131 C4.4766,13.3491 5.0916,13.8291 5.9446,14.3411 C7.5406,15.2851 9.2856,15.8311 10.6266,16.2011 C13.5026,16.9631 16.6636,17.3501 20.0146,17.3501 L20.5876,17.3461 C24.6566,17.2621 27.7346,16.8961 30.5656,16.1621 C32.4796,15.6721 33.9686,15.0951 35.2536,14.3441 C36.0996,13.8341 36.7146,13.3531 37.1836,12.8351 C37.6836,12.3091 37.8886,11.8041 37.9076,11.6511 C37.8976,11.5131 37.7176,10.9591 37.2446,10.3971 C36.7656,9.7961 36.1576,9.2471 35.3076,8.6451 C34.0046,7.7311 32.5176,6.9831 30.6296,6.2941 C27.5576,5.2271 24.3146,4.6851 20.9986,4.6851 L20.6016,4.6871 Z M20.5876,23.9981 C16.6326,23.9191 13.1376,23.3461 9.8996,22.2451 C7.8436,21.5351 6.1626,20.7061 4.6066,19.6361 C3.7956,19.0601 2.8586,18.3311 1.9796,17.2471 C1.4526,16.6031 1.0486,15.9501 0.7176,15.1961 C0.2436,14.1311 -0.0124,12.8861 -0.0004,11.6961 C0.0156,10.5041 0.2996,9.2851 0.8006,8.2601 C1.1466,7.5441 1.5606,6.9311 2.1026,6.3361 C2.9926,5.3481 3.9386,4.7081 4.7476,4.2141 C6.5986,3.1151 8.4586,2.5181 10.0366,2.0791 C13.1586,1.2491 16.4226,0.8461 20.0246,0.8461 L20.6016,0.8491 C24.8716,0.9361 28.1206,1.3261 31.1386,2.1141 C33.2956,2.6731 34.9296,3.3171 36.4336,4.2011 C37.2506,4.7011 38.1966,5.3411 39.0916,6.3371 C39.6316,6.9331 40.0456,7.5461 40.3926,8.2641 C40.8906,9.2871 41.1736,10.5061 41.1896,11.6931 C41.2026,12.8841 40.9466,14.1291 40.4686,15.2011 C40.1406,15.9421 39.7276,16.6131 39.2046,17.2491 C38.3296,18.3271 37.3916,19.0541 36.5906,19.6231 C35.0806,20.6711 33.4036,21.5131 31.3066,22.2771 C27.9926,23.4211 24.5256,24.0001 20.9946,24.0001 L20.5876,23.9981 Z" id="Fill-1" fill="#FFFFFF" mask="url(#mask-2)"></path>
                </g>
                <path d="M38.7393,55.9171 C38.7763,55.2231 38.3573,54.2591 37.7413,53.5271 C37.1393,52.7701 36.3993,52.1621 35.6453,51.6261 C34.1233,50.5581 32.4773,49.8011 30.8153,49.1941 C27.4763,48.0351 24.0303,47.5091 20.5943,47.5541 C17.1603,47.6221 13.7183,48.0891 10.3783,49.2311 C8.7143,49.8061 7.0673,50.5601 5.5423,51.6191 C4.7873,52.1561 4.0483,52.7651 3.4473,53.5231 C2.8303,54.2571 2.4123,55.2231 2.4503,55.9171 C2.4663,56.6051 2.9043,57.4631 3.5333,58.1231 C4.1463,58.7991 4.8923,59.3281 5.6513,59.7841 C7.1823,60.6891 8.8323,61.2531 10.4853,61.7091 C13.8053,62.5891 17.2063,62.9171 20.5943,62.8731 C23.9813,62.8041 27.3783,62.5351 30.6993,61.6731 C32.3553,61.2491 34.0063,60.6871 35.5403,59.7911 C36.2983,59.3341 37.0443,58.8041 37.6573,58.1261 C38.2863,57.4651 38.7243,56.6051 38.7393,55.9171 M40.3563,55.9171 C40.3673,56.9551 40.1083,57.9131 39.7903,58.6261 C39.4683,59.3541 39.0893,59.9141 38.7003,60.3881 C37.9193,61.3501 37.0883,62.0111 36.2523,62.6041 C34.5763,63.7681 32.8543,64.5461 31.1213,65.1771 C27.6473,66.3761 24.1173,66.9081 20.5943,66.8641 C17.0733,66.7951 13.5473,66.3231 10.0723,65.1411 C8.3373,64.5421 6.6143,63.7661 4.9353,62.6111 C4.0993,62.0171 3.2683,61.3541 2.4883,60.3921 C2.0983,59.9171 1.7183,59.3561 1.3983,58.6281 C1.0803,57.9141 0.8213,56.9551 0.8333,55.9171 C0.8463,54.8791 1.1263,53.9531 1.4573,53.2751 C1.7913,52.5841 2.1783,52.0651 2.5743,51.6301 C3.3673,50.7491 4.2053,50.1671 5.0453,49.6541 C6.7303,48.6531 8.4553,48.0671 10.1793,47.5871 C13.6353,46.6671 17.1193,46.3341 20.5943,46.3761 C24.0683,46.4481 27.5493,46.7221 31.0053,47.6241 C32.7323,48.0721 34.4593,48.6551 36.1463,49.6471 C36.9863,50.1621 37.8243,50.7451 38.6163,51.6271 C39.0113,52.0631 39.3993,52.5821 39.7333,53.2741 C40.0643,53.9521 40.3433,54.8791 40.3563,55.9171" id="Fill-4" fill="#414A59"></path>
                <g id="Group-8" transform="translate(0.000000, 36.197300)">
                    <mask id="mask-4" fill="white">
                        <use xlink:href="#path-3"></use>
                    </mask>
                    <g id="Clip-7"></g>
                    <path d="M20.6016,3.8785 C16.8656,3.9525 13.5766,4.4915 10.5516,5.5255 C8.7396,6.1525 7.2076,6.9075 5.8736,7.8335 C5.3446,8.2095 4.5626,8.8045 3.9626,9.5615 C3.4706,10.1475 3.2916,10.7015 3.2796,10.8395 C3.2996,10.9915 3.5056,11.4975 3.9906,12.0045 C4.4766,12.5405 5.0916,13.0205 5.9446,13.5325 C7.5406,14.4765 9.2856,15.0225 10.6266,15.3925 C13.5026,16.1545 16.6636,16.5415 20.0146,16.5415 L20.5876,16.5375 C24.6566,16.4535 27.7346,16.0875 30.5656,15.3535 C32.4796,14.8635 33.9686,14.2865 35.2536,13.5355 C36.0996,13.0255 36.7146,12.5445 37.1836,12.0265 C37.6836,11.5005 37.8886,10.9945 37.9076,10.8425 C37.8976,10.7035 37.7176,10.1505 37.2446,9.5885 C36.7656,8.9875 36.1576,8.4385 35.3076,7.8365 C34.0046,6.9225 32.5176,6.1745 30.6296,5.4855 C27.5576,4.4185 24.3146,3.8765 20.9986,3.8765 L20.6016,3.8785 Z M20.5876,23.1885 C16.6326,23.1105 13.1376,22.5375 9.8996,21.4365 C7.8436,20.7265 6.1626,19.8975 4.6066,18.8275 C3.7956,18.2515 2.8586,17.5225 1.9796,16.4385 C1.4526,15.7945 1.0486,15.1415 0.7176,14.3875 C0.2436,13.3225 -0.0124,12.0775 -0.0004,10.8875 C0.0156,9.6955 0.2996,8.4765 0.8006,7.4515 C1.1466,6.7355 1.5606,6.1225 2.1026,5.5275 C2.9926,4.5395 3.9386,3.8995 4.7476,3.4055 C6.5986,2.3065 8.4586,1.7095 10.0366,1.2705 C13.1586,0.4405 16.4226,0.0375 20.0246,0.0375 L20.6016,0.0405 C24.8716,0.1275 28.1206,0.5175 31.1386,1.3055 C33.2956,1.8645 34.9296,2.5085 36.4336,3.3925 C37.2506,3.8925 38.1966,4.5325 39.0916,5.5285 C39.6316,6.1245 40.0456,6.7375 40.3926,7.4555 C40.8906,8.4785 41.1736,9.6975 41.1896,10.8845 C41.2026,12.0755 40.9466,13.3205 40.4686,14.3925 C40.1406,15.1335 39.7276,15.8045 39.2046,16.4405 C38.3296,17.5185 37.3916,18.2455 36.5906,18.8145 C35.0806,19.8625 33.4036,20.7045 31.3066,21.4685 C27.9926,22.6125 24.5256,23.1915 20.9946,23.1915 L20.5876,23.1885 Z" id="Fill-6" fill="#FFFFFF" mask="url(#mask-4)"></path>
                </g>
                <path d="M38.7393,47.1085 C38.7763,46.4145 38.3573,45.4505 37.7413,44.7185 C37.1393,43.9615 36.3993,43.3535 35.6453,42.8175 C34.1233,41.7495 32.4773,40.9925 30.8153,40.3855 C27.4763,39.2265 24.0303,38.7005 20.5943,38.7455 C17.1603,38.8135 13.7183,39.2805 10.3783,40.4225 C8.7143,40.9975 7.0673,41.7515 5.5423,42.8105 C4.7873,43.3475 4.0483,43.9565 3.4473,44.7145 C2.8303,45.4485 2.4123,46.4145 2.4503,47.1085 C2.4663,47.7965 2.9043,48.6545 3.5333,49.3145 C4.1463,49.9905 4.8923,50.5195 5.6513,50.9755 C7.1823,51.8805 8.8323,52.4445 10.4853,52.9005 C13.8053,53.7805 17.2063,54.1085 20.5943,54.0645 C23.9813,53.9955 27.3783,53.7265 30.6993,52.8645 C32.3553,52.4405 34.0063,51.8785 35.5403,50.9825 C36.2983,50.5255 37.0443,49.9955 37.6573,49.3175 C38.2863,48.6565 38.7243,47.7965 38.7393,47.1085 M40.3563,47.1085 C40.3673,48.1465 40.1083,49.1045 39.7903,49.8175 C39.4683,50.5455 39.0893,51.1055 38.7003,51.5795 C37.9193,52.5415 37.0883,53.2025 36.2523,53.7955 C34.5763,54.9595 32.8543,55.7375 31.1213,56.3685 C27.6473,57.5675 24.1173,58.0995 20.5943,58.0555 C17.0733,57.9865 13.5473,57.5145 10.0723,56.3325 C8.3373,55.7335 6.6143,54.9575 4.9353,53.8025 C4.0993,53.2085 3.2683,52.5455 2.4883,51.5835 C2.0983,51.1085 1.7183,50.5475 1.3983,49.8185 C1.0803,49.1055 0.8213,48.1465 0.8333,47.1085 C0.8463,46.0705 1.1263,45.1445 1.4573,44.4665 C1.7913,43.7755 2.1783,43.2565 2.5743,42.8215 C3.3673,41.9405 4.2053,41.3585 5.0453,40.8455 C6.7303,39.8445 8.4553,39.2585 10.1793,38.7785 C13.6353,37.8585 17.1193,37.5255 20.5943,37.5675 C24.0683,37.6385 27.5493,37.9135 31.0053,38.8155 C32.7323,39.2635 34.4593,39.8465 36.1463,40.8385 C36.9863,41.3535 37.8243,41.9365 38.6163,42.8175 C39.0113,43.2535 39.3993,43.7735 39.7333,44.4655 C40.0643,45.1435 40.3433,46.0705 40.3563,47.1085" id="Fill-9" fill="#414A59"></path>
                <g id="Group-13" transform="translate(0.000000, 27.197300)">
                    <mask id="mask-6" fill="white">
                        <use xlink:href="#path-5"></use>
                    </mask>
                    <g id="Clip-12"></g>
                    <path d="M20.6016,4.0699 C16.8656,4.1439 13.5766,4.6829 10.5516,5.7169 C8.7396,6.3439 7.2076,7.0989 5.8736,8.0249 C5.3446,8.4009 4.5626,8.9959 3.9626,9.7529 C3.4706,10.3389 3.2916,10.8929 3.2796,11.0309 C3.2996,11.1829 3.5056,11.6889 3.9906,12.1959 C4.4766,12.7319 5.0916,13.2119 5.9446,13.7239 C7.5406,14.6679 9.2856,15.2139 10.6266,15.5839 C13.5026,16.3459 16.6636,16.7329 20.0146,16.7329 L20.5876,16.7289 C24.6566,16.6449 27.7346,16.2789 30.5656,15.5449 C32.4796,15.0549 33.9686,14.4779 35.2536,13.7269 C36.0996,13.2169 36.7146,12.7359 37.1836,12.2179 C37.6836,11.6919 37.8886,11.1859 37.9076,11.0339 C37.8976,10.8949 37.7176,10.3419 37.2446,9.7799 C36.7656,9.1789 36.1576,8.6299 35.3076,8.0279 C34.0046,7.1139 32.5176,6.3659 30.6296,5.6769 C27.5576,4.6099 24.3146,4.0679 20.9986,4.0679 L20.6016,4.0699 Z M20.5876,23.3799 C16.6326,23.3019 13.1376,22.7289 9.8996,21.6279 C7.8436,20.9179 6.1626,20.0889 4.6066,19.0189 C3.7956,18.4429 2.8586,17.7139 1.9796,16.6299 C1.4526,15.9859 1.0486,15.3319 0.7176,14.5789 C0.2436,13.5139 -0.0124,12.2689 -0.0004,11.0789 C0.0156,9.8869 0.2996,8.6679 0.8006,7.6419 C1.1466,6.9269 1.5606,6.3139 2.1026,5.7189 C2.9926,4.7309 3.9386,4.0909 4.7476,3.5969 C6.5986,2.4979 8.4586,1.9009 10.0366,1.4619 C13.1586,0.6319 16.4226,0.2289 20.0246,0.2289 L20.6016,0.2319 C24.8716,0.3189 28.1206,0.7089 31.1386,1.4969 C33.2956,2.0559 34.9296,2.6999 36.4336,3.5839 C37.2506,4.0839 38.1966,4.7239 39.0916,5.7199 C39.6316,6.3159 40.0456,6.9289 40.3926,7.6469 C40.8906,8.6699 41.1736,9.8889 41.1896,11.0759 C41.2026,12.2669 40.9466,13.5119 40.4686,14.5839 C40.1406,15.3239 39.7276,15.9959 39.2046,16.6319 C38.3296,17.7099 37.3916,18.4369 36.5906,19.0059 C35.0806,20.0539 33.4036,20.8959 31.3066,21.6599 C27.9926,22.8039 24.5256,23.3829 20.9946,23.3829 L20.5876,23.3799 Z" id="Fill-11" fill="#FFFFFF" mask="url(#mask-6)"></path>
                </g>
                <path d="M38.7393,38.2999 C38.7763,37.6059 38.3573,36.6419 37.7413,35.9099 C37.1393,35.1529 36.3993,34.5449 35.6453,34.0089 C34.1233,32.9409 32.4773,32.1839 30.8153,31.5769 C27.4763,30.4179 24.0303,29.8919 20.5943,29.9369 C17.1603,30.0049 13.7183,30.4719 10.3783,31.6129 C8.7143,32.1889 7.0673,32.9429 5.5423,34.0019 C4.7873,34.5389 4.0483,35.1479 3.4473,35.9059 C2.8303,36.6399 2.4123,37.6059 2.4503,38.2999 C2.4663,38.9879 2.9043,39.8459 3.5333,40.5059 C4.1463,41.1819 4.8923,41.7109 5.6513,42.1669 C7.1823,43.0719 8.8323,43.6359 10.4853,44.0919 C13.8053,44.9719 17.2063,45.2999 20.5943,45.2559 C23.9813,45.1859 27.3783,44.9179 30.6993,44.0559 C32.3553,43.6319 34.0063,43.0699 35.5403,42.1739 C36.2983,41.7169 37.0443,41.1869 37.6573,40.5089 C38.2863,39.8479 38.7243,38.9879 38.7393,38.2999 M40.3563,38.2999 C40.3673,39.3379 40.1083,40.2959 39.7903,41.0089 C39.4683,41.7369 39.0893,42.2969 38.7003,42.7709 C37.9193,43.7329 37.0883,44.3939 36.2523,44.9869 C34.5763,46.1509 32.8543,46.9289 31.1213,47.5599 C27.6473,48.7589 24.1173,49.2909 20.5943,49.2469 C17.0733,49.1769 13.5473,48.7059 10.0723,47.5239 C8.3373,46.9249 6.6143,46.1489 4.9353,44.9939 C4.0993,44.3999 3.2683,43.7369 2.4883,42.7749 C2.0983,42.2999 1.7183,41.7389 1.3983,41.0099 C1.0803,40.2969 0.8213,39.3379 0.8333,38.2999 C0.8463,37.2619 1.1263,36.3359 1.4573,35.6579 C1.7913,34.9669 2.1783,34.4479 2.5743,34.0129 C3.3673,33.1319 4.2053,32.5499 5.0453,32.0369 C6.7303,31.0359 8.4553,30.4499 10.1793,29.9699 C13.6353,29.0499 17.1193,28.7169 20.5943,28.7589 C24.0683,28.8299 27.5493,29.1049 31.0053,30.0069 C32.7323,30.4549 34.4593,31.0379 36.1463,32.0299 C36.9863,32.5449 37.8243,33.1279 38.6163,34.0089 C39.0113,34.4449 39.3993,34.9649 39.7333,35.6569 C40.0643,36.3349 40.3433,37.2619 40.3563,38.2999" id="Fill-14" fill="#414A59"></path>
                <g id="Group-18" transform="translate(0.000000, 18.197300)">
                    <mask id="mask-8" fill="white">
                        <use xlink:href="#path-7"></use>
                    </mask>
                    <g id="Clip-17"></g>
                    <path d="M20.6016,4.2613 C16.8656,4.3353 13.5766,4.8743 10.5516,5.9083 C8.7396,6.5353 7.2076,7.2903 5.8736,8.2163 C5.3446,8.5923 4.5626,9.1873 3.9626,9.9443 C3.4706,10.5303 3.2916,11.0843 3.2796,11.2223 C3.2996,11.3743 3.5056,11.8803 3.9906,12.3873 C4.4766,12.9233 5.0916,13.4033 5.9446,13.9153 C7.5406,14.8593 9.2856,15.4053 10.6266,15.7753 C13.5026,16.5373 16.6636,16.9243 20.0146,16.9243 L20.5876,16.9203 C24.6566,16.8353 27.7346,16.4703 30.5656,15.7363 C32.4796,15.2463 33.9686,14.6693 35.2536,13.9183 C36.0996,13.4083 36.7146,12.9273 37.1836,12.4093 C37.6836,11.8833 37.8886,11.3773 37.9076,11.2253 C37.8976,11.0863 37.7176,10.5333 37.2446,9.9713 C36.7656,9.3703 36.1576,8.8213 35.3076,8.2193 C34.0046,7.3053 32.5176,6.5573 30.6296,5.8683 C27.5576,4.8013 24.3146,4.2593 20.9986,4.2593 L20.6016,4.2613 Z M20.5876,23.5713 C16.6326,23.4933 13.1376,22.9203 9.8996,21.8193 C7.8436,21.1093 6.1626,20.2803 4.6066,19.2103 C3.7956,18.6343 2.8586,17.9053 1.9796,16.8213 C1.4526,16.1773 1.0486,15.5233 0.7176,14.7703 C0.2436,13.7053 -0.0124,12.4603 -0.0004,11.2703 C0.0156,10.0783 0.2996,8.8593 0.8006,7.8333 C1.1466,7.1173 1.5606,6.5053 2.1026,5.9103 C2.9926,4.9223 3.9386,4.2823 4.7476,3.7883 C6.5986,2.6893 8.4586,2.0923 10.0366,1.6533 C13.1586,0.8233 16.4226,0.4203 20.0246,0.4203 L20.6016,0.4233 C24.8716,0.5103 28.1206,0.9003 31.1386,1.6873 C33.2956,2.2473 34.9296,2.8913 36.4336,3.7753 C37.2506,4.2753 38.1966,4.9153 39.0916,5.9113 C39.6316,6.5073 40.0456,7.1193 40.3926,7.8383 C40.8906,8.8613 41.1736,10.0793 41.1896,11.2673 C41.2026,12.4583 40.9466,13.7033 40.4686,14.7753 C40.1406,15.5153 39.7276,16.1873 39.2046,16.8233 C38.3296,17.9013 37.3916,18.6283 36.5906,19.1973 C35.0806,20.2453 33.4036,21.0873 31.3066,21.8513 C27.9926,22.9953 24.5256,23.5743 20.9946,23.5743 L20.5876,23.5713 Z" id="Fill-16" fill="#FFFFFF" mask="url(#mask-8)"></path>
                </g>
                <path d="M38.7393,29.4913 C38.7763,28.7973 38.3573,27.8333 37.7413,27.1013 C37.1393,26.3443 36.3993,25.7363 35.6453,25.2003 C34.1233,24.1323 32.4773,23.3753 30.8153,22.7683 C27.4763,21.6093 24.0303,21.0833 20.5943,21.1283 C17.1603,21.1963 13.7183,21.6633 10.3783,22.8043 C8.7143,23.3803 7.0673,24.1343 5.5423,25.1923 C4.7873,25.7293 4.0483,26.3393 3.4473,27.0973 C2.8303,27.8313 2.4123,28.7973 2.4503,29.4913 C2.4663,30.1793 2.9043,31.0373 3.5333,31.6973 C4.1463,32.3733 4.8923,32.9023 5.6513,33.3583 C7.1823,34.2633 8.8323,34.8273 10.4853,35.2833 C13.8053,36.1623 17.2063,36.4913 20.5943,36.4473 C23.9813,36.3773 27.3783,36.1093 30.6993,35.2473 C32.3553,34.8233 34.0063,34.2613 35.5403,33.3653 C36.2983,32.9083 37.0443,32.3783 37.6573,31.7003 C38.2863,31.0393 38.7243,30.1793 38.7393,29.4913 M40.3563,29.4913 C40.3673,30.5293 40.1083,31.4873 39.7903,32.2003 C39.4683,32.9283 39.0893,33.4883 38.7003,33.9623 C37.9193,34.9243 37.0883,35.5853 36.2523,36.1783 C34.5763,37.3423 32.8543,38.1203 31.1213,38.7513 C27.6473,39.9503 24.1173,40.4813 20.5943,40.4383 C17.0733,40.3683 13.5473,39.8963 10.0723,38.7153 C8.3373,38.1163 6.6143,37.3403 4.9353,36.1853 C4.0993,35.5913 3.2683,34.9283 2.4883,33.9663 C2.0983,33.4913 1.7183,32.9303 1.3983,32.2013 C1.0803,31.4883 0.8213,30.5293 0.8333,29.4913 C0.8463,28.4533 1.1263,27.5273 1.4573,26.8493 C1.7913,26.1583 2.1783,25.6383 2.5743,25.2043 C3.3673,24.3233 4.2053,23.7413 5.0453,23.2283 C6.7303,22.2273 8.4553,21.6413 10.1793,21.1613 C13.6353,20.2413 17.1193,19.9083 20.5943,19.9503 C24.0683,20.0213 27.5493,20.2963 31.0053,21.1983 C32.7323,21.6463 34.4593,22.2293 36.1463,23.2213 C36.9863,23.7363 37.8243,24.3193 38.6163,25.2003 C39.0113,25.6363 39.3993,26.1563 39.7333,26.8483 C40.0643,27.5263 40.3433,28.4533 40.3563,29.4913" id="Fill-19" fill="#414A59"></path>
                <g id="Group-23" transform="translate(0.000000, 9.197300)">
                    <mask id="mask-10" fill="white">
                        <use xlink:href="#path-9"></use>
                    </mask>
                    <g id="Clip-22"></g>
                    <path d="M20.6016,4.4527 C16.8656,4.5267 13.5766,5.0657 10.5516,6.0997 C8.7396,6.7267 7.2076,7.4817 5.8736,8.4077 C5.3446,8.7837 4.5626,9.3787 3.9626,10.1357 C3.4706,10.7217 3.2916,11.2757 3.2796,11.4137 C3.2996,11.5657 3.5056,12.0717 3.9906,12.5787 C4.4766,13.1147 5.0916,13.5947 5.9446,14.1067 C7.5406,15.0507 9.2856,15.5967 10.6266,15.9667 C13.5026,16.7287 16.6636,17.1157 20.0146,17.1157 L20.5876,17.1117 C24.6566,17.0267 27.7346,16.6617 30.5656,15.9277 C32.4796,15.4377 33.9686,14.8607 35.2536,14.1097 C36.0996,13.5997 36.7146,13.1187 37.1836,12.6007 C37.6836,12.0747 37.8886,11.5687 37.9076,11.4167 C37.8976,11.2777 37.7176,10.7247 37.2446,10.1627 C36.7656,9.5617 36.1576,9.0127 35.3076,8.4107 C34.0046,7.4967 32.5176,6.7487 30.6296,6.0597 C27.5576,4.9927 24.3146,4.4507 20.9986,4.4507 L20.6016,4.4527 Z M20.5876,23.7627 C16.6326,23.6847 13.1376,23.1117 9.8996,22.0107 C7.8436,21.3007 6.1626,20.4717 4.6066,19.4017 C3.7956,18.8257 2.8586,18.0967 1.9796,17.0127 C1.4526,16.3687 1.0486,15.7147 0.7176,14.9617 C0.2436,13.8967 -0.0124,12.6517 -0.0004,11.4617 C0.0156,10.2697 0.2996,9.0497 0.8006,8.0247 C1.1466,7.3087 1.5606,6.6967 2.1026,6.1017 C2.9926,5.1137 3.9386,4.4737 4.7476,3.9797 C6.5986,2.8807 8.4586,2.2837 10.0366,1.8447 C13.1586,1.0137 16.4226,0.6117 20.0246,0.6117 L20.6016,0.6147 C24.8716,0.7017 28.1206,1.0917 31.1386,1.8787 C33.2956,2.4387 34.9296,3.0827 36.4336,3.9667 C37.2506,4.4667 38.1966,5.1067 39.0916,6.1027 C39.6316,6.6987 40.0456,7.3107 40.3926,8.0297 C40.8906,9.0517 41.1736,10.2707 41.1896,11.4587 C41.2026,12.6497 40.9466,13.8947 40.4686,14.9667 C40.1406,15.7067 39.7276,16.3777 39.2046,17.0147 C38.3296,18.0927 37.3916,18.8197 36.5906,19.3887 C35.0806,20.4367 33.4036,21.2787 31.3066,22.0427 C27.9926,23.1867 24.5256,23.7657 20.9946,23.7657 L20.5876,23.7627 Z" id="Fill-21" fill="#FFFFFF" mask="url(#mask-10)"></path>
                </g>
                <path d="M38.7393,20.6827 C38.7763,19.9887 38.3573,19.0247 37.7413,18.2927 C37.1393,17.5357 36.3993,16.9277 35.6453,16.3917 C34.1233,15.3237 32.4773,14.5667 30.8153,13.9597 C27.4763,12.8007 24.0303,12.2747 20.5943,12.3197 C17.1603,12.3877 13.7183,12.8547 10.3783,13.9957 C8.7143,14.5717 7.0673,15.3257 5.5423,16.3837 C4.7873,16.9207 4.0483,17.5307 3.4473,18.2887 C2.8303,19.0227 2.4123,19.9887 2.4503,20.6827 C2.4663,21.3707 2.9043,22.2287 3.5333,22.8887 C4.1463,23.5647 4.8923,24.0937 5.6513,24.5497 C7.1823,25.4547 8.8323,26.0187 10.4853,26.4747 C13.8053,27.3537 17.2063,27.6817 20.5943,27.6387 C23.9813,27.5687 27.3783,27.3007 30.6993,26.4377 C32.3553,26.0147 34.0063,25.4527 35.5403,24.5567 C36.2983,24.0997 37.0443,23.5697 37.6573,22.8917 C38.2863,22.2307 38.7243,21.3707 38.7393,20.6827 M40.3563,20.6827 C40.3673,21.7207 40.1083,22.6787 39.7903,23.3917 C39.4683,24.1197 39.0893,24.6797 38.7003,25.1537 C37.9193,26.1147 37.0883,26.7767 36.2523,27.3697 C34.5763,28.5337 32.8543,29.3117 31.1213,29.9427 C27.6473,31.1417 24.1173,31.6727 20.5943,31.6297 C17.0733,31.5597 13.5473,31.0877 10.0723,29.9067 C8.3373,29.3077 6.6143,28.5317 4.9353,27.3767 C4.0993,26.7827 3.2683,26.1197 2.4883,25.1577 C2.0983,24.6827 1.7183,24.1217 1.3983,23.3927 C1.0803,22.6797 0.8213,21.7207 0.8333,20.6827 C0.8463,19.6447 1.1263,18.7177 1.4573,18.0407 C1.7913,17.3497 2.1783,16.8297 2.5743,16.3957 C3.3673,15.5147 4.2053,14.9327 5.0453,14.4197 C6.7303,13.4187 8.4553,12.8327 10.1793,12.3527 C13.6353,11.4327 17.1193,11.0997 20.5943,11.1417 C24.0683,11.2127 27.5493,11.4877 31.0053,12.3897 C32.7323,12.8377 34.4593,13.4207 36.1463,14.4127 C36.9863,14.9277 37.8243,15.5107 38.6163,16.3917 C39.0113,16.8277 39.3993,17.3477 39.7333,18.0397 C40.0643,18.7177 40.3433,19.6447 40.3563,20.6827" id="Fill-24" fill="#414A59"></path>
                <g id="Group-28" transform="translate(0.000000, 0.197300)">
                    <mask id="mask-12" fill="white">
                        <use xlink:href="#path-11"></use>
                    </mask>
                    <g id="Clip-27"></g>
                    <path d="M20.6016,4.6441 C16.8656,4.7181 13.5766,5.2571 10.5516,6.2911 C8.7396,6.9181 7.2076,7.6731 5.8736,8.5981 C5.3446,8.9751 4.5626,9.5701 3.9626,10.3271 C3.4706,10.9131 3.2916,11.4671 3.2796,11.6051 C3.2996,11.7571 3.5056,12.2621 3.9906,12.7701 C4.4766,13.3061 5.0916,13.7861 5.9446,14.2981 C7.5406,15.2421 9.2856,15.7881 10.6266,16.1581 C13.5026,16.9191 16.6636,17.3071 20.0146,17.3071 L20.5876,17.3031 C24.6566,17.2181 27.7346,16.8531 30.5656,16.1191 C32.4796,15.6291 33.9686,15.0521 35.2536,14.3011 C36.0996,13.7911 36.7146,13.3101 37.1836,12.7921 C37.6836,12.2661 37.8886,11.7601 37.9076,11.6081 C37.8976,11.4691 37.7176,10.9161 37.2446,10.3541 C36.7656,9.7531 36.1576,9.2041 35.3076,8.6021 C34.0046,7.6871 32.5176,6.9401 30.6296,6.2511 C27.5576,5.1841 24.3146,4.6421 20.9986,4.6421 L20.6016,4.6441 Z M20.5876,23.9541 C16.6326,23.8761 13.1376,23.3031 9.8996,22.2021 C7.8436,21.4921 6.1626,20.6631 4.6066,19.5921 C3.7956,19.0171 2.8586,18.2881 1.9796,17.2041 C1.4526,16.5601 1.0486,15.9061 0.7176,15.1531 C0.2436,14.0871 -0.0124,12.8431 -0.0004,11.6531 C0.0156,10.4611 0.2996,9.2411 0.8006,8.2161 C1.1466,7.5001 1.5606,6.8881 2.1026,6.2931 C2.9926,5.3051 3.9386,4.6651 4.7476,4.1711 C6.5986,3.0721 8.4586,2.4751 10.0366,2.0361 C13.1586,1.2051 16.4226,0.8031 20.0246,0.8031 L20.6016,0.8061 C24.8716,0.8931 28.1206,1.2831 31.1386,2.0701 C33.2956,2.6301 34.9296,3.2741 36.4336,4.1581 C37.2506,4.6581 38.1966,5.2981 39.0916,6.2941 C39.6316,6.8901 40.0456,7.5021 40.3926,8.2211 C40.8906,9.2431 41.1736,10.4621 41.1896,11.6501 C41.2026,12.8411 40.9466,14.0861 40.4686,15.1571 C40.1406,15.8981 39.7276,16.5691 39.2046,17.2061 C38.3296,18.2841 37.3916,19.0111 36.5906,19.5801 C35.0806,20.6281 33.4036,21.4701 31.3066,22.2341 C27.9926,23.3781 24.5256,23.9561 20.9946,23.9561 L20.5876,23.9541 Z" id="Fill-26" fill="#FFFFFF" mask="url(#mask-12)"></path>
                </g>
                <path d="M38.7393,11.8741 C38.7763,11.1801 38.3573,10.2161 37.7413,9.4841 C37.1393,8.7271 36.3993,8.1191 35.6453,7.5821 C34.1233,6.5151 32.4773,5.7581 30.8153,5.1511 C27.4763,3.9921 24.0303,3.4661 20.5943,3.5111 C17.1603,3.5791 13.7183,4.0461 10.3783,5.1871 C8.7143,5.7631 7.0673,6.5171 5.5423,7.5751 C4.7873,8.1121 4.0483,8.7221 3.4473,9.4801 C2.8303,10.2141 2.4123,11.1801 2.4503,11.8741 C2.4663,12.5621 2.9043,13.4201 3.5333,14.0801 C4.1463,14.7561 4.8923,15.2851 5.6513,15.7411 C7.1823,16.6461 8.8323,17.2101 10.4853,17.6661 C13.8053,18.5451 17.2063,18.8731 20.5943,18.8301 C23.9813,18.7601 27.3783,18.4921 30.6993,17.6291 C32.3553,17.2051 34.0063,16.6441 35.5403,15.7481 C36.2983,15.2911 37.0443,14.7611 37.6573,14.0831 C38.2863,13.4221 38.7243,12.5621 38.7393,11.8741 M40.3563,11.8741 C40.3673,12.9121 40.1083,13.8701 39.7903,14.5831 C39.4683,15.3111 39.0893,15.8711 38.7003,16.3451 C37.9193,17.3061 37.0883,17.9681 36.2523,18.5611 C34.5763,19.7251 32.8543,20.5031 31.1213,21.1341 C27.6473,22.3331 24.1173,22.8641 20.5943,22.8211 C17.0733,22.7511 13.5473,22.2791 10.0723,21.0981 C8.3373,20.4991 6.6143,19.7231 4.9353,18.5681 C4.0993,17.9741 3.2683,17.3111 2.4883,16.3481 C2.0983,15.8741 1.7183,15.3131 1.3983,14.5841 C1.0803,13.8711 0.8213,12.9121 0.8333,11.8741 C0.8463,10.8351 1.1263,9.9091 1.4573,9.2321 C1.7913,8.5411 2.1783,8.0211 2.5743,7.5871 C3.3673,6.7061 4.2053,6.1241 5.0453,5.6111 C6.7303,4.6101 8.4553,4.0241 10.1793,3.5441 C13.6353,2.6241 17.1193,2.2911 20.5943,2.3331 C24.0683,2.4041 27.5493,2.6791 31.0053,3.5801 C32.7323,4.0291 34.4593,4.6121 36.1463,5.6041 C36.9863,6.1191 37.8243,6.7021 38.6163,7.5831 C39.0113,8.0191 39.3993,8.5391 39.7333,9.2311 C40.0643,9.9091 40.3433,10.8351 40.3563,11.8741" id="Fill-29" fill="#414A59"></path>
            </g>
        </g>
    </g>
</svg>