<?xml version="1.0" encoding="UTF-8"?>
<svg width="75px" height="75px" viewBox="0 0 75 75" version="1.1" xmlns="http://www.w3.org/2000/svg" xmlns:xlink="http://www.w3.org/1999/xlink">
    <!-- Generator: Sketch 46.2 (44496) - http://www.bohemiancoding.com/sketch -->
    <title>icon-EcoFriendly</title>
    <desc>Created with Sketch.</desc>
    <defs></defs>
    <g id="Page-1" stroke="none" stroke-width="1" fill="none" fill-rule="evenodd">
        <g id="icon-EcoFriendly" fill-rule="nonzero" fill="#414A59">
            <g transform="translate(1.000000, 9.000000)" id="Fill-1">
                <path d="M52.9672215,39.5816002 C45.1298255,37.9903077 41.2829737,44.4512024 41.2829737,44.4512024 C54.207082,40.4029789 60.2780875,49.5369568 60.241138,49.5359275 C49.5073129,40.4492973 37.7655881,47.7562737 37.7655881,47.7562737 C37.7655881,47.7562737 50.6773799,21.9559255 26.1172633,13.4559943 C5.59695695,6.35487713 0.610829383,0 0.610829383,0 C0.610829383,0 -2.36360406,14.9721481 4.81485954,27.4266368 C13.691973,42.8259431 32.6686121,41.0524651 32.6686121,41.0524651 C32.4089393,37.5230071 31.5898924,34.4104142 30.4054562,31.6693974 C30.1663109,31.7898251 29.9189546,31.9051063 29.670572,32.015241 C29.0537209,32.2663894 28.4235269,32.4773952 27.7810165,32.6081159 C26.4990746,32.8880845 25.20379,32.9220513 23.9454548,32.8211803 C22.6809613,32.7398658 21.4595756,32.445487 20.2607701,32.1387566 C19.6675256,31.9576004 19.079413,31.7640927 18.4954059,31.5716142 L16.7772549,30.8963956 L18.5600675,31.3472275 C19.1604966,31.4635381 19.7598993,31.5798486 20.3582757,31.6817489 C21.5652922,31.8309969 22.7712823,31.9627469 23.9629031,31.886579 C25.1514449,31.8309969 26.3235646,31.643665 27.404337,31.2576787 C27.9472891,31.0734347 28.4584237,30.8243449 28.9480043,30.5484934 C29.1892023,30.4023333 29.4262949,30.2551439 29.6633874,30.0883978 C28.6739623,28.1450859 27.4997898,26.4055746 26.2209271,24.8544247 C26.1747403,24.8750106 26.1285534,24.8986844 26.0833929,24.9161825 C25.7015816,25.0788113 25.3166912,25.1951218 24.9348798,25.2764363 C24.1702308,25.4400944 23.4158455,25.4936179 22.6789086,25.4761198 C21.2050347,25.4400944 19.783506,25.209532 18.4061113,24.8606005 C17.7143349,24.6990009 17.0400068,24.4828486 16.3615732,24.2883116 C15.6954561,24.0556905 15.0231808,23.8467433 14.3673275,23.595595 C13.7135269,23.3372415 13.0556208,23.0974154 12.4100312,22.8236225 L10.4855789,21.9868044 L12.4880357,22.603353 C13.1562055,22.8020073 13.8346391,22.9666947 14.5048616,23.1499095 C15.1781634,23.3238607 15.8607024,23.4545813 16.5350305,23.6089758 C17.2175696,23.7252863 17.8960032,23.8611535 18.5775159,23.9424679 C19.9374621,24.1308292 21.3097249,24.1905284 22.6245107,24.0752472 C23.4825598,23.9959913 24.3252133,23.8158644 25.0252008,23.4864895 C18.0612495,15.984976 8.91112037,13.4457013 8.91112037,13.4457013 C15.2633524,14.6324803 24.1178857,17.5567119 30.8683511,27.3041506 C37.6198429,37.0515892 32.7856188,55.1013342 32.7856188,55.1013342 C37.3026932,49.495785 41.5703585,53.8229478 45.5208742,56.0719609 C59.5144648,64.0376871 73,44.7455812 73,44.7455812 C64.225524,47.9528694 60.8046176,41.1718635 52.9672215,39.5816002"></path>
            </g>
        </g>
    </g>
</svg>