<?xml version="1.0" encoding="utf-8"?>
<!-- Generator: Adobe Illustrator 22.1.0, SVG Export Plug-In . SVG Version: 6.00 Build 0)  -->
<svg version="1.1" id="Layer_1" xmlns="http://www.w3.org/2000/svg" xmlns:xlink="http://www.w3.org/1999/xlink" x="0px" y="0px"
	 viewBox="0 0 84 84" style="enable-background:new 0 0 84 84;" xml:space="preserve">
<style type="text/css">
	.st0{fill:#556774;}
</style>
<path class="st0" d="M39,8.2c-13,0-23.6,14.6-23.6,32.5c0,18,10.6,32.5,23.6,32.5s23.6-14.6,23.6-32.5C62.6,22.8,52,8.2,39,8.2z
	 M38.8,70.6c-10.6,0-19.3-13.3-19.3-29.8c0-16.5,8.6-29.8,19.3-29.8s19.3,13.3,19.3,29.8C58.1,57.2,49.4,70.6,38.8,70.6z"/>
<g>
	<path class="st0" d="M61.6,64c-0.4-0.5-0.6-1.1-0.6-1.9c0-0.8,0.2-1.4,0.6-1.9s1-0.7,1.7-0.7c0.7,0,1.3,0.2,1.7,0.7
		s0.6,1.1,0.6,1.9c0,0.8-0.2,1.4-0.6,1.9s-1,0.7-1.7,0.7C62.6,64.6,62,64.4,61.6,64z M64.2,63.2c0.2-0.3,0.3-0.7,0.3-1.2
		c0-0.5-0.1-0.9-0.3-1.2c-0.2-0.3-0.5-0.4-0.9-0.4c-0.4,0-0.7,0.1-0.9,0.4c-0.2,0.3-0.3,0.7-0.3,1.2c0,0.5,0.1,0.9,0.3,1.2
		s0.5,0.4,0.9,0.4C63.7,63.7,64,63.5,64.2,63.2z M63.8,70.6c-0.4,0-0.8,0-1.2,0l7.5-10.9h1.2L63.8,70.6z M68.9,70
		c-0.4-0.5-0.6-1.1-0.6-1.9c0-0.8,0.2-1.4,0.6-1.9c0.4-0.5,1-0.7,1.7-0.7c0.7,0,1.3,0.2,1.7,0.7s0.6,1.1,0.6,1.9
		c0,0.8-0.2,1.4-0.6,1.9c-0.4,0.5-1,0.7-1.7,0.7S69.3,70.5,68.9,70z M71.5,69.3c0.2-0.3,0.3-0.7,0.3-1.2s-0.1-0.9-0.3-1.2
		c-0.2-0.3-0.5-0.4-0.9-0.4c-0.4,0-0.7,0.1-0.9,0.4c-0.2,0.3-0.3,0.7-0.3,1.2c0,0.5,0.1,0.9,0.3,1.2c0.2,0.3,0.5,0.4,0.9,0.4
		C71,69.7,71.3,69.6,71.5,69.3z"/>
</g>
</svg>
