<?xml version="1.0" encoding="UTF-8"?>
<svg width="75px" height="75px" viewBox="0 0 75 75" version="1.1" xmlns="http://www.w3.org/2000/svg" xmlns:xlink="http://www.w3.org/1999/xlink">
    <!-- Generator: Sketch 47.1 (45422) - http://www.bohemiancoding.com/sketch -->
    <title>icon-Unfold1</title>
    <desc>Created with Sketch.</desc>
    <defs>
        <polygon id="path-1" points="3.541 0.0815 3.541 7.9285 0.4929 7.9285 0.4929 0.0815 3.541 0.0815"></polygon>
        <polygon id="path-3" points="2.96434286 8 0.351771429 8 0.351771429 0.1528 2.96434286 0.1528"></polygon>
        <polygon id="path-5" points="2.61274286 8 0.000171428571 8 0.000171428571 0.1528 2.61274286 0.1528 2.61274286 8"></polygon>
    </defs>
    <g id="Page-1" stroke="none" stroke-width="1" fill="none" fill-rule="evenodd">
        <g id="icon-Unfold1">
            <g id="Page-1" transform="translate(2.000000, 9.000000)">
                <path d="M1.36317804,44 C1.01470905,44 0.665345407,43.8666783 0.399184885,43.6004822 C-0.13313616,43.06809 -0.13313616,42.2046305 0.399632214,41.6722383 L15.6727729,26.3992941 C16.205094,25.866902 17.0684382,25.866902 17.6007592,26.3992941 C18.1330803,26.9321337 18.1330803,27.7951458 17.6007592,28.3279854 L2.32717119,43.6004822 C2.061458,43.8671257 1.71209435,44 1.36317804,44" id="Fill-1" fill="#CDCFCE"></path>
                <path d="M8.36353978,44 C8.01463106,44 7.66527501,43.8666783 7.39956759,43.6004822 C6.8668108,43.06809 6.8668108,42.2046305 7.39956759,41.6722383 L22.6723762,26.3992941 C23.205133,25.866902 24.0680111,25.866902 24.6007679,26.3992941 C25.1330774,26.9321337 25.1330774,27.7951458 24.6007679,28.3279854 L9.32751198,43.6004822 C9.06135724,43.8671257 8.71244851,44 8.36353978,44" id="Fill-3" fill="#CDCFCE"></path>
                <path d="M14.3635398,44 C14.0146311,44 13.665275,43.8666783 13.3995676,43.6004822 C12.8668108,43.06809 12.8668108,42.2046305 13.3995676,41.6722383 L28.6723762,26.3992941 C29.205133,25.866902 30.0680111,25.866902 30.6007679,26.3992941 C31.1330774,26.9321337 31.1330774,27.7951458 30.6007679,28.3279854 L15.3270647,43.6004822 C15.0613572,43.8671257 14.7120012,44 14.3635398,44" id="Fill-5" fill="#CDCFCE"></path>
                <path d="M21.3631738,44 C21.0147059,44 20.6653433,43.8666783 20.3991836,43.6004822 C19.8668643,43.06809 19.8668643,42.2046305 20.399631,41.6722383 L35.6727242,26.3992941 C36.2054909,25.866902 37.0683851,25.866902 37.6011519,26.3992941 C38.1330239,26.9321337 38.1330239,27.7951458 37.6007045,28.3279854 L22.327164,43.6004822 C22.0614516,43.8671257 21.712089,44 21.3631738,44" id="Fill-7" fill="#CDCFCE"></path>
                <path d="M27.3635398,44 C27.0146311,44 26.665275,43.8666783 26.3995676,43.6004822 C25.8668108,43.06809 25.8668108,42.2046305 26.3995676,41.6722383 L41.6723762,26.3992941 C42.205133,25.866902 43.0684584,25.866902 43.6007679,26.3992941 C44.1330774,26.9321337 44.1330774,27.7951458 43.6007679,28.3279854 L28.327512,43.6004822 C28.0613572,43.8671257 27.7124485,44 27.3635398,44" id="Fill-9" fill="#CDCFCE"></path>
                <path d="M34.3635398,44 C34.0146311,44 33.665275,43.8666783 33.3995676,43.6004822 C32.8668108,43.06809 32.8668108,42.2046305 33.3995676,41.6722383 L48.6723762,26.3992941 C49.205133,25.866902 50.0680111,25.866902 50.6007679,26.3992941 C51.1330774,26.9321337 51.1330774,27.7951458 50.6007679,28.3279854 L35.327512,43.6004822 C35.0613572,43.8671257 34.7124485,44 34.3635398,44" id="Fill-11" fill="#CDCFCE"></path>
                <path d="M40.3635694,44 C40.0146531,44 39.6652895,43.8666783 39.3995763,43.6004822 C38.8668079,43.06809 38.8668079,42.2046305 39.3995763,41.6722383 L54.672717,26.3992941 C55.2054854,25.866902 56.0683822,25.866902 56.6011506,26.3992941 C57.1330243,26.9321337 57.1330243,27.7951458 56.6007033,28.3279854 L41.3271153,43.6004822 C41.0614021,43.8671257 40.7120384,44 40.3635694,44" id="Fill-13" fill="#CDCFCE"></path>
                <path d="M47.3634881,44 C47.0145783,44 46.6656685,43.8666783 46.3995129,43.6004822 C45.8667545,43.06809 45.8667545,42.2046305 46.3999603,41.6722383 L61.672369,26.3992941 C62.2051274,25.866902 63.0684555,25.866902 63.6007667,26.3992941 C64.1330778,26.9321337 64.1330778,27.7951458 63.6007667,28.3279854 L48.3274633,43.6004822 C48.0617551,43.8671257 47.7123979,44 47.3634881,44" id="Fill-15" fill="#CDCFCE"></path>
                <path d="M53.3635398,44 C53.0146311,44 52.665275,43.8666783 52.3995676,43.6004822 C51.8668108,43.06809 51.8668108,42.2046305 52.3995676,41.6722383 L67.6723762,26.3992941 C68.205133,25.866902 69.0684584,25.866902 69.6007679,26.3992941 C70.1330774,26.9321337 70.1330774,27.7951458 69.6007679,28.3279854 L54.327512,43.6004822 C54.0613572,43.8671257 53.7124485,44 53.3635398,44" id="Fill-17" fill="#CDCFCE"></path>
                <path d="M1.36317804,44 C1.01470905,44 0.665345407,43.8666783 0.399184885,43.6004822 C-0.13313616,43.06809 -0.13313616,42.2046305 0.399632214,41.6722383 L15.6727729,26.3992941 C16.205094,25.866902 17.0684382,25.866902 17.6007592,26.3992941 C18.1330803,26.9321337 18.1330803,27.7951458 17.6007592,28.3279854 L2.32717119,43.6004822 C2.061458,43.8671257 1.71209435,44 1.36317804,44" id="Fill-19" fill="#CDCFCE"></path>
                <path d="M8.36353978,44 C8.01463106,44 7.66527501,43.8666783 7.39956759,43.6004822 C6.8668108,43.06809 6.8668108,42.2046305 7.39956759,41.6722383 L22.6723762,26.3992941 C23.205133,25.866902 24.0680111,25.866902 24.6007679,26.3992941 C25.1330774,26.9321337 25.1330774,27.7951458 24.6007679,28.3279854 L9.32751198,43.6004822 C9.06135724,43.8671257 8.71244851,44 8.36353978,44" id="Fill-21" fill="#CDCFCE"></path>
                <path d="M14.3635398,44 C14.0146311,44 13.665275,43.8666783 13.3995676,43.6004822 C12.8668108,43.06809 12.8668108,42.2046305 13.3995676,41.6722383 L28.6723762,26.3992941 C29.205133,25.866902 30.0680111,25.866902 30.6007679,26.3992941 C31.1330774,26.9321337 31.1330774,27.7951458 30.6007679,28.3279854 L15.3270647,43.6004822 C15.0613572,43.8671257 14.7120012,44 14.3635398,44" id="Fill-23" fill="#CDCFCE"></path>
                <path d="M21.3631738,44 C21.0147059,44 20.6653433,43.8666783 20.3991836,43.6004822 C19.8668643,43.06809 19.8668643,42.2046305 20.399631,41.6722383 L35.6727242,26.3992941 C36.2054909,25.866902 37.0683851,25.866902 37.6011519,26.3992941 C38.1330239,26.9321337 38.1330239,27.7951458 37.6007045,28.3279854 L22.327164,43.6004822 C22.0614516,43.8671257 21.712089,44 21.3631738,44" id="Fill-25" fill="#CDCFCE"></path>
                <path d="M27.3635398,44 C27.0146311,44 26.665275,43.8666783 26.3995676,43.6004822 C25.8668108,43.06809 25.8668108,42.2046305 26.3995676,41.6722383 L41.6723762,26.3992941 C42.205133,25.866902 43.0684584,25.866902 43.6007679,26.3992941 C44.1330774,26.9321337 44.1330774,27.7951458 43.6007679,28.3279854 L28.327512,43.6004822 C28.0613572,43.8671257 27.7124485,44 27.3635398,44" id="Fill-27" fill="#CDCFCE"></path>
                <path d="M34.3635398,44 C34.0146311,44 33.665275,43.8666783 33.3995676,43.6004822 C32.8668108,43.06809 32.8668108,42.2046305 33.3995676,41.6722383 L48.6723762,26.3992941 C49.205133,25.866902 50.0680111,25.866902 50.6007679,26.3992941 C51.1330774,26.9321337 51.1330774,27.7951458 50.6007679,28.3279854 L35.327512,43.6004822 C35.0613572,43.8671257 34.7124485,44 34.3635398,44" id="Fill-29" fill="#CDCFCE"></path>
                <path d="M40.3635694,44 C40.0146531,44 39.6652895,43.8666783 39.3995763,43.6004822 C38.8668079,43.06809 38.8668079,42.2046305 39.3995763,41.6722383 L54.672717,26.3992941 C55.2054854,25.866902 56.0683822,25.866902 56.6011506,26.3992941 C57.1330243,26.9321337 57.1330243,27.7951458 56.6007033,28.3279854 L41.3271153,43.6004822 C41.0614021,43.8671257 40.7120384,44 40.3635694,44" id="Fill-31" fill="#CDCFCE"></path>
                <path d="M47.3634881,44 C47.0145783,44 46.6656685,43.8666783 46.3995129,43.6004822 C45.8667545,43.06809 45.8667545,42.2046305 46.3999603,41.6722383 L61.672369,26.3992941 C62.2051274,25.866902 63.0684555,25.866902 63.6007667,26.3992941 C64.1330778,26.9321337 64.1330778,27.7951458 63.6007667,28.3279854 L48.3274633,43.6004822 C48.0617551,43.8671257 47.7123979,44 47.3634881,44" id="Fill-33" fill="#CDCFCE"></path>
                <path d="M53.3635398,44 C53.0146311,44 52.665275,43.8666783 52.3995676,43.6004822 C51.8668108,43.06809 51.8668108,42.2046305 52.3995676,41.6722383 L67.6723762,26.3992941 C68.205133,25.866902 69.0684584,25.866902 69.6007679,26.3992941 C70.1330774,26.9321337 70.1330774,27.7951458 69.6007679,28.3279854 L54.327512,43.6004822 C54.0613572,43.8671257 53.7124485,44 53.3635398,44" id="Fill-35" fill="#CDCFCE"></path>
                <path d="M53.6248421,45 L1.37470674,45 C0.615843355,45 0,44.3287402 0,43.5 C0,42.671752 0.615843355,42 1.37470674,42 L53.6248421,42 C54.3846078,42 55,42.671752 55,43.5 C55,44.3287402 54.3846078,45 53.6248421,45" id="Fill-37" fill="#CDCFCE"></path>
                <g id="Group-41" transform="translate(67.000000, 26.000000)">
                    <mask id="mask-2" fill="white">
                        <use xlink:href="#path-1"></use>
                    </mask>
                    <g id="Clip-40"></g>
                    <path d="M0.4929,6.4045 L0.4929,1.605 C0.4929,0.7635 1.1754,0.0815 2.0174,0.0815 C2.8584,0.0815 3.5414,0.7635 3.5414,1.605 L3.5414,6.4045 C3.5414,7.2465 2.8584,7.9285 2.0174,7.9285 C1.1754,7.9285 0.4929,7.2465 0.4929,6.4045" id="Fill-39" fill="#CDCFCE" mask="url(#mask-2)"></path>
                </g>
                <g id="Group-44" transform="translate(52.000000, 41.000000)">
                    <mask id="mask-4" fill="white">
                        <use xlink:href="#path-3"></use>
                    </mask>
                    <g id="Clip-43"></g>
                    <path d="M0.351771429,6.4758 L0.351771429,1.6763 C0.351771429,0.8348 0.936342857,0.1528 1.65805714,0.1528 C2.37934286,0.1528 2.96434286,0.8348 2.96434286,1.6763 L2.96434286,6.4758 C2.96434286,7.3178 2.37934286,8.0003 1.65805714,8.0003 C0.936342857,8.0003 0.351771429,7.3178 0.351771429,6.4758" id="Fill-42" fill="#CDCFCE" mask="url(#mask-4)"></path>
                </g>
                <path d="M16,31.6404996 L16,27.3590544 C16,26.6083854 16.4475066,26 17,26 C17.5521654,26 18,26.6083854 18,27.3590544 L18,31.6404996 C18,32.3916146 17.5521654,33 17,33 C16.4475066,33 16,32.3916146 16,31.6404996" id="Fill-45" fill="#CDCFCE"></path>
                <g id="Group-49" transform="translate(0.000000, 41.000000)">
                    <mask id="mask-6" fill="white">
                        <use xlink:href="#path-5"></use>
                    </mask>
                    <g id="Clip-48"></g>
                    <path d="M0.000171428571,6.4758 L0.000171428571,1.6763 C0.000171428571,0.8348 0.584742857,0.1528 1.30645714,0.1528 C2.02731429,0.1528 2.61274286,0.8348 2.61274286,1.6763 L2.61274286,6.4758 C2.61274286,7.3178 2.02731429,8.0003 1.30645714,8.0003 C0.584742857,8.0003 0.000171428571,7.3178 0.000171428571,6.4758" id="Fill-47" fill="#CDCFCE" mask="url(#mask-6)"></path>
                </g>
                <path d="M69.6248421,29 L17.3747067,29 C16.6153922,29 16,28.3287402 16,27.5 C16,26.671752 16.6153922,26 17.3747067,26 L69.6248421,26 C70.3846078,26 71,26.671752 71,27.5 C71,28.3287402 70.3846078,29 69.6248421,29" id="Fill-50" fill="#CDCFCE"></path>
                <path d="M38.3871584,40 C34.3140771,40 31,36.6940966 31,32.6298465 C31,30.7931833 31.7182463,29.068148 33.0225018,27.771095 L42.8035125,18.0088504 C44.1014279,16.7136051 45.8273022,16 47.6618644,16 C51.167504,16 54.0196572,18.8453818 54.0196572,22.3429056 C54.0196572,22.6307881 53.9979196,22.9177667 53.9548973,23.2006779 L60.2021907,23.199774 C60.9050396,23.199774 61.5376941,23.6268525 61.7985452,24.2785425 C61.8891185,24.5049619 61.928065,24.7422277 63,24.9763299 L63,25.9416627 L50.6458018,39.4676208 C50.332871,39.7957254 48.3239552,40 47.8348594,40 L38.3871584,40 Z" id="Fill-52" fill="#38414F"></path>
                <path d="M60,25.3501615 L59.9982206,25.3501615 L59.9982206,25.3497001 L59.9982206,25.3501615 L51.3461025,25.3515455 C51.3443231,25.3538522 51.3420988,25.3556976 51.3403193,25.3584657 C51.9004004,24.6369208 52.2371608,23.7234561 52.2371608,22.7264878 L52.2371608,22.7251038 C52.2371608,20.1161932 50.1965795,18 47.679996,18 C46.2822401,18 45.0166082,18.5882159 44.1006376,19.5381269 L34.4898423,29.5064259 C33.569868,30.4567983 33,31.7720952 33,33.2262572 C33,36.4141567 35.4930058,39 38.5687806,39 L47.8499333,39 L47.8499333,38.998616 L59.9982206,26.3983392 L59.9982206,25.3515455 L60,25.3501615 Z" id="Fill-54" fill="#F6F6F6"></path>
                <path d="M41.8720243,30.5472133 L40.9086116,31.3334644 L39.8167439,31.3334644 C39.8167439,30.5972084 39.0838792,30.0000013 38.1803803,30.0000013 C36.9768334,29.9988295 36,30.7952359 36,31.7775615 C36,33.004785 37.2198434,34 38.7267934,34 C40.5337913,34 42,32.8067575 42,31.3334644 C42,31.0596631 41.9530276,30.7975794 41.8720243,30.5472133 Z" id="Stroke-56" stroke="#000000" stroke-width="0.759" stroke-linecap="round" stroke-linejoin="round"></path>
                <path d="M41.0379888,32 L42,30.9897063 C41.5714286,29.2709013 40.0855547,28 38.313328,28 C38.2194733,28 38.1275339,28.007532 38.034158,28.015064 L36,30.146121 C36.5918595,29.5254833 37.4092578,29.1418529 38.3118915,29.1433593 C39.8173982,29.1443635 41.0379888,30.4212905 41.0379888,32 Z" id="Stroke-58" stroke="#000000" stroke-width="0.759" stroke-linecap="round" stroke-linejoin="round"></path>
                <path d="M38.6250562,36.9523371 C36.0843893,36.9523371 34.0231868,34.8409005 34.0231868,32.2396954 C34.0231868,29.924342 35.853869,28.0485835 38.1136874,28.0485835 C40.0899614,28.0485835 41.6932686,29.6900448 41.6932686,31.7154036 C41.6932686,33.4521488 40.3191336,34.8583923 38.6250562,34.8583923 C37.2136245,34.8583923 36.0686618,33.6850651 36.0686618,32.2396954 C36.0686618,31.082479 36.9849016,30.1429887 38.1136874,30.1429887 C38.9607262,30.1429887 39.6477937,30.8463405 39.6477937,31.7140227 L40.6709805,31.7140227 C40.6709805,30.267272 39.5255684,29.0953258 38.1136874,29.0953258 C36.4200593,29.0939448 35.045475,30.5015692 35.045475,32.2383144 C35.045475,34.2622923 36.6478835,35.9051345 38.6250562,35.9051345 C40.8835266,35.9051345 42.7160061,34.0289158 42.7160061,31.7140227 C42.7160061,29.1114366 40.6561517,27 38.1136874,27 C35.2908241,27 33,29.3448132 33,32.2396954 C33,35.4208897 35.5186483,38 38.6250562,38 L48,38 L48,36.9523371 L38.6250562,36.9523371 Z" id="Stroke-60" stroke="#000000" stroke-width="0.759" stroke-linecap="round" stroke-linejoin="round"></path>
                <path d="M34,29.7281984 C34.9295648,28.7600522 36.2122829,28.1613055 37.6289559,28.1613055 C40.1804104,28.1613055 42.248365,30.3175457 42.248365,32.9747781 C42.248365,34.1558225 41.7887695,35.225483 41.0454785,36 L50.7971134,25.8401044 C51.5404044,25.0637076 52,23.9959269 52,22.8144125 L52,22.8130026 C52,20.1557702 49.9311434,18 47.3792378,18 C45.9625648,18 44.6798467,18.5987467 43.7507329,19.566893 L34,29.7281984 Z" id="Stroke-62" stroke="#000000" stroke-width="0.759" stroke-linecap="round" stroke-linejoin="round"></path>
                <polygon id="Stroke-64" stroke="#000000" stroke-width="0.759" stroke-linecap="round" stroke-linejoin="round" points="60 25 48 36.9998986 48 38 60 25.9987832"></polygon>
                <path d="M35.9031772,30.8269132 C35.353499,31.4152691 35.0130101,32.2278286 35.0130101,33.1265471 C35.0130101,35.2200659 36.5992879,36.9184914 38.5585456,36.9184914 C39.6770405,36.9184914 40.6869351,36.4291468 41.4204328,35.6446723 L41.4231033,35.6489564 L51.0462545,25.3579641 C51.1521843,25.2451483 51.2496576,25.1251922 51.342235,25.001428 L60,25 L47.8443235,37.998572 L38.5585456,38 C36.0420433,38 34,35.8165141 34,33.1265471 C34,30.8259612 35.6761846,28.9514097 37.7916667,28.8071769 L35.9031772,30.8269132 Z" id="Stroke-66" stroke="#000000" stroke-width="0.759" stroke-linecap="round" stroke-linejoin="round"></path>
                <path d="M16.4023078,8.242 L15.4223078,11.014 L15.6183078,11.056 C15.6369745,10.9439994 15.6976406,10.8436671 15.8003078,10.755 C15.902975,10.6663329 16.0149738,10.622 16.1363078,10.622 C16.313642,10.622 16.4933069,10.6499997 16.6753078,10.706 C16.8573087,10.7620003 17.0533067,10.827333 17.2633078,10.902 C17.4733088,10.976667 17.7066398,11.0419997 17.9633078,11.098 C18.2199757,11.1540003 18.5163061,11.182 18.8523078,11.182 C19.496311,11.182 20.060972,11.0886676 20.5463078,10.902 C21.0316435,10.7153324 21.4353062,10.4750015 21.7573078,10.181 C22.0793094,9.88699853 22.3219736,9.55800182 22.4853078,9.194 C22.6486419,8.82999818 22.7303078,8.47066844 22.7303078,8.116 C22.7303078,7.65866438 22.611309,7.2433352 22.3733078,6.87 C22.1353066,6.4966648 21.8483095,6.16066816 21.5123078,5.862 L20.2663078,4.742 C19.9863064,4.48999874 19.7343089,4.21700147 19.5103078,3.923 C19.2863067,3.62899853 19.1743078,3.28133534 19.1743078,2.88 C19.1743078,2.60933198 19.2303072,2.36200112 19.3423078,2.138 C19.4543083,1.91399888 19.6106401,1.72266746 19.8113078,1.564 C20.0119755,1.40533254 20.2523064,1.2793338 20.5323078,1.186 C20.8123092,1.0926662 21.1203061,1.046 21.4563078,1.046 C21.7269758,1.046 21.9859732,1.07866634 22.2333078,1.144 C22.4806424,1.20933366 22.6976402,1.31433261 22.8843078,1.459 C23.0709754,1.60366739 23.2203072,1.7926655 23.3323078,2.026 C23.4443083,2.2593345 23.5003078,2.54399832 23.5003078,2.88 C23.5003078,3.08533436 23.4839746,3.25566599 23.4513078,3.391 C23.418641,3.52633401 23.3929745,3.63133296 23.3743078,3.706 L23.5423078,3.706 L24.5083078,1.032 L24.2983078,0.99 C24.2516409,1.10200056 24.1909748,1.19066634 24.1163078,1.256 C24.0416407,1.32133366 23.9343085,1.354 23.7943078,1.354 C23.6356403,1.354 23.4793086,1.32833359 23.3253078,1.277 C23.171307,1.22566641 23.0033087,1.16733366 22.8213078,1.102 C22.6393069,1.03666634 22.4386422,0.97833359 22.2193078,0.927 C21.9999734,0.87566641 21.7456426,0.85 21.4563078,0.85 C21.0456391,0.85 20.6466431,0.91533268 20.2593078,1.046 C19.8719725,1.17666732 19.5289759,1.3586655 19.2303078,1.592 C18.9316396,1.8253345 18.693642,2.1053317 18.5163078,2.432 C18.3389736,2.7586683 18.2503078,3.11799804 18.2503078,3.51 C18.2503078,4.01400252 18.3786398,4.46433135 18.6353078,4.861 C18.8919757,5.25766865 19.2443055,5.65666466 19.6923078,6.058 L20.6863078,6.968 C20.9569758,7.22000126 21.169307,7.47899867 21.3233078,7.745 C21.4773086,8.01100133 21.5543078,8.31666494 21.5543078,8.662 C21.5543078,8.99800168 21.495975,9.30833191 21.3793078,9.593 C21.2626405,9.87766809 21.0923089,10.1249989 20.8683078,10.335 C20.6443067,10.545001 20.3689761,10.7083327 20.0423078,10.825 C19.7156395,10.9416672 19.3469765,11 18.9363078,11 C18.6283062,11 18.3249759,10.9580004 18.0263078,10.874 C17.7276396,10.7899996 17.4569757,10.6686675 17.2143078,10.51 C16.9716399,10.3513325 16.7756419,10.1506679 16.6263078,9.908 C16.4769737,9.66533212 16.4023078,9.38533492 16.4023078,9.068 C16.4023078,8.90933254 16.4209743,8.76700063 16.4583078,8.641 C16.4956413,8.51499937 16.5376409,8.3820007 16.5843078,8.242 L16.4023078,8.242 Z M26.9755385,3.622 L27.9555385,3.622 L27.4515385,4.994 L28.9775385,4.994 L28.9215385,5.19 L27.3955385,5.19 L25.7995385,9.642 C25.7528716,9.7820007 25.7062054,9.92666592 25.6595385,10.076 C25.6128716,10.2253341 25.5895385,10.3746659 25.5895385,10.524 C25.5895385,10.6640007 25.6245382,10.7759996 25.6945385,10.86 C25.7645389,10.9440004 25.8788711,10.986 26.0375385,10.986 C26.2055394,10.986 26.3642044,10.9346672 26.5135385,10.832 C26.6628726,10.7293328 26.7982046,10.610334 26.9195385,10.475 C27.0408725,10.339666 27.1435381,10.2020007 27.2275385,10.062 C27.3115389,9.9219993 27.372205,9.81000042 27.4095385,9.726 L27.5775385,9.796 C27.540205,9.87066704 27.4795389,9.98499923 27.3955385,10.139 C27.3115381,10.2930008 27.1995392,10.4469992 27.0595385,10.601 C26.9195378,10.7550008 26.7445396,10.8879994 26.5345385,11 C26.3245375,11.1120006 26.0748733,11.168 25.7855385,11.168 C25.4308701,11.168 25.1648727,11.0816675 24.9875385,10.909 C24.8102043,10.7363325 24.7215385,10.5286679 24.7215385,10.286 C24.7215385,10.0993324 24.7565382,9.88700119 24.8265385,9.649 C24.8965389,9.41099881 24.9688715,9.19400098 25.0435385,8.998 L26.4155385,5.19 L25.1555385,5.19 L25.2115385,4.994 L26.4715385,4.994 L26.9755385,3.622 Z M33.4467693,5.68 C33.4467693,5.4933324 33.3907698,5.33466732 33.2787693,5.204 C33.1667687,5.07333268 32.9801039,5.008 32.7187693,5.008 C32.4294345,5.008 32.1517706,5.09199916 31.8857693,5.26 C31.6197679,5.42800084 31.379437,5.63566543 31.1647693,5.883 C30.9501015,6.13033457 30.7634367,6.39633191 30.6047693,6.681 C30.4461018,6.96566809 30.3247697,7.22933212 30.2407693,7.472 C30.455437,7.50933352 30.6934346,7.528 30.9547693,7.528 C31.2907709,7.528 31.6081011,7.47666718 31.9067693,7.374 C32.2054374,7.27133282 32.4691015,7.13600084 32.6977693,6.968 C32.9264371,6.79999916 33.1084353,6.60400112 33.2437693,6.38 C33.3791033,6.15599888 33.4467693,5.92266788 33.4467693,5.68 Z M33.4747693,9.628 C33.418769,9.69333366 33.3347698,9.81233247 33.2227693,9.985 C33.1107687,10.1576675 32.9567702,10.3303325 32.7607693,10.503 C32.5647683,10.6756675 32.3244374,10.829666 32.0397693,10.965 C31.7551012,11.100334 31.4121046,11.168 31.0107693,11.168 C30.6094339,11.168 30.271104,11.1026673 29.9957693,10.972 C29.7204346,10.8413327 29.4964368,10.6733344 29.3237693,10.468 C29.1511017,10.2626656 29.025103,10.0363346 28.9457693,9.789 C28.8664355,9.54166543 28.8267693,9.3013345 28.8267693,9.068 C28.8267693,8.601331 28.9411015,8.11833583 29.1697693,7.619 C29.3984371,7.11966417 29.6971008,6.66233541 30.0657693,6.247 C30.4344378,5.83166459 30.8521003,5.48866802 31.3187693,5.218 C31.7854383,4.94733198 32.2614335,4.812 32.7467693,4.812 C32.9334369,4.812 33.1201017,4.83299979 33.3067693,4.875 C33.4934369,4.91700021 33.6614352,4.97999958 33.8107693,5.064 C33.9601033,5.14800042 34.0814355,5.25533268 34.1747693,5.386 C34.2681031,5.51666732 34.3147693,5.6753324 34.3147693,5.862 C34.3147693,6.11400126 34.2471033,6.33566571 34.1117693,6.527 C33.9764353,6.71833429 33.801437,6.88166599 33.5867693,7.017 C33.3721015,7.15233401 33.1364372,7.2666662 32.8797693,7.36 C32.6231013,7.4533338 32.3734371,7.52566641 32.1307693,7.577 C31.8881014,7.62833359 31.6664369,7.66566655 31.4657693,7.689 C31.2651016,7.71233345 31.1181031,7.724 31.0247693,7.724 C30.8661018,7.724 30.7121033,7.71933338 30.5627693,7.71 C30.4134352,7.70066662 30.2827698,7.68666676 30.1707693,7.668 C30.0681021,7.96666816 29.9817696,8.26299853 29.9117693,8.557 C29.8417689,8.85100147 29.8067693,9.1613317 29.8067693,9.488 C29.8067693,9.99200252 29.9374346,10.3676654 30.1987693,10.615 C30.4601039,10.8623346 30.7914339,10.986 31.1927693,10.986 C31.4914374,10.986 31.7551015,10.9276672 31.9837693,10.811 C32.2124371,10.6943327 32.4131017,10.5566675 32.5857693,10.398 C32.7584368,10.2393325 32.903102,10.0783341 33.0197693,9.915 C33.1364365,9.75166585 33.2321022,9.6233338 33.3067693,9.53 L33.4747693,9.628 Z M36.306,9.516 C36.3433335,9.69333422 36.3899997,9.86833247 36.446,10.041 C36.5020003,10.2136675 36.5836661,10.3699993 36.691,10.51 C36.7983339,10.6500007 36.9289992,10.7643329 37.083,10.853 C37.2370008,10.9416671 37.4306655,10.986 37.664,10.986 C37.9253346,10.986 38.1749988,10.9090008 38.413,10.755 C38.6510012,10.6009992 38.8726656,10.4003346 39.078,10.153 C39.2833344,9.90566543 39.4699992,9.62100161 39.638,9.299 C39.8060008,8.97699839 39.9483327,8.65033499 40.065,8.319 C40.1816672,7.98766501 40.2726663,7.66100161 40.338,7.339 C40.4033337,7.01699839 40.436,6.73000126 40.436,6.478 C40.436,6.07666466 40.3566675,5.73133478 40.198,5.442 C40.0393325,5.15266522 39.7546687,5.008 39.344,5.008 C39.1013321,5.008 38.8796677,5.05933282 38.679,5.162 C38.4783323,5.26466718 38.2986675,5.39066592 38.14,5.54 C37.9813325,5.68933408 37.8413339,5.84099923 37.72,5.995 C37.5986661,6.14900077 37.4960004,6.28199944 37.412,6.394 L36.306,9.516 Z M36.838,5.19 L35.536,5.19 L35.592,4.994 L37.804,4.994 L37.51,5.904 L37.538,5.904 C37.6033337,5.80133282 37.6943328,5.68700063 37.811,5.561 C37.9276672,5.43499937 38.0653325,5.31600056 38.224,5.204 C38.3826675,5.09199944 38.5576657,4.99866704 38.749,4.924 C38.9403343,4.84933296 39.1479989,4.812 39.372,4.812 C39.7173351,4.812 40.018332,4.87966599 40.275,5.015 C40.5316679,5.15033401 40.7439992,5.32999888 40.912,5.554 C41.0800008,5.77800112 41.2059996,6.03933184 41.29,6.338 C41.3740004,6.63666816 41.416,6.9493317 41.416,7.276 C41.416,7.66800196 41.3226676,8.09033107 41.136,8.543 C40.9493324,8.99566893 40.6880017,9.41566473 40.352,9.803 C40.0159983,10.1903353 39.6170023,10.5146654 39.155,10.776 C38.6929977,11.0373346 38.1866694,11.168 37.636,11.168 C37.2719982,11.168 36.9593346,11.0490012 36.698,10.811 C36.4366654,10.5729988 36.2733337,10.2533353 36.208,9.852 L36.18,9.852 L34.472,14.71 L35.648,14.71 L35.592,14.906 L32.428,14.906 L32.484,14.71 L33.492,14.71 L36.838,5.19 Z M50.4944615,2.264 L48.1144615,10.804 L46.7704615,10.804 L46.7144615,11 L50.5364615,11 L50.5924615,10.804 L49.0944615,10.804 L51.7964615,1.144 L51.6004615,1.144 C51.3857937,1.35866774 51.1221297,1.57799888 50.8094615,1.802 C50.4967932,2.02600112 50.1724632,2.23833233 49.8364615,2.439 C49.5004598,2.63966767 49.1761297,2.81933254 48.8634615,2.978 C48.5507932,3.13666746 48.2917958,3.25799958 48.0864615,3.342 L48.1844615,3.51 C48.3244622,3.45399972 48.4901272,3.3793338 48.6814615,3.286 C48.8727958,3.1926662 49.0734604,3.08766725 49.2834615,2.971 C49.4934625,2.85433275 49.7034604,2.73533394 49.9134615,2.614 C50.1234625,2.49266606 50.3171273,2.37600056 50.4944615,2.264 Z" id="Step-1" fill="#4A4A4A"></path>
            </g>
        </g>
    </g>
</svg>