<?xml version="1.0" encoding="UTF-8"?>
<svg width="75px" height="75px" viewBox="0 0 75 75" version="1.1" xmlns="http://www.w3.org/2000/svg" xmlns:xlink="http://www.w3.org/1999/xlink">
    <!-- Generator: Sketch 47.1 (45422) - http://www.bohemiancoding.com/sketch -->
    <title>icon-Unfold4</title>
    <desc>Created with Sketch.</desc>
    <defs>
        <polygon id="path-1" points="2.65575 0.07100625 2.65575 6.93756875 0.369825 6.93756875 0.369825 0.07100625 2.65575 0.07100625"></polygon>
        <polygon id="path-3" points="52.8046854 29 0 29 0 0.065469697 67.6023949 0.065469697 67.6023949 29 52.8046854 29 52.8046854 22.1037561 50.1643796 22.1037561 50.1643796 29.0000439 52.8046854 29.0000439"></polygon>
        <polygon id="path-5" points="2.90411296e-21 0.13348125 2.90411296e-21 7 2.61252857 7 2.61252857 0.13348125"></polygon>
        <polygon id="path-7" points="2.90411296e-21 0.13348125 2.90411296e-21 7 2.61252857 7 2.61252857 0.13348125"></polygon>
    </defs>
    <g id="Page-1" stroke="none" stroke-width="1" fill="none" fill-rule="evenodd">
        <g id="icon-Unfold4">
            <path d="M18.4023078,17.242 L17.4223078,20.014 L17.6183078,20.056 C17.6369745,19.9439994 17.6976406,19.8436671 17.8003078,19.755 C17.902975,19.6663329 18.0149738,19.622 18.1363078,19.622 C18.313642,19.622 18.4933069,19.6499997 18.6753078,19.706 C18.8573087,19.7620003 19.0533067,19.827333 19.2633078,19.902 C19.4733088,19.976667 19.7066398,20.0419997 19.9633078,20.098 C20.2199757,20.1540003 20.5163061,20.182 20.8523078,20.182 C21.496311,20.182 22.060972,20.0886676 22.5463078,19.902 C23.0316435,19.7153324 23.4353062,19.4750015 23.7573078,19.181 C24.0793094,18.8869985 24.3219736,18.5580018 24.4853078,18.194 C24.6486419,17.8299982 24.7303078,17.4706684 24.7303078,17.116 C24.7303078,16.6586644 24.611309,16.2433352 24.3733078,15.87 C24.1353066,15.4966648 23.8483095,15.1606682 23.5123078,14.862 L22.2663078,13.742 C21.9863064,13.4899987 21.7343089,13.2170015 21.5103078,12.923 C21.2863067,12.6289985 21.1743078,12.2813353 21.1743078,11.88 C21.1743078,11.609332 21.2303072,11.3620011 21.3423078,11.138 C21.4543083,10.9139989 21.6106401,10.7226675 21.8113078,10.564 C22.0119755,10.4053325 22.2523064,10.2793338 22.5323078,10.186 C22.8123092,10.0926662 23.1203061,10.046 23.4563078,10.046 C23.7269758,10.046 23.9859732,10.0786663 24.2333078,10.144 C24.4806424,10.2093337 24.6976402,10.3143326 24.8843078,10.459 C25.0709754,10.6036674 25.2203072,10.7926655 25.3323078,11.026 C25.4443083,11.2593345 25.5003078,11.5439983 25.5003078,11.88 C25.5003078,12.0853344 25.4839746,12.255666 25.4513078,12.391 C25.418641,12.526334 25.3929745,12.631333 25.3743078,12.706 L25.5423078,12.706 L26.5083078,10.032 L26.2983078,9.99 C26.2516409,10.1020006 26.1909748,10.1906663 26.1163078,10.256 C26.0416407,10.3213337 25.9343085,10.354 25.7943078,10.354 C25.6356403,10.354 25.4793086,10.3283336 25.3253078,10.277 C25.171307,10.2256664 25.0033087,10.1673337 24.8213078,10.102 C24.6393069,10.0366663 24.4386422,9.97833359 24.2193078,9.927 C23.9999734,9.87566641 23.7456426,9.85 23.4563078,9.85 C23.0456391,9.85 22.6466431,9.91533268 22.2593078,10.046 C21.8719725,10.1766673 21.5289759,10.3586655 21.2303078,10.592 C20.9316396,10.8253345 20.693642,11.1053317 20.5163078,11.432 C20.3389736,11.7586683 20.2503078,12.117998 20.2503078,12.51 C20.2503078,13.0140025 20.3786398,13.4643313 20.6353078,13.861 C20.8919757,14.2576686 21.2443055,14.6566647 21.6923078,15.058 L22.6863078,15.968 C22.9569758,16.2200013 23.169307,16.4789987 23.3233078,16.745 C23.4773086,17.0110013 23.5543078,17.3166649 23.5543078,17.662 C23.5543078,17.9980017 23.495975,18.3083319 23.3793078,18.593 C23.2626405,18.8776681 23.0923089,19.1249989 22.8683078,19.335 C22.6443067,19.545001 22.3689761,19.7083327 22.0423078,19.825 C21.7156395,19.9416672 21.3469765,20 20.9363078,20 C20.6283062,20 20.3249759,19.9580004 20.0263078,19.874 C19.7276396,19.7899996 19.4569757,19.6686675 19.2143078,19.51 C18.9716399,19.3513325 18.7756419,19.1506679 18.6263078,18.908 C18.4769737,18.6653321 18.4023078,18.3853349 18.4023078,18.068 C18.4023078,17.9093325 18.4209743,17.7670006 18.4583078,17.641 C18.4956413,17.5149994 18.5376409,17.3820007 18.5843078,17.242 L18.4023078,17.242 Z M28.9755385,12.622 L29.9555385,12.622 L29.4515385,13.994 L30.9775385,13.994 L30.9215385,14.19 L29.3955385,14.19 L27.7995385,18.642 C27.7528716,18.7820007 27.7062054,18.9266659 27.6595385,19.076 C27.6128716,19.2253341 27.5895385,19.3746659 27.5895385,19.524 C27.5895385,19.6640007 27.6245382,19.7759996 27.6945385,19.86 C27.7645389,19.9440004 27.8788711,19.986 28.0375385,19.986 C28.2055394,19.986 28.3642044,19.9346672 28.5135385,19.832 C28.6628726,19.7293328 28.7982046,19.610334 28.9195385,19.475 C29.0408725,19.339666 29.1435381,19.2020007 29.2275385,19.062 C29.3115389,18.9219993 29.372205,18.8100004 29.4095385,18.726 L29.5775385,18.796 C29.540205,18.870667 29.4795389,18.9849992 29.3955385,19.139 C29.3115381,19.2930008 29.1995392,19.4469992 29.0595385,19.601 C28.9195378,19.7550008 28.7445396,19.8879994 28.5345385,20 C28.3245375,20.1120006 28.0748733,20.168 27.7855385,20.168 C27.4308701,20.168 27.1648727,20.0816675 26.9875385,19.909 C26.8102043,19.7363325 26.7215385,19.5286679 26.7215385,19.286 C26.7215385,19.0993324 26.7565382,18.8870012 26.8265385,18.649 C26.8965389,18.4109988 26.9688715,18.194001 27.0435385,17.998 L28.4155385,14.19 L27.1555385,14.19 L27.2115385,13.994 L28.4715385,13.994 L28.9755385,12.622 Z M35.4467693,14.68 C35.4467693,14.4933324 35.3907698,14.3346673 35.2787693,14.204 C35.1667687,14.0733327 34.9801039,14.008 34.7187693,14.008 C34.4294345,14.008 34.1517706,14.0919992 33.8857693,14.26 C33.6197679,14.4280008 33.379437,14.6356654 33.1647693,14.883 C32.9501015,15.1303346 32.7634367,15.3963319 32.6047693,15.681 C32.4461018,15.9656681 32.3247697,16.2293321 32.2407693,16.472 C32.455437,16.5093335 32.6934346,16.528 32.9547693,16.528 C33.2907709,16.528 33.6081011,16.4766672 33.9067693,16.374 C34.2054374,16.2713328 34.4691015,16.1360008 34.6977693,15.968 C34.9264371,15.7999992 35.1084353,15.6040011 35.2437693,15.38 C35.3791033,15.1559989 35.4467693,14.9226679 35.4467693,14.68 Z M35.4747693,18.628 C35.418769,18.6933337 35.3347698,18.8123325 35.2227693,18.985 C35.1107687,19.1576675 34.9567702,19.3303325 34.7607693,19.503 C34.5647683,19.6756675 34.3244374,19.829666 34.0397693,19.965 C33.7551012,20.100334 33.4121046,20.168 33.0107693,20.168 C32.6094339,20.168 32.271104,20.1026673 31.9957693,19.972 C31.7204346,19.8413327 31.4964368,19.6733344 31.3237693,19.468 C31.1511017,19.2626656 31.025103,19.0363346 30.9457693,18.789 C30.8664355,18.5416654 30.8267693,18.3013345 30.8267693,18.068 C30.8267693,17.601331 30.9411015,17.1183358 31.1697693,16.619 C31.3984371,16.1196642 31.6971008,15.6623354 32.0657693,15.247 C32.4344378,14.8316646 32.8521003,14.488668 33.3187693,14.218 C33.7854383,13.947332 34.2614335,13.812 34.7467693,13.812 C34.9334369,13.812 35.1201017,13.8329998 35.3067693,13.875 C35.4934369,13.9170002 35.6614352,13.9799996 35.8107693,14.064 C35.9601033,14.1480004 36.0814355,14.2553327 36.1747693,14.386 C36.2681031,14.5166673 36.3147693,14.6753324 36.3147693,14.862 C36.3147693,15.1140013 36.2471033,15.3356657 36.1117693,15.527 C35.9764353,15.7183343 35.801437,15.881666 35.5867693,16.017 C35.3721015,16.152334 35.1364372,16.2666662 34.8797693,16.36 C34.6231013,16.4533338 34.3734371,16.5256664 34.1307693,16.577 C33.8881014,16.6283336 33.6664369,16.6656666 33.4657693,16.689 C33.2651016,16.7123334 33.1181031,16.724 33.0247693,16.724 C32.8661018,16.724 32.7121033,16.7193334 32.5627693,16.71 C32.4134352,16.7006666 32.2827698,16.6866668 32.1707693,16.668 C32.0681021,16.9666682 31.9817696,17.2629985 31.9117693,17.557 C31.8417689,17.8510015 31.8067693,18.1613317 31.8067693,18.488 C31.8067693,18.9920025 31.9374346,19.3676654 32.1987693,19.615 C32.4601039,19.8623346 32.7914339,19.986 33.1927693,19.986 C33.4914374,19.986 33.7551015,19.9276672 33.9837693,19.811 C34.2124371,19.6943328 34.4131017,19.5566675 34.5857693,19.398 C34.7584368,19.2393325 34.903102,19.0783341 35.0197693,18.915 C35.1364365,18.7516659 35.2321022,18.6233338 35.3067693,18.53 L35.4747693,18.628 Z M38.306,18.516 C38.3433335,18.6933342 38.3899997,18.8683325 38.446,19.041 C38.5020003,19.2136675 38.5836661,19.3699993 38.691,19.51 C38.7983339,19.6500007 38.9289992,19.7643329 39.083,19.853 C39.2370008,19.9416671 39.4306655,19.986 39.664,19.986 C39.9253346,19.986 40.1749988,19.9090008 40.413,19.755 C40.6510012,19.6009992 40.8726656,19.4003346 41.078,19.153 C41.2833344,18.9056654 41.4699992,18.6210016 41.638,18.299 C41.8060008,17.9769984 41.9483328,17.650335 42.065,17.319 C42.1816673,16.987665 42.2726663,16.6610016 42.338,16.339 C42.4033337,16.0169984 42.436,15.7300013 42.436,15.478 C42.436,15.0766647 42.3566675,14.7313348 42.198,14.442 C42.0393325,14.1526652 41.7546687,14.008 41.344,14.008 C41.1013321,14.008 40.8796677,14.0593328 40.679,14.162 C40.4783323,14.2646672 40.2986675,14.3906659 40.14,14.54 C39.9813325,14.6893341 39.8413339,14.8409992 39.72,14.995 C39.5986661,15.1490008 39.4960004,15.2819994 39.412,15.394 L38.306,18.516 Z M38.838,14.19 L37.536,14.19 L37.592,13.994 L39.804,13.994 L39.51,14.904 L39.538,14.904 C39.6033337,14.8013328 39.6943328,14.6870006 39.811,14.561 C39.9276672,14.4349994 40.0653325,14.3160006 40.224,14.204 C40.3826675,14.0919994 40.5576657,13.998667 40.749,13.924 C40.9403343,13.849333 41.1479989,13.812 41.372,13.812 C41.7173351,13.812 42.018332,13.879666 42.275,14.015 C42.5316679,14.150334 42.7439992,14.3299989 42.912,14.554 C43.0800008,14.7780011 43.2059996,15.0393318 43.29,15.338 C43.3740004,15.6366682 43.416,15.9493317 43.416,16.276 C43.416,16.668002 43.3226676,17.0903311 43.136,17.543 C42.9493324,17.9956689 42.6880017,18.4156647 42.352,18.803 C42.0159983,19.1903353 41.6170023,19.5146654 41.155,19.776 C40.6929977,20.0373346 40.1866694,20.168 39.636,20.168 C39.2719982,20.168 38.9593346,20.0490012 38.698,19.811 C38.4366654,19.5729988 38.2733337,19.2533353 38.208,18.852 L38.18,18.852 L36.472,23.71 L37.648,23.71 L37.592,23.906 L34.428,23.906 L34.484,23.71 L35.492,23.71 L38.838,14.19 Z M50.9544615,19.804 L49.8484615,19.804 L49.7924615,20 L53.0824615,20 L53.1384615,19.804 L52.0184615,19.804 L52.6204615,17.55 L54.1044615,17.55 L54.1604615,17.354 L52.6764615,17.354 L53.6564615,13.714 L52.5924615,13.714 L51.6124615,17.354 L48.0284615,17.354 C48.3271296,16.9246645 48.6677929,16.4696691 49.0504615,15.989 C49.4331301,15.5083309 49.8811256,15.004336 50.3944615,14.477 C50.9077974,13.949664 51.4981248,13.3966696 52.1654615,12.818 C52.8327981,12.2393304 53.6004571,11.6326698 54.4684615,10.998 C54.6364623,10.8673327 54.7577944,10.7693337 54.8324615,10.704 C54.9071285,10.6386663 54.9444615,10.5546672 54.9444615,10.452 C54.9444615,10.3213327 54.8837954,10.2373335 54.7624615,10.2 C54.6411275,10.1626665 54.5011289,10.144 54.3424615,10.144 C54.2024608,10.144 54.0881286,10.1533332 53.9994615,10.172 C53.9107944,10.1906668 53.8267952,10.2233331 53.7474615,10.27 C53.6681277,10.3166669 53.5841286,10.3866662 53.4954615,10.48 C53.4067944,10.5733338 53.2971288,10.6899993 53.1664615,10.83 C52.4851247,11.5486703 51.8574643,12.23933 51.2834615,12.902 C50.7094586,13.56467 50.1961304,14.1783305 49.7434615,14.743 C49.2907925,15.3076695 48.8987965,15.8139978 48.5674615,16.262 C48.2361265,16.7100022 47.9771291,17.0739986 47.7904615,17.354 L47.7344615,17.55 L51.5564615,17.55 L50.9544615,19.804 Z" id="Step-4" fill="#4A4A4A"></path>
            <g id="Page-1" transform="translate(3.000000, 29.000000)">
                <path d="M1.28779157,24 C0.958265639,24 0.628739706,23.874085 0.377370564,23.6226776 C-0.125790188,23.1198628 -0.125790188,22.3043732 0.377370564,21.8015584 L14.8017346,7.37711111 C15.3048953,6.8742963 16.1202608,6.8742963 16.6229991,7.37711111 C17.1257374,7.88034847 17.1257374,8.69583805 16.6225766,9.19865286 L2.19821258,23.6226776 C1.94684344,23.874085 1.61731751,24 1.28779157,24" id="Fill-1" fill="#CDCFCE"></path>
                <path d="M7.28749872,24 C6.95796664,24 6.62843457,23.874085 6.37706074,23.6226776 C5.87431309,23.1198628 5.87431309,22.3043732 6.37706074,21.8015584 L20.8021161,7.37711111 C21.3048638,6.8742963 22.1202444,6.8742963 22.6229921,7.37711111 C23.1257397,7.88034847 23.1257397,8.69583805 22.6225696,9.19865286 L8.19793669,23.6226776 C7.94656287,23.874085 7.61703079,24 7.28749872,24" id="Fill-3" fill="#CDCFCE"></path>
                <path d="M14.2878404,24 C13.9583155,24 13.6283681,23.874085 13.3769997,23.6226776 C12.874263,23.1198628 12.874263,22.3043732 13.3774222,21.8015584 L27.8017414,7.37711111 C28.3049006,6.8742963 29.1198411,6.8742963 29.6230003,7.37711111 C30.125737,7.88034847 30.125737,8.69583805 29.6225778,9.19865286 L15.1982586,23.6226776 C14.9468902,23.874085 14.6173653,24 14.2878404,24" id="Fill-5" fill="#CDCFCE"></path>
                <path d="M20.2877876,24 C19.9582627,24 19.6287378,23.874085 19.3773694,23.6226776 C18.8742102,23.1198628 18.8742102,22.3043732 19.3773694,21.8015584 L33.8021111,7.37711111 C34.3048478,6.8742963 35.1202107,6.8742963 35.6229475,7.37711111 C36.1256842,7.88034847 36.1256842,8.69583805 35.6229475,9.19865286 L21.1982058,23.6226776 C20.9468374,23.874085 20.6173125,24 20.2877876,24" id="Fill-7" fill="#CDCFCE"></path>
                <path d="M26.2874947,24 C25.9579637,24 25.6284326,23.874085 25.3770596,23.6226776 C24.8743135,23.1198628 24.8743135,22.3043732 25.3770596,21.8015584 L39.8020701,7.37711111 C40.3048162,6.8742963 41.1201943,6.8742963 41.6229404,7.37711111 C42.1256865,7.88034847 42.1256865,8.69583805 41.6229404,9.19865286 L27.1979299,23.6226776 C26.9465568,23.874085 26.6170258,24 26.2874947,24" id="Fill-9" fill="#CDCFCE"></path>
                <path d="M32.2877916,24 C31.9582656,24 31.6287397,23.874085 31.3773706,23.6226776 C30.8742098,23.1198628 30.8742098,22.3043732 31.3773706,21.8015584 L45.8017346,7.37711111 C46.3048953,6.8742963 47.1198383,6.8742963 47.6229991,7.37711111 C48.1257374,7.88034847 48.1257374,8.69583805 47.6225766,9.19865286 L33.1982126,23.6226776 C32.9468434,23.874085 32.6173175,24 32.2877916,24" id="Fill-11" fill="#CDCFCE"></path>
                <path d="M39.2874947,24 C38.9579637,24 38.6284326,23.874085 38.3770596,23.6226776 C37.8743135,23.1198628 37.8743135,22.3043732 38.3770596,21.8015584 L52.8020701,7.37711111 C53.3048162,6.8742963 54.1201943,6.8742963 54.6229404,7.37711111 C55.1256865,7.88034847 55.1256865,8.69583805 54.6229404,9.19865286 L40.1979299,23.6226776 C39.9465568,23.874085 39.6170258,24 39.2874947,24" id="Fill-13" fill="#CDCFCE"></path>
                <path d="M45.2877916,24 C44.9582656,24 44.6283172,23.874085 44.3773706,23.6226776 C43.8742098,23.1198628 43.8742098,22.3043732 44.3773706,21.8015584 L58.8017346,7.37711111 C59.3048953,6.8742963 60.1198383,6.8742963 60.6229991,7.37711111 C61.1257374,7.88034847 61.1257374,8.69583805 60.6225766,9.19865286 L46.1982126,23.6226776 C45.9468434,23.874085 45.6173175,24 45.2877916,24" id="Fill-15" fill="#CDCFCE"></path>
                <path d="M51.2877876,24 C50.9582627,24 50.6287378,23.874085 50.3773694,23.6226776 C49.8742102,23.1198628 49.8742102,22.3043732 50.3773694,21.8015584 L64.8021111,7.37711111 C65.3048478,6.8742963 66.1202107,6.8742963 66.6229475,7.37711111 C67.1256842,7.88034847 67.1256842,8.69583805 66.6229475,9.19865286 L52.1982058,23.6226776 C51.9468374,23.874085 51.6173125,24 51.2877876,24" id="Fill-17" fill="#CDCFCE"></path>
                <path d="M1.28779157,24 C0.958265639,24 0.628739706,23.874085 0.377370564,23.6226776 C-0.125790188,23.1198628 -0.125790188,22.3043732 0.377370564,21.8015584 L14.8017346,7.37711111 C15.3048953,6.8742963 16.1202608,6.8742963 16.6229991,7.37711111 C17.1257374,7.88034847 17.1257374,8.69583805 16.6225766,9.19865286 L2.19821258,23.6226776 C1.94684344,23.874085 1.61731751,24 1.28779157,24" id="Fill-19" fill="#CDCFCE"></path>
                <path d="M7.28749872,24 C6.95796664,24 6.62843457,23.874085 6.37706074,23.6226776 C5.87431309,23.1198628 5.87431309,22.3043732 6.37706074,21.8015584 L20.8021161,7.37711111 C21.3048638,6.8742963 22.1202444,6.8742963 22.6229921,7.37711111 C23.1257397,7.88034847 23.1257397,8.69583805 22.6225696,9.19865286 L8.19793669,23.6226776 C7.94656287,23.874085 7.61703079,24 7.28749872,24" id="Fill-21" fill="#CDCFCE"></path>
                <path d="M14.2878404,24 C13.9583155,24 13.6283681,23.874085 13.3769997,23.6226776 C12.874263,23.1198628 12.874263,22.3043732 13.3774222,21.8015584 L27.8017414,7.37711111 C28.3049006,6.8742963 29.1198411,6.8742963 29.6230003,7.37711111 C30.125737,7.88034847 30.125737,8.69583805 29.6225778,9.19865286 L15.1982586,23.6226776 C14.9468902,23.874085 14.6173653,24 14.2878404,24" id="Fill-23" fill="#CDCFCE"></path>
                <path d="M20.2877876,24 C19.9582627,24 19.6287378,23.874085 19.3773694,23.6226776 C18.8742102,23.1198628 18.8742102,22.3043732 19.3773694,21.8015584 L33.8021111,7.37711111 C34.3048478,6.8742963 35.1202107,6.8742963 35.6229475,7.37711111 C36.1256842,7.88034847 36.1256842,8.69583805 35.6229475,9.19865286 L21.1982058,23.6226776 C20.9468374,23.874085 20.6173125,24 20.2877876,24" id="Fill-25" fill="#CDCFCE"></path>
                <path d="M26.2874947,24 C25.9579637,24 25.6284326,23.874085 25.3770596,23.6226776 C24.8743135,23.1198628 24.8743135,22.3043732 25.3770596,21.8015584 L39.8020701,7.37711111 C40.3048162,6.8742963 41.1201943,6.8742963 41.6229404,7.37711111 C42.1256865,7.88034847 42.1256865,8.69583805 41.6229404,9.19865286 L27.1979299,23.6226776 C26.9465568,23.874085 26.6170258,24 26.2874947,24" id="Fill-27" fill="#CDCFCE"></path>
                <path d="M32.2877916,24 C31.9582656,24 31.6287397,23.874085 31.3773706,23.6226776 C30.8742098,23.1198628 30.8742098,22.3043732 31.3773706,21.8015584 L45.8017346,7.37711111 C46.3048953,6.8742963 47.1198383,6.8742963 47.6229991,7.37711111 C48.1257374,7.88034847 48.1257374,8.69583805 47.6225766,9.19865286 L33.1982126,23.6226776 C32.9468434,23.874085 32.6173175,24 32.2877916,24" id="Fill-29" fill="#CDCFCE"></path>
                <path d="M39.2874947,24 C38.9579637,24 38.6284326,23.874085 38.3770596,23.6226776 C37.8743135,23.1198628 37.8743135,22.3043732 38.3770596,21.8015584 L52.8020701,7.37711111 C53.3048162,6.8742963 54.1201943,6.8742963 54.6229404,7.37711111 C55.1256865,7.88034847 55.1256865,8.69583805 54.6229404,9.19865286 L40.1979299,23.6226776 C39.9465568,23.874085 39.6170258,24 39.2874947,24" id="Fill-31" fill="#CDCFCE"></path>
                <path d="M45.2877916,24 C44.9582656,24 44.6283172,23.874085 44.3773706,23.6226776 C43.8742098,23.1198628 43.8742098,22.3043732 44.3773706,21.8015584 L58.8017346,7.37711111 C59.3048953,6.8742963 60.1198383,6.8742963 60.6229991,7.37711111 C61.1257374,7.88034847 61.1257374,8.69583805 60.6225766,9.19865286 L46.1982126,23.6226776 C45.9468434,23.874085 45.6173175,24 45.2877916,24" id="Fill-33" fill="#CDCFCE"></path>
                <path d="M51.2877876,24 C50.9582627,24 50.6287378,23.874085 50.3773694,23.6226776 C49.8742102,23.1198628 49.8742102,22.3043732 50.3773694,21.8015584 L64.8021111,7.37711111 C65.3048478,6.8742963 66.1202107,6.8742963 66.6229475,7.37711111 C67.1256842,7.88034847 67.1256842,8.69583805 66.6229475,9.19865286 L52.1982058,23.6226776 C51.9468374,23.874085 51.6173125,24 51.2877876,24" id="Fill-35" fill="#CDCFCE"></path>
                <path d="M51.6748478,25 L1.32515217,25 C0.59301429,25 0,24.328248 0,23.5 C0,22.671752 0.59301429,22 1.32515217,22 L51.6748478,22 C52.4069857,22 53,22.671752 53,23.5 C53,24.328248 52.4069857,25 51.6748478,25" id="Fill-37" fill="#CDCFCE"></path>
                <g id="Group-41" transform="translate(65.000000, 7.000000)">
                    <mask id="mask-2" fill="white">
                        <use xlink:href="#path-1"></use>
                    </mask>
                    <g id="Clip-40"></g>
                    <path d="M0.369825,5.60406875 L0.369825,1.40450625 C0.369825,0.66819375 0.8817,0.07100625 1.512825,0.07100625 C2.14395,0.07100625 2.655825,0.66819375 2.655825,1.40450625 L2.655825,5.60406875 C2.655825,6.34081875 2.14395,6.93756875 1.512825,6.93756875 C0.8817,6.93756875 0.369825,6.34081875 0.369825,5.60406875" id="Fill-39" fill="#CDCFCE" mask="url(#mask-2)"></path>
                </g>
                <g id="Group-44">
                    <mask id="mask-4" fill="white">
                        <use xlink:href="#path-3"></use>
                    </mask>
                    <g id="Clip-43"></g>
                    <path d="M50.1643796,27.6607712 L50.1643796,23.4430288 C50.1643796,22.7035288 50.7555898,22.1037561 51.4845325,22.1037561 C52.2134752,22.1037561 52.8046854,22.7035288 52.8046854,23.4430288 L52.8046854,27.6607712 C52.8046854,28.4002712 52.2134752,29.0000439 51.4845325,29.0000439 C50.7555898,29.0000439 50.1643796,28.4002712 50.1643796,27.6607712" id="Fill-42" fill="#CDCFCE" mask="url(#mask-4)"></path>
                </g>
                <path d="M15,12.6405862 L15,8.35941383 C15,7.60879261 15.671752,7 16.5,7 C17.328248,7 18,7.60879261 18,8.35941383 L18,12.6405862 C18,13.3916534 17.328248,14 16.5,14 C15.671752,14 15,13.3916534 15,12.6405862" id="Fill-45" fill="#CDCFCE"></path>
                <g id="Group-49" transform="translate(0.000000, 22.000000)">
                    <mask id="mask-6" fill="white">
                        <use xlink:href="#path-5"></use>
                    </mask>
                    <g id="Clip-48"></g>
                    <path d="M-4.28571429e-05,5.66654375 L-4.28571429e-05,1.46698125 C-4.28571429e-05,0.73066875 0.584957143,0.13348125 1.30624286,0.13348125 C2.02752857,0.13348125 2.61252857,0.73066875 2.61252857,1.46698125 L2.61252857,5.66654375 C2.61252857,6.40285625 2.02752857,7.00004375 1.30624286,7.00004375 C0.584957143,7.00004375 -4.28571429e-05,6.40285625 -4.28571429e-05,5.66654375" id="Fill-47" fill="#CDCFCE" mask="url(#mask-6)"></path>
                </g>
                <g id="Group-49-Copy" transform="translate(51.000000, 22.000000)">
                    <mask id="mask-8" fill="white">
                        <use xlink:href="#path-7"></use>
                    </mask>
                    <g id="Clip-48"></g>
                    <path d="M-4.28571429e-05,5.66654375 L-4.28571429e-05,1.46698125 C-4.28571429e-05,0.73066875 0.584957143,0.13348125 1.30624286,0.13348125 C2.02752857,0.13348125 2.61252857,0.73066875 2.61252857,1.46698125 L2.61252857,5.66654375 C2.61252857,6.40285625 2.02752857,7.00004375 1.30624286,7.00004375 C0.584957143,7.00004375 -4.28571429e-05,6.40285625 -4.28571429e-05,5.66654375" id="Fill-47" fill="#CDCFCE" mask="url(#mask-8)"></path>
                </g>
                <path d="M66.6748478,10 L16.3251522,10 C15.5930143,10 15,9.32824803 15,8.5 C15,7.67175197 15.5930143,7 16.3251522,7 L66.6748478,7 C67.4069857,7 68,7.67175197 68,8.5 C68,9.32824803 67.4069857,10 66.6748478,10" id="Fill-50" fill="#CDCFCE"></path>
                <polygon id="Fill-52" fill="#F6F6F6" points="62.987096 3.01318224 62.9991397 3 15.7460614 3 4 14.9997919 4 15.999445 4 22 51.2535085 22 51.2535085 15.999445 51.2535085 22 63 9.99932932 63 3"></polygon>
                <polygon id="Stroke-54" stroke="#000000" stroke-width="0.759" stroke-linecap="round" stroke-linejoin="round" points="63 3 51 14.9993525 51 22 63 9.99888992"></polygon>
                <polyline id="Stroke-56" stroke="#000000" stroke-width="0.759" stroke-linecap="round" stroke-linejoin="round" points="15.6830454 3 4 14.9993525 4 15.999445 4 22 51 22 51 14.9993525 4.06417375 14.9993525"></polyline>
                <path d="M62.5,2.5 L16,3" id="Stroke-58" stroke="#000000" stroke-width="0.759" stroke-linecap="round" stroke-linejoin="round"></path>
                <polygon id="Fill-60" fill="#6D7A68" points="37.4799644 4.16881222 40 4.16881222 35.4997777 0 31 4.16881222 33.5200356 4.16881222 33.5200356 10 37.4799644 10"></polygon>
            </g>
        </g>
    </g>
</svg>