<?xml version="1.0" encoding="UTF-8"?>
<svg width="75px" height="75px" viewBox="0 0 75 75" version="1.1" xmlns="http://www.w3.org/2000/svg" xmlns:xlink="http://www.w3.org/1999/xlink">
    <!-- Generator: Sketch 46.2 (44496) - http://www.bohemiancoding.com/sketch -->
    <title>icon-FreeShipping2</title>
    <desc>Created with Sketch.</desc>
    <defs></defs>
    <g id="Page-1" stroke="none" stroke-width="1" fill="none" fill-rule="evenodd">
        <g id="icon-FreeShipping2" fill-rule="nonzero">
            <g transform="translate(1.000000, 15.000000)">
                <path d="M10.4251461,38.5004173 C10.580596,36.7086088 12.1542137,35.2556333 13.9389772,35.2556333 C15.724572,35.2556333 17.0438173,36.7086088 16.8883675,38.5004173 C16.7320864,40.2930603 15.1592999,41.7452013 13.3737051,41.7452013 C11.5889416,41.7452013 10.268865,40.2930603 10.4251461,38.5004173 Z M7.02520076,38.5004173 C6.71180726,42.0898761 9.35777943,45 12.9339567,45 C16.5093027,45 19.6623572,42.0898761 19.9749194,38.5004173 C20.2874816,34.9109585 17.6423407,32 14.0669947,32 C10.4899862,32 7.33776298,34.9109585 7.02520076,38.5004173 Z" id="Fill-1" fill="#454D5B"></path>
                <path d="M54.42432,38.5004173 C54.580601,36.7086088 56.1542179,35.2556333 57.9389805,35.2556333 C59.7245744,35.2556333 61.043819,36.7086088 60.887538,38.5004173 C60.731257,40.2930603 59.1593026,41.7452013 57.3737087,41.7452013 C55.5889461,41.7452013 54.2680389,40.2930603 54.42432,38.5004173 Z M51.0252076,38.5004173 C50.7118143,42.0898761 53.3569538,45 56.9339605,45 C60.5093046,45 63.6623575,42.0898761 63.9749196,38.5004173 C64.2874816,34.9109585 61.6423421,32 58.0661667,32 C54.4899912,32 51.3377697,34.9109585 51.0252076,38.5004173 Z" id="Fill-3" fill="#454D5B"></path>
                <path d="M62.9503128,20.6406309 L53.7647671,20.6406309 C53.1096952,20.6406309 52.6265154,20.1172498 52.6838129,19.4706209 L53.3063878,12.4505609 C53.3636852,11.8047762 53.9392249,11.2805509 54.5942969,11.2805509 L58.8172021,11.2805509 C59.472274,11.2805509 60.2077334,11.7448406 60.4600131,12.3171832 L63.6780755,19.6039987 C63.9320656,20.1771854 63.6045296,20.6406309 62.9503128,20.6406309 M72.6446938,22.6666222 L67.6871844,19.8445851 C67.6563977,19.7669221 67.6264662,19.6867266 67.593114,19.6166611 L62.8519665,9.47235366 C62.4500294,8.61130734 61.3169088,7.91234033 60.3206179,7.91234033 L53.2773115,7.91234033 C51.0615263,7.91234033 49.7744723,8.12760191 49.4768679,11.4789292 C49.3554315,12.8481617 48.0683776,27.3719871 48.0683776,27.3719871 C48.0273287,27.8345885 47.6142742,28.2093969 47.1456326,28.2093969 C46.6761359,28.2093969 46.3297858,27.8345885 46.3708347,27.3719871 L48.7969955,0 L3.21048604,0 L0.00867214336,36.1251139 C-0.0836878728,37.1609019 0.572239279,38 1.47274944,38 L4.59075517,38 C5.0730797,33.4921693 9.12922374,29.8504499 13.7147275,29.8504499 C18.2985209,29.8504499 21.7098552,33.4921693 21.3934366,38 L48.8850796,37.9864934 C49.3665489,33.4795068 53.4235482,29.8369432 58.0090519,29.8369432 C62.5928453,29.8369432 66.0041796,33.4795068 65.6869059,37.9864934 L71.0643113,38 C72.059747,38 72.9371672,37.2039542 73.0243961,36.2196601 L73.9916107,25.3020993 C74.0788396,24.3186493 73.4759339,23.1393535 72.6446938,22.6666222" id="Fill-5" fill="#454D5B"></path>
                <path d="M7,16 L44,16" id="Fill-7" fill="#000000"></path>
                <path d="M49,5.0084317 L26.6854521,5 C25.3272153,5 24.1284999,6.11954281 24.0095505,7.50046843 C23.890601,8.88045719 24.8965999,10 26.2548366,10 L48.5703066,10" id="Fill-11" fill="#FFFFFF"></path>
                <path d="M37.9911827,16.5 C38.1010021,15.1193331 37.1722196,14 35.9173842,14 L13.4801791,14 C12.2253437,14 11.1186368,15.1193331 11.0088174,16.5 C10.8989981,17.8806669 11.8277805,19 13.0817646,19 L35.5198211,19 C36.7746564,19 37.8813633,17.8806669 37.9911827,16.5" id="Fill-13" fill="#FFFFFF"></path>
                <path d="M40.8940855,21 L26.5081214,21 C25.2390757,21 24.1199376,22.1192351 24.0087992,23.5 C23.8985223,24.8807649 24.8375989,26 26.1057831,26 L40.4917472,26 C41.7607929,26 42.879931,24.8807649 42.9910694,23.5 C43.1022078,22.1192351 42.1631312,21 40.8940855,21" id="Fill-15" fill="#FFFFFF"></path>
            </g>
        </g>
    </g>
</svg>