<svg xmlns="http://www.w3.org/2000/svg" viewBox="0 0 84 84"><defs><style>.cls-1{fill:#556774;}</style></defs><title>BrentwoodHome_Guranatee_FINAL_ALL</title><g id="Layer_2" data-name="Layer 2"><path class="cls-1" d="M78.49,54.52H72.84a.87.87,0,0,1-.88-.88,4.78,4.78,0,0,0-9.55,0,.87.87,0,0,1-.87.88H39a.87.87,0,0,1-.87-.88,4.78,4.78,0,0,0-9.55,0,.87.87,0,0,1-.87.88H22.55a.88.88,0,0,1,0-1.75H26.9a6.52,6.52,0,0,1,12.92,0H60.73a6.52,6.52,0,0,1,12.92,0h4.84a.88.88,0,0,1,0,1.75Z"/><path class="cls-1" d="M24.05,51.07a.88.88,0,1,0,1.75,0V27.59H54.66V51.07a.88.88,0,1,0,1.75,0V26.71a.87.87,0,0,0-.88-.87H24.93a.87.87,0,0,0-.88.87Z"/><path class="cls-1" d="M75.66,52a.87.87,0,0,1-.87-.88v-8.3l-4-1.61a.85.85,0,0,1-.5-.53l-2.63-7.89H59.24V51.07a.88.88,0,1,1-1.75,0V31.87a.87.87,0,0,1,.87-.87h10a.87.87,0,0,1,.83.59l2.7,8.11L76,41.37a.88.88,0,0,1,.54.81v8.89A.87.87,0,0,1,75.66,52Z"/><path class="cls-1" d="M33.42,58.16a4.08,4.08,0,1,1,4.08-4.08A4.08,4.08,0,0,1,33.42,58.16Zm0-6.21a2.13,2.13,0,1,0,2.13,2.13A2.13,2.13,0,0,0,33.42,52Z"/><path class="cls-1" d="M67.31,58.16a4.08,4.08,0,1,1,4.08-4.08A4.08,4.08,0,0,1,67.31,58.16Zm0-6.21a2.13,2.13,0,1,0,2.13,2.13A2.13,2.13,0,0,0,67.31,52Z"/><path class="cls-1" d="M20.94,39.36H5.14a.5.5,0,1,0,0,1h15.8a.5.5,0,1,0,0-1Z"/><path class="cls-1" d="M20.94,35.28H8.8a.5.5,0,0,0-.5.5.5.5,0,0,0,.5.5H20.94a.51.51,0,0,0,.5-.5A.5.5,0,0,0,20.94,35.28Z"/><path class="cls-1" d="M20.94,43.43H8.8a.5.5,0,0,0,0,1H20.94a.5.5,0,1,0,0-1Z"/><path class="cls-1" d="M68.44,40.83H61a.47.47,0,0,1-.48-.48V34.79a.48.48,0,0,1,.48-.48h5.6a.5.5,0,0,1,.46.33L68.9,40.2a.47.47,0,0,1-.07.43A.46.46,0,0,1,68.44,40.83Zm-7-1h6.3l-1.53-4.6H61.48Z"/></g></svg>