<?xml version="1.0" encoding="UTF-8"?>
<svg width="35px" height="20px" viewBox="0 0 35 20" version="1.1" xmlns="http://www.w3.org/2000/svg" xmlns:xlink="http://www.w3.org/1999/xlink">
    <!-- Generator: Sketch 58 (84663) - https://sketch.com -->
    <title>np_shipping_196540_000000</title>
    <desc>Created with Sketch.</desc>
    <g id="misc-BWH-icons" stroke="none" stroke-width="1" fill="none" fill-rule="evenodd">
        <g id="icons-specs" transform="translate(-25.000000, -125.000000)" fill="#38414F" fill-rule="nonzero">
            <g id="np_shipping_196540_000000" transform="translate(25.000000, 125.000000)">
                <path d="M29.2050538,3.3122043 L25.1401613,3.3122043 L25.1401613,0.339688172 L5.79682796,0.339688172 L5.79682796,4.06489247 L0.11327957,4.06489247 L0.11327957,5.30712903 L5.79682796,5.30712903 L5.79682796,7.82833333 L1.13091398,7.82833333 L1.13091398,9.07056989 L5.79682796,9.07056989 L5.79682796,11.5917742 L2.0333871,11.5917742 L2.0333871,12.8340108 L5.79682796,12.8340108 L5.79682796,17.5766989 L9.41033333,17.5766989 C9.59850538,18.9321398 10.7657742,19.9479677 12.1579462,19.9479677 C13.5501183,19.9479677 14.7173871,18.9321398 14.9055591,17.5766989 L26.2342688,17.5766989 C26.4224409,18.9321398 27.5897097,19.9479677 28.9818817,19.9479677 C30.3740538,19.9479677 31.5413226,18.9321398 31.7294946,17.5766989 L34.627043,17.5766989 L34.627043,9.4104086 C34.5491285,5.72046774 32.4410108,3.31250538 29.2054301,3.31250538 L29.2050538,3.3122043 Z M12.1182796,18.7423118 C11.2906237,18.7423118 10.6129032,18.0645914 10.6129032,17.2369355 C10.6129032,16.4092796 11.2906237,15.7315591 12.1182796,15.7315591 C12.9459355,15.7315591 13.6236559,16.4092796 13.6236559,17.2369355 C13.6236559,18.0645914 12.9459355,18.7423118 12.1182796,18.7423118 Z M23.8599892,16.371043 L14.7526882,16.371043 C14.3763441,15.2802473 13.3605161,14.451086 12.1182796,14.451086 C10.9142796,14.451086 9.86021505,15.2420108 9.48387097,16.371043 L6.99939785,16.371043 L6.99939785,1.61873118 L23.8599892,1.61873118 L23.8599892,16.371043 Z M28.9036022,18.7423118 C28.0759462,18.7423118 27.3982258,18.0645914 27.3982258,17.2369355 C27.3982258,16.4092796 28.0759462,15.7315591 28.9036022,15.7315591 C29.7312581,15.7315591 30.4089785,16.4092796 30.4089785,17.2369355 C30.4089785,18.0645914 29.7312581,18.7423118 28.9036022,18.7423118 Z M33.2684409,16.371043 L31.5366559,16.371043 C31.1603118,15.2802473 30.1444839,14.451086 28.9022473,14.451086 C27.6600108,14.451086 26.6441828,15.2420108 26.2678387,16.371043 L25.1005699,16.371043 L25.1005699,4.5545914 L29.1654624,4.5545914 C31.6866667,4.5545914 33.2303548,6.43631183 33.2303548,9.44706452 L33.2318248,16.371043 L33.2684409,16.371043 Z" id="Shape"></path>
            </g>
        </g>
    </g>
</svg>