<?xml version="1.0" encoding="utf-8"?>
<!-- Generator: Adobe Illustrator 16.0.0, SVG Export Plug-In . SVG Version: 6.00 Build 0)  -->
<!DOCTYPE svg PUBLIC "-//W3C//DTD SVG 1.1//EN" "http://www.w3.org/Graphics/SVG/1.1/DTD/svg11.dtd">
<svg version="1.1" id="Layer_1" xmlns="http://www.w3.org/2000/svg" xmlns:xlink="http://www.w3.org/1999/xlink" x="0px" y="0px"
	 width="84px" height="84px" viewBox="0 0 84 84" enable-background="new 0 0 84 84" xml:space="preserve">
<g>
	<g>
		<g>
			<g>
				<g>
					<g>
						<g>
							<g>
								<g>
									<g>
										<path fill="#464D5A" d="M55.717,32.395c-3.864,0-7.005,3.143-7.005,7.008c0,3.863,3.141,7.008,7.005,7.008
											c3.863,0,7.011-3.145,7.011-7.008C62.728,35.537,59.58,32.395,55.717,32.395z M55.717,45.27
											c-3.234,0-5.868-2.633-5.868-5.867c0-3.236,2.634-5.869,5.868-5.869c3.236,0,5.871,2.633,5.871,5.869
											C61.588,42.637,58.953,45.27,55.717,45.27z"/>
										<g>
											<path fill="#464D5A" d="M55.717,35.111c-2.368,0-4.289,1.92-4.289,4.291c0,2.369,1.921,4.289,4.289,4.289
												c2.37,0,4.291-1.92,4.291-4.289C60.008,37.031,58.087,35.111,55.717,35.111z M58.381,37.74
												c-0.048,0.096-0.117,0.176-0.176,0.262c-0.77,1.088-1.54,2.176-2.307,3.26c-0.061,0.086-0.117,0.176-0.189,0.252
												c-0.267,0.291-0.505,0.312-0.825,0.076c-0.107-0.08-0.207-0.176-0.303-0.271c-0.422-0.42-0.846-0.842-1.271-1.268
												c-0.366-0.371-0.413-0.627-0.158-0.875c0.246-0.238,0.494-0.186,0.874,0.191c0.299,0.295,0.593,0.594,0.889,0.887
												c0.084,0.082,0.176,0.156,0.289,0.254c0.1-0.137,0.195-0.25,0.277-0.371c0.647-0.918,1.294-1.832,1.939-2.752
												c0.155-0.225,0.338-0.381,0.633-0.322C58.387,37.129,58.54,37.443,58.381,37.74z"/>
										</g>
									</g>
								</g>
							</g>
						</g>
					</g>
				</g>
			</g>
			<path fill="#464D5A" d="M73.277,47.174c-1.424,0.623-10.374,3.527-17.937,3.352c-5.434-0.125-11.47-2.059-15.354-3.539
				l-0.131-0.047c-8.613-3.861-8.752-3.842-13.483-2.016c-0.989,0.383-2.223,0.857-3.808,1.391c-3.738,1.252-6.811,1.109-9.135-0.43
				c-2.562-1.693-4.11-5.061-4.475-9.684c-0.004-0.262-0.034-6.402,5.217-9.047c1.682-0.846,2.742-1.186,5.212-0.625
				c2.804,0.631,5.011-1.451,5.862-2.328c0.144-0.148,0.261-0.051,0.271-0.004c0.063,0.26-0.026,0.717-0.026,1.416
				c0,0.207,0.083,0.404,0.229,0.549c0.239,0.238,0.236,0.238,2.596,0.213c0.367-0.004,0.654-0.176,0.725-0.537
				c0.02-0.027,0.131-0.254,0.445-0.254c0.265,0,0.404,0.193,0.418,0.217c0.039,0.105,0.131,0.268,0.211,0.348
				c0.314,0.314,0.691,0.311,1.047,0.164c1.227-0.5,1.439-0.129,1.496-0.084c0.602,0.615,0.118,2.943-0.027,4.373
				c-0.08,0.791-0.23,1.381-0.248,1.877c-0.037,1.061,0.331,3.43,1.992,4.812c0.773,0.645,1.787,1.197,3.578,0.986
				c1.79-0.209,2.947-1.309,4.448-2.99c1.608-1.805,3.612-4.049,6.683-5.174c3.574-1.305,9.664-1.117,14.19-0.717
				c0,0,3.339-0.154,10.437,1.924c0,0,0.793-0.053,0.918-0.803c0.121-0.727-0.918-0.99-0.918-0.99
				c-7.092-2.004-10.484-1.801-10.484-1.801c-4.694-0.418-10.847-0.553-14.701,0.855c-3.455,1.264-5.61,3.68-7.343,5.621
				c-1.207,1.354-1.735,2.381-3.219,2.592c-1.483,0.209-1.859-0.078-2.599-0.693c-1.104-0.92-1.467-2.678-1.435-3.568
				c0.016-0.48,0.071-1.18,0.132-1.947c0.182-2.326,0.295-4.029,0.088-4.773c-0.407-1.469-2.201-1.227-3.09-1.059
				c-0.334-0.379-0.855-0.572-1.559-0.572c-0.832,0-1.346,0.305-1.64,0.65c-0.247,0.002-0.563,0.004-0.847,0.008
				c-0.067-0.955-0.303-1.967-1.066-2.328c-0.568-0.264-1.148-0.045-1.472,0.223c-0.045,0.037-0.086,0.08-0.122,0.127
				c-0.02,0.027-2.115,2.721-4.631,2.156c-2.802-0.633-4.194-0.279-6.248,0.754C7.345,28.859,7.403,35.928,7.41,36.273
				c0.405,5.166,2.191,8.936,5.165,10.902c1.526,1.01,3.344,1.516,5.383,1.516c1.578,0,3.288-0.303,5.1-0.91
				c1.618-0.543,2.867-1.025,3.873-1.412c4.22-1.629,4.106-1.682,12.297,1.988l0.115,0.049c4.005,1.525,10.247,3.463,15.952,3.748
				c7.65,0.381,16.933-2.949,18.499-3.418c0,0,0.969-0.363,0.75-1.062C74.241,46.707,73.277,47.174,73.277,47.174z"/>
		</g>
	</g>
	<path fill="#464D5A" d="M57.987,61.607c-6.217,0-11.132-1.664-15.885-3.271c-4.452-1.506-8.658-2.93-13.907-3.105
		c-10.641-0.355-15.366,3.428-15.412,3.465c-0.533,0.441-1.32,0.363-1.76-0.168c-0.439-0.533-0.364-1.32,0.168-1.76
		c0.22-0.18,5.484-4.436,17.088-4.035c5.617,0.188,10.196,1.736,14.625,3.234c4.771,1.615,9.278,3.141,15.083,3.141
		c10.364,0,16.665-3.566,16.728-3.604c0.595-0.344,1.36-0.143,1.707,0.457c0.346,0.596,0.145,1.359-0.451,1.705
		C75.694,57.828,69.072,61.607,57.987,61.607z"/>
</g>
</svg>
