<?xml version="1.0" encoding="UTF-8"?>
<svg width="75px" height="75px" viewBox="0 0 75 75" version="1.1" xmlns="http://www.w3.org/2000/svg" xmlns:xlink="http://www.w3.org/1999/xlink">
    <!-- Generator: Sketch 46.2 (44496) - http://www.bohemiancoding.com/sketch -->
    <title>icon-PressureRelieving</title>
    <desc>Created with Sketch.</desc>
    <defs>
        <polygon id="path-1" points="81.7420894 0.432045918 81.7420894 21.8492908 0.000229050279 21.8492908 0.000229050279 0.432045918 81.7420894 0.432045918"></polygon>
        <path d="M35.4072308,16.6352308 L35.4072308,27.5358462 L30.6483077,22.7496923 C30.3621538,22.4589231 29.9836923,22.2863077 29.6107692,22.2863077 C29.2364615,22.2863077 28.8589231,22.4589231 28.5727692,22.7496923 C28.2866154,23.0395385 28.1476923,23.3898462 28.1476923,23.7678462 C28.1476923,24.1463077 28.2898462,24.5289231 28.5727692,24.8183077 L35.8323077,32.1696923 C36.0990769,32.4392308 36.4646154,32.5998462 36.8698462,32.5998462 C37.2750769,32.5998462 37.6410769,32.4350769 37.9073846,32.1696923 L45.1673846,24.8183077 C45.4535385,24.5289231 45.5929231,24.1463077 45.5929231,23.7678462 C45.5929231,23.3898462 45.4493846,23.0395385 45.1673846,22.7496923 C44.8812308,22.4589231 44.5032308,22.2863077 44.1298462,22.2863077 C43.756,22.2863077 43.3784615,22.4589231 43.0923077,22.7496923 L38.3333846,27.5358462 L38.3333846,16.6352308 C38.3333846,15.8178462 37.6770769,15.1536923 36.8698462,15.1536923 C36.0630769,15.1536923 35.4072308,15.8178462 35.4072308,16.6352308 Z" id="path-3"></path>
    </defs>
    <g id="Page-1" stroke="none" stroke-width="1" fill="none" fill-rule="evenodd">
        <g id="icon-PressureRelieving">
            <path d="M27,30.3563898 C27,30.8556702 27.1882276,31.3594242 27.561148,31.74149 L37.1315941,41.4327174 C37.4833058,41.7879401 37.9649211,42 38.4995582,42 C39.0341952,42 39.5166942,41.7825715 39.8675222,41.4327174 L49.438852,31.74149 C49.8161909,31.3594242 50,30.8556702 50,30.3563898 C50,29.8580043 49.8108887,29.3963042 49.438852,29.0142385 C49.0615131,28.631278 48.5631075,28.4031122 48.0708879,28.4031122 C47.5777846,28.4031122 47.0802628,28.631278 46.7029239,29.0142385 L40.4286702,35.3241393 L40.4286702,20.9532776 C40.4286702,19.8759774 39.5635302,19 38.4995582,19 C37.4355861,19 36.5713298,19.8759774 36.5713298,20.9532776 L36.5713298,35.3241393 L30.2970761,29.0142385 C29.9197372,28.631278 29.4213317,28.4031122 28.9291121,28.4031122 C28.4360088,28.4031122 27.9384869,28.631278 27.561148,29.0142385 C27.1838091,29.3963042 27,29.8580043 27,30.3563898 Z" id="Stroke-1" fill="#FFFFFF" fill-rule="nonzero"></path>
            <path d="M36.766048,42.0911684 C47.2547184,42.0911684 55.7575229,33.5682602 55.7575229,23.0547908 C55.7575229,12.5417806 47.2547184,4.01887245 36.766048,4.01887245 C26.2773777,4.01887245 17.7750313,12.5417806 17.7750313,23.0547908 C17.7750313,33.5682602 26.2773777,42.0911684 36.766048,42.0911684" id="Fill-1" fill="#414A59"></path>
            <g id="Group-5" transform="translate(-4.000000, 26.959184)">
                <mask id="mask-2" fill="white">
                    <use xlink:href="#path-1"></use>
                </mask>
                <g id="Clip-4"></g>
                <path d="M80.3680168,0.432045918 L62.6995363,0.432045918 L62.4663631,1.52031122 C60.2839721,11.7031684 51.1576927,19.0941888 40.7661397,19.0941888 C30.3741285,19.0941888 21.2478492,11.7031684 19.0663743,1.52031122 L18.832743,0.432045918 L1.37453073,0.432045918 C0.615,0.432045918 0.000229050279,1.04872959 0.000229050279,1.80959694 C0.000229050279,2.57046429 0.615,3.18714796 1.37453073,3.18714796 L16.6379832,3.18714796 C19.4882849,14.0656684 29.460676,21.8492908 40.7661397,21.8492908 C52.0711453,21.8492908 62.0435363,14.0656684 64.8942961,3.18714796 L80.3680168,3.18714796 C81.1270894,3.18714796 81.7423184,2.57046429 81.7423184,1.80959694 C81.7423184,1.04872959 81.1270894,0.432045918 80.3680168,0.432045918" id="Fill-3" fill="#414A59" mask="url(#mask-2)"></path>
            </g>
            <path d="M45,62.6061376 C45,62.2369048 44.8610281,61.8649735 44.5853329,61.5825397 L37.5117067,54.4191534 C37.2513029,54.1565079 36.895103,54 36.5006746,54 C36.1053467,54 35.7486971,54.1605556 35.4896426,54.4191534 L28.4146671,61.5825397 C28.1358237,61.8649735 28,62.2369048 28,62.6061376 C28,62.9744709 28.1398714,63.3158201 28.4146671,63.598254 C28.6935104,63.8811376 29.0618535,64.0497884 29.4256991,64.0497884 C29.7904442,64.0497884 30.1578878,63.8811376 30.4367311,63.598254 L35.0745258,58.9340476 L35.0745258,69.5563492 C35.0745258,70.352381 35.7140665,71 36.5006746,71 C37.286833,71 37.925924,70.352381 37.925924,69.5563492 L37.925924,58.9340476 L42.5632689,63.598254 C42.8421122,63.8811376 43.2104553,64.0497884 43.5743009,64.0497884 C43.939046,64.0497884 44.3064896,63.8811376 44.5853329,63.598254 C44.8641763,63.3158201 45,62.9744709 45,62.6061376" id="Fill-10" fill="#414A59"></path>
            <mask id="mask-4" fill="white">
                <use xlink:href="#path-3"></use>
            </mask>
            <use id="Clip-8" fill="#FFFFFF" xlink:href="#path-3"></use>
        </g>
    </g>
</svg>