<?xml version="1.0" encoding="UTF-8"?>
<svg width="75px" height="75px" viewBox="0 0 75 75" version="1.1" xmlns="http://www.w3.org/2000/svg" xmlns:xlink="http://www.w3.org/1999/xlink">
    <!-- Generator: Sketch 46.2 (44496) - http://www.bohemiancoding.com/sketch -->
    <title>icon-CertiPUR-US</title>
    <desc>Created with Sketch.</desc>
    <defs>
        <polygon id="path-1" points="9.68037654e-21 0.0844615385 9.68037654e-21 9.60215385 4.67635714 9.60215385 4.67635714 0.0844615385 0 0.0844615385"></polygon>
        <polygon id="path-3" points="0 58 74 58 74 0 0 0"></polygon>
    </defs>
    <g id="Page-1" stroke="none" stroke-width="1" fill="none" fill-rule="evenodd">
        <g id="icon-CertiPUR-US">
            <g id="Page-1" transform="translate(1.000000, 8.000000)">
                <g id="Group-3" transform="translate(0.000000, 16.000000)">
                    <mask id="mask-2" fill="white">
                        <use xlink:href="#path-1"></use>
                    </mask>
                    <g id="Clip-2"></g>
                    <path d="M4.58635714,9.37984615 C4.34135714,9.50446154 3.86421429,9.60215385 3.27207143,9.60215385 C1.05635714,9.60215385 -7.14285714e-05,7.63138462 -7.14285714e-05,4.98138462 C-7.14285714e-05,1.45753846 1.81635714,0.0844615385 3.5035,0.0844615385 C4.09635714,0.0844615385 4.50921429,0.209076923 4.67635714,0.333692308 L4.39278571,1.85984615 C4.19992857,1.76292308 3.98064286,1.67984615 3.60707143,1.67984615 C2.6535,1.67984615 1.79064286,2.56753846 1.79064286,4.88446154 C1.79064286,7.11830769 2.57635714,7.99215385 3.60707143,7.99215385 C3.88992857,7.99215385 4.21278571,7.92292308 4.4185,7.85369231 L4.58635714,9.37984615 Z" id="Fill-1" fill="#414A59" mask="url(#mask-2)"></path>
                </g>
                <path d="M8.35631127,21.8804012 C8.35631127,21.003858 8.13572304,20.3217593 7.59727328,20.3217593 C7.00291054,20.3217593 6.76853554,21.1983025 6.75398284,21.8804012 L8.35631127,21.8804012 Z M6.74096201,23.1604938 C6.76853554,24.2183642 7.37591912,24.6080247 8.17708333,24.6080247 C8.68872549,24.6080247 9.14368873,24.4969136 9.46155025,24.3858025 L9.71047794,25.6936728 C9.24019608,25.8742284 8.53630515,26 7.84543505,26 C6.00873162,26 5,24.7746914 5,22.6458333 C5,20.3634259 6.17340686,19 7.70680147,19 C9.15824142,19 10,20.1550926 10,22.2145062 C10,22.7013889 9.98697917,22.9660494 9.94485294,23.1604938 L6.74096201,23.1604938 Z" id="Fill-4" fill="#414A59"></path>
                <path d="M11.0480962,21.1828629 C11.0480962,20.492469 11.0240481,19.746625 11,19.1124623 L12.3734135,19.1124623 L12.4575818,20.1121276 L12.493654,20.1121276 C12.759519,19.3795604 13.2291249,19 13.6626587,19 C13.8189713,19 13.9031396,19 14,19.0281156 L14,20.8587526 C13.9031396,20.8306371 13.7949232,20.8306371 13.6626587,20.8306371 C13.3253173,20.8306371 12.8790915,21.0985161 12.6987308,21.8170255 C12.6626587,21.9716613 12.6386106,22.2114247 12.6386106,22.5074194 L12.6386106,26 L11.0480962,26 L11.0480962,21.1828629 Z" id="Fill-6" fill="#414A59"></path>
                <path d="M17.6529183,17 L17.6529183,18.8948625 L19,18.8948625 L19,20.2294633 L17.6529183,20.2294633 L17.6529183,23.4302768 C17.6529183,24.2483862 17.9898833,24.4489345 18.3540856,24.4489345 C18.536965,24.4489345 18.6770428,24.4346096 18.8319066,24.4067557 L18.8459144,25.8702803 C18.5929961,25.9419047 18.2140078,26 17.7229572,26 C17.1891051,26 16.7268482,25.8702803 16.4038911,25.5551331 C16.0241245,25.1810947 15.8140078,24.6502785 15.8140078,23.5448758 L15.8140078,20.2294633 L15,20.2294633 L15,18.8948625 L15.8140078,18.8948625 L15.8140078,17.4448669 L17.6529183,17 Z" id="Fill-8" fill="#414A59"></path>
                <mask id="mask-4" fill="white">
                    <use xlink:href="#path-3"></use>
                </mask>
                <g id="Clip-11"></g>
                <path d="M20.0458181,26 L21.9996391,26 L21.9996391,18.9136199 L20.0458181,18.9136199 L20.0458181,26 Z M21.9996391,17.029329 C22.0145285,17.6376055 21.5670191,18.0578546 20.9706157,18.0578546 C20.4337698,18.0578546 19.9862604,17.6376055 20.0003226,17.029329 C19.9862604,16.3913218 20.4635486,16 21.0003945,16 C21.5670191,16 21.9996391,16.3913218 21.9996391,17.029329 L21.9996391,17.029329 Z" id="Fill-10" fill="#414A59" mask="url(#mask-4)"></path>
                <path d="M24.7331671,20.2405405 C24.8116474,20.2670762 24.9047968,20.2670762 25.0104151,20.2670762 C25.8832331,20.2670762 26.2800352,19.6420147 26.2800352,18.8046683 C26.2800352,18.0203931 25.9631803,17.4093366 25.1563738,17.4093366 C24.9972129,17.4093366 24.8387854,17.4358722 24.7331671,17.4756757 L24.7331671,20.2405405 Z M23,16.1724816 C23.4899516,16.0663391 24.1507995,16 24.8116474,16 C25.8443597,16 26.6511662,16.1459459 27.2328004,16.6914005 C27.7623588,17.1565111 28,17.9009828 28,18.6587224 C28,19.6287469 27.7095497,20.3068796 27.2467361,20.8125307 C26.6907731,21.3970516 25.7908171,21.663145 25.07716,21.663145 L24.7331671,21.663145 L24.7331671,25 L23,25 L23,16.1724816 Z" id="Fill-12" fill="#414A59" mask="url(#mask-4)"></path>
                <path d="M30.6754112,16 L30.6754112,21.7800179 C30.6754112,23.0867409 31.0589904,23.4825624 31.4936188,23.4825624 C31.9800057,23.4825624 32.3245888,23.1255183 32.3245888,21.7800179 L32.3245888,16 L34,16 L34,21.476384 C34,23.7591253 33.1690301,25 31.5063812,25 C29.7033466,25 29,23.7196163 29,21.4895537 L29,16 L30.6754112,16 Z" id="Fill-13" fill="#414A59" mask="url(#mask-4)"></path>
                <path d="M37.9801676,20.0813268 L38.327095,20.0813268 C39.1885475,20.0813268 39.6879888,19.4695332 39.6879888,18.685258 C39.6879888,17.9275184 39.3402235,17.382801 38.4486034,17.3562654 C38.2818436,17.3562654 38.0857542,17.3695332 37.9801676,17.4093366 L37.9801676,20.0813268 Z M36,16.1732187 C36.6192737,16.0663391 37.4053073,16 38.1611732,16 C39.2497207,16 40.2167598,16.1334152 40.8821229,16.6648649 C41.5013966,17.1565111 41.6824022,17.7550369 41.6824022,18.5260442 C41.6824022,19.482801 41.1536313,20.3474201 40.1111732,20.7727273 L40.1111732,20.7992629 C40.8058659,21.0388206 41.1536313,21.6100737 41.3497207,22.5675676 C41.546648,23.5648649 41.8189944,24.6683047 42,25 L39.9293296,25 C39.8086592,24.7479115 39.5815642,23.8434889 39.4307263,22.8601966 C39.2497207,21.7427518 38.9321229,21.4243243 38.2675978,21.4243243 L37.9801676,21.4243243 L37.9801676,25 L36,25 L36,16.1732187 Z" id="Fill-14" fill="#414A59" mask="url(#mask-4)"></path>
                <polygon id="Fill-15" fill="#414A59" mask="url(#mask-4)" points="42 22 45 22 45 21 42 21"></polygon>
                <path d="M47.6754112,16 L47.6754112,21.7800179 C47.6754112,23.0867409 48.0589904,23.4825624 48.4936188,23.4825624 C48.9800057,23.4825624 49.3245888,23.1255183 49.3245888,21.7800179 L49.3245888,16 L51,16 L51,21.476384 C51,23.7591253 50.1690301,25 48.5063812,25 C46.7033466,25 46,23.7196163 46,21.4895537 L46,16 L47.6754112,16 Z" id="Fill-16" fill="#414A59" mask="url(#mask-4)"></path>
                <path d="M52.2701213,23.1633395 C52.6536462,23.3604623 53.306505,23.5044856 53.8467475,23.5044856 C54.7272011,23.5044856 55.1532525,23.0847814 55.1532525,22.5079609 C55.1532525,21.8649479 54.7272011,21.5499879 53.9184123,21.0640912 C52.6111199,20.329427 52.1141912,19.3983674 52.1141912,18.5982381 C52.1141912,17.1812818 53.137187,16 55.1398645,16 C55.7643723,16 56.3605292,16.1578437 56.6456135,16.31496 L56.3471413,17.7981088 C56.07702,17.6402651 55.6651441,17.4955144 55.1249016,17.4955144 C54.3295007,17.4955144 53.9459757,17.9421321 53.9459757,18.4142084 C53.9459757,18.9386568 54.2302725,19.2143377 55.2674437,19.7918856 C56.5314223,20.5003637 57,21.3921442 57,22.3239311 C57,23.9372828 55.7076705,25 53.8325721,25 C53.0655221,25 52.3134352,24.8159703 52,24.6457609 L52.2701213,23.1633395 Z" id="Fill-17" fill="#414A59" mask="url(#mask-4)"></path>
                <path d="M59.7747748,17.8939368 L59.9369369,17.8939368 C60.1372141,17.8939368 60.2751213,17.8068751 60.2751213,17.6693729 C60.2751213,17.5201244 60.1628552,17.4455001 59.962578,17.4455001 C59.8870409,17.4455001 59.8128898,17.4579375 59.7747748,17.4579375 L59.7747748,17.8939368 Z M59.7498267,18.9407497 L59.2376992,18.9407497 L59.2376992,17.1089998 C59.3499653,17.0841251 59.6250866,17.0336846 59.987526,17.0336846 C60.3624394,17.0336846 60.5377685,17.0965624 60.6749827,17.1836241 C60.7872488,17.2582484 60.8620929,17.4081879 60.8620929,17.5947487 C60.8620929,17.769563 60.6999307,17.9436863 60.4504505,18.0065642 L60.4504505,18.030748 C60.6500347,18.0936258 60.7623008,18.2428744 60.8253638,18.5047504 C60.8745669,18.7666264 60.9126819,18.8785628 60.9376299,18.9407497 L60.3749134,18.9407497 C60.3118503,18.8661254 60.2751213,18.7161859 60.2376992,18.5544999 C60.2127512,18.3679392 60.1122661,18.2801866 59.9369369,18.2801866 L59.7498267,18.2801866 L59.7498267,18.9407497 Z M58.5876646,18.0065642 C58.5876646,18.8412506 59.1871102,19.5142512 60,19.5142512 C60.8121968,19.5142512 61.4123354,18.8412506 61.4123354,17.9941268 C61.4123354,17.1587494 60.8121968,16.4981862 60,16.4981862 C59.1871102,16.4981862 58.5876646,17.1587494 58.5876646,18.0065642 L58.5876646,18.0065642 Z M62,17.9941268 C62,19.1031266 61.1247401,20 60,20 C58.8877339,20 58,19.1031266 58,17.9941268 C58,16.8968734 58.8877339,16 60,16 C61.1247401,16 62,16.8968734 62,17.9941268 L62,17.9941268 Z" id="Fill-18" fill="#414A59" mask="url(#mask-4)"></path>
                <path d="M41.6016864,0 C35.9611746,0 30.6580566,1.35658722 26.039786,3.73803308 C29.7642727,2.3920977 33.8153193,1.64418675 38.0582781,1.64418675 C51.6314125,1.64418675 65.002575,8.71776574 65.002575,22.5080873 C65.002575,33.9930474 55.2305373,43.3042725 43.1764486,43.3042725 C31.5557097,43.3042725 22.057611,34.6481353 21.3928834,23.7330482 C21.3673467,24.1598825 21.3518699,24.5897601 21.3518699,25.0234419 C21.3518699,37.5667379 32.0231084,47.7346749 45.1876559,47.7346749 C49.5196061,47.7346749 53.5783912,46.6284058 57.0792384,44.7027062 C52.6126403,48.0656426 47.0951688,50.056014 41.1203586,50.056014 C29.6690905,50.056014 19.8931835,42.7518988 16,32.460705 C18.3292551,45.2786662 29.508132,54.999226 42.9574522,54.999226 C58.0960628,54.999226 70.3691478,42.687227 70.3691478,27.4999934 C70.3691478,26.8935997 70.3459327,26.2925319 70.3080146,25.69679 C70.7839255,27.7563983 71.04084,29.8920911 71.04084,32.0825648 C71.04084,43.0387375 64.7657803,52.6390838 55.3535777,58 C66.3699484,53.1397201 74,42.6286419 74,30.4383781 C74,13.6282615 59.4951635,0 41.6016864,0" id="Fill-19" fill="#414A59" mask="url(#mask-4)"></path>
            </g>
        </g>
    </g>
</svg>