<?xml version="1.0" encoding="UTF-8"?>
<svg width="75px" height="700px" viewBox="0 0 75 700" version="1.1" xmlns="http://www.w3.org/2000/svg" xmlns:xlink="http://www.w3.org/1999/xlink">
    <!-- Generator: Sketch 57.1 (83088) - https://sketch.com -->
    <title>icons-navigation</title>
    <desc>Created with Sketch.</desc>
    <g id="icons-navigation" stroke="none" stroke-width="1" fill="none" fill-rule="evenodd">
        <g id="np_mattress_2457235_38414F" transform="translate(26.000000, 276.000000)" fill="#38414F" fill-rule="nonzero">
            <path d="M18,7 L5,7 L5,0 L18,0 L18,7 Z M5.8125,6.17645509 L17.1875,6.17645509 L17.1875,0.823544914 L5.8125,0.823544914 L5.8125,6.17645509 Z" id="Shape"></path>
            <path d="M23,22 L0,22 L0,13.0189811 L5.13386286,6 L17.8661371,6 L23,13.0189811 L23,22 Z M0.821428571,21.1578947 L22.1785714,21.1578947 L22.1785714,13.2968084 L17.4552914,6.84210526 L5.54470857,6.84210526 L0.821428571,13.2968084 L0.821428571,21.1578947 Z" id="Shape"></path>
            <polygon id="Path" points="1 13 23 13 23 14 1 14"></polygon>
            <path d="M11,7 L7,7 L7,3 L11,3 L11,7 Z M7.88863604,6.2 L10.1109373,6.2 L10.1109373,3.8 L7.88863604,3.8 L7.88863604,6.2 Z" id="Shape"></path>
            <path d="M16,7 L12,7 L12,3 L16,3 L16,7 Z M12.888636,6.2 L15.1109373,6.2 L15.1109373,3.8 L12.888636,3.8 L12.888636,6.2 Z" id="Shape"></path>
            <polygon id="Path" points="0 21 1 21 1 23 0 23"></polygon>
            <polygon id="Path" points="2 21.0062305 2.98643642 21 3 22.9937695 2.01356358 23"></polygon>
            <polygon id="Path" points="22 21 23 21 23 23 22 23"></polygon>
            <polygon id="Path" points="20 21 21 21 21 23 20 23"></polygon>
        </g>
        <g id="np_sale_1351284_38414F" transform="translate(25.000000, 375.000000)" fill="#38414F" fill-rule="nonzero">
            <path d="M0.425851621,13.8016459 C0.0663331753,14.1992937 -0.0778635825,14.7529596 0.0406695405,15.2804678 C0.159190021,15.8089811 0.524637652,16.242863 1.01748058,16.4431817 L2.33502377,16.9767203 C2.49700303,17.0441684 2.58490414,17.224365 2.54045927,17.3965055 L2.13550482,18.7907725 C1.98142693,19.3082043 2.08612191,19.8699365 2.4169957,20.2937419 C2.74786695,20.7165423 3.26245444,20.9470904 3.79183328,20.9088203 L5.20517895,20.806138 C5.38592173,20.7930512 5.54593639,20.9229119 5.5745583,21.1051341 L5.79184711,22.53262 C5.87283547,23.0671638 6.20764856,23.5272291 6.68570013,23.7617717 C7.16372642,23.9963298 7.724736,23.9761949 8.18597346,23.7074102 L9.4146421,22.9906649 L9.4146421,22.9916718 C9.57168079,22.9000633 9.77218837,22.9453637 9.87489348,23.0973745 L10.6768884,24.2882819 L10.6768884,24.287275 C10.9771403,24.7332435 11.4749136,25 12.0053039,25 C12.5356941,25 13.0324814,24.7332178 13.3337193,24.287275 L14.1357142,23.0963676 L14.1357142,23.0973742 C14.2394206,22.9463711 14.4379383,22.9010707 14.5959656,22.9916715 L15.8246343,23.7084168 L15.8246343,23.70741 C16.2858717,23.9762023 16.8468813,23.9963295 17.3249076,23.7617715 C17.8029339,23.5272134 18.1377495,23.0671635 18.2187606,22.5326198 L18.4360494,21.1051338 C18.4646916,20.9229246 18.6246936,20.7930718 18.8054288,20.8061378 L20.2187744,20.9088201 C20.745195,20.9410339 21.253866,20.7074835 21.5807676,20.2856753 C21.9067084,19.86388 22.0103996,19.305163 21.857328,18.7907465 L21.4523735,17.3964794 C21.4010134,17.2203109 21.4899057,17.0320506 21.657809,16.9636026 L22.9753522,16.4300639 C23.4681952,16.2307401 23.8336301,15.7958634 23.9521633,15.2683551 C24.0706837,14.7398418 23.9264845,14.187181 23.5669812,13.7885281 L22.6158591,12.7395678 C22.4943753,12.6036666 22.4943753,12.396297 22.6158591,12.2603804 L23.5768674,11.1983284 C23.9353997,10.7986704 24.0786104,10.2439995 23.9581051,9.71649121 C23.8376099,9.18797788 23.4701926,8.75409597 22.9753775,8.55679257 L21.6578343,8.02325389 C21.4958551,7.95580581 21.407954,7.77560926 21.4523988,7.60346875 L21.8573533,6.20920174 C22.0114312,5.69176998 21.9067362,5.13003773 21.5758624,4.70623231 C21.2449911,4.28343195 20.7304037,4.05288387 20.2010248,4.09115392 L18.7876791,4.19383622 C18.6079224,4.20591641 18.4479078,4.07605464 18.4182998,3.89484014 L18.201011,2.4673542 C18.1200226,1.93281044 17.7852095,1.47274511 17.307158,1.2382025 C16.8291317,1.00364443 16.2681221,1.02377938 15.8068846,1.29256402 L14.5881022,2.01134523 C14.4310635,2.10295369 14.231542,2.05664564 14.1278508,1.90564257 L13.3238837,0.71272501 C13.0226457,0.266756457 12.5258585,0 11.9954682,0 C11.4640919,0 10.9673046,0.266782228 10.6660667,0.71272501 L9.86505786,1.90262735 C9.76135149,2.0546355 9.5618477,2.0999359 9.40480648,2.00833002 L8.17613784,1.29258979 C7.71490038,1.02379742 7.1538908,1.0036702 6.67586451,1.23822827 C6.19783823,1.47278634 5.86302261,1.93283621 5.78201149,2.46737997 L5.56472268,3.89486591 L5.56373507,3.89486591 C5.53607903,4.07707518 5.37509092,4.20692792 5.19534181,4.19386199 L3.78199614,4.09117969 C3.25360339,4.05695312 2.74296027,4.28848824 2.41507257,4.71128344 C2.08617349,5.13307872 1.98149621,5.69380589 2.13555387,6.20922751 L2.54050833,7.60349452 C2.59186846,7.77966305 2.50297621,7.96792337 2.33507283,8.03637137 L1.01752963,8.55681834 C0.524686704,8.75714726 0.159251715,9.19101887 0.0407185922,9.71953219 C-0.0778018886,10.2470404 0.0663973976,10.8007063 0.425900673,11.1983541 L1.37702279,12.2604061 C1.4985066,12.3963074 1.4985066,12.6036769 1.37702279,12.7395936 L0.425851621,13.8016459 Z M2.31724886,11.3866121 L1.35624056,10.3245601 L1.35722816,10.3245601 C1.27920313,10.2389924 1.24858376,10.1202032 1.27426509,10.0064419 C1.29895679,9.89268577 1.37698284,9.79906458 1.48365001,9.7557769 L2.80119321,9.22223821 L2.8002056,9.22223821 C3.57749768,8.90311492 3.98836868,8.03434602 3.74836945,7.21693888 L3.33651235,5.83576357 C3.30194357,5.72301509 3.32564791,5.6012055 3.39972328,5.51060985 C3.47182419,5.42000903 3.58145468,5.37168826 3.6960308,5.37974172 L5.10937647,5.48242401 C5.94494902,5.53879825 6.68373301,4.93679869 6.8160714,4.09320813 L7.03336021,2.6657222 C7.05113815,2.55297372 7.12126385,2.45633217 7.22101827,2.40499617 C7.32176131,2.35466268 7.43929317,2.35566775 7.53904506,2.40801629 L8.7677137,3.12476159 C9.4966115,3.54454672 10.4190864,3.33012617 10.8961519,2.62946718 L11.7109913,1.4445902 C11.7761769,1.34794865 11.8828466,1.29056676 11.9974126,1.29056676 C12.1119786,1.29056676 12.2196395,1.34794865 12.28482,1.4445902 L13.0868149,2.63549762 L13.0858273,2.634491 C13.5638536,3.33515514 14.4863538,3.54957053 15.2152516,3.1297854 L16.4439203,2.4130401 C16.5436747,2.36069388 16.6612091,2.35968623 16.760961,2.41001999 C16.861704,2.46136114 16.9318277,2.55800269 16.9496051,2.67074601 L17.1668939,4.09823195 C17.2982538,4.94182251 18.0380163,5.54383495 18.8735889,5.48744783 L20.2869345,5.38476553 C20.400517,5.37771869 20.5111361,5.42704557 20.582256,5.51764638 C20.6533682,5.60925484 20.6760837,5.72904913 20.6434922,5.84078996 L20.2444795,7.21691414 C20.0044753,8.03434705 20.4153463,8.90311595 21.1926434,9.22221347 L22.5101866,9.75575216 L22.509199,9.75575216 C22.6158687,9.79903984 22.6948823,9.89165338 22.7205611,10.0054095 C22.7462399,10.1191656 22.7156228,10.2389599 22.6385842,10.3245328 L21.6775758,11.3865848 C21.113608,12.0177701 21.113608,12.9821755 21.6775758,13.6133608 L22.6385842,14.6754128 C22.7156231,14.7609805 22.7462399,14.8797698 22.7215472,14.993531 C22.6958684,15.1072872 22.6178409,15.2009084 22.5121623,15.244196 L21.1946191,15.7777347 C20.4183131,16.096858 20.0074421,16.9656269 20.2464553,17.7830341 L20.6583124,19.1642094 L20.6593002,19.1642094 C20.6909057,19.2759502 20.6681892,19.3967521 20.5970779,19.487353 C20.5259656,19.5779538 20.4163351,19.6282898 20.3027426,19.6202338 L18.8893969,19.5175515 C18.0538243,19.4611773 17.3140543,20.0631768 17.182702,20.9067674 L16.9654132,22.3342533 L16.9644256,22.3342533 C16.9466474,22.4470018 16.8765219,22.5436434 16.7767675,22.5949793 C16.6760245,22.6453128 16.5584926,22.6443078 16.4587407,22.5919592 L15.2300721,21.8752139 C14.5021604,21.4554288 13.5786993,21.6698493 13.1016339,22.3705083 L12.281864,23.5553853 C12.2166784,23.6520269 12.1100087,23.7094088 11.9954427,23.7094088 C11.8808767,23.7094088 11.7732159,23.6520269 11.7080353,23.5553853 L10.9060404,22.3644779 L10.907028,22.3654845 C10.6028317,21.919516 10.104047,21.6547697 9.57170987,21.6567798 C9.29317726,21.6557732 9.01960038,21.729261 8.77762897,21.8701953 L7.54896033,22.5869406 C7.44920591,22.6392868 7.33167152,22.6402944 7.23191962,22.5899607 C7.13117658,22.5386195 7.06105291,22.441978 7.04327547,22.3292347 L6.82598666,20.9017487 C6.69462678,20.0581582 5.95486429,19.4561457 5.11929174,19.5125328 L3.70594607,19.6152151 C3.59236362,19.622262 3.48174451,19.5729351 3.41062463,19.4823343 C3.33951235,19.3907258 3.31679687,19.2709315 3.34938842,19.1591907 L3.76124551,17.7780154 C4.00026118,16.9605825 3.58939018,16.0918136 2.81308166,15.7727161 L1.4836801,15.2442027 C1.3770104,15.2009151 1.29799675,15.1083015 1.27231794,14.9945454 C1.24663914,14.8807893 1.27725623,14.760995 1.35429492,14.6754221 L2.31530323,13.6133701 C2.88025718,12.9831899 2.88124327,12.0177794 2.31727844,11.3865941 L2.31724886,11.3866121 Z" id="Shape"></path>
            <path d="M9.25712194,16.8639385 C9.54166666,17.0860669 9.94770734,17.0307958 10.1643885,16.7377517 L15.8703177,9.06765524 C16.0849821,8.77355924 16.027267,8.35433361 15.7407082,8.13325436 C15.4541415,7.9121671 15.0481009,7.97265487 14.8334416,8.2667402 L9.13062306,15.9296284 C8.91494505,16.2237244 8.97266017,16.6419088 9.25719452,16.8640293 L9.25712194,16.8639385 Z" id="Path"></path>
            <path d="M12,14.2222222 L12,14.7777778 C12,16.005 12.8955,17 14,17 C15.1045,17 16,16.005 16,14.7777778 L16,14.2222222 C16,12.995 15.1045,12 14,12 C12.8955,12 12,12.995 12,14.2222222 Z M14.75,14.2222222 L14.75,14.7777778 C14.75,15.2378333 14.41405,15.6111111 14,15.6111111 C13.58595,15.6111111 13.25,15.2378333 13.25,14.7777778 L13.25,14.2222222 C13.25,13.7621667 13.58595,13.3888889 14,13.3888889 C14.41405,13.3888889 14.75,13.7621667 14.75,14.2222222 Z" id="Shape"></path>
            <path d="M10,13 C10.530275,13 11.03905,12.765625 11.41405,12.3489444 C11.78905,11.9322639 12,11.3669444 12,10.7777778 L12,10.2222222 C12,8.995 11.1045,8 10,8 C8.8955,8 8,8.995 8,10.2222222 L8,10.7777778 C8,11.3669722 8.2109375,11.9322778 8.58595,12.3489444 C8.9609625,12.7656111 9.46975,13 10,13 Z M9.25,10.2222222 C9.25,9.76216667 9.58595,9.38888889 10,9.38888889 C10.41405,9.38888889 10.75,9.76216667 10.75,10.2222222 L10.75,10.7777778 C10.75,11.2378333 10.41405,11.6111111 10,11.6111111 C9.58595,11.6111111 9.25,11.2378333 9.25,10.7777778 L9.25,10.2222222 Z" id="Shape"></path>
        </g>
        <g id="np_pillow_984147_38414F" transform="translate(26.000000, 79.000000)" fill="#38414F" fill-rule="nonzero">
            <path d="M22.8597033,15.8294333 C22.6343062,14.8823805 22.3799422,13.8137819 22.6242326,12.6502479 L22.625492,12.6502479 C22.8924408,11.4525189 23.0158319,10.2269155 22.9893987,8.99998315 C23.0158419,7.76805932 22.8924408,6.53866365 22.6217205,5.33707767 C22.3698805,4.17354363 22.6217205,3.10115278 22.8508956,2.15157184 L22.9214108,1.84390852 C22.9629656,1.6818474 22.9856304,1.51472997 22.9856304,1.34761254 C23.0057776,0.985503172 22.8710428,0.631010674 22.6154378,0.373981734 C22.3610802,0.118229837 22.0085075,-0.0172338141 21.6483724,0.00175974944 C21.4229752,0.00555813802 21.2001053,0.0435423479 20.9872865,0.115708166 L20.9520273,0.115708166 C19.8817116,0.498075177 18.7345786,0.838662831 17.5447336,0.572785354 C16.0135467,0.192946496 14.0378321,0.00177919677 11.5005749,0.0118918108 C8.96331768,0.0220044248 6.9876031,0.203072075 5.4602845,0.585426122 C4.17086398,0.870300403 2.88144346,0.43349382 2.05653669,0.147342497 L1.9860215,0.124552813 L1.98476238,0.125818835 C1.77699483,0.0561844119 1.55915691,0.0207319209 1.34005213,0.0182005261 C0.979916977,-0.000790768499 0.628614357,0.134683578 0.37298674,0.391686588 C0.118629202,0.648705804 -0.016095901,1.00194395 0.00153692458,1.36405332 C0.0040554852,1.52864584 0.0254617999,1.69323187 0.0670136984,1.85276484 L0.141306885,2.17688708 C0.366704038,3.12393987 0.624839579,4.19633072 0.376777636,5.34975214 L0.375518195,5.34975214 C0.107309057,6.54748107 -0.0148216312,7.77308451 0.0116114894,9.00001685 C-0.0148316242,10.2319407 0.108569465,11.4613364 0.37928975,12.6629223 C0.631129694,13.8264564 0.37928975,14.8988472 0.150114594,15.8484282 L0.0795994097,16.1560915 C0.03804461,16.3181526 0.0153798209,16.48527 0.0153798209,16.6523875 C-0.00476737468,17.0144968 0.129967399,17.3689893 0.385572451,17.6260183 C0.639929989,17.8817702 0.992502688,18.0172338 1.35263784,17.9982403 C1.57803499,17.9944419 1.80090488,17.9564577 2.01372374,17.8842918 L2.04898294,17.8842918 C3.11929868,17.5019248 4.26643164,17.1613372 5.45627665,17.4272146 C6.98746352,17.8032613 8.94061324,17.9906363 11.4675551,17.9881082 L11.5002935,17.9881082 C14.0438689,17.9881082 16.0132653,17.7969279 17.5405839,17.4145739 C18.8300044,17.1296996 20.1194249,17.5665062 20.9443317,17.8526575 L21.0148469,17.8754472 L21.016106,17.8741812 C21.2238736,17.9438156 21.4417115,17.9792681 21.6608163,17.9817995 C22.0196942,17.9906619 22.3672253,17.8564549 22.6278817,17.6083134 C22.877204,17.3487628 23.0106784,16.9980561 22.9993315,16.6359467 C22.9968129,16.4713542 22.9754066,16.3067681 22.9338547,16.1472352 L22.8597033,15.8294333 Z M22.1507799,17.1259223 C22.0173056,17.2462008 21.841016,17.3095084 21.6609613,17.3006436 C21.519931,17.2993776 21.380161,17.2765876 21.2454133,17.2322733 L21.1711201,17.2132816 C20.313591,16.9182785 18.8793686,16.4257618 17.3834474,16.7524122 C15.8875262,17.0803267 13.9948503,17.3107776 11.5004663,17.3107776 C9.00608228,17.3107776 7.0871022,17.1322576 5.60491332,16.7600291 C4.11904958,16.4359069 2.68734151,16.932219 1.82110881,17.2297471 L1.78207483,17.2297471 C1.64230487,17.2765924 1.49623609,17.3019161 1.35018343,17.3044475 C1.17263667,17.3209068 0.996334201,17.2639322 0.862879178,17.1449178 C0.743256413,17.0107117 0.680294009,16.8334558 0.689110422,16.652414 C0.690369541,16.5435284 0.705479938,16.4346428 0.73444,16.3282918 L0.808733187,16.0041695 C1.03790834,15.0318028 1.32501716,13.8328098 1.03790834,12.5072147 L1.0366489,12.5072147 C0.77851336,11.3563214 0.66013811,10.1788501 0.685346281,9.00021198 C0.658903167,7.82021253 0.776008661,6.64147717 1.03413453,5.49061632 C1.31745568,4.17513378 1.03413453,2.97234854 0.798663779,2.00241273 L0.724370593,1.67829048 C0.69666836,1.57193949 0.681558608,1.46305387 0.679041015,1.35416824 C0.660152938,1.17184948 0.723113408,0.990794792 0.85280977,0.860400413 C0.981248948,0.731257146 1.1613133,0.666685513 1.34262839,0.686943153 C1.48617635,0.685677132 1.62720672,0.708467139 1.76194794,0.754046181 L1.82364994,0.7730378 C2.68117905,1.0680409 4.11540149,1.56055762 5.6113227,1.23390722 C7.10724391,0.907256821 9.00604457,0.689479086 11.5007509,0.689479086 C13.9954573,0.689479086 15.914115,0.867999135 17.3963039,1.2402276 C18.8821676,1.56434985 20.31639,1.06803766 21.1801084,0.770509647 L21.2191424,0.770509647 C21.3589123,0.723664259 21.5049811,0.698340588 21.6510338,0.695809193 C21.8310981,0.689478761 22.0061402,0.751519324 22.1421096,0.871797848 C22.2617323,1.0060039 22.3246947,1.18325988 22.3158783,1.3643016 C22.3133601,1.47318722 22.2982497,1.58207285 22.2705487,1.68842384 L22.1962555,2.01254609 C21.9670804,2.98491282 21.6799716,4.18390582 21.9670804,5.50950098 C22.2239587,6.65404144 22.3410768,7.82645643 22.3158686,9.00029754 C22.3410526,10.1765048 22.2239459,11.352712 21.9670804,12.5011419 C21.6862801,13.8166244 21.9670804,15.0194097 22.2025511,15.9893455 L22.2768443,16.3134677 L22.2768443,16.3122017 C22.3045466,16.4185527 22.3196563,16.5274383 22.3221739,16.636324 C22.3284701,16.8186427 22.2617323,16.9959052 22.1383316,17.1288277 L22.1507799,17.1259223 Z" id="Shape"></path>
            <path d="M2.87704829,5.01809555 C2.77649743,4.97022846 2.65807075,5.02055018 2.61449661,5.13101714 C2.32848326,5.87236949 1.99665058,7.42501783 2.00002553,9.55449699 C2.00002553,11.8644597 2.35196496,13.2502613 2.57205223,13.8711447 L2.57093506,13.8723723 C2.61450634,13.9767002 2.72399797,14.0257958 2.82119674,13.9865193 C2.91951383,13.9472428 2.97314134,13.8318672 2.94632758,13.7214027 C2.74634133,13.1273531 2.41116801,11.7980782 2.41116801,9.55809063 C2.41116801,7.49362199 2.69718136,6.01094871 2.98319471,5.30994122 C3.00442233,5.25593442 3.00553978,5.19456563 2.9865465,5.1393334 C2.96643632,5.08410117 2.92733315,5.04114208 2.87705773,5.01782124 L2.87704829,5.01809555 Z" id="Path"></path>
        </g>
        <g id="np_question_727762_38414F" transform="translate(26.000000, 327.000000)" fill="#38414F" fill-rule="nonzero">
            <path d="M11,0 C4.93114286,0 0,4.93114286 0,11 C0,17.0688571 4.93114286,22 11,22 C17.0688571,22 22,17.0688571 22,11 C22,4.93114286 17.0688571,0 11,0 Z M11,1.04761905 C16.5031429,1.04761905 20.952381,5.49685714 20.952381,11 C20.952381,16.5031429 16.5031429,20.952381 11,20.952381 C5.49685714,20.952381 1.04761905,16.5031429 1.04761905,11 C1.04761905,5.49685714 5.49685714,1.04761905 11,1.04761905 Z M11.0081845,4.19047619 C8.93544405,4.19047619 7.24435119,5.55934762 6.83394643,7.20238095 C6.79199976,7.33947238 6.80836986,7.48780476 6.87896262,7.61262857 C6.94955381,7.7374419 7.06925214,7.82849571 7.20838643,7.86327929 C7.34752333,7.89806286 7.49485786,7.87350981 7.61556976,7.79677905 C7.73628167,7.72004829 7.8212069,7.59625952 7.84882738,7.45609333 C8.12199405,6.36243143 9.4110369,5.23807429 11.0079226,5.23807429 C11.798744,5.23807429 12.6131107,5.52247667 13.201375,5.9992219 C13.7896393,6.47596714 14.1426083,7.11538143 14.1426083,7.8571219 C14.1426083,8.75741952 13.9461798,9.21166714 13.6761036,9.55950286 C13.4049798,9.90733857 13.017256,10.1672005 12.5384417,10.5089076 C12.0596274,10.8506148 11.5174321,11.2895148 11.1225321,12.0230314 C10.7276321,12.7565481 10.4841393,13.757129 10.4841393,15.1905076 C10.4913008,15.4738886 10.723536,15.699991 11.0079488,15.699991 C11.2923617,15.699991 11.5246083,15.4738938 11.5317583,15.1905076 C11.5317583,13.8738338 11.7466014,13.0655957 12.0391988,12.5222219 C12.3317962,11.9788481 12.706244,11.6730743 13.1441226,11.3600195 C13.5820012,11.0469648 14.0945488,10.7420814 14.5109512,10.2060148 C14.9273536,9.6699481 15.1902798,8.92105762 15.1902798,7.85704333 C15.1902798,6.76542429 14.6337321,5.82523857 13.8480179,5.18875762 C13.0623036,4.55227667 12.048444,4.19024571 11.0079226,4.19024571 L11.0081845,4.19047619 Z M11.0081845,16.2380952 C10.5744179,16.2380952 10.2224702,16.5900429 10.2224702,17.0238095 C10.2224702,17.4575762 10.5744179,17.8095238 11.0081845,17.8095238 C11.4419512,17.8095238 11.7938988,17.4575762 11.7938988,17.0238095 C11.7938988,16.5900429 11.4419512,16.2380952 11.0081845,16.2380952 Z" id="Shape"></path>
        </g>
        <g id="np_crib_2048101_38414F" transform="translate(26.000000, 226.000000)" fill="#38414F" fill-rule="nonzero">
            <path d="M22.2532348,18.840932 C22.1431826,18.7633279 22.0263919,18.7003446 21.903998,18.6497334 L21.903998,1.17305836 C21.903998,0.526353147 21.3784467,0 20.7327267,0 C20.0870067,0 19.5614554,0.526353147 19.5614554,1.17305836 L19.5614554,2.31124918 L3.4565469,2.31124918 L3.4565469,1.17305836 C3.4565469,0.526353147 2.93099561,0 2.28527559,0 C1.63955558,0 1.11400429,0.526353147 1.11400429,1.17305836 L1.11400429,18.6822688 C0.982615033,18.7317571 0.856840355,18.798112 0.738922641,18.8802163 C0.269517168,19.207499 0,19.724869 0,20.2984704 C0,20.4030673 0.0561486912,20.4997923 0.148233005,20.5504035 C0.214489668,20.5875198 4.66145969,23 11.3400232,23 C14.6966978,23 18.616843,22.3904081 22.8270605,20.5627842 C22.9326221,20.5166704 23,20.401953 23,20.2872327 C22.9988771,19.7046481 22.7271135,19.1771432 22.2532003,18.8408773 L22.2532348,18.840932 Z M20.732698,0.575472915 C21.0617245,0.575472915 21.3289993,0.843313851 21.3289993,1.1728453 L21.3289993,18.519091 C21.0898032,18.5044699 20.847232,18.5337123 20.6158928,18.615816 C20.4553066,18.6731762 20.2958358,18.7249132 20.1363679,18.777773 L20.1363679,1.17268406 C20.1363679,0.843155493 20.404761,0.575472915 20.7326692,0.575472915 L20.732698,0.575472915 Z M14.636004,13.1227691 L14.636004,2.88679695 L16.9089178,2.88679695 L16.9089178,13.1227691 L14.636004,13.1227691 Z M14.0610341,13.1227691 L11.7881203,13.1227691 L11.7881203,2.88679695 L14.0610341,2.88679695 L14.0610341,13.1227691 Z M11.2131504,13.1227691 L8.94023662,13.1227691 L8.94023662,2.88679695 L11.2131504,2.88679695 L11.2131504,13.1227691 Z M8.36526666,13.1227691 L6.09235292,13.1227691 L6.09123001,2.88679695 L8.36414375,2.88679695 L8.36526666,13.1227691 Z M19.5613692,13.6986163 L19.5613692,15.4295267 L3.45646065,15.4295267 L3.45646065,13.6986163 L19.5613692,13.6986163 Z M3.45646065,16.0053739 L19.5613692,16.0053739 L19.5613692,18.9643648 C12.6539676,21.1215461 6.86833238,20.1329316 3.45646065,19.0622128 L3.45646065,16.0053739 Z M19.5613692,13.1226827 L17.4838302,13.1226827 L17.4838302,2.88671057 L19.5613692,2.88671057 L19.5613692,13.1226827 Z M5.51629052,2.88671057 L5.51629052,13.1226827 L3.45671939,13.1226827 L3.45671939,2.88671057 L5.51629052,2.88671057 Z M1.68929048,1.17267254 C1.68929048,0.843143976 1.95656239,0.575461398 2.28559183,0.575461398 C2.61462126,0.575461398 2.88189317,0.843141096 2.88189317,1.17267254 L2.88189317,18.8742159 C2.68873776,18.8078582 2.50232675,18.7426262 2.3282546,18.6773942 C2.1205007,18.600916 1.90375428,18.5671742 1.68926174,18.5716716 L1.68929048,1.17267254 Z M0.587648045,20.1295629 C0.632567573,19.8157837 0.802137713,19.5379662 1.06829418,19.3523995 C1.38274525,19.1330823 1.76903882,19.0835969 2.12951623,19.2174353 C5.50516486,20.4681178 12.421766,22.1248879 20.8082778,19.1578265 C21.1889654,19.0228623 21.5943767,19.0779737 21.9222821,19.3096601 C22.1940445,19.5031102 22.3681138,19.7887938 22.4141401,20.1127078 C11.0426718,24.9613414 1.89604968,20.7841457 0.587648045,20.1295781 L0.587648045,20.1295629 Z" id="Shape"></path>
        </g>
        <g id="np_pet_322175_38414F" transform="translate(26.000000, 27.000000)" fill="#38414F" fill-rule="nonzero">
            <path d="M23.1349893,4.28349337 C22.5717013,3.99697538 22.4376872,3.68507235 22.169659,3.16488719 C22.008424,2.8783692 21.8482396,2.61827662 21.5802114,2.4628453 C21.2849516,2.28098336 20.6421127,2.306384 20.4274758,2.07270642 C20.2128442,1.81261384 20.4002548,1.24061824 20.4274758,0.954100248 C20.4808724,0.512150934 20.4002548,0.0702016193 19.9720423,0.0173508067 C19.8914248,-0.00906419588 19.8108072,-0.00906419588 19.7040141,0.0437658093 C19.6233966,0.0701808119 19.57,0.0955814534 19.5166034,0.121996456 C18.6591276,0.538560734 17.9890572,1.34422351 17.3723779,1.99445497 C16.3536564,3.0612507 15.3621665,4.17881651 14.2627149,5.21908279 C13.3780074,6.05117098 12.5739229,6.77963828 11.2870659,6.70140243 C9.49149152,6.59777115 7.7493619,6.10298142 5.97983981,6.05117098 C4.77371296,5.99935534 3.40634036,6.12940163 2.41479688,6.85787413 C1.61071232,5.99936054 0.994033067,5.03722606 0.833859422,3.86680944 C0.753241904,3.34662428 -0.0508480197,3.55490642 0.0025431953,4.07508638 C0.189953865,5.37554929 0.913410188,6.46773006 1.79811763,7.40453152 C0.753236543,8.70499443 0.860018973,10.5521719 1.39607535,12.0344396 C1.53008944,12.4245784 1.71749475,12.8411427 1.74472641,13.2566666 C1.77194736,13.7768518 1.55731575,14.3488474 1.39607535,14.8436475 C1.12804716,15.6503507 0.913410188,16.404203 1.02126473,17.2362912 C1.18249977,18.4849437 1.61071232,20.747541 3.21888145,20.9811042 C3.78216949,21.0593348 4.50563117,20.9028735 4.74642769,20.3572981 C5.04168754,19.7070667 4.37161708,18.9003635 4.1569801,18.3029829 C3.96956943,17.7827977 3.75493782,17.1325663 4.05018695,16.6388065 C4.2909942,16.2486676 4.8008803,15.9621497 5.1222997,15.676672 C5.41755955,15.4165795 5.71174729,15.1564869 5.92638427,14.8181584 C6.16719151,14.454445 6.16719151,14.0114553 6.32842655,13.6477418 C6.70323716,12.8410387 8.36586962,12.6337969 9.17006139,12.6073715 C9.86736352,12.5555559 10.5635935,12.6337865 11.233664,12.7892334 C12.922456,13.2057977 14.2886493,13.9596501 14.5566775,15.7020103 C14.7974847,17.1589449 14.7713091,19.1867307 15.8434272,20.3571473 C16.5134977,21.0856146 18.7383997,21.3975176 18.5237091,19.915198 C18.4703125,19.5768695 18.2829018,19.2649665 18.0944351,19.0048739 C17.9332001,18.7711964 17.61177,18.5883097 17.4777559,18.3546425 C17.1029453,17.704411 17.3437418,16.5339944 17.3971384,15.8319525 C17.4505349,15.2853419 17.4505349,14.6879613 17.6379456,14.1677761 C17.7991806,13.7776373 18.0672196,13.4393088 18.3080161,13.1009804 C18.7100584,12.5289848 18.8168408,11.9569892 18.8974637,11.2803323 C19.0042568,10.3700083 19.0042568,9.45968426 19.0848743,8.54936023 C19.1382709,7.79550789 18.9780812,6.67690171 20.0502047,6.70228675 C20.5328698,6.70228675 20.9076804,7.01418977 21.3631139,7.09242562 C21.7379246,7.17065627 22.1671985,7.09242562 22.5420091,6.98879433 C23.2927025,6.75511675 23.9093817,6.234942 23.9889325,5.42823884 C24.0726913,4.80341844 23.670649,4.56972525 23.1345926,4.28323327 L23.1349893,4.28349337 Z M18.2038067,9.61539129 C18.1765858,10.3174332 18.1504101,11.0459005 18.0163961,11.7479424 C17.882382,12.4499843 17.4269485,12.8665486 17.0782974,13.4649696 C16.6490234,14.2452473 16.6228639,15.1291459 16.5694727,15.9876595 C16.5160761,16.7161268 16.4354586,17.4964046 16.5966936,18.2248719 C16.7034868,18.745057 16.9715042,18.9269138 17.3201553,19.3170527 C17.6415747,19.6807661 18.0174574,20.1755662 17.2395378,20.1491408 C16.7568726,20.1227258 16.4626849,19.8108124 16.2480479,19.4206735 C15.4167317,17.9383539 15.7653828,16.0912284 15.1759352,14.5572024 C14.3435736,12.3464154 11.0737638,11.6178961 8.90353952,11.8262302 C8.0722233,11.9044609 7.24197918,12.0863228 6.49128583,12.4764617 C5.76782415,12.8401752 5.63381006,13.0484573 5.4725643,13.7769246 C5.07052202,15.3639055 2.89906485,15.6758085 3.11370183,17.4965086 C3.19431934,18.1985505 3.46235289,18.7969715 3.75654063,19.4207776 C3.91777567,19.7326806 4.23920579,20.071009 3.59530559,20.2010553 C3.38067398,20.252871 3.16603165,20.1746403 3.005858,20.071009 C2.65720694,19.8627321 2.46980163,19.3689671 2.33578753,19.0306387 C1.98713647,18.1467401 1.71910828,17.0799443 1.90651359,16.1430909 C2.06774863,15.3363877 2.49596118,14.5825354 2.60381572,13.7504472 C2.71060887,12.9965948 2.41640505,12.319938 2.14838223,11.6432811 C1.79973116,10.7065317 1.71910828,9.69258676 2.06776471,8.73050431 C2.68444396,7.03990253 4.61403249,6.85804579 6.22220162,6.93628164 C7.9916165,7.03991293 9.70656805,7.50827725 11.4760901,7.5865131 C12.6288258,7.63832874 13.4590699,7.09275334 14.2903861,6.36428604 C14.6651967,6.05238301 15.0138478,5.71405458 15.3624989,5.37572615 C16.0325693,6.49433233 17.0512909,7.24818467 18.2834701,7.79479523 C18.1766769,8.44502669 18.2300735,9.14706858 18.2038978,9.61544331 L18.2038067,9.61539129 Z M22.6262718,6.10414144 C21.3929133,6.85799377 19.8926523,5.11558155 18.7398631,6.36423402 C18.5786281,6.52069531 18.4718349,6.72794748 18.391212,6.96265503 C17.3463309,6.44246987 16.4877831,5.76581301 15.9517267,4.75186809 C16.4343918,4.25810833 16.917057,3.73792317 17.39865,3.217738 C17.8813152,2.72397825 18.3367487,2.20379308 18.8455734,1.73541836 C19.060205,1.52714143 19.3010069,1.26704364 19.5690351,1.08518691 L19.5690351,1.11160191 C19.5418142,1.2416482 19.5156385,1.37169449 19.5156385,1.50174078 C19.4884176,1.81364381 19.4884176,2.15197224 19.6496526,2.43849023 C19.9176808,2.93224998 20.4809688,2.93224998 20.9625619,3.14053212 C21.6326324,3.42705011 21.6326324,4.31094874 22.2220799,4.75289805 C22.4367116,4.90935935 22.6775134,4.96117499 22.8921504,5.11661152 C23.0795611,5.24665781 23.1874103,5.16842716 23.2135786,5.42851454 C23.2156637,5.66219212 22.8408498,5.97411075 22.6262128,6.10415704 L22.6262718,6.10414144 Z" id="Shape"></path>
        </g>
        <g id="np_namaste_2481355_38414F" transform="translate(25.000000, 475.000000)" fill="#38414F" fill-rule="nonzero">
            <path d="M17.8692426,24.0444524 C15.4584629,21.9663422 14.6929694,17.9494975 14.3804189,16.2355284 C14.3239159,15.9831688 14.2951114,15.7856607 14.2674129,15.617803 C13.6148574,13.3421734 13.1329284,10.8427335 12.7363126,8.56699153 L12.7363126,8.45507513 C12.651005,8.06228353 12.594502,7.58387775 12.5091944,7.07918099 C12.4803899,6.85425274 12.4238869,6.62931326 12.3961884,6.40550295 C12.3396854,6.01271135 12.2831824,5.6187962 12.2255733,5.25341912 C11.5442302,1.06764936 11.345894,0 10.6080536,0 C10.0119954,0 9.5865637,0.140443221 9.27526114,0.449867725 C9.16225513,0.561784119 9.07694757,0.70222734 8.99164,0.871197387 C8.90633243,0.70222734 8.82102487,0.561772883 8.70801886,0.449867725 C8.39558182,0.140443221 7.97015011,0 7.37522641,0 C6.63735765,0 6.43904975,1.0950077 5.78649424,5.25229557 C5.72999123,5.61767266 5.67348823,6.01046426 5.6158791,6.4043794 C5.58707454,6.62930765 5.53057154,6.82570906 5.5028731,7.07805744 C5.41756553,7.58387775 5.33225796,8.06115999 5.27575496,8.45395159 L5.27575496,8.56586798 C4.87913916,10.8414976 4.39607564,13.3409375 3.74465461,15.6439254 C3.71585004,15.7843686 3.65934704,16.0093025 3.6316486,16.2342364 C3.31921155,17.9480931 2.55366138,21.963758 0.142824972,24.0431603 C-0.0277901602,24.1836036 -0.0554886006,24.46449 0.114020409,24.6334713 C0.199327975,24.7179563 0.312333982,24.7739145 0.426457456,24.7739145 C0.539463462,24.7739145 0.624771028,24.7453877 0.710078594,24.6619981 C3.31916617,22.4149066 4.11353226,18.20161 4.453594,16.3758481 C4.51009701,16.1509198 4.53890157,15.9545184 4.56660001,15.8140752 C5.44627934,12.6956739 6.04120304,9.24189424 6.46663474,6.43302982 C6.63724988,5.42138921 6.86325054,4.18593829 7.09037435,3.84909926 C7.37399549,3.84909926 7.62880072,3.96101566 7.7994272,4.18593829 C8.196043,4.66322053 8.28135624,5.50587985 8.08304834,6.51752046 C7.82823176,6.40560407 7.54462197,6.34855041 7.23218492,6.34855041 C6.57962941,6.37707724 6.52313207,7.13525716 6.43781884,8.65159452 C6.35251127,10.1119793 6.2107007,12.1340246 5.55813951,13.9325405 C5.47283195,14.1574688 5.58694407,14.3824082 5.81295609,14.4657753 C6.04007422,14.5502604 6.2672037,14.4372485 6.35138246,14.2134157 C7.0604353,12.2757487 7.20224587,10.2251091 7.28755911,8.70747969 C7.31636368,8.11716875 7.37286668,7.47202877 7.42936968,7.19114232 C7.62768325,7.21966915 7.79830406,7.27562735 7.94011463,7.41607057 C8.30904901,7.75290959 8.45085958,8.53961634 8.53617281,9.49418082 L8.53617281,10.5058214 C8.53617281,10.5617796 8.53617281,10.6177378 8.56497738,10.6747915 C8.56497738,11.2080263 8.56497738,11.7697992 8.53617281,12.3601101 C8.53617281,12.921883 8.50736825,13.512194 8.50736825,14.1013814 L8.50736825,15.4772755 C8.5948909,19.5501289 8.6513939,23.3420959 5.0772542,24.1847552 C4.85013606,24.2407134 4.70831982,24.4656416 4.76481715,24.6905755 C4.82132016,24.8869769 4.99193529,25 5.19024886,25 L5.30325487,25 C7.48691074,24.4667652 8.53596861,23.0052568 9.01925903,21.1793826 C9.50118807,23.0051445 10.5503594,24.4654731 12.7352632,25 L12.8482692,25 C13.0465828,25 13.2172036,24.8595568 13.2737009,24.6905755 C13.3302039,24.4656473 13.1883933,24.2407078 12.9612639,24.1847552 C9.33176414,23.3420959 9.38820475,19.5501289 9.44577984,15.5618223 L9.44577984,14.1859282 C9.44577984,13.5956172 9.44577984,13.0064298 9.41697528,12.4446569 C9.41697528,11.854346 9.38817071,11.2925731 9.38817071,10.7593383 C9.41697528,10.7033801 9.41697528,10.6474219 9.41697528,10.5903682 L9.41697528,9.57872764 C9.47347828,8.59562509 9.64409341,7.83745641 10.0130335,7.50061739 C10.154844,7.36017417 10.2966546,7.30421597 10.5237784,7.27568914 C10.5802814,7.55657559 10.6367844,8.20283911 10.665589,8.79202651 C10.7508965,10.3083639 10.8927071,12.3876538 11.6017656,14.2979625 C11.6870732,14.5228908 11.9142027,14.6348016 12.140192,14.5503222 C12.3673101,14.4658371 12.4803105,14.2408977 12.3950086,14.0170873 C11.771269,12.2187681 11.6294584,10.19647 11.5441452,8.73614134 C11.4588376,7.21980398 11.4023346,6.46051175 10.7497791,6.43309723 C10.437342,6.43309723 10.1537209,6.46162406 9.89891566,6.60206728 C9.70060209,5.59042667 9.8136081,4.72035283 10.1825368,4.2704851 C10.3808504,4.04555686 10.6079685,3.93364608 10.8915896,3.93364608 C11.1187078,4.2704851 11.3458373,5.50705958 11.5153293,6.51757664 C11.940761,9.29790299 12.5368191,12.7816252 13.415364,15.871376 C13.4441686,16.0118193 13.471867,16.2082151 13.52837,16.4331489 C13.8684885,18.2303727 14.6628545,22.443557 17.3008148,24.7192989 C17.3861223,24.7752571 17.4714299,24.8312153 17.5844359,24.8312153 C17.6974419,24.8312153 17.811554,24.7752571 17.8968729,24.6907721 C18.0386835,24.4658439 18.0386835,24.1849518 17.8691754,24.0445086 L17.8692426,24.0444524 Z M7.00626934,3.06251611 C7.17688447,1.99492292 7.37520372,1.12484908 7.51701429,0.843962638 C7.85713276,0.871392884 7.99894333,0.955879032 8.08425656,1.04036406 C8.48087236,1.43315566 8.53850418,2.58523948 8.50968827,3.82069041 C8.48088371,3.79216358 8.45318527,3.73620539 8.42438071,3.70877402 C8.08426224,3.25890629 7.57351729,3.03400052 7.00626934,3.06251049 L7.00626934,3.06251611 Z M9.53004368,3.70877963 C9.50123912,3.73730646 9.47354068,3.79326466 9.44473611,3.82069603 C9.44473611,2.61265962 9.47354068,1.43316127 9.87016782,1.04036967 C9.98427995,0.95588465 10.1260905,0.871399626 10.466226,0.842872799 C10.6080366,1.1522973 10.8063445,1.99495663 10.976971,3.06142627 C10.4097287,3.03399602 9.89898373,3.25892314 9.53004935,3.70878525 L9.53004368,3.70877963 Z" id="Shape"></path>
        </g>
        <g id="np_search_2807597_38414F" transform="translate(27.000000, 427.000000)" fill="#38414F" fill-rule="nonzero">
            <path d="M8,16 C5.87817891,16 3.84372364,15.1572713 2.34263273,13.6573673 C0.842635636,12.1564625 0,10.1220073 0,8 C0,5.87799273 0.842728727,3.84372364 2.34263273,2.34263273 C3.84353745,0.842635636 5.87799273,0 8,0 C10.1220073,0 12.1562764,0.842728727 13.6573673,2.34263273 C15.1573644,3.84353745 16,5.87799273 16,8 C16,10.1220073 15.1572713,12.1562764 13.6573673,13.6573673 C12.1564625,15.1573644 10.1220073,16 8,16 Z M8,1.45454545 C6.26364509,1.45454545 4.59915636,2.14453527 3.37175273,3.37182255 C2.14448873,4.59908655 1.45447564,6.26369164 1.45447564,8.00006982 C1.45447564,9.736448 2.14446545,11.4009135 3.37175273,12.6283171 C4.59901673,13.8555811 6.26362182,14.5455942 8,14.5455942 C9.73637818,14.5455942 11.4008436,13.8556044 12.6282473,12.6283171 C13.8555113,11.4010531 14.5455244,9.736448 14.5455244,8.00006982 C14.5455244,6.26369164 13.8555345,4.59922618 12.6282473,3.37182255 C11.4009833,2.14455855 9.73637818,1.45454545 8,1.45454545 Z" id="Shape"></path>
            <path d="M20.7160718,21.7805892 L13,14.0645174 L14.0645174,13 L21.7805892,20.7160718 C22.0731369,21.0105282 22.0731369,21.4861569 21.7805892,21.7805892 C21.4861328,22.0731369 21.010504,22.0731369 20.7160718,21.7805892 Z" id="Path"></path>
        </g>
        <g id="np_plus_2451893_38414F" transform="translate(25.000000, 178.000000)" fill="#38414F" fill-rule="nonzero">
            <polygon id="Path" points="8.23529412 0 8.23529412 8.23529412 0 8.23529412 0 11.7647059 8.23529412 11.7647059 8.23529412 20 11.7647059 20 11.7647059 11.7647059 20 11.7647059 20 8.23529412 11.7647059 8.23529412 11.7647059 0"></polygon>
        </g>
        <g id="np_minus_1156276_38414F" transform="translate(25.000000, 136.000000)" fill="#38414F" fill-rule="nonzero">
            <polygon id="Path" points="1.82716955e-15 0 21 0 21 3 0 3"></polygon>
        </g>
        <g id="np_blog_1087205_38414F" transform="translate(25.000000, 528.000000)" fill="#38414F" fill-rule="nonzero">
            <path d="M1.54899191,3.01553782e-05 C0.695399139,3.01553782e-05 0,0.697412312 0,1.55322162 L0,18.4469858 C0,19.3027951 0.695399139,20 1.54899191,20 L18.3990015,20 C19.2525943,20 19.9479934,19.3027951 19.9479934,18.4469858 L19.9479934,12.8694679 L25.9079098,6.90346916 C25.9669407,6.84665157 26,6.7673433 26,6.68566839 C26,6.60399348 25.9669407,6.52468521 25.9079098,6.46786762 L23.1688387,3.72168398 C23.1015414,3.65539679 23.0070907,3.62343651 22.9138218,3.63645759 C22.8465245,3.64355994 22.7827725,3.67433598 22.7343654,3.72168398 L19.9480538,6.52468521 L19.9480538,1.55322162 C19.9480538,0.697412312 19.2526547,3.01553782e-05 18.3990619,3.01553782e-05 L18.3707267,3.01553782e-05 C18.2042577,0.00849339627 18.0743872,0.150536166 18.0826535,0.317446556 C18.0909198,0.484356946 18.2325929,0.614555596 18.399071,0.606267803 C18.9291738,0.606267803 19.3435783,1.02174834 19.3435783,1.55322768 L19.3435783,7.13074559 L13.9881465,12.5094777 C13.9314761,12.5674801 13.9007804,12.6467854 13.9031409,12.7272785 L13.9031409,15.4545229 C13.9031409,15.6214242 14.0389142,15.7575501 14.2053832,15.7575501 L16.9255641,15.7575501 C17.0058457,15.7599173 17.0849486,15.7291413 17.1428008,15.6723237 L19.3434876,13.4753768 L19.3434876,18.4468404 C19.3434876,18.9783197 18.9290831,19.3938002 18.3989803,19.3938002 L1.54897075,19.3938002 C1.01886794,19.3938002 0.604463491,18.9783197 0.604463491,18.4468404 L0.604463491,1.55307616 C0.604463491,1.02159683 1.01886794,0.606116289 1.54897075,0.606116289 L16.6233067,0.606116289 C16.70477,0.607299913 16.7826911,0.575340851 16.8393616,0.518523258 C16.8972138,0.461705666 16.93027,0.384764039 16.93027,0.303089129 C16.93027,0.221414218 16.8972108,0.144472592 16.8393616,0.0876549995 C16.7826911,0.030837407 16.70477,-0.00112286764 16.6233067,3.01553782e-05 L1.54899191,3.01553782e-05 Z M3.87247978,4.24258767 C3.70601075,4.25797569 3.58322481,4.40712232 3.59857267,4.57403877 C3.61392054,4.74095522 3.76268119,4.86404486 3.92916533,4.84865714 L16.0188583,4.84865714 C16.1003217,4.84984076 16.1782428,4.8178817 16.2349132,4.76106411 C16.2927654,4.70424651 16.3258216,4.62730489 16.3258216,4.54562998 C16.3258216,4.46395507 16.2927624,4.38701344 16.2349132,4.33019585 C16.1782428,4.27337826 16.1003217,4.24141798 16.0188583,4.24260282 L3.92916533,4.24260282 L3.90083011,4.24260282 L3.87249489,4.24260282 L3.87247978,4.24258767 Z M22.9515265,4.37516205 L25.2561242,6.68574415 L23.7354826,8.21033439 L21.4308849,5.8997523 L22.9515265,4.37516205 Z M20.9963813,6.33538414 L23.3009791,8.64596624 L16.7933996,15.1516563 L14.507692,15.1516563 L14.507692,12.8600134 L20.9963813,6.33538414 Z M3.87254023,7.87894389 C3.7060712,7.89433191 3.58328526,8.04347855 3.59863312,8.210395 C3.61398099,8.37731145 3.76274164,8.50040108 3.92922577,8.48501336 L16.0189187,8.48501336 C16.1003821,8.48619699 16.1783032,8.45423793 16.2349736,8.39742033 C16.2928258,8.34060274 16.3258821,8.26366111 16.3258821,8.1819862 C16.3258821,8.10031129 16.2928228,8.02336967 16.2349736,7.96655207 C16.1783032,7.90973448 16.1003821,7.87777421 16.0189187,7.87895904 L3.92922577,7.87895904 L3.90089056,7.87895904 L3.87255534,7.87895904 L3.87254023,7.87894389 Z M3.87254023,11.5152698 C3.7060712,11.5306578 3.58328526,11.6798045 3.59863312,11.8467209 C3.61398099,12.0136374 3.76274164,12.136727 3.92922577,12.1213393 L11.834676,12.1213393 C11.9161394,12.1225229 11.9940605,12.0905638 12.0507309,12.0337463 C12.1085831,11.9769287 12.1416394,11.899987 12.1416394,11.8183121 C12.1416394,11.7366372 12.1085801,11.6596956 12.0507309,11.602878 C11.9940605,11.5460604 11.9161394,11.5141001 11.834676,11.515285 L3.92922577,11.515285 L3.90089056,11.515285 L3.87255534,11.515285 L3.87254023,11.5152698 Z M3.87254023,15.1515957 C3.7060712,15.1669838 3.58328526,15.3161304 3.59863312,15.4830468 C3.61398099,15.6499633 3.76274164,15.7730529 3.92922577,15.7576652 L11.7875262,15.7576652 C11.8689896,15.7588488 11.9469107,15.7268898 12.0035811,15.6700722 C12.0614333,15.6132546 12.0944896,15.536313 12.0944896,15.454638 C12.0944896,15.3729631 12.0614303,15.2960215 12.0035811,15.2392039 C11.9469107,15.1823863 11.8689896,15.1504261 11.7875262,15.1516109 L3.92922577,15.1516109 L3.90089056,15.1516109 L3.87255534,15.1516109 L3.87254023,15.1515957 Z" id="Shape"></path>
        </g>
        <g id="np_chat_857976_38414F" transform="translate(25.000000, 576.000000)" fill="#38414F" fill-rule="nonzero">
            <path d="M24.6623321,22.2274673 C23.8010329,21.7473244 23.1927235,20.9452452 22.9667339,20.0026323 C23.8257879,18.6562325 24.2777958,17.1052912 24.2777958,15.5 C24.2777958,10.812425 20.4030722,7 15.6388979,7 C10.8747236,7 7,10.812425 7,15.5 C7,20.187575 10.8747236,24 15.6388979,24 C17.0668837,24 18.4645302,23.6559443 19.7105096,22.9976559 C20.4604979,23.6393193 21.4274661,24 22.4405764,24 C23.2445362,24 24.023741,23.7732031 24.6961255,23.3461582 C24.891773,23.2222494 25.0064545,23.0065207 24.9997189,22.7786136 C24.9929726,22.5484973 24.8659156,22.3405005 24.6623897,22.2276656 L24.6623321,22.2274673 Z M20.3187039,21.7506381 C20.1882713,21.6046042 20.005007,21.5271605 19.8183375,21.5271605 C19.6980256,21.5271605 19.5777138,21.5592436 19.4697822,21.6256248 C18.3228802,22.322601 16.998347,22.6910136 15.6388115,22.6910136 C11.6077864,22.6910136 8.32890843,19.4648541 8.32890843,15.4986405 C8.32890843,11.532427 11.6077864,8.30626749 15.6388115,8.30626749 C19.6698367,8.30626749 22.9487146,11.532427 22.9487146,15.4986405 C22.9487146,16.9368603 22.5203103,18.3231091 21.7107374,19.5036552 C21.6162887,19.6419459 21.5791822,19.8112039 21.606168,19.9760662 C21.7793259,21.0038435 22.2751846,21.9276223 23.013918,22.6334633 C22.0379402,22.830389 20.9787454,22.4907459 20.3187097,21.7506098 L20.3187039,21.7506381 Z" id="Shape"></path>
            <path d="M4.22085542,13.8057788 C3.65993733,14.4577816 2.77724526,14.769113 1.95074939,14.6326366 C2.58329506,13.9761289 3.00755937,13.1300963 3.15741587,12.1938205 C3.18496555,12.0257431 3.14749804,11.8542754 3.05493118,11.712139 C2.33532655,10.6202119 1.95515594,9.33647861 1.95515594,7.99989893 C1.95515594,4.32375613 4.87639865,1.3331721 8.46793326,1.3331721 C11.3903044,1.3331721 13.9701947,3.34332625 14.7437387,6.22333723 L16,5.86912224 C15.072114,2.41273944 11.974299,0 8.46796147,0 C4.1593048,0 0.652685111,3.58950942 0.652685111,8.00001444 C0.652685111,9.50821483 1.05711713,10.9611431 1.82408792,12.2210811 C1.62021875,13.0749974 1.08575123,13.8026022 0.330882933,14.2402741 C0.133626407,14.3542056 0.00910896554,14.5662754 0.000278941716,14.7997813 C-0.0063331381,15.0321579 0.104966914,15.252123 0.295619259,15.3784633 C0.905031958,15.7856979 1.61690679,16 2.35854415,16 C3.26436919,16 4.13495876,15.6683674 4.81377036,15.0750155 C5.30086043,15.3378496 5.81768483,15.5476583 6.35767041,15.7022122 L6.70920691,14.4185078 C6.11742605,14.2493012 5.56093708,14.0011371 5.05181426,13.6796406 C4.78072407,13.5081787 4.43029907,13.5623246 4.22091749,13.805981 L4.22085542,13.8057788 Z" id="Path"></path>
        </g>
    </g>
</svg>