<?xml version="1.0" encoding="UTF-8" standalone="no"?>
<svg width="25px" height="25px" viewBox="0 0 25 25" version="1.1" xmlns="http://www.w3.org/2000/svg" xmlns:xlink="http://www.w3.org/1999/xlink">
    <!-- Generator: Sketch 3.7.2 (28276) - http://www.bohemiancoding.com/sketch -->
    <title>Phone - MaterialIcons-Regular</title>
    <desc>Created with Sketch.</desc>
    <defs></defs>
    <g id="Screens" stroke="none" stroke-width="1" fill="none" fill-rule="evenodd">
        <g id="03b.Sequoia-Product-Page-Copy" transform="translate(-949.000000, -670.000000)" fill="#9B9B9B">
            <g id="Features" transform="translate(170.000000, 652.000000)">
                <g id="Call-us" transform="translate(750.000000, 0.000000)">
                    <path d="M33.898724,28.5608855 C35.9345676,32.5053324 38.9246679,35.4954327 42.8691148,37.5312763 L45.859245,34.541146 C46.2833791,34.117012 46.7499196,34.01098 47.2588804,34.2230471 C48.7857631,34.732008 50.3974484,34.9864846 52.0939847,34.9864846 C52.4757053,34.9864846 52.7938011,35.1137229 53.0482816,35.3682033 C53.302762,35.6226838 53.4300003,35.9407796 53.4300003,36.3225002 L53.4300003,41.0939847 C53.4300003,41.4757053 53.302762,41.7938011 53.0482816,42.0482816 C52.7938011,42.302762 52.4757053,42.4300003 52.0939847,42.4300003 C45.7319736,42.4300003 40.2925357,40.1715203 35.7755079,35.6544924 C31.25848,31.1374646 29,25.6980267 29,19.3360156 C29,18.954295 29.1272383,18.6361992 29.3817188,18.3817188 C29.6361992,18.1272383 29.954295,18 30.3360156,18 L35.1075001,18 C35.4892207,18 35.8073165,18.1272383 36.061797,18.3817188 C36.3162774,18.6361992 36.4435157,18.954295 36.4435157,19.3360156 C36.4435157,21.0325519 36.6979923,22.6442372 37.2069532,24.1711199 C37.3766069,24.7224942 37.2705749,25.1890346 36.8888543,25.5707553 L33.898724,28.5608855 Z" id="Phone---MaterialIcons-Regular"></path>
                </g>
            </g>
        </g>
    </g>
</svg>