<?xml version="1.0" encoding="utf-8"?>
<!-- Generator: Adobe Illustrator 16.0.0, SVG Export Plug-In . SVG Version: 6.00 Build 0)  -->
<!DOCTYPE svg PUBLIC "-//W3C//DTD SVG 1.1//EN" "http://www.w3.org/Graphics/SVG/1.1/DTD/svg11.dtd">
<svg version="1.1" id="Layer_1" xmlns="http://www.w3.org/2000/svg" xmlns:xlink="http://www.w3.org/1999/xlink" x="0px" y="0px"
	 width="84px" height="84px" viewBox="0 0 84 84" enable-background="new 0 0 84 84" xml:space="preserve">
<g>
	<g>
		<path fill="#464D5A" d="M48.39,56.312"/>
	</g>
	<path fill="#464D5A" d="M23.754,29.952c-4.774,0-9.912-1.035-9.912-3.307s5.138-3.307,9.912-3.307c4.773,0,9.91,1.035,9.91,3.307
		S28.527,29.952,23.754,29.952z M23.754,24.839c-5.354,0-8.323,1.268-8.412,1.809c0.083,0.493,2.796,1.804,8.412,1.804
		c5.353,0,8.321-1.268,8.41-1.809C32.077,26.107,29.109,24.839,23.754,24.839z"/>
	<path fill="#464D5A" d="M23.754,60.661c-4.91,0-9.912-2.253-9.912-4.465v-29.65h1.5v29.65c0.025,0.739,3.458,2.965,8.412,2.965
		c4.955,0,8.386-2.226,8.41-2.965v-29.65h1.5v29.65C33.664,58.408,28.663,60.661,23.754,60.661z"/>
	<g>
		<g>
			<path fill="#464D5A" d="M30.188,37.47c0.018,0.07,0.039,0.142,0.039,0.211c0,1.181-2.645,2.496-6.438,2.496
				s-6.438-1.315-6.438-2.496c0-0.069,0.02-0.141,0.039-0.211c-0.365-0.234-0.678-0.495-0.936-0.773
				c-0.17,0.312-0.262,0.641-0.262,0.984c0,2.083,3.266,3.654,7.596,3.654s7.596-1.571,7.596-3.654c0-0.344-0.092-0.673-0.262-0.984
				C30.865,36.975,30.553,37.235,30.188,37.47z"/>
		</g>
		<path fill="#464D5A" d="M23.717,38.476c-4.332,0-7.596-1.571-7.596-3.655s3.264-3.656,7.596-3.656c4.33,0,7.596,1.572,7.596,3.656
			S28.047,38.476,23.717,38.476z M23.717,32.323c-3.793,0-6.438,1.316-6.438,2.497s2.645,2.496,6.438,2.496s6.438-1.315,6.438-2.496
			S27.51,32.323,23.717,32.323z"/>
		<g>
			<path fill="#464D5A" d="M23.658,34.435c-1.969,0-3.686,0.341-5.006,0.891c0.393,0.238,0.93,0.477,1.623,0.673
				c0.959-0.248,2.098-0.405,3.383-0.405c1.322,0,2.488,0.169,3.463,0.431c0.693-0.187,1.254-0.414,1.66-0.648
				C27.447,34.795,25.686,34.435,23.658,34.435z"/>
		</g>
		<g>
			<path fill="#464D5A" d="M30.115,40.699c0.018,0.07,0.039,0.142,0.039,0.211c0,1.181-2.645,2.496-6.438,2.496
				s-6.438-1.315-6.438-2.496c0-0.069,0.02-0.141,0.039-0.211c-0.365-0.234-0.678-0.495-0.936-0.773
				c-0.17,0.311-0.262,0.641-0.262,0.984c0,2.083,3.264,3.654,7.596,3.654c4.33,0,7.596-1.571,7.596-3.654
				c0-0.344-0.092-0.674-0.262-0.984C30.793,40.204,30.48,40.465,30.115,40.699z"/>
		</g>
		<g>
			<path fill="#464D5A" d="M30.115,43.929c0.018,0.069,0.039,0.141,0.039,0.21c0,1.181-2.645,2.496-6.438,2.496
				s-6.438-1.315-6.438-2.496c0-0.069,0.02-0.141,0.039-0.21c-0.365-0.235-0.678-0.496-0.936-0.774
				c-0.17,0.312-0.262,0.641-0.262,0.984c0,2.083,3.264,3.655,7.596,3.655c4.33,0,7.596-1.572,7.596-3.655
				c0-0.344-0.092-0.673-0.262-0.984C30.793,43.433,30.48,43.693,30.115,43.929z"/>
		</g>
		<g>
			<path fill="#464D5A" d="M30.115,47.157c0.018,0.069,0.039,0.141,0.039,0.21c0,1.181-2.645,2.496-6.438,2.496
				s-6.438-1.315-6.438-2.496c0-0.069,0.02-0.141,0.039-0.21c-0.365-0.235-0.678-0.496-0.936-0.774
				c-0.17,0.312-0.262,0.641-0.262,0.984c0,2.083,3.264,3.655,7.596,3.655c4.33,0,7.596-1.572,7.596-3.655
				c0-0.344-0.092-0.673-0.262-0.984C30.793,46.661,30.48,46.922,30.115,47.157z"/>
		</g>
		<g>
			<path fill="#464D5A" d="M30.902,52.842c-0.256,0.271-0.561,0.525-0.92,0.756c0.018,0.07,0.041,0.141,0.041,0.21
				c0,1.181-2.646,2.496-6.438,2.496c-0.164,0-0.312-0.016-0.471-0.021c0,0-0.645-0.052-0.645,0.582
				c0,0.598,0.645,0.587,0.645,0.587c0.156,0.004,0.309,0.011,0.471,0.011c4.33,0,7.596-1.572,7.596-3.655
				C31.182,53.473,31.068,53.152,30.902,52.842z"/>
		</g>
		<g>
			<path fill="#464D5A" d="M30.115,50.345c0.018,0.069,0.039,0.141,0.039,0.21c0,1.181-2.645,2.496-6.438,2.496
				s-6.438-1.315-6.438-2.496c0-0.069,0.02-0.141,0.039-0.21c-0.365-0.235-0.678-0.496-0.936-0.774
				c-0.17,0.312-0.262,0.641-0.262,0.984c0,2.083,3.264,3.655,7.596,3.655c4.33,0,7.596-1.572,7.596-3.655
				c0-0.344-0.092-0.673-0.262-0.984C30.793,49.849,30.48,50.109,30.115,50.345z"/>
		</g>
	</g>
	<g>
		<g>
			<path fill="#464D5A" d="M48.436,37.47c0.018,0.07,0.039,0.142,0.039,0.211c0,1.181-2.645,2.496-6.438,2.496
				S35.6,38.861,35.6,37.681c0-0.069,0.02-0.141,0.039-0.211c-0.365-0.234-0.678-0.495-0.936-0.773
				c-0.17,0.312-0.262,0.641-0.262,0.984c0,2.083,3.266,3.654,7.596,3.654s7.596-1.571,7.596-3.654c0-0.344-0.092-0.673-0.262-0.984
				C49.113,36.975,48.801,37.235,48.436,37.47z"/>
		</g>
		<path fill="#464D5A" d="M41.965,38.476c-4.332,0-7.596-1.571-7.596-3.655s3.264-3.656,7.596-3.656c4.33,0,7.596,1.572,7.596,3.656
			S46.295,38.476,41.965,38.476z M41.965,32.323c-3.793,0-6.438,1.316-6.438,2.497s2.645,2.496,6.438,2.496s6.438-1.315,6.438-2.496
			S45.758,32.323,41.965,32.323z"/>
		<g>
			<path fill="#464D5A" d="M41.906,34.435c-1.969,0-3.686,0.341-5.006,0.891c0.393,0.238,0.93,0.477,1.623,0.673
				c0.959-0.248,2.098-0.405,3.383-0.405c1.322,0,2.488,0.169,3.463,0.431c0.693-0.187,1.254-0.414,1.66-0.648
				C45.695,34.795,43.934,34.435,41.906,34.435z"/>
		</g>
		<g>
			<path fill="#464D5A" d="M48.363,40.699c0.018,0.07,0.039,0.142,0.039,0.211c0,1.181-2.645,2.496-6.438,2.496
				s-6.438-1.315-6.438-2.496c0-0.069,0.02-0.141,0.039-0.211c-0.365-0.234-0.678-0.495-0.936-0.773
				c-0.17,0.311-0.262,0.641-0.262,0.984c0,2.083,3.264,3.654,7.596,3.654c4.33,0,7.596-1.571,7.596-3.654
				c0-0.344-0.092-0.674-0.262-0.984C49.041,40.204,48.729,40.465,48.363,40.699z"/>
		</g>
		<g>
			<path fill="#464D5A" d="M48.363,43.929c0.018,0.069,0.039,0.141,0.039,0.21c0,1.181-2.645,2.496-6.438,2.496
				s-6.438-1.315-6.438-2.496c0-0.069,0.02-0.141,0.039-0.21c-0.365-0.235-0.678-0.496-0.936-0.774
				c-0.17,0.312-0.262,0.641-0.262,0.984c0,2.083,3.264,3.655,7.596,3.655c4.33,0,7.596-1.572,7.596-3.655
				c0-0.344-0.092-0.673-0.262-0.984C49.041,43.433,48.729,43.693,48.363,43.929z"/>
		</g>
		<g>
			<path fill="#464D5A" d="M48.363,47.157c0.018,0.069,0.039,0.141,0.039,0.21c0,1.181-2.645,2.496-6.438,2.496
				s-6.438-1.315-6.438-2.496c0-0.069,0.02-0.141,0.039-0.21c-0.365-0.235-0.678-0.496-0.936-0.774
				c-0.17,0.312-0.262,0.641-0.262,0.984c0,2.083,3.264,3.655,7.596,3.655c4.33,0,7.596-1.572,7.596-3.655
				c0-0.344-0.092-0.673-0.262-0.984C49.041,46.661,48.729,46.922,48.363,47.157z"/>
		</g>
		<g>
			<path fill="#464D5A" d="M49.15,52.904c-0.256,0.271-0.561,0.525-0.92,0.756c0.018,0.07,0.041,0.141,0.041,0.21
				c0,1.181-2.646,2.496-6.438,2.496c-0.164,0-0.312-0.016-0.471-0.021c0,0-0.645-0.052-0.645,0.582
				c0,0.598,0.645,0.587,0.645,0.587c0.156,0.004,0.309,0.011,0.471,0.011c4.33,0,7.596-1.572,7.596-3.655
				C49.43,53.535,49.316,53.215,49.15,52.904z"/>
		</g>
		<g>
			<path fill="#464D5A" d="M48.363,50.407c0.018,0.069,0.039,0.141,0.039,0.21c0,1.181-2.645,2.496-6.438,2.496
				s-6.438-1.315-6.438-2.496c0-0.069,0.02-0.141,0.039-0.21c-0.365-0.235-0.678-0.496-0.936-0.774
				c-0.17,0.312-0.262,0.641-0.262,0.984c0,2.083,3.264,3.655,7.596,3.655c4.33,0,7.596-1.572,7.596-3.655
				c0-0.344-0.092-0.673-0.262-0.984C49.041,49.911,48.729,50.172,48.363,50.407z"/>
		</g>
	</g>
	<g>
		<g>
			<path fill="#464D5A" d="M66.682,37.47c0.018,0.07,0.039,0.142,0.039,0.211c0,1.181-2.645,2.496-6.438,2.496
				s-6.438-1.315-6.438-2.496c0-0.069,0.02-0.141,0.039-0.211c-0.365-0.234-0.678-0.495-0.936-0.773
				c-0.17,0.312-0.262,0.641-0.262,0.984c0,2.083,3.266,3.654,7.596,3.654s7.596-1.571,7.596-3.654c0-0.344-0.092-0.673-0.262-0.984
				C67.359,36.975,67.047,37.235,66.682,37.47z"/>
		</g>
		<path fill="#464D5A" d="M60.211,38.476c-4.332,0-7.596-1.571-7.596-3.655s3.264-3.656,7.596-3.656c4.33,0,7.596,1.572,7.596,3.656
			S64.541,38.476,60.211,38.476z M60.211,32.323c-3.793,0-6.438,1.316-6.438,2.497s2.645,2.496,6.438,2.496s6.438-1.315,6.438-2.496
			S64.004,32.323,60.211,32.323z"/>
		<g>
			<path fill="#464D5A" d="M60.152,34.435c-1.969,0-3.686,0.341-5.006,0.891c0.393,0.238,0.93,0.477,1.623,0.673
				c0.959-0.248,2.098-0.405,3.383-0.405c1.322,0,2.488,0.169,3.463,0.431c0.693-0.187,1.254-0.414,1.66-0.648
				C63.941,34.795,62.18,34.435,60.152,34.435z"/>
		</g>
		<g>
			<path fill="#464D5A" d="M66.609,40.699c0.018,0.07,0.039,0.142,0.039,0.211c0,1.181-2.645,2.496-6.438,2.496
				s-6.438-1.315-6.438-2.496c0-0.069,0.02-0.141,0.039-0.211c-0.365-0.234-0.678-0.495-0.936-0.773
				c-0.17,0.311-0.262,0.641-0.262,0.984c0,2.083,3.264,3.654,7.596,3.654c4.33,0,7.596-1.571,7.596-3.654
				c0-0.344-0.092-0.674-0.262-0.984C67.287,40.204,66.975,40.465,66.609,40.699z"/>
		</g>
		<g>
			<path fill="#464D5A" d="M66.609,43.929c0.018,0.069,0.039,0.141,0.039,0.21c0,1.181-2.645,2.496-6.438,2.496
				s-6.438-1.315-6.438-2.496c0-0.069,0.02-0.141,0.039-0.21c-0.365-0.235-0.678-0.496-0.936-0.774
				c-0.17,0.312-0.262,0.641-0.262,0.984c0,2.083,3.264,3.655,7.596,3.655c4.33,0,7.596-1.572,7.596-3.655
				c0-0.344-0.092-0.673-0.262-0.984C67.287,43.433,66.975,43.693,66.609,43.929z"/>
		</g>
		<g>
			<path fill="#464D5A" d="M66.609,47.157c0.018,0.069,0.039,0.141,0.039,0.21c0,1.181-2.645,2.496-6.438,2.496
				s-6.438-1.315-6.438-2.496c0-0.069,0.02-0.141,0.039-0.21c-0.365-0.235-0.678-0.496-0.936-0.774
				c-0.17,0.312-0.262,0.641-0.262,0.984c0,2.083,3.264,3.655,7.596,3.655c4.33,0,7.596-1.572,7.596-3.655
				c0-0.344-0.092-0.673-0.262-0.984C67.287,46.661,66.975,46.922,66.609,47.157z"/>
		</g>
		<g>
			<path fill="#464D5A" d="M67.396,52.904c-0.256,0.271-0.561,0.525-0.92,0.756c0.018,0.07,0.041,0.141,0.041,0.21
				c0,1.181-2.646,2.496-6.438,2.496c-0.164,0-0.312-0.016-0.471-0.021c0,0-0.645-0.052-0.645,0.582
				c0,0.598,0.645,0.587,0.645,0.587c0.156,0.004,0.309,0.011,0.471,0.011c4.33,0,7.596-1.572,7.596-3.655
				C67.676,53.535,67.562,53.215,67.396,52.904z"/>
		</g>
		<g>
			<path fill="#464D5A" d="M66.609,50.407c0.018,0.069,0.039,0.141,0.039,0.21c0,1.181-2.645,2.496-6.438,2.496
				s-6.438-1.315-6.438-2.496c0-0.069,0.02-0.141,0.039-0.21c-0.365-0.235-0.678-0.496-0.936-0.774
				c-0.17,0.312-0.262,0.641-0.262,0.984c0,2.083,3.264,3.655,7.596,3.655c4.33,0,7.596-1.572,7.596-3.655
				c0-0.344-0.092-0.673-0.262-0.984C67.287,49.911,66.975,50.172,66.609,50.407z"/>
		</g>
	</g>
	<g>
		<path fill="#464D5A" d="M42,29.952c-4.773,0-9.91-1.035-9.91-3.307s5.137-3.307,9.91-3.307c4.774,0,9.912,1.035,9.912,3.307
			S46.774,29.952,42,29.952z M42,24.839c-5.354,0-8.322,1.268-8.41,1.809c0.09,0.536,3.06,1.804,8.41,1.804
			c5.618,0,8.33-1.311,8.412-1.809C50.324,26.107,47.355,24.839,42,24.839z"/>
		<path fill="#464D5A" d="M42,60.661c-4.909,0-9.91-2.253-9.91-4.465v-29.65h1.5v29.65c0.025,0.739,3.456,2.965,8.41,2.965
			c4.955,0,8.387-2.226,8.412-2.965v-29.65h1.5v29.65C51.912,58.408,46.91,60.661,42,60.661z"/>
	</g>
	<g>
		<path fill="#464D5A" d="M60.248,29.952c-4.774,0-9.912-1.035-9.912-3.307s5.138-3.307,9.912-3.307c4.773,0,9.91,1.035,9.91,3.307
			S65.021,29.952,60.248,29.952z M60.248,24.839c-5.355,0-8.324,1.268-8.412,1.809c0.082,0.493,2.794,1.804,8.412,1.804
			c5.351,0,8.32-1.268,8.41-1.809C68.57,26.107,65.603,24.839,60.248,24.839z"/>
		<path fill="#464D5A" d="M60.248,60.661c-4.91,0-9.912-2.253-9.912-4.465v-29.65h1.5v29.65c0.025,0.739,3.457,2.965,8.412,2.965
			c4.954,0,8.385-2.226,8.41-2.965v-29.65h1.5v29.65C70.158,58.408,65.157,60.661,60.248,60.661z"/>
	</g>
	<g>
		<path fill="#464D5A" d="M64.557,56.312"/>
	</g>
</g>
</svg>
