<?xml version="1.0" encoding="UTF-8"?>
<svg width="90px" height="90px" viewBox="0 0 90 90" version="1.1" xmlns="http://www.w3.org/2000/svg" xmlns:xlink="http://www.w3.org/1999/xlink">
    <!-- Generator: Sketch 58 (84663) - https://sketch.com -->
    <title>iconv2-GOTS</title>
    <desc>Created with Sketch.</desc>
    <g id="misc-BWH-icons" stroke="none" stroke-width="1" fill="none" fill-rule="evenodd">
        <g id="iconv2" transform="translate(-520.000000, -477.000000)" fill-rule="nonzero">
            <g id="iconv2-GOTS" transform="translate(520.000000, 477.000000)">
                <g id="Group">
                    <path d="M45.0537849,11.0145695 C26.3366534,11.0145695 11.187251,26.1417219 11.187251,44.7913907 C11.187251,63.4589404 26.3545817,78.5682119 45.0537849,78.5682119 C63.752988,78.5682119 78.9203187,63.4410596 78.9203187,44.7913907 C78.9203187,26.1417219 63.752988,11.0145695 45.0537849,11.0145695" id="Path" stroke="#38414F"></path>
                    <path d="M20.7968127,75.1350993 C22.3386454,76.3331126 22.7330677,78.0675497 21.4780876,79.6589404 C20.2768924,81.1788079 18.376494,81.2145695 16.9063745,80.0701987 C16.4223108,79.694702 15.9203187,79.1940397 15.5796813,78.6933775 L16.2609562,77.9245033 C16.4940239,78.4072848 16.8705179,78.818543 17.2828685,79.1582781 C18.3406375,79.9807947 19.5418327,79.8556291 20.3665339,78.8006623 C21.1195219,77.8529801 21.2270916,76.7086093 20.187251,75.9039735 C19.936255,75.7072848 19.6673307,75.5463576 19.3446215,75.4390728 L18.5378486,76.4582781 L19.1653386,76.9589404 L18.6095618,77.6562914 L17.0318725,76.4225166 L18.8426295,74.115894 C19.5776892,74.3304636 20.2051793,74.6880795 20.7968127,75.1350993" id="Path" fill="#556774"></path>
                    <polygon id="Path" fill="#556774" points="17.2111554 72.0774834 12.6752988 76.118543 11.7788845 75.1172185 15.5079681 71.7913907 13.7689243 69.8423841 14.5756972 69.1271523"></polygon>
                    <path d="M12.2808765,65.6403974 C13.3207171,67.2854305 12.8187251,68.8231788 11.2231076,69.8245033 C9.66334661,70.807947 7.99601594,70.5933775 6.97410359,68.984106 C5.93426295,67.3390728 6.41832669,65.8013245 8.03187251,64.7821192 C9.60956175,63.7807947 11.2589641,64.013245 12.2808765,65.6403974 M7.78087649,68.4834437 C8.40836653,69.4847682 9.64541833,69.1629139 10.4880478,68.6264901 C11.312749,68.107947 12.1374502,67.1245033 11.5099602,66.1231788 C10.8645418,65.1039735 9.66334661,65.4258278 8.80278884,65.9622517 C7.92430279,66.5165563 7.11752988,67.4642384 7.78087649,68.4834437" id="Shape" fill="#556774"></path>
                    <path d="M8.92828685,59.2927152 L9.75298805,61.3490066 L4.0876494,63.6019868 L3.17330677,61.2953642 C2.79681275,60.3655629 2.74302789,59.310596 3.83665339,58.881457 C4.55378486,58.5953642 5.1812749,58.8456954 5.61155378,59.4715232 C5.4501992,58.7205298 5.68326693,57.9874172 6.45418327,57.6834437 C7.78087649,57.1470199 8.49800797,58.184106 8.92828685,59.2927152 M4.10557769,61.3847682 L4.39243028,62.0821192 L6.0059761,61.4384106 L5.77290837,60.8304636 C5.55776892,60.2761589 5.14541833,59.7754967 4.48207171,60.0437086 C3.89043825,60.2940397 3.90836653,60.884106 4.10557769,61.3847682 M6.52589641,60.615894 L6.74103586,61.1523179 L8.51593625,60.4549669 L8.28286853,59.8649007 C8.0498008,59.2927152 7.61952191,58.6847682 6.92031873,58.9708609 C6.1314741,59.2748344 6.2749004,60.007947 6.52589641,60.615894" id="Shape" fill="#556774"></path>
                    <path d="M6.61553785,50.9066225 L5.21713147,51.7291391 L5.73705179,54.2682119 L7.33266932,54.5006623 L7.60159363,55.8059603 L1.16533865,54.7331126 L0.806772908,52.9986755 L6.32868526,49.5298013 L6.61553785,50.9066225 Z M1.84661355,53.7139073 L4.78685259,54.1788079 L4.39243028,52.1940397 L1.84661355,53.7139073 Z" id="Shape" fill="#556774"></path>
                    <polygon id="Path" fill="#556774" points="6.2749004 47.6701987 0.179282869 47.813245 0.143426295 46.4721854 5.16334661 46.3470199 5.09163347 43.7364238 6.16733068 43.718543"></polygon>
                    <path d="M7.60159363,35.0821192 C7.09960159,36.9596026 5.62948207,37.6390728 3.80079681,37.1562914 C2.00796813,36.6735099 1.03984064,35.3145695 1.52390438,33.4728477 C2.02589641,31.5953642 3.49601594,30.8980132 5.3247012,31.3807947 C7.15338645,31.881457 8.10358566,33.2403974 7.60159363,35.0821192 M2.43824701,33.7231788 C2.13346614,34.8675497 3.20916335,35.5470199 4.15936255,35.797351 C5.10956175,36.0476821 6.38247012,35.9761589 6.687251,34.8496689 C6.99203187,33.6874172 5.95219124,33.0258278 4.96613546,32.7576159 C3.99800797,32.5072848 2.76095618,32.5430464 2.43824701,33.7231788" id="Shape" fill="#556774"></path>
                    <path d="M10.5418327,27.1788079 L8.69521912,27 C8.06772908,26.9284768 7.85258964,26.9821192 7.54780876,27.5721854 L7.33266932,28.0192053 L9.60956175,29.1099338 L9.03585657,30.307947 L3.53187251,27.6794702 L4.60756972,25.4443709 C5.05577689,24.5145695 5.8625498,23.7456954 6.9561753,24.2821192 C7.70916335,24.6397351 7.9063745,25.4264901 7.67330677,26.1774834 C8.01394422,25.7304636 8.35458167,25.6410596 8.91035857,25.694702 L11.1334661,25.8913907 L10.5418327,27.1788079 Z M5.21713147,26.2847682 L4.93027888,26.8748344 L6.52589641,27.6437086 L6.79482072,27.089404 C7.06374502,26.5350993 7.17131474,25.8735099 6.52589641,25.5516556 C5.88047809,25.2298013 5.50398406,25.694702 5.21713147,26.2847682" id="Shape" fill="#556774"></path>
                    <path d="M13.9840637,21.9397351 C12.8366534,23.513245 11.1155378,23.9602649 9.48406375,22.7980132 C7.92430279,21.6715232 7.81673307,19.7582781 8.91035857,18.2562914 C9.2689243,17.7556291 9.75298805,17.2549669 10.2370518,16.897351 L11.0258964,17.5410596 C10.5418327,17.7913907 10.1474104,18.1847682 9.84262948,18.6139073 C9.05378486,19.7046358 9.23306773,20.8847682 10.3087649,21.6715232 C11.2948207,22.386755 12.4422311,22.4403974 13.2131474,21.3854305 C13.4103586,21.1172185 13.5537849,20.8490066 13.6434263,20.5271523 L12.5856574,19.7582781 L12.1195219,20.4019868 L11.4023904,19.8834437 L12.5856574,18.2562914 L14.9701195,19.9728477 C14.7370518,20.7059603 14.4143426,21.3496689 13.9840637,21.9397351" id="Path" fill="#556774"></path>
                    <path d="M19.8286853,15.502649 L18.3944223,14.7516556 L16.4940239,16.5218543 L17.1394422,18.0059603 L16.1713147,18.9178808 L13.6972112,12.892053 L14.9880478,11.6761589 L20.8505976,14.5192053 L19.8286853,15.502649 Z M14.9163347,12.9278146 L16.063745,15.6635762 L17.5517928,14.2688742 L14.9163347,12.9278146 Z" id="Shape" fill="#556774"></path>
                    <polygon id="Path" fill="#556774" points="25.189243 11.7119205 20.6533865 8.69006623 23.2888446 12.892053 22.2669323 13.5357616 19.0577689 8.36821192 20.7250996 7.33112583 25.2788845 10.3708609 22.6434263 6.13311258 23.6653386 5.50728477 26.874502 10.6748344"></polygon>
                    <polygon id="Path" fill="#556774" points="29.2231076 9.63774834 26.8207171 4.0410596 28.0756972 3.50463576 30.4601594 9.1013245"></polygon>
                    <path d="M35.7310757,7.49205298 C33.8306773,8.01059603 32.2171315,7.29536424 31.6792829,5.34635762 C31.1772908,3.50463576 32.2709163,1.93112583 34.063745,1.44834437 C34.5298805,1.32317881 35.1215139,1.25165563 35.5876494,1.25165563 L35.8027888,2.23509934 C35.4083665,2.18145695 34.9243028,2.21721854 34.5298805,2.32450331 C33.2749004,2.66423841 32.7191235,3.73708609 33.0418327,4.95298013 C33.3824701,6.20463576 34.3505976,6.83046358 35.6414343,6.47284768 C36.0717131,6.34768212 36.4840637,6.16887417 36.8247012,5.88278146 L37.1294821,6.81258278 C36.7709163,7.13443709 36.2151394,7.36688742 35.7310757,7.49205298" id="Path" fill="#556774"></path>
                    <polygon id="Path" fill="#556774" points="46.6314741 1.30529801 46.5059761 6.31192053 45.1434263 6.27615894 45.2689243 1.26953642 43.3505976 1.23377483 43.3864542 0.160927152 48.5677291 0.268211921 48.5318725 1.3589404"></polygon>
                    <polygon id="Path" fill="#556774" points="50.2171315 6.58013245 51.310757 0.60794702 55.2191235 1.30529801 55.0398406 2.23509934 52.440239 1.75231788 52.1533865 3.32582781 54.6454183 3.77284768 54.4661355 4.68476821 51.9920319 4.21986755 51.687251 5.90066225 54.3585657 6.38344371 54.1972112 7.29536424"></polygon>
                    <polygon id="Path" fill="#556774" points="59.8804781 9.19072848 59.3067729 6.34768212 56.9760956 8.11788079 55.5956175 7.59933775 58.7868526 5.4 57.9262948 1.98476821 59.3784861 2.52119205 59.9163347 5.0781457 61.9780876 3.46887417 63.3227092 3.96953642 60.4183267 6.00794702 61.3864542 9.72715232"></polygon>
                    <polygon id="Path" fill="#556774" points="67.3565737 7.34900662 64.8645418 11.6940397 63.6812749 11.0145695 66.1733068 6.68741722 64.5239044 5.7397351 65.0438247 4.80993377 69.5438247 7.36688742 69.0059761 8.29668874"></polygon>
                    <polygon id="Rectangle" fill="#556774" transform="translate(70.366706, 11.749407) rotate(-52.749656) translate(-70.366706, -11.749407) " points="67.3231487 11.0738571 73.4085475 11.0816371 73.4102637 12.4249564 67.3248649 12.4171763"></polygon>
                    <polygon id="Path" fill="#556774" points="71.2290837 16.3609272 75.5318725 12.0695364 76.5 13.0172185 72.9501992 16.5576159 74.814741 18.3993377 74.0438247 19.1682119"></polygon>
                    <polygon id="Path" fill="#556774" points="75.1733068 20.5092715 80.0677291 16.897351 82.4342629 20.0801325 81.6812749 20.6344371 80.1035857 18.5066225 78.8306773 19.4543046 80.3187251 21.4748344 79.5836653 22.0291391 78.0776892 20.0086093 76.7151394 21.0099338 78.3286853 23.2092715 77.5756972 23.7635762"></polygon>
                    <path d="M81.250996,31.2556291 C81.0358566,30.6655629 80.874502,30.0397351 80.8386454,29.4139073 L81.8247012,29.092053 C81.752988,29.6821192 81.8784861,30.2543046 82.0756972,30.8086093 C82.2729084,31.3450331 82.6673307,31.8278146 83.2768924,31.613245 C83.7071713,31.4523179 83.7250996,30.7549669 83.7430279,30.2900662 L83.7788845,29.610596 C83.814741,28.8238411 84.0298805,28.1801325 84.8187251,27.8940397 C86.0557769,27.4291391 86.9342629,28.5556291 87.310757,29.5927152 C87.4900398,30.0754967 87.6155378,30.5761589 87.6693227,31.094702 L86.7191235,31.3986755 C86.7370518,30.9337748 86.6294821,30.4331126 86.4681275,29.9860927 C86.2888446,29.5211921 85.9123506,28.913245 85.3386454,29.1278146 C84.9442231,29.2708609 84.9262948,29.8430464 84.9083665,30.2721854 L84.8904382,30.9695364 C84.87251,31.8278146 84.6932271,32.5251656 83.7968127,32.8649007 C82.5776892,33.3298013 81.6633466,32.3821192 81.250996,31.2556291" id="Path" fill="#556774"></path>
                    <polygon id="Path" fill="#556774" points="88.1354582 36.8701987 83.2231076 37.8715232 82.9541833 36.5483444 87.8665339 35.5470199 87.4900398 33.6695364 88.5298805 33.4549669 89.5697211 38.5152318 88.5119522 38.7298013"></polygon>
                    <path d="M83.9223108,45.5066225 L85.4282869,44.9165563 L85.3386454,42.3417219 L83.7968127,41.8410596 L83.7609562,40.5178808 L89.9282869,42.6278146 L89.9820717,44.3980132 L83.9760956,46.9192053 L83.9223108,45.5066225 Z M89.0856574,43.5218543 L86.2709163,42.592053 L86.3426295,44.6304636 L89.0856574,43.5218543 Z" id="Shape" fill="#556774"></path>
                    <polygon id="Path" fill="#556774" points="83.2589641 51.9794702 88.5298805 50.5668874 83.6175299 49.7801325 83.7968127 48.6 89.8207171 49.5655629 89.498008 51.5145695 84.2270916 52.9450331 89.1394422 53.7317881 88.9422311 54.9119205 82.936255 53.9463576"></polygon>
                    <path d="M81.5378486,58.2913907 L82.2549801,56.3781457 L87.9561753,58.5417219 L87.1494024,60.6516556 C86.4501992,62.4933775 85.0697211,63.1728477 83.2051793,62.4754967 C81.2689243,61.7245033 80.8386454,60.1509934 81.5378486,58.2913907 M86.3605578,60.1152318 L86.6115538,59.4536424 L82.6494024,57.9516556 L82.4701195,58.4165563 C81.9860558,59.7039735 82.3984064,60.615894 83.7071713,61.1165563 C84.8545817,61.5635762 85.8944223,61.3311258 86.3605578,60.1152318" id="Shape" fill="#556774"></path>
                    <path d="M77.3605578,66.5701987 L78.938247,66.892053 L80.2828685,64.6748344 L79.2609562,63.4231788 L79.9422311,62.2788079 L83.9581673,67.410596 L83.0438247,68.9304636 L76.625498,67.7682119 L77.3605578,66.5701987 Z M82.7749004,67.7145695 L80.9282869,65.3900662 L79.8705179,67.1245033 L82.7749004,67.7145695 Z" id="Shape" fill="#556774"></path>
                    <path d="M73.3625498,71.5410596 L75.0836653,72.2205298 C75.6752988,72.4529801 75.8904382,72.4708609 76.3386454,71.9701987 L76.6613546,71.594702 L74.7609562,69.9317881 L75.6394422,68.9483444 L80.2111554,72.9715232 L78.561753,74.8311258 C77.8804781,75.6178808 76.8944223,76.118543 75.9800797,75.3139073 C75.3525896,74.7596026 75.3884462,73.9549669 75.8007968,73.2933775 C75.3525896,73.6331126 74.9940239,73.6152318 74.4741036,73.418543 L72.376494,72.6317881 L73.3625498,71.5410596 Z M78.2390438,73.8476821 L78.6693227,73.3649007 L77.3426295,72.202649 L76.9302789,72.6675497 C76.5179283,73.1324503 76.2310757,73.7403974 76.7689243,74.2231788 C77.3247012,74.6701987 77.8087649,74.3304636 78.2390438,73.8476821" id="Shape" fill="#556774"></path>
                    <path d="M69.436255,75.1529801 L71.0498008,73.8834437 L74.814741,78.6576159 L73.0398406,80.0523179 C71.498008,81.2682119 69.9561753,81.1609272 68.7191235,79.5874172 C67.4462151,77.9602649 67.876494,76.386755 69.436255,75.1529801 M72.62749,79.1940397 L73.1832669,78.7649007 L70.5657371,75.4569536 L70.1713147,75.7609272 C69.0776892,76.6192053 68.9701195,77.602649 69.8306773,78.7112583 C70.6015936,79.6589404 71.623506,79.9986755 72.62749,79.1940397" id="Shape" fill="#556774"></path>
                </g>
                <g id="Group" transform="translate(32.400000, 82.800000)" fill="#556774">
                    <path d="M2.62894737,6.08571429 C0.746052632,5.62285714 -0.319736842,4.25142857 0.177631579,2.36571429 C0.639473684,0.565714286 2.3625,-0.222857143 4.17434211,0.222857143 C4.76052632,0.36 5.41776316,0.617142857 5.93289474,0.925714286 L5.63092105,1.86857143 C5.22236842,1.52571429 4.70723684,1.32 4.20986842,1.18285714 C2.91315789,0.874285714 1.86513158,1.45714286 1.54539474,2.70857143 C1.24342105,3.84 1.61644737,4.88571429 2.87763158,5.19428571 C3.19736842,5.28 3.49934211,5.31428571 3.83684211,5.28 L4.15657895,4.06285714 L3.375,3.87428571 L3.58815789,3.05142857 L5.52434211,3.51428571 L4.81381579,6.25714286 C4.06776316,6.32571429 3.33947368,6.25714286 2.62894737,6.08571429" id="Path"></path>
                    <path d="M10.1605263,7.16571429 C8.24210526,7.04571429 7.30065789,5.81142857 7.425,3.99428571 C7.54934211,2.22857143 8.68618421,1.08 10.5690789,1.2 C12.4875,1.32 13.4467105,2.55428571 13.3223684,4.37142857 C13.1802632,6.15428571 12.0434211,7.28571429 10.1605263,7.16571429 M10.4802632,2.10857143 C9.30789474,2.04 8.86381579,3.17142857 8.79276316,4.09714286 C8.72171053,5.04 9.04144737,6.20571429 10.1960526,6.29142857 C11.3861842,6.36 11.8302632,5.26285714 11.8835526,4.30285714 C11.9723684,3.32571429 11.6881579,2.17714286 10.4802632,2.10857143" id="Shape"></path>
                </g>
                <polygon id="Path" fill="#556774" points="50.239726 84.9422535 50.7575342 89.8580282 49.3705479 90 48.8527397 85.0842254 46.9109589 85.2616901 46.8 84.1969014 52.0890411 83.7 52.2 84.7470423"></polygon>
                <g id="Group" transform="translate(17.100000, 23.400000)" fill="#556774">
                    <path d="M39.546,65.4500543 C38.952,65.6107337 38.322,65.7 37.71,65.6642935 L37.494,64.6823641 C38.07,64.807337 38.646,64.7537772 39.204,64.6109511 C39.744,64.468125 40.266,64.128913 40.104,63.5219022 C39.996,63.0755707 39.312,63.0041576 38.844,62.9327446 L38.196,62.825625 C37.44,62.7185054 36.828,62.4328533 36.612,61.665163 C36.288,60.4154348 37.476,59.7013043 38.52,59.4156522 C39.006,59.2906793 39.51,59.2192663 40.014,59.2192663 L40.212,60.1833424 C39.762,60.1119293 39.258,60.1654891 38.808,60.2726087 C38.34,60.3975815 37.71,60.701087 37.854,61.2723913 C37.962,61.665163 38.52,61.7544293 38.934,61.7901359 L39.618,61.8615489 C40.464,61.9686685 41.13,62.2186141 41.364,63.1112772 C41.706,64.3610054 40.68,65.1465489 39.546,65.4500543" id="Path"></path>
                    <polygon id="Rectangle" transform="translate(9.690764, 59.697473) rotate(-64.703425) translate(-9.690764, -59.697473) " points="9.06275725 58.9945401 10.3143498 58.9985084 10.3187716 60.400406 9.06717899 60.3964377"></polygon>
                    <polygon id="Path" points="46.278 60.5404076 45.756 59.4335054 47.016 58.8264946 47.556 59.95125"></polygon>
                    <path d="M0.09,19.0851359 L8.334,27.2619293 L16.002,19.6564402 L16.002,43.865462 L27.666,43.865462 L27.666,8.3017663 L19.314,0.0178532609 L0.09,19.0851359 Z M37.332,0.0357065217 L28.998,8.3017663 L28.998,43.865462 L40.662,43.865462 L40.662,19.6564402 L48.312,27.2440761 L56.556,19.0672826 L37.332,0.0357065217 Z" id="Shape"></path>
                </g>
            </g>
        </g>
    </g>
</svg>