<?xml version="1.0" encoding="UTF-8"?>
<svg width="75px" height="75px" viewBox="0 0 75 75" version="1.1" xmlns="http://www.w3.org/2000/svg" xmlns:xlink="http://www.w3.org/1999/xlink">
    <!-- Generator: Sketch 46.2 (44496) - http://www.bohemiancoding.com/sketch -->
    <title>icon-3YearWarranty</title>
    <desc>Created with Sketch.</desc>
    <defs>
        <polygon id="path-1" points="0.82225 22 22.2189583 22 22.2189583 11.3520957 22.2189583 0.704191304 0.82225 0.704191304"></polygon>
        <polygon id="path-3" points="0.00047826087 22 21.3557826 22 21.3557826 0.704191304 0.00047826087 0.704191304"></polygon>
    </defs>
    <g id="Page-1" stroke="none" stroke-width="1" fill="none" fill-rule="evenodd">
        <g id="icon-3YearWarranty">
            <g id="icon-25YearWarranty">
                <rect id="Rectangle-Copy-6" x="0" y="0" width="75" height="75"></rect>
                <g id="Group-3" transform="translate(49.000000, 53.000000)">
                    <g id="Fill-1-Clipped">
                        <mask id="mask-2" fill="white">
                            <use xlink:href="#path-1"></use>
                        </mask>
                        <g id="path-1"></g>
                        <path d="M0.82225,9.75671304 L9.73858333,22.0001913 L11.9034583,11.8754087 L22.2189583,12.9476696 L13.3055,0.704191304 C12.2743333,3.19975652 10.5694583,5.37966957 8.349,6.99332174 C6.13141667,8.60314783 3.51325,9.54436522 0.82225,9.75671304 Z" id="Fill-1" fill="#414A59" fill-rule="nonzero" mask="url(#mask-2)"></path>
                    </g>
                </g>
                <g id="Group-6" transform="translate(4.000000, 53.000000)">
                    <g id="Fill-4-Clipped">
                        <mask id="mask-4" fill="white">
                            <use xlink:href="#path-3"></use>
                        </mask>
                        <g id="path-3"></g>
                        <path d="M21.3557826,9.75671304 L12.4601304,22.0001913 L10.2955217,11.8754087 L0.00047826087,12.9476696 L8.89613043,0.704191304 C9.92534783,3.19975652 11.627,5.37966957 13.8432609,6.99332174 C16.0604783,8.60314783 18.6698696,9.54436522 21.3557826,9.75671304 Z" id="Fill-4" fill="#414A59" fill-rule="nonzero" mask="url(#mask-4)"></path>
                    </g>
                </g>
                <path d="M59.9374105,16.040436 C59.8692866,12.795451 58.306222,9.69546675 55.6077593,7.72990049 C52.912135,5.7681251 49.4841791,5.23550782 46.3807577,6.17374822 C44.4212499,3.58174064 41.3405365,2 37.9996277,2 C34.6587189,2 31.5770593,3.58174064 29.6213362,6.17090507 C26.5207533,5.23171695 23.0927973,5.7681251 20.3943346,7.72990049 C17.6958719,9.69546675 16.1328072,12.7888169 16.068468,16.0375928 C13.0000548,17.0990365 10.5447565,19.5488864 9.51343656,22.7332175 C8.48211666,25.9071237 9.03656938,29.3369136 10.8882144,32.0018954 C9.03656938,34.6659296 8.48495516,38.0957195 9.51627506,41.2705734 C10.547595,44.4511136 13.0028933,46.8971726 16.068468,47.9661981 C16.1328072,51.2111831 17.6958719,54.3073764 20.3943346,56.2729427 C23.0927973,58.2347181 26.5207533,58.7711262 29.6213362,57.8290949 C31.580844,60.4182594 34.6587189,62 37.9996277,62 C41.3395903,62 44.4212499,60.4182594 46.376973,57.8290949 C49.4813406,58.7682831 52.9092965,58.2347181 55.6039746,56.2729427 C58.3024373,54.3073764 59.8664481,51.2111831 59.9336259,47.9661981 C62.995416,46.9038067 65.4507143,44.4511136 66.4858188,41.2705734 C67.5133541,38.0966672 66.962686,34.6659296 65.1138795,32.0018954 C66.9655245,29.3378613 67.5171387,25.9071237 66.4858188,22.7332175 C65.4544989,19.5488864 62.9992006,17.0999842 59.9374105,16.040436 Z" id="Fill-7" fill="#FFFFFF" fill-rule="nonzero"></path>
                <path d="M56.7767101,18.4642753 C59.8454722,18.788522 62.5878305,20.8720201 63.6028898,24.0019938 C64.6188925,27.1291315 63.6227004,30.4311545 61.3293833,32.498582 C63.618927,34.5688455 64.6188925,37.8680325 63.6028898,40.9951702 C62.5878305,44.122308 59.8454722,46.2124233 56.7767101,46.53667 C57.4172541,49.5598219 56.2880478,52.812688 53.6305923,54.7477699 C50.9750235,56.6819065 47.5308027,56.7537512 44.8629702,55.2109795 C43.6092398,58.029941 40.7819788,60 37.5000166,60 C34.2180543,60 31.3917367,58.0337223 30.137063,55.2109795 C27.465457,56.7537512 24.0287831,56.6819065 21.3703843,54.7477699 C18.7119854,52.812688 17.5837224,49.5560406 18.2204929,46.53667 C15.1545609,46.2124233 12.4122027,44.1289253 11.3971434,40.9951702 C10.382084,37.8651965 11.3773327,34.5660095 13.6706499,32.498582 C11.3745026,30.4283185 10.382084,27.1291315 11.3971434,24.0019938 C12.4122027,20.8720201 15.1545609,18.788522 18.2204929,18.4642753 C17.579949,15.4411234 18.7082119,12.184476 21.3666108,10.2493941 C24.0221796,8.31525756 27.462627,8.2434128 30.1332896,9.7899658 C31.3879633,6.96344167 34.2142809,5 37.4971865,5 C40.7791488,5 43.6054664,6.96722298 44.8601401,9.7899658 C47.5308027,8.2434128 50.9684199,8.31809354 53.6268188,10.2493941 C56.2880478,12.1806947 57.4134806,15.4411234 56.7767101,18.4642753" id="Fill-9" fill="#414A59" fill-rule="nonzero"></path>
                <path d="M46.7778846,61.0871979 C44.3553957,63.5744864 41.0166482,65 37.4986327,65 C33.9815658,65 30.6418697,63.5744864 28.2222263,61.0871979 C24.8047527,61.6665206 21.2611275,60.8630665 18.4231921,58.7955495 C15.5776687,56.7251834 13.7185934,53.6063382 13.2139872,50.1712399 C10.1057271,48.6317612 7.71928147,45.8965986 6.63703406,42.5469741 C5.55099262,39.2096958 5.87917632,35.5770579 7.48500004,32.5037988 C5.87538229,29.4267409 5.54719859,25.794103 6.63324003,22.4568248 C7.71928147,19.1100494 10.1057271,16.3691885 13.2111417,14.832559 C13.7147993,11.3974606 15.5748232,8.27861547 18.4193981,6.20824932 C21.258282,4.14453114 24.8057012,3.33347944 28.2222263,3.91280208 C30.6409212,1.42551357 33.9806172,0 37.4986327,0 C41.0204422,0 44.3591897,1.42551357 46.7778846,3.91280208 C50.1915642,3.33347944 53.7389835,4.1407323 56.5750218,6.20824932 C59.4195967,8.27861547 61.2796206,11.3974606 61.7832782,14.832559 C64.8915383,16.3720376 67.281778,19.1100494 68.3678194,22.4568248 C69.4538609,25.794103 69.1190376,29.4267409 67.5160594,32.5 C69.1218831,35.5732591 69.4538609,39.2068467 68.3678194,42.5431752 C67.281778,45.8937495 64.8915383,48.6317612 61.7832782,50.167441 C61.2796206,53.6025394 59.4195967,56.7242337 56.5750218,58.7917507 C53.739932,60.8592677 50.1925128,61.6665206 46.7778846,61.0871979 M59.4907348,16.5068964 C59.4224423,13.2541422 57.8545589,10.148593 55.1494146,8.178896 C52.4480643,6.21299787 49.0116205,5.67831156 45.8995664,6.61947342 C43.9361552,4.02201864 40.8478138,2.43600421 37.4986327,2.43600421 C34.1494516,2.43600421 31.0601617,4.02201864 29.099596,6.6166243 C25.9913359,5.67546244 22.5548921,6.21299787 19.8497479,8.178896 C17.1446036,10.148593 15.5776687,13.2474942 15.5122217,16.5030975 C12.4362108,17.5677216 9.97483305,20.02272 8.94095953,23.2127933 C7.90708602,26.3933696 8.4629116,29.831317 10.3200899,32.5009497 C8.4629116,35.1705824 7.91088005,38.6085299 8.94475357,41.7891061 C9.97862708,44.9763303 12.4400048,47.4284796 15.5122217,48.4988019 C15.5776687,51.7515561 17.1446036,54.8542562 19.8497479,56.8230034 C22.5548921,58.7898513 25.9913359,59.3273867 29.099596,58.382426 C31.0639557,60.9779814 34.1494516,62.5630461 37.4986327,62.5630461 C40.8468653,62.5630461 43.9361552,60.9779814 45.8967209,58.382426 C49.0078265,59.3235879 52.4452188,58.7898513 55.1465691,56.8230034 C57.8517133,54.8542562 59.4186482,51.7515561 59.4869408,48.4988019 C62.5563121,47.4351276 65.0176898,44.9763303 66.0553574,41.7891061 C67.0854369,38.6085299 66.5324568,35.1715321 64.6800211,32.5009497 C66.5362508,29.831317 67.0892309,26.3943193 66.0553574,23.2127933 C65.0205354,20.02272 62.5601061,17.5677216 59.4907348,16.5068964" id="Fill-11" fill="#454D5B" fill-rule="nonzero"></path>
                <path d="M35.7759563,23.5532787 L37.0478142,23.5532787 C37.411204,23.5532787 37.7659363,23.5273227 38.1120219,23.4754098 C38.4581074,23.423497 38.7739057,23.3239989 39.0594262,23.1769126 C39.3449468,23.0298262 39.574225,22.822178 39.7472678,22.5539617 C39.9203105,22.2857455 40.0068306,21.9353391 40.0068306,21.5027322 C40.0068306,20.9489954 39.7862044,20.490439 39.3449454,20.1270492 C38.9036863,19.7636594 38.3629358,19.5819672 37.7226776,19.5819672 C37.1170279,19.5819672 36.6152115,19.7463554 36.2172131,20.0751366 C35.8192148,20.4039179 35.5596545,20.8105622 35.4385246,21.295082 L31.1557377,20.4125683 C31.363389,19.6165716 31.6748613,18.937389 32.0901639,18.375 C32.5054666,17.812611 32.998631,17.3583806 33.5696721,17.0122951 C34.1407132,16.6662096 34.7766358,16.4109753 35.477459,16.2465847 C36.1782822,16.0821941 36.9180289,16 37.6967213,16 C38.5100223,16 39.293029,16.0994981 40.045765,16.2984973 C40.798501,16.4974964 41.4603797,16.8089687 42.0314208,17.2329235 C42.6024619,17.6568783 43.0566923,18.1889768 43.3941257,18.829235 C43.7315591,19.4694932 43.9002732,20.2308699 43.9002732,21.113388 C43.9002732,22.1343403 43.632061,23.0081931 43.0956284,23.7349727 C42.5591959,24.4617523 41.7805151,24.9289607 40.7595628,25.136612 L40.7595628,25.2144809 C41.3132997,25.283698 41.8021381,25.4480861 42.2260929,25.7076503 C42.6500477,25.9672144 43.009106,26.2873387 43.3032787,26.6680328 C43.5974514,27.0487269 43.8224036,27.4813273 43.9781421,27.965847 C44.1338806,28.4503667 44.2117486,28.9608352 44.2117486,29.4972678 C44.2117486,30.4143944 44.0343825,31.2190311 43.6796448,31.9112022 C43.3249072,32.6033732 42.8490467,33.1787318 42.2520492,33.6372951 C41.6550517,34.0958584 40.954239,34.4376127 40.1495902,34.6625683 C39.3449413,34.8875239 38.4927185,35 37.5928962,35 C35.94899,35 34.5343866,34.6193116 33.3490437,33.8579235 C32.1637008,33.0965354 31.3806941,31.8939062 31,30.25 L35.1010929,29.2896175 C35.2395271,29.94718 35.5207174,30.4663005 35.9446721,30.8469945 C36.3686269,31.2276886 36.9958975,31.4180328 37.8265027,31.4180328 C38.6744123,31.4180328 39.3016828,31.1974066 39.7083333,30.7561475 C40.1149838,30.3148885 40.318306,29.748182 40.318306,29.0560109 C40.318306,28.5368827 40.2101559,28.1345643 39.9938525,27.8490437 C39.777549,27.5635232 39.4963587,27.351549 39.1502732,27.2131148 C38.8041877,27.0746805 38.4148473,26.9924865 37.9822404,26.9665301 C37.5496335,26.9405736 37.1170331,26.9275956 36.6844262,26.9275956 L35.7759563,26.9275956 L35.7759563,23.5532787 Z" id="3" fill="#FFFFFF"></path>
                <polygon id="Fill-17" fill="#FFFFFF" fill-rule="nonzero" points="21.7065317 44.0140485 19 40 20.974241 40 22.50046 42.6194125 24.1177553 40 26 40 23.2934683 44.0140485 23.2934683 47 21.7065317 47"></polygon>
                <polygon id="Fill-19" fill="#FFFFFF" fill-rule="nonzero" points="27 40 31.8197137 40 31.8197137 41.4241379 28.5627831 41.4241379 28.5627831 42.7293742 31.6385215 42.7293742 31.6385215 44.1526181 28.5627831 44.1526181 28.5627831 45.5767561 32 45.5767561 32 47 27 47"></polygon>
                <path d="M36.9410977,42.0365262 L36.0152124,44.211622 L37.8776926,44.211622 L36.9410977,42.0365262 Z M36.2946331,40 L37.6839479,40 L41,47 L39.1053913,47 L38.4482171,45.5168582 L35.4875259,45.5168582 L34.8517707,47 L33,47 L36.2946331,40 Z" id="Fill-21" fill="#FFFFFF" fill-rule="nonzero"></path>
                <path d="M43.6478268,42.8974457 L44.6193281,42.8974457 C44.7673937,42.8974457 44.9240567,42.8920817 45.0902722,42.8822478 C45.2555326,42.8724138 45.4045534,42.8429119 45.5382901,42.793742 C45.672982,42.7445722 45.7837924,42.6667944 45.8716765,42.5613027 C45.9595606,42.455811 46.0035026,42.3074074 46.0035026,42.116092 C46.0035026,41.9381865 45.9652922,41.7969349 45.8869607,41.6905492 C45.8095845,41.5859515 45.7111925,41.5045977 45.5917847,41.4491699 C45.4714217,41.392848 45.3348193,41.3544061 45.1800669,41.3347382 C45.0243592,41.3150702 44.8734278,41.3052363 44.7253622,41.3052363 L43.6478268,41.3052363 L43.6478268,42.8974457 Z M42,40 L44.8944436,40 C45.2746378,40 45.6357268,40.0348659 45.9767553,40.1037037 C46.3187391,40.1734355 46.617736,40.2887612 46.8756567,40.4505747 C47.1326222,40.6114943 47.336093,40.8296296 47.4879796,41.1031928 C47.638911,41.3767561 47.715332,41.7173691 47.715332,42.1259259 C47.715332,42.6203065 47.5777742,43.0404853 47.3026588,43.3864623 C47.0284986,43.7324393 46.6272886,43.9523627 46.0990288,44.0444444 L48,47 L46.0245184,47 L44.4617099,44.201788 L43.6478268,44.201788 L43.6478268,47 L42,47 L42,40 Z" id="Fill-23" fill="#FFFFFF" fill-rule="nonzero"></path>
                <path d="M52.9435498,41.7967914 C52.8196779,41.6462081 52.6515661,41.5347594 52.4392143,41.4624453 C52.2277473,41.3901313 52.0268979,41.3543996 51.8375509,41.3543996 C51.726951,41.3543996 51.6128119,41.3671609 51.4951336,41.3918328 C51.3774553,41.4173554 51.2668554,41.45649 51.1624491,41.5100875 C51.0580428,41.5628342 50.9731021,41.6334468 50.9085118,41.7219251 C50.8430366,41.8095527 50.8102991,41.9158969 50.8102991,42.0418085 C50.8102991,42.2417355 50.8881614,42.3957219 51.0447708,42.5020661 C51.2013803,42.6092611 51.3986905,42.7002917 51.6375863,42.775158 C51.8755972,42.8500243 52.1313042,42.9257414 52.4055919,43.0014584 C52.6789949,43.0763247 52.9355866,43.1826689 53.1735976,43.3213418 C53.4116086,43.4591638 53.6089188,43.6437773 53.7655282,43.8760331 C53.9221377,44.1082888 54,44.4188138 54,44.8076082 C54,45.177686 53.9283313,45.5009723 53.7849938,45.7766164 C53.6416563,46.0522606 53.4478853,46.2811133 53.202796,46.4631745 C52.9585914,46.6452358 52.6745709,46.7796548 52.3516192,46.8681332 C52.0286675,46.9557608 51.6880198,47 51.3287914,47 C50.8793134,47 50.4616882,46.9336412 50.0768006,46.8017744 C49.6910281,46.6707584 49.3326845,46.4572193 49,46.1620078 L50.0865334,45.0143413 C50.2431428,45.2151191 50.440453,45.370807 50.678464,45.4805542 C50.916475,45.5894507 51.1624491,45.6447496 51.4172713,45.6447496 C51.5411432,45.6447496 51.6667846,45.6302868 51.7933109,45.602212 C51.920722,45.5741371 52.0348611,45.5315994 52.136613,45.4754497 C52.2374801,45.4193 52.3188816,45.3469859 52.3808176,45.2593583 C52.4427535,45.1708799 52.4737215,45.0679387 52.4737215,44.9488333 C52.4737215,44.7480554 52.3940895,44.5898153 52.2339409,44.473262 C52.0737922,44.3575596 51.8738276,44.2588721 51.6322775,44.1771998 C51.3907273,44.0955275 51.1297116,44.0138551 50.8492302,43.9321828 C50.5687489,43.8513612 50.3077331,43.741614 50.0670678,43.6029412 C49.8255176,43.4651191 49.6246682,43.2830579 49.4645196,43.0576082 C49.3052557,42.8313077 49.2256238,42.533544 49.2256238,42.1634662 C49.2256238,41.8061497 49.2981773,41.4930724 49.445054,41.2225328 C49.5919306,40.9528439 49.7874712,40.7273943 50.0325606,40.545333 C50.2767652,40.3632718 50.5590161,40.2271512 50.8793134,40.1361206 C51.1987259,40.0450899 51.5278712,40 51.8667492,40 C52.2587153,40 52.6365245,40.0527467 53.0019466,40.1599417 C53.3673686,40.2662859 53.6973987,40.4449441 53.9902672,40.6959164 L52.9435498,41.7967914 Z" id="Fill-25" fill="#FFFFFF" fill-rule="nonzero"></path>
            </g>
        </g>
    </g>
</svg>