<?xml version="1.0" encoding="UTF-8"?>
<svg width="75px" height="75px" viewBox="0 0 75 75" version="1.1" xmlns="http://www.w3.org/2000/svg" xmlns:xlink="http://www.w3.org/1999/xlink">
    <!-- Generator: Sketch 46.2 (44496) - http://www.bohemiancoding.com/sketch -->
    <title>icon-NoFRChemicals</title>
    <desc>Created with Sketch.</desc>
    <defs>
        <polygon id="path-1" points="3.14939047e-15 62.9998 3.14939047e-15 0.732 62.2688 0.732 62.2688 62.9998"></polygon>
    </defs>
    <g id="Page-1" stroke="none" stroke-width="1" fill="none" fill-rule="evenodd">
        <g id="icon-NoFRChemicals">
            <g id="Page-1" transform="translate(-4.000000, -5.000000)"></g>
            <g id="Page-1" transform="translate(6.000000, 5.000000)">
                <path d="M39.3838,22.185 C29.6288,15.745 34.0398,9.482 34.0398,9.482 C24.5648,14.914 22.4668,23.2 24.7858,33.677 C21.3668,30.921 20.8758,27.658 20.9838,23.388 C16.6318,28.016 15.8558,32.949 16.1398,38.222 C16.5928,46.585 23.7378,53.241 32.1988,53.17 C40.4188,53.099 47.3728,46.303 47.7708,38.044 C48.1048,31.09 45.1548,25.993 39.3838,22.185 Z M32.2728,48.238 C30.8178,48.238 29.4338,47.949 28.1578,47.441 C26.4848,46.775 25.0128,45.716 23.8378,44.376 C23.8928,44.37 23.9458,44.358 23.9998,44.35 C28.8488,43.742 32.7448,40.018 33.6828,35.204 C33.8248,35.93 33.9018,36.679 33.9018,37.447 C33.9018,39.534 33.3458,41.485 32.3878,43.17 C35.7718,41.185 38.0538,37.478 38.0538,33.223 C38.0538,30.337 36.9978,27.708 35.2688,25.689 C40.0508,27.026 43.5688,31.467 43.5688,36.752 C43.5708,43.097 38.5118,48.237 32.2738,48.237 L32.2728,48.238 Z" id="Fill-1" fill="#414A59"></path>
                <g id="Group-5" transform="translate(0.000000, 0.268300)">
                    <mask id="mask-2" fill="white">
                        <use xlink:href="#path-1"></use>
                    </mask>
                    <g id="Clip-4"></g>
                    <path d="M31.1338,59.2448 C24.2378,59.2448 17.9338,56.6768 13.1138,52.4528 L18.1018,47.4658 C17.3228,46.4368 16.6618,45.3188 16.1278,44.1288 L10.4658,49.7918 C6.2898,44.9848 3.7548,38.7178 3.7548,31.8658 C3.7548,16.7688 16.0368,4.4868 31.1338,4.4868 C37.9858,4.4868 44.2518,7.0228 49.0598,11.1968 L39.8488,20.4088 C39.9718,20.4938 40.0838,20.5788 40.2108,20.6628 C41.1838,21.3048 42.0668,21.9808 42.8808,22.6858 L51.7208,13.8458 C55.9448,18.6648 58.5138,24.9698 58.5138,31.8658 C58.5138,46.9628 46.2318,59.2448 31.1338,59.2448 M31.1338,0.7318 C13.9398,0.7318 -0.0002,14.6708 -0.0002,31.8658 C-0.0002,49.0608 13.9398,62.9998 31.1338,62.9998 C48.3288,62.9998 62.2688,49.0608 62.2688,31.8658 C62.2688,14.6708 48.3288,0.7318 31.1338,0.7318" id="Fill-3" fill="#414A59" mask="url(#mask-2)"></path>
                </g>
            </g>
        </g>
    </g>
</svg>