<?xml version="1.0" encoding="UTF-8"?>
<svg width="75px" height="75px" viewBox="0 0 75 75" version="1.1" xmlns="http://www.w3.org/2000/svg" xmlns:xlink="http://www.w3.org/1999/xlink">
    <!-- Generator: Sketch 46.2 (44496) - http://www.bohemiancoding.com/sketch -->
    <title>icon-OrganicCotton</title>
    <desc>Created with Sketch.</desc>
    <defs>
        <polygon id="path-1" points="0.000521428571 0.667333333 72.5155929 0.667333333 72.5155929 66 0.000521428571 66"></polygon>
    </defs>
    <g id="Page-1" stroke="none" stroke-width="1" fill="none" fill-rule="evenodd">
        <g id="icon-OrganicCotton">
            <g transform="translate(2.000000, 4.000000)">
                <path d="M39.002,59.004 L39.008,59.021 L39.014,59.004 C39.015,59.003 39.016,59.001 39.016,59 L39,59 C39,59.001 39.001,59.003 39.002,59.004" id="Fill-1" fill="#AFAFAF" fill-rule="nonzero"></path>
                <g id="Group-5">
                    <g id="Fill-3-Clipped">
                        <mask id="mask-2" fill="white">
                            <use xlink:href="#path-1"></use>
                        </mask>
                        <g id="path-1"></g>
                        <path d="M67.1897214,34.4461333 C66.4962214,34.6043238 65.8027214,34.8285143 65.1154786,35.1312762 C63.8880357,35.6959429 62.6626786,36.5298476 61.69595,37.6979429 C60.7052357,38.847181 60.02425,40.2928952 59.6436071,41.7585143 L59.69575,41.5018476 C59.4746643,42.2048 59.3881071,42.636419 59.27965,43.0879429 L58.9918214,44.3021333 C58.8020214,45.0553714 58.6070071,45.7415619 58.3786214,46.3732762 C58.1679643,46.9578476 57.92915,47.4848 57.6653071,47.9656571 C57.7132786,47.6869905 57.7549929,47.4093714 57.8019214,47.1307048 C57.8592786,46.7598476 57.9239357,46.3889905 57.94375,46.0223238 C57.9896357,45.2921333 58.04595,44.5263238 58.0542929,43.8705143 L58.0761929,41.8339429 L58.08245,37.7922286 C58.0834929,36.4523238 58.0980929,35.1228952 58.1856929,33.7966095 C58.2148929,33.127181 58.2993643,32.4734667 58.3827929,31.7988 C58.4891643,31.1346095 58.6184786,30.4599429 58.8020214,29.7653714 C58.2732929,30.2430857 57.80505,30.8067048 57.4066786,31.4174667 C57.0197786,32.0313714 56.6714643,32.6819429 56.3930214,33.3503238 C55.8184071,34.6902286 55.4388071,36.0835619 55.1447214,37.4706095 C54.8506357,38.8608 54.6608357,40.2541333 54.5179643,41.6390857 C54.4460071,42.3315619 54.3980357,43.0250857 54.3458929,43.7154667 C54.3438071,43.7814667 54.3385929,43.8422286 54.3354643,43.907181 C53.2780071,49.7822286 45.5900643,54.3425143 36.2575357,54.3425143 C26.92605,54.3425143 19.23915,49.7822286 18.1796071,43.907181 C18.1764786,43.8432762 18.1723071,43.7814667 18.1691786,43.7154667 C18.1170357,43.0250857 18.0690643,42.3315619 17.99815,41.6390857 C17.8542357,40.2541333 17.6654786,38.8608 17.3713929,37.4706095 C17.0762643,36.0835619 16.6977071,34.6902286 16.1230929,33.3503238 C15.84465,32.6819429 15.4952929,32.0313714 15.1094357,31.4174667 C14.7110643,30.8067048 14.2428214,30.2430857 13.7140929,29.7653714 C13.8965929,30.4599429 14.02695,31.1346095 14.1333214,31.7988 C14.21675,32.4734667 14.3001786,33.127181 14.3304214,33.7966095 C14.4169786,35.1228952 14.4315786,36.4523238 14.4336643,37.7922286 L14.4399214,41.8339429 L14.4618214,43.8705143 C14.4701643,44.5263238 14.5264786,45.2921333 14.5723643,46.0223238 C14.5921786,46.3889905 14.6557929,46.7598476 14.7141929,47.1307048 C14.7611214,47.4093714 14.8017929,47.6869905 14.8508071,47.9656571 C14.5859214,47.4848 14.34815,46.9578476 14.1374929,46.3732762 C13.9091071,45.7415619 13.71305,45.0553714 13.5242929,44.3021333 L13.2364643,43.0879429 C13.1280071,42.636419 13.0404071,42.2048 12.8203643,41.5018476 L12.8725071,41.7585143 C12.4918643,40.2928952 11.8098357,38.847181 10.8201643,37.6979429 C9.85239286,36.5298476 8.62703571,35.6959429 7.39959286,35.1312762 C6.66020714,34.8054667 5.91352143,34.5697524 5.16787857,34.4105143 C4.69963571,32.1654667 4.66417857,29.898419 5.08132143,27.7319429 C5.72476429,24.0726095 7.66760714,20.7726095 10.4144929,18.4280381 C11.7837643,17.2494667 13.3605643,16.3181333 15.0520786,15.6728 C15.46505,15.4789905 15.9093071,15.3794667 16.3431357,15.2443238 C16.5631786,15.1867048 16.7769643,15.0987048 17.0011786,15.0599429 L17.6717357,14.9248 C17.89595,14.8808 18.1201643,14.828419 18.3454214,14.7907048 L19.0305786,14.7215619 L19.7178214,14.6429905 C19.94725,14.6199429 20.1787643,14.6230857 20.4102786,14.6115619 C23.3500929,14.5267048 26.3399643,15.2694667 29.0972786,16.7602286 C27.2378643,17.4893714 25.49525,18.4982286 23.9726786,19.7543238 C20.6084214,22.5085143 18.2578214,26.4360381 17.7238786,30.5416571 C19.8533929,27.0289905 22.5929786,24.2318476 25.7914214,22.3335619 C28.97735,20.4258476 32.5679071,19.4494667 36.1793214,19.4421333 C39.7917786,19.443181 43.3844214,20.4206095 46.57035,22.3293714 C49.7719214,24.2276571 52.5104643,27.0268952 54.6358071,30.5416571 C54.09665,26.4370857 51.74605,22.5137524 48.3838786,19.7585143 C46.8581786,18.5034667 45.1155643,17.490419 43.2540643,16.7623238 C46.0040786,15.2768 48.9824786,14.5329905 51.91395,14.6115619 C52.1444214,14.6230857 52.3748929,14.6230857 52.6043214,14.6419429 L53.2905214,14.7205143 L53.97255,14.7896571 C54.19885,14.8200381 54.4220214,14.8776571 54.6451929,14.9195619 C55.0925786,15.0107048 55.5399643,15.087181 55.9717071,15.2348952 C56.40345,15.373181 56.84875,15.4643238 57.2606786,15.6581333 C58.9501071,16.2961333 60.5258643,17.2201333 61.8961786,18.3903238 C62.2246786,18.6993714 62.5750786,18.9843238 62.8921071,19.3048952 C63.19245,19.6401333 63.5073929,19.9648952 63.8014786,20.306419 L64.63055,21.379181 C64.8724929,21.7615619 65.1102643,22.1460381 65.3636786,22.523181 C66.2772214,24.0925143 66.9144071,25.8294667 67.25855,27.6481333 C67.6975929,29.849181 67.66735,32.1581333 67.1897214,34.4461333 M36.2637929,58.916419 L36.2575357,58.933181 L36.2523214,58.916419 C36.2512786,58.9153714 36.2502357,58.9143238 36.2502357,58.9122286 L36.2658786,58.9122286 C36.2648357,58.9143238 36.2637929,58.9153714 36.2637929,58.916419 M27.3755214,6.35422857 C30.0660929,4.72518095 33.1143643,3.88813333 36.1793214,3.88184762 C39.2453214,3.88394286 42.2946357,4.72099048 44.98625,6.3500381 C47.3347643,7.75699048 49.3787643,9.74327619 51.0275214,12.1915619 C49.16185,12.4702286 47.3597929,13.0757524 45.7485786,13.9808952 C44.5367786,14.6618476 43.43135,15.5062286 42.4813071,16.4794667 C42.0234929,16.3307048 41.5656786,16.1788 41.0984786,16.060419 C40.5603643,15.9420381 40.0232929,15.8058476 39.4799643,15.7073714 C38.9335071,15.6319429 38.3839214,15.5575619 37.8353786,15.5009905 L36.1793214,15.422419 L34.5243071,15.4999429 C33.9747214,15.5554667 33.4261786,15.6329905 32.8786786,15.7042286 C32.33535,15.8027048 31.7982786,15.9388952 31.2591214,16.0572762 C30.7908786,16.1788 30.3288929,16.3286095 29.8689929,16.478419 C28.9147786,15.5020381 27.8051786,14.6566095 26.5892071,13.9735619 C24.9832071,13.0747048 23.18845,12.4723238 21.3311214,12.1947048 C22.9830071,9.74746667 25.0270071,7.76118095 27.3755214,6.35422857 M68.87185,34.1915619 C68.8186643,34.1957524 68.7654786,34.2020381 68.7122929,34.2062286 C69.5632643,32.0669905 69.9407786,29.6909905 69.7561929,27.3338476 C69.6185357,25.1736571 69.0209786,23.0228952 68.0302643,21.0659429 C67.7653786,20.587181 67.48485,20.1147048 67.2084929,19.6401333 C66.8987643,19.1886095 66.5733929,18.7454667 66.2521929,18.299181 C65.9049214,17.8748952 65.5274071,17.4747048 65.16345,17.0640381 C64.7817643,16.6690857 64.3646214,16.3097524 63.9631214,15.9357524 C63.5480643,15.576419 63.09025,15.2694667 62.6532929,14.9373714 C62.4384643,14.7655619 62.1965214,14.6346095 61.9629214,14.4900381 L61.2569071,14.0688952 C60.2901786,13.5513714 59.2890357,13.0967048 58.2409643,12.7782286 C56.15525,12.1161333 53.95065,11.9181333 51.8096643,12.0941333 C51.7116357,12.1035619 51.61465,12.1192762 51.5166214,12.1297524 C50.7814071,9.12832381 48.9386786,6.32908571 46.4368643,4.29460952 C43.6055071,1.97099048 39.8939786,0.659371429 36.1793214,0.666704762 C32.4646643,0.655180952 28.75105,1.96784762 25.9196929,4.29041905 C23.4157929,6.32594286 21.5730643,9.12937143 20.8409786,12.1339429 C20.7293929,12.1203238 20.6198929,12.1035619 20.50935,12.0930857 C18.3621071,11.9202286 16.1522929,12.1255619 14.06345,12.7960381 C13.0143357,13.1166095 12.0100643,13.5754667 11.0454214,14.0992762 L10.3362786,14.5225143 C10.1005929,14.6628952 9.86386429,14.8043238 9.64799286,14.9750857 L8.98473571,15.4674667 C8.76469286,15.6329905 8.53735,15.7890857 8.33920714,15.9808 C7.93770714,16.3579429 7.51430714,16.7130857 7.13992143,17.116419 C6.77805,17.5312762 6.39219286,17.9262286 6.05326429,18.3599429 C5.73519286,18.8093714 5.40043571,19.2483238 5.10113571,19.7082286 C4.82686429,20.1859429 4.53799286,20.6542286 4.28353571,21.1413714 C3.28865,23.1025143 2.70777857,25.2668952 2.58055,27.4323238 C2.54509286,27.7015619 2.55030714,27.9728952 2.55447857,28.2442286 L2.56595,29.0540381 C2.56699286,29.3232762 2.57220714,29.5925143 2.60140714,29.8607048 C2.61913571,30.1278476 2.65563571,30.3949905 2.69317857,30.6600381 C2.83813571,31.7233714 3.09467857,32.7657524 3.45446429,33.7609905 C3.50556429,33.9055619 3.56500714,34.0469905 3.62132143,34.1905143 C2.38657857,34.0993714 1.16435,34.1695619 0.000521428571,34.4838476 C1.08405,35.0034667 2.07997857,35.569181 2.98935,36.1820381 C3.89455,36.7990857 4.69963571,37.4727048 5.33682143,38.192419 C5.97609286,38.9079429 6.43286429,39.666419 6.69357857,40.414419 C6.96889286,41.1582286 7.04502143,41.910419 7.04189286,42.6835619 L7.09403571,42.9402286 C7.07317857,43.0648952 7.08256429,43.4808 7.08569286,43.8715619 C7.08673571,44.2738476 7.09612143,44.7295619 7.11906429,45.1894667 C7.16182143,46.1197524 7.26193571,47.1128952 7.46320714,48.1269905 C7.85323571,50.1499429 8.69690714,52.3101333 10.1193643,54.1455619 C10.8201643,55.0653714 11.6586214,55.8846095 12.5627786,56.5749905 C13.0112071,56.9322286 13.4825786,57.2318476 13.9591643,57.5283238 C14.1990214,57.6687048 14.4420071,57.794419 14.6849929,57.9253714 C14.9279786,58.0605143 15.1720071,58.1809905 15.4191643,58.2857524 C17.3964214,59.1762286 19.4122643,59.6298476 21.3519786,59.818419 C21.8369071,59.8550857 22.3166214,59.8886095 22.7994643,59.9116571 C23.2770929,59.9221333 23.7495071,59.9221333 24.2229643,59.9179429 C25.1458929,59.8907048 26.1574643,59.8215619 26.8770357,59.7388 C27.6383214,59.6612762 28.3474643,59.615181 29.0294929,59.5963238 C29.6958786,59.593181 30.32055,59.6350857 30.91185,59.730419 C31.0557643,59.7587048 31.1871643,59.8016571 31.3331643,59.8309905 C31.4051214,59.8477524 31.48125,59.8603238 31.5511214,59.8802286 L31.7471786,59.9556571 C31.8764929,60.011181 32.0308357,60.0415619 32.16015,60.1054667 L32.5522643,60.3087048 C32.6982643,60.3663238 32.8035929,60.473181 32.9308214,60.5622286 C33.0528357,60.6586095 33.2030071,60.7340381 33.3198071,60.8482286 L33.67855,61.2023238 L33.8652214,61.3856571 C33.9152786,61.4579429 33.9726357,61.5270857 34.0268643,61.5993714 C34.24795,61.8853714 34.49615,62.1755619 34.6734357,62.5254667 C34.8767929,62.8607048 35.09475,63.206419 35.2511786,63.5898476 L35.51815,64.1618476 L35.65685,64.455181 L35.7694786,64.7568952 C35.9175643,65.1612762 36.0823357,65.5750857 36.2575357,66.000419 C36.4337786,65.5750857 36.59855,65.1612762 36.7466357,64.7568952 L36.8592643,64.455181 L36.9969214,64.1618476 L37.2649357,63.5898476 C37.4213643,63.206419 37.6393214,62.8607048 37.8416357,62.5254667 C38.0189214,62.1755619 38.2671214,61.8853714 38.4882071,61.5993714 C38.5434786,61.5270857 38.6008357,61.4579429 38.6508929,61.3856571 L38.8375643,61.2023238 L39.1963071,60.8482286 C39.3131071,60.7340381 39.4632786,60.6586095 39.5852929,60.5622286 C39.7114786,60.473181 39.81785,60.3663238 39.96385,60.3087048 L40.3559643,60.1054667 C40.4852786,60.0415619 40.6396214,60.011181 40.7678929,59.9556571 L40.9649929,59.8802286 C41.0348643,59.8603238 41.1109929,59.8477524 41.1819071,59.8309905 C41.32895,59.8016571 41.46035,59.7587048 41.6042643,59.730419 C42.1955643,59.6350857 42.8202357,59.593181 43.4866214,59.5963238 C44.16865,59.615181 44.8777929,59.6612762 45.6390786,59.7388 C46.35865,59.8215619 47.3702214,59.8907048 48.2921071,59.9179429 C48.7666071,59.9221333 49.2390214,59.9221333 49.71665,59.9116571 C50.19845,59.8886095 50.6792071,59.8550857 51.1630929,59.818419 C53.1028071,59.6298476 55.1196929,59.1762286 57.09695,58.2857524 C57.3441071,58.1809905 57.5881357,58.0605143 57.8311214,57.9253714 C58.0730643,57.794419 58.3170929,57.6687048 58.55695,57.5283238 C59.0335357,57.2318476 59.5049071,56.9322286 59.9533357,56.5749905 C60.85645,55.8846095 61.69595,55.0653714 62.39675,54.1455619 C63.8192071,52.3101333 64.6628786,50.1499429 65.0529071,48.1269905 C65.2541786,47.1128952 65.3542929,46.1197524 65.3960071,45.1894667 C65.41895,44.7295619 65.4293786,44.2738476 65.4304214,43.8715619 C65.43355,43.4808 65.4429357,43.0648952 65.4220786,42.9402286 L65.4742214,42.6835619 C65.47005,41.910419 65.5472214,41.1582286 65.8214929,40.414419 C66.08325,39.666419 66.5389786,38.9079429 67.1792929,38.192419 C67.8154357,37.4727048 68.6215643,36.7990857 69.5267643,36.1820381 C70.4361357,35.569181 71.4320643,35.0034667 72.5155929,34.4838476 C71.3434214,34.1674667 70.1138929,34.0983238 68.87185,34.1915619" id="Fill-3" fill="#414A59" fill-rule="nonzero" mask="url(#mask-2)"></path>
                    </g>
                </g>
            </g>
        </g>
    </g>
</svg>