<?xml version="1.0" encoding="UTF-8"?>
<svg width="75px" height="75px" viewBox="0 0 75 75" version="1.1" xmlns="http://www.w3.org/2000/svg" xmlns:xlink="http://www.w3.org/1999/xlink">
    <!-- Generator: Sketch 47.1 (45422) - http://www.bohemiancoding.com/sketch -->
    <title>icon-5zones</title>
    <desc>Created with Sketch.</desc>
    <defs></defs>
    <g id="Page-1" stroke="none" stroke-width="1" fill="none" fill-rule="evenodd">
        <g id="icon-5zones" fill="#414A59">
            <path d="M70.002689,17.2138594 C69.5920598,17.8227925 68.9199632,18.8192527 68.509334,19.4281858 L65.5561421,23.8076966 C65.1455129,24.4166297 64.4734163,24.4166297 64.0627871,23.8076966 L61.1095952,19.4281858 C60.698966,18.8192527 60.027003,17.8227925 59.6162403,17.2138594 L56.5798542,12.7112266 C56.169225,12.1022935 55.4973955,12.1022935 55.0867663,12.7112266 L52.0502467,17.2138594 C51.6396175,17.8227925 50.9676545,18.8192527 50.5570253,19.4281858 L47.6036998,23.8076966 C47.1930706,24.4166297 46.5211076,24.4166297 46.1104784,23.8076966 L43.1572865,19.4281858 C42.7465237,18.8192527 42.0745608,17.8227925 41.6639315,17.2138594 L38.6275455,12.7112266 C38.2167827,12.1022935 37.5448197,12.1022935 37.1343241,12.7112266 L34.097938,17.2138594 C33.6873088,17.8227925 33.0152122,18.8192527 32.604583,19.4281858 L29.6513911,23.8076966 C29.2407619,24.4166297 28.5686654,24.4166297 28.1580362,23.8076966 L25.2047107,19.4281858 C24.794215,18.8192527 24.122252,17.8227925 23.7114893,17.2138594 L20.6751032,12.7112266 C20.264474,12.1022935 19.592511,12.1022935 19.1817483,12.7112266 L16.1453622,17.2138594 C15.734733,17.8227925 15.0629035,18.8192527 14.6522743,19.4281858 L11.6988153,23.8076966 C11.2881861,24.4166297 10.6163567,24.4166297 10.2057274,23.8076966 L7.25226845,19.4281858 C6.84163924,18.8192527 6.16980978,17.8227925 5.75918056,17.2138594 L2.72266097,12.7112266 C2.31203175,12.1022935 1.97605025,12.2049842 1.97605025,12.939443 L1.97605025,23.6843075 C1.97605025,24.4187663 1.97564964,25.0196871 1.97511549,25.0196871 C1.97471487,25.0196871 1.97431426,25.6206079 1.97431426,26.3550667 L1.97431426,61.5130937 C1.97431426,62.2475524 2.57523506,62.8484732 3.30969383,62.8484732 L10.5730904,62.8484732 L10.5730904,55.413881 C10.5730904,54.6794223 11.1740112,54.0785015 11.9084699,54.0785015 L17.9138054,54.0785015 C18.6482641,54.0785015 19.2491849,54.6794223 19.2491849,55.413881 L19.2491849,62.8484732 L25.8744036,62.8484732 L25.8744036,55.0645457 C25.8744036,54.5222481 26.3180167,54.0785015 26.8601808,54.0785015 L33.5647209,54.0785015 C34.106885,54.0785015 34.5504981,54.5222481 34.5504981,55.0645457 L34.5504981,62.8484732 L41.1925425,62.8484732 L41.1925425,55.0645457 C41.1925425,54.5222481 41.6361556,54.0785015 42.1783197,54.0785015 L48.8827264,54.0785015 C49.425024,54.0785015 49.8686371,54.5222481 49.8686371,55.0645457 L49.8686371,62.8484732 L56.5106815,62.8484732 L56.5106815,55.0645457 C56.5106815,54.5222481 56.9544282,54.0785015 57.4965923,54.0785015 L64.2008654,54.0785015 C64.7432966,54.0785015 65.1869096,54.5222481 65.1869096,55.0645457 L65.1869096,62.8484732 L72.4503062,62.8484732 C73.1847649,62.8484732 73.7856857,62.2475524 73.7856857,61.5130937 L73.7856857,26.3734949 L73.7856857,25.0381154 L73.7856857,23.7027358 L73.7856857,12.939443 C73.7856857,12.2049842 73.4497042,12.1022935 73.039075,12.7112266 L70.002689,17.2138594 Z" id="Fill-1"></path>
        </g>
    </g>
</svg>