<?xml version="1.0" encoding="UTF-8"?>
<svg width="75px" height="75px" viewBox="0 0 75 75" version="1.1" xmlns="http://www.w3.org/2000/svg" xmlns:xlink="http://www.w3.org/1999/xlink">
    <!-- Generator: Sketch 46.2 (44496) - http://www.bohemiancoding.com/sketch -->
    <title>icon-FreeReturns</title>
    <desc>Created with Sketch.</desc>
    <defs>
        <polygon id="path-1" points="74.3269286 0.165163934 0 0.165163934 0 64.9996803 74.3269286 64.9996803"></polygon>
    </defs>
    <g id="Page-1" stroke="none" stroke-width="1" fill="none" fill-rule="evenodd">
        <g id="icon-FreeReturns">
            <g transform="translate(0.000000, 5.000000)">
                <path d="M71,33.5 C71,49.7927706 57.7927706,63 41.5,63 C25.2083001,63 12,49.7927706 12,33.5 C12,17.2072294 25.2083001,4 41.5,4 C57.7927706,4 71,17.2072294 71,33.5" id="Fill-1" fill="#FFFFFF" fill-rule="nonzero"></path>
                <g id="Group-5">
                    <g id="Fill-3-Clipped">
                        <mask id="mask-2" fill="white">
                            <use xlink:href="#path-1"></use>
                        </mask>
                        <g id="path-1"></g>
                        <path d="M41.7319286,0.164844262 C23.7565714,0.164844262 9.13585714,14.7056639 9.13585714,32.5827951 C9.19371429,32.9610738 9.22264286,33.3713197 9.23978571,33.8145984 L3.20014286,27.8345984 L-0.000214285714,31.0164016 L11.6655,42.6183689 L23.3301429,31.0164016 L20.1565714,27.8345984 L14.2465714,33.6856639 L14.2465714,31.5811557 C14.7651429,16.9103361 26.8508571,5.24763115 41.7319286,5.24763115 C56.9451429,5.24763115 69.2172857,17.4516475 69.2172857,32.5827951 C69.2172857,47.7139426 56.9451429,59.917959 41.7319286,59.917959 L41.7319286,64.9996803 C59.7072857,64.9996803 74.3269286,50.4599262 74.3269286,32.5827951 C74.3269286,14.7045984 59.7072857,0.164844262 41.7319286,0.164844262 Z" id="Fill-3" fill="#414A59" fill-rule="nonzero" mask="url(#mask-2)"></path>
                    </g>
                </g>
                <path d="M44.8197349,43.6441007 C45.3251266,43.5459055 45.8380938,43.4054758 46.3608008,43.2249233 C46.8835079,43.0454266 47.3466935,42.8057459 47.7514397,42.5101044 C48.1551038,42.2144629 48.4840954,41.8618048 48.7362501,41.4500184 C48.9894871,41.0392879 49.1161056,40.554647 49.1161056,39.9950399 C49.1161056,39.4692204 49.0230356,39.0257581 48.8379778,38.6635973 C48.6518378,38.3024923 48.4083407,37.9984039 48.1053222,37.7513321 C47.8012214,37.5053161 47.4473389,37.2909761 47.0436749,37.1104236 C46.6389286,36.9298711 46.2179492,36.7577655 45.7796545,36.593051 L44.8197349,36.2477839 L44.8197349,43.6441007 Z M41.4843659,21.4055249 C40.5406795,21.6019153 39.6976385,21.9471823 38.9574073,22.4402701 C38.2150118,22.9333579 37.8448962,23.7062492 37.8448962,24.7578883 C37.8448962,25.5149417 37.9964055,26.1062247 38.2994241,26.5327931 C38.6035249,26.9604174 38.9574073,27.2972376 39.3610714,27.5443094 C39.7658176,27.7903254 40.1694817,27.9634868 40.574228,28.061682 C40.9789742,28.1598772 41.2819928,28.2432904 41.4843659,28.3087538 L41.4843659,21.4055249 Z M44.8197349,14.4526703 C46.6389286,14.4526703 48.5263015,14.6817925 50.4807715,15.1421486 C52.4341592,15.6025046 54.1527075,16.4081277 55.6353341,17.5579619 L50.7837901,23.3282505 C49.9753797,22.6377164 49.0479264,22.1361817 48.0035945,21.8236464 C46.9592626,21.512167 45.8976153,21.3231676 44.8197349,21.2566483 L44.8197349,29.0974831 L49.6712789,30.4785513 C51.895219,31.1363536 53.6722065,32.2122775 55.0044061,33.7084346 C56.3344413,35.2045918 57,37.1030325 57,39.4037569 C57,41.14593 56.6796661,42.6748189 56.0400804,43.9893677 C55.3994125,45.3049724 54.5239052,46.4220749 53.4113941,47.342787 C52.2999652,48.2634991 51.0023963,48.9867649 49.5197696,49.5125844 C48.037143,50.0373481 46.470104,50.3826151 44.8197349,50.5483855 L44.8197349,54 L41.4843659,54 L41.4843659,50.5483855 C39.2604259,50.5483855 37.0440614,50.2516882 34.8374367,49.6604052 C32.630812,49.0680663 30.6849998,48.0333211 29,46.5530018 L34.358018,40.685574 C35.2335253,41.7382689 36.2951726,42.4858195 37.5418776,42.9292818 C38.7875005,43.372744 40.1023847,43.6441007 41.4843659,43.7433517 L41.4843659,35.4094291 L37.7940324,34.3240025 C35.2335253,33.5352732 33.2877131,32.4255617 31.9565957,30.9959239 C30.6254783,29.5662861 29.9610018,27.6023818 29.9610018,25.1031553 C29.9610018,23.5584285 30.2802535,22.1615224 30.9209214,20.9113812 C31.5605071,19.6633517 32.4122058,18.593763 33.4727708,17.7068386 C34.5344181,16.8188582 35.7638078,16.0966483 37.1631044,15.5370411 C38.5602365,14.9784899 40.0006571,14.616329 41.4843659,14.4526703 L41.4843659,11 L44.8197349,11 L44.8197349,14.4526703 Z" id="Fill-6" fill="#414A59" fill-rule="nonzero"></path>
            </g>
        </g>
    </g>
</svg>