<?xml version="1.0" encoding="UTF-8"?>
<svg width="75px" height="275px" viewBox="0 0 75 275" version="1.1" xmlns="http://www.w3.org/2000/svg" xmlns:xlink="http://www.w3.org/1999/xlink">
    <!-- Generator: Sketch 59.1 (86144) - https://sketch.com -->
    <title>icons-specs</title>
    <desc>Created with Sketch.</desc>
    <g id="icons-specs" stroke="none" stroke-width="1" fill="none" fill-rule="evenodd">
        <g id="np_scissors_601228_000000" transform="translate(25.000000, 25.000000)" fill="#38414F" fill-rule="nonzero">
            <path d="M3.68051852,6.58859259 C5.2846716,6.22149136 4.9950321,5.69631605 5.60190617,5.52338519 C6.36155802,5.30694864 6.84745926,7.53494568 9.00430123,10.625484 L10.5745037,8.94175062 L9.88701728,8.40065926 C7.2887358,6.35620741 6.88143704,3.9808321 6.07911605,2.18036296 C5.52634568,0.605896296 3.6665037,-0.327745679 2.10254815,0.240940741 C0.522785185,0.706688889 -0.187,2.60368642 0.244824691,4.11674321 C0.569474074,5.65937778 2.1397037,6.94089136 3.68008395,6.58878272 L3.68051852,6.58859259 Z M2.07742469,1.3857284 C3.55427654,0.447849383 5.53414074,1.95441481 5.43527654,3.60313827 C5.43527654,5.39616543 3.07782716,6.20992099 1.74851111,4.86354815 C0.839259259,3.94264444 0.835022222,2.04238765 2.07739753,1.38564691 L2.07742469,1.3857284 Z" id="Shape"></path>
            <path d="M19.7603457,0.169753086 C18.197558,-0.402111111 16.3367654,0.527293827 15.7797037,2.09964198 C14.9744494,3.89796543 14.5617185,6.27230864 11.9582222,8.31151852 L10.8643877,9.16875802 L9.22201975,10.9310123 L3.04518025,19.7454074 C2.27173086,21.0206741 1.80810123,22.7181235 2.81070914,24.3349877 L10.8847091,13.2277037 L12.5535857,10.9318 L12.6862049,10.7493141 C14.9789309,7.55469679 15.4745012,5.21970914 16.2499333,5.4435116 C16.8568074,5.61856914 16.5650494,6.14267704 18.1692025,6.51401531 C19.7097185,6.86943753 21.2820667,5.59205235 21.6088074,4.04941778 C22.0448691,2.53755605 21.3393237,0.638331358 19.7606173,0.169541235 L19.7603457,0.169753086 Z M10.9288395,11.5155062 C10.6254025,11.5155062 10.3792741,11.2693642 10.3792741,10.9659407 C10.3792741,10.6625173 10.625416,10.4163753 10.9288395,10.4163753 C11.2322765,10.4163753 11.4784049,10.6625173 11.4784049,10.9659407 C11.4784049,11.2693642 11.232263,11.5155062 10.9288395,11.5155062 Z M20.1039259,4.79328395 C18.772437,6.13645185 16.4160741,5.3174 16.4212346,3.52437284 C16.3268084,1.87564938 18.3097309,0.372397531 19.7845185,1.31440494 C21.0247753,1.97432346 21.0163012,3.87343951 20.1038716,4.79339259 L20.1039259,4.79328395 Z" id="Shape"></path>
            <path d="M12.779284,11.2547654 L11.1125259,13.5390173 L18.9996617,24.4444988 C20.005442,22.8307852 19.5449901,21.1322765 18.7747402,19.8549185 L12.779284,11.2547654 Z" id="Path"></path>
        </g>
        <g id="np_measure_2382795_000000" transform="translate(25.000000, 75.000000)" fill="#38414F" fill-rule="nonzero">
            <path d="M32.5434375,0.004375 L9.00375,0.004375 C8.98808458,0.004375 8.9724188,0.00295057292 8.95675156,0.00295057292 C4.19018906,0.00295057292 0.312116146,2.48098703 0.312116146,5.52565891 L0.312116146,15.621336 C0.312116146,18.6661902 4.19018906,21.1440443 8.95675156,21.1440443 C13.7233141,21.1440443 17.601387,18.6660079 17.601387,15.621336 L17.601387,14.0761224 L32.5434703,14.0761224 C33.7255224,14.0746984 34.6882411,13.1134037 34.6882411,11.9313516 L34.6882411,2.14885161 C34.6882411,0.965377656 33.7255224,0.00408078125 32.5434703,0.00408078125 L32.5434375,0.004375 Z M8.95088542,1.04401245 C8.95373391,1.04401245 8.95515797,1.04544526 8.95800609,1.04544526 L9.00785193,1.04544526 C13.1764978,1.06253474 16.5601957,3.0649088 16.5601957,5.52435151 C16.5601957,6.91148172 15.4835446,8.15474734 13.7973467,8.97651818 C13.7688636,8.98648734 13.743228,8.99788057 13.7161686,9.01354526 C12.411653,9.63304526 10.7581946,10.0061963 8.95653318,10.0061963 C7.16066859,10.0061963 5.51009047,9.63592547 4.20856443,9.01926922 C4.17865729,9.00217938 4.14732536,8.98793802 4.1145712,8.9765437 C2.42979516,8.15480932 1.35456599,6.91292911 1.35456599,5.52583536 C1.35456599,3.05636661 4.76115974,1.04692911 8.95102432,1.04401245 L8.95088542,1.04401245 Z M16.5601042,15.6200625 C16.5601042,18.0909531 13.1492448,20.1004278 8.95671875,20.1004278 C4.76546875,20.1018515 1.35442708,18.0909531 1.35442708,15.6200625 L1.35442708,8.1519375 C1.88135937,8.77285937 2.59200521,9.32115625 3.43510417,9.77119792 L3.43510417,14.8370833 C3.43510417,15.1247615 3.66866354,15.3583281 3.95634896,15.3583281 C4.24402708,15.3583281 4.47759375,15.1247687 4.47759375,14.8370833 L4.47759375,10.2415104 C5.64539062,10.6958177 6.99263542,10.9777865 8.43660417,11.033349 L8.43660417,13.9528594 C8.43660417,14.2405375 8.67016354,14.4741042 8.95784896,14.4741042 C9.24552708,14.4741042 9.47909375,14.2405448 9.47909375,13.9528594 L9.47909375,11.033349 C10.9245937,10.9778083 12.2732969,10.695825 13.4424792,10.2400885 L13.4424792,14.8371198 C13.4424792,15.1247979 13.6760385,15.3583646 13.963724,15.3583646 C14.2514021,15.3583646 14.4849688,15.1248052 14.4849688,14.8371198 L14.4849688,9.77014062 C15.3266458,9.32152083 16.0358698,8.77322396 16.5628021,8.15372396 L16.5601042,15.6200625 Z M17.6011719,5.52547917 C17.6011719,3.68119792 16.1741562,2.04910417 13.9923802,1.04657292 L20.1006094,1.04657292 L20.1006094,4.7963125 C20.1006094,5.08399062 20.3341724,5.31755729 20.6218542,5.31755729 C20.9095359,5.31755729 21.143099,5.08399427 21.143099,4.7963125 L21.143099,1.04657292 L24.3730885,1.04657292 L24.3730885,3.24544792 C24.3730885,3.53312604 24.6066516,3.76669271 24.8943333,3.76669271 C25.1820151,3.76669271 25.4155781,3.53313333 25.4155781,3.24544792 L25.4155781,1.04657292 L29.3363073,1.04657292 L29.3363073,13.0351667 L17.601099,13.0337426 L17.6011719,5.52547917 Z M33.6457552,11.9312083 C33.6457552,12.5393333 33.1515625,13.0334896 32.543474,13.0334896 L30.3759167,13.0334896 L30.3759167,1.04489583 L32.543474,1.04489583 C33.151599,1.04489583 33.6457552,1.54051042 33.6457552,2.14859896 L33.6457552,11.9312083 Z" id="Shape"></path>
            <path d="M8.95635417,3.64875 C12.3259063,3.64875 13.9478646,5.15407812 13.9551563,5.52577083 C13.9551563,5.81344896 14.1887156,6.04701562 14.476401,6.04701562 C14.7640792,6.04701562 14.9976458,5.8134526 14.9976458,5.52577083 C14.9976458,4.17710417 12.3586823,2.60768229 8.95795833,2.60768229 C8.67028021,2.60768229 8.43671354,2.84124167 8.43671354,3.12892708 C8.43671354,3.41518333 8.66885104,3.64875 8.95653646,3.64875 L8.95635417,3.64875 Z" id="Path"></path>
            <path d="M8.95635417,8.44375 C9.24403229,8.44375 9.47759896,8.21019062 9.47759896,7.92250521 C9.47759896,7.63482708 9.24403958,7.40126042 8.95635417,7.40126042 C5.58680208,7.40126042 3.96338542,5.89593229 3.95755208,5.52423958 C3.95755208,5.23656146 3.72399271,5.00299479 3.43630729,5.00299479 C3.14862917,5.00299479 2.9150625,5.23655417 2.9150625,5.52423958 C2.91648656,6.87432812 5.55544792,8.44375 8.95620833,8.44375 L8.95635417,8.44375 Z" id="Path"></path>
        </g>
        <g id="np_shipping_196540_000000" transform="translate(25.000000, 125.000000)" fill="#38414F" fill-rule="nonzero">
            <path d="M29.2050538,3.3122043 L25.1401613,3.3122043 L25.1401613,0.339688172 L5.79682796,0.339688172 L5.79682796,4.06489247 L0.11327957,4.06489247 L0.11327957,5.30712903 L5.79682796,5.30712903 L5.79682796,7.82833333 L1.13091398,7.82833333 L1.13091398,9.07056989 L5.79682796,9.07056989 L5.79682796,11.5917742 L2.0333871,11.5917742 L2.0333871,12.8340108 L5.79682796,12.8340108 L5.79682796,17.5766989 L9.41033333,17.5766989 C9.59850538,18.9321398 10.7657742,19.9479677 12.1579462,19.9479677 C13.5501183,19.9479677 14.7173871,18.9321398 14.9055591,17.5766989 L26.2342688,17.5766989 C26.4224409,18.9321398 27.5897097,19.9479677 28.9818817,19.9479677 C30.3740538,19.9479677 31.5413226,18.9321398 31.7294946,17.5766989 L34.627043,17.5766989 L34.627043,9.4104086 C34.5491285,5.72046774 32.4410108,3.31250538 29.2054301,3.31250538 L29.2050538,3.3122043 Z M12.1182796,18.7423118 C11.2906237,18.7423118 10.6129032,18.0645914 10.6129032,17.2369355 C10.6129032,16.4092796 11.2906237,15.7315591 12.1182796,15.7315591 C12.9459355,15.7315591 13.6236559,16.4092796 13.6236559,17.2369355 C13.6236559,18.0645914 12.9459355,18.7423118 12.1182796,18.7423118 Z M23.8599892,16.371043 L14.7526882,16.371043 C14.3763441,15.2802473 13.3605161,14.451086 12.1182796,14.451086 C10.9142796,14.451086 9.86021505,15.2420108 9.48387097,16.371043 L6.99939785,16.371043 L6.99939785,1.61873118 L23.8599892,1.61873118 L23.8599892,16.371043 Z M28.9036022,18.7423118 C28.0759462,18.7423118 27.3982258,18.0645914 27.3982258,17.2369355 C27.3982258,16.4092796 28.0759462,15.7315591 28.9036022,15.7315591 C29.7312581,15.7315591 30.4089785,16.4092796 30.4089785,17.2369355 C30.4089785,18.0645914 29.7312581,18.7423118 28.9036022,18.7423118 Z M33.2684409,16.371043 L31.5366559,16.371043 C31.1603118,15.2802473 30.1444839,14.451086 28.9022473,14.451086 C27.6600108,14.451086 26.6441828,15.2420108 26.2678387,16.371043 L25.1005699,16.371043 L25.1005699,4.5545914 L29.1654624,4.5545914 C31.6866667,4.5545914 33.2303548,6.43631183 33.2303548,9.44706452 L33.2318248,16.371043 L33.2684409,16.371043 Z" id="Shape"></path>
        </g>
        <g id="np_care_1628826_000000" transform="translate(25.000000, 175.000000)" fill="#38414F" fill-rule="nonzero">
            <path d="M24.9950094,15.9545193 C24.9539695,15.7151369 24.7995785,15.5059972 24.5748298,15.3858481 C23.9650854,15.0336424 22.5677639,14.7383063 21.2172957,15.3693383 C20.6544547,15.6334925 20.0877114,15.9490218 19.5580905,16.2516839 C19.5463649,16.229671 19.5336617,16.2085763 19.5190043,16.1874791 C19.3411616,15.9416631 19.0089203,15.8205983 18.5262028,15.8205983 C17.9281905,15.8205983 16.8239966,16.3709313 15.3270147,17.1523817 C14.8755662,17.4036922 14.4084832,17.6302543 13.9296931,17.8329369 C13.6170037,17.7980827 13.312119,17.7705683 12.9798927,17.7412179 C12.473736,17.6971922 11.8972118,17.6458289 11.1272203,17.5577774 C10.8624098,17.4688079 10.6083559,17.3514061 10.3728633,17.2074033 C8.65014458,16.2443322 6.74666639,15.5986218 4.76596641,15.3051171 C1.691854,14.8098221 0.370803666,15.3748233 0.316020477,15.4005062 C0.124496945,15.4885576 0.0443809081,15.7050232 0.135245957,15.8857046 C0.225145422,16.0663932 0.453788942,16.1461959 0.648256757,16.0645594 C0.659982861,16.0645594 1.84233017,15.5784451 4.63517217,16.0278713 C6.52596768,16.305785 8.34241815,16.9184819 9.98791505,17.8347567 C10.4452171,18.0787412 10.7461744,18.2401688 11.0256437,18.2750137 C11.8073673,18.3722365 12.3936725,18.4235999 12.9076339,18.4694594 C13.7509198,18.5272422 14.5883522,18.6437284 15.4131518,18.8180021 C16.8769387,19.129845 17.836495,19.680178 18.1160394,20.3717455 C18.2577277,20.7276141 18.2039826,21.1265927 17.9714192,21.4375433 L17.6743643,21.6209837 C17.0685222,21.7365518 15.7024696,21.3715047 14.9071878,21.1568706 C14.3638837,20.9844378 13.8049701,20.8615344 13.2362505,20.7899897 C11.5555323,20.7349588 9.87396351,20.8551102 8.22146237,21.1476898 C8.11788462,21.1651167 8.02603147,21.2201479 7.96643286,21.3017797 C7.90682675,21.3843273 7.88532873,21.4843021 7.90584866,21.5815249 C7.92734618,21.6787478 7.98890648,21.7631316 8.07684976,21.8172444 C8.16577113,21.8704416 8.27325875,21.8887868 8.37585591,21.8667739 C9.96666968,21.5934389 11.5827988,21.4824706 13.199028,21.5347379 C13.7061602,21.6044441 14.2054877,21.7163446 14.6921325,21.8667739 C15.3155602,22.0337053 15.9467926,22.2024729 16.5233169,22.2997051 C14.5416414,23.415023 12.7125082,24.2661866 11.8544884,24.2661866 C10.1522821,24.2661866 3.11669472,21.0761427 0.558644967,19.8471798 C0.368099528,19.7618803 0.139440999,19.835256 0.0427073943,20.0113593 C-0.0530531208,20.1883802 0.0173020028,20.4048435 0.202959481,20.5002208 C0.593821278,20.6836612 9.62866991,25 11.8525172,25 C12.9899313,25 15.4777135,23.783787 17.9617184,22.3016352 C18.1923281,22.2466042 18.3975324,22.1236986 18.5480236,21.951261 C21.4873043,20.1443757 24.2799962,18.0678416 24.6141987,17.330323 C24.7050737,17.1478007 24.7529552,16.9496827 24.7549089,16.748808 C24.936659,16.5204238 25.0216705,16.237922 24.9952895,15.9545139 L24.9950094,15.9545193 Z M21.5651815,16.0278955 C22.622472,15.5344319 23.7149339,15.7564154 24.1645062,16.0113859 L24.1899116,16.02973 C23.7404143,15.8866453 23.0524975,15.9783667 22.1320149,16.3103909 C21.4577814,16.5534598 20.8187192,16.87446 20.2285117,17.2661127 C19.6715242,17.607306 18.9113137,18.0714191 17.5238731,18.7758304 C17.3059686,18.6593466 17.0802543,18.55662 16.8476884,18.4694819 C17.4124806,18.2236659 18.0808605,17.9283297 18.3642322,17.7852403 C18.712093,17.6017999 19.1185892,17.3725022 19.5505009,17.1230233 C20.1739286,16.7579738 20.8813822,16.3470673 21.5653966,16.027875 L21.5651815,16.0278955 Z M15.7021294,17.7944181 C16.6011241,17.330305 18.0844227,16.5616983 18.5260903,16.5616983 C18.6472587,16.5479402 18.7694027,16.5672017 18.8798296,16.6167316 C18.8690808,16.6057252 18.8622407,16.5910488 18.8602865,16.5763736 C18.8593094,16.5699531 18.8593094,16.56445 18.8602865,16.5580295 L18.9677741,16.5983876 C18.6081813,16.8056747 18.2700764,17.0001133 17.9906321,17.1487206 C17.5665502,17.3633454 16.1555454,17.9705338 15.737317,18.1502996 L15.5848796,18.1154453 L15.2331165,18.0292277 L15.7021294,17.7944181 Z M23.8965939,17.0404867 C23.64254,17.5908197 21.4537139,19.2417719 18.9736114,20.8119047 C18.9794742,20.5725222 18.9355033,20.3349713 18.8446283,20.1111563 C18.7068498,19.7846382 18.4918645,19.4920493 18.215347,19.2544983 C19.4289823,18.6271261 20.1305573,18.1997128 20.6543246,17.8786891 C21.19958,17.5163869 21.7897875,17.2192193 22.4131902,16.9945121 C23.5095544,16.6001122 23.9277828,16.6936815 23.9766374,16.7340208 L23.9766374,16.7450272 C23.9795689,16.8477539 23.9531857,16.9495624 23.9004187,17.0403634 L23.8965939,17.0404867 Z" id="Shape"></path>
            <path d="M0.00505661478,9.0454773 C0.0460964479,9.28485975 0.200487369,9.49399947 0.425235864,9.61414856 C0.937270695,9.87738707 1.51281896,10.0103799 2.09617194,9.99936763 C2.68147611,10.0012019 3.25799996,9.87554621 3.78274248,9.63248674 C4.34558305,9.36833249 4.91232599,9.05280318 5.44194646,8.75014111 C5.45367206,8.77215397 5.46637524,8.79324874 5.48103261,8.81434586 C5.65887522,9.06016193 5.99111626,9.18122675 6.47383335,9.18122675 C7.07184521,9.18122675 8.17603835,8.63089367 9.67301917,7.84944322 C10.1244673,7.59813274 10.59155,7.37157058 11.0703397,7.16888796 C11.3830289,7.20374224 11.6879134,7.23125654 12.0201394,7.26060701 C12.5262957,7.30463272 13.1028195,7.35599605 13.8728105,7.44404746 C14.1376207,7.53301696 14.3916744,7.65041885 14.6271669,7.79442166 C16.3508599,8.7538064 18.2543617,9.39676957 20.2340596,9.68752709 C21.0001482,9.82235611 21.7779688,9.89481421 22.5577407,9.90582181 C23.9922087,9.90582181 24.6469048,9.62516086 24.6840273,9.60865415 C24.8755507,9.52060274 24.9556667,9.30413714 24.8648017,9.12345563 C24.7749023,8.94276708 24.5462589,8.86296432 24.3517913,8.9446009 C24.3400652,8.9446009 23.1577187,9.43071516 20.3648788,8.98128899 C18.4740847,8.70337524 16.6576355,8.09067827 15.0121399,7.1744035 C14.5548381,6.9304189 14.253881,6.76899131 13.9744119,6.73414643 C13.1926889,6.63692358 12.6063841,6.58556025 12.0924231,6.53969838 C11.2491379,6.48191552 10.4117061,6.36542936 9.58690706,6.19115565 C8.12312133,5.87013193 7.16356571,5.31982233 6.88402156,4.62825477 C6.74233332,4.27238617 6.79705393,3.8734076 7.03059525,3.56245696 L7.32764999,3.37901651 C7.93349159,3.26344844 9.29954318,3.62849552 10.0948244,3.84312965 C10.6381282,4.0155625 11.1970414,4.13846584 11.7657605,4.21001055 C13.4454769,4.26412577 15.1272945,4.14397198 16.7785437,3.85231048 C16.8821214,3.83488357 16.9739745,3.77985238 17.033573,3.6982205 C17.0931791,3.61567288 17.1146771,3.51569813 17.0941572,3.41847528 C17.0726597,3.32125243 17.0110994,3.23686865 16.9231562,3.18275577 C16.8342349,3.12955863 16.7267474,3.11121341 16.6241503,3.13322626 C15.0343133,3.40747707 13.4172098,3.51844534 11.8009818,3.46526228 C11.2938499,3.39555609 10.7945228,3.28365565 10.3078783,3.13322626 C9.68445109,2.96629487 9.05321913,2.79752731 8.47669528,2.70029506 C10.4583694,1.58314567 12.2875012,0.733813452 13.1455204,0.733813452 C14.8477254,0.733813452 21.8833076,3.92385753 24.4413554,5.15282049 C24.6319007,5.23812001 24.8605591,5.1647443 24.9572926,4.988641 C25.0530531,4.81162008 24.982698,4.59515683 24.7970407,4.49977954 C24.4120327,4.31450527 15.3713372,0 13.1454904,0 C12.0080771,0 9.52029676,1.21621311 7.03054021,2.69836498 C6.80384054,2.75431402 6.60158065,2.87630163 6.45401636,3.0469077 C3.5127366,4.85379319 0.720046753,6.93220576 0.385844528,7.66972441 C0.293015858,7.85224678 0.244156293,8.05219628 0.241227021,8.25490238 C0.0624088184,8.48236854 -0.0216320344,8.76395697 0.00475643314,9.04553365 L0.00505661478,9.0454773 Z M3.43488199,8.97210112 C2.37759223,9.46556473 1.28513118,9.24358124 0.835559149,8.98861064 L0.814061891,8.97210112 C0.965521039,9.01704491 1.12284874,9.03905776 1.28114452,9.03630586 C1.82737504,9.00878921 2.36480024,8.89138732 2.86805476,8.68959461 C3.54228773,8.44652574 4.18134943,8.1255255 4.77155656,7.73387281 C5.32854359,7.39267944 6.08875359,6.9285663 7.47619313,6.22415498 C7.69409748,6.34063878 7.91981156,6.44336543 8.15237728,6.53050346 C7.58758553,6.77631953 6.9192061,7.07165572 6.63583463,7.21474514 C6.28797414,7.39818559 5.88147817,7.62748322 5.44956682,7.87696223 C4.82613959,8.24201165 4.11868651,8.65291826 3.43467262,8.97211051 L3.43488199,8.97210112 Z M9.2979297,7.2055784 C8.39893573,7.66969154 6.91563819,8.43829822 6.47397094,8.43829822 C6.35280262,8.45205631 6.23065871,8.43279489 6.12023189,8.38326491 C6.13098064,8.39427134 6.13782078,8.40894775 6.13977496,8.42362298 C6.14075206,8.43004346 6.14075206,8.43554655 6.13977496,8.44196703 L6.03228742,8.40160895 C6.39188001,8.19248802 6.7299846,7.99988318 7.00942869,7.85127587 C7.4335103,7.63665113 8.84451409,7.02946266 9.26274216,6.84969689 L9.4151794,6.88455116 L9.76694225,6.97076876 L9.2979297,7.2055784 Z M1.09971899,7.95950984 C1.35377272,7.40917675 3.54259717,5.75822445 6.02269787,4.18809161 C6.01683482,4.42747406 6.06080593,4.66502504 6.15168092,4.88884 C6.28945929,5.21535813 6.50444437,5.50794711 6.78096169,5.74549809 C5.56732733,6.3728703 4.86575281,6.80028361 4.34198588,7.12130733 C3.79673095,7.48360955 3.20652381,7.78077721 2.58312159,8.00548442 C1.48675819,8.39988432 1.06853012,8.30631502 1.01967556,8.26597573 L1.01967556,8.2549693 C1.01772138,8.15132457 1.04605902,8.049516 1.09980154,7.95963311 L1.09971899,7.95950984 Z" id="Shape"></path>
        </g>
        <g id="np_details_1861916_38414F" transform="translate(25.000000, 226.000000)" fill="#38414F" fill-rule="nonzero">
            <path d="M8.12482644,1.69284318 C9.02217326,1.69284318 9.74888846,2.45119637 9.75040952,3.3840699 L9.75040952,8.46087738 C9.74888573,9.39533488 9.02217326,10.1521041 8.12482644,10.1536881 L3.24963729,10.1536881 C2.35229047,10.1521017 1.62557527,9.39533488 1.62405421,8.46087738 L1.62405421,3.3840699 C1.625578,2.45119637 2.35229047,1.69284318 3.24963729,1.69284318 L8.12482644,1.69284318 M8.12482644,3.24915679e-05 L3.24963729,3.24915679e-05 C1.45494365,3.24915679e-05 3.12012106e-05,1.51515492 3.12012106e-05,3.38402929 L3.12012106e-05,8.46083677 C3.12012106e-05,9.35878186 0.341294442,10.2202552 0.952214146,10.8548561 C1.56161279,11.489457 2.38735283,11.8464175 3.24963729,11.8464175 L8.12482644,11.8464175 C8.9871109,11.8464175 9.81285094,11.489453 10.4222496,10.8548561 C11.0331693,10.2202552 11.3744325,9.35878186 11.3744325,8.46083677 L11.3744325,3.38402929 C11.3744325,2.48766816 11.0331693,1.62619485 10.4222496,0.991593914 C9.81285094,0.356992979 8.9871109,3.24915679e-05 8.12482644,3.24915679e-05 Z M26,0.845625546 C26,0.621929224 25.9146842,0.40617709 25.7623326,0.247496395 C25.609981,0.0888157008 25.4027854,0 25.1879573,0 L15.437579,0 C14.9881645,0 14.6255675,0.379172536 14.6255675,0.845593054 C14.6255675,1.31359348 14.9881606,1.69277007 15.437579,1.69277007 L25.1879573,1.69277007 C25.4027698,1.69277007 25.6099537,1.60392594 25.7623326,1.44527368 C25.9147115,1.28662141 26,1.07085709 26,0.845560563 L26,0.845625546 Z M26,5.92243303 C26,5.69873671 25.9146842,5.48298457 25.7623326,5.32430388 C25.609981,5.16562318 25.4027854,5.07680748 25.1879573,5.07680748 L15.437579,5.07680748 C14.9881645,5.07680748 14.6255675,5.45598002 14.6255675,5.92240054 C14.6255675,6.39040096 14.9881606,6.76957755 15.437579,6.76957755 L25.1879573,6.76957755 C25.4027698,6.76957755 25.6099537,6.68073342 25.7623326,6.52208116 C25.9147115,6.36342889 26,6.14766458 26,5.92236804 L26,5.92243303 Z M26,10.9992405 C26,10.7755442 25.9146842,10.5597921 25.7623326,10.4011114 C25.609981,10.2424307 25.4027854,10.153615 25.1879573,10.153615 L15.437579,10.153615 C14.9881645,10.153615 14.6255675,10.5327875 14.6255675,10.999208 C14.6255675,11.4672084 14.9881606,11.846385 15.437579,11.846385 L25.1879573,11.846385 C25.4027698,11.846385 25.6099537,11.7575409 25.7623326,11.5988886 C25.9147115,11.4402364 26,11.2244721 26,10.9991755 L26,10.9992405 Z M26,16.076048 C26,15.8523517 25.9146842,15.6365995 25.7623326,15.4779188 C25.609981,15.3192381 25.4027854,15.2304224 25.1879573,15.2304224 L0.812011506,15.2304224 C0.362597069,15.2304224 0,15.609595 0,16.0760155 C0,16.5440159 0.362593169,16.9231925 0.812011506,16.9231925 L25.1879573,16.9231925 C25.4027698,16.9231925 25.6099537,16.8343484 25.7623326,16.6756961 C25.9147115,16.5170439 26,16.3012795 26,16.075983 L26,16.076048 Z M26,21.1528555 C26,20.9291592 25.9146842,20.713407 25.7623326,20.5547263 C25.609981,20.3960456 25.4027854,20.3072299 25.1879573,20.3072299 L0.812011506,20.3072299 C0.362597069,20.3072299 0,20.6864025 0,21.152823 C0,21.6208234 0.362593169,22 0.812011506,22 L25.1879573,22 C25.4027698,22 25.6099537,21.9111559 25.7623326,21.7525036 C25.9147115,21.5938513 26,21.378087 26,21.1527905 L26,21.1528555 Z" id="Shape"></path>
        </g>
    </g>
</svg>