<?xml version="1.0" encoding="UTF-8" standalone="no"?>
<svg width="33px" height="36px" viewBox="0 0 33 36" version="1.1" xmlns="http://www.w3.org/2000/svg" xmlns:xlink="http://www.w3.org/1999/xlink">
    <!-- Generator: Sketch 3.7.2 (28276) - http://www.bohemiancoding.com/sketch -->
    <title>Group 3</title>
    <desc>Created with Sketch.</desc>
    <defs></defs>
    <g id="Screens" stroke="none" stroke-width="1" fill="none" fill-rule="evenodd">
        <g id="03b.Sequoia-Product-Page-Copy" transform="translate(-448.000000, -662.000000)" fill="#9B9B9B">
            <g id="Features" transform="translate(170.000000, 652.000000)">
                <g id="120-nights" transform="translate(250.000000, 0.000000)">
                    <g id="Group-3" transform="translate(28.000000, 10.000000)">
                        <path d="M13.0591518,14.9631696 L13.0591518,6.34486607 L2.08370536,6.34486607 L2.08370536,14.9631696 L13.0591518,14.9631696 Z M13.0591518,2.40401786 C13.4765646,2.40401786 13.8448645,2.56361448 14.1640625,2.8828125 C14.4832605,3.20201052 14.6428571,3.57031041 14.6428571,3.98772321 L14.6428571,14.9631696 C14.6428571,15.3805824 14.4832605,15.7488823 14.1640625,16.0680804 C13.8448645,16.3872784 13.4765646,16.546875 13.0591518,16.546875 L2.08370536,16.546875 C1.64173886,16.546875 1.26730064,16.3872784 0.960379464,16.0680804 C0.653458287,15.7488823 0.5,15.3805824 0.5,14.9631696 L0.5,3.98772321 C0.5,3.57031041 0.653458287,3.20201052 0.960379464,2.8828125 C1.26730064,2.56361448 1.64173886,2.40401786 2.08370536,2.40401786 L2.85714286,2.40401786 L2.85714286,0.8203125 L4.44084821,0.8203125 L4.44084821,2.40401786 L10.7020089,2.40401786 L10.7020089,0.8203125 L12.2857143,0.8203125 L12.2857143,2.40401786 L13.0591518,2.40401786 Z M11.1439732,8.73883929 L6.46651786,13.4162946 L3.96205357,10.9118304 L4.80915179,10.0647321 L6.46651786,11.7220982 L10.296875,7.89174107 L11.1439732,8.73883929 Z" id="Event-Available---MaterialIcons-Regular"></path>
                        <path d="M31.0591518,14.9631696 L31.0591518,6.34486607 L20.0837054,6.34486607 L20.0837054,14.9631696 L31.0591518,14.9631696 Z M31.0591518,2.40401786 C31.4765646,2.40401786 31.8448645,2.56361448 32.1640625,2.8828125 C32.4832605,3.20201052 32.6428571,3.57031041 32.6428571,3.98772321 L32.6428571,14.9631696 C32.6428571,15.3805824 32.4832605,15.7488823 32.1640625,16.0680804 C31.8448645,16.3872784 31.4765646,16.546875 31.0591518,16.546875 L20.0837054,16.546875 C19.6417389,16.546875 19.2673006,16.3872784 18.9603795,16.0680804 C18.6534583,15.7488823 18.5,15.3805824 18.5,14.9631696 L18.5,3.98772321 C18.5,3.57031041 18.6534583,3.20201052 18.9603795,2.8828125 C19.2673006,2.56361448 19.6417389,2.40401786 20.0837054,2.40401786 L20.8571429,2.40401786 L20.8571429,0.8203125 L22.4408482,0.8203125 L22.4408482,2.40401786 L28.7020089,2.40401786 L28.7020089,0.8203125 L30.2857143,0.8203125 L30.2857143,2.40401786 L31.0591518,2.40401786 Z M29.1439732,8.73883929 L24.4665179,13.4162946 L21.9620536,10.9118304 L22.8091518,10.0647321 L24.4665179,11.7220982 L28.296875,7.89174107 L29.1439732,8.73883929 Z" id="Event-Available---MaterialIcons-Regular"></path>
                        <path d="M13.0591518,33.9631696 L13.0591518,25.3448661 L2.08370536,25.3448661 L2.08370536,33.9631696 L13.0591518,33.9631696 Z M13.0591518,21.4040179 C13.4765646,21.4040179 13.8448645,21.5636145 14.1640625,21.8828125 C14.4832605,22.2020105 14.6428571,22.5703104 14.6428571,22.9877232 L14.6428571,33.9631696 C14.6428571,34.3805824 14.4832605,34.7488823 14.1640625,35.0680804 C13.8448645,35.3872784 13.4765646,35.546875 13.0591518,35.546875 L2.08370536,35.546875 C1.64173886,35.546875 1.26730064,35.3872784 0.960379464,35.0680804 C0.653458287,34.7488823 0.5,34.3805824 0.5,33.9631696 L0.5,22.9877232 C0.5,22.5703104 0.653458287,22.2020105 0.960379464,21.8828125 C1.26730064,21.5636145 1.64173886,21.4040179 2.08370536,21.4040179 L2.85714286,21.4040179 L2.85714286,19.8203125 L4.44084821,19.8203125 L4.44084821,21.4040179 L10.7020089,21.4040179 L10.7020089,19.8203125 L12.2857143,19.8203125 L12.2857143,21.4040179 L13.0591518,21.4040179 Z M11.1439732,27.7388393 L6.46651786,32.4162946 L3.96205357,29.9118304 L4.80915179,29.0647321 L6.46651786,30.7220982 L10.296875,26.8917411 L11.1439732,27.7388393 Z" id="Event-Available---MaterialIcons-Regular"></path>
                        <path d="M31.0591518,33.9631696 L31.0591518,25.3448661 L20.0837054,25.3448661 L20.0837054,33.9631696 L31.0591518,33.9631696 Z M31.0591518,21.4040179 C31.4765646,21.4040179 31.8448645,21.5636145 32.1640625,21.8828125 C32.4832605,22.2020105 32.6428571,22.5703104 32.6428571,22.9877232 L32.6428571,33.9631696 C32.6428571,34.3805824 32.4832605,34.7488823 32.1640625,35.0680804 C31.8448645,35.3872784 31.4765646,35.546875 31.0591518,35.546875 L20.0837054,35.546875 C19.6417389,35.546875 19.2673006,35.3872784 18.9603795,35.0680804 C18.6534583,34.7488823 18.5,34.3805824 18.5,33.9631696 L18.5,22.9877232 C18.5,22.5703104 18.6534583,22.2020105 18.9603795,21.8828125 C19.2673006,21.5636145 19.6417389,21.4040179 20.0837054,21.4040179 L20.8571429,21.4040179 L20.8571429,19.8203125 L22.4408482,19.8203125 L22.4408482,21.4040179 L28.7020089,21.4040179 L28.7020089,19.8203125 L30.2857143,19.8203125 L30.2857143,21.4040179 L31.0591518,21.4040179 Z M29.1439732,27.7388393 L24.4665179,32.4162946 L21.9620536,29.9118304 L22.8091518,29.0647321 L24.4665179,30.7220982 L28.296875,26.8917411 L29.1439732,27.7388393 Z" id="Event-Available---MaterialIcons-Regular"></path>
                    </g>
                </g>
            </g>
        </g>
    </g>
</svg>