<?xml version="1.0" encoding="UTF-8"?>
<svg width="75px" height="75px" viewBox="0 0 75 75" version="1.1" xmlns="http://www.w3.org/2000/svg" xmlns:xlink="http://www.w3.org/1999/xlink">
    <!-- Generator: Sketch 47.1 (45422) - http://www.bohemiancoding.com/sketch -->
    <title>icon-Sleep</title>
    <desc>Created with Sketch.</desc>
    <defs>
        <polygon id="path-1" points="68.7521739 37.9990769 68.7521739 0.202153846 0.000913043478 0.202153846 0.000913043478 37.9990769"></polygon>
    </defs>
    <g id="Page-1" stroke="none" stroke-width="1" fill="none" fill-rule="evenodd">
        <g id="icon-Sleep">
            <g id="Page-1" transform="translate(2.000000, 5.000000)">
                <g id="Group-3" transform="translate(0.000000, 28.000000)">
                    <mask id="mask-2" fill="white">
                        <use xlink:href="#path-1"></use>
                    </mask>
                    <g id="Clip-2"></g>
                    <path d="M6.44091304,1.05138462 C6.44091304,0.626769231 6.09091304,0.202153846 5.60091304,0.202153846 L0.840913043,0.202153846 C0.417869565,0.202153846 0.000913043478,0.556 0.000913043478,1.05138462 L0.000913043478,37.1498462 C0.000913043478,37.5775385 0.350913043,37.9990769 0.840913043,37.9990769 L5.60091304,37.9990769 C6.02091304,37.9990769 6.44091304,37.6452308 6.44091304,37.1498462 L6.44091304,30.0729231 L62.313087,30.0729231 L62.313087,37.1498462 C62.313087,37.5775385 62.663087,37.9990769 63.153087,37.9990769 L67.913087,37.9990769 C68.3361304,37.9990769 68.753087,37.6452308 68.753087,37.1498462 L68.753087,23.6298462 L6.51091304,23.6298462 L6.50786957,1.05138462 L6.44091304,1.05138462 Z" id="Fill-1" fill="#414A59" mask="url(#mask-2)"></path>
                </g>
                <path d="M24,41.5 C24,45.6411424 20.6435521,49 16.4984475,49 C12.3564479,49 9,45.6411424 9,41.5 C9,37.3619619 12.3564479,34 16.4984475,34 C20.6435521,34 24,37.3619619 24,41.5" id="Fill-4" fill="#414A59"></path>
                <path d="M62.2335355,39.4237892 L32.0922877,33.0907695 C29.4415078,32.5462482 27,34.5230974 27,37.1066143 L27,48 L69,48 L69,47.591609 C69,43.6438295 66.2127383,40.2405712 62.2335355,39.4237892" id="Fill-6" fill="#414A59"></path>
                <path d="M14.5001975,16.9663578 C16.6860165,16.7587579 18.5897942,15.7899583 19.9294897,14.3367589 C20.0705103,14.1261503 20,13.8523591 19.7179588,13.8523591 C16.6155062,13.7801505 13.8625393,11.6379601 13.2310124,8.59015278 C12.5228438,5.47615416 14.1476461,2.43135551 16.8975473,1.1135474 C17.1090782,0.975147458 17.1090782,0.698347581 16.8975473,0.629147611 C15.346321,0.00935658144 13.5835638,-0.198243327 11.8177409,0.213947795 C6.81151049,1.25194734 3.77956811,6.37274507 5.47181502,11.2889516 C6.7410002,14.9595587 10.5485558,17.3123576 14.5001975,16.9663578 Z" id="Fill-8" fill="#414A59"></path>
                <path d="M26.1977489,6.3658191 L26.1977489,6.50707136 L25.1759688,8.48460295 C25.1029845,8.6258552 25.1759688,8.76710746 25.3219374,8.69648133 L27.5146394,8.34335069 C27.5844504,8.34335069 27.6574347,8.34335069 27.6574347,8.41704752 L29.193278,9.97082234 C29.2662623,10.0414485 29.4122309,9.97082234 29.482042,9.89712551 L29.7739791,7.70771553 C29.7739791,7.63401871 29.8469634,7.63401871 29.8469634,7.56646328 L31.8905236,6.57769748 C32.0364921,6.50707136 32.0364921,6.3658191 31.8905236,6.29826367 L29.8469634,5.3770533 C29.7739791,5.3770533 29.7739791,5.30642718 29.7739791,5.23580105 L29.4090577,3.1170172 C29.4090577,2.97576494 29.2630891,2.97576494 29.1171205,3.04639107 L27.5844504,4.60016589 C27.5114661,4.60016589 27.5114661,4.67079202 27.4384818,4.67079202 L25.1759688,4.31766138 C25.0300003,4.31766138 24.9538427,4.39135821 25.0300003,4.52953977 L26.1977489,6.3658191 Z" id="Fill-10" fill="#414A59"></path>
                <path d="M58.5158115,14.9734964 C58.5158115,14.9734964 58.5864638,15.0448891 58.5158115,15.1162819 L57.8092887,17.1866719 C57.7386364,17.3263534 57.879941,17.4008502 58.0212455,17.4008502 L60.0701618,16.6869226 L60.2114664,16.6869226 L61.9071213,17.9719923 C61.9777736,18.043385 62.1190782,17.9719923 62.1866586,17.8292068 L62.1160063,15.6160312 C62.1160063,15.5415344 62.1160063,15.5415344 62.1866586,15.4732457 L63.9560376,14.185072 C64.0236181,14.1136792 64.0236181,13.9708937 63.8823135,13.902605 L61.7627449,13.2600702 C61.6890208,13.2600702 61.6890208,13.1886774 61.6890208,13.1886774 L61.056222,11.1182874 C60.9824979,10.9755019 60.8411933,10.9755019 60.7736129,11.0468946 L59.5018717,12.9031064 C59.5018717,12.9776032 59.4281476,12.9776032 59.3605671,12.9776032 L57.1703463,12.9776032 C57.0290417,12.9776032 56.9553176,13.1172847 57.0290417,13.1917814 L58.5158115,14.9734964 Z" id="Fill-12" fill="#414A59"></path>
                <path d="M35.0994744,19.7222719 L37.1482352,20.6271415 C37.1482352,20.6271415 37.2212918,20.6997732 37.2212918,20.7663522 L37.6596313,22.854513 C37.6596313,22.9937237 37.8788011,23.063329 37.9518577,22.9241183 L39.486046,21.3231951 C39.562279,21.2535897 39.562279,21.2535897 39.6321592,21.2535897 L41.8238569,21.5320112 C41.96997,21.5320112 42.046203,21.3928005 41.96997,21.3201688 L40.8741212,19.4408241 L40.8741212,19.3046397 L41.8969134,17.3526634 C41.96997,17.2134526 41.8238569,17.1438473 41.7508003,17.1438473 L39.5591026,17.5614794 C39.4828697,17.5614794 39.4828697,17.5614794 39.4129894,17.4918741 L37.8057445,16.0301616 C37.7326879,15.9575299 37.5865747,16.0301616 37.5135181,16.0997669 L37.2943484,18.257533 C37.2943484,18.3301647 37.2212918,18.3301647 37.2212918,18.3967437 L35.172531,19.4408241 C34.9565376,19.5134558 34.9565376,19.6556928 35.0994744,19.7222719" id="Fill-14" fill="#414A59"></path>
                <path d="M43.1492869,8.20402917 L45.2814218,8.77030174 C45.3524929,8.77030174 45.3524929,8.84416338 45.3524929,8.84416338 L46.0632045,10.8938239 C46.1373658,11.035392 46.2795081,11.035392 46.3474892,10.8938239 L47.5556989,9.05343803 C47.5556989,8.97957639 47.6267701,8.97957639 47.6978413,8.97957639 L49.8299761,8.90879232 C49.9721184,8.90879232 50.0431896,8.76722417 49.9721184,8.62565603 L48.5506952,6.92991588 C48.479624,6.85605424 48.479624,6.85605424 48.5506952,6.78834773 L49.1903357,4.66482558 C49.2614068,4.52325744 49.1161744,4.45247336 48.9740321,4.45247336 L46.9129684,5.23109815 L46.7739162,5.23109815 L44.9971371,4.02776893 C44.9229759,3.95698486 44.7808336,4.02776893 44.7808336,4.16933708 L44.9229759,6.3636433 C44.9229759,6.43750494 44.9229759,6.43750494 44.8519047,6.50521144 L43.0751257,7.85010881 C42.9360734,7.99167695 43.0071446,8.13324509 43.1492869,8.20402917" id="Fill-16" fill="#414A59"></path>
            </g>
        </g>
    </g>
</svg>