<?xml version="1.0" encoding="UTF-8"?>
<svg width="90px" height="90px" viewBox="0 0 90 90" version="1.1" xmlns="http://www.w3.org/2000/svg" xmlns:xlink="http://www.w3.org/1999/xlink">
    <!-- Generator: Sketch 53.2 (72643) - https://sketchapp.com -->
    <title>iconv2-5yearwarranty</title>
    <desc>Created with Sketch.</desc>
    <g id="iconv2-5yearwarranty" stroke="none" stroke-width="1" fill="none" fill-rule="evenodd">
        <g fill="#556774" fill-rule="nonzero">
            <path d="M45,81.8735294 C30.0848463,81.878883 16.6353579,72.8983311 10.9238657,59.1200621 C5.21237357,45.3417931 8.36384847,29.4796603 18.9085622,18.9311603 C29.4532759,8.38266033 45.3142763,5.2254911 59.0945948,10.9320365 C72.8749134,16.6385819 81.8602932,30.0848453 81.8602941,45 C81.838425,65.3504568 65.3504476,81.8443544 45,81.8735294 Z M45,10.4029412 C30.9936816,10.4029453 18.367015,18.8415644 13.0095052,31.7827407 C7.65199537,44.723917 10.6190924,59.6181889 20.5268418,69.5183636 C30.4345912,79.4185382 45.3311281,82.374243 58.2682031,77.0068371 C71.2052781,71.6394313 79.6342376,59.0063143 79.6235294,45 C79.5943761,25.8900414 64.1099586,10.4056239 45,10.3764706 L45,10.4029412 Z" id="Shape"></path>
            <path d="M89.4176471,43.4514706 C89.5689284,43.328314 89.6567371,43.1436027 89.6567371,42.9485294 C89.6567371,42.7534561 89.5689284,42.5687449 89.4176471,42.4455882 L85.9102941,39.9308824 C85.7676302,39.8303186 85.6726262,39.6754874 85.6475913,39.5027468 C85.6225564,39.3300062 85.6696962,39.1545744 85.7779412,39.0176471 L88.5573529,35.5632353 C88.6819714,35.411159 88.7291543,35.2099521 88.685133,35.0183299 C88.6411117,34.8267077 88.5108473,34.6662658 88.3323529,34.5838235 L84.2823529,32.7308824 C84.1238932,32.6542744 84.0033758,32.5165514 83.948467,32.3493291 C83.8935582,32.1821068 83.9089744,31.9997489 83.9911765,31.8441176 L86.0294118,27.9794118 C86.1208168,27.8082704 86.1290051,27.6047419 86.0516438,27.4268109 C85.9742825,27.2488798 85.8198534,27.1160545 85.6323529,27.0661765 L81.45,25.9808824 C81.2796952,25.9353981 81.1359444,25.8211993 81.0531222,25.6655939 C80.9702999,25.5099885 80.9558528,25.3269669 81.0132353,25.1602941 L82.4426471,20.9514706 C82.504376,20.7656409 82.4769606,20.5617282 82.3683425,20.3988011 C82.2597244,20.2358739 82.0820417,20.1321395 81.8867647,20.1176471 L77.5323529,19.7735294 C77.3558682,19.7607443 77.192712,19.6749335 77.0821739,19.5367609 C76.9716358,19.3985883 76.9237327,19.220575 76.95,19.0455882 L77.625,14.6779412 C77.6544212,14.484451 77.5930174,14.2882 77.4585595,14.1459849 C77.3241016,14.0037698 77.1315994,13.9314664 76.9367647,13.95 L72.5691176,14.3735294 C72.3948445,14.3880973 72.2220741,14.3316653 72.0900007,14.2170356 C71.9579273,14.1024058 71.8777462,13.939295 71.8676471,13.7647059 L71.7088235,9.26470588 C71.7052233,9.06889083 71.609616,8.88620502 71.4507773,8.77163287 C71.2919387,8.65706073 71.088418,8.6239821 70.9014706,8.68235294 L66.6,10.0058824 C66.4295958,10.0538948 66.2469706,10.0301564 66.0945034,9.94017569 C65.9420361,9.85019501 65.8329818,9.70179476 65.7926471,9.52941176 L64.8529412,5.20147059 C64.8117476,5.01054887 64.6850223,4.84918713 64.5093057,4.7639129 C64.3335891,4.67863867 64.128414,4.67893111 63.9529412,4.76470588 L59.9823529,6.69705882 C59.8236705,6.77643589 59.6390237,6.78583705 59.4730998,6.7229871 C59.3071759,6.66013714 59.1750954,6.5307635 59.1088235,6.36617647 L57.4676471,2.23676471 C57.3923133,2.05613006 57.2379269,1.92030028 57.0491687,1.86858571 C56.8604105,1.81687113 56.658352,1.85504477 56.5014706,1.97205882 L52.9808824,4.61911765 C52.8403316,4.7275819 52.6601334,4.77082353 52.485667,4.73795304 C52.3112005,4.70508255 52.1590921,4.59923243 52.0676471,4.44705882 L49.7117647,0.714705882 C49.6082125,0.549806513 49.4347578,0.441502419 49.2411388,0.420849721 C49.0475197,0.400197023 48.8551228,0.469476948 48.7191176,0.608823529 L45.5691176,3.97058824 C45.4490294,4.09854339 45.2813637,4.17112762 45.1058824,4.17112762 C44.930401,4.17112762 44.7627353,4.09854339 44.6426471,3.97058824 L41.6117647,0.727941176 C41.4776324,0.587306092 41.286507,0.5158024 41.0930037,0.533862708 C40.8995003,0.551923017 40.7249081,0.65756036 40.6191176,0.820588235 L38.2764706,4.5 C38.1823671,4.65291296 38.0279525,4.75886547 37.8514219,4.79164971 C37.6748914,4.82443396 37.4927314,4.78098816 37.35,4.67205882 L33.8294118,2.025 C33.6725304,1.90798594 33.4704719,1.86981231 33.2817137,1.92152688 C33.0929555,1.97324146 32.9385691,2.10907123 32.8632353,2.28970588 L31.1823529,6.40588235 C31.1160811,6.57046939 30.9840005,6.69984302 30.8180767,6.76269298 C30.6521528,6.82554293 30.467506,6.81614177 30.3088235,6.73676471 L26.3382353,4.80441176 C26.1627625,4.71863699 25.9575874,4.71834456 25.7818708,4.80361878 C25.6061542,4.88889301 25.4794289,5.05025476 25.4382353,5.24117647 L24.5117647,9.52941176 C24.4714299,9.70179476 24.3623757,9.85019501 24.2099084,9.94017569 C24.0574411,10.0301564 23.874816,10.0538948 23.7044118,10.0058824 L19.4029412,8.68235294 C19.2159937,8.6239821 19.0124731,8.65706073 18.8536344,8.77163287 C18.6947958,8.88620502 18.5991885,9.06889083 18.5955882,9.26470588 L18.4235294,13.7514706 C18.4134302,13.9260597 18.3332491,14.0891705 18.2011757,14.2038003 C18.0691023,14.3184301 17.896332,14.374862 17.7220588,14.3602941 L13.3544118,13.9367647 C13.1595771,13.9182312 12.9670748,13.9905345 12.832617,14.1327496 C12.6981591,14.2749647 12.6367553,14.4712157 12.6661765,14.6647059 L13.3411765,19.0323529 C13.3674438,19.2073397 13.3195406,19.385353 13.2090025,19.5235256 C13.0984645,19.6616982 12.9353083,19.747509 12.7588235,19.7602941 L8.29852941,20.1044118 C8.10092514,20.1135639 7.91945403,20.2161554 7.8097254,20.3807483 C7.69999677,20.5453413 7.67509358,20.7523113 7.74264706,20.9382353 L9.26470588,25.1470588 C9.3176513,25.3155772 9.2995674,25.4984007 9.21463316,25.6532808 C9.12969892,25.8081609 8.98526404,25.9216952 8.81470588,25.9676471 L4.53970588,27.0529412 C4.34595977,27.0984705 4.18474702,27.2321641 4.10415707,27.4141414 C4.02356712,27.5961187 4.03291482,27.8053462 4.12941176,27.9794118 L6.23382353,31.8308824 C6.31602565,31.9865136 6.33144178,32.1688715 6.27653297,32.3360938 C6.22162416,32.5033161 6.10110681,32.6410391 5.94264706,32.7176471 L1.89264706,34.5705882 C1.71415273,34.6530305 1.5838883,34.8134724 1.53986699,35.0050946 C1.49584567,35.1967169 1.5430286,35.3979237 1.66764706,35.55 L4.43382353,38.9911765 C4.54651679,39.1288122 4.59634292,39.3073908 4.57118607,39.4834888 C4.54602922,39.6595867 4.44819412,39.8170709 4.30147059,39.9176471 L0.701470588,42.4323529 C0.54560013,42.5526429 0.454311484,42.7384051 0.454311484,42.9352941 C0.454311484,43.1321831 0.54560013,43.3179453 0.701470588,43.4382353 L3.97058824,46.3235294 C4.09785122,46.4412675 4.17020475,46.6067743 4.17020475,46.7801471 C4.17020475,46.9535198 4.09785122,47.1190267 3.97058824,47.2367647 L1.05882353,50.4397059 C0.928218993,50.5810337 0.868712378,50.7739432 0.897006637,50.9642864 C0.925300897,51.1546296 1.0383462,51.3218894 1.20441176,51.4191176 L5.00294118,53.6161765 C5.15439353,53.7038555 5.26297045,53.8501263 5.30305261,54.0204755 C5.34313477,54.1908247 5.31117193,54.3701637 5.21470588,54.5161765 L2.76617647,58.2352941 C2.65685985,58.3985659 2.62924445,58.6032327 2.69137961,58.7896382 C2.75351477,58.9760437 2.89840719,59.1232079 3.08382353,59.1882353 L7.2,60.6970588 C7.36569498,60.7588772 7.49895751,60.8856814 7.56892406,61.0481038 C7.6388906,61.2105261 7.63949174,61.3944768 7.57058824,61.5573529 L5.79705882,65.5941176 C5.72183198,65.7743381 5.73182295,65.9788627 5.82425713,66.150893 C5.91669131,66.3229233 6.08172598,66.4441408 6.27352941,66.4808824 L10.6544118,67.2352941 C10.8296781,67.2628056 10.9848582,67.3638439 11.080923,67.5129972 C11.1769879,67.6621505 11.2047958,67.8452252 11.1573529,68.0161765 L10.0720588,72.2911765 C10.0268165,72.4830286 10.0731911,72.6850133 10.1975876,72.8379173 C10.321984,72.9908212 10.5103088,73.0773211 10.7073529,73.0720588 L15.1411765,72.9926471 C15.3190642,72.9885893 15.4905004,73.0593186 15.6137777,73.1876276 C15.737055,73.3159366 15.800873,73.4900639 15.7897059,73.6676471 L15.5382353,78.0882353 C15.5308297,78.2853007 15.613492,78.4750295 15.7628567,78.6037921 C15.9122214,78.7325547 16.1120589,78.7863603 16.3058824,78.75 L20.6735294,77.9029412 C20.8483726,77.8685217 21.0296335,77.9091173 21.1730935,78.0148247 C21.3165536,78.1205322 21.409022,78.2816318 21.4279412,78.4588235 L21.9308824,82.8132353 C21.9544028,83.0079586 22.0665484,83.1809001 22.234736,83.2818126 C22.4029235,83.3827251 22.6082933,83.4002929 22.7911765,83.3294118 L26.9205882,81.7411765 C27.0775823,81.6610706 27.260799,81.6497847 27.4264377,81.7100169 C27.5920763,81.7702492 27.7252486,81.8965856 27.7941176,82.0588235 L29.1176471,86.2808824 C29.1787344,86.4628161 29.3187916,86.6073845 29.498698,86.6742068 C29.6786044,86.7410292 29.8790761,86.722943 30.0441176,86.625 L33.8426471,84.3485294 C33.9941946,84.2605839 34.1753359,84.2391339 34.3432324,84.2892522 C34.5111289,84.3393706 34.6508714,84.4566068 34.7294118,84.6132353 L36.7544118,88.5838235 C36.843679,88.7605784 37.0102597,88.8856011 37.2049149,88.9219368 C37.3995702,88.9582724 37.6000364,88.9017651 37.7470588,88.7691176 L41.0294118,85.8176471 C41.163481,85.704484 41.3376787,85.6504676 41.5122516,85.6679249 C41.6868245,85.6853822 41.8468764,85.7728235 41.9558824,85.9102941 L44.6029412,89.3382353 C44.7232312,89.4941058 44.9089934,89.5853944 45.1058824,89.5853944 C45.3027714,89.5853944 45.4885336,89.4941058 45.6088235,89.3382353 L48.2558824,85.9102941 C48.3648883,85.7728235 48.5249402,85.6853822 48.6995131,85.6679249 C48.874086,85.6504676 49.0482837,85.704484 49.1823529,85.8176471 L52.4514706,88.7558824 C52.598493,88.8885298 52.7989592,88.9450371 52.9936145,88.9087015 C53.1882697,88.8723658 53.3548504,88.7473431 53.4441176,88.5705882 L55.4558824,84.6 C55.5371169,84.4425136 55.6792557,84.3251267 55.8492585,84.2751259 C56.0192612,84.2251251 56.2023199,84.2468657 56.3558824,84.3352941 L60.1411765,86.6117647 C60.3082373,86.7096992 60.5103222,86.7278542 60.6921635,86.6612644 C60.8740049,86.5946746 61.0165748,86.450308 61.0808824,86.2676471 L62.4044118,82.0455882 C62.4547225,81.8769005 62.5741478,81.7374262 62.7330788,81.6617448 C62.8920097,81.5860634 63.0755647,81.5812614 63.2382353,81.6485294 L67.3544118,83.2367647 C67.5372949,83.3076459 67.7426647,83.2900781 67.9108523,83.1891655 C68.0790398,83.088253 68.1911854,82.9153116 68.2147059,82.7205882 L68.8235294,78.3926471 C68.8461858,78.2171585 68.939563,78.0585472 69.0820136,77.9535836 C69.2244642,77.84862 69.4036176,77.8064192 69.5779412,77.8367647 L73.9588235,78.6838235 C74.15149,78.7209641 74.3505076,78.6669931 74.498013,78.5376024 C74.6455184,78.4082117 74.724958,78.217922 74.7132353,78.0220588 L74.4617647,73.6676471 C74.4505976,73.4900639 74.5144156,73.3159366 74.6376929,73.1876276 C74.7609701,73.0593186 74.9324064,72.9885893 75.1102941,72.9926471 L79.5705882,73.0852941 C79.7687626,73.0863085 79.9565239,72.9966565 80.0803241,72.8419063 C80.2041242,72.6871561 80.2503737,72.4842946 80.2058824,72.2911765 L79.2,68.0161765 C79.1568414,67.8454657 79.1864696,67.6644996 79.281814,67.5164649 C79.3771583,67.3684302 79.5296658,67.2666067 79.7029412,67.2352941 L84.0970588,66.4808824 C84.2888623,66.4441408 84.4538969,66.3229233 84.5463311,66.150893 C84.6387653,65.9788627 84.6487563,65.7743381 84.5735294,65.5941176 L82.8,61.5573529 C82.7310965,61.3944768 82.7316976,61.2105261 82.8016642,61.0481038 C82.8716307,60.8856814 83.0048933,60.7588772 83.1705882,60.6970588 L87.2867647,59.1882353 C87.4698932,59.1203238 87.611605,58.9719504 87.6710386,58.7858975 C87.7304721,58.5998447 87.7010207,58.3967941 87.5911765,58.2352941 L85.05,54.5161765 C84.953534,54.3701637 84.9215711,54.1908247 84.9616533,54.0204755 C85.0017354,53.8501263 85.1103124,53.7038555 85.2617647,53.6161765 L89.0205882,51.4323529 C89.1956944,51.3396013 89.3161353,51.1689738 89.3448902,50.9729172 C89.3736452,50.7768607 89.3072736,50.578834 89.1661765,50.4397059 L86.0294118,47.2367647 C85.9014566,47.1166765 85.8288724,46.9490108 85.8288724,46.7735294 C85.8288724,46.5980481 85.9014566,46.4303824 86.0294118,46.3102941 L89.4176471,43.4514706 Z M45,83.6735294 C23.6411995,83.6735294 6.32647059,66.3588005 6.32647059,45 C6.32647059,23.6411995 23.6411995,6.32647059 45,6.32647059 C66.3588005,6.32647059 83.6735294,23.6411995 83.6735294,45 C83.6443672,66.3467095 66.3467095,83.6443672 45,83.6735294 Z" id="Shape"></path>
            <path d="M54.7224477,31.4928437 L42.9758314,31.4928437 L42.8410341,37.2698682 C43.3157492,37.1161121 43.8070121,37.0191523 44.304547,36.9810169 C44.9015062,36.9810169 45.4599519,36.9810169 45.9798841,36.9810169 C47.2929016,36.982209 48.5958439,37.2102239 49.8312337,37.6550031 C50.9751711,38.0759282 52.0181969,38.7319193 52.8930566,39.5806779 C53.7289911,40.4582031 54.3834016,41.4921717 54.8187314,42.6232441 C55.8447366,45.2747472 55.8447366,48.2136292 54.8187314,50.8651323 C54.3086078,52.0710792 53.5470625,53.1543117 52.5849487,54.0424957 C51.5985602,54.8988465 50.4535788,55.5531217 49.2150178,55.9681705 C47.8790404,56.4379973 46.4716988,56.6725543 45.0555602,56.6614135 C42.9948717,56.7374742 40.9578294,56.2014104 39.2015088,55.1208736 C37.4795295,53.8996651 36.2502993,52.1036232 35.7352941,50.0563489 L40.9346161,48.6506063 C41.2229642,49.6318655 41.808241,50.4996898 42.6099532,51.1347268 C43.5169297,51.7666855 44.6057645,52.0845441 45.7102896,52.0397939 C46.4071937,52.0419532 47.0987382,51.9179971 47.7515049,51.6739157 C48.3530384,51.4267599 48.9020049,51.0673176 49.3690717,50.6147946 C50.287686,49.6567656 50.7985649,48.3795684 50.7940711,47.0522962 C50.8176832,46.153628 50.6262183,45.262326 50.2356254,44.4526352 C49.8739697,43.7566156 49.352656,43.156115 48.7143423,42.7002711 C48.0612254,42.2032445 47.3145879,41.8430246 46.519073,41.64115 C45.6688479,41.4299498 44.7954512,41.3264362 43.919412,41.333042 C42.8438003,41.3394485 41.7720333,41.4621206 40.7227919,41.6989202 C39.7164627,41.9315147 38.7406366,42.2804857 37.8150229,42.7387846 L38.1038741,26.9867647 L54.7224477,26.9867647 L54.7224477,31.4928437 Z" id="Path"></path>
            <path d="M65.2632353,25.2264706 C65.1356675,25.2288666 65.0122016,25.1813797 64.9191176,25.0941176 C53.7128251,14.6445431 36.3254926,14.6676876 25.1470588,25.1470588 C24.9518202,25.3370279 24.6408269,25.3370279 24.4455882,25.1470588 C24.3509904,25.0548831 24.2976375,24.9284035 24.2976375,24.7963235 C24.2976375,24.6642436 24.3509904,24.537764 24.4455882,24.4455882 C36.0381917,13.6128377 54.0412201,13.6128377 65.6338235,24.4455882 C65.7284213,24.537764 65.7817742,24.6642436 65.7817742,24.7963235 C65.7817742,24.9284035 65.7284213,25.0548831 65.6338235,25.1470588 C65.5265891,25.223634 65.3924311,25.2523821 65.2632353,25.2264706 L65.2632353,25.2264706 Z" id="Path"></path>
            <polygon id="Path" points="29.8720588 66.0441176 29.8720588 60.8955882 31.5926471 62.0073529 31.4073529 65.2367647 34.3455882 63.7808824 36 64.8397059 31.3014706 66.9308824 29.5676471 69.5779412 28.2441176 68.6779412"></polygon>
            <polygon id="Path" points="37.3367647 65.2102941 42.3529412 66.3088235 42.0352941 67.8044118 38.6735294 67.0632353 38.3691176 68.3867647 41.5455882 69.0882353 41.2147059 70.5705882 38.0382353 69.8823529 37.6544118 71.4705882 41.2014706 72.2514706 40.8705882 73.7470588 35.7352941 72.5426471"></polygon>
            <path d="M46.9588235,66.1764706 L48.2823529,65.9779412 L52.6632353,72.7941176 L50.8235294,73.0720588 L49.95,71.6029412 L47.0647059,72.0397059 L46.6941176,73.7073529 L44.8941176,73.9852941 L46.9588235,66.1764706 Z M47.925,68.2411765 L47.3691176,70.6764706 L49.1823529,70.3985294 L47.925,68.2411765 Z" id="Shape"></path>
            <path d="M52.9411765,64.6808824 L55.4426471,63.2117647 C56.7661765,62.4308824 58.0897059,62.2323529 59.0294118,63.7411765 C59.6404888,64.5737198 59.4889239,65.7396038 58.6852941,66.3882353 L61.9279412,68.1485294 L60.2205882,69.1544118 L57.3485294,67.3676471 L56.6470588,67.7779412 L58.1691176,70.3588235 L56.7397059,71.2058824 L52.9411765,64.6808824 Z M55.9323529,66.5205882 L56.7794118,66.0308824 C57.2955882,65.7264706 57.9705882,65.3029412 57.5470588,64.6014706 C57.1235294,63.9 56.5279412,64.2044118 56.0117647,64.5088235 L55.0720588,65.0514706 L55.9323529,66.5205882 Z" id="Shape"></path>
            <path d="M26.3382353,63.1588235 C26.2213248,63.159433 26.1082707,63.1170378 26.0205882,63.0397059 C23.5262815,60.9178096 21.4367067,58.3618919 19.8529412,55.4955882 C19.7340333,55.337997 19.7183202,55.125413 19.8127656,54.9520518 C19.9072111,54.7786905 20.0943468,54.6766165 20.2912356,54.6910681 C20.4881245,54.7055198 20.6583504,54.8338241 20.7264706,55.0191176 C22.2453158,57.7811364 24.254582,60.2433845 26.6558824,62.2852941 C26.7504802,62.3774699 26.8038331,62.5039495 26.8038331,62.6360294 C26.8038331,62.7681094 26.7504802,62.894589 26.6558824,62.9867647 C26.577648,63.0847417 26.4630393,63.1468213 26.3382353,63.1588235 L26.3382353,63.1588235 Z" id="Path"></path>
            <path d="M63.6088235,63.1985294 C63.4653073,63.201695 63.3284325,63.1381459 63.2382353,63.0264706 C63.1436375,62.9342948 63.0902846,62.8078152 63.0902846,62.6757353 C63.0902846,62.5436554 63.1436375,62.4171757 63.2382353,62.325 C65.5476177,60.3687464 67.5000989,58.0266647 69.0088235,55.4029412 C69.0723,55.287147 69.1809849,55.2028887 69.3089447,55.1702716 C69.4369044,55.1376544 69.5726618,55.1596038 69.6838235,55.2308824 C69.7989813,55.2948008 69.8835375,55.4024116 69.9184027,55.5294206 C69.9532679,55.6564296 69.9355027,55.7921287 69.8691176,55.9058824 C68.3009748,58.6223228 66.2773677,61.0488606 63.8867647,63.0794118 C63.8085303,63.1466888 63.7114962,63.1882748 63.6088235,63.1985294 L63.6088235,63.1985294 Z" id="Path"></path>
        </g>
    </g>
</svg>