<?xml version="1.0" encoding="UTF-8"?>
<svg width="75px" height="75px" viewBox="0 0 75 75" version="1.1" xmlns="http://www.w3.org/2000/svg" xmlns:xlink="http://www.w3.org/1999/xlink">
    <!-- Generator: Sketch 46.2 (44496) - http://www.bohemiancoding.com/sketch -->
    <title>icon-25YearWarranty</title>
    <desc>Created with Sketch.</desc>
    <defs>
        <polygon id="path-1" points="0.82225 22 22.2189583 22 22.2189583 11.3520957 22.2189583 0.704191304 0.82225 0.704191304"></polygon>
        <polygon id="path-3" points="0.00047826087 22 21.3557826 22 21.3557826 0.704191304 0.00047826087 0.704191304"></polygon>
    </defs>
    <g id="Page-1" stroke="none" stroke-width="1" fill="none" fill-rule="evenodd">
        <g id="icon-25YearWarranty">
            <g>
                <rect id="Rectangle-Copy-6" x="0" y="0" width="75" height="75"></rect>
                <g id="Group-3" transform="translate(49.000000, 53.000000)">
                    <g id="Fill-1-Clipped">
                        <mask id="mask-2" fill="white">
                            <use xlink:href="#path-1"></use>
                        </mask>
                        <g id="path-1"></g>
                        <path d="M0.82225,9.75671304 L9.73858333,22.0001913 L11.9034583,11.8754087 L22.2189583,12.9476696 L13.3055,0.704191304 C12.2743333,3.19975652 10.5694583,5.37966957 8.349,6.99332174 C6.13141667,8.60314783 3.51325,9.54436522 0.82225,9.75671304 Z" id="Fill-1" fill="#414A59" fill-rule="nonzero" mask="url(#mask-2)"></path>
                    </g>
                </g>
                <g id="Group-6" transform="translate(4.000000, 53.000000)">
                    <g id="Fill-4-Clipped">
                        <mask id="mask-4" fill="white">
                            <use xlink:href="#path-3"></use>
                        </mask>
                        <g id="path-3"></g>
                        <path d="M21.3557826,9.75671304 L12.4601304,22.0001913 L10.2955217,11.8754087 L0.00047826087,12.9476696 L8.89613043,0.704191304 C9.92534783,3.19975652 11.627,5.37966957 13.8432609,6.99332174 C16.0604783,8.60314783 18.6698696,9.54436522 21.3557826,9.75671304 Z" id="Fill-4" fill="#414A59" fill-rule="nonzero" mask="url(#mask-4)"></path>
                    </g>
                </g>
                <path d="M59.9374105,16.040436 C59.8692866,12.795451 58.306222,9.69546675 55.6077593,7.72990049 C52.912135,5.7681251 49.4841791,5.23550782 46.3807577,6.17374822 C44.4212499,3.58174064 41.3405365,2 37.9996277,2 C34.6587189,2 31.5770593,3.58174064 29.6213362,6.17090507 C26.5207533,5.23171695 23.0927973,5.7681251 20.3943346,7.72990049 C17.6958719,9.69546675 16.1328072,12.7888169 16.068468,16.0375928 C13.0000548,17.0990365 10.5447565,19.5488864 9.51343656,22.7332175 C8.48211666,25.9071237 9.03656938,29.3369136 10.8882144,32.0018954 C9.03656938,34.6659296 8.48495516,38.0957195 9.51627506,41.2705734 C10.547595,44.4511136 13.0028933,46.8971726 16.068468,47.9661981 C16.1328072,51.2111831 17.6958719,54.3073764 20.3943346,56.2729427 C23.0927973,58.2347181 26.5207533,58.7711262 29.6213362,57.8290949 C31.580844,60.4182594 34.6587189,62 37.9996277,62 C41.3395903,62 44.4212499,60.4182594 46.376973,57.8290949 C49.4813406,58.7682831 52.9092965,58.2347181 55.6039746,56.2729427 C58.3024373,54.3073764 59.8664481,51.2111831 59.9336259,47.9661981 C62.995416,46.9038067 65.4507143,44.4511136 66.4858188,41.2705734 C67.5133541,38.0966672 66.962686,34.6659296 65.1138795,32.0018954 C66.9655245,29.3378613 67.5171387,25.9071237 66.4858188,22.7332175 C65.4544989,19.5488864 62.9992006,17.0999842 59.9374105,16.040436 Z" id="Fill-7" fill="#FFFFFF" fill-rule="nonzero"></path>
                <path d="M56.7767101,18.4642753 C59.8454722,18.788522 62.5878305,20.8720201 63.6028898,24.0019938 C64.6188925,27.1291315 63.6227004,30.4311545 61.3293833,32.498582 C63.618927,34.5688455 64.6188925,37.8680325 63.6028898,40.9951702 C62.5878305,44.122308 59.8454722,46.2124233 56.7767101,46.53667 C57.4172541,49.5598219 56.2880478,52.812688 53.6305923,54.7477699 C50.9750235,56.6819065 47.5308027,56.7537512 44.8629702,55.2109795 C43.6092398,58.029941 40.7819788,60 37.5000166,60 C34.2180543,60 31.3917367,58.0337223 30.137063,55.2109795 C27.465457,56.7537512 24.0287831,56.6819065 21.3703843,54.7477699 C18.7119854,52.812688 17.5837224,49.5560406 18.2204929,46.53667 C15.1545609,46.2124233 12.4122027,44.1289253 11.3971434,40.9951702 C10.382084,37.8651965 11.3773327,34.5660095 13.6706499,32.498582 C11.3745026,30.4283185 10.382084,27.1291315 11.3971434,24.0019938 C12.4122027,20.8720201 15.1545609,18.788522 18.2204929,18.4642753 C17.579949,15.4411234 18.7082119,12.184476 21.3666108,10.2493941 C24.0221796,8.31525756 27.462627,8.2434128 30.1332896,9.7899658 C31.3879633,6.96344167 34.2142809,5 37.4971865,5 C40.7791488,5 43.6054664,6.96722298 44.8601401,9.7899658 C47.5308027,8.2434128 50.9684199,8.31809354 53.6268188,10.2493941 C56.2880478,12.1806947 57.4134806,15.4411234 56.7767101,18.4642753" id="Fill-9" fill="#414A59" fill-rule="nonzero"></path>
                <path d="M46.7778846,61.0871979 C44.3553957,63.5744864 41.0166482,65 37.4986327,65 C33.9815658,65 30.6418697,63.5744864 28.2222263,61.0871979 C24.8047527,61.6665206 21.2611275,60.8630665 18.4231921,58.7955495 C15.5776687,56.7251834 13.7185934,53.6063382 13.2139872,50.1712399 C10.1057271,48.6317612 7.71928147,45.8965986 6.63703406,42.5469741 C5.55099262,39.2096958 5.87917632,35.5770579 7.48500004,32.5037988 C5.87538229,29.4267409 5.54719859,25.794103 6.63324003,22.4568248 C7.71928147,19.1100494 10.1057271,16.3691885 13.2111417,14.832559 C13.7147993,11.3974606 15.5748232,8.27861547 18.4193981,6.20824932 C21.258282,4.14453114 24.8057012,3.33347944 28.2222263,3.91280208 C30.6409212,1.42551357 33.9806172,0 37.4986327,0 C41.0204422,0 44.3591897,1.42551357 46.7778846,3.91280208 C50.1915642,3.33347944 53.7389835,4.1407323 56.5750218,6.20824932 C59.4195967,8.27861547 61.2796206,11.3974606 61.7832782,14.832559 C64.8915383,16.3720376 67.281778,19.1100494 68.3678194,22.4568248 C69.4538609,25.794103 69.1190376,29.4267409 67.5160594,32.5 C69.1218831,35.5732591 69.4538609,39.2068467 68.3678194,42.5431752 C67.281778,45.8937495 64.8915383,48.6317612 61.7832782,50.167441 C61.2796206,53.6025394 59.4195967,56.7242337 56.5750218,58.7917507 C53.739932,60.8592677 50.1925128,61.6665206 46.7778846,61.0871979 M59.4907348,16.5068964 C59.4224423,13.2541422 57.8545589,10.148593 55.1494146,8.178896 C52.4480643,6.21299787 49.0116205,5.67831156 45.8995664,6.61947342 C43.9361552,4.02201864 40.8478138,2.43600421 37.4986327,2.43600421 C34.1494516,2.43600421 31.0601617,4.02201864 29.099596,6.6166243 C25.9913359,5.67546244 22.5548921,6.21299787 19.8497479,8.178896 C17.1446036,10.148593 15.5776687,13.2474942 15.5122217,16.5030975 C12.4362108,17.5677216 9.97483305,20.02272 8.94095953,23.2127933 C7.90708602,26.3933696 8.4629116,29.831317 10.3200899,32.5009497 C8.4629116,35.1705824 7.91088005,38.6085299 8.94475357,41.7891061 C9.97862708,44.9763303 12.4400048,47.4284796 15.5122217,48.4988019 C15.5776687,51.7515561 17.1446036,54.8542562 19.8497479,56.8230034 C22.5548921,58.7898513 25.9913359,59.3273867 29.099596,58.382426 C31.0639557,60.9779814 34.1494516,62.5630461 37.4986327,62.5630461 C40.8468653,62.5630461 43.9361552,60.9779814 45.8967209,58.382426 C49.0078265,59.3235879 52.4452188,58.7898513 55.1465691,56.8230034 C57.8517133,54.8542562 59.4186482,51.7515561 59.4869408,48.4988019 C62.5563121,47.4351276 65.0176898,44.9763303 66.0553574,41.7891061 C67.0854369,38.6085299 66.5324568,35.1715321 64.6800211,32.5009497 C66.5362508,29.831317 67.0892309,26.3943193 66.0553574,23.2127933 C65.0205354,20.02272 62.5601061,17.5677216 59.4907348,16.5068964" id="Fill-11" fill="#454D5B" fill-rule="nonzero"></path>
                <path d="M23,31.8043748 L30.2363189,25.2857001 C30.6056531,24.9520857 30.9740476,24.5732355 31.342442,24.1510342 C31.7108364,23.7288329 31.8950336,23.236893 31.8950336,22.6733297 C31.8950336,22.0400278 31.6666667,21.5433758 31.2108726,21.1824314 C30.7541387,20.8224294 30.2194029,20.641486 29.6057254,20.641486 C28.8689366,20.641486 28.2937902,20.8704925 27.8821658,21.3275631 C27.4686619,21.7855761 27.2374756,22.348197 27.183908,23.0163682 L23.236825,22.7261049 C23.2894528,21.7591885 23.490566,20.9185556 23.8420444,20.206091 C24.192583,19.4936263 24.6577749,18.8999058 25.2366804,18.4249293 C25.8155859,17.9499529 26.4950481,17.5937205 27.2769464,17.3562323 C28.0569652,17.1187441 28.9027687,17 29.8162365,17 C30.6582809,17 31.4476975,17.1187441 32.1844864,17.3562323 C32.9212752,17.5937205 33.5612665,17.9452408 34.1054001,18.4117355 C34.6495337,18.8782302 35.074315,19.4634691 35.3816237,20.1665096 C35.6889323,20.8704925 35.8421167,21.6885075 35.8421167,22.6205545 C35.8421167,23.2189872 35.7800911,23.7599325 35.6579195,24.2433907 C35.5348081,24.7277913 35.3637678,25.166956 35.1447987,25.5627697 C34.9248898,25.9585834 34.6664498,26.3242399 34.368539,26.6587967 C34.0696884,26.9924111 33.7454637,27.3184862 33.3949252,27.6351371 L27.7374395,32.5168394 L36,32.5168394 L36,36 L23,36 L23,31.8043748 Z" id="Fill-13" fill="#FFFFFF" fill-rule="nonzero"></path>
                <path d="M50.3870764,21.4831606 L43.2107626,21.4831606 L43.1341472,24.3594068 C43.5254332,24.2189872 44.0617414,24.1483061 44.7430716,24.1483061 C45.662457,24.1483061 46.505227,24.2896682 47.2713815,24.5705074 C48.037536,24.8522891 48.6969761,25.2612966 49.2506139,25.7975299 C49.8042517,26.3347056 50.2338455,26.9859134 50.5403073,27.7511532 C50.8467691,28.516393 51,29.3739894 51,30.3239423 C51,31.3794455 50.824879,32.3209166 50.4764611,33.1474133 C50.1271311,33.9748524 49.6464604,34.6741233 49.0335368,35.2452259 C48.4206132,35.817271 47.6927664,36.252666 46.8499965,36.5514111 C46.0072265,36.8510987 45.0914895,37 44.1046096,37 C42.5376412,37 41.2269698,36.6041863 40.1707711,35.8125589 C39.1154845,35.0209315 38.391286,33.8250087 38,32.223848 L42.0104539,31.2738951 C42.1116958,31.9430088 42.3844103,32.4839542 42.8276854,32.8967313 C43.2700484,33.3104509 43.8227742,33.5168394 44.4867747,33.5168394 C45.3049183,33.5168394 45.9561496,33.2529636 46.4413808,32.725212 C46.9266119,32.1974604 47.1692275,31.5292892 47.1692275,30.719756 C47.1692275,30.1043599 47.0451835,29.5982838 46.7989195,29.2024701 C46.5517435,28.8066564 46.227952,28.4900055 45.8284572,28.2525172 C45.4280502,28.015029 44.9811268,27.8519915 44.4867747,27.764347 C43.9933347,27.6757601 43.4998948,27.6324091 43.0055427,27.6324091 C42.3762015,27.6324091 41.7413878,27.693666 41.1038378,27.8161798 C40.4644636,27.9396359 39.8469796,28.1073855 39.2513857,28.3184862 L39.4556935,18 L50.3870764,18 L50.3870764,21.4831606 Z" id="Fill-15" fill="#FFFFFF" fill-rule="nonzero"></path>
                <polygon id="Fill-17" fill="#FFFFFF" fill-rule="nonzero" points="22.7065317 44.0140485 20 40 21.974241 40 23.50046 42.6194125 25.1177553 40 27 40 24.2934683 44.0140485 24.2934683 47 22.7065317 47"></polygon>
                <polygon id="Fill-19" fill="#FFFFFF" fill-rule="nonzero" points="28 40 32.8197137 40 32.8197137 41.4241379 29.5627831 41.4241379 29.5627831 42.7293742 32.6385215 42.7293742 32.6385215 44.1526181 29.5627831 44.1526181 29.5627831 45.5767561 33 45.5767561 33 47 28 47"></polygon>
                <path d="M37.9410977,42.0365262 L37.0152124,44.211622 L38.8776926,44.211622 L37.9410977,42.0365262 Z M37.2946331,40 L38.6839479,40 L42,47 L40.1053913,47 L39.4482171,45.5168582 L36.4875259,45.5168582 L35.8517707,47 L34,47 L37.2946331,40 Z" id="Fill-21" fill="#FFFFFF" fill-rule="nonzero"></path>
                <path d="M43.6478268,42.8974457 L44.6193281,42.8974457 C44.7673937,42.8974457 44.9240567,42.8920817 45.0902722,42.8822478 C45.2555326,42.8724138 45.4045534,42.8429119 45.5382901,42.793742 C45.672982,42.7445722 45.7837924,42.6667944 45.8716765,42.5613027 C45.9595606,42.455811 46.0035026,42.3074074 46.0035026,42.116092 C46.0035026,41.9381865 45.9652922,41.7969349 45.8869607,41.6905492 C45.8095845,41.5859515 45.7111925,41.5045977 45.5917847,41.4491699 C45.4714217,41.392848 45.3348193,41.3544061 45.1800669,41.3347382 C45.0243592,41.3150702 44.8734278,41.3052363 44.7253622,41.3052363 L43.6478268,41.3052363 L43.6478268,42.8974457 Z M42,40 L44.8944436,40 C45.2746378,40 45.6357268,40.0348659 45.9767553,40.1037037 C46.3187391,40.1734355 46.617736,40.2887612 46.8756567,40.4505747 C47.1326222,40.6114943 47.336093,40.8296296 47.4879796,41.1031928 C47.638911,41.3767561 47.715332,41.7173691 47.715332,42.1259259 C47.715332,42.6203065 47.5777742,43.0404853 47.3026588,43.3864623 C47.0284986,43.7324393 46.6272886,43.9523627 46.0990288,44.0444444 L48,47 L46.0245184,47 L44.4617099,44.201788 L43.6478268,44.201788 L43.6478268,47 L42,47 L42,40 Z" id="Fill-23" fill="#FFFFFF" fill-rule="nonzero"></path>
                <path d="M52.9435498,42.0534759 C52.8196779,41.8813807 52.6515661,41.7540107 52.4392143,41.6713661 C52.2277473,41.5887214 52.0268979,41.5478853 51.8375509,41.5478853 C51.726951,41.5478853 51.6128119,41.5624696 51.4951336,41.590666 C51.3774553,41.6198347 51.2668554,41.66456 51.1624491,41.7258143 C51.0580428,41.7860963 50.9731021,41.8667963 50.9085118,41.9679144 C50.8430366,42.0680603 50.8102991,42.1895965 50.8102991,42.3334954 C50.8102991,42.5619835 50.8881614,42.7379679 51.0447708,42.8595041 C51.2013803,42.9820126 51.3986905,43.0860476 51.6375863,43.1716091 C51.8755972,43.2571706 52.1313042,43.3437044 52.4055919,43.4302382 C52.6789949,43.5157997 52.9355866,43.6373359 53.1735976,43.7958192 C53.4116086,43.9533301 53.6089188,44.164317 53.7655282,44.4297521 C53.9221377,44.6951872 54,45.0500729 54,45.4944093 C54,45.9173554 53.9283313,46.2868255 53.7849938,46.6018474 C53.6416563,46.9168692 53.4478853,47.1784152 53.202796,47.3864852 C52.9585914,47.5945552 52.6745709,47.748177 52.3516192,47.8492951 C52.0286675,47.9494409 51.6880198,48 51.3287914,48 C50.8793134,48 50.4616882,47.9241614 50.0768006,47.7734565 C49.6910281,47.6237239 49.3326845,47.3796791 49,47.0422946 L50.0865334,45.7306757 C50.2431428,45.9601361 50.440453,46.1380651 50.678464,46.2634905 C50.916475,46.3879436 51.1624491,46.4511424 51.4172713,46.4511424 C51.5411432,46.4511424 51.6667846,46.4346135 51.7933109,46.402528 C51.920722,46.3704424 52.0348611,46.3218279 52.136613,46.2576568 C52.2374801,46.1934857 52.3188816,46.110841 52.3808176,46.0106952 C52.4427535,45.9095771 52.4737215,45.79193 52.4737215,45.6558094 C52.4737215,45.4263491 52.3940895,45.2455032 52.2339409,45.1122995 C52.0737922,44.9800681 51.8738276,44.8672825 51.6322775,44.7739426 C51.3907273,44.6806028 51.1297116,44.587263 50.8492302,44.4939232 C50.5687489,44.4015557 50.3077331,44.2761303 50.0670678,44.1176471 C49.8255176,43.9601361 49.6246682,43.7520661 49.4645196,43.4944093 C49.3052557,43.2357803 49.2256238,42.8954789 49.2256238,42.4725328 C49.2256238,42.0641711 49.2981773,41.7063685 49.445054,41.3971804 C49.5919306,41.0889645 49.7874712,40.8313077 50.0325606,40.6232377 C50.2767652,40.4151677 50.5590161,40.2596014 50.8793134,40.1555664 C51.1987259,40.0515314 51.5278712,40 51.8667492,40 C52.2587153,40 52.6365245,40.060282 53.0019466,40.1827905 C53.3673686,40.3043267 53.6973987,40.5085075 53.9902672,40.795333 L52.9435498,42.0534759 Z" id="Fill-25" fill="#FFFFFF" fill-rule="nonzero"></path>
            </g>
        </g>
    </g>
</svg>