<?xml version="1.0" encoding="UTF-8"?>
<svg width="84px" height="84px" viewBox="0 0 84 84" version="1.1" xmlns="http://www.w3.org/2000/svg" xmlns:xlink="http://www.w3.org/1999/xlink">
    <!-- Generator: Sketch 51.2 (57519) - http://www.bohemiancoding.com/sketch -->
    <title>iconv2-30nightguarantee</title>
    <desc>Created with Sketch.</desc>
    <defs></defs>
    <g id="iconv2-30nightguarantee" stroke="none" stroke-width="1" fill="none" fill-rule="evenodd">
        <g id="iconv2-120nightguarantee" transform="translate(17.000000, 12.000000)" fill="#556774">
            <path d="M30.51,59.64 C17.935323,59.6401236 6.72917072,51.7057162 2.55248147,39.8449502 C-1.62420777,27.9841843 2.13773102,14.7788639 11.937904,6.89983402 C21.7380769,-0.979195875 35.4432215,-1.81685957 46.13,4.81 C46.5593706,5.07650296 46.7224293,5.62146242 46.51,6.08 C46.2963215,6.545685 45.7652336,6.77452773 45.28,6.61 L44.87,6.47 C34.72117,3.33768077 23.7072781,7.06116856 17.5410388,15.7091549 C11.3747995,24.3571413 11.4440612,35.9832059 17.712899,44.557111 C23.9817368,53.131016 35.0392102,56.7230148 45.15,53.47 L45.2,53.47 C45.4566301,53.3078649 45.7730142,53.2710761 46.06,53.37 C46.3450927,53.4706637 46.5693363,53.6949073 46.67,53.98 C46.7723548,54.2354095 46.7649469,54.5217086 46.6495208,54.7714831 C46.5340947,55.0212577 46.3208504,55.2124353 46.06,55.3 L46.01,55.3 C41.3436253,58.1511326 35.9784395,59.6533847 30.51,59.64 Z M30.51,2.36 C19.736581,2.35861274 9.94410405,8.61714537 5.42073417,18.3949612 C0.8973643,28.1727771 2.46750269,39.6878325 9.44357941,47.8976384 C16.4196561,56.1074442 27.530255,59.5157325 37.91,56.63 C23.2026571,56.63 11.28,44.7073429 11.28,30 C11.28,15.2926571 23.2026571,3.37 37.91,3.37 C35.5009686,2.69728064 33.0111951,2.3574602 30.51,2.36 Z" id="Shape" fill-rule="nonzero"></path>
            <path d="M37.05,18 C36.9182926,18.0000274 36.7921194,17.9470321 36.6999337,17.852965 C36.6077479,17.7588979 36.5573121,17.63168 36.56,17.5 C36.6373707,16.4761984 36.2881624,15.4659428 35.5950681,14.7084627 C34.9019738,13.9509825 33.9266303,13.5136407 32.9,13.5 C32.6222477,13.4945528 32.3999466,13.2678057 32.4,12.99 C32.4054457,12.7177706 32.6277162,12.4999455 32.9,12.5 C33.8703573,12.5162097 34.8061563,12.1399528 35.4952165,11.4565406 C36.1842767,10.7731285 36.5682228,9.84045785 36.56,8.87 C36.5802291,8.60053746 36.7999441,8.38943876 37.07,8.38 C37.3399964,8.39054819 37.5549079,8.60984558 37.56,8.88 C37.5351138,9.84575223 37.9071205,10.7795047 38.5892916,11.4635655 C39.2714628,12.1476264 40.2041826,12.5222146 41.17,12.5 C41.3017074,12.4999726 41.4278806,12.5529679 41.5200663,12.647035 C41.6122521,12.7411021 41.6626879,12.86832 41.66,13 C41.66,13.2761424 41.4361424,13.5 41.16,13.5 C37.67,13.5 37.56,17.37 37.56,17.5 C37.5545528,17.7777523 37.3278057,18.0000534 37.05,18 Z M35.05,13 C35.9625234,13.4307048 36.6925327,14.1713452 37.11,15.09 C37.4925861,14.2041672 38.1569837,13.4694629 39,13 C38.1299094,12.6077426 37.4229943,11.9255696 37,11.07 C36.5787229,11.94125 35.8733507,12.6430954 35,13.06 L35.05,13 Z" id="Shape" fill-rule="nonzero"></path>
            <path d="M27.63,25.74 C27.3577706,25.7345543 27.1399455,25.5122838 27.14,25.24 C27.2161428,24.4739089 26.9652814,23.7112794 26.4492171,23.1399905 C25.9331528,22.5687017 25.1998635,22.2418654 24.43,22.24 C24.1538576,22.24 23.93,22.0161424 23.93,21.74 C23.93,21.4638576 24.1538576,21.24 24.43,21.24 C25.1483282,21.2592607 25.8432555,20.9837611 26.3532581,20.4775362 C26.8632608,19.9713113 27.1439195,19.2784515 27.13,18.56 C27.1354457,18.2877706 27.3577162,18.0699455 27.63,18.07 C27.9039085,18.0753201 28.1246799,18.2960915 28.13,18.57 C28.0986516,19.285523 28.3684747,19.9814591 28.8739602,20.4888449 C29.3794457,20.9962307 30.0743644,21.2686633 30.79,21.24 C31.0661424,21.24 31.29,21.4638576 31.29,21.74 C31.29,22.0161424 31.0661424,22.24 30.79,22.24 C28.2,22.24 28.13,25.11 28.13,25.24 C28.1246799,25.5139085 27.9039085,25.7346799 27.63,25.74 Z M26.33,21.74 C26.8853614,22.0605822 27.3419772,22.5275756 27.65,23.09 C27.9268322,22.5266754 28.3520995,22.0495463 28.88,21.71 C28.3442262,21.4185352 27.8981908,20.9863304 27.59,20.46 C27.3043992,21.0136908 26.8674558,21.4749088 26.33,21.79 L26.33,21.74 Z" id="Shape" fill-rule="nonzero"></path>
            <path d="M45,27.36 C44.7625176,27.36 44.57,27.1674824 44.57,26.93 C44.6508242,25.9834298 44.3331098,25.0460531 43.6933997,24.3437008 C43.0536896,23.6413485 42.1499834,23.2376995 41.2,23.23 C40.9850079,23.1973095 40.8261438,23.0124632 40.8261438,22.795 C40.8261438,22.5775368 40.9850079,22.3926905 41.2,22.36 C42.0883313,22.3627852 42.9404987,22.0083811 43.5648743,21.3764829 C44.1892498,20.7445847 44.5334233,19.8882342 44.52,19 C44.5274173,18.8820317 44.5830685,18.7723185 44.6738733,18.6966479 C44.764678,18.6209773 44.882628,18.5860227 45,18.6 C45.2390913,18.6054353 45.4300618,18.800847 45.43,19.04 C45.4050167,19.9261947 45.745383,20.7837023 46.37132,21.4115303 C46.997257,22.0393584 47.853734,22.3823099 48.74,22.36 C48.8540431,22.36 48.9634153,22.4053034 49.0440559,22.4859441 C49.1246966,22.5665847 49.17,22.6759569 49.17,22.79 C49.1700618,23.029153 48.9790913,23.2245647 48.74,23.23 C45.53,23.23 45.43,26.78 45.43,26.94 C45.4195281,27.1713441 45.2315264,27.3549737 45,27.36 Z M43.1,22.85 C43.966564,23.257799 44.6533198,23.9694631 45.03,24.85 C45.381043,23.9954766 46.0170475,23.2888049 46.83,22.85 C45.9855041,22.4885699 45.3025308,21.8304966 44.91,21 C44.5299969,21.818423 43.8704596,22.4744144 43.05,22.85 L43.1,22.85 Z" id="Shape" fill-rule="nonzero"></path>
            <path d="M32.3648889,34.536 L32.9568889,34.536 C33.2875572,34.536 33.6048873,34.498667 33.9088889,34.424 C34.2128904,34.349333 34.4768877,34.2293342 34.7008889,34.064 C34.92489,33.8986658 35.1035549,33.682668 35.2368889,33.416 C35.3702229,33.149332 35.4368889,32.8293352 35.4368889,32.456 C35.4368889,31.847997 35.2528907,31.3760017 34.8848889,31.04 C34.516887,30.7039983 34.0022255,30.536 33.3408889,30.536 C32.8608865,30.536 32.4395573,30.6426656 32.0768889,30.856 C31.7142204,31.0693344 31.4155567,31.3786646 31.1808889,31.784 L30.1728889,31.272 C30.5142239,30.663997 30.9488862,30.2133348 31.4768889,29.92 C32.0048915,29.6266652 32.6155521,29.48 33.3088889,29.48 C33.7568911,29.48 34.1782202,29.5439994 34.5728889,29.672 C34.9675575,29.8000006 35.3142207,29.9893321 35.6128889,30.24 C35.911557,30.4906679 36.148888,30.7999982 36.3248889,31.168 C36.5008897,31.5360018 36.5888889,31.9546643 36.5888889,32.424 C36.5888889,32.7333349 36.5382227,33.0266653 36.4368889,33.304 C36.335555,33.5813347 36.1968897,33.8319989 36.0208889,34.056 C35.844888,34.2800011 35.6395567,34.4746658 35.4048889,34.64 C35.170221,34.8053342 34.9248901,34.9306662 34.6688889,35.016 L34.7168889,35.048 C35.0368905,35.1120003 35.3302209,35.2319991 35.5968889,35.408 C35.8635569,35.5840009 36.0928879,35.7999987 36.2848889,36.056 C36.4768898,36.3120013 36.6262217,36.5999984 36.7328889,36.92 C36.8395561,37.2400016 36.8928889,37.5759982 36.8928889,37.928 C36.8928889,38.4506693 36.7968898,38.9146646 36.6048889,39.32 C36.4128879,39.7253354 36.1515572,40.0666653 35.8208889,40.344 C35.4902205,40.6213347 35.1062244,40.8319993 34.6688889,40.976 C34.2315533,41.1200007 33.767558,41.192 33.2768889,41.192 C32.4448847,41.192 31.7195586,41.0106685 31.1008889,40.648 C30.4822191,40.2853315 30.0182237,39.704004 29.7088889,38.904 L30.9248889,38.536 C31.1168898,39.0800027 31.4022203,39.4826654 31.7808889,39.744 C32.1595574,40.0053346 32.6902188,40.136 33.3728889,40.136 C33.6928905,40.136 33.9968874,40.0826672 34.2848889,39.976 C34.5728903,39.8693328 34.8262211,39.7173343 35.0448889,39.52 C35.2635566,39.3226657 35.4342216,39.0853347 35.5568889,38.808 C35.6795561,38.5306653 35.7408889,38.2266683 35.7408889,37.896 C35.7408889,37.4693312 35.6608897,37.1093348 35.5008889,36.816 C35.3408881,36.5226652 35.1275569,36.2853342 34.8608889,36.104 C34.5942209,35.9226658 34.2875573,35.7920004 33.9408889,35.712 C33.5942205,35.6319996 33.2342241,35.592 32.8608889,35.592 L32.3648889,35.592 L32.3648889,34.536 Z" id="3"></path>
            <path d="M37.57,35.34 C37.57,34.93 37.57,34.5 37.63,34.04 C37.6642122,33.5917515 37.7344388,33.1469828 37.84,32.71 C37.9376472,32.2835102 38.0783696,31.8680439 38.26,31.47 C38.4289928,31.1008966 38.6588662,30.7628475 38.94,30.47 C39.2228567,30.1667044 39.5626492,29.9220538 39.94,29.75 C40.8316424,29.3896899 41.8283576,29.3896899 42.72,29.75 C43.0968307,29.9229487 43.4364596,30.1674815 43.72,30.47 C43.9980603,30.7653261 44.2275723,31.1028438 44.4,31.47 C44.5816304,31.8680439 44.7223528,32.2835102 44.82,32.71 C44.9088346,33.1354814 44.9689702,33.5664528 45,34 C45,34.46 45.06,34.89 45.06,35.3 C45.06,35.71 45.06,36.15 45,36.6 C44.9763516,37.0700859 44.9195437,37.5379157 44.83,38 C44.7323037,38.4232477 44.5915713,38.8353925 44.41,39.23 C44.2390812,39.5980143 44.0094129,39.9357617 43.73,40.23 C43.4464596,40.5325185 43.1068307,40.7770513 42.73,40.95 C41.8356756,41.2962396 40.8443244,41.2962396 39.95,40.95 C39.5726492,40.7779462 39.2328567,40.5332956 38.95,40.23 C38.6674995,39.9382626 38.437458,39.5999663 38.27,39.23 C38.0850001,38.8357759 37.9409131,38.4236203 37.84,38 C37.7351866,37.5628684 37.6649694,37.1181596 37.63,36.67 C37.59,36.19 37.57,35.76 37.57,35.34 Z M38.63,35.34 C38.63,35.64 38.63,35.9733333 38.63,36.34 C38.63,36.7 38.7,37.06 38.76,37.43 C38.8285655,37.7992497 38.9221138,38.1634199 39.04,38.52 C39.1609077,38.8536842 39.3256876,39.1697927 39.53,39.46 C39.7232452,39.7271063 39.9723527,39.9489144 40.26,40.11 C40.9133399,40.4430392 41.6866601,40.4430392 42.34,40.11 C42.6326207,39.9520435 42.8856272,39.729808 43.08,39.46 C43.2850644,39.1717998 43.4467829,38.855101 43.56,38.52 C43.6872767,38.1662414 43.7810223,37.8013033 43.84,37.43 C43.9178539,37.0673206 43.971307,36.6998301 44,36.33 C44,35.97 44,35.6366667 44,35.33 C44,35.04 44,34.71 44,34.33 C43.981358,33.9608351 43.9379268,33.5933404 43.87,33.23 C43.812158,32.8584621 43.7183849,32.4934168 43.59,32.14 C43.4788678,31.804024 43.3169957,31.4870245 43.11,31.2 C42.9130828,30.9298722 42.6608011,30.7048641 42.37,30.54 C41.7201561,30.2070874 40.9498439,30.2070874 40.3,30.54 C40.0091989,30.7048641 39.7569172,30.9298722 39.56,31.2 C39.3535505,31.4889008 39.1886128,31.805312 39.07,32.14 C38.9509382,32.4962342 38.8573688,32.8604869 38.79,33.23 C38.73,33.6 38.69,33.96 38.66,34.33 C38.63,34.7 38.63,35.05 38.63,35.34 Z" id="Shape" fill-rule="nonzero"></path>
            <polygon id="Shape" fill-rule="nonzero" points="27.63 43.58 28.81 43.58 30.48 46.32 30.48 46.32 30.48 43.58 31.34 43.58 31.34 47.52 30.23 47.52 28.51 44.71 28.51 44.71 28.51 47.52 27.64 47.52"></polygon>
            <polygon id="Shape" fill-rule="nonzero" points="32.15 43.58 33 43.58 33 47.52 32.13 47.52"></polygon>
            <path d="M37.37,47.24 C37.1174808,47.3719595 36.8484209,47.4694937 36.57,47.53 C36.2906944,47.5902732 36.0057346,47.6204454 35.72,47.62 C35.4298736,47.6224502 35.1417633,47.5716072 34.87,47.47 C34.6197587,47.3831525 34.3912184,47.2432996 34.2,47.06 C34.0055571,46.875896 33.8551564,46.650295 33.76,46.4 C33.6485441,46.1307549 33.5940663,45.841342 33.6,45.55 C33.5941204,45.2554212 33.6485702,44.9627538 33.76,44.69 C33.8527004,44.4297347 34.0031279,44.193837 34.2,44 C34.3931552,43.8168045 34.62094,43.674014 34.87,43.58 C35.143623,43.4865744 35.430868,43.4392635 35.72,43.44 C36.0135741,43.4382717 36.3060947,43.4752571 36.59,43.55 C36.852186,43.6249092 37.092353,43.7621475 37.29,43.95 L36.68,44.61 C36.5666911,44.4934045 36.4305102,44.4014824 36.28,44.34 C36.1029115,44.2660504 35.911738,44.2319123 35.72,44.24 C35.5480371,44.2364946 35.3773867,44.2706247 35.22,44.34 C34.9220238,44.4549515 34.6909754,44.6970023 34.59,45 C34.4748033,45.3233806 34.4748033,45.6766194 34.59,46 C34.6441922,46.1472116 34.7256096,46.2829073 34.83,46.4 C34.9409535,46.512302 35.0736622,46.6007745 35.22,46.66 C35.3788013,46.7247919 35.5484943,46.7587305 35.72,46.76 C35.8858249,46.76 36.0508081,46.736431 36.21,46.69 C36.3253106,46.6615941 36.4362973,46.6178721 36.54,46.56 L36.54,46 L35.83,46 L35.83,45.2 L37.37,45.2 L37.37,47.24 Z" id="Shape" fill-rule="nonzero"></path>
            <polygon id="Shape" fill-rule="nonzero" points="38.14 43.58 39 43.58 39 45.05 40.69 45.05 40.69 43.58 41.56 43.58 41.56 47.52 40.69 47.52 40.69 45.82 39 45.82 39 47.52 38.14 47.52"></polygon>
            <polygon id="Shape" fill-rule="nonzero" points="43.12 44.35 42 44.35 42 43.58 45.12 43.58 45.12 44.35 44 44.35 44 47.52 43.13 47.52"></polygon>
            <path d="M47.49,44.54 C47.4163275,44.4493911 47.3196049,44.3803036 47.21,44.34 C47.1004898,44.302389 46.9857691,44.2821441 46.87,44.28 L46.67,44.28 L46.48,44.35 C46.4221806,44.3795117 46.3737079,44.4245221 46.34,44.48 C46.2981878,44.5342594 46.2769324,44.6015681 46.28,44.67 C46.2762777,44.7782812 46.3293572,44.8806489 46.42,44.94 C46.5216795,45.0090186 46.6328382,45.0629138 46.75,45.1 L47.19,45.23 C47.3400528,45.2768802 47.4843073,45.3406205 47.62,45.42 C47.7581329,45.5011745 47.8747392,45.6143512 47.96,45.75 C48.0588035,45.9159656 48.1074287,46.1069935 48.1,46.3 C48.1019554,46.4975645 48.0574234,46.6928201 47.97,46.87 C47.8944595,47.0311458 47.7812782,47.171765 47.64,47.28 C47.4976734,47.3913162 47.3344489,47.4729284 47.16,47.52 C46.9709763,47.5718147 46.7759925,47.598709 46.58,47.6 C46.3380224,47.6032844 46.0974576,47.5626256 45.87,47.48 C45.6391337,47.3978746 45.4279603,47.2684457 45.25,47.1 L45.87,46.42 C45.9592778,46.5392118 46.0758812,46.635238 46.21,46.7 C46.3410483,46.7635181 46.4843886,46.7976467 46.63,46.8 C46.6996627,46.8097176 46.7703373,46.8097176 46.84,46.8 L47.04,46.73 C47.0905756,46.6945707 47.1345707,46.6505756 47.17,46.6 C47.2118122,46.5457406 47.2330676,46.4784319 47.23,46.41 C47.23,46.2998349 47.178132,46.196099 47.09,46.13 C46.9841742,46.05942 46.8699595,46.0023127 46.75,45.96 L46.3,45.81 C46.145185,45.7675112 45.9970809,45.7035571 45.86,45.62 C45.723004,45.5416563 45.6064952,45.4320009 45.52,45.3 C45.4248766,45.1398227 45.3763879,44.9562584 45.38,44.77 C45.374331,44.5752475 45.4191136,44.3823378 45.51,44.21 C45.5884068,44.0534732 45.7012254,43.9167234 45.84,43.81 C45.9823266,43.6986838 46.1455511,43.6170716 46.32,43.57 C46.5022042,43.5181987 46.6905796,43.491288 46.88,43.49 C47.0998365,43.4890521 47.3186918,43.5193552 47.53,43.58 C47.7368013,43.6467612 47.9274913,43.7557268 48.09,43.9 L47.49,44.54 Z" id="Shape" fill-rule="nonzero"></path>
        </g>
    </g>
</svg>