<?xml version="1.0" encoding="UTF-8"?>
<svg width="73px" height="90px" viewBox="0 0 73 90" version="1.1" xmlns="http://www.w3.org/2000/svg" xmlns:xlink="http://www.w3.org/1999/xlink">
    <!-- Generator: Sketch 58 (84663) - https://sketch.com -->
    <title>iconv2-100nightguarantee</title>
    <desc>Created with Sketch.</desc>
    <g id="misc-BWH-icons" stroke="none" stroke-width="1" fill="none" fill-rule="evenodd">
        <g id="iconv2" transform="translate(-638.000000, -334.000000)" fill="#556774" fill-rule="nonzero">
            <g id="iconv2-100nightguarantee" transform="translate(638.000000, 334.000000)">
                <path d="M44.765,89.460133 C25.9029845,89.460133 9.0937561,77.5585743 2.82872221,59.7674253 C-3.43631166,41.9762764 2.20659654,22.1682959 16.9068559,10.349751 C31.6071154,-1.46879381 52.1648323,-2.72528935 68.195,7.215 C68.8390559,7.61475444 69.083644,8.43219363 68.765,9.12 C68.4444822,9.8185275 67.6478504,10.1617916 66.92,9.915 L66.305,9.705 C51.0817549,5.00652115 34.5609171,10.5917528 25.3115582,23.5637324 C16.0621993,36.535712 16.1660918,53.9748089 25.5693485,66.8356665 C34.9726051,79.696524 51.5588154,85.0845223 66.725,80.205 L66.8,80.205 C67.1849452,79.9617974 67.6595212,79.9066142 68.09,80.055 C68.517639,80.2059956 68.8540044,80.542361 69.005,80.97 C69.1585321,81.3531143 69.1474204,81.7825628 68.9742812,82.1572247 C68.801142,82.5318865 68.4812756,82.818653 68.09,82.95 L68.015,82.95 C61.015438,87.2266989 52.9676592,89.480077 44.765,89.460133 L44.765,89.460133 Z M44.765,3.5399788 C28.6048716,3.5379191 13.9161561,12.9257181 7.13110126,27.5924418 C0.34604645,42.2591656 2.70125403,59.5317488 13.1653691,71.8464575 C23.6294842,84.1611663 40.2953825,89.2735987 55.865,84.945 C33.8039857,84.945 15.92,67.0610143 15.92,45 C15.92,22.9389857 33.8039857,5.055 55.865,5.055 C52.2514529,4.04592096 48.5167927,3.53619031 44.765,3.5399788 Z" id="Shape"></path>
                <path d="M54.575,27 L54.575,27 C54.3774389,27 54.1881791,26.9205482 54.0499005,26.7794475 C53.9116218,26.6383469 53.8359681,26.4475199 53.84,26.25 C53.956056,24.7142977 53.4322436,23.1989142 52.3926022,22.062694 C51.3529607,20.9264738 49.8899455,20.270461 48.35,20.25 C47.9333715,20.2418293 47.6,19.9017086 47.6,19.485 C47.6081685,19.076656 47.9415743,18.7499183 48.35,18.75 C49.805536,18.7743146 51.2092345,18.2099291 52.2428248,17.1848109 C53.276415,16.1596927 53.8523342,14.7606868 53.84,13.305 C53.8703437,12.9008062 54.1999162,12.5841581 54.605,12.57 C55.0099947,12.5858223 55.3323618,12.9147684 55.34,13.32 C55.3026707,14.7686283 55.8606807,16.1692571 56.8839374,17.1953483 C57.9071942,18.2214395 59.3062739,18.7833219 60.755,18.75 C60.9525611,18.7499589 61.1418209,18.8294518 61.2800995,18.9705525 C61.4183782,19.1116531 61.4940319,19.3024801 61.49,19.5 C61.49,19.9142136 61.1542136,20.25 60.74,20.25 C55.505,20.25 55.34,26.055 55.34,26.25 C55.3318293,26.6666285 54.9917086,27 54.575,27 L54.575,27 Z M51.575,19.5 C52.9437851,20.1460571 54.038799,21.2570178 54.665,22.635 C55.2388792,21.3062507 56.2354756,20.2041944 57.5,19.5 C56.1948641,18.9116139 55.1344915,17.8883544 54.5,16.605 C53.8680844,17.911875 52.810026,18.964643 51.5,19.59 L51.575,19.5 Z" id="Shape"></path>
                <path d="M40.445,38.61 L40.445,38.61 C40.036656,38.6018315 39.7099183,38.2684257 39.71,37.86 C39.8242142,36.7108634 39.4479221,35.5669191 38.6738257,34.7099858 C37.8997293,33.8530525 36.7997952,33.3627981 35.645,33.36 C35.2307864,33.36 34.895,33.0242136 34.895,32.61 C34.895,32.1957864 35.2307864,31.86 35.645,31.86 C36.7224923,31.8888911 37.7648832,31.4756416 38.5298872,30.7163043 C39.2948912,29.956967 39.7158793,28.9176773 39.695,27.84 C39.7031685,27.431656 40.0365743,27.105 40.445,27.105 L40.445,27.105 C40.8558627,27.1129802 41.1870198,27.4441373 41.195,27.855 C41.1479774,28.9282845 41.5527121,29.9721887 42.3109403,30.7332674 C43.0691685,31.4943461 44.1115466,31.902995 45.185,31.86 C45.5992136,31.86 45.935,32.1957864 45.935,32.61 C45.935,33.0242136 45.5992136,33.36 45.185,33.36 C41.3,33.36 41.195,37.665 41.195,37.86 C41.1870198,38.2708627 40.8558627,38.6020198 40.445,38.61 Z M38.495,32.61 C39.3280421,33.0908733 40.0129658,33.7913635 40.475,34.635 C40.8902483,33.7900132 41.5281492,33.0743194 42.32,32.565 C41.5163394,32.1278029 40.8472862,31.4794956 40.385,30.69 C39.9565988,31.5205361 39.3011838,32.2123631 38.495,32.685 L38.495,32.61 Z" id="Shape"></path>
                <path d="M66.5,41.04 L66.5,41.04 C66.1437763,41.04 65.855,40.7512237 65.855,40.395 C65.9762363,38.9751447 65.4996647,37.5690797 64.5400995,36.5155512 C63.5805344,35.4620228 62.2249751,34.8565492 60.8,34.845 C60.4775119,34.7959642 60.2392157,34.5186949 60.2392157,34.1925 C60.2392157,33.8663051 60.4775119,33.5890358 60.8,33.54 C62.1324969,33.5441778 63.410748,33.0125716 64.3473114,32.0647243 C65.2838748,31.1168771 65.800135,29.8323513 65.78,28.5 C65.7911259,28.3230475 65.8746028,28.1584778 66.0108099,28.0449719 C66.147017,27.931466 66.3239421,27.8790341 66.5,27.9 L66.5,27.9 C66.8586369,27.9081529 67.1450927,28.2012705 67.145,28.56 C67.107525,29.8892921 67.6180745,31.1755534 68.55698,32.1172955 C69.4958856,33.0590376 70.7806009,33.5734649 72.11,33.54 C72.2810646,33.54 72.4451229,33.6079552 72.5660839,33.7289161 C72.6870448,33.8498771 72.755,34.0139354 72.755,34.185 C72.755,34.5437295 72.4686369,34.8368471 72.11,34.845 C67.295,34.845 67.145,40.17 67.145,40.41 C67.1292922,40.7570162 66.8472897,41.0324605 66.5,41.04 L66.5,41.04 Z M63.65,34.275 C64.949846,34.8866985 65.9799798,35.9541946 66.545,37.275 C67.0715645,35.9932149 68.0255713,34.9332073 69.245,34.275 C67.9782561,33.7328548 66.9537961,32.745745 66.365,31.5 C65.7949953,32.7276345 64.8056894,33.7116215 63.575,34.275 L63.65,34.275 Z" id="Shape"></path>
                <path d="M40.824,48.74 L38.43,50.954 L37.17,49.46 L41.022,46.256 L42.984,46.256 L42.984,59 L40.824,59 L40.824,48.74 Z M47.376,52.628 C47.376,51.619995 47.4569992,50.7590036 47.619,50.045 C47.7810008,49.3309964 47.9939987,48.7310024 48.258,48.245 C48.5220013,47.7589976 48.8189984,47.3690015 49.149,47.075 C49.4790017,46.7809985 49.8149983,46.5590008 50.157,46.409 C50.4990017,46.2589993 50.8289984,46.1600002 51.147,46.112 C51.4650016,46.0639998 51.7439988,46.04 51.984,46.04 C52.2240012,46.04 52.5029984,46.0639998 52.821,46.112 C53.1390016,46.1600002 53.4689983,46.2589993 53.811,46.409 C54.1530017,46.5590008 54.4889984,46.7809985 54.819,47.075 C55.1490017,47.3690015 55.4459987,47.7589976 55.71,48.245 C55.9740013,48.7310024 56.1869992,49.3309964 56.349,50.045 C56.5110008,50.7590036 56.592,51.619995 56.592,52.628 C56.592,53.636005 56.5110008,54.4969964 56.349,55.211 C56.1869992,55.9250036 55.9740013,56.5249976 55.71,57.011 C55.4459987,57.4970024 55.1490017,57.8869985 54.819,58.181 C54.4889984,58.4750015 54.1530017,58.6969992 53.811,58.847 C53.4689983,58.9970007 53.1390016,59.0959998 52.821,59.144 C52.5029984,59.1920002 52.2240012,59.216 51.984,59.216 C51.7439988,59.216 51.4650016,59.1920002 51.147,59.144 C50.8289984,59.0959998 50.4990017,58.9970007 50.157,58.847 C49.8149983,58.6969992 49.4790017,58.4750015 49.149,58.181 C48.8189984,57.8869985 48.5220013,57.4970024 48.258,57.011 C47.9939987,56.5249976 47.7810008,55.9250036 47.619,55.211 C47.4569992,54.4969964 47.376,53.636005 47.376,52.628 Z M49.536,52.628 C49.536,53.024002 49.5629997,53.4829974 49.617,54.005 C49.6710003,54.5270026 49.7819992,55.0219977 49.95,55.49 C50.1180008,55.9580023 50.3639984,56.3539984 50.688,56.678 C51.0120016,57.0020016 51.4439973,57.164 51.984,57.164 C52.5240027,57.164 52.9559984,57.0020016 53.28,56.678 C53.6040016,56.3539984 53.8499992,55.9580023 54.018,55.49 C54.1860008,55.0219977 54.2969997,54.5270026 54.351,54.005 C54.4050003,53.4829974 54.432,53.024002 54.432,52.628 C54.432,52.231998 54.4050003,51.7730026 54.351,51.251 C54.2969997,50.7289974 54.1860008,50.2340023 54.018,49.766 C53.8499992,49.2979977 53.6040016,48.9020016 53.28,48.578 C52.9559984,48.2539984 52.5240027,48.092 51.984,48.092 C51.4439973,48.092 51.0120016,48.2539984 50.688,48.578 C50.3639984,48.9020016 50.1180008,49.2979977 49.95,49.766 C49.7819992,50.2340023 49.6710003,50.7289974 49.617,51.251 C49.5629997,51.7730026 49.536,52.231998 49.536,52.628 Z M59.376,52.628 C59.376,51.619995 59.4569992,50.7590036 59.619,50.045 C59.7810008,49.3309964 59.9939987,48.7310024 60.258,48.245 C60.5220013,47.7589976 60.8189984,47.3690015 61.149,47.075 C61.4790017,46.7809985 61.8149983,46.5590007 62.157,46.409 C62.4990017,46.2589992 62.8289984,46.1600002 63.147,46.112 C63.4650016,46.0639998 63.7439988,46.04 63.984,46.04 C64.2240012,46.04 64.5029984,46.0639998 64.821,46.112 C65.1390016,46.1600002 65.4689983,46.2589992 65.811,46.409 C66.1530017,46.5590007 66.4889984,46.7809985 66.819,47.075 C67.1490017,47.3690015 67.4459987,47.7589976 67.71,48.245 C67.9740013,48.7310024 68.1869992,49.3309964 68.349,50.045 C68.5110008,50.7590036 68.592,51.619995 68.592,52.628 C68.592,53.636005 68.5110008,54.4969964 68.349,55.211 C68.1869992,55.9250036 67.9740013,56.5249976 67.71,57.011 C67.4459987,57.4970024 67.1490017,57.8869985 66.819,58.181 C66.4889984,58.4750015 66.1530017,58.6969992 65.811,58.847 C65.4689983,58.9970007 65.1390016,59.0959998 64.821,59.144 C64.5029984,59.1920002 64.2240012,59.216 63.984,59.216 C63.7439988,59.216 63.4650016,59.1920002 63.147,59.144 C62.8289984,59.0959998 62.4990017,58.9970007 62.157,58.847 C61.8149983,58.6969992 61.4790017,58.4750015 61.149,58.181 C60.8189984,57.8869985 60.5220013,57.4970024 60.258,57.011 C59.9939987,56.5249976 59.7810008,55.9250036 59.619,55.211 C59.4569992,54.4969964 59.376,53.636005 59.376,52.628 Z M61.536,52.628 C61.536,53.024002 61.5629997,53.4829974 61.617,54.005 C61.6710003,54.5270026 61.7819992,55.0219977 61.95,55.49 C62.1180008,55.9580023 62.3639984,56.3539984 62.688,56.678 C63.0120016,57.0020016 63.4439973,57.164 63.984,57.164 C64.5240027,57.164 64.9559984,57.0020016 65.28,56.678 C65.6040016,56.3539984 65.8499992,55.9580023 66.018,55.49 C66.1860008,55.0219977 66.2969997,54.5270026 66.351,54.005 C66.4050003,53.4829974 66.432,53.024002 66.432,52.628 C66.432,52.231998 66.4050003,51.7730026 66.351,51.251 C66.2969997,50.7289974 66.1860008,50.2340023 66.018,49.766 C65.8499992,49.2979977 65.6040016,48.9020016 65.28,48.578 C64.9559984,48.2539984 64.5240027,48.092 63.984,48.092 C63.4439973,48.092 63.0120016,48.2539984 62.688,48.578 C62.3639984,48.9020016 62.1180008,49.2979977 61.95,49.766 C61.7819992,50.2340023 61.6710003,50.7289974 61.617,51.251 C61.5629997,51.7730026 61.536,52.231998 61.536,52.628 Z" id="100"></path>
                <path d="M38.79,61.92 L40.46,61.92 L43.89,67.18 L43.91,67.18 L43.91,61.92 L45.17,61.92 L45.17,69 L43.57,69 L40.07,63.57 L40.05,63.57 L40.05,69 L38.79,69 L38.79,61.92 Z M46.72,61.92 L47.98,61.92 L47.98,69 L46.72,69 L46.72,61.92 Z M55.82,68.48 C54.9466623,68.946669 53.9700054,69.18 52.89,69.18 C52.3433306,69.18 51.8416689,69.0916675 51.385,68.915 C50.928331,68.7383325 50.5350016,68.4883349 50.205,68.165 C49.8749983,67.8416651 49.6166676,67.4533356 49.43,67 C49.2433324,66.5466644 49.15,66.0433361 49.15,65.49 C49.15,64.9233305 49.2433324,64.4083356 49.43,63.945 C49.6166676,63.4816644 49.8749983,63.0866683 50.205,62.76 C50.5350016,62.4333317 50.928331,62.1816676 51.385,62.005 C51.8416689,61.8283324 52.3433306,61.74 52.89,61.74 C53.4300027,61.74 53.9366643,61.8049994 54.41,61.935 C54.8833357,62.0650007 55.3066648,62.296665 55.68,62.63 L54.75,63.57 C54.5233322,63.3499989 54.248335,63.1800006 53.925,63.06 C53.6016651,62.9399994 53.2600018,62.88 52.9,62.88 C52.5333315,62.88 52.2016682,62.9449994 51.905,63.075 C51.6083318,63.2050007 51.3533344,63.3849989 51.14,63.615 C50.9266656,63.8450012 50.7616673,64.1133318 50.645,64.42 C50.5283328,64.7266682 50.47,65.0566649 50.47,65.41 C50.47,65.7900019 50.5283328,66.1399984 50.645,66.46 C50.7616673,66.7800016 50.9266656,67.0566655 51.14,67.29 C51.3533344,67.5233345 51.6083318,67.706666 51.905,67.84 C52.2016682,67.973334 52.5333315,68.04 52.9,68.04 C53.2200016,68.04 53.5216652,68.0100003 53.805,67.95 C54.0883348,67.8899997 54.3399989,67.7966673 54.56,67.67 L54.56,66 L53.11,66 L53.11,64.86 L55.82,64.86 L55.82,68.48 Z M57.31,61.92 L58.57,61.92 L58.57,64.74 L61.88,64.74 L61.88,61.92 L63.14,61.92 L63.14,69 L61.88,69 L61.88,65.88 L58.57,65.88 L58.57,69 L57.31,69 L57.31,61.92 Z M66.17,63.06 L64,63.06 L64,61.92 L69.6,61.92 L69.6,63.06 L67.43,63.06 L67.43,69 L66.17,69 L66.17,63.06 Z" id="NIGHT"></path>
            </g>
        </g>
    </g>
</svg>