<?xml version="1.0" encoding="UTF-8"?>
<svg width="75px" height="75px" viewBox="0 0 75 75" version="1.1" xmlns="http://www.w3.org/2000/svg" xmlns:xlink="http://www.w3.org/1999/xlink">
    <!-- Generator: Sketch 47.1 (45422) - http://www.bohemiancoding.com/sketch -->
    <title>icon-Unfold3</title>
    <desc>Created with Sketch.</desc>
    <defs>
        <polygon id="path-1" points="53.1047767 29.375 0 29.375 0 0.317509191 70.6528405 0.317509191 70.6528405 29.375 53.1047767 29.375 53.1047767 22.595034 50.4494638 22.595034 50.4494638 29.3750432 53.1047767 29.3750432"></polygon>
        <polygon id="path-3" points="1.16164518e-20 0.122357812 1.16164518e-20 6.41666667 2.61248571 6.41666667 2.61248571 0.122357812"></polygon>
        <polygon id="path-5" points="1.16164518e-20 0.122357812 1.16164518e-20 6.41666667 2.61248571 6.41666667 2.61248571 0.122357812"></polygon>
    </defs>
    <g id="Page-1" stroke="none" stroke-width="1" fill="none" fill-rule="evenodd">
        <g id="icon-Unfold3">
            <path d="M18.4023078,17.242 L17.4223078,20.014 L17.6183078,20.056 C17.6369745,19.9439994 17.6976406,19.8436671 17.8003078,19.755 C17.902975,19.6663329 18.0149738,19.622 18.1363078,19.622 C18.313642,19.622 18.4933069,19.6499997 18.6753078,19.706 C18.8573087,19.7620003 19.0533067,19.827333 19.2633078,19.902 C19.4733088,19.976667 19.7066398,20.0419997 19.9633078,20.098 C20.2199757,20.1540003 20.5163061,20.182 20.8523078,20.182 C21.496311,20.182 22.060972,20.0886676 22.5463078,19.902 C23.0316435,19.7153324 23.4353062,19.4750015 23.7573078,19.181 C24.0793094,18.8869985 24.3219736,18.5580018 24.4853078,18.194 C24.6486419,17.8299982 24.7303078,17.4706684 24.7303078,17.116 C24.7303078,16.6586644 24.611309,16.2433352 24.3733078,15.87 C24.1353066,15.4966648 23.8483095,15.1606682 23.5123078,14.862 L22.2663078,13.742 C21.9863064,13.4899987 21.7343089,13.2170015 21.5103078,12.923 C21.2863067,12.6289985 21.1743078,12.2813353 21.1743078,11.88 C21.1743078,11.609332 21.2303072,11.3620011 21.3423078,11.138 C21.4543083,10.9139989 21.6106401,10.7226675 21.8113078,10.564 C22.0119755,10.4053325 22.2523064,10.2793338 22.5323078,10.186 C22.8123092,10.0926662 23.1203061,10.046 23.4563078,10.046 C23.7269758,10.046 23.9859732,10.0786663 24.2333078,10.144 C24.4806424,10.2093337 24.6976402,10.3143326 24.8843078,10.459 C25.0709754,10.6036674 25.2203072,10.7926655 25.3323078,11.026 C25.4443083,11.2593345 25.5003078,11.5439983 25.5003078,11.88 C25.5003078,12.0853344 25.4839746,12.255666 25.4513078,12.391 C25.418641,12.526334 25.3929745,12.631333 25.3743078,12.706 L25.5423078,12.706 L26.5083078,10.032 L26.2983078,9.99 C26.2516409,10.1020006 26.1909748,10.1906663 26.1163078,10.256 C26.0416407,10.3213337 25.9343085,10.354 25.7943078,10.354 C25.6356403,10.354 25.4793086,10.3283336 25.3253078,10.277 C25.171307,10.2256664 25.0033087,10.1673337 24.8213078,10.102 C24.6393069,10.0366663 24.4386422,9.97833359 24.2193078,9.927 C23.9999734,9.87566641 23.7456426,9.85 23.4563078,9.85 C23.0456391,9.85 22.6466431,9.91533268 22.2593078,10.046 C21.8719725,10.1766673 21.5289759,10.3586655 21.2303078,10.592 C20.9316396,10.8253345 20.693642,11.1053317 20.5163078,11.432 C20.3389736,11.7586683 20.2503078,12.117998 20.2503078,12.51 C20.2503078,13.0140025 20.3786398,13.4643313 20.6353078,13.861 C20.8919757,14.2576686 21.2443055,14.6566647 21.6923078,15.058 L22.6863078,15.968 C22.9569758,16.2200013 23.169307,16.4789987 23.3233078,16.745 C23.4773086,17.0110013 23.5543078,17.3166649 23.5543078,17.662 C23.5543078,17.9980017 23.495975,18.3083319 23.3793078,18.593 C23.2626405,18.8776681 23.0923089,19.1249989 22.8683078,19.335 C22.6443067,19.545001 22.3689761,19.7083327 22.0423078,19.825 C21.7156395,19.9416672 21.3469765,20 20.9363078,20 C20.6283062,20 20.3249759,19.9580004 20.0263078,19.874 C19.7276396,19.7899996 19.4569757,19.6686675 19.2143078,19.51 C18.9716399,19.3513325 18.7756419,19.1506679 18.6263078,18.908 C18.4769737,18.6653321 18.4023078,18.3853349 18.4023078,18.068 C18.4023078,17.9093325 18.4209743,17.7670006 18.4583078,17.641 C18.4956413,17.5149994 18.5376409,17.3820007 18.5843078,17.242 L18.4023078,17.242 Z M28.9755385,12.622 L29.9555385,12.622 L29.4515385,13.994 L30.9775385,13.994 L30.9215385,14.19 L29.3955385,14.19 L27.7995385,18.642 C27.7528716,18.7820007 27.7062054,18.9266659 27.6595385,19.076 C27.6128716,19.2253341 27.5895385,19.3746659 27.5895385,19.524 C27.5895385,19.6640007 27.6245382,19.7759996 27.6945385,19.86 C27.7645389,19.9440004 27.8788711,19.986 28.0375385,19.986 C28.2055394,19.986 28.3642044,19.9346672 28.5135385,19.832 C28.6628726,19.7293328 28.7982046,19.610334 28.9195385,19.475 C29.0408725,19.339666 29.1435381,19.2020007 29.2275385,19.062 C29.3115389,18.9219993 29.372205,18.8100004 29.4095385,18.726 L29.5775385,18.796 C29.540205,18.870667 29.4795389,18.9849992 29.3955385,19.139 C29.3115381,19.2930008 29.1995392,19.4469992 29.0595385,19.601 C28.9195378,19.7550008 28.7445396,19.8879994 28.5345385,20 C28.3245375,20.1120006 28.0748733,20.168 27.7855385,20.168 C27.4308701,20.168 27.1648727,20.0816675 26.9875385,19.909 C26.8102043,19.7363325 26.7215385,19.5286679 26.7215385,19.286 C26.7215385,19.0993324 26.7565382,18.8870012 26.8265385,18.649 C26.8965389,18.4109988 26.9688715,18.194001 27.0435385,17.998 L28.4155385,14.19 L27.1555385,14.19 L27.2115385,13.994 L28.4715385,13.994 L28.9755385,12.622 Z M35.4467693,14.68 C35.4467693,14.4933324 35.3907698,14.3346673 35.2787693,14.204 C35.1667687,14.0733327 34.9801039,14.008 34.7187693,14.008 C34.4294345,14.008 34.1517706,14.0919992 33.8857693,14.26 C33.6197679,14.4280008 33.379437,14.6356654 33.1647693,14.883 C32.9501015,15.1303346 32.7634367,15.3963319 32.6047693,15.681 C32.4461018,15.9656681 32.3247697,16.2293321 32.2407693,16.472 C32.455437,16.5093335 32.6934346,16.528 32.9547693,16.528 C33.2907709,16.528 33.6081011,16.4766672 33.9067693,16.374 C34.2054374,16.2713328 34.4691015,16.1360008 34.6977693,15.968 C34.9264371,15.7999992 35.1084353,15.6040011 35.2437693,15.38 C35.3791033,15.1559989 35.4467693,14.9226679 35.4467693,14.68 Z M35.4747693,18.628 C35.418769,18.6933337 35.3347698,18.8123325 35.2227693,18.985 C35.1107687,19.1576675 34.9567702,19.3303325 34.7607693,19.503 C34.5647683,19.6756675 34.3244374,19.829666 34.0397693,19.965 C33.7551012,20.100334 33.4121046,20.168 33.0107693,20.168 C32.6094339,20.168 32.271104,20.1026673 31.9957693,19.972 C31.7204346,19.8413327 31.4964368,19.6733344 31.3237693,19.468 C31.1511017,19.2626656 31.025103,19.0363346 30.9457693,18.789 C30.8664355,18.5416654 30.8267693,18.3013345 30.8267693,18.068 C30.8267693,17.601331 30.9411015,17.1183358 31.1697693,16.619 C31.3984371,16.1196642 31.6971008,15.6623354 32.0657693,15.247 C32.4344378,14.8316646 32.8521003,14.488668 33.3187693,14.218 C33.7854383,13.947332 34.2614335,13.812 34.7467693,13.812 C34.9334369,13.812 35.1201017,13.8329998 35.3067693,13.875 C35.4934369,13.9170002 35.6614352,13.9799996 35.8107693,14.064 C35.9601033,14.1480004 36.0814355,14.2553327 36.1747693,14.386 C36.2681031,14.5166673 36.3147693,14.6753324 36.3147693,14.862 C36.3147693,15.1140013 36.2471033,15.3356657 36.1117693,15.527 C35.9764353,15.7183343 35.801437,15.881666 35.5867693,16.017 C35.3721015,16.152334 35.1364372,16.2666662 34.8797693,16.36 C34.6231013,16.4533338 34.3734371,16.5256664 34.1307693,16.577 C33.8881014,16.6283336 33.6664369,16.6656666 33.4657693,16.689 C33.2651016,16.7123334 33.1181031,16.724 33.0247693,16.724 C32.8661018,16.724 32.7121033,16.7193334 32.5627693,16.71 C32.4134352,16.7006666 32.2827698,16.6866668 32.1707693,16.668 C32.0681021,16.9666682 31.9817696,17.2629985 31.9117693,17.557 C31.8417689,17.8510015 31.8067693,18.1613317 31.8067693,18.488 C31.8067693,18.9920025 31.9374346,19.3676654 32.1987693,19.615 C32.4601039,19.8623346 32.7914339,19.986 33.1927693,19.986 C33.4914374,19.986 33.7551015,19.9276672 33.9837693,19.811 C34.2124371,19.6943328 34.4131017,19.5566675 34.5857693,19.398 C34.7584368,19.2393325 34.903102,19.0783341 35.0197693,18.915 C35.1364365,18.7516659 35.2321022,18.6233338 35.3067693,18.53 L35.4747693,18.628 Z M38.306,18.516 C38.3433335,18.6933342 38.3899997,18.8683325 38.446,19.041 C38.5020003,19.2136675 38.5836661,19.3699993 38.691,19.51 C38.7983339,19.6500007 38.9289992,19.7643329 39.083,19.853 C39.2370008,19.9416671 39.4306655,19.986 39.664,19.986 C39.9253346,19.986 40.1749988,19.9090008 40.413,19.755 C40.6510012,19.6009992 40.8726656,19.4003346 41.078,19.153 C41.2833344,18.9056654 41.4699992,18.6210016 41.638,18.299 C41.8060008,17.9769984 41.9483328,17.650335 42.065,17.319 C42.1816673,16.987665 42.2726663,16.6610016 42.338,16.339 C42.4033337,16.0169984 42.436,15.7300013 42.436,15.478 C42.436,15.0766647 42.3566675,14.7313348 42.198,14.442 C42.0393325,14.1526652 41.7546687,14.008 41.344,14.008 C41.1013321,14.008 40.8796677,14.0593328 40.679,14.162 C40.4783323,14.2646672 40.2986675,14.3906659 40.14,14.54 C39.9813325,14.6893341 39.8413339,14.8409992 39.72,14.995 C39.5986661,15.1490008 39.4960004,15.2819994 39.412,15.394 L38.306,18.516 Z M38.838,14.19 L37.536,14.19 L37.592,13.994 L39.804,13.994 L39.51,14.904 L39.538,14.904 C39.6033337,14.8013328 39.6943328,14.6870006 39.811,14.561 C39.9276672,14.4349994 40.0653325,14.3160006 40.224,14.204 C40.3826675,14.0919994 40.5576657,13.998667 40.749,13.924 C40.9403343,13.849333 41.1479989,13.812 41.372,13.812 C41.7173351,13.812 42.018332,13.879666 42.275,14.015 C42.5316679,14.150334 42.7439992,14.3299989 42.912,14.554 C43.0800008,14.7780011 43.2059996,15.0393318 43.29,15.338 C43.3740004,15.6366682 43.416,15.9493317 43.416,16.276 C43.416,16.668002 43.3226676,17.0903311 43.136,17.543 C42.9493324,17.9956689 42.6880017,18.4156647 42.352,18.803 C42.0159983,19.1903353 41.6170023,19.5146654 41.155,19.776 C40.6929977,20.0373346 40.1866694,20.168 39.636,20.168 C39.2719982,20.168 38.9593346,20.0490012 38.698,19.811 C38.4366654,19.5729988 38.2733337,19.2533353 38.208,18.852 L38.18,18.852 L36.472,23.71 L37.648,23.71 L37.592,23.906 L34.428,23.906 L34.484,23.71 L35.492,23.71 L38.838,14.19 Z M49.6104615,14.946 L49.6664615,15.156 C49.703795,15.1466666 49.7667944,15.1303335 49.8554615,15.107 C49.9441286,15.0836666 50.0421276,15.0603334 50.1494615,15.037 C50.2567953,15.0136666 50.3687942,14.9926668 50.4854615,14.974 C50.6021287,14.9553332 50.7117943,14.946 50.8144615,14.946 C51.2997972,14.946 51.6637936,15.1023318 51.9064615,15.415 C52.1491294,15.7276682 52.2704615,16.1219976 52.2704615,16.598 C52.2704615,16.9993353 52.1957956,17.4076646 52.0464615,17.823 C51.8971274,18.2383354 51.6941294,18.6163316 51.4374615,18.957 C51.1807935,19.2976684 50.8844632,19.5776656 50.5484615,19.797 C50.2124598,20.0163344 49.8577967,20.126 49.4844615,20.126 C49.3444608,20.126 49.225462,20.1143335 49.1274615,20.091 C49.029461,20.0676666 48.9454618,20.0326669 48.8754615,19.986 C48.8054611,19.9393331 48.7424618,19.8740004 48.6864615,19.79 C48.6304612,19.7059996 48.5697951,19.6033339 48.5044615,19.482 C48.3924609,19.2673323 48.2897953,19.1343336 48.1964615,19.083 C48.1031277,19.0316664 48.000462,19.006 47.8884615,19.006 C47.7671275,19.006 47.6551287,19.0386663 47.5524615,19.104 C47.4497943,19.1693337 47.3984615,19.2766659 47.3984615,19.426 C47.3984615,19.5100004 47.4241279,19.6056661 47.4754615,19.713 C47.5267951,19.8203339 47.6177942,19.9183329 47.7484615,20.007 C47.8791288,20.0956671 48.0517937,20.170333 48.2664615,20.231 C48.4811292,20.291667 48.7471266,20.322 49.0644615,20.322 C49.6057975,20.322 50.1354589,20.2076678 50.6534615,19.979 C51.1714641,19.7503322 51.6334594,19.4586684 52.0394615,19.104 C52.4454635,18.7493316 52.7721269,18.3573355 53.0194615,17.928 C53.266796,17.4986645 53.3904615,17.088002 53.3904615,16.696 C53.3904615,16.3133314 53.3181289,15.9983346 53.1734615,15.751 C53.0287941,15.5036654 52.8444626,15.3100007 52.6204615,15.17 C52.3964604,15.0299993 52.1491295,14.9320003 51.8784615,14.876 C51.6077935,14.8199997 51.3464627,14.792 51.0944615,14.792 L51.0804615,14.764 C51.2764625,14.6986663 51.5494597,14.5913341 51.8994615,14.442 C52.2494632,14.2926659 52.5924598,14.0990012 52.9284615,13.861 C53.2644632,13.6229988 53.5584602,13.3430016 53.8104615,13.021 C54.0624627,12.6989984 54.1884615,12.3326687 54.1884615,11.922 C54.1884615,11.6699987 54.1277954,11.4366677 54.0064615,11.222 C53.8851275,11.0073323 53.7241291,10.8183342 53.5234615,10.655 C53.3227938,10.4916658 53.0871295,10.3656671 52.8164615,10.277 C52.5457935,10.1883329 52.2611296,10.144 51.9624615,10.144 C51.6264598,10.144 51.3184629,10.1929995 51.0384615,10.291 C50.7584601,10.3890005 50.5181291,10.5149992 50.3174615,10.669 C50.1167938,10.8230008 49.9581287,10.997999 49.8414615,11.194 C49.7247942,11.390001 49.6664615,11.5906656 49.6664615,11.796 C49.6664615,11.9733342 49.7107944,12.099333 49.7994615,12.174 C49.8881286,12.248667 49.9977942,12.286 50.1284615,12.286 C50.361796,12.286 50.5204611,12.2230006 50.6044615,12.097 C50.6884619,11.9709994 50.7304615,11.7820013 50.7304615,11.53 C50.7304615,11.1939983 50.8167939,10.9116678 50.9894615,10.683 C51.162129,10.4543322 51.4771259,10.34 51.9344615,10.34 C52.2984633,10.34 52.5784605,10.4543322 52.7744615,10.683 C52.9704625,10.9116678 53.0684615,11.2499978 53.0684615,11.698 C53.0684615,12.239336 52.9541293,12.7339978 52.7254615,13.182 C52.4967937,13.6300022 52.1817968,13.9753321 51.7804615,14.218 C51.3977929,14.4513345 51.0034635,14.6169995 50.5974615,14.715 C50.1914594,14.8130005 49.8624627,14.8899997 49.6104615,14.946 Z" id="Step-3" fill="#4A4A4A"></path>
            <g id="Page-1" transform="translate(3.000000, 28.000000)">
                <path d="M1.28779157,26 C0.958265639,26 0.628739706,25.8666783 0.377370564,25.6004822 C-0.125790188,25.06809 -0.125790188,24.2046305 0.377370564,23.6722383 L14.8017346,8.39929412 C15.3048953,7.86690196 16.1202608,7.86690196 16.6229991,8.39929412 C17.1257374,8.93213367 17.1257374,9.79559322 16.6225766,10.3279854 L2.19821258,25.6004822 C1.94684344,25.8666783 1.61731751,26 1.28779157,26" id="Fill-1" fill="#CDCFCE"></path>
                <path d="M7.28749472,26 C6.95796367,26 6.62843262,25.8666783 6.37705957,25.6004822 C5.87431348,25.06809 5.87431348,24.2046305 6.37705957,23.6722383 L20.8020701,8.39929412 C21.3048162,7.86690196 22.1201943,7.86690196 22.6229404,8.39929412 C23.1256865,8.93213367 23.1256865,9.79559322 22.6229404,10.3279854 L8.19792987,25.6004822 C7.94655682,25.8666783 7.61702577,26 7.28749472,26" id="Fill-3" fill="#CDCFCE"></path>
                <path d="M13.2877876,26 C12.9582627,26 12.6283153,25.8666783 12.3773694,25.6004822 C11.8742102,25.06809 11.8742102,24.2046305 12.3773694,23.6722383 L26.8016886,8.39929412 C27.3048478,7.86690196 28.1197883,7.86690196 28.6229475,8.39929412 C29.1256842,8.93213367 29.1256842,9.79559322 28.6229475,10.3279854 L14.1982058,25.6004822 C13.9468374,25.8666783 13.6173125,26 13.2877876,26" id="Fill-5" fill="#CDCFCE"></path>
                <path d="M20.2877916,26 C19.9582656,26 19.6287397,25.8666783 19.3773706,25.6004822 C18.8742098,25.06809 18.8742098,24.2046305 19.3773706,23.6722383 L33.8021571,8.39929412 C34.3048953,7.86690196 35.1202608,7.86690196 35.6229991,8.39929412 C36.1257374,8.93213367 36.1257374,9.79559322 35.6225766,10.3279854 L21.1982126,25.6004822 C20.9468434,25.8666783 20.6173175,26 20.2877916,26" id="Fill-7" fill="#CDCFCE"></path>
                <path d="M27.2874459,26 C26.9579138,26 26.6283818,25.8666783 26.3770079,25.6004822 C25.8742603,25.06809 25.8742603,24.2046305 26.3774304,23.6722383 L40.8020633,8.39929412 C41.3052334,7.86690196 42.1201916,7.86690196 42.6229393,8.39929412 C43.1256869,8.93213367 43.1256869,9.79559322 42.6229393,10.3279854 L28.1978839,25.6004822 C27.9469326,25.8666783 27.616978,26 27.2874459,26" id="Fill-9" fill="#CDCFCE"></path>
                <path d="M33.2877876,26 C32.9582627,26 32.6283153,25.8666783 32.3773694,25.6004822 C31.8742102,25.06809 31.8742102,24.2046305 32.3773694,23.6722383 L46.8016886,8.39929412 C47.3048478,7.86690196 48.1197883,7.86690196 48.6229475,8.39929412 C49.1256842,8.93213367 49.1256842,9.79559322 48.6229475,10.3279854 L34.1982058,25.6004822 C33.9468374,25.8666783 33.6173125,26 33.2877876,26" id="Fill-11" fill="#CDCFCE"></path>
                <path d="M39.2877916,26 C38.9582656,26 38.6283172,25.8666783 38.3773706,25.6004822 C37.8742098,25.06809 37.8742098,24.2046305 38.3773706,23.6722383 L52.8017346,8.39929412 C53.3048953,7.86690196 54.1198383,7.86690196 54.6229991,8.39929412 C55.1257374,8.93213367 55.1257374,9.79559322 54.6225766,10.3279854 L40.1982126,25.6004822 C39.9468434,25.8666783 39.616895,26 39.2877916,26" id="Fill-13" fill="#CDCFCE"></path>
                <path d="M45.2874459,26 C44.9583363,26 44.6283818,25.8666783 44.3770079,25.6004822 C43.8742603,25.06809 43.8742603,24.2046305 44.3774304,23.6722383 L58.8020633,8.39929412 C59.3052334,7.86690196 60.1201916,7.86690196 60.6229393,8.39929412 C61.1256869,8.93213367 61.1256869,9.79559322 60.6229393,10.3279854 L46.1978839,25.6004822 C45.9469326,25.8666783 45.616978,26 45.2874459,26" id="Fill-15" fill="#CDCFCE"></path>
                <path d="M51.2877876,26 C50.9582627,26 50.6283153,25.8666783 50.3773694,25.6004822 C49.8742102,25.06809 49.8742102,24.2046305 50.3773694,23.6722383 L64.8016886,8.39929412 C65.3048478,7.86690196 66.1202107,7.86690196 66.6229475,8.39929412 C67.1256842,8.93213367 67.1256842,9.79559322 66.6229475,10.3279854 L52.1982058,25.6004822 C51.9468374,25.8666783 51.6173125,26 51.2877876,26" id="Fill-17" fill="#CDCFCE"></path>
                <path d="M1.28779157,26 C0.958265639,26 0.628739706,25.8666783 0.377370564,25.6004822 C-0.125790188,25.06809 -0.125790188,24.2046305 0.377370564,23.6722383 L14.8017346,8.39929412 C15.3048953,7.86690196 16.1202608,7.86690196 16.6229991,8.39929412 C17.1257374,8.93213367 17.1257374,9.79559322 16.6225766,10.3279854 L2.19821258,25.6004822 C1.94684344,25.8666783 1.61731751,26 1.28779157,26" id="Fill-19" fill="#CDCFCE"></path>
                <path d="M7.28749472,26 C6.95796367,26 6.62843262,25.8666783 6.37705957,25.6004822 C5.87431348,25.06809 5.87431348,24.2046305 6.37705957,23.6722383 L20.8020701,8.39929412 C21.3048162,7.86690196 22.1201943,7.86690196 22.6229404,8.39929412 C23.1256865,8.93213367 23.1256865,9.79559322 22.6229404,10.3279854 L8.19792987,25.6004822 C7.94655682,25.8666783 7.61702577,26 7.28749472,26" id="Fill-21" fill="#CDCFCE"></path>
                <path d="M13.2877876,26 C12.9582627,26 12.6283153,25.8666783 12.3773694,25.6004822 C11.8742102,25.06809 11.8742102,24.2046305 12.3773694,23.6722383 L26.8016886,8.39929412 C27.3048478,7.86690196 28.1197883,7.86690196 28.6229475,8.39929412 C29.1256842,8.93213367 29.1256842,9.79559322 28.6229475,10.3279854 L14.1982058,25.6004822 C13.9468374,25.8666783 13.6173125,26 13.2877876,26" id="Fill-23" fill="#CDCFCE"></path>
                <path d="M20.2877916,26 C19.9582656,26 19.6287397,25.8666783 19.3773706,25.6004822 C18.8742098,25.06809 18.8742098,24.2046305 19.3773706,23.6722383 L33.8021571,8.39929412 C34.3048953,7.86690196 35.1202608,7.86690196 35.6229991,8.39929412 C36.1257374,8.93213367 36.1257374,9.79559322 35.6225766,10.3279854 L21.1982126,25.6004822 C20.9468434,25.8666783 20.6173175,26 20.2877916,26" id="Fill-25" fill="#CDCFCE"></path>
                <path d="M27.2874459,26 C26.9579138,26 26.6283818,25.8666783 26.3770079,25.6004822 C25.8742603,25.06809 25.8742603,24.2046305 26.3774304,23.6722383 L40.8020633,8.39929412 C41.3052334,7.86690196 42.1201916,7.86690196 42.6229393,8.39929412 C43.1256869,8.93213367 43.1256869,9.79559322 42.6229393,10.3279854 L28.1978839,25.6004822 C27.9469326,25.8666783 27.616978,26 27.2874459,26" id="Fill-27" fill="#CDCFCE"></path>
                <path d="M33.2877876,26 C32.9582627,26 32.6283153,25.8666783 32.3773694,25.6004822 C31.8742102,25.06809 31.8742102,24.2046305 32.3773694,23.6722383 L46.8016886,8.39929412 C47.3048478,7.86690196 48.1197883,7.86690196 48.6229475,8.39929412 C49.1256842,8.93213367 49.1256842,9.79559322 48.6229475,10.3279854 L34.1982058,25.6004822 C33.9468374,25.8666783 33.6173125,26 33.2877876,26" id="Fill-29" fill="#CDCFCE"></path>
                <path d="M39.2877916,26 C38.9582656,26 38.6283172,25.8666783 38.3773706,25.6004822 C37.8742098,25.06809 37.8742098,24.2046305 38.3773706,23.6722383 L52.8017346,8.39929412 C53.3048953,7.86690196 54.1198383,7.86690196 54.6229991,8.39929412 C55.1257374,8.93213367 55.1257374,9.79559322 54.6225766,10.3279854 L40.1982126,25.6004822 C39.9468434,25.8666783 39.616895,26 39.2877916,26" id="Fill-31" fill="#CDCFCE"></path>
                <path d="M45.2874459,26 C44.9583363,26 44.6283818,25.8666783 44.3770079,25.6004822 C43.8742603,25.06809 43.8742603,24.2046305 44.3774304,23.6722383 L58.8020633,8.39929412 C59.3052334,7.86690196 60.1201916,7.86690196 60.6229393,8.39929412 C61.1256869,8.93213367 61.1256869,9.79559322 60.6229393,10.3279854 L46.1978839,25.6004822 C45.9469326,25.8666783 45.616978,26 45.2874459,26" id="Fill-33" fill="#CDCFCE"></path>
                <path d="M51.2877876,26 C50.9582627,26 50.6283153,25.8666783 50.3773694,25.6004822 C49.8742102,25.06809 49.8742102,24.2046305 50.3773694,23.6722383 L64.8016886,8.39929412 C65.3048478,7.86690196 66.1202107,7.86690196 66.6229475,8.39929412 C67.1256842,8.93213367 67.1256842,9.79559322 66.6229475,10.3279854 L52.1982058,25.6004822 C51.9468374,25.8666783 51.6173125,26 51.2877876,26" id="Fill-35" fill="#CDCFCE"></path>
                <path d="M51.6748478,26 L1.32515217,26 C0.59301429,26 0,25.328248 0,24.5 C0,23.671752 0.59301429,23 1.32515217,23 L51.6748478,23 C52.4069857,23 53,23.671752 53,24.5 C53,25.328248 52.4069857,26 51.6748478,26" id="Fill-37" fill="#CDCFCE"></path>
                <path d="M65,13.6405862 L65,9.35941383 C65,8.60879261 65.4475066,8 66,8 C66.5521654,8 67,8.60879261 67,9.35941383 L67,13.6405862 C67,14.3916534 66.5521654,15 66,15 C65.4475066,15 65,14.3916534 65,13.6405862" id="Fill-39" fill="#CDCFCE"></path>
                <g id="Group-43">
                    <mask id="mask-2" fill="white">
                        <use xlink:href="#path-1"></use>
                    </mask>
                    <g id="Clip-42"></g>
                    <path d="M50.4494638,28.058352 L50.4494638,23.9117252 C50.4494638,23.1846939 51.0435988,22.595034 51.7771202,22.595034 C52.5102061,22.595034 53.1047767,23.1846939 53.1047767,23.9117252 L53.1047767,28.058352 C53.1047767,28.7853833 52.5102061,29.3750432 51.7771202,29.3750432 C51.0435988,29.3750432 50.4494638,28.7853833 50.4494638,28.058352" id="Fill-41" fill="#CDCFCE" mask="url(#mask-2)"></path>
                </g>
                <path d="M15,13.6405862 L15,9.35941383 C15,8.60879261 15.4478346,8 16,8 C16.5521654,8 17,8.60879261 17,9.35941383 L17,13.6405862 C17,14.3916534 16.5521654,15 16,15 C15.4478346,15 15,14.3916534 15,13.6405862" id="Fill-44" fill="#CDCFCE"></path>
                <g id="Group-48" transform="translate(0.000000, 23.000000)">
                    <mask id="mask-4" fill="white">
                        <use xlink:href="#path-3"></use>
                    </mask>
                    <g id="Clip-47"></g>
                    <path d="M-8.57142857e-05,5.19433177 L-8.57142857e-05,1.34473281 C-8.57142857e-05,0.669779687 0.584914286,0.122357812 1.3062,0.122357812 C2.02748571,0.122357812 2.61248571,0.669779687 2.61248571,1.34473281 L2.61248571,5.19433177 C2.61248571,5.8692849 2.02748571,6.41670677 1.3062,6.41670677 C0.584914286,6.41670677 -8.57142857e-05,5.8692849 -8.57142857e-05,5.19433177" id="Fill-46" fill="#CDCFCE" mask="url(#mask-4)"></path>
                </g>
                <g id="Group-48-Copy" transform="translate(50.000000, 23.000000)">
                    <mask id="mask-6" fill="white">
                        <use xlink:href="#path-5"></use>
                    </mask>
                    <g id="Clip-47"></g>
                    <path d="M-8.57142857e-05,5.19433177 L-8.57142857e-05,1.34473281 C-8.57142857e-05,0.669779687 0.584914286,0.122357812 1.3062,0.122357812 C2.02748571,0.122357812 2.61248571,0.669779687 2.61248571,1.34473281 L2.61248571,5.19433177 C2.61248571,5.8692849 2.02748571,6.41670677 1.3062,6.41670677 C0.584914286,6.41670677 -8.57142857e-05,5.8692849 -8.57142857e-05,5.19433177" id="Fill-46" fill="#CDCFCE" mask="url(#mask-6)"></path>
                </g>
                <path d="M66.6748478,11 L16.3251522,11 C15.5930143,11 15,10.328248 15,9.5 C15,8.67175197 15.5930143,8 16.3251522,8 L66.6748478,8 C67.4069857,8 68,8.67175197 68,9.5 C68,10.328248 67.4069857,11 66.6748478,11" id="Fill-49" fill="#CDCFCE"></path>
                <path d="M63.8503954,6.02738473 C63.601235,5.40673589 62.9954501,5 62.3233669,5 L56.345683,5.00086082 L56.345683,5.00129123 L14.4771964,5.00129123 C14.041274,5.00129123 13.6231178,5.17302416 13.3145921,5.4794749 L1.4814213,17.2334965 C1.173329,17.5395169 1,17.9548609 1,18.3878517 L1,19.3674611 C1,20.2691666 1.73578161,21 2.64359224,21 L41.4497888,21 L50.2479688,21 L50.4897628,21 C50.9577511,21 52.8799697,20.8054554 53.1789622,20.4934094 L65,7.61085705 L65,6.69150482 C63.974759,6.4689837 63.9370599,6.24301931 63.8503954,6.02738473" id="Fill-51" fill="#38414F"></path>
                <polygon id="Fill-53" fill="#F6F6F6" points="62.9873146 6.01318236 62.9995626 6 14.9452342 6 3 17.9998986 3 18.9995606 3 19 51.0547658 19 51.0552032 18.9995606 51.0552032 19 63 6.99878317 63 6"></polygon>
                <polygon id="Stroke-55" stroke="#000000" stroke-width="0.759" stroke-linecap="round" stroke-linejoin="round" points="62 6 50 17.9998648 50 19 62 6.99881693"></polygon>
                <polyline id="Stroke-57" stroke="#000000" stroke-width="0.759" stroke-linecap="round" stroke-linejoin="round" points="15 6 3 17.9998648 3 19"></polyline>
                <polyline id="Stroke-59" stroke="#000000" stroke-width="0.759" stroke-linecap="round" stroke-linejoin="round" points="3 19 51 19 51 18 3.06553915 18"></polyline>
                <path d="M63,6 L15,6" id="Stroke-61" stroke="#000000" stroke-width="0.759" stroke-linecap="round" stroke-linejoin="round"></path>
                <path d="M67.536,5 L67,5.537" id="Stroke-63" stroke="#000000" stroke-width="0.759" stroke-linecap="round" stroke-linejoin="round"></path>
                <path d="M66,6 L52,20" id="Stroke-65" stroke="#000000" stroke-width="0.759" stroke-linecap="round" stroke-linejoin="round" stroke-dasharray="1.572,2.358"></path>
                <path d="M51.536,21 L51,21.536" id="Stroke-67" stroke="#000000" stroke-width="0.759" stroke-linecap="round" stroke-linejoin="round"></path>
                <g id="Group-71" transform="translate(66.000000, 0.000000)" fill="#6D7A68">
                    <path d="M1.51583333,5.69507143 C1.75916667,5.8215 2.05208333,5.62992857 2.16833333,5.26307143 L2.81,3.36707143 L3.355,3.34392857 C3.33541667,3.78707143 3.56666667,4.12564286 3.89458333,4.11407143 C4.24083333,4.10121429 4.58083333,3.69792857 4.65458333,3.21321429 C4.72833333,2.72807143 4.48916667,2.35007143 4.12041667,2.36807143 C3.8675,2.3805 3.62625,2.57464286 3.48458333,2.85021429 L2.80583333,2.88107143 L3.11666667,2.03035714 C3.35833333,1.97207143 3.59125,1.75478571 3.71458333,1.44064286 C3.8975,0.981642857 3.765,0.494357143 3.41166667,0.353357143 C3.05375,0.213214286 2.62375,0.469928571 2.45875,0.924214286 C2.30541667,1.35364286 2.43291667,1.80921429 2.73583333,1.97892857 L2.48958333,2.67192857 L0.952916667,2.74478571 C0.654166667,2.75892857 0.4125,3.08721429 0.4125,3.46864286 L2.2425,3.39107143 L1.51583333,5.69507143 Z M3.85833333,2.8785 C4.03041667,2.7285 4.23708333,2.76835714 4.31666667,2.9685 C4.39458333,3.16907143 4.3175,3.45364286 4.14708333,3.60364286 C3.97875,3.75321429 3.78,3.71121429 3.69958333,3.51107143 C3.61791667,3.31135714 3.68791667,3.0285 3.85833333,2.8785 L3.85833333,2.8785 Z M2.91541667,0.829071429 C3.09375,0.677357143 3.31833333,0.712928571 3.41416667,0.908785714 C3.50833333,1.1055 3.43958333,1.38792857 3.26375,1.53921429 C3.08916667,1.69007143 2.87208333,1.65278571 2.77541667,1.45692857 C2.67791667,1.26107143 2.73958333,0.980357143 2.91541667,0.829071429 L2.91541667,0.829071429 Z" id="Fill-69"></path>
                </g>
            </g>
        </g>
    </g>
</svg>