<svg xmlns="http://www.w3.org/2000/svg" viewBox="0 0 84 84"><defs><style>.cls-1{fill:#556774;}</style></defs><title>BrentwoodHome_Guranatee_FINAL_ALL</title><g id="Layer_2" data-name="Layer 2"><path class="cls-1" d="M42.32,69.86A27.86,27.86,0,1,1,70.18,42,27.89,27.89,0,0,1,42.32,69.86Zm0-54A26.16,26.16,0,1,0,68.48,42,26.19,26.19,0,0,0,42.32,15.84Z"/><path class="cls-1" d="M75.88,40.83a.48.48,0,0,0,0-.76l-2.66-1.9a.48.48,0,0,1-.1-.69l2.1-2.61a.48.48,0,0,0-.17-.74l-3-1.4a.48.48,0,0,1-.23-.67l1.59-2.92a.48.48,0,0,0-.3-.69l-3.16-.82a.48.48,0,0,1-.33-.62l1.08-3.18a.48.48,0,0,0-.42-.63l-3.29-.26a.48.48,0,0,1-.44-.55l.51-3.3a.48.48,0,0,0-.52-.55l-3.3.32a.49.49,0,0,1-.53-.46L62.5,15a.47.47,0,0,0-.61-.44l-3.25,1a.49.49,0,0,1-.61-.36l-.69-3.24a.5.5,0,0,0-.69-.33l-3,1.46a.48.48,0,0,1-.66-.25L51.74,9.69a.48.48,0,0,0-.73-.2l-2.66,2a.47.47,0,0,1-.69-.13L45.88,8.54a.48.48,0,0,0-.75-.08L42.75,11a.47.47,0,0,1-.69,0L39.77,8.55a.49.49,0,0,0-.76.07L37.24,11.4a.48.48,0,0,1-.7.13l-2.65-2a.49.49,0,0,0-.74.2l-1.27,3.11a.48.48,0,0,1-.66.25l-3-1.46a.48.48,0,0,0-.68.33l-.7,3.24a.49.49,0,0,1-.61.36l-3.24-1a.48.48,0,0,0-.62.44l-.13,3.39a.49.49,0,0,1-.52.46l-3.31-.32a.48.48,0,0,0-.52.55l.51,3.3a.48.48,0,0,1-.44.55l-3.37.26a.48.48,0,0,0-.42.63L15.27,27a.49.49,0,0,1-.34.62l-3.23.82a.48.48,0,0,0-.31.7L13,32.06a.49.49,0,0,1-.22.67L9.7,34.13a.48.48,0,0,0-.17.74l2.1,2.6a.5.5,0,0,1-.1.7L8.8,40.07a.48.48,0,0,0,0,.76L11.31,43a.47.47,0,0,1,0,.69L9.12,46.11a.48.48,0,0,0,.12.74l2.86,1.66a.47.47,0,0,1,.16.68L10.41,52a.49.49,0,0,0,.24.72l3.12,1.14a.49.49,0,0,1,.27.65l-1.33,3.05a.48.48,0,0,0,.35.67l3.31.57a.47.47,0,0,1,.38.59l-.82,3.23a.48.48,0,0,0,.48.59l3.36-.06a.49.49,0,0,1,.49.51L20.07,67a.48.48,0,0,0,.57.5L24,66.81a.48.48,0,0,1,.56.42l.38,3.29a.48.48,0,0,0,.66.39l3.11-1.2a.47.47,0,0,1,.63.3l1,3.19a.48.48,0,0,0,.7.26l2.87-1.72a.49.49,0,0,1,.68.2l1.52,3a.48.48,0,0,0,.75.14l2.47-2.22a.49.49,0,0,1,.7.07l2,2.59a.48.48,0,0,0,.76,0l2-2.59a.49.49,0,0,1,.7-.07L48,75.06a.48.48,0,0,0,.75-.14l1.52-3a.49.49,0,0,1,.68-.2l2.86,1.72a.49.49,0,0,0,.71-.26l1-3.19a.47.47,0,0,1,.63-.3l3.11,1.2a.47.47,0,0,0,.65-.39l.38-3.29a.49.49,0,0,1,.57-.42l3.31.64a.48.48,0,0,0,.57-.5l-.19-3.29a.49.49,0,0,1,.49-.51l3.37.07a.49.49,0,0,0,.48-.6l-.76-3.23a.48.48,0,0,1,.38-.59l3.32-.57a.49.49,0,0,0,.36-.67l-1.34-3.05a.49.49,0,0,1,.28-.65l3.11-1.14a.48.48,0,0,0,.23-.72l-1.91-2.81a.47.47,0,0,1,.15-.68l2.85-1.65a.48.48,0,0,0,.1-.75L73.3,43.69a.48.48,0,0,1,0-.7ZM42.32,71.22A29.22,29.22,0,1,1,71.54,42,29.26,29.26,0,0,1,42.32,71.22Z"/><path class="cls-1" d="M57.63,27.06a.39.39,0,0,1-.26-.1,22,22,0,0,0-30.1,0,.38.38,0,0,1-.51-.55,22.8,22.8,0,0,1,31.13,0,.38.38,0,0,1,0,.53A.36.36,0,0,1,57.63,27.06Z"/><path class="cls-1" d="M30.89,57.9l0-3.89,1.3.84L32,57.29l2.22-1.1,1.25.8-3.55,1.58-1.31,2-1.05-.68Z"/><path class="cls-1" d="M36.53,57.27l3.76.83L40,59.23l-2.54-.56-.23,1,2.4.53-.25,1.12L37,60.83,36.77,62l2.68.59-.24,1.13-3.9-.86Z"/><path class="cls-1" d="M43.81,58l1-.15L48.11,63l-1.39.21-.66-1.11-2.18.33-.28,1.26-1.36.21Zm.72,1.56-.42,1.84,1.37-.21Z"/><path class="cls-1" d="M48.27,56.87l1.89-1.11c1-.59,2.05-.74,2.72.4a1.47,1.47,0,0,1-.27,2l2.45,1.33-1.29.76L51.6,58.86l-.53.31,1.15,1.95-1.08.64Zm2.27,1.39.63-.37c.39-.23.9-.55.58-1.08s-.77-.3-1.16-.07l-.71.41Z"/><path class="cls-1" d="M28.22,55.72a.36.36,0,0,1-.24-.09,20.5,20.5,0,0,1-4.66-5.7.38.38,0,1,1,.66-.36,19.61,19.61,0,0,0,4.48,5.49.38.38,0,0,1,.05.53A.37.37,0,0,1,28.22,55.72Z"/><path class="cls-1" d="M56.39,55.75a.36.36,0,0,1-.29-.13.39.39,0,0,1,0-.53,19.59,19.59,0,0,0,4.36-5.23.36.36,0,0,1,.51-.13.37.37,0,0,1,.14.51,20.67,20.67,0,0,1-4.52,5.42A.38.38,0,0,1,56.39,55.75Z"/><path class="cls-1" d="M40.45,36.89h.89a11.56,11.56,0,0,0,1.46-.09,3.78,3.78,0,0,0,1.26-.37,2.29,2.29,0,0,0,.91-.84,2.7,2.7,0,0,0,.34-1.46,2.53,2.53,0,0,0-.8-1.93,3,3,0,0,0-2.1-.75,3.14,3.14,0,0,0-1.86.59,3.42,3.42,0,0,0-1.19,1.66l-3.65-1a6.11,6.11,0,0,1,1-2,5.5,5.5,0,0,1,1.49-1.36,6.52,6.52,0,0,1,1.9-.79,9,9,0,0,1,2.16-.26,8.88,8.88,0,0,1,2.5.34,6.67,6.67,0,0,1,2.07,1,5.21,5.21,0,0,1,1.42,1.7,5.11,5.11,0,0,1,.53,2.37,4.88,4.88,0,0,1-.92,2.92,4.32,4.32,0,0,1-2.56,1.68v.06a4.22,4.22,0,0,1,3,1.67,5.41,5.41,0,0,1,1,3.27A5.77,5.77,0,0,1,48.69,46a5.59,5.59,0,0,1-1.51,1.89A6.78,6.78,0,0,1,45,49a9,9,0,0,1-2.6.38A10.24,10.24,0,0,1,40,49.12a6.5,6.5,0,0,1-2-.85,5.52,5.52,0,0,1-1.57-1.48,6.59,6.59,0,0,1-1-2.17l3.68-1a3.68,3.68,0,0,0,1.12,2,3.27,3.27,0,0,0,2.19.69,3.84,3.84,0,0,0,1.31-.23,3.43,3.43,0,0,0,1.09-.65,3.1,3.1,0,0,0,.75-1,3.13,3.13,0,0,0,.27-1.31,2.8,2.8,0,0,0-.42-1.6,2.84,2.84,0,0,0-1.06-1,4.46,4.46,0,0,0-1.45-.44A10.81,10.81,0,0,0,41.29,40h-.84Z"/></g></svg>