<?xml version="1.0" encoding="UTF-8"?>
<svg width="75px" height="75px" viewBox="0 0 75 75" version="1.1" xmlns="http://www.w3.org/2000/svg" xmlns:xlink="http://www.w3.org/1999/xlink">
    <!-- Generator: Sketch 46.2 (44496) - http://www.bohemiancoding.com/sketch -->
    <title>icon-MoistureWicking</title>
    <desc>Created with Sketch.</desc>
    <defs>
        <polygon id="path-1" points="74.3964286 0.551485714 74.3964286 5.68662857 0.35875 5.68662857 0.35875 0.551485714"></polygon>
    </defs>
    <g id="Page-1" stroke="none" stroke-width="1" fill="none" fill-rule="evenodd">
        <g id="icon-MoistureWicking">
            <g transform="translate(0.000000, 1.000000)">
                <path d="M24.3580324,60 C24.3223695,60 24.2876705,59.9980571 24.2520076,59.9912568 C21.5560859,59.6046146 19.6688444,57.1361273 20.0486059,54.4869479 C20.0910159,54.18288 20.4100541,53.9633293 20.7637915,54.0051022 C21.115601,54.0420178 21.367169,54.3198562 21.3218675,54.6239241 C21.0278896,56.6882829 22.435128,58.6030363 24.4611656,58.8935037 C24.8129752,58.9440198 25.0491214,59.2306014 24.9912897,59.5327263 C24.9382773,59.8066789 24.6645405,60 24.3580324,60 Z" id="Fill-33" fill="#FFFFFF" fill-rule="nonzero"></path>
                <path d="M35.2203747,71 C35.1778427,71 35.1353108,70.996398 35.0918927,70.9873929 C31.2268012,70.3363239 28.5242498,66.1696628 29.0700766,61.6950271 C29.1223554,61.2618817 29.5122317,60.9485041 29.9393234,61.0070372 C30.3664152,61.0601674 30.6721136,61.4563919 30.6171765,61.8904378 C30.1741353,65.5303005 32.2945305,68.9072141 35.3453123,69.422306 C35.772404,69.4934463 36.0594947,69.9022779 35.9894942,70.3336224 C35.9248102,70.7271454 35.5960736,71 35.2203747,71" id="Fill-35" fill="#FFFFFF" fill-rule="nonzero"></path>
                <path d="M20.9838224,14.34493 L23.5789849,13.6383276 L17.5215702,10 L14,16.2559071 L16.5960349,15.544804 L20.0111816,28.8559341 C22.3420301,28.9675503 23.8616178,29.510329 25,30 L20.9838224,14.34493 Z" id="Fill-37" fill="#414A59" fill-rule="nonzero"></path>
                <path d="M40.2056075,28.9991005 L40.2056075,7.02804057 L44,7.02804057 L36.9973115,0 L30,7.02804057 L33.7952887,7.02804057 L33.7952887,29 C34.6878761,28.8218927 35.7355012,28.702255 36.9982077,28.702255 C38.2627064,28.702255 39.3121239,28.8209932 40.2056075,28.9991005" id="Fill-39" fill="#414A59" fill-rule="nonzero"></path>
                <path d="M57.4060717,15.5443049 L60,16.2562441 L56.4801046,10 L50.4255707,13.6389001 L53.019499,14.3445389 L49,30 C50.1395847,29.5121732 51.6610653,28.9658431 53.9916772,28.854237 L57.4060717,15.5443049 Z" id="Fill-41" fill="#414A59" fill-rule="nonzero"></path>
                <g id="Group-45" transform="translate(0.000000, 31.000000)">
                    <g id="Fill-43-Clipped">
                        <mask id="mask-2" fill="white">
                            <use xlink:href="#path-1"></use>
                        </mask>
                        <g id="path-1"></g>
                        <path d="M59.0775,4.63748571 C57.9989286,4.19262857 57.0498214,3.8112 55.0391071,3.8112 C53.0194643,3.8112 52.0676786,4.2012 50.9667857,4.6512 L50.6891071,4.76348571 C49.6783929,5.17491429 48.42125,5.68662857 46.2078571,5.68662857 C43.8292857,5.68662857 42.5319643,5.17148571 41.4176786,4.63748571 C40.3382143,4.19262857 39.3891071,3.8112 37.3783929,3.8112 C35.35875,3.8112 34.4069643,4.2012 33.3060714,4.6512 L33.0292857,4.76348571 C32.0185714,5.17491429 30.7605357,5.68662857 28.5480357,5.68662857 C26.1685714,5.68662857 24.87125,5.17148571 23.7569643,4.63748571 C22.6775,4.19262857 21.7275,3.8112 19.7176786,3.8112 C17.6980357,3.8112 16.74625,4.2012 15.6453571,4.6512 L15.3676786,4.76348571 C14.3578571,5.17491429 13.1007143,5.68662857 10.8873214,5.68662857 C8.50875,5.68662857 7.21053571,5.17148571 6.09625,4.63748571 C5.01678571,4.19262857 4.06678571,3.8112 2.05696429,3.8112 C1.11946429,3.8112 0.35875,3.08177143 0.35875,2.18177143 C0.35875,1.28091429 1.11946429,0.551485714 2.05696429,0.551485714 C4.79446429,0.551485714 6.22303571,1.1412 7.48285714,1.66148571 L7.57303571,1.70262857 C8.45428571,2.12691429 9.20785714,2.42691429 10.8873214,2.42691429 C12.4105357,2.42691429 13.1667857,2.1192 14.0426786,1.76262857 L14.30875,1.65462857 C15.5748214,1.13605714 17.0042857,0.551485714 19.7176786,0.551485714 C22.4551786,0.551485714 23.88375,1.1412 25.1435714,1.66148571 L25.23375,1.70262857 C26.115,2.12691429 26.8685714,2.42691429 28.5480357,2.42691429 C30.07125,2.42691429 30.8275,2.1192 31.7042857,1.76177143 L31.9694643,1.65462857 C33.2355357,1.13605714 34.665,0.551485714 37.3783929,0.551485714 C40.1158929,0.551485714 41.5444643,1.1412 42.8042857,1.66148571 L42.8944643,1.70262857 C43.7757143,2.12691429 44.5292857,2.42691429 46.2078571,2.42691429 C47.7310714,2.42691429 48.4873214,2.1192 49.3632143,1.76262857 L49.6301786,1.65462857 C50.89625,1.13605714 52.3257143,0.551485714 55.0391071,0.551485714 C57.7766071,0.551485714 59.2042857,1.1412 60.4641071,1.66148571 L60.5542857,1.70262857 C61.4355357,2.12691429 62.19,2.42691429 63.8685714,2.42691429 C65.3917857,2.42691429 66.1480357,2.1192 67.0248214,1.76262857 L67.2908929,1.65462857 C68.5569643,1.13605714 69.9864286,0.551485714 72.6989286,0.551485714 C73.6364286,0.551485714 74.3971429,1.28091429 74.3971429,2.18177143 C74.3971429,3.08177143 73.6364286,3.8112 72.6989286,3.8112 C70.6792857,3.8112 69.7283929,4.2012 68.6266071,4.6512 L68.3498214,4.76348571 C67.34,5.17491429 66.0819643,5.68662857 63.8685714,5.68662857 C61.49,5.68662857 60.1926786,5.17148571 59.0775,4.63748571 Z" id="Fill-43" fill="#414A59" fill-rule="nonzero" mask="url(#mask-2)"></path>
                    </g>
                </g>
                <path d="M50.4177168,41.4930784 C50.2614721,41.1924852 49.9388128,41.0017579 49.5865688,41 L49.5847198,41 C49.2315512,41 48.9098165,41.1907273 48.7517227,41.4895627 C48.4114975,42.1364535 46.4940325,45.8033399 45,49.2417051 C47.0117665,53.6108548 48.9042693,58.1962206 49.4340222,60.9929686 C49.484871,60.9938475 49.5338709,61 49.5847198,61 C53.1228771,61 56.0018482,58.263898 55.9999991,54.9002417 C55.9999991,52.2775214 50.9881488,42.5891013 50.4177168,41.4930784" id="Fill-46" fill="#414A59" fill-rule="nonzero"></path>
                <path d="M24.9759786,41.4930784 C24.8256228,41.1924852 24.5160142,41.0017579 24.1770463,41 L24.1752669,41 C23.8354093,41 23.5258007,41.1907273 23.3736655,41.4895627 C22.8247331,42.5741595 18,52.1535926 18,54.9002417 C18,58.263898 20.769573,61 24.1752669,61 C24.5418149,61 24.8994662,60.9622061 25.2482206,60.9015601 C25.7241993,58.2902659 27.2704626,54.2726873 29,50.3078444 C27.5293594,46.617227 25.3362989,42.2111624 24.9759786,41.4930784" id="Fill-48" fill="#414A59" fill-rule="nonzero"></path>
                <path d="M37,73 C31.4868777,73 27,68.4078896 27,62.7654655 C27,58.077872 35.0460371,41.5289625 35.9632924,39.657673 C36.1603453,39.2561088 36.5622984,39 37.0026157,39 L37.0043596,39 C37.444677,39.0026771 37.84663,39.2578935 38.0419391,39.6621349 C38.9591943,41.5548411 47,58.2938243 47,62.7654655 C47,68.4105667 42.5157381,73 37,73 Z" id="Fill-50" fill="#414A59" fill-rule="nonzero"></path>
                <path d="M35.2203747,71 C35.1778427,71 35.1353108,70.996398 35.0918927,70.9873929 C31.2268012,70.3363239 28.5242498,66.1696628 29.0700766,61.6950271 C29.1223554,61.2618817 29.5122317,60.9485041 29.9393234,61.0070372 C30.3664152,61.0601674 30.6712275,61.4563919 30.6171765,61.8904378 C30.1741353,65.5303005 32.2945305,68.9072141 35.3453123,69.422306 C35.772404,69.4934463 36.0594947,69.9022779 35.9894942,70.3336224 C35.9248102,70.7271454 35.5951875,71 35.2203747,71" id="Fill-52" fill="#FFFFFF" fill-rule="nonzero"></path>
            </g>
        </g>
    </g>
</svg>