<svg xmlns="http://www.w3.org/2000/svg" viewBox="0 0 84 84"><defs><style>.cls-1{fill:#556774;}.cls-2{fill:#556875;}</style></defs><title>BrentwoodHome_Guranatee_FINAL_ALL</title><g id="Layer_2" data-name="Layer 2"><path class="cls-1" d="M52,71.41a.85.85,0,0,1-.56-.21.84.84,0,0,1-.31-.63,2.3,2.3,0,0,0-.5-1.46.73.73,0,0,1-.15-.32,5.51,5.51,0,0,0-3.4-4c-1.86-.41-2.63-.59-2.54-1.48a2,2,0,0,1,.07-.3,1.19,1.19,0,0,0,.06-.37h0a1,1,0,0,0-.4-.13l-.53-.1c-2.12-.4-2.76-.52-3.58-1.7l-.33.06a1.71,1.71,0,0,1-1.51-.22l-.25-.22c-.29-.26-.88-.8-1.12-.77a9.58,9.58,0,0,0-1.78.82,1.42,1.42,0,0,1-.68.25,1.17,1.17,0,0,1-.84-.33c-.63-.6-.7-1.9-.73-3.82v-.4a1.54,1.54,0,0,1-1.53-.44,1.06,1.06,0,0,1-.13-1A6.33,6.33,0,0,0,30,53.43a3.53,3.53,0,0,1-.43-.37c-.24-.27-2.46-3.56-2.7-4.76a1.72,1.72,0,0,0-.24-.54,1.36,1.36,0,0,1-.19-1.36,1.41,1.41,0,0,1,1.12-.66,2.45,2.45,0,0,0-.2-.81,2.18,2.18,0,0,1-1,.39h0c-1.39,0-2.25-4.21-2.26-4.25a1.14,1.14,0,0,1,.59-1.13c.64-.33,1.37.05,2,.39l.23.12a8,8,0,0,0,.84-.41l-.31-.33c-1.05-1.13-2.45-2.63-2.23-4.26a5.11,5.11,0,0,0-.75-.05A1.54,1.54,0,0,0,24,36c0,1.28-.9,1.37-1.09,1.38s-.73-.08-2.58-1.29A5.18,5.18,0,0,1,18.37,34l-.18-.32a1,1,0,0,1-.11-.3,4,4,0,0,1,.34-2.08l.15-.43a3.3,3.3,0,0,0-.77-1.5.88.88,0,0,1-.22-.44,10.9,10.9,0,0,0-1.83-4,9.8,9.8,0,0,1-.58-1,.61.61,0,0,1-.05-.12c-.18-.53.06-1.09,1.13-3.25.22-.46.46-.94.56-1.18a1,1,0,0,1-.1-1h0c.35-.75,0-1.41-.42-2.2a2.14,2.14,0,0,1-.43-1.31A5.85,5.85,0,0,1,16.65,13a.87.87,0,0,1,.77-.45H38.14a.87.87,0,0,1,.88.88V31.31L65.94,54.4a.87.87,0,0,1,.3.75,1.51,1.51,0,0,0,.1.72,8.43,8.43,0,0,1,.92,1.78c0,.12.08.22.12.31a2.46,2.46,0,0,0,.6.31,1.77,1.77,0,0,1,.63.38h0a1.67,1.67,0,0,1,.31,1.27A1.91,1.91,0,0,1,68,61.32a2.11,2.11,0,0,1-1.29.28c0,.19,0,.41.07.6.18,1.4.26,2.28-.19,2.84a1.16,1.16,0,0,1-.65.39.64.64,0,0,0,0,.35c.11.14.23.17.58.22a1.8,1.8,0,0,1,1.13.51.87.87,0,0,1,.21.43c.19,1.11,0,1.87-.65,2.26a3.9,3.9,0,0,1-1.26.46L52.13,71.4Zm.15-3.18a4.23,4.23,0,0,1,.61,1.33L65.7,67.93a2.81,2.81,0,0,0,.47-.16v0a2.24,2.24,0,0,1-1.62-.88,2.07,2.07,0,0,1-.21-2,1.77,1.77,0,0,1,.87-1,13.87,13.87,0,0,0-.13-1.42A12.76,12.76,0,0,1,65,61.09a1.09,1.09,0,0,1,.22-.86,1.51,1.51,0,0,1,1.39-.39,2.6,2.6,0,0,0,.56,0s0,0,0,0a3.84,3.84,0,0,1-1.07-.66.83.83,0,0,1-.19-.26c-.08-.15-.16-.36-.26-.59a6.54,6.54,0,0,0-.7-1.4,2.75,2.75,0,0,1-.44-1.45L37.58,32.38a.86.86,0,0,1-.31-.66V14.34H17.94c-.13.25-.23.47-.3.62s.11.21.17.3a4.16,4.16,0,0,1,.65,3.39,1.51,1.51,0,0,1,0,1.25c-.11.29-.35.78-.66,1.4s-.78,1.59-.95,2.05l.35.54a12.75,12.75,0,0,1,2,4.43,4.71,4.71,0,0,1,1.08,2.5,1.1,1.1,0,0,1,0,.26,7,7,0,0,1-.25.78,2.78,2.78,0,0,0-.26,1.06l.1.18a3.54,3.54,0,0,0,1.37,1.53c.49.32.85.54,1.1.69a2.72,2.72,0,0,1,2-1.67c1.27,0,2.09.22,2.48.74A1.24,1.24,0,0,1,27,35.54c-.27.82.94,2.11,1.74,3,.33.36.64.68.85,1a1.05,1.05,0,0,1,.11,1.12c-.42.88-2.37,1.64-2.76,1.66a1.72,1.72,0,0,1-.8-.24,11.51,11.51,0,0,0,.52,1.31,4.46,4.46,0,0,1,.61-.29,1.26,1.26,0,0,1,.27,0h0c1.11,0,1.68,1.66,1.74,2.57a1.67,1.67,0,0,1-.91,1.78,2.59,2.59,0,0,1,.2.63,22.6,22.6,0,0,0,2.29,3.93l.21.16A5,5,0,0,1,33,54.3l.15,0c.23,0,.43-.05.53-.06,1,0,1,.9,1,2.25a21.4,21.4,0,0,0,.12,2.15,7,7,0,0,1,1.9-.78A3.29,3.29,0,0,1,39.27,59l0,0,.23,0c.55-.09,1.47-.26,2,.52s.47.74,2.56,1.13l.53.1a2.19,2.19,0,0,1,1.56.94,1.73,1.73,0,0,1,.26,1.1c.24.07.58.15,1,.25l.14,0A7.24,7.24,0,0,1,52.17,68.23Zm14.51-7.46Zm.79-.82h0ZM32.92,55.22ZM23,35.64ZM16.81,23.52Z"/><path class="cls-2" d="M39.18,57.74a.4.4,0,0,1-.21-.07.37.37,0,0,1-.14-.42l.87-2.77-2.38-1.75a.37.37,0,0,1-.13-.42.37.37,0,0,1,.35-.25h2.9l.92-2.75a.36.36,0,0,1,.35-.26h0a.37.37,0,0,1,.36.26L43,52.06h2.9a.37.37,0,0,1,.23.67l-2.37,1.75.91,2.76a.37.37,0,0,1-.13.42.36.36,0,0,1-.44,0L41.72,56l-2.31,1.71A.4.4,0,0,1,39.18,57.74Zm2.53-2.64a.35.35,0,0,1,.22.08l1.64,1.19-.63-1.92a.38.38,0,0,1,.13-.42l1.67-1.22h-2a.38.38,0,0,1-.35-.26l-.64-1.94-.65,1.94a.38.38,0,0,1-.35.26h-2L40.36,54a.4.4,0,0,1,.14.42l-.61,1.92,1.6-1.19A.37.37,0,0,1,41.71,55.1Z"/></g></svg>