<?xml version="1.0" encoding="utf-8"?>
<!-- Generator: Adobe Illustrator 16.0.0, SVG Export Plug-In . SVG Version: 6.00 Build 0)  -->
<!DOCTYPE svg PUBLIC "-//W3C//DTD SVG 1.1//EN" "http://www.w3.org/Graphics/SVG/1.1/DTD/svg11.dtd">
<svg version="1.1" id="Layer_1" xmlns="http://www.w3.org/2000/svg" xmlns:xlink="http://www.w3.org/1999/xlink" x="0px" y="0px"
	 width="84px" height="84px" viewBox="0 0 84 84" enable-background="new 0 0 84 84" xml:space="preserve">
<g>
	<g>
		<g>
			<g>
				<path fill="#464D5A" d="M22.232,48.573c-3.268-3.042-2.02-7.095-1.488-8.823c1.062-3.469,7.672-16.967,20.555-19.66
					c4.285-0.899,8.598-0.49,12.812,1.207c5.236,2.109,8.969,5.654,10.725,7.58c0.428,0.471,1.424,1.582,1.424,1.582l1.164,1.491
					c0,0-0.795-0.185-1.281-0.249c-0.533-0.068-1.125-0.06-1.512,0.023c-4.887,1.045-9.025,3.951-11.871,8.325
					c-4.898,7.543-7.758,9.723-14.58,11.093c-6.225,1.251-10.311,0.395-12.641-0.543C23.891,49.935,22.832,49.131,22.232,48.573z
					 M63.74,29.875c-1.672-1.834-5.217-5.206-10.184-7.206c-3.939-1.587-7.961-1.968-11.955-1.132
					c-13.799,2.886-19.398,18.49-19.445,18.645c-0.742,2.423-1.195,5.188,1.086,7.307c0.506,0.474,1.416,1.16,2.85,1.736
					c2.143,0.864,5.934,1.646,11.793,0.469c6.408-1.287,8.959-3.24,13.639-10.446c2.99-4.608,7.451-7.784,12.584-8.971
					C63.971,30.119,63.84,29.979,63.74,29.875z"/>
			</g>
		</g>
	</g>
	<path fill="#464D5A" d="M19.129,55.837c0.42,3.349,1.889,6.249,2.191,6.908c0.162,0.354,0.053,0.542-0.094,0.691
		c-0.145,0.152-2.166,0.786-2.312,0.856c-0.527,0.253-0.826-0.097-0.973-0.864c-0.285-1.482-0.971-4.571-1.211-6.842
		c-1.016-9.642,3.084-15.056,9.932-20.516c4.318-3.441,10.018-7.24,15.811-8.367c0.781-0.153,1.549,0,0.25,0.611
		c-3.068,1.445-8.777,4.792-14.08,8.903C20.844,43.267,18.271,48.972,19.129,55.837z"/>
</g>
</svg>
