<?xml version="1.0" encoding="UTF-8"?>
<svg width="75px" height="75px" viewBox="0 0 75 75" version="1.1" xmlns="http://www.w3.org/2000/svg" xmlns:xlink="http://www.w3.org/1999/xlink">
    <!-- Generator: Sketch 46.2 (44496) - http://www.bohemiancoding.com/sketch -->
    <title>icon-AirCirculation</title>
    <desc>Created with Sketch.</desc>
    <defs></defs>
    <g id="Page-1" stroke="none" stroke-width="1" fill="none" fill-rule="evenodd">
        <g id="icon-AirCirculation" fill="#414A59">
            <g id="Page-1" transform="translate(4.000000, 16.000000)">
                <path d="M25.5326827,0 C30.2015119,0 34,3.81328101 34,8.49970739 C34,13.186719 30.2015119,17 25.5326827,17 L4.32387453,17 C3.592275,17 3,16.404248 3,15.6703845 C3,14.9359358 3.592275,14.340769 4.32387453,14.340769 L25.5326827,14.340769 C28.7412276,14.340769 31.351085,11.7207477 31.351085,8.49970739 C31.351085,5.2792523 28.7412276,2.65923095 25.5326827,2.65923095 C22.3247207,2.65923095 19.7148633,5.2792523 19.7148633,8.49970739 C19.7148633,8.68639196 19.7230246,8.87424696 19.740513,9.05917588 C19.8093008,9.79011326 19.2753206,10.4385349 18.5466358,10.5075906 C17.8127045,10.5766464 17.1720448,10.0394162 17.1038399,9.30847878 C17.0787732,9.04103411 17.0659483,8.76890771 17.0659483,8.49970739 C17.0659483,3.81328101 20.8638535,0 25.5326827,0" id="Fill-1"></path>
                <path d="M24.8199761,22.3665083 L39.1810413,22.3665083 C44.9050413,22.3665083 49.5613674,26.994675 49.5613674,32.6833417 C49.5613674,38.371425 44.9050413,43.000175 39.1810413,43.000175 C33.4570413,43.000175 28.7995413,38.371425 28.7995413,32.6833417 C28.7995413,32.354925 28.8159761,32.0247583 28.8464978,31.6998417 C28.9163457,30.9718417 29.5661065,30.4375083 30.3003891,30.5063417 C31.0334978,30.575175 31.57115,31.222675 31.5013022,31.9512583 C31.4784109,32.1927583 31.4666717,32.438925 31.4666717,32.6833417 C31.4666717,36.9107583 34.9273674,40.3495083 39.1810413,40.3495083 C43.4341283,40.3495083 46.894237,36.9107583 46.894237,32.6833417 C46.894237,28.4553417 43.4341283,25.0165917 39.1810413,25.0165917 L24.8199761,25.0165917 C24.0833457,25.0165917 23.4869978,24.4233417 23.4869978,23.6912583 C23.4869978,22.9597583 24.0833457,22.3665083 24.8199761,22.3665083" id="Fill-3"></path>
                <path d="M4.34370287,22 L21.6557057,22 C22.3979359,22 23,22.6715827 23,23.4996698 C23,24.3284173 22.3979359,25 21.6557057,25 L4.34370287,25 C3.60147263,25 3,24.3284173 3,23.4996698 C3,22.6715827 3.60147263,22 4.34370287,22" id="Fill-6"></path>
                <path d="M18.3273044,18 L59.4585509,18 C63.6168928,18 67,21.3641927 67,25.5 C67,29.6352262 63.6168928,33 59.4585509,33 C55.3002091,33 51.9176861,29.6352262 51.9176861,25.5 C51.9176861,25.2611946 51.9293701,25.0206461 51.9521539,24.7853269 C52.0210897,24.0596142 52.6689684,23.525062 53.3986353,23.5965293 C54.1283022,23.6656725 54.6634302,24.3100403 54.5939103,25.035753 C54.5798895,25.1885652 54.5722949,25.3448637 54.5722949,25.5 C54.5722949,28.1803145 56.7642165,30.3603579 59.4585509,30.3603579 C62.1534696,30.3603579 64.3453912,28.1803145 64.3453912,25.5 C64.3453912,22.8202665 62.1534696,20.6396421 59.4585509,20.6396421 L18.3273044,20.6396421 C17.5941323,20.6396421 17,20.0487295 17,19.3195305 C17,18.5909126 17.5941323,18 18.3273044,18" id="Fill-8"></path>
                <path d="M1.34832461,18 L14.6510817,18 C15.3955991,18 16,18.6715827 16,19.4996698 C16,20.3284173 15.3955991,21 14.6510817,21 L1.34832461,21 C0.603213477,21 0,20.3284173 0,19.4996698 C0,18.6715827 0.603213477,18 1.34832461,18" id="Fill-10"></path>
            </g>
        </g>
    </g>
</svg>