<?xml version="1.0" encoding="UTF-8"?>
<svg width="75px" height="75px" viewBox="0 0 75 75" version="1.1" xmlns="http://www.w3.org/2000/svg" xmlns:xlink="http://www.w3.org/1999/xlink">
    <!-- Generator: Sketch 46.2 (44496) - http://www.bohemiancoding.com/sketch -->
    <title>icon-120nights</title>
    <desc>Created with Sketch.</desc>
    <defs>
        <polygon id="path-1" points="1.56763437e-15 56.9629629 1.56763437e-15 0.921381612 42.6956439 0.921381612 42.6956439 56.9629629"></polygon>
        <polygon id="path-3" points="0 71.1133412 74.4897887 71.1133412 74.4897887 -0.000423529412 0 -0.000423529412"></polygon>
        <polygon id="path-5" points="0 71.1133412 74.4897887 71.1133412 74.4897887 -0.000423529412 0 -0.000423529412"></polygon>
        <polygon id="path-7" points="0 71.1133412 74.4897887 71.1133412 74.4897887 -0.000423529412 0 -0.000423529412"></polygon>
        <polygon id="path-9" points="0 71.1133412 74.4897887 71.1133412 74.4897887 -0.000423529412 0 -0.000423529412"></polygon>
        <polygon id="path-11" points="0 71.1133412 74.4897887 71.1133412 74.4897887 -0.000423529412 0 -0.000423529412"></polygon>
    </defs>
    <g id="Page-1" stroke="none" stroke-width="1" fill="none" fill-rule="evenodd">
        <g id="icon-120nights">
            <g transform="translate(0.000000, 2.000000)">
                <path d="M39,69 C20.2521201,69 5,53.7478799 5,35 C5,16.2521201 20.2521201,1 39,1 C57.7478799,1 73,16.2521201 73,35 C73,53.7478799 57.7478799,69 39,69 Z" id="Fill-1" fill="#FFFFFF" fill-rule="nonzero"></path>
                <g id="Group-8" transform="translate(0.000000, 7.000000)">
                    <g id="Fill-6-Clipped">
                        <mask id="mask-2" fill="white">
                            <use xlink:href="#path-1"></use>
                        </mask>
                        <g id="path-3"></g>
                        <path d="M19.6098878,11.6463667 C25.8700585,5.34575556 34.6892537,3.22831111 42.6956439,5.23914444 C31.9330585,-1.5998 17.5374976,-0.320466667 8.15825366,9.11936667 C-2.71969756,20.0665333 -2.71969756,37.8167556 8.15825366,48.7649778 C17.5374976,58.2048111 31.9320098,59.4841444 42.6956439,52.6452 C34.6892537,54.6549778 25.8700585,52.5385889 19.6098878,46.2379778 C10.1184244,36.6852 10.1184244,21.1980889 19.6098878,11.6463667 Z" id="Fill-6" fill="#454D5B" fill-rule="nonzero" mask="url(#mask-2)"></path>
                    </g>
                </g>
                <polygon id="Fill-9" fill="#414A59" fill-rule="nonzero" points="26.7306331 24.9827941 22.5207432 28.6901401 20 25.7833299 26.8495871 20 31 20 31 41 26.7306331 41"></polygon>
                <path d="M33,36.3630009 L40.7938571,29.1591105 C41.1907856,28.7899802 41.5877141,28.3708525 41.983609,27.9049187 C42.3805375,27.4379211 42.5790018,26.8943316 42.5790018,26.2709589 C42.5790018,25.5709944 42.3340224,25.022086 41.8419965,24.6231701 C41.3510041,24.2253179 40.7742174,24.025328 40.1137035,24.025328 C39.3198464,24.025328 38.7006793,24.2785067 38.2572357,24.7838002 C37.8127584,25.2890938 37.5626108,25.9114027 37.505759,26.6507269 L33.255316,26.3294666 C33.3121677,25.2603718 33.5282044,24.3316955 33.9065269,23.5445013 C34.2848494,22.7562434 34.7851447,22.1009574 35.4094802,21.5754521 C36.032782,21.0499468 36.764619,20.6563497 37.6060248,20.3946609 C38.4463969,20.1319082 39.3580921,20 40.3400768,20 C41.2476373,20 42.0973125,20.1319082 42.8911695,20.3946609 C43.6850266,20.6563497 44.3744832,21.0456917 44.9595393,21.5605592 C45.5456291,22.0764906 46.003544,22.7232663 46.3343178,23.5008865 C46.6650916,24.2785067 46.8304784,25.1827162 46.8304784,26.2124512 C46.8304784,26.8741199 46.7643237,27.4719619 46.6320142,28.0070412 C46.4997047,28.5421205 46.3157118,29.0272023 46.0800354,29.4654779 C45.8433255,29.9026898 45.5642351,30.3058609 45.243798,30.6749911 C44.9212936,31.0451851 44.5729474,31.4047414 44.1946249,31.7547237 L38.1011518,37.150195 L47,37.150195 L47,41 L33,41 L33,36.3630009 Z" id="Fill-11" fill="#414A59" fill-rule="nonzero"></path>
                <path d="M53.2778394,30.5 C53.2778394,31.035725 53.3017612,31.6760837 53.3485647,32.4221226 C53.3964083,33.1681614 53.5243378,33.8849028 53.7344335,34.5733931 C53.9434891,35.2618834 54.2617529,35.8457399 54.6892248,36.3239163 C55.1177368,36.8020927 55.7199418,37.0406577 56.5,37.0406577 C57.2602968,37.0406577 57.8593815,36.8020927 58.2972542,36.3239163 C58.7340868,35.8457399 59.0565109,35.2618834 59.2666066,34.5733931 C59.4756622,33.8849028 59.6035917,33.1681614 59.6514353,32.4221226 C59.6982388,31.6760837 59.7221606,31.035725 59.7221606,30.5 C59.7221606,29.9653214 59.6982388,29.3239163 59.6514353,28.5778774 C59.6035917,27.8318386 59.4756622,27.1150972 59.2666066,26.4266069 C59.0565109,25.7381166 58.7340868,25.1542601 58.2972542,24.6760837 C57.8593815,24.1989537 57.2602968,23.9593423 56.5,23.9593423 C55.7199418,23.9593423 55.1177368,24.1989537 54.6892248,24.6760837 C54.2617529,25.1542601 53.9434891,25.7381166 53.7344335,26.4266069 C53.5243378,27.1150972 53.3964083,27.8318386 53.3485647,28.5778774 C53.3017612,29.3239163 53.2778394,29.9653214 53.2778394,30.5 M49,30.5 C49,29.2956652 49.1092082,28.0714499 49.3276245,26.8273543 C49.5470808,25.5843049 49.9360699,24.4563528 50.4977118,23.4424514 C51.0572736,22.4295964 51.8238108,21.6019432 52.7931632,20.9605381 C53.7625156,20.3201794 54.9981279,20 56.5,20 C58.0018721,20 59.2374844,20.3201794 60.2078769,20.9605381 C61.1772292,21.6019432 61.9416863,22.4295964 62.5033282,23.4424514 C63.0639301,24.4563528 63.4539592,25.5843049 63.6723755,26.8273543 C63.8907918,28.0714499 64,29.2956652 64,30.5 C64,31.7053812 63.8907918,32.9295964 63.6723755,34.1726457 C63.4539592,35.4156951 63.0639301,36.5436472 62.5033282,37.5575486 C61.9416863,38.5714499 61.1772292,39.3980568 60.2078769,40.0384155 C59.2374844,40.6798206 58.0018721,41 56.5,41 C54.9981279,41 53.7625156,40.6798206 52.7931632,40.0384155 C51.8238108,39.3980568 51.0572736,38.5714499 50.4977118,37.5575486 C49.9360699,36.5436472 49.5470808,35.4156951 49.3276245,34.1726457 C49.1092082,32.9295964 49,31.7053812 49,30.5" id="Fill-13" fill="#414A59" fill-rule="nonzero"></path>
                <polygon id="Fill-15" fill="#414A59" fill-rule="nonzero" points="27 45 29.2117371 45 32.3513302 49.8642836 32.3732394 49.8642836 32.3732394 45 34 45 34 52 31.8726135 52 28.6486698 47.0163156 28.627856 47.0163156 28.627856 52 27 52"></polygon>
                <g id="Fill-17-Clipped">
                    <mask id="mask-4" fill="white">
                        <use xlink:href="#path-3"></use>
                    </mask>
                    <g id="path-5"></g>
                    <polygon id="Fill-17" fill="#414A59" fill-rule="nonzero" mask="url(#mask-4)" points="34.7566901 52.4738118 36.3264085 52.4738118 36.3264085 45.3352235 34.7566901 45.3352235"></polygon>
                </g>
                <g id="Fill-19-Clipped">
                    <mask id="mask-6" fill="white">
                        <use xlink:href="#path-5"></use>
                    </mask>
                    <g id="path-5"></g>
                    <path d="M44.2032042,51.9702353 C43.7405282,52.2127059 43.2577817,52.3874118 42.7549648,52.4943529 C42.2510915,52.6023529 41.7387676,52.6552941 41.2158803,52.6552941 C40.6591901,52.6552941 40.1458099,52.5684706 39.6767958,52.3937647 C39.2067254,52.2190588 38.8010915,51.9691765 38.458838,51.642 C38.1176408,51.3158824 37.8503873,50.9209412 37.6591901,50.4571765 C37.467993,49.9934118 37.3729225,49.4767059 37.3729225,48.9049412 C37.3729225,48.3331765 37.467993,47.8154118 37.6591901,47.3516471 C37.8503873,46.8878824 38.1176408,46.494 38.458838,46.1678824 C38.8010915,45.8407059 39.2067254,45.5908235 39.6767958,45.4161176 C40.1458099,45.2414118 40.6591901,45.1545882 41.2158803,45.1545882 C41.7852465,45.1545882 42.3102465,45.2223529 42.7898239,45.36 C43.2694014,45.4987059 43.6898239,45.7348235 44.0521479,46.0715294 L42.946162,47.2817647 C42.730669,47.0594118 42.4898239,46.8921176 42.2215141,46.7777647 C41.9532042,46.6634118 41.6172887,46.6062353 41.2158803,46.6062353 C40.8799648,46.6062353 40.5767958,46.6634118 40.3053169,46.7777647 C40.0327817,46.8921176 39.8003873,47.0509412 39.6060211,47.2563529 C39.4116549,47.4617647 39.2627113,47.7052941 39.1581338,47.9869412 C39.0535563,48.2696471 39.0017958,48.5756471 39.0017958,48.9049412 C39.0017958,49.2405882 39.0535563,49.5487059 39.1581338,49.8271765 C39.2627113,50.1067059 39.4116549,50.3481176 39.6060211,50.5535294 C39.8003873,50.7578824 40.0327817,50.9177647 40.3053169,51.0321176 C40.5767958,51.1464706 40.8799648,51.2036471 41.2158803,51.2036471 C41.5570775,51.2036471 41.8528521,51.1655294 42.1010915,51.0882353 C42.3482746,51.0109412 42.5468662,50.9315294 42.6947535,50.8510588 L42.6947535,49.6916471 L41.4165845,49.6916471 L41.4165845,48.24 L44.2032042,48.24 L44.2032042,51.9702353 Z" id="Fill-19" fill="#414A59" fill-rule="nonzero" mask="url(#mask-6)"></path>
                </g>
                <g id="Fill-20-Clipped">
                    <mask id="mask-8" fill="white">
                        <use xlink:href="#path-7"></use>
                    </mask>
                    <g id="path-5"></g>
                    <polygon id="Fill-20" fill="#414A59" fill-rule="nonzero" mask="url(#mask-8)" points="45.5811972 45.3355412 47.1509155 45.3355412 47.1509155 47.9974235 50.1984507 47.9974235 50.1984507 45.3355412 51.768169 45.3355412 51.768169 52.4741294 50.1984507 52.4741294 50.1984507 49.3887176 47.1509155 49.3887176 47.1509155 52.4741294 45.5811972 52.4741294"></polygon>
                </g>
                <g id="Fill-21-Clipped">
                    <mask id="mask-10" fill="white">
                        <use xlink:href="#path-9"></use>
                    </mask>
                    <g id="path-5"></g>
                    <polygon id="Fill-21" fill="#414A59" fill-rule="nonzero" mask="url(#mask-10)" points="54.5942958 46.7268353 52.5619014 46.7268353 52.5619014 45.3355412 58.1953521 45.3355412 58.1953521 46.7268353 56.1640141 46.7268353 56.1640141 52.4741294 54.5942958 52.4741294"></polygon>
                </g>
                <g id="Fill-22-Clipped">
                    <mask id="mask-12" fill="white">
                        <use xlink:href="#path-11"></use>
                    </mask>
                    <g id="path-5"></g>
                    <path d="M62.5112324,47.0799529 C62.3834155,46.9190118 62.2112324,46.7993647 61.9936268,46.7220706 C61.7749648,46.6447765 61.5689789,46.6056 61.3746127,46.6056 C61.2605282,46.6056 61.1432746,46.6193647 61.0228521,46.6458353 C60.9013732,46.6733647 60.7872887,46.7157176 60.6805986,46.7718353 C60.5728521,46.8300706 60.4862324,46.9052471 60.4186268,46.9994824 C60.3520775,47.0937176 60.3182746,47.2080706 60.3182746,47.3425412 C60.3182746,47.5574824 60.3985563,47.7216 60.5591197,47.8359529 C60.7207394,47.9503059 60.9235563,48.0477176 61.1686268,48.1281882 C61.4126408,48.2086588 61.675669,48.2901882 61.9577113,48.3706588 C62.2397535,48.4511294 62.5027817,48.5654824 62.7478521,48.7126588 C62.9918662,48.8608941 63.1946831,49.0599529 63.3563028,49.3077176 C63.5168662,49.5565412 63.5971479,49.8900706 63.5971479,50.3061882 C63.5971479,50.7032471 63.5232042,51.0494824 63.3763732,51.3448941 C63.2284859,51.6413647 63.028838,51.8859529 62.7774296,52.0807765 C62.5260211,52.2766588 62.2344718,52.4206588 61.9027817,52.5148941 C61.5710915,52.6091294 61.2203873,52.6557176 60.8517254,52.6557176 C60.387993,52.6557176 59.9591197,52.5858353 59.5640493,52.4439529 C59.1679225,52.3031294 58.7992606,52.0744235 58.457007,51.7578353 L59.5735563,50.5285412 C59.7351761,50.7434824 59.9369366,50.9097176 60.182007,51.0272471 C60.4270775,51.1447765 60.6805986,51.2040706 60.9415141,51.2040706 C61.069331,51.2040706 61.1982042,51.1881882 61.3291901,51.1585412 C61.4601761,51.1278353 61.5774296,51.0833647 61.6809507,51.0230118 C61.7855282,50.9626588 61.8689789,50.8843059 61.9323592,50.7900706 C61.9967958,50.6968941 62.0284859,50.5857176 62.0284859,50.4576 C62.0284859,50.2426588 61.9460915,50.0732471 61.7823592,49.9483059 C61.6175704,49.8244235 61.4115845,49.7185412 61.1633451,49.6306588 C60.9151056,49.5438353 60.6467958,49.4559529 60.3584155,49.3691294 C60.0700352,49.2812471 59.8017254,49.1637176 59.5534859,49.0154824 C59.3052465,48.8683059 59.0992606,48.6724235 58.9355282,48.4310118 C58.7707394,48.1885412 58.6883451,47.8698353 58.6883451,47.4727765 C58.6883451,47.0894824 58.7644014,46.7538353 58.9144014,46.4647765 C59.0654577,46.1757176 59.2672183,45.9332471 59.5186268,45.7384235 C59.7700352,45.5436 60.0594718,45.3974824 60.387993,45.3000706 C60.7175704,45.2026588 61.0555986,45.1539529 61.4041901,45.1539529 C61.8066549,45.1539529 62.1953873,45.2111294 62.5714437,45.3254824 C62.9475,45.4398353 63.2855282,45.6314824 63.5876408,45.9004235 L62.5112324,47.0799529 Z" id="Fill-22" fill="#414A59" fill-rule="nonzero" mask="url(#mask-12)"></path>
                </g>
            </g>
        </g>
    </g>
</svg>