<svg xmlns="http://www.w3.org/2000/svg" viewBox="0 0 84 84"><defs><style>.cls-1{fill:#556774;}</style></defs><title>BrentwoodHome_Guranatee_FINAL_ALL</title><g id="Layer_2" data-name="Layer 2"><path class="cls-1" d="M65.57,26.65a.88.88,0,0,0-.53-.81L42.65,16.28a.83.83,0,0,0-.69,0L19.51,25.84a.86.86,0,0,0-.53.81V44.57l1.75.58V27.22L42.3,18l21.52,9.19V45.46l1.75-.53Z"/><path class="cls-1" d="M63.82,56.13,42.3,66,20.73,56.13v-5.3L19,50.26v6.43a.87.87,0,0,0,.51.8L41.94,67.71a.78.78,0,0,0,.36.08.8.8,0,0,0,.37-.08L65.06,57.49a.87.87,0,0,0,.51-.8V49.93l-1.75.5Z"/><path class="cls-1" d="M42.3,36.71a.46.46,0,0,1-.19,0L19.78,27.44a.5.5,0,0,1,.39-.93l22.14,9.16,22.32-9.16a.5.5,0,0,1,.38.93L42.49,36.67A.41.41,0,0,1,42.3,36.71Z"/><path class="cls-1" d="M42.3,67.25a.5.5,0,0,1-.5-.5V36.33a.51.51,0,0,1,.5-.5.5.5,0,0,1,.5.5V66.75A.5.5,0,0,1,42.3,67.25Z"/><path class="cls-1" d="M34,20.71l20.91,8.67a1.5,1.5,0,0,1,.93,1.39v7.88a1.5,1.5,0,1,1-3,0V31.77L30.5,22.52Z"/><path class="cls-1" d="M24.7,49.08c-2.09,0-7.72-.29-10.63-3.22A6.15,6.15,0,0,1,12.31,41c.44-7.16,7.54-6.8,7.62-6.8a.75.75,0,0,1,.7.79.78.78,0,0,1-.79.7c-.24,0-5.69-.25-6,5.4a4.66,4.66,0,0,0,1.33,3.77c3.07,3.09,10.21,2.76,10.28,2.76a.75.75,0,1,1,.08,1.49C25.44,49.07,25.16,49.08,24.7,49.08Z"/><path class="cls-1" d="M59.87,48.89a24.4,24.4,0,0,1-2.81-.14.75.75,0,0,1,.17-1.49c.08,0,8,.88,11.47-2.18a4.39,4.39,0,0,0,1.51-3.49c0-3.89-5.52-5.78-5.57-5.79a.75.75,0,1,1,.47-1.43c.27.09,6.6,2.24,6.6,7.22a6,6,0,0,1-2,4.62C67.15,48.47,62.75,48.89,59.87,48.89Z"/><path class="cls-1" d="M58.45,51a.74.74,0,0,1-.49-.18L54.69,48,58,45.19a.74.74,0,0,1,1,.08.75.75,0,0,1-.08,1.06L57,48l1.95,1.69A.76.76,0,0,1,59,50.75.74.74,0,0,1,58.45,51Z"/></g></svg>