<svg xmlns="http://www.w3.org/2000/svg" viewBox="0 0 84 84"><defs><style>.cls-1{fill:#556774;}</style></defs><title>BrentwoodHome_Guranatee_FINAL_ALL</title><g id="Layer_2" data-name="Layer 2"><path class="cls-1" d="M47.51,71.64A29.64,29.64,0,1,1,63.13,16.81a1,1,0,0,1,.38,1.27,1,1,0,0,1-1.23.53l-.41-.14a24.64,24.64,0,1,0,.28,47l.05,0a1,1,0,0,1,.86-.1,1,1,0,0,1,.61.61,1,1,0,0,1-.61,1.32l-.05,0A29.59,29.59,0,0,1,47.51,71.64Zm0-57.28a27.64,27.64,0,1,0,7.4,54.27,26.63,26.63,0,1,1,0-53.26A27.41,27.41,0,0,0,47.51,14.36Z"/><path class="cls-1" d="M54.05,30h0a.49.49,0,0,1-.49-.5,3.72,3.72,0,0,0-3.66-4,.51.51,0,0,1-.5-.51.5.5,0,0,1,.5-.49,3.6,3.6,0,0,0,3.66-3.63.53.53,0,0,1,.51-.49.51.51,0,0,1,.49.5,3.53,3.53,0,0,0,3.61,3.62.49.49,0,0,1,.49.5.5.5,0,0,1-.5.5c-3.49,0-3.6,3.87-3.6,4A.51.51,0,0,1,54.05,30Zm-2-5a4.26,4.26,0,0,1,2.06,2.09A4.38,4.38,0,0,1,56,25a4.12,4.12,0,0,1-2-1.93A4.26,4.26,0,0,1,52,25.06Z"/><path class="cls-1" d="M44.63,37.74h0a.5.5,0,0,1-.49-.5,2.73,2.73,0,0,0-2.71-3,.5.5,0,0,1,0-1,2.63,2.63,0,0,0,2.7-2.68.5.5,0,0,1,.5-.49h0a.51.51,0,0,1,.5.5,2.56,2.56,0,0,0,2.66,2.67.5.5,0,0,1,0,1c-2.59,0-2.66,2.87-2.66,3A.51.51,0,0,1,44.63,37.74Zm-1.3-4a3.5,3.5,0,0,1,1.32,1.35,3.45,3.45,0,0,1,1.23-1.38,3.35,3.35,0,0,1-1.29-1.25A3.29,3.29,0,0,1,43.33,33.79Z"/><path class="cls-1" d="M62,39.36h0a.43.43,0,0,1-.43-.43,3.41,3.41,0,0,0-3.37-3.7.44.44,0,0,1,0-.87A3.31,3.31,0,0,0,61.52,31,.43.43,0,0,1,62,30.6h0a.44.44,0,0,1,.43.44,3.23,3.23,0,0,0,3.31,3.32.43.43,0,0,1,.43.43.44.44,0,0,1-.43.44c-3.21,0-3.31,3.55-3.31,3.71A.44.44,0,0,1,62,39.36Zm-1.9-4.51a3.91,3.91,0,0,1,1.93,2,4,4,0,0,1,1.8-2A3.76,3.76,0,0,1,61.91,33,3.79,3.79,0,0,1,60.05,34.85Z"/><path class="cls-1" d="M44.63,43h0l-2,1.69L42,44l2.82-2.3h.82V53h-1Z"/><path class="cls-1" d="M49.45,51.9l4.28-4.51c.19-.2.39-.4.58-.62a5.67,5.67,0,0,0,.52-.69,3.68,3.68,0,0,0,.38-.77,2.44,2.44,0,0,0,.14-.87,1.94,1.94,0,0,0-.64-1.55,2.36,2.36,0,0,0-1.62-.57,2.23,2.23,0,0,0-1.5.52,2.32,2.32,0,0,0-.79,1.35l-1.12-.11a3,3,0,0,1,1.2-2,3.84,3.84,0,0,1,2.26-.66,3.77,3.77,0,0,1,1.25.21,3.09,3.09,0,0,1,1,.57,2.76,2.76,0,0,1,.72.9,2.71,2.71,0,0,1,.26,1.23,3.53,3.53,0,0,1-.2,1.23,5.08,5.08,0,0,1-.53,1.07,7.45,7.45,0,0,1-.75,1l-.86.9-3.56,3.65h6V53h-7Z"/><path class="cls-1" d="M57.57,47.34c0-.41,0-.84.06-1.3a8.38,8.38,0,0,1,.21-1.33,6.46,6.46,0,0,1,.42-1.24,3.62,3.62,0,0,1,.68-1,3.16,3.16,0,0,1,1-.72,3.71,3.71,0,0,1,2.78,0,3.2,3.2,0,0,1,1,.72,3.84,3.84,0,0,1,.68,1,6.46,6.46,0,0,1,.42,1.24A9.7,9.7,0,0,1,65,46c0,.46.06.89.06,1.3s0,.85-.06,1.3A10,10,0,0,1,64.83,50a6.37,6.37,0,0,1-.42,1.23,3.74,3.74,0,0,1-.68,1,3.2,3.2,0,0,1-1,.72,3.85,3.85,0,0,1-2.78,0,3.16,3.16,0,0,1-1-.72,3.53,3.53,0,0,1-.68-1A6.37,6.37,0,0,1,57.84,50a8.56,8.56,0,0,1-.21-1.33C57.59,48.19,57.57,47.76,57.57,47.34Zm1.06,0q0,.45,0,1c0,.36.07.72.13,1.09a8.3,8.3,0,0,0,.28,1.09,4,4,0,0,0,.49.94,2.27,2.27,0,0,0,.73.65,2.29,2.29,0,0,0,2.08,0,2.2,2.2,0,0,0,.74-.65,3.62,3.62,0,0,0,.48-.94,6,6,0,0,0,.28-1.09A8.3,8.3,0,0,0,64,48.33q0-.54,0-1c0-.29,0-.62,0-1a8.25,8.25,0,0,0-.13-1.1,5.81,5.81,0,0,0-.28-1.09,3.47,3.47,0,0,0-.48-.94,2.35,2.35,0,0,0-.74-.66,2.27,2.27,0,0,0-2.07,0,2.35,2.35,0,0,0-.74.66,3.8,3.8,0,0,0-.49.94,7.92,7.92,0,0,0-.28,1.09c-.06.37-.1.73-.13,1.1S58.63,47.05,58.63,47.34Z"/><path class="cls-1" d="M44.63,55.58h1.18l1.67,2.74h0V55.58h.86v3.94H47.23l-1.72-2.81h0v2.81h-.87Z"/><path class="cls-1" d="M49.15,55.58H50v3.94h-.87Z"/><path class="cls-1" d="M54.37,59.24a3.19,3.19,0,0,1-.8.29,4,4,0,0,1-.85.09,2.37,2.37,0,0,1-.85-.15,1.84,1.84,0,0,1-.67-.41,1.78,1.78,0,0,1-.44-.66,2.11,2.11,0,0,1-.16-.85,2.16,2.16,0,0,1,.16-.86A1.83,1.83,0,0,1,51.2,56a2,2,0,0,1,.67-.42,2.61,2.61,0,0,1,.85-.14,3.34,3.34,0,0,1,.87.11,1.69,1.69,0,0,1,.7.4l-.61.66a1.18,1.18,0,0,0-.4-.27,1.31,1.31,0,0,0-.56-.1,1.18,1.18,0,0,0-.5.1,1.07,1.07,0,0,0-.63.66,1.49,1.49,0,0,0,0,1,1.25,1.25,0,0,0,.24.4,1.16,1.16,0,0,0,.39.26,1.35,1.35,0,0,0,.5.1,1.75,1.75,0,0,0,.49-.07,1.33,1.33,0,0,0,.33-.13V58h-.71v-.8h1.54Z"/><path class="cls-1" d="M55.14,55.58H56v1.47h1.69V55.58h.87v3.94h-.87v-1.7H56v1.7h-.86Z"/><path class="cls-1" d="M60.12,56.35H59v-.77h3.12v.77H61v3.17h-.87Z"/><path class="cls-1" d="M64.49,56.54a.65.65,0,0,0-.28-.2,1.11,1.11,0,0,0-.34-.06l-.2,0-.19.07a.35.35,0,0,0-.14.13.29.29,0,0,0-.06.19.31.31,0,0,0,.14.27,1.27,1.27,0,0,0,.33.16l.44.13a2.08,2.08,0,0,1,.43.19,1,1,0,0,1,.34.33,1,1,0,0,1,.14.55,1.26,1.26,0,0,1-.13.57,1.11,1.11,0,0,1-.33.41,1.35,1.35,0,0,1-.48.24,2.25,2.25,0,0,1-.58.08,2,2,0,0,1-.71-.12,1.76,1.76,0,0,1-.62-.38l.62-.68a.93.93,0,0,0,.34.28,1,1,0,0,0,.42.1.76.76,0,0,0,.21,0l.2-.07a.53.53,0,0,0,.13-.13.29.29,0,0,0,.06-.19.35.35,0,0,0-.14-.28,1.53,1.53,0,0,0-.34-.17l-.45-.15a1.72,1.72,0,0,1-.44-.19,1,1,0,0,1-.34-.32,1,1,0,0,1-.14-.53,1.13,1.13,0,0,1,.13-.56,1.16,1.16,0,0,1,.33-.4,1.35,1.35,0,0,1,.48-.24,2.1,2.1,0,0,1,.56-.08,2.32,2.32,0,0,1,.65.09,1.57,1.57,0,0,1,.56.32Z"/></g></svg>