<?xml version="1.0" encoding="utf-8"?>
<!-- Generator: Adobe Illustrator 16.0.0, SVG Export Plug-In . SVG Version: 6.00 Build 0)  -->
<!DOCTYPE svg PUBLIC "-//W3C//DTD SVG 1.1//EN" "http://www.w3.org/Graphics/SVG/1.1/DTD/svg11.dtd">
<svg version="1.1" id="Layer_1" xmlns="http://www.w3.org/2000/svg" xmlns:xlink="http://www.w3.org/1999/xlink" x="0px" y="0px"
	 width="84px" height="84px" viewBox="0 0 84 84" enable-background="new 0 0 84 84" xml:space="preserve">
<g>
	<path fill="#464D5A" d="M48.959,63.868c-0.112,0-0.226-0.025-0.329-0.076L6.806,43.359c-0.258-0.125-0.421-0.387-0.421-0.674
		v-9.599c0-0.303,0.183-0.576,0.462-0.692L36.192,20.19c0.194-0.081,0.412-0.077,0.604,0.012l40.385,18.718
		c0.265,0.123,0.435,0.389,0.435,0.681v9.599c0,0.284-0.161,0.544-0.415,0.671L49.294,63.789
		C49.188,63.841,49.073,63.868,48.959,63.868z M7.885,42.217l41.07,20.064l27.16-13.546v-8.656L36.464,21.701L7.885,33.587V42.217z"
		/>
	<path fill="#464D5A" d="M48.958,54.269c-0.108,0-0.219-0.023-0.323-0.073L7.086,34.312c-0.373-0.179-0.531-0.627-0.353-1
		s0.627-0.531,1.001-0.353l41.549,19.883c0.373,0.179,0.531,0.627,0.353,1C49.507,54.111,49.238,54.269,48.958,54.269z"/>
	<path fill="#464D5A" d="M48.96,53.995c-0.277,0-0.543-0.154-0.674-0.418c-0.183-0.372-0.03-0.821,0.342-1.004L76.19,38.996
		c0.374-0.184,0.821-0.029,1.004,0.341c0.183,0.372,0.03,0.821-0.342,1.004L49.29,53.917C49.184,53.97,49.07,53.995,48.96,53.995z"
		/>
	<path fill="#464D5A" d="M48.959,63.319c-0.414,0-0.75-0.336-0.75-0.75v-8.776c0-0.414,0.336-0.75,0.75-0.75s0.75,0.336,0.75,0.75
		v8.776C49.709,62.983,49.373,63.319,48.959,63.319z"/>
	<path fill="#464D5A" d="M51.625,61.902c-0.276,0-0.5-0.224-0.5-0.5v-8.776c0-0.276,0.224-0.5,0.5-0.5s0.5,0.224,0.5,0.5v8.776
		C52.125,61.678,51.901,61.902,51.625,61.902z"/>
	<path fill="#464D5A" d="M53.875,60.569c-0.276,0-0.5-0.224-0.5-0.5v-8.776c0-0.276,0.224-0.5,0.5-0.5s0.5,0.224,0.5,0.5v8.776
		C54.375,60.345,54.151,60.569,53.875,60.569z"/>
	<path fill="#464D5A" d="M56.125,59.569c-0.276,0-0.5-0.224-0.5-0.5v-8.776c0-0.276,0.224-0.5,0.5-0.5s0.5,0.224,0.5,0.5v8.776
		C56.625,59.345,56.401,59.569,56.125,59.569z"/>
	<path fill="#464D5A" d="M58.375,58.402c-0.276,0-0.5-0.224-0.5-0.5v-8.776c0-0.276,0.224-0.5,0.5-0.5s0.5,0.224,0.5,0.5v8.776
		C58.875,58.178,58.651,58.402,58.375,58.402z"/>
	<path fill="#464D5A" d="M60.625,57.402c-0.276,0-0.5-0.224-0.5-0.5v-8.776c0-0.276,0.224-0.5,0.5-0.5s0.5,0.224,0.5,0.5v8.776
		C61.125,57.178,60.901,57.402,60.625,57.402z"/>
	<path fill="#464D5A" d="M62.875,56.402c-0.276,0-0.5-0.224-0.5-0.5v-8.776c0-0.276,0.224-0.5,0.5-0.5s0.5,0.224,0.5,0.5v8.776
		C63.375,56.178,63.151,56.402,62.875,56.402z"/>
	<path fill="#464D5A" d="M65.125,55.568c-0.276,0-0.5-0.224-0.5-0.5v-9.479c0-0.276,0.224-0.5,0.5-0.5s0.5,0.224,0.5,0.5v9.479
		C65.625,55.345,65.401,55.568,65.125,55.568z"/>
	<path fill="#464D5A" d="M67.377,54.068c-0.276,0-0.5-0.224-0.5-0.5v-8.776c0-0.276,0.224-0.5,0.5-0.5s0.5,0.224,0.5,0.5v8.776
		C67.877,53.845,67.653,54.068,67.377,54.068z"/>
	<path fill="#464D5A" d="M69.627,53.402c-0.276,0-0.5-0.224-0.5-0.5v-9.478c0-0.276,0.224-0.5,0.5-0.5s0.5,0.224,0.5,0.5v9.478
		C70.127,53.178,69.903,53.402,69.627,53.402z"/>
	<path fill="#464D5A" d="M71.877,52.068c-0.276,0-0.5-0.224-0.5-0.5V42.03c0-0.276,0.224-0.5,0.5-0.5s0.5,0.224,0.5,0.5v9.539
		C72.377,51.845,72.153,52.068,71.877,52.068z"/>
	<path fill="#464D5A" d="M74.127,50.901c-0.276,0-0.5-0.224-0.5-0.5v-9.184c0-0.276,0.224-0.5,0.5-0.5s0.5,0.224,0.5,0.5v9.184
		C74.627,50.678,74.403,50.901,74.127,50.901z"/>
	<circle fill="#464D5A" cx="19.477" cy="33.498" r="1.234"/>
	<circle fill="#464D5A" cx="27.43" cy="29.659" r="1.234"/>
	<circle fill="#464D5A" cx="35.246" cy="25.956" r="1.234"/>
	<circle fill="#464D5A" cx="28.115" cy="37.749" r="1.234"/>
	<circle fill="#464D5A" cx="36.206" cy="33.772" r="1.233"/>
	<circle fill="#464D5A" cx="43.885" cy="29.933" r="1.234"/>
	<circle fill="#464D5A" cx="36.823" cy="41.932" r="1.233"/>
	<circle fill="#464D5A" cx="45.325" cy="37.955" r="1.233"/>
	<circle fill="#464D5A" cx="52.799" cy="34.184" r="1.234"/>
	<circle fill="#464D5A" cx="47.039" cy="46.937" r="1.234"/>
	<circle fill="#464D5A" cx="55.13" cy="42.686" r="1.233"/>
	<circle fill="#464D5A" cx="62.809" cy="38.983" r="1.234"/>
</g>
</svg>
