<?xml version="1.0" encoding="utf-8"?>
<!-- Generator: Adobe Illustrator 16.0.0, SVG Export Plug-In . SVG Version: 6.00 Build 0)  -->
<!DOCTYPE svg PUBLIC "-//W3C//DTD SVG 1.1//EN" "http://www.w3.org/Graphics/SVG/1.1/DTD/svg11.dtd">
<svg version="1.1" id="Layer_1" xmlns="http://www.w3.org/2000/svg" xmlns:xlink="http://www.w3.org/1999/xlink" x="0px" y="0px"
	 width="84px" height="84px" viewBox="0 0 84 84" enable-background="new 0 0 84 84" xml:space="preserve">
<g>
	<g>
		<path fill="#464D5A" d="M21.748,55.588c-1.07,0-2.08-0.431-2.37-1.518c-0.271-1.018-0.019-1.685,0.241-2.065
			c0.477-0.696,1.247-0.881,1.508-0.925c0.95-0.28,14.968-4.417,16.494-4.885c4.518-1.385,6.077-1.332,7.322-1.291l0.231,0.008
			c0.559,0.016,1.283,0.086,2.122,0.168c1.428,0.139,4.772,0.464,5.27-0.025c0.54-2.053,5.279-22.322,5.327-22.526
			c0.095-0.403,0.498-0.65,0.901-0.56c0.403,0.094,0.653,0.498,0.56,0.901c-0.195,0.836-4.793,20.499-5.373,22.64
			c-0.424,1.568-2.979,1.438-6.83,1.062c-0.777-0.076-1.513-0.147-2.02-0.162l-0.239-0.007c-1.141-0.041-2.556-0.087-6.832,1.225
			c-1.579,0.484-16.408,4.86-16.559,4.904c-0.042,0.013-0.085,0.021-0.129,0.026l0,0c0.002,0-0.36,0.058-0.52,0.298
			c-0.146,0.219-0.095,0.57-0.026,0.826c0.168,0.631,1.61,0.317,1.624,0.314c0.032-0.008,0.066-0.014,0.1-0.018
			c0.579-0.064,14.22-1.567,16.165-1.567c0.414,0,0.75,0.336,0.75,0.75s-0.336,0.75-0.75,0.75c-1.809,0-15.035,1.452-15.952,1.553
			C22.434,55.545,22.088,55.588,21.748,55.588z"/>
		<path fill="#464D5A" d="M55.893,56.868H41.219c-1.214-0.018-3.004-0.784-3.004-2.822c0-2.178,1.871-2.847,2.86-2.896l7.013-0.001
			c0.414,0,0.75,0.336,0.75,0.75s-0.336,0.75-0.75,0.75h-6.976c-0.198,0.014-1.397,0.155-1.397,1.397
			c0,1.264,1.359,1.32,1.515,1.322h14.663c2.766,0,4.183-2.4,4.335-2.674c0.327-0.729,7.621-20.779,10.402-28.44
			c0.142-0.389,0.574-0.592,0.961-0.449c0.39,0.142,0.591,0.572,0.449,0.961c-3.074,8.466-10.25,28.207-10.502,28.659
			C61.342,53.776,59.515,56.868,55.893,56.868z"/>
	</g>
	<path fill="#464D5A" d="M58.298,62.048c-0.186,0-0.358-0.008-0.518-0.023L21.5,62.029c-2.069,0-3.701-0.611-4.849-1.815
		c-1.071-1.123-1.451-2.504-1.584-3.435H8c-0.553,0-1-0.448-1-1s0.447-1,1-1h8c0.273,0,0.535,0.112,0.724,0.31
		c0.188,0.198,0.288,0.464,0.275,0.737c-0.001,0.013-0.054,1.811,1.111,3.02c0.756,0.785,1.896,1.183,3.39,1.183h36.375
		c0.277,0.019,4.651,0.329,6.701-4.632c0.154-0.374,0.519-0.618,0.924-0.618H76c0.553,0,1,0.448,1,1s-0.447,1-1,1h-9.853
		C64.128,60.965,60.424,62.048,58.298,62.048z"/>
</g>
</svg>
