<?xml version="1.0" encoding="UTF-8"?>
<svg width="75px" height="75px" viewBox="0 0 75 75" version="1.1" xmlns="http://www.w3.org/2000/svg" xmlns:xlink="http://www.w3.org/1999/xlink">
    <!-- Generator: Sketch 46.2 (44496) - http://www.bohemiancoding.com/sketch -->
    <title>icon-TemperatureRegulation</title>
    <desc>Created with Sketch.</desc>
    <defs>
        <polygon id="path-1" points="23 69 23 0 2.29094024e-15 0 0 69 23 69"></polygon>
    </defs>
    <g id="Page-1" stroke="none" stroke-width="1" fill="none" fill-rule="evenodd">
        <g id="icon-TemperatureRegulation">
            <g id="Page-1" transform="translate(26.000000, 3.000000)">
                <mask id="mask-2" fill="white">
                    <use xlink:href="#path-1"></use>
                </mask>
                <g id="Clip-2"></g>
                <path d="M11.498117,65.8079152 C6.96695812,65.8079152 3.28388512,62.2225866 3.28388512,57.8207463 C3.28388512,55.5564824 4.26001244,53.460647 6.02773684,51.9111055 C6.37269542,51.6035405 6.5700298,51.1751465 6.5700298,50.7225866 L6.5700298,7.98716887 C6.5700298,5.34650408 8.78213315,3.19501401 11.498117,3.19501401 C14.1726758,3.19501401 16.3523922,5.279865 16.4201788,7.86414289 L13.1408128,7.86414289 L13.1408128,10.0610354 L16.4269575,10.0610354 L16.4269575,12.0177343 L11.6344435,12.0177343 L11.6344435,14.2146268 L16.4269575,14.2146268 L16.4269575,16.1713258 L13.1408128,16.1713258 L13.1408128,18.3682183 L16.4269575,18.3682183 L16.4269575,20.3241849 L11.6344435,20.3241849 L11.6344435,22.5210774 L16.4269575,22.5210774 L16.4269575,24.4777764 L13.1408128,24.4777764 L13.1408128,26.6746689 L16.4269575,26.6746689 L16.4269575,28.6299032 L12.9668271,28.6299032 C12.6994466,28.1019167 12.1443495,27.7343034 11.498117,27.7343034 C10.5935423,27.7343034 9.85617448,28.4490257 9.85617448,29.3299796 L9.85617448,53.3090614 C7.94534499,53.9681291 6.5700298,55.7395568 6.5700298,57.8207463 C6.5700298,60.4621434 8.78213315,62.6129012 11.498117,62.6129012 C14.2148541,62.6129012 16.4269575,60.4621434 16.4269575,57.8207463 C16.4269575,55.7395568 15.0516423,53.9681291 13.1400596,53.3090614 L13.1400596,47.4396969 L16.4269575,47.4396969 L16.4269575,50.7225866 C16.4269575,51.1773434 16.6242918,51.6093989 16.9692504,51.9111055 C18.7369748,53.460647 19.7131021,55.5594116 19.7131021,57.8207463 C19.7131021,62.2225866 16.029276,65.8079152 11.498117,65.8079152 L11.498117,65.8079152 Z M16.4269575,32.7834947 L13.1408128,32.7834947 L13.1408128,34.9803872 L16.4269575,34.9803872 L16.4269575,36.9363538 L13.1400596,36.9363538 L13.1400596,30.8267957 L16.4269575,30.8267957 L16.4269575,32.7834947 Z M11.498117,56.2214086 C12.4011854,56.2214086 13.1400596,56.9375955 13.1400596,57.8207463 C13.1400596,58.7009679 12.4011854,59.4164226 11.498117,59.4164226 C10.596555,59.4164226 9.85617448,58.7009679 9.85617448,57.8178171 C9.85617448,56.9375955 10.596555,56.2214086 11.498117,56.2214086 L11.498117,56.2214086 Z M16.4269575,41.0899452 L13.1408128,41.0899452 L13.1408128,43.2868377 L16.4269575,43.2868377 L16.4269575,45.2428044 L13.1400596,45.2428044 L13.1400596,39.1332463 L16.4269575,39.1332463 L16.4269575,41.0899452 Z M19.7138553,50.046676 L19.7138553,7.98716887 C19.7138553,3.58459628 16.0300291,0 11.498117,0 C6.96695812,0 3.28388512,3.58459628 3.28388512,7.98716887 L3.28689786,50.046676 C1.1885254,52.1337239 0,54.9303681 0,57.8207463 C0,63.9844944 5.15630219,69 11.498117,69 C17.8406851,69 22.9977404,63.9844944 23,57.8207463 C23,54.9303681 21.8107214,52.1359208 19.7138553,50.046676 L19.7138553,50.046676 Z" id="Fill-1" fill="#414A59" mask="url(#mask-2)"></path>
            </g>
        </g>
    </g>
</svg>