<?xml version="1.0" encoding="utf-8"?>
<!-- Generator: Adobe Illustrator 16.0.0, SVG Export Plug-In . SVG Version: 6.00 Build 0)  -->
<!DOCTYPE svg PUBLIC "-//W3C//DTD SVG 1.1//EN" "http://www.w3.org/Graphics/SVG/1.1/DTD/svg11.dtd">
<svg version="1.1" id="Layer_1" xmlns="http://www.w3.org/2000/svg" xmlns:xlink="http://www.w3.org/1999/xlink" x="0px" y="0px"
	 width="84px" height="84px" viewBox="0 0 84 84" enable-background="new 0 0 84 84" xml:space="preserve">
<g>
	<path fill="#464D5A" d="M60.208,68.143c-0.206,0-0.412-0.085-0.56-0.25l-3.142-3.519l-3.143,3.519
		c-0.143,0.159-0.346,0.25-0.56,0.25l0,0c-0.214,0-0.417-0.091-0.56-0.25l-3.142-3.519l-3.143,3.519
		c-0.143,0.159-0.346,0.25-0.56,0.25l0,0c-0.214,0-0.417-0.091-0.56-0.25L41.7,64.374l-3.143,3.519
		c-0.143,0.159-0.346,0.25-0.56,0.25l0,0c-0.214,0-0.417-0.091-0.56-0.25l-3.142-3.519l-3.143,3.519
		c-0.143,0.159-0.346,0.25-0.56,0.25l0,0c-0.214,0-0.417-0.091-0.56-0.25l-3.15-3.528l-3.259,3.537
		c-0.279,0.302-0.75,0.325-1.056,0.047l-6.521-5.912c-0.15-0.136-0.238-0.327-0.246-0.53c-0.007-0.203,0.068-0.399,0.209-0.546
		l3.562-3.704l-3.475-2.648c-0.179-0.136-0.286-0.344-0.295-0.567s0.082-0.439,0.249-0.588l3.519-3.144l-3.519-3.141
		c-0.159-0.143-0.25-0.346-0.25-0.56c0-0.213,0.091-0.417,0.25-0.559l3.519-3.144l-3.519-3.141c-0.159-0.143-0.25-0.346-0.25-0.56
		c0-0.213,0.091-0.417,0.25-0.559l3.519-3.144l-3.519-3.141c-0.159-0.143-0.25-0.346-0.25-0.56c0-0.213,0.091-0.417,0.25-0.559
		l3.519-3.144l-3.519-3.142c-0.301-0.27-0.335-0.729-0.076-1.04l6.355-7.625c0.135-0.162,0.331-0.26,0.542-0.269
		c0.205-0.003,0.414,0.07,0.564,0.218l3.424,3.419l3.173-3.554c0.285-0.318,0.834-0.318,1.119,0l3.143,3.519l3.142-3.519
		c0.285-0.318,0.834-0.318,1.119,0l3.143,3.519l3.142-3.519c0.285-0.318,0.834-0.318,1.119,0l3.143,3.519l3.142-3.519
		c0.285-0.318,0.834-0.318,1.119,0l3.199,3.583l4.027-3.64c0.152-0.137,0.353-0.212,0.56-0.191c0.205,0.016,0.395,0.115,0.524,0.274
		l6.354,7.791c0.254,0.311,0.218,0.766-0.081,1.034L64.429,28.1l3.519,3.144c0.159,0.142,0.25,0.346,0.25,0.559
		c0,0.214-0.091,0.417-0.25,0.56l-3.519,3.141l3.519,3.144c0.159,0.142,0.25,0.346,0.25,0.559c0,0.214-0.091,0.417-0.25,0.56
		l-3.519,3.141l3.519,3.144c0.159,0.142,0.25,0.346,0.25,0.559c0,0.214-0.091,0.417-0.25,0.56l-3.519,3.141l3.519,3.144
		c0.167,0.149,0.258,0.365,0.249,0.588s-0.116,0.432-0.295,0.567l-3.475,2.648l3.562,3.704c0.145,0.151,0.221,0.356,0.208,0.565
		s-0.112,0.403-0.274,0.536l-7.239,5.912C60.543,68.087,60.375,68.143,60.208,68.143z M56.507,62.498L56.507,62.498
		c0.214,0,0.417,0.091,0.56,0.25l3.223,3.61l6.054-4.944l-3.581-3.724c-0.147-0.154-0.224-0.364-0.207-0.578
		s0.123-0.409,0.294-0.539l3.422-2.607l-3.468-3.098c-0.159-0.142-0.25-0.346-0.25-0.559c0-0.214,0.091-0.417,0.25-0.56l3.519-3.141
		l-3.519-3.144c-0.159-0.142-0.25-0.346-0.25-0.559c0-0.214,0.091-0.417,0.25-0.56l3.519-3.141l-3.519-3.144
		c-0.159-0.142-0.25-0.346-0.25-0.559c0-0.214,0.091-0.417,0.25-0.56l3.519-3.141l-3.519-3.144c-0.159-0.142-0.25-0.346-0.25-0.559
		c0-0.214,0.091-0.417,0.25-0.56l3.61-3.223l-5.402-6.624l-4.001,3.616c-0.148,0.134-0.332,0.205-0.543,0.192
		c-0.199-0.011-0.387-0.101-0.52-0.25l-3.143-3.519l-3.142,3.519c-0.285,0.318-0.834,0.318-1.119,0l-3.143-3.519l-3.142,3.519
		c-0.285,0.318-0.834,0.318-1.119,0l-3.143-3.519l-3.142,3.519c-0.285,0.318-0.834,0.318-1.119,0l-3.143-3.519l-3.142,3.519
		c-0.138,0.154-0.332,0.244-0.538,0.25c-0.186,0.014-0.404-0.073-0.552-0.219l-3.404-3.399l-5.366,6.438l3.604,3.218
		c0.159,0.143,0.25,0.346,0.25,0.56c0,0.213-0.091,0.417-0.25,0.559l-3.519,3.144l3.519,3.141c0.159,0.143,0.25,0.346,0.25,0.56
		c0,0.213-0.091,0.417-0.25,0.559l-3.519,3.144l3.519,3.141c0.159,0.143,0.25,0.346,0.25,0.56c0,0.213-0.091,0.417-0.25,0.559
		l-3.519,3.144l3.519,3.141c0.159,0.143,0.25,0.346,0.25,0.56c0,0.213-0.091,0.417-0.25,0.559l-3.468,3.098l3.422,2.607
		c0.171,0.13,0.277,0.326,0.294,0.539s-0.06,0.423-0.207,0.578l-3.609,3.753l5.397,4.894l3.315-3.598
		c0.143-0.154,0.343-0.242,0.552-0.242c0.002,0,0.004,0,0.004,0c0.214,0.001,0.415,0.093,0.556,0.25l3.142,3.519l3.143-3.519
		c0.143-0.159,0.346-0.25,0.56-0.25l0,0c0.214,0,0.417,0.091,0.56,0.25l3.142,3.519l3.143-3.519c0.143-0.159,0.346-0.25,0.56-0.25
		l0,0c0.214,0,0.417,0.091,0.56,0.25l3.142,3.519l3.143-3.519c0.143-0.159,0.346-0.25,0.56-0.25l0,0c0.214,0,0.417,0.091,0.56,0.25
		l3.142,3.519l3.143-3.519C56.09,62.589,56.293,62.498,56.507,62.498z"/>
	<g>
		<path fill="#464D5A" d="M34.627,34.242h-5.969c-0.276,0-0.5-0.224-0.5-0.5s0.224-0.5,0.5-0.5h5.969c0.276,0,0.5,0.224,0.5,0.5
			S34.903,34.242,34.627,34.242z"/>
		<path fill="#464D5A" d="M44.889,34.242H38.92c-0.276,0-0.5-0.224-0.5-0.5s0.224-0.5,0.5-0.5h5.969c0.276,0,0.5,0.224,0.5,0.5
			S45.165,34.242,44.889,34.242z"/>
		<path fill="#464D5A" d="M55.149,34.242h-5.968c-0.276,0-0.5-0.224-0.5-0.5s0.224-0.5,0.5-0.5h5.968c0.276,0,0.5,0.224,0.5,0.5
			S55.426,34.242,55.149,34.242z"/>
		<path fill="#464D5A" d="M31.643,31.306c-0.276,0-0.5-0.224-0.5-0.5v-5.968c0-0.276,0.224-0.5,0.5-0.5s0.5,0.224,0.5,0.5v5.968
			C32.143,31.082,31.919,31.306,31.643,31.306z"/>
		<path fill="#464D5A" d="M26.588,37.219c-0.276,0-0.5-0.224-0.5-0.5v-6.853c0-0.276,0.224-0.5,0.5-0.5s0.5,0.224,0.5,0.5v6.853
			C27.088,36.995,26.864,37.219,26.588,37.219z"/>
		<path fill="#464D5A" d="M36.879,37.219c-0.276,0-0.5-0.224-0.5-0.5v-6.853c0-0.276,0.224-0.5,0.5-0.5s0.5,0.224,0.5,0.5v6.853
			C37.379,36.995,37.155,37.219,36.879,37.219z"/>
		<path fill="#464D5A" d="M47.141,37.219c-0.276,0-0.5-0.224-0.5-0.5v-6.853c0-0.276,0.224-0.5,0.5-0.5s0.5,0.224,0.5,0.5v6.853
			C47.641,36.995,47.417,37.219,47.141,37.219z"/>
		<path fill="#464D5A" d="M57.412,37.219c-0.276,0-0.5-0.224-0.5-0.5v-6.853c0-0.276,0.224-0.5,0.5-0.5s0.5,0.224,0.5,0.5v6.853
			C57.912,36.995,57.688,37.219,57.412,37.219z"/>
		<g>
			<path fill="#464D5A" d="M29.572,28.321h-5.969c-0.276,0-0.5-0.224-0.5-0.5s0.224-0.5,0.5-0.5h5.969c0.276,0,0.5,0.224,0.5,0.5
				S29.849,28.321,29.572,28.321z"/>
			<path fill="#464D5A" d="M26.588,26.279c-0.276,0-0.5-0.224-0.5-0.5v-0.942c0-0.276,0.224-0.5,0.5-0.5s0.5,0.224,0.5,0.5v0.942
				C27.088,26.056,26.864,26.279,26.588,26.279z"/>
		</g>
		<g>
			<path fill="#464D5A" d="M34.73,56.679h-5.969c-0.276,0-0.5-0.224-0.5-0.5s0.224-0.5,0.5-0.5h5.969c0.276,0,0.5,0.224,0.5,0.5
				S35.007,56.679,34.73,56.679z"/>
			<path fill="#464D5A" d="M31.746,59.663c-0.276,0-0.5-0.224-0.5-0.5V58.22c0-0.276,0.224-0.5,0.5-0.5s0.5,0.224,0.5,0.5v0.943
				C32.246,59.439,32.022,59.663,31.746,59.663z"/>
		</g>
		<g>
			<path fill="#464D5A" d="M44.898,56.679h-5.968c-0.276,0-0.5-0.224-0.5-0.5s0.224-0.5,0.5-0.5h5.968c0.276,0,0.5,0.224,0.5,0.5
				S45.175,56.679,44.898,56.679z"/>
			<path fill="#464D5A" d="M41.914,59.663c-0.276,0-0.5-0.224-0.5-0.5V58.22c0-0.276,0.224-0.5,0.5-0.5s0.5,0.224,0.5,0.5v0.943
				C42.414,59.439,42.19,59.663,41.914,59.663z"/>
		</g>
		<g>
			<path fill="#464D5A" d="M55.141,56.679h-5.968c-0.276,0-0.5-0.224-0.5-0.5s0.224-0.5,0.5-0.5h5.968c0.276,0,0.5,0.224,0.5,0.5
				S55.417,56.679,55.141,56.679z"/>
			<path fill="#464D5A" d="M52.157,59.663c-0.276,0-0.5-0.224-0.5-0.5V58.22c0-0.276,0.224-0.5,0.5-0.5s0.5,0.224,0.5,0.5v0.943
				C52.657,59.439,52.434,59.663,52.157,59.663z"/>
		</g>
		<g>
			<path fill="#464D5A" d="M39.863,28.321h-5.969c-0.276,0-0.5-0.224-0.5-0.5s0.224-0.5,0.5-0.5h5.969c0.276,0,0.5,0.224,0.5,0.5
				S40.14,28.321,39.863,28.321z"/>
			<path fill="#464D5A" d="M36.879,26.279c-0.276,0-0.5-0.224-0.5-0.5v-0.942c0-0.276,0.224-0.5,0.5-0.5s0.5,0.224,0.5,0.5v0.942
				C37.379,26.056,37.155,26.279,36.879,26.279z"/>
		</g>
		<path fill="#464D5A" d="M41.904,31.306c-0.276,0-0.5-0.224-0.5-0.5v-5.968c0-0.276,0.224-0.5,0.5-0.5s0.5,0.224,0.5,0.5v5.968
			C42.404,31.082,42.181,31.306,41.904,31.306z"/>
		<g>
			<path fill="#464D5A" d="M50.124,28.321h-5.968c-0.276,0-0.5-0.224-0.5-0.5s0.224-0.5,0.5-0.5h5.968c0.276,0,0.5,0.224,0.5,0.5
				S50.4,28.321,50.124,28.321z"/>
			<path fill="#464D5A" d="M47.141,26.279c-0.276,0-0.5-0.224-0.5-0.5v-0.942c0-0.276,0.224-0.5,0.5-0.5s0.5,0.224,0.5,0.5v0.942
				C47.641,26.056,47.417,26.279,47.141,26.279z"/>
		</g>
		<path fill="#464D5A" d="M52.166,31.306c-0.276,0-0.5-0.224-0.5-0.5v-5.968c0-0.276,0.224-0.5,0.5-0.5s0.5,0.224,0.5,0.5v5.968
			C52.666,31.082,52.442,31.306,52.166,31.306z"/>
		<g>
			<path fill="#464D5A" d="M60.396,28.321h-5.969c-0.276,0-0.5-0.224-0.5-0.5s0.224-0.5,0.5-0.5h5.969c0.276,0,0.5,0.224,0.5,0.5
				S60.673,28.321,60.396,28.321z"/>
			<path fill="#464D5A" d="M57.412,26.279c-0.276,0-0.5-0.224-0.5-0.5v-0.942c0-0.276,0.224-0.5,0.5-0.5s0.5,0.224,0.5,0.5v0.942
				C57.912,26.056,57.688,26.279,57.412,26.279z"/>
		</g>
		<path fill="#464D5A" d="M60.396,34.242h-0.943c-0.276,0-0.5-0.224-0.5-0.5s0.224-0.5,0.5-0.5h0.943c0.276,0,0.5,0.224,0.5,0.5
			S60.673,34.242,60.396,34.242z"/>
		<path fill="#464D5A" d="M24.547,34.242h-0.943c-0.276,0-0.5-0.224-0.5-0.5s0.224-0.5,0.5-0.5h0.943c0.276,0,0.5,0.224,0.5,0.5
			S24.823,34.242,24.547,34.242z"/>
		<path fill="#464D5A" d="M34.627,45.46h-5.969c-0.276,0-0.5-0.224-0.5-0.5s0.224-0.5,0.5-0.5h5.969c0.276,0,0.5,0.224,0.5,0.5
			S34.903,45.46,34.627,45.46z"/>
		<path fill="#464D5A" d="M44.889,45.46H38.92c-0.276,0-0.5-0.224-0.5-0.5s0.224-0.5,0.5-0.5h5.969c0.276,0,0.5,0.224,0.5,0.5
			S45.165,45.46,44.889,45.46z"/>
		<path fill="#464D5A" d="M55.149,45.46h-5.968c-0.276,0-0.5-0.224-0.5-0.5s0.224-0.5,0.5-0.5h5.968c0.276,0,0.5,0.224,0.5,0.5
			S55.426,45.46,55.149,45.46z"/>
		<path fill="#464D5A" d="M31.643,42.524c-0.276,0-0.5-0.224-0.5-0.5v-5.968c0-0.276,0.224-0.5,0.5-0.5s0.5,0.224,0.5,0.5v5.968
			C32.143,42.3,31.919,42.524,31.643,42.524z"/>
		<path fill="#464D5A" d="M26.588,48.437c-0.276,0-0.5-0.224-0.5-0.5v-6.853c0-0.276,0.224-0.5,0.5-0.5s0.5,0.224,0.5,0.5v6.853
			C27.088,48.213,26.864,48.437,26.588,48.437z"/>
		<path fill="#464D5A" d="M36.879,48.437c-0.276,0-0.5-0.224-0.5-0.5v-6.853c0-0.276,0.224-0.5,0.5-0.5s0.5,0.224,0.5,0.5v6.853
			C37.379,48.213,37.155,48.437,36.879,48.437z"/>
		<path fill="#464D5A" d="M47.141,48.437c-0.276,0-0.5-0.224-0.5-0.5v-6.853c0-0.276,0.224-0.5,0.5-0.5s0.5,0.224,0.5,0.5v6.853
			C47.641,48.213,47.417,48.437,47.141,48.437z"/>
		<path fill="#464D5A" d="M57.412,48.437c-0.276,0-0.5-0.224-0.5-0.5v-6.853c0-0.276,0.224-0.5,0.5-0.5s0.5,0.224,0.5,0.5v6.853
			C57.912,48.213,57.688,48.437,57.412,48.437z"/>
		<g>
			<path fill="#464D5A" d="M29.572,39.54h-5.969c-0.276,0-0.5-0.224-0.5-0.5s0.224-0.5,0.5-0.5h5.969c0.276,0,0.5,0.224,0.5,0.5
				S29.849,39.54,29.572,39.54z"/>
		</g>
		<g>
			<path fill="#464D5A" d="M39.863,39.54h-5.969c-0.276,0-0.5-0.224-0.5-0.5s0.224-0.5,0.5-0.5h5.969c0.276,0,0.5,0.224,0.5,0.5
				S40.14,39.54,39.863,39.54z"/>
		</g>
		<path fill="#464D5A" d="M41.904,42.524c-0.276,0-0.5-0.224-0.5-0.5v-5.968c0-0.276,0.224-0.5,0.5-0.5s0.5,0.224,0.5,0.5v5.968
			C42.404,42.3,42.181,42.524,41.904,42.524z"/>
		<g>
			<path fill="#464D5A" d="M50.124,39.54h-5.968c-0.276,0-0.5-0.224-0.5-0.5s0.224-0.5,0.5-0.5h5.968c0.276,0,0.5,0.224,0.5,0.5
				S50.4,39.54,50.124,39.54z"/>
		</g>
		<path fill="#464D5A" d="M52.166,42.524c-0.276,0-0.5-0.224-0.5-0.5v-5.968c0-0.276,0.224-0.5,0.5-0.5s0.5,0.224,0.5,0.5v5.968
			C52.666,42.3,52.442,42.524,52.166,42.524z"/>
		<g>
			<path fill="#464D5A" d="M60.396,39.54h-5.969c-0.276,0-0.5-0.224-0.5-0.5s0.224-0.5,0.5-0.5h5.969c0.276,0,0.5,0.224,0.5,0.5
				S60.673,39.54,60.396,39.54z"/>
		</g>
		<path fill="#464D5A" d="M60.396,45.46h-0.943c-0.276,0-0.5-0.224-0.5-0.5s0.224-0.5,0.5-0.5h0.943c0.276,0,0.5,0.224,0.5,0.5
			S60.673,45.46,60.396,45.46z"/>
		<path fill="#464D5A" d="M24.547,45.46h-0.943c-0.276,0-0.5-0.224-0.5-0.5s0.224-0.5,0.5-0.5h0.943c0.276,0,0.5,0.224,0.5,0.5
			S24.823,45.46,24.547,45.46z"/>
		<path fill="#464D5A" d="M31.643,53.742c-0.276,0-0.5-0.224-0.5-0.5v-5.968c0-0.276,0.224-0.5,0.5-0.5s0.5,0.224,0.5,0.5v5.968
			C32.143,53.518,31.919,53.742,31.643,53.742z"/>
		<path fill="#464D5A" d="M26.588,59.655c-0.276,0-0.5-0.224-0.5-0.5v-6.853c0-0.276,0.224-0.5,0.5-0.5s0.5,0.224,0.5,0.5v6.853
			C27.088,59.431,26.864,59.655,26.588,59.655z"/>
		<path fill="#464D5A" d="M36.879,59.655c-0.276,0-0.5-0.224-0.5-0.5v-6.853c0-0.276,0.224-0.5,0.5-0.5s0.5,0.224,0.5,0.5v6.853
			C37.379,59.431,37.155,59.655,36.879,59.655z"/>
		<path fill="#464D5A" d="M47.141,59.655c-0.276,0-0.5-0.224-0.5-0.5v-6.853c0-0.276,0.224-0.5,0.5-0.5s0.5,0.224,0.5,0.5v6.853
			C47.641,59.431,47.417,59.655,47.141,59.655z"/>
		<path fill="#464D5A" d="M57.412,59.655c-0.276,0-0.5-0.224-0.5-0.5v-6.853c0-0.276,0.224-0.5,0.5-0.5s0.5,0.224,0.5,0.5v6.853
			C57.912,59.431,57.688,59.655,57.412,59.655z"/>
		<g>
			<path fill="#464D5A" d="M29.572,50.758h-5.969c-0.276,0-0.5-0.224-0.5-0.5s0.224-0.5,0.5-0.5h5.969c0.276,0,0.5,0.224,0.5,0.5
				S29.849,50.758,29.572,50.758z"/>
		</g>
		<g>
			<path fill="#464D5A" d="M39.863,50.758h-5.969c-0.276,0-0.5-0.224-0.5-0.5s0.224-0.5,0.5-0.5h5.969c0.276,0,0.5,0.224,0.5,0.5
				S40.14,50.758,39.863,50.758z"/>
		</g>
		<path fill="#464D5A" d="M41.904,53.742c-0.276,0-0.5-0.224-0.5-0.5v-5.968c0-0.276,0.224-0.5,0.5-0.5s0.5,0.224,0.5,0.5v5.968
			C42.404,53.518,42.181,53.742,41.904,53.742z"/>
		<g>
			<path fill="#464D5A" d="M50.124,50.758h-5.968c-0.276,0-0.5-0.224-0.5-0.5s0.224-0.5,0.5-0.5h5.968c0.276,0,0.5,0.224,0.5,0.5
				S50.4,50.758,50.124,50.758z"/>
		</g>
		<path fill="#464D5A" d="M52.166,53.742c-0.276,0-0.5-0.224-0.5-0.5v-5.968c0-0.276,0.224-0.5,0.5-0.5s0.5,0.224,0.5,0.5v5.968
			C52.666,53.518,52.442,53.742,52.166,53.742z"/>
		<g>
			<path fill="#464D5A" d="M60.396,50.758h-5.969c-0.276,0-0.5-0.224-0.5-0.5s0.224-0.5,0.5-0.5h5.969c0.276,0,0.5,0.224,0.5,0.5
				S60.673,50.758,60.396,50.758z"/>
		</g>
		<path fill="#464D5A" d="M60.396,56.679h-0.943c-0.276,0-0.5-0.224-0.5-0.5s0.224-0.5,0.5-0.5h0.943c0.276,0,0.5,0.224,0.5,0.5
			S60.673,56.679,60.396,56.679z"/>
		<path fill="#464D5A" d="M24.547,56.679h-0.943c-0.276,0-0.5-0.224-0.5-0.5s0.224-0.5,0.5-0.5h0.943c0.276,0,0.5,0.224,0.5,0.5
			S24.823,56.679,24.547,56.679z"/>
	</g>
</g>
</svg>
