<?xml version="1.0" encoding="UTF-8"?>
<svg width="75px" height="75px" viewBox="0 0 75 75" version="1.1" xmlns="http://www.w3.org/2000/svg" xmlns:xlink="http://www.w3.org/1999/xlink">
    <!-- Generator: Sketch 47.1 (45422) - http://www.bohemiancoding.com/sketch -->
    <title>icon-3zones</title>
    <desc>Created with Sketch.</desc>
    <defs>
        <polygon id="path-1" points="0 25.5 0 0 71 0 71 25.5 71 51 0 51"></polygon>
    </defs>
    <g id="Page-1" stroke="none" stroke-width="1" fill="none" fill-rule="evenodd">
        <g id="icon-3zones">
            <g id="Page-1" transform="translate(2.000000, 12.000000)">
                <mask id="mask-2" fill="white">
                    <use xlink:href="#path-1"></use>
                </mask>
                <g id="Clip-2"></g>
                <path d="M63.3684565,7.70521887 C62.6391751,8.52515199 61.4462749,9.86667871 60.7171921,10.6866118 L54.5755826,17.5920705 C53.8464998,18.4118034 52.653401,18.4118034 51.9243181,17.5920705 L45.7829072,10.6866118 C45.0538244,9.86667871 43.860527,8.52515199 43.1314442,7.70521887 L36.8258308,0.61494984 C36.0965494,-0.20498328 34.9034506,-0.20498328 34.1743678,0.61494984 L27.8683572,7.70521887 C27.1392744,8.52515199 25.9463742,9.86667871 25.2170928,10.6866118 L19.0756819,17.5920705 C18.346599,18.4118034 17.1533017,18.4118034 16.4244174,17.5920705 L10.2828079,10.6866118 C9.55372509,9.86667871 8.36062631,8.52515199 7.63154348,7.70521887 L1.3257315,0.61494984 C0.596648666,-0.20498328 0,0.0254789962 0,1.12673227 L0,17.2650984 L0,21.2696558 L0,48.9977213 C0,50.0989746 0.89348386,51 1.98551969,51 L6.27384511,51 L6.27384511,39.1883578 C6.27384511,38.0871046 7.16732897,37.1860792 8.2593648,37.1860792 L17.1886439,37.1860792 C18.2806798,37.1860792 19.1741636,38.0871046 19.1741636,39.1883578 L19.1741636,51 L29.0497415,51 L29.0497415,39.1883578 C29.0497415,38.0871046 29.9432253,37.1860792 31.0352612,37.1860792 L39.9645403,37.1860792 C41.0565761,37.1860792 41.95006,38.0871046 41.95006,39.1883578 L41.95006,51 L51.8256378,51 L51.8256378,39.1883578 C51.8256378,38.0871046 52.7191217,37.1860792 53.8111575,37.1860792 L62.7406352,37.1860792 C63.832671,37.1860792 64.7261549,38.0871046 64.7261549,39.1883578 L64.7261549,51 L69.0142818,51 C70.1063176,51 70.9998014,50.0989746 70.9998014,48.9977213 L70.9998014,21.2696558 L70.9998014,19.2673771 C70.9998014,19.2673771 71,18.3663517 71,17.2650984 L71,1.12673227 C71,0.0254789962 70.4033513,-0.20498328 69.6742685,0.61494984 L63.3684565,7.70521887 Z" id="Fill-1" fill="#414A59" mask="url(#mask-2)"></path>
            </g>
        </g>
    </g>
</svg>