<?xml version="1.0" encoding="UTF-8"?>
<svg width="90px" height="90px" viewBox="0 0 90 90" version="1.1" xmlns="http://www.w3.org/2000/svg" xmlns:xlink="http://www.w3.org/1999/xlink">
    <!-- Generator: Sketch 53.2 (72643) - https://sketchapp.com -->
    <title>iconv2-120nightguarantee90</title>
    <desc>Created with Sketch.</desc>
    <g id="iconv2-120nightguarantee90" stroke="none" stroke-width="1" fill="none" fill-rule="evenodd">
        <g id="iconv2-120nightguarantee" transform="translate(7.000000, 0.000000)" fill="#556774">
            <path d="M45.765,89.46 C26.9029845,89.4601854 10.0937561,77.5585743 3.82872221,59.7674253 C-2.43631166,41.9762764 3.20659654,22.1682959 17.9068559,10.349751 C32.6071154,-1.46879381 53.1648323,-2.72528935 69.195,7.215 C69.8390559,7.61475444 70.083644,8.43219363 69.765,9.12 C69.4444822,9.8185275 68.6478504,10.1617916 67.92,9.915 L67.305,9.705 C52.0817549,5.00652115 35.5609171,10.5917528 26.3115582,23.5637324 C17.0621993,36.535712 17.1660918,53.9748089 26.5693485,66.8356665 C35.9726051,79.696524 52.5588154,85.0845223 67.725,80.205 L67.8,80.205 C68.1849452,79.9617974 68.6595212,79.9066142 69.09,80.055 C69.517639,80.2059956 69.8540044,80.542361 70.005,80.97 C70.1585321,81.3531143 70.1474204,81.7825628 69.9742812,82.1572247 C69.801142,82.5318865 69.4812756,82.818653 69.09,82.95 L69.015,82.95 C62.015438,87.2266989 53.9676592,89.480077 45.765,89.46 L45.765,89.46 Z M45.765,3.54 C29.6048716,3.5379191 14.9161561,12.9257181 8.13110126,27.5924418 C1.34604645,42.2591656 3.70125403,59.5317488 14.1653691,71.8464575 C24.6294842,84.1611663 41.2953825,89.2735987 56.865,84.945 C34.8039857,84.945 16.92,67.0610143 16.92,45 C16.92,22.9389857 34.8039857,5.055 56.865,5.055 C53.2514529,4.04592096 49.5167927,3.53619031 45.765,3.54 Z" id="Shape" fill-rule="nonzero"></path>
            <path d="M55.575,27 L55.575,27 C55.3774389,27.0000411 55.1881791,26.9205482 55.0499005,26.7794475 C54.9116218,26.6383469 54.8359681,26.4475199 54.84,26.25 C54.956056,24.7142977 54.4322436,23.1989142 53.3926022,22.062694 C52.3529607,20.9264738 50.8899455,20.270461 49.35,20.25 C48.9333715,20.2418293 48.5999199,19.9017086 48.6,19.485 C48.6081685,19.076656 48.9415743,18.7499183 49.35,18.75 C50.805536,18.7743146 52.2092345,18.2099291 53.2428248,17.1848109 C54.276415,16.1596927 54.8523342,14.7606868 54.84,13.305 C54.8703437,12.9008062 55.1999162,12.5841581 55.605,12.57 C56.0099947,12.5858223 56.3323618,12.9147684 56.34,13.32 C56.3026707,14.7686283 56.8606807,16.1692571 57.8839374,17.1953483 C58.9071942,18.2214395 60.3062739,18.7833219 61.755,18.75 C61.9525611,18.7499589 62.1418209,18.8294518 62.2800995,18.9705525 C62.4183782,19.1116531 62.4940319,19.3024801 62.49,19.5 C62.49,19.9142136 62.1542136,20.25 61.74,20.25 C56.505,20.25 56.34,26.055 56.34,26.25 C56.3318293,26.6666285 55.9917086,27.0000801 55.575,27 L55.575,27 Z M52.575,19.5 C53.9437851,20.1460571 55.038799,21.2570178 55.665,22.635 C56.2388792,21.3062507 57.2354756,20.2041944 58.5,19.5 C57.1948641,18.9116139 56.1344915,17.8883544 55.5,16.605 C54.8680844,17.911875 53.810026,18.964643 52.5,19.59 L52.575,19.5 Z" id="Shape" fill-rule="nonzero"></path>
            <path d="M41.445,38.61 L41.445,38.61 C41.036656,38.6018315 40.7099183,38.2684257 40.71,37.86 C40.8242142,36.7108634 40.4479221,35.5669191 39.6738257,34.7099858 C38.8997293,33.8530525 37.7997952,33.3627981 36.645,33.36 C36.2307864,33.36 35.895,33.0242136 35.895,32.61 C35.895,32.1957864 36.2307864,31.86 36.645,31.86 C37.7224923,31.8888911 38.7648832,31.4756416 39.5298872,30.7163043 C40.2948912,29.956967 40.7158793,28.9176773 40.695,27.84 C40.7031685,27.431656 41.0365743,27.1049183 41.445,27.105 L41.445,27.105 C41.8558627,27.1129802 42.1870198,27.4441373 42.195,27.855 C42.1479774,28.9282845 42.5527121,29.9721887 43.3109403,30.7332674 C44.0691685,31.4943461 45.1115466,31.902995 46.185,31.86 C46.5992136,31.86 46.935,32.1957864 46.935,32.61 C46.935,33.0242136 46.5992136,33.36 46.185,33.36 C42.3,33.36 42.195,37.665 42.195,37.86 C42.1870198,38.2708627 41.8558627,38.6020198 41.445,38.61 Z M39.495,32.61 C40.3280421,33.0908733 41.0129658,33.7913635 41.475,34.635 C41.8902483,33.7900132 42.5281492,33.0743194 43.32,32.565 C42.5163394,32.1278029 41.8472862,31.4794956 41.385,30.69 C40.9565988,31.5205361 40.3011838,32.2123631 39.495,32.685 L39.495,32.61 Z" id="Shape" fill-rule="nonzero"></path>
            <path d="M67.5,41.04 L67.5,41.04 C67.1437763,41.04 66.855,40.7512237 66.855,40.395 C66.9762363,38.9751447 66.4996647,37.5690797 65.5400995,36.5155512 C64.5805344,35.4620228 63.2249751,34.8565492 61.8,34.845 C61.4775119,34.7959642 61.2392157,34.5186949 61.2392157,34.1925 C61.2392157,33.8663051 61.4775119,33.5890358 61.8,33.54 C63.1324969,33.5441778 64.410748,33.0125716 65.3473114,32.0647243 C66.2838748,31.1168771 66.800135,29.8323513 66.78,28.5 C66.7911259,28.3230475 66.8746028,28.1584778 67.0108099,28.0449719 C67.147017,27.931466 67.3239421,27.8790341 67.5,27.9 L67.5,27.9 C67.8586369,27.9081529 68.1450927,28.2012705 68.145,28.56 C68.107525,29.8892921 68.6180745,31.1755534 69.55698,32.1172955 C70.4958856,33.0590376 71.7806009,33.5734649 73.11,33.54 C73.2810646,33.54 73.4451229,33.6079552 73.5660839,33.7289161 C73.6870448,33.8498771 73.755,34.0139354 73.755,34.185 C73.7550927,34.5437295 73.4686369,34.8368471 73.11,34.845 C68.295,34.845 68.145,40.17 68.145,40.41 C68.1292922,40.7570162 67.8472897,41.0324605 67.5,41.04 L67.5,41.04 Z M64.65,34.275 C65.949846,34.8866985 66.9799798,35.9541946 67.545,37.275 C68.0715645,35.9932149 69.0255713,34.9332073 70.245,34.275 C68.9782561,33.7328548 67.9537961,32.745745 67.365,31.5 C66.7949953,32.7276345 65.8056894,33.7116215 64.575,34.275 L64.65,34.275 Z" id="Shape" fill-rule="nonzero"></path>
            <polygon id="Shape" fill-rule="nonzero" points="32.445 49.5 32.445 49.5 29.445 52.035 28.5 51 32.73 47.55 33.96 47.55 33.96 64.5 32.46 64.5"></polygon>
            <rect id="Rectangle" x="37.5" y="57" width="4.5" height="1.5"></rect>
            <path d="M47.3752705,61.1149344 L47.3752705,58.36056 L44.9780273,54.5705053 L46.5270839,54.5705053 L48.0672122,57.1597064 L49.5760915,54.5705053 L51.0983632,54.5705053 L48.6921918,58.3694883 L48.6921918,61.1149344 L47.3752705,61.1149344 Z M51.806835,61.1149344 L51.806835,54.5705053 L56.659355,54.5705053 L56.659355,55.677612 L53.1282204,55.677612 L53.1282204,57.1284574 L56.4138274,57.1284574 L56.4138274,58.2311 L53.1282204,58.2311 L53.1282204,60.0122918 L56.784351,60.0122918 L56.784351,61.1149344 L51.806835,61.1149344 Z M63.8586863,61.1149344 L62.4212332,61.1149344 L61.8498233,59.6283758 L59.2338373,59.6283758 L58.6936764,61.1149344 L57.2919364,61.1149344 L59.8409603,54.5705053 L61.2382361,54.5705053 L63.8586863,61.1149344 Z M61.42573,58.5257332 L60.5239737,56.0972411 L59.640074,58.5257332 L61.42573,58.5257332 Z M64.6162636,61.1149344 L64.6162636,54.5705053 L67.3974228,54.5705053 C68.0968082,54.5705053 68.604971,54.6292825 68.9219265,54.7468388 C69.2388821,54.8643951 69.4925915,55.0734635 69.6830624,55.3740504 C69.8735333,55.6746374 69.9687673,56.0183727 69.9687673,56.4052668 C69.9687673,56.8963246 69.8244283,57.3018133 69.5357458,57.6217449 C69.2470633,57.9416765 68.8155341,58.1433048 68.2411452,58.2266358 C68.5268516,58.3932979 68.7627046,58.5763258 68.9487114,58.7757251 C69.1347181,58.9751243 69.3854515,59.3292759 69.700919,59.8381904 L70.5,61.1149344 L68.9196945,61.1149344 L67.9643685,59.6908737 C67.6250922,59.1819592 67.3929592,58.8612884 67.2679627,58.7288516 C67.1429662,58.5964148 67.0105313,58.5056448 66.8706542,58.4565391 C66.7307772,58.4074333 66.5090604,58.3828807 66.2054974,58.3828807 L65.937649,58.3828807 L65.937649,61.1149344 L64.6162636,61.1149344 Z M65.937649,57.338272 L66.9152956,57.338272 C67.5492067,57.338272 67.9450231,57.3114874 68.1027569,57.2579175 C68.2604906,57.2043475 68.3839972,57.1120896 68.4732805,56.9811408 C68.5625637,56.8501921 68.6072047,56.6865086 68.6072047,56.4900854 C68.6072047,56.2698534 68.5484274,56.0920336 68.4308711,55.9566207 C68.3133149,55.8212078 68.1473993,55.735646 67.9331195,55.6999327 C67.8259796,55.6850521 67.5045648,55.677612 66.9688653,55.677612 L65.937649,55.677612 L65.937649,57.338272 Z" id="YEAR"></path>
        </g>
    </g>
</svg>