<?xml version="1.0" encoding="UTF-8"?>
<svg width="75px" height="75px" viewBox="0 0 75 75" version="1.1" xmlns="http://www.w3.org/2000/svg" xmlns:xlink="http://www.w3.org/1999/xlink">
    <!-- Generator: Sketch 46.2 (44496) - http://www.bohemiancoding.com/sketch -->
    <title>icon-California</title>
    <desc>Created with Sketch.</desc>
    <defs>
        <polygon id="path-1" points="64.7164493 74.0622188 64.7164493 0.860625 0.091 0.860625 0.091 74.0622188"></polygon>
    </defs>
    <g id="Page-1" stroke="none" stroke-width="1" fill="none" fill-rule="evenodd">
        <g id="icon-California">
            <g transform="translate(5.000000, 0.000000)">
                <path d="M31.5,68 C14.6820489,68 1,54.3179511 1,37.5 C1,20.6820489 14.6820489,7 31.5,7 C48.3179511,7 62,20.6820489 62,37.5 C62,54.3179511 48.3179511,68 31.5,68" id="Fill-1" fill="#FFFFFF" fill-rule="nonzero"></path>
                <g id="Group-7">
                    <g id="Fill-5-Clipped">
                        <mask id="mask-2" fill="white">
                            <use xlink:href="#path-1"></use>
                        </mask>
                        <g id="path-1"></g>
                        <path d="M63.043029,59.4812813 L63.043029,59.1165938 L62.328029,58.2859688 L62.2093333,57.5237813 L61.3803478,56.6978438 L61.4001304,55.8044063 L28.0560725,26.1934688 L28.0560725,0.86034375 L1.77817391,0.86034375 L1.42302899,2.51878125 L1.77817391,3.44596875 L2.39897101,4.58315625 L2.39897101,5.50659375 L2.29534783,6.37190625 L1.78571014,7.61878125 L1.78571014,8.49909375 L1.97128986,9.12628125 L1.91194203,9.74690625 L1.37121739,10.7462813 L1.35237681,11.0490938 L0.640202899,11.4850313 L0.091,13.0309688 L0.183318841,13.9469063 L0.669405797,15.3962813 L1.41926087,15.9240938 L2.39426087,16.8222188 L3.09701449,17.8365938 L3.61042029,19.2944063 L4.00042029,20.4944063 L3.89773913,21.3090938 L3.89491304,22.5709688 L4.46672464,23.8319063 L4.62310145,24.2359688 L4.62310145,25.0919063 L4.41585507,26.0181563 L5.07621739,26.5103438 L5.59998551,27.1019063 L6.41295652,28.2962813 L7.44824638,29.3265938 L8.2744058,30.1112813 L8.64462319,30.5462813 L9.12505797,31.5044063 L9.25976812,32.3040938 L9.79672464,32.7053438 L10.0972319,33.1909688 L10.7557101,33.7365938 L10.9384638,33.7253438 C11.1052029,33.7150313 11.5762174,33.6878438 11.7523768,33.6878438 C11.9285362,33.6878438 12.0877391,33.6081563 12.1885362,33.4694063 C12.3891884,33.1947188 12.2723768,32.8403438 12.1696957,32.5281563 C12.1583913,32.4953438 12.1442609,32.4522188 12.1357826,32.4250313 L12.1357826,32.0903438 L12.1781739,32.0144063 L12.5210725,31.9140938 L12.8733913,32.0144063 L13.3773768,32.3087813 L13.4188261,32.3744063 L13.3472319,32.8244063 L12.7829565,33.6194063 L13.3698406,34.6825313 L13.9058551,35.2590938 L14.2478116,35.4859688 L14.3278841,35.9425313 L14.5360725,36.8247188 L15.008971,37.0600313 C14.9825942,37.0806563 14.9486812,37.1031563 14.9204203,37.1181563 C14.8177391,37.1097188 14.6123768,37.0881563 14.4098406,37.0656563 L13.8540435,36.5472188 L11.8833188,35.6312813 L12.1112899,37.4472188 L12.4815072,38.1831563 L12.4815072,40.1800313 L12.9694783,40.2606563 L13.1399855,40.4069063 L14.294913,41.3012813 L15.5666522,41.4419063 L15.8492609,41.9537813 L16.0046957,42.4694063 L15.7503478,42.8678438 L15.7814348,43.0197188 L15.4178116,42.7665938 L14.7112899,43.8719063 L14.8978116,44.0950313 L14.7649855,44.2937813 L15.3311449,45.1384688 L15.4536087,46.3975313 L16.3918696,47.1559688 L16.8628841,47.0453438 L17.1831739,47.9378438 L17.4262174,48.0184688 L17.4262174,48.5912813 L17.9773043,48.7740938 L18.1233188,49.2381563 L18.6329565,49.8981563 L18.9871594,50.0387813 L19.0625217,50.1681563 L18.8354928,50.7325313 L19.2933188,50.9603438 L19.4487536,51.3222188 L19.9583913,51.3728438 L20.3785362,51.7309688 L20.9079565,52.2203438 L21.5881014,52.8006563 L21.8933188,52.8006563 L21.8791884,53.0519063 L21.6813623,53.4072188 L21.6813623,54.0906563 L22.8815072,55.0337813 L23.1311449,54.8209688 L23.4985362,55.1481563 L23.5983913,55.3337813 L23.2912899,55.6122188 L23.2912899,56.5797188 L23.5352754,57.0240938 L23.6078116,57.6409688 L23.8037536,58.1537813 L23.7717246,58.1762813 L23.1857826,59.4390938 L24.1796232,59.4390938 L24.3162174,59.8750313 L24.9125217,60.2978438 L26.2473768,59.7840938 L27.781942,59.8169063 L28.2821594,60.1590938 L28.756,60.4000313 L30.4346957,60.2856563 L31.2401304,60.7178438 L31.7394058,61.2906563 L32.1463623,61.5062813 L32.1463623,61.9094063 L32.7765797,62.4109688 L33.6931739,62.6603438 L35.0167246,63.1394063 L36.2423043,63.1394063 L37.2888986,63.3409688 L37.6120145,63.5706563 L37.8192609,64.3084688 L37.8192609,65.4681563 L38.9327391,65.1419063 L39.741942,65.3715938 L40.0773043,65.7719063 L40.8638986,66.2940938 L41.5713623,66.5697188 L41.7917971,67.4500313 L42.4851304,67.4500313 L43.5496232,68.6087813 L44.4144058,69.9353438 L44.7507101,71.0078438 L44.680058,71.7165938 L44.745058,72.6297188 L45.5495507,72.8078438 L45.7002754,73.1265938 L45.5561449,74.0622188 L60.7454203,72.6990938 L61.0534638,72.4234688 L62.1085362,72.7234688 L62.2375942,71.9556563 L62.8696957,71.5365938 L62.3845507,70.5700313 L61.7185362,70.2756563 L61.3982464,70.3919063 L61.2079565,70.2025313 L60.9818696,69.6775313 L61.3351304,68.9744063 L60.8565797,68.4578438 L61.0798406,67.9037813 L61.1222319,67.4865938 L61.5084638,67.1987813 L61.7873043,66.6437813 L62.2912899,65.1522188 L62.3581739,63.9540938 L62.0972319,63.3484688 L62.9394058,62.5600313 L63.0194783,62.2422188 L64.1517971,61.9740938 L64.7170145,60.9615938 L63.043029,59.4812813 Z" id="Fill-5" fill="#414A59" fill-rule="nonzero" mask="url(#mask-2)"></path>
                    </g>
                </g>
                <polygon id="Fill-8" fill="#FFFFFF" fill-rule="nonzero" points="28.9869263 48 27.8508701 51.7466307 24 51.7466307 27.1205482 54.1522911 25.9529348 58 29.0193851 55.6174432 32.0741141 57.9720832 30.8938779 54.1599923 34 51.7466307 30.1473267 51.7466307"></polygon>
            </g>
        </g>
    </g>
</svg>