<?xml version="1.0" encoding="UTF-8"?>
<svg width="84px" height="84px" viewBox="0 0 84 84" version="1.1" xmlns="http://www.w3.org/2000/svg" xmlns:xlink="http://www.w3.org/1999/xlink">
    <!-- Generator: Sketch 51.2 (57519) - http://www.bohemiancoding.com/sketch -->
    <title>Artboard</title>
    <desc>Created with Sketch.</desc>
    <defs></defs>
    <g id="Artboard" stroke="none" stroke-width="1" fill="none" fill-rule="evenodd">
        <g id="iconv2-120nightguarantee" transform="translate(16.000000, 11.000000)" fill="#556774">
            <path d="M30.51,59.64 C17.935323,59.6401236 6.72917072,51.7057162 2.55248147,39.8449502 C-1.62420777,27.9841843 2.13773102,14.7788639 11.937904,6.89983402 C21.7380769,-0.979195875 35.4432215,-1.81685957 46.13,4.81 C46.5593706,5.07650296 46.7224293,5.62146242 46.51,6.08 C46.2963215,6.545685 45.7652336,6.77452773 45.28,6.61 L44.87,6.47 C34.72117,3.33768077 23.7072781,7.06116856 17.5410388,15.7091549 C11.3747995,24.3571413 11.4440612,35.9832059 17.712899,44.557111 C23.9817368,53.131016 35.0392102,56.7230148 45.15,53.47 L45.2,53.47 C45.4566301,53.3078649 45.7730142,53.2710761 46.06,53.37 C46.3450927,53.4706637 46.5693363,53.6949073 46.67,53.98 C46.7723548,54.2354095 46.7649469,54.5217086 46.6495208,54.7714831 C46.5340947,55.0212577 46.3208504,55.2124353 46.06,55.3 L46.01,55.3 C41.3436253,58.1511326 35.9784395,59.6533847 30.51,59.64 Z M30.51,2.36 C19.736581,2.35861274 9.94410405,8.61714537 5.42073417,18.3949612 C0.8973643,28.1727771 2.46750269,39.6878325 9.44357941,47.8976384 C16.4196561,56.1074442 27.530255,59.5157325 37.91,56.63 C23.2026571,56.63 11.28,44.7073429 11.28,30 C11.28,15.2926571 23.2026571,3.37 37.91,3.37 C35.5009686,2.69728064 33.0111951,2.3574602 30.51,2.36 Z" id="Shape" fill-rule="nonzero"></path>
            <path d="M37.05,18 C36.9182926,18.0000274 36.7921194,17.9470321 36.6999337,17.852965 C36.6077479,17.7588979 36.5573121,17.63168 36.56,17.5 C36.6373707,16.4761984 36.2881624,15.4659428 35.5950681,14.7084627 C34.9019738,13.9509825 33.9266303,13.5136407 32.9,13.5 C32.6222477,13.4945528 32.3999466,13.2678057 32.4,12.99 C32.4054457,12.7177706 32.6277162,12.4999455 32.9,12.5 C33.8703573,12.5162097 34.8061563,12.1399528 35.4952165,11.4565406 C36.1842767,10.7731285 36.5682228,9.84045785 36.56,8.87 C36.5802291,8.60053746 36.7999441,8.38943876 37.07,8.38 C37.3399964,8.39054819 37.5549079,8.60984558 37.56,8.88 C37.5351138,9.84575223 37.9071205,10.7795047 38.5892916,11.4635655 C39.2714628,12.1476264 40.2041826,12.5222146 41.17,12.5 C41.3017074,12.4999726 41.4278806,12.5529679 41.5200663,12.647035 C41.6122521,12.7411021 41.6626879,12.86832 41.66,13 C41.66,13.2761424 41.4361424,13.5 41.16,13.5 C37.67,13.5 37.56,17.37 37.56,17.5 C37.5545528,17.7777523 37.3278057,18.0000534 37.05,18 Z M35.05,13 C35.9625234,13.4307048 36.6925327,14.1713452 37.11,15.09 C37.4925861,14.2041672 38.1569837,13.4694629 39,13 C38.1299094,12.6077426 37.4229943,11.9255696 37,11.07 C36.5787229,11.94125 35.8733507,12.6430954 35,13.06 L35.05,13 Z" id="Shape" fill-rule="nonzero"></path>
            <path d="M27.63,25.74 C27.3577706,25.7345543 27.1399455,25.5122838 27.14,25.24 C27.2161428,24.4739089 26.9652814,23.7112794 26.4492171,23.1399905 C25.9331528,22.5687017 25.1998635,22.2418654 24.43,22.24 C24.1538576,22.24 23.93,22.0161424 23.93,21.74 C23.93,21.4638576 24.1538576,21.24 24.43,21.24 C25.1483282,21.2592607 25.8432555,20.9837611 26.3532581,20.4775362 C26.8632608,19.9713113 27.1439195,19.2784515 27.13,18.56 C27.1354457,18.2877706 27.3577162,18.0699455 27.63,18.07 C27.9039085,18.0753201 28.1246799,18.2960915 28.13,18.57 C28.0986516,19.285523 28.3684747,19.9814591 28.8739602,20.4888449 C29.3794457,20.9962307 30.0743644,21.2686633 30.79,21.24 C31.0661424,21.24 31.29,21.4638576 31.29,21.74 C31.29,22.0161424 31.0661424,22.24 30.79,22.24 C28.2,22.24 28.13,25.11 28.13,25.24 C28.1246799,25.5139085 27.9039085,25.7346799 27.63,25.74 Z M26.33,21.74 C26.8853614,22.0605822 27.3419772,22.5275756 27.65,23.09 C27.9268322,22.5266754 28.3520995,22.0495463 28.88,21.71 C28.3442262,21.4185352 27.8981908,20.9863304 27.59,20.46 C27.3043992,21.0136908 26.8674558,21.4749088 26.33,21.79 L26.33,21.74 Z" id="Shape" fill-rule="nonzero"></path>
            <path d="M45,27.36 C44.7625176,27.36 44.57,27.1674824 44.57,26.93 C44.6508242,25.9834298 44.3331098,25.0460531 43.6933997,24.3437008 C43.0536896,23.6413485 42.1499834,23.2376995 41.2,23.23 C40.9850079,23.1973095 40.8261438,23.0124632 40.8261438,22.795 C40.8261438,22.5775368 40.9850079,22.3926905 41.2,22.36 C42.0883313,22.3627852 42.9404987,22.0083811 43.5648743,21.3764829 C44.1892498,20.7445847 44.5334233,19.8882342 44.52,19 C44.5274173,18.8820317 44.5830685,18.7723185 44.6738733,18.6966479 C44.764678,18.6209773 44.882628,18.5860227 45,18.6 C45.2390913,18.6054353 45.4300618,18.800847 45.43,19.04 C45.4050167,19.9261947 45.745383,20.7837023 46.37132,21.4115303 C46.997257,22.0393584 47.853734,22.3823099 48.74,22.36 C48.8540431,22.36 48.9634153,22.4053034 49.0440559,22.4859441 C49.1246966,22.5665847 49.17,22.6759569 49.17,22.79 C49.1700618,23.029153 48.9790913,23.2245647 48.74,23.23 C45.53,23.23 45.43,26.78 45.43,26.94 C45.4195281,27.1713441 45.2315264,27.3549737 45,27.36 Z M43.1,22.85 C43.966564,23.257799 44.6533198,23.9694631 45.03,24.85 C45.381043,23.9954766 46.0170475,23.2888049 46.83,22.85 C45.9855041,22.4885699 45.3025308,21.8304966 44.91,21 C44.5299969,21.818423 43.8704596,22.4744144 43.05,22.85 L43.1,22.85 Z" id="Shape" fill-rule="nonzero"></path>
            <polygon id="Shape" fill-rule="nonzero" points="21.63 33 21.63 33 19.63 34.69 19 34 21.82 31.7 22.64 31.7 22.64 43 21.64 43"></polygon>
            <rect id="Rectangle" x="25" y="38" width="3" height="1"></rect>
            <path d="M31.5835137,40.7432896 L31.5835137,38.90704 L29.9853516,36.3803368 L31.0180559,36.3803368 L32.0448081,38.1064709 L33.0507276,36.3803368 L34.0655755,36.3803368 L32.4614612,38.9129922 L32.4614612,40.7432896 L31.5835137,40.7432896 Z M34.53789,40.7432896 L34.53789,36.3803368 L37.7729034,36.3803368 L37.7729034,37.118408 L35.4188136,37.118408 L35.4188136,38.0856383 L37.6092182,38.0856383 L37.6092182,38.8207333 L35.4188136,38.8207333 L35.4188136,40.0081945 L37.856234,40.0081945 L37.856234,40.7432896 L34.53789,40.7432896 Z M42.5724575,40.7432896 L41.6141555,40.7432896 L41.2332155,39.7522505 L39.4892249,39.7522505 L39.1291176,40.7432896 L38.1946243,40.7432896 L39.8939736,36.3803368 L40.8254908,36.3803368 L42.5724575,40.7432896 Z M40.9504867,39.0171555 L40.3493158,37.3981607 L39.7600494,39.0171555 L40.9504867,39.0171555 Z M43.0775091,40.7432896 L43.0775091,36.3803368 L44.9316152,36.3803368 C45.3978721,36.3803368 45.7366473,36.4195217 45.947951,36.4978925 C46.1592547,36.5762634 46.3283943,36.7156423 46.4553749,36.9160336 C46.5823555,37.1164249 46.6458449,37.3455818 46.6458449,37.6035112 C46.6458449,37.9308831 46.5496188,38.2012088 46.3571639,38.4144966 C46.1647089,38.6277843 45.8770227,38.7622032 45.4940968,38.8177572 C45.6845677,38.9288653 45.8418031,39.0508839 45.9658076,39.1838167 C46.0898121,39.3167495 46.2569677,39.5528506 46.4672793,39.8921269 L47,40.7432896 L45.946463,40.7432896 L45.309579,39.7939158 C45.0833948,39.4546395 44.9286395,39.2408589 44.8453085,39.1525677 C44.7619774,39.0642765 44.6736876,39.0037632 44.5804362,38.971026 C44.4871848,38.9382888 44.3393736,38.9219205 44.1369983,38.9219205 L43.9584327,38.9219205 L43.9584327,40.7432896 L43.0775091,40.7432896 Z M43.9584327,38.2255147 L44.6101971,38.2255147 C45.0328045,38.2255147 45.2966821,38.2076583 45.4018379,38.171945 C45.5069937,38.1362317 45.5893315,38.0747264 45.6488536,37.9874272 C45.7083758,37.900128 45.7381364,37.7910057 45.7381364,37.6600569 C45.7381364,37.5132356 45.6989516,37.3946891 45.6205808,37.3044138 C45.5422099,37.2141385 45.4315996,37.1570973 45.2887464,37.1332884 C45.2173198,37.1233681 45.0030432,37.118408 44.6459102,37.118408 L43.9584327,37.118408 L43.9584327,38.2255147 Z" id="YEAR"></path>
        </g>
    </g>
</svg>