<?xml version="1.0" encoding="UTF-8"?>
<svg width="29px" height="28px" viewBox="0 0 29 28" version="1.1" xmlns="http://www.w3.org/2000/svg" xmlns:xlink="http://www.w3.org/1999/xlink">
    <!-- Generator: Sketch 56.3 (81716) - https://sketch.com -->
    <title>Shape</title>
    <desc>Created with Sketch.</desc>
    <g id="NAV" stroke="none" stroke-width="1" fill="none" fill-rule="evenodd">
        <g id="navigation" transform="translate(-356.000000, -117.000000)" fill="#38414F" fill-rule="nonzero">
            <g id="NAV" transform="translate(0.000000, 103.140449)">
                <path d="M370.859551,13.8595506 C363.139823,13.8595506 356.859551,20.1398233 356.859551,27.8595506 C356.859551,35.5792778 363.139823,41.8595506 370.859551,41.8595506 C378.579278,41.8595506 384.859551,35.5792778 384.859551,27.8595506 C384.859551,20.1398233 378.579278,13.8595506 370.859551,13.8595506 Z M370.859551,39.314096 C364.543005,39.314096 359.405005,34.176096 359.405005,27.8595506 C359.405005,21.5430051 364.543005,16.4050051 370.859551,16.4050051 C377.176096,16.4050051 382.314096,21.5430051 382.314096,27.8595506 C382.314096,34.176096 377.176096,39.314096 370.859551,39.314096 Z M375.050641,21.870096 L370.859551,26.0599142 L366.66846,21.8688233 L364.86876,23.6685233 L369.059851,27.8596142 L364.86876,32.0507051 L366.66846,33.8504051 L370.859551,29.6593142 L375.050641,33.8504051 L376.850341,32.0507051 L372.659251,27.8596142 L376.850341,23.6685233 L375.050641,21.870096 Z" id="Shape"></path>
            </g>
        </g>
    </g>
</svg>