<?xml version="1.0" encoding="UTF-8"?>
<svg width="75px" height="75px" viewBox="0 0 75 75" version="1.1" xmlns="http://www.w3.org/2000/svg" xmlns:xlink="http://www.w3.org/1999/xlink">
    <!-- Generator: Sketch 46.2 (44496) - http://www.bohemiancoding.com/sketch -->
    <title>icon-Wool</title>
    <desc>Created with Sketch.</desc>
    <defs>
        <polygon id="path-1" points="54.8485714 0.0476045977 54.8485714 61.9998575 0.000129007175 61.9998575 0.000129007175 0.0476045977"></polygon>
    </defs>
    <g id="Page-1" stroke="none" stroke-width="1" fill="none" fill-rule="evenodd">
        <g id="icon-Wool">
            <g id="Page-1" transform="translate(10.000000, 8.000000)">
                <path d="M24.4532901,33.0047876 C24.1102181,32.9597296 23.8017192,33.2377146 23.762492,33.6279628 C23.7518541,33.7234247 23.6328427,34.5711263 22.5783618,34.5711263 C21.5185619,34.5711263 21.2665769,33.7203699 21.225355,33.54472 C21.1442411,33.1659272 20.811807,32.9299454 20.4793729,33.0200615 C20.1449442,33.1094138 19.9368405,33.4943162 20.0172895,33.8792185 C20.1655551,34.6123659 20.8949155,36 22.5783618,36 C24.3076839,36 24.9180329,34.561962 24.9958225,33.8013216 C25.0350497,33.4072549 24.7937026,33.0521367 24.4532901,33.0047876" id="Fill-1" fill="#414A59"></path>
                <g id="Group-5">
                    <mask id="mask-2" fill="white">
                        <use xlink:href="#path-1"></use>
                    </mask>
                    <g id="Clip-4"></g>
                    <path d="M54.7572143,22.9270299 C54.4450714,21.1511218 53.3757857,19.700892 51.9472143,18.8321793 C52.4829286,17.2479724 52.3657857,15.452823 51.4593571,13.890708 C50.5550714,12.3293057 49.0572143,11.3301793 47.4136429,11.0016506 C47.3743571,9.33121379 46.6465,7.68286897 45.2622143,6.52482299 C43.8786429,5.36677701 42.1257857,4.93847816 40.4715,5.18861609 C39.8607857,3.63291494 38.6129286,2.33305287 36.9165,1.71732874 C35.2200714,1.10231724 33.4265,1.29686897 31.9557857,2.09645517 C30.8479286,0.843627586 29.2329286,0.0476045977 27.4243571,0.0476045977 C25.6165,0.0476045977 24.0007857,0.843627586 22.8936429,2.09645517 C21.4229286,1.29473103 19.6315,1.09946667 17.9322143,1.71732874 C16.2357857,2.33305287 14.9886429,3.63291494 14.3779286,5.18861609 C12.7200714,4.93847816 10.9707857,5.36677701 9.58721429,6.52767356 C8.20292857,7.68571954 7.47792857,9.33121379 7.43578571,11.0016506 C5.79507143,11.3301793 4.29435714,12.3321563 3.39007143,13.8935586 C2.48578571,15.4556736 2.36864286,17.2479724 2.9015,18.8321793 C1.47007143,19.7037425 0.407214286,21.1539724 0.0922142857,22.9298805 C-0.220642857,24.7057885 0.2815,26.4318115 1.32792857,27.7373747 C0.2815,29.0429379 -0.220642857,30.7689609 0.0922142857,32.544869 C0.404357143,34.3179264 1.47007143,35.7710069 2.9015,36.6397195 C2.36864286,38.2239264 2.48578571,40.0190759 3.39007143,41.5811908 C4.2915,43.1425931 5.79221429,44.1395816 7.43292857,44.4702483 C7.47221429,46.1406851 8.20007143,47.7890299 9.58435714,48.9470759 C10.9679286,50.1051218 12.7200714,50.5334207 14.3750714,50.2832828 C14.8522143,51.5026161 15.7200714,52.5601793 16.8915,53.2592828 L16.8915,59.140731 C16.8915,60.7192368 18.2507857,61.9998575 19.9300714,61.9998575 C21.6100714,61.9998575 22.9686429,60.7192368 22.9686429,59.140731 L22.9686429,53.4566851 C24.0736429,54.6617655 25.6586429,55.4250069 27.4243571,55.4221563 C29.0650714,55.4221563 30.5493571,54.7679494 31.6379286,53.7096736 L31.6379286,59.1385931 C31.6379286,60.7163862 32.9993571,61.9970069 34.6765,61.9970069 C36.3557857,61.9970069 37.7150714,60.7163862 37.7150714,59.1385931 L37.7150714,53.386846 C39.0036429,52.6941563 39.9607857,51.5802943 40.4715,50.2804322 C42.1286429,50.5305701 43.8786429,50.1022713 45.2622143,48.9442253 C46.6465,47.7861793 47.3715,46.1406851 47.4136429,44.4702483 C49.0543571,44.1424322 50.5550714,43.1425931 51.4593571,41.5811908 C52.3629286,40.0190759 52.4800714,38.2239264 51.9443571,36.6425701 C53.3757857,35.7710069 54.4422143,34.320777 54.7543571,32.544869 C55.0672143,30.7689609 54.5643571,29.0429379 53.5186429,27.7373747 C54.5672143,26.4289609 55.0693571,24.7029379 54.7572143,22.9270299 M42.4779286,34.8303172 C39.9886429,37.0879724 37.1122143,34.4910989 37.0229286,33.3658345 L36.8607857,32.6453517 C36.9193571,33.2546621 36.9529286,33.8753747 36.9529286,34.5103402 C36.9529286,42.1213747 32.6086429,48.2900184 27.2486429,48.2900184 C21.8886429,48.2900184 17.5415,42.1185241 17.5415,34.5103402 C17.5415,34.0535356 17.5586429,33.6002943 17.5893571,33.154892 L17.5415,33.3658345 C17.4550714,34.4932368 14.5786429,37.0879724 12.0872143,34.8303172 C9.59792857,32.5755126 12.3186429,32.0937655 14.3579286,31.4979954 C15.6665,31.116731 16.9807857,29.7862253 17.8515,28.7393517 C18.0886429,28.7671448 18.3286429,28.7870989 18.5715,28.7870989 C20.5772143,28.7870989 22.3493571,27.8072138 23.4486429,26.3063862 C24.4865,27.1444552 25.8036429,27.6482943 27.2429286,27.6482943 C28.7000714,27.6482943 30.0393571,27.1330529 31.0822143,26.272892 C32.1793571,27.7929609 33.9650714,28.7870989 35.9850714,28.7870989 C36.2279286,28.7870989 36.4679286,28.7671448 36.7050714,28.7393517 C37.5750714,29.7862253 38.8893571,31.116731 40.1979286,31.4979954 C42.2486429,32.0909149 44.9693571,32.5726621 42.4779286,34.8303172" id="Fill-3" fill="#414A59" mask="url(#mask-2)"></path>
                </g>
                <path d="M33.4548865,33.0047876 C33.1118203,32.9597296 32.8033266,33.2377146 32.7641,33.6279628 C32.7534623,33.7234247 32.6344529,34.5711263 31.5799896,34.5711263 C30.5202075,34.5711263 30.2682266,33.7203699 30.2270055,33.54472 C30.1458929,33.1659272 29.8134644,32.9299454 29.4810359,33.0200615 C29.1466128,33.1094138 28.9385125,33.4943162 29.0163008,33.8792185 C29.1645639,34.6123659 29.894577,36 31.5773302,36 C33.3066234,36 33.9169621,34.561962 33.9947504,33.8013216 C34.0392958,33.4072549 33.7952933,33.0521367 33.4548865,33.0047876" id="Fill-6" fill="#414A59"></path>
            </g>
        </g>
    </g>
</svg>