<?xml version="1.0" encoding="UTF-8"?>
<svg width="75px" height="75px" viewBox="0 0 75 75" version="1.1" xmlns="http://www.w3.org/2000/svg" xmlns:xlink="http://www.w3.org/1999/xlink">
    <!-- Generator: Sketch 46.2 (44496) - http://www.bohemiancoding.com/sketch -->
    <title>icon-SmartZones</title>
    <desc>Created with Sketch.</desc>
    <defs>
        <polygon id="path-1" points="0 60 70 60 70 0 0 0"></polygon>
    </defs>
    <g id="Page-1" stroke="none" stroke-width="1" fill="none" fill-rule="evenodd">
        <g id="icon-SmartZones">
            <g transform="translate(3.000000, 8.000000)">
                <mask id="mask-2" fill="white">
                    <use xlink:href="#path-1"></use>
                </mask>
                <g id="path-1"></g>
                <path d="M70,29.9776701 C70,32.9720603 68.8299868,35.688688 66.9295294,37.7114536 C66.6039228,41.9813736 63.9078998,45.5846631 60.1503993,47.2087577 L60.1503993,47.2501498 C55.5626018,49.9319209 52.8199085,54.5090137 51.9830995,60 L47.7393596,60 L47.7415304,47.2610424 C47.7697496,43.2895812 49.0135669,40.7483253 51.6216761,39.178694 C52.5767889,38.6275257 53.4429026,37.9990197 54.1820296,37.2986221 C56.1172184,37.9968411 57.83208,39.3660476 58.9206915,41.3136539 C59.1475308,41.6981646 59.5523684,41.9127499 59.9539499,41.9127499 C60.1482285,41.9127499 60.3501047,41.8659114 60.5335297,41.7558956 C61.1131095,41.4378302 61.3204124,40.710201 60.9958912,40.1361582 L60.9872083,40.1361582 C59.7683541,37.9576276 57.911311,36.349872 55.8024653,35.3924078 C56.8856501,33.7236534 57.4847663,31.7368335 57.4576324,29.349164 C57.4576324,29.3382713 57.4739127,29.3241109 57.4739127,29.3077719 C57.4739127,28.2293993 57.3154508,27.1815261 57.0278316,26.195741 C59.5056981,25.7219106 61.6872626,24.4594521 63.2957594,22.6828604 C63.7407551,22.192691 63.7081944,21.4378302 63.2165284,20.9988563 C62.7270331,20.5566146 61.987906,20.5947388 61.5505078,21.0751048 C60.1503993,22.603344 58.2607954,23.6490387 56.1150477,23.937694 C54.3893325,20.7298077 51.1788511,18.452154 47.4191798,18.0349654 C47.6709822,15.9991286 48.5837662,14.1844126 49.9599969,12.8043135 C50.4136755,12.3402865 50.4136755,11.5854256 49.9599969,11.1279342 C49.4976355,10.6606394 48.7346306,10.6606394 48.2755252,11.1279342 C46.5139933,12.8979903 45.3352973,15.2573389 45.0433367,17.8890039 C40.6248546,17.3291215 37.2233506,13.5667992 37.2146678,8.98426012 C37.2146678,8.33396874 36.6785022,7.79042536 36.0413986,7.79042536 C35.3684782,7.79042536 34.8431661,8.33396874 34.8431661,8.98426012 C34.8431661,9.75872774 34.9202264,10.4961603 35.0645786,11.2237896 C33.3920459,12.6779587 31.3081634,13.4110343 29.2188542,13.4110343 C28.1877665,13.4110343 27.1545081,13.2269484 26.1809443,12.8729372 C26.1809443,12.8729372 26.1646639,12.8674909 26.1538104,12.8642231 C24.9534072,12.4306955 23.8517715,11.7368335 22.897744,10.7793693 C22.4408094,10.3153423 21.6864873,10.3153423 21.2186991,10.7793693 C20.7530816,11.2423071 20.7530816,11.9949894 21.2186991,12.4611949 C22.1976897,13.4382659 23.2993255,14.1985731 24.4693387,14.744295 C24.2338166,17.7081858 22.5167842,20.2603344 20.115978,21.6927183 C18.7299791,19.5762758 16.6406698,17.9031643 14.0759749,17.0818583 C13.4367005,16.8825227 12.7713776,17.2299984 12.5695015,17.8563259 C12.3947593,18.4815642 12.7116831,19.1481945 13.346616,19.343173 C15.2525002,19.9498938 16.7806807,21.1273896 17.8823165,22.6283971 C17.1442747,22.828822 16.3845259,22.93557 15.5770215,22.93557 L15.5639972,22.93557 L15.4348399,22.93557 C12.3893325,22.93557 9.58911544,24.1544578 7.55515931,26.1434562 C7.07326149,26.6020369 7.06240794,27.3568978 7.53562292,27.8231033 C7.76246221,28.0616524 8.07178851,28.1825609 8.39413908,28.1825609 C8.66439259,28.1825609 8.96286534,28.0703665 9.19296069,27.8481564 C10.809055,26.2676325 13.0090705,25.3145254 15.4348399,25.3145254 L15.5802775,25.3145254 C21.2892472,25.3145254 26.0333359,21.0478732 26.7768044,15.5187626 C27.5897356,15.6941343 28.3983255,15.7899897 29.2221102,15.7899897 C31.5404295,15.7899897 33.8782851,15.0678068 35.8471199,13.6386907 C36.5667106,15.2878384 37.7041631,16.7256685 39.0847353,17.8454333 C37.6770292,19.5849899 36.8510737,21.6513262 36.6318319,23.7677686 C36.0381425,23.670824 35.4151485,23.6196286 34.7921544,23.6196286 C33.0034886,23.6196286 31.1855183,24.044442 29.4956198,24.9528893 C28.9149546,25.2600621 28.6967982,25.982245 29.0028684,26.5660912 C29.2188542,26.9614945 29.6345453,27.1924187 30.06109,27.1924187 C30.2553686,27.1924187 30.4301109,27.1488481 30.6026824,27.049725 C31.9615474,26.3362562 33.3866191,25.9953162 34.7943251,25.9953162 C35.4238313,25.9953162 36.0413986,26.0639399 36.635088,26.1902946 C36.8912319,28.5997495 37.9310024,30.9601874 39.7164121,32.8348129 C39.954105,33.0809869 40.2601752,33.2018953 40.5662454,33.2018953 C40.8560354,33.2018953 41.1599349,33.0951473 41.395457,32.8751157 C41.8795255,32.4176243 41.8925498,31.6703883 41.4301884,31.1965579 L41.4225909,31.1965579 C39.8368866,29.5114645 38.9968215,27.3732368 38.9425537,25.2110452 C38.9425537,25.1783672 38.9501512,25.1554926 38.9425537,25.1173683 L38.9425537,24.9855672 C38.9425537,22.886553 39.6664858,20.8115026 41.0969843,19.1438375 C42.6034576,19.8986983 44.32049,20.3376722 46.1395457,20.3376722 C46.1395457,20.3376722 46.1471432,20.3398508 46.1579967,20.3398508 L46.1775331,20.3398508 C51.0996201,20.3561898 55.08396,24.3461685 55.1056671,29.2859866 C54.1700907,29.0387234 53.2073804,28.9101901 52.222963,28.9101901 C50.8120009,28.9101901 49.3793317,29.168346 48.0009303,29.7412995 C47.3887898,29.994009 47.0989999,30.6824247 47.3453756,31.2891455 C47.593922,31.8958662 48.2744399,32.1921464 48.8844096,31.9448832 C49.9893015,31.5026415 51.1159005,31.2858777 52.222963,31.2858777 C53.1172959,31.2858777 54.006202,31.4209466 54.8343282,31.681281 C54.5445383,33.015631 53.9758121,34.0831109 53.0923327,35.031861 C53.0239553,35.0928599 52.9620901,35.1614836 52.909993,35.2409999 C52.2338166,35.9076303 51.4219707,36.5219759 50.421273,37.1319645 C46.989379,39.1427482 45.3439802,42.7896084 45.3787115,47.2599532 L45.3787115,59.9989107 L41.3325064,59.9989107 L41.3238236,47.8830129 C41.3238236,43.4355427 38.5463989,39.2146397 35.0461276,37.7136322 C33.3757656,37.0633408 31.6337701,35.9729862 30.3649895,34.5493165 C28.5546166,35.7812755 26.3828204,36.5089047 24.0514769,36.5089047 C21.7071091,36.5089047 19.5396542,35.795436 17.7401349,34.5689233 C15.9514691,35.7485976 13.7916118,36.440281 11.48089,36.440281 C5.13156059,36.4424596 0,31.2782528 0,24.914765 C0,20.1557649 2.8653384,16.0753772 6.97015273,14.3194815 C8.079386,9.24241599 12.558648,5.44414792 17.9506939,5.44414792 C18.238313,5.44414792 18.5009691,5.46920102 18.7657958,5.48554 C20.7975812,2.50531017 24.2131948,0.547900441 28.082487,0.547900441 C29.9992247,0.547900441 31.795488,1.02826643 33.3757656,1.88225042 C35.1590046,0.688415664 37.2895573,0 39.5829134,0 C42.5307388,0 45.2137375,1.15244268 47.2259865,3.02380045 C48.0682223,2.82010784 48.9397628,2.70028866 49.850376,2.70028866 C54.4034421,2.70028866 58.3411117,5.44959425 60.0961315,9.38728827 C64.717575,10.7924405 68.0810916,15.0950384 68.0810916,20.1862644 C68.0810916,21.2069059 67.9465075,22.1916018 67.694705,23.1305484 C69.1338863,25.0324056 70,27.4026469 70,29.9776701 Z" id="Fill-1" fill="#414A59" fill-rule="nonzero" mask="url(#mask-2)"></path>
            </g>
        </g>
    </g>
</svg>