<?xml version="1.0" encoding="utf-8"?>
<!-- Generator: Adobe Illustrator 22.1.0, SVG Export Plug-In . SVG Version: 6.00 Build 0)  -->
<svg version="1.1" id="Layer_1" xmlns="http://www.w3.org/2000/svg" xmlns:xlink="http://www.w3.org/1999/xlink" x="0px" y="0px"
	 viewBox="0 0 84 84" style="enable-background:new 0 0 84 84;" xml:space="preserve">
<style type="text/css">
	.st0{fill:#464D5A;}
</style>
<path class="st0" d="M42,63.8c-4.5,0-7.2,2.2-7.2,5.8c0,4,3.2,7.2,7.2,7.2c4,0,7.2-3.2,7.2-7.2C49.2,65.9,46.5,63.8,42,63.8z
	 M42,73.8c-2.3,0-4.2-1.9-4.2-4.2c0-0.7,0-2.8,4.2-2.8c4.2,0,4.2,2,4.2,2.8C46.2,71.9,44.3,73.8,42,73.8z M63.1,5.6
	c-0.4-0.7-1.4-0.9-2.1-0.5c-0.5,0.3-0.9,0.6-1.4,0.9l-1.3-1.7c-0.5-0.7-1.4-0.8-2.1-0.3c-0.6,0.5-0.8,1.4-0.3,2.1l1.3,1.6
	c-1,0.8-1.9,1.6-2.7,2.5L53,9c-0.6-0.6-1.6-0.5-2.1,0.1c-0.5,0.6-0.5,1.6,0.1,2.1l1.5,1.4c-0.8,1-1.5,2-2.1,3l-1.8-1.1
	c-0.7-0.4-1.6-0.2-2.1,0.5c-0.4,0.7-0.2,1.6,0.5,2.1l1.8,1.1c-0.6,1.1-1.1,2.3-1.5,3.3l-2-0.7c-0.8-0.3-1.6,0.1-1.9,0.9
	c-0.3,0.8,0.1,1.6,0.9,1.9l2.1,0.8c-0.1,0.6-0.3,1.1-0.4,1.7c-1.2-0.1-2.6-0.2-4.1-0.2c-1.5,0-2.9,0-4.1,0.2
	c-0.1-0.5-0.2-1.1-0.4-1.7l2.1-0.8c0.8-0.3,1.2-1.1,0.9-1.9c-0.3-0.8-1.1-1.2-1.9-0.9l-2,0.7c-0.4-1.1-0.9-2.2-1.5-3.3l1.8-1.1
	c0.7-0.4,0.9-1.3,0.5-2.1c-0.4-0.7-1.3-0.9-2.1-0.5l-1.8,1.1c-0.6-1-1.4-2-2.1-3l1.5-1.4c0.6-0.5,0.7-1.5,0.1-2.1
	C32.6,8.5,31.6,8.4,31,9l-1.6,1.4c-0.8-0.9-1.7-1.7-2.7-2.5L28,6.2c0.5-0.7,0.4-1.6-0.3-2.1c-0.7-0.5-1.6-0.4-2.1,0.3L24.3,6
	c-0.4-0.3-0.9-0.6-1.4-0.9c-0.7-0.4-1.6-0.2-2.1,0.5c-0.4,0.7-0.2,1.6,0.5,2.1c8.4,5.1,12.7,13.6,13.5,19.1
	c-1.1,0.5-2.2,1.2-3.4,2.2c-3.9,3.6-5.9,6.7-5.9,9.5c0,2.9,2.3,6.8,4.8,10.9c0.6,1,1.2,2,1.7,3c-0.3,4.3-1,6.9-1.7,9.2
	c-0.6,2.4-1.3,4.6-1.3,8.1c0,7,5.7,12.7,12.7,12.7c7,0,12.7-5.7,12.7-12.7c0-3.4-0.6-5.7-1.3-8.1c-0.6-2.3-1.3-4.9-1.7-9.2
	c0.6-1,1.1-2,1.8-3c2.4-4.1,4.7-7.9,4.7-10.9c0-2.7-1.9-5.8-5.9-9.5c-1.1-1.1-2.2-1.7-3.4-2.2c0.9-5.5,5.2-14,13.5-19.1
	C63.3,7.3,63.5,6.3,63.1,5.6L63.1,5.6z M40.5,28.9c0.5,0,1,0,1.5,0c0.5,0,1,0,1.5,0v20.5h-3V28.9z M28.7,38.4c0-1.2,0.9-3.5,4.9-7.2
	c1.3-1.2,2.4-1.8,3.9-2v8.9c-3.1,1.6-5.1,4.9-5.1,8.4v0.2C30.6,43.6,28.7,40.3,28.7,38.4z M42,79.2c-5.4,0-9.7-4.4-9.7-9.7
	c0-3,0.5-4.9,1.2-7.3c0.9-3.3,2-7.3,2-15.8c0-1.8,0.8-3.5,2.1-4.7v9.2c0,0.8,0.7,1.5,1.5,1.5h6c0.8,0,1.5-0.7,1.5-1.5v-9.2
	c1.3,1.2,2.1,2.9,2.1,4.7c0,8.5,1.1,12.6,2,15.8c0.6,2.4,1.2,4.3,1.2,7.3C51.7,74.9,47.3,79.2,42,79.2L42,79.2z M50.4,31.2
	c4.1,3.7,4.9,6,4.9,7.2c0,1.9-1.9,5.2-3.7,8.3v-0.2c0-3.5-2-6.7-5.1-8.4v-8.9C48,29.4,49.1,30,50.4,31.2z"/>
</svg>
