<?xml version="1.0" encoding="utf-8"?>
<!-- Generator: Adobe Illustrator 16.0.0, SVG Export Plug-In . SVG Version: 6.00 Build 0)  -->
<!DOCTYPE svg PUBLIC "-//W3C//DTD SVG 1.1//EN" "http://www.w3.org/Graphics/SVG/1.1/DTD/svg11.dtd">
<svg version="1.1" id="Layer_1" xmlns="http://www.w3.org/2000/svg" xmlns:xlink="http://www.w3.org/1999/xlink" x="0px" y="0px"
	 width="84px" height="84px" viewBox="0 0 84 84" enable-background="new 0 0 84 84" xml:space="preserve">
<g>
	<g>
		<path fill="#464D5A" d="M42,50.055c-0.414,0-0.75-0.336-0.75-0.75v-1.9c0-0.414,0.336-0.75,0.75-0.75s0.75,0.336,0.75,0.75v1.9
			C42.75,49.719,42.414,50.055,42,50.055z M42,45.451c-0.414,0-0.75-0.336-0.75-0.75v-1.902c0-0.414,0.336-0.75,0.75-0.75
			s0.75,0.336,0.75,0.75v1.902C42.75,45.115,42.414,45.451,42,45.451z M42,40.846c-0.414,0-0.75-0.336-0.75-0.75v-1.902
			c0-0.414,0.336-0.75,0.75-0.75s0.75,0.336,0.75,0.75v1.902C42.75,40.51,42.414,40.846,42,40.846z M42,36.24
			c-0.414,0-0.75-0.336-0.75-0.75v-1.902c0-0.414,0.336-0.75,0.75-0.75s0.75,0.336,0.75,0.75v1.902
			C42.75,35.904,42.414,36.24,42,36.24z"/>
	</g>
	<g>
		<path fill="#464D5A" d="M67.146,64.762H16.854c-1.154,0-2.094-0.939-2.094-2.094V51.33c0-1.154,0.939-2.094,2.094-2.094h50.293
			c1.154,0,2.094,0.939,2.094,2.094v11.338C69.24,63.822,68.301,64.762,67.146,64.762z M16.854,50.736
			c-0.327,0-0.594,0.266-0.594,0.594v11.338c0,0.326,0.267,0.594,0.594,0.594h50.293c0.327,0,0.594-0.268,0.594-0.594V51.33
			c0-0.328-0.267-0.594-0.594-0.594H16.854z"/>
		<path fill="#464D5A" d="M35.207,33.451h18.544h2.437c0.818,0,1.854,0.643,2.218,1.375l9.342,16.445l1.344-0.668l-9.342-16.445
			c-0.615-1.238-2.179-2.207-3.562-2.207h-2.437H35.207V33.451z"/>
		<path fill="#464D5A" d="M30.249,31.951h-2.25c-1.365,0-2.966,0.928-3.644,2.113l-9.467,16.57l1.303,0.744l9.467-16.57
			c0.413-0.723,1.508-1.357,2.341-1.357h2.25V31.951z"/>
	</g>
	<circle fill="#464D5A" cx="52.292" cy="40.447" r="3.583"/>
	<circle fill="#464D5A" cx="32.72" cy="22.822" r="3.583"/>
	<g>
		<g>
			<g>
				<path fill="#464D5A" d="M32.72,28.822c-0.277,0-0.5,0.223-0.5,0.5v14.041c0.156,0.057,0.322,0.092,0.5,0.092
					c0.176,0,0.342-0.035,0.5-0.092V29.322C33.22,29.045,32.995,28.822,32.72,28.822z"/>
			</g>
		</g>
		<g>
			<g>
				<path fill="#464D5A" d="M32.718,44.705l-4.314-4.936c-0.182-0.207-0.16-0.523,0.047-0.705c0.207-0.18,0.523-0.162,0.705,0.047
					l3.562,4.074l3.564-4.074c0.182-0.209,0.498-0.227,0.705-0.047c0.209,0.182,0.23,0.498,0.047,0.705L32.718,44.705z"/>
			</g>
		</g>
	</g>
</g>
</svg>
