<?xml version="1.0" encoding="UTF-8" standalone="no"?>
<svg width="39px" height="28px" viewBox="0 0 39 28" version="1.1" xmlns="http://www.w3.org/2000/svg" xmlns:xlink="http://www.w3.org/1999/xlink">
    <!-- Generator: Sketch 3.7.2 (28276) - http://www.bohemiancoding.com/sketch -->
    <title>Combined Shape</title>
    <desc>Created with Sketch.</desc>
    <defs></defs>
    <g id="Screens" stroke="none" stroke-width="1" fill="none" fill-rule="evenodd">
        <g id="03b.Sequoia-Product-Page-Copy" transform="translate(-188.000000, -669.000000)" fill="#9B9B9B">
            <g id="Features" transform="translate(170.000000, 652.000000)">
                <g id="free-shipping">
                    <path d="M47.4879577,42.1825534 C48.2461459,42.1825534 48.868934,41.9253148 49.3563407,41.41083 C49.8437474,40.8963451 50.0874471,40.2870959 50.0874471,39.583064 C50.0874471,38.8790321 49.8437474,38.2697829 49.3563407,37.755298 C48.868934,37.2408132 48.2461459,36.9835746 47.4879577,36.9835746 C46.7297695,36.9835746 46.1069814,37.2408132 45.6195747,37.755298 C45.132168,38.2697829 44.8884683,38.8790321 44.8884683,39.583064 C44.8884683,40.2870959 45.132168,40.8963451 45.6195747,41.41083 C46.1069814,41.9253148 46.7297695,42.1825534 47.4879577,42.1825534 L47.4879577,42.1825534 Z M50.0874471,26.5856171 L45.7820428,26.5856171 L45.7820428,30.8910214 L53.4992769,30.8910214 L50.0874471,26.5856171 Z M26.6920426,42.1825534 C27.4502308,42.1825534 28.0730189,41.9253148 28.5604256,41.41083 C29.0478323,40.8963451 29.291532,40.2870959 29.291532,39.583064 C29.291532,38.8790321 29.0478323,38.2697829 28.5604256,37.755298 C28.0730189,37.2408132 27.4502308,36.9835746 26.6920426,36.9835746 C25.9338544,36.9835746 25.3110663,37.2408132 24.8236596,37.755298 C24.3362529,38.2697829 24.0925532,38.8790321 24.0925532,39.583064 C24.0925532,40.2870959 24.3362529,40.8963451 24.8236596,41.41083 C25.3110663,41.9253148 25.9338544,42.1825534 26.6920426,42.1825534 L26.6920426,42.1825534 Z M50.9810215,23.9861277 L56.1800003,30.8910214 L56.1800003,39.583064 L52.6869364,39.583064 C52.6869364,40.9911278 52.1724593,42.2096263 51.1434896,43.238596 C50.1145199,44.2675656 48.8960215,44.7820428 47.4879577,44.7820428 C46.0798939,44.7820428 44.8613954,44.2675656 43.8324257,43.238596 C42.803456,42.2096263 42.2889789,40.9911278 42.2889789,39.583064 L31.8910214,39.583064 C31.8910214,40.9911278 31.3765443,42.2096263 30.3475746,43.238596 C29.3186049,44.2675656 28.1001064,44.7820428 26.6920426,44.7820428 C25.2839788,44.7820428 24.0654804,44.2675656 23.0365107,43.238596 C22.007541,42.2096263 21.4930639,40.9911278 21.4930639,39.583064 L18,39.583064 L18,20.4930639 C18,19.5724068 18.3520107,18.7600745 19.0560426,18.0560426 C19.7600745,17.3520107 20.5724068,17 21.4930639,17 L45.7820428,17 L45.7820428,23.9861277 L50.9810215,23.9861277 Z M34.0247343,27.1005684 L30.3483899,23.4242241 L34.0247343,19.7478798 L34.0247343,22.5159508 L40.4691496,22.5159508 L40.4691496,24.3324974 L34.0247343,24.3324974 L34.0247343,27.1005684 Z M28.4885922,28.0520928 L28.4885922,25.2840218 L32.1649365,28.9603661 L28.4885922,32.6367105 L28.4885922,29.8686394 L22.0441769,29.8686394 L22.0441769,28.0520928 L28.4885922,28.0520928 Z" id="Combined-Shape"></path>
                </g>
            </g>
        </g>
    </g>
</svg>