<?xml version="1.0" encoding="utf-8"?>
<!-- Generator: Adobe Illustrator 16.0.0, SVG Export Plug-In . SVG Version: 6.00 Build 0)  -->
<!DOCTYPE svg PUBLIC "-//W3C//DTD SVG 1.1//EN" "http://www.w3.org/Graphics/SVG/1.1/DTD/svg11.dtd">
<svg version="1.1" id="Layer_1" xmlns="http://www.w3.org/2000/svg" xmlns:xlink="http://www.w3.org/1999/xlink" x="0px" y="0px"
	 width="84px" height="84px" viewBox="0 0 84 84" enable-background="new 0 0 84 84" xml:space="preserve">
<g>
	<path fill="#464D5A" d="M36.607,68.905c-5.695,0-10.33-4.634-10.33-10.33c0-3.937,2.24-7.522,5.748-9.26V19.558
		c0-2.586,1.927-4.463,4.582-4.463c2.618,0,4.445,1.835,4.445,4.463v29.689c3.592,1.712,5.887,5.323,5.887,9.328
		C46.939,64.271,42.305,68.905,36.607,68.905z M36.607,16.482c-1.882,0-3.195,1.265-3.195,3.075v30.198
		c0,0.274-0.162,0.523-0.413,0.634c-3.24,1.433-5.334,4.646-5.334,8.186c0,4.932,4.013,8.942,8.942,8.942
		c4.932,0,8.943-4.011,8.943-8.942c0-3.602-2.144-6.836-5.462-8.24c-0.257-0.108-0.425-0.36-0.425-0.638v-30.14
		C39.664,17.689,38.465,16.482,36.607,16.482z"/>
	<circle fill="#464D5A" cx="36.608" cy="58.548" r="6.76"/>
	<path fill="#464D5A" d="M38.055,53.652c0,0.645-0.53,1.172-1.172,1.172h-0.549c-0.643,0-1.172-0.527-1.172-1.172v-11.94
		c0-0.646,0.529-1.175,1.172-1.175h0.549c0.642,0,1.172,0.528,1.172,1.175V53.652z"/>
	<path fill="#464D5A" d="M37.002,23.146h-4.064c-0.307,0-0.555-0.249-0.555-0.556c0-0.308,0.248-0.556,0.555-0.556h4.064
		c0.308,0,0.557,0.248,0.557,0.556C37.559,22.896,37.31,23.146,37.002,23.146z"/>
	<g>
		<path fill="#464D5A" d="M57.029,26.969h-7.863c-0.383,0-0.694-0.312-0.694-0.694c0-0.383,0.312-0.694,0.694-0.694h7.863
			c0.382,0,0.693,0.312,0.693,0.694C57.723,26.656,57.411,26.969,57.029,26.969z"/>
		<path fill="#464D5A" d="M57.029,40.474h-7.863c-0.383,0-0.694-0.312-0.694-0.693c0-0.383,0.312-0.694,0.694-0.694h7.863
			c0.382,0,0.693,0.312,0.693,0.694C57.723,40.162,57.411,40.474,57.029,40.474z"/>
		<path fill="#464D5A" d="M53.099,30.898c-0.384,0-0.694-0.311-0.694-0.694v-7.86c0-0.383,0.311-0.694,0.694-0.694
			c0.382,0,0.693,0.312,0.693,0.694v7.86C53.792,30.588,53.48,30.898,53.099,30.898z"/>
	</g>
	<path fill="#464D5A" d="M37.002,26.989h-4.064c-0.307,0-0.555-0.249-0.555-0.556c0-0.308,0.248-0.555,0.555-0.555h4.064
		c0.308,0,0.557,0.247,0.557,0.555C37.559,26.74,37.31,26.989,37.002,26.989z"/>
	<path fill="#464D5A" d="M37.002,30.833h-4.064c-0.307,0-0.555-0.249-0.555-0.556s0.248-0.555,0.555-0.555h4.064
		c0.308,0,0.557,0.248,0.557,0.555S37.31,30.833,37.002,30.833z"/>
	<path fill="#464D5A" d="M37.002,34.676h-4.064c-0.307,0-0.555-0.249-0.555-0.556s0.248-0.555,0.555-0.555h4.064
		c0.308,0,0.557,0.248,0.557,0.555S37.31,34.676,37.002,34.676z"/>
</g>
</svg>
