<svg xmlns="http://www.w3.org/2000/svg" viewBox="0 0 84 84"><defs><style>.cls-1{fill:#556774;}</style></defs><title>BrentwoodHome_Guranatee_FINAL_ALL</title><g id="Layer_2" data-name="Layer 2"><path class="cls-1" d="M18.4,51.24a2.41,2.41,0,0,0-2.57,1.65,2.6,2.6,0,0,0,.26,2.24,2.53,2.53,0,0,0,1.64,1c1,.3,16.24,4.79,17.9,5.3,4.9,1.5,6.6,1.44,7.95,1.4h.25c.61,0,1.39-.09,2.3-.18,1.55-.15,5.18-.5,5.72,0,.59,2.22,1.82,8.27,1.87,8.49a.82.82,0,0,0,1.59-.37c-.21-.9-1.29-6.29-1.92-8.62-.46-1.7-3.23-1.56-7.42-1.15-.84.08-1.64.16-2.19.18h-.26c-1.23,0-2.77.1-7.41-1.33-1.72-.52-17.81-5.27-18-5.32l-.14,0h0a.91.91,0,0,1-.56-.32,1.21,1.21,0,0,1,0-.9c.18-.68,1.75-.34,1.76-.34l.11,0c.63.07,15.44,1.7,17.55,1.7a.81.81,0,0,0,.81-.81.82.82,0,0,0-.81-.82c-2,0-16.32-1.57-17.32-1.68A4.54,4.54,0,0,0,18.4,51.24Z"/><path class="cls-1" d="M55.46,49.86H39.54a3.1,3.1,0,1,0-.16,6.2H47a.81.81,0,1,0,0-1.62H39.42a1.53,1.53,0,0,1-1.52-1.52c0-1.37,1.48-1.43,1.65-1.44H55.46a5.69,5.69,0,0,1,4.71,2.91c.35.79,2.8,5.8,5.82,14.12A.82.82,0,0,0,67,69a.83.83,0,0,0,.49-1,134.86,134.86,0,0,0-5.93-14.36A7.35,7.35,0,0,0,55.46,49.86Z"/><path class="cls-1" d="M54.66,72a.73.73,0,0,1-.16-1.44L66.72,67.8a.73.73,0,0,1,.87.55.72.72,0,0,1-.56.87L54.82,71.94Z"/><path class="cls-1" d="M57.39,76.92a.42.42,0,0,1-.41-.33L55.85,71a.42.42,0,1,1,.82-.16l1.13,5.56a.41.41,0,0,1-.33.49Z"/><path class="cls-1" d="M67.88,75.11a.41.41,0,0,1-.39-.27l-2.17-6a.42.42,0,0,1,.25-.54.41.41,0,0,1,.53.25l2.17,6a.42.42,0,0,1-.25.54Z"/><path class="cls-1" d="M55.51,65.8a.42.42,0,0,1-.41-.33.42.42,0,0,1,.32-.49l7.2-1.57a.42.42,0,0,1,.5.32.42.42,0,0,1-.32.5l-7.2,1.56Z"/><path class="cls-1" d="M50.23,43.11H25.44a.59.59,0,0,1-.59-.58V19.18a.6.6,0,0,1,.59-.59H50.23a.6.6,0,0,1,.59.59V42.53A.59.59,0,0,1,50.23,43.11ZM26,41.94H49.64V19.77H26Z"/><path class="cls-1" d="M50.23,43.11a.6.6,0,0,1-.4-.15.59.59,0,0,1,0-.83L56.3,34V13.25H33l-7.21,6.37a.59.59,0,0,1-.78-.88l7.38-6.52a.6.6,0,0,1,.39-.14H56.89a.59.59,0,0,1,.59.58V34.24a.59.59,0,0,1-.16.4l-6.66,8.29A.6.6,0,0,1,50.23,43.11Z"/><path class="cls-1" d="M50.23,19.77a.59.59,0,0,1-.41-1l6.34-6.2a.59.59,0,0,1,.83,0,.57.57,0,0,1,0,.82L50.64,19.6A.58.58,0,0,1,50.23,19.77Z"/><path class="cls-1" d="M37.72,19.3a.44.44,0,0,1-.32-.13.43.43,0,0,1,0-.62L44,12.34a.44.44,0,0,1,.6.64L38,19.18A.42.42,0,0,1,37.72,19.3Z"/></g></svg>