<?xml version="1.0" encoding="UTF-8"?>
<svg width="75px" height="75px" viewBox="0 0 75 75" version="1.1" xmlns="http://www.w3.org/2000/svg" xmlns:xlink="http://www.w3.org/1999/xlink">
    <!-- Generator: Sketch 46.2 (44496) - http://www.bohemiancoding.com/sketch -->
    <title>icon-NaturalLatex</title>
    <desc>Created with Sketch.</desc>
    <defs>
        <polygon id="path-1" points="68.2561715 0.596551724 0.000638843552 0.596551724 0.000638843552 49.9996552 68.2561715 49.9996552 68.2561715 0.596551724"></polygon>
    </defs>
    <g id="Page-1" stroke="none" stroke-width="1" fill="none" fill-rule="evenodd">
        <g id="icon-NaturalLatex">
            <g id="Page-1" transform="translate(3.000000, 13.000000)">
                <g id="Group-3">
                    <mask id="mask-2" fill="white">
                        <use xlink:href="#path-1"></use>
                    </mask>
                    <g id="Clip-2"></g>
                    <path d="M66.25656,49.9996552 C68.155785,49.9996552 68.81991,48.7272414 67.734885,47.1703448 L36.10011,1.76344828 C35.015085,0.206551724 33.24006,0.206551724 32.155035,1.76344828 L0.521985,47.1703448 C-0.56304,48.7272414 0.101085,49.9996552 1.998585,49.9996552 L66.25656,49.9996552 Z" id="Fill-1" fill="#414A59" mask="url(#mask-2)"></path>
                </g>
                <path d="M39,14.5 C39,17.5384969 36.5384969,20 33.5,20 C30.4615031,20 28,17.5384969 28,14.5 C28,11.4631902 30.4615031,9 33.5,9 C36.5384969,9 39,11.4631902 39,14.5" id="Fill-4" fill="#FFFFFF"></path>
                <path d="M31,28.5 C31,31.5368098 28.5384969,34 25.5,34 C22.4615031,34 20,31.5368098 20,28.5 C20,25.4631902 22.4615031,23 25.5,23 C28.5384969,23 31,25.4631902 31,28.5" id="Fill-6" fill="#FFFFFF"></path>
                <path d="M47,28.5 C47,31.5368098 44.5384969,34 41.5,34 C38.4615031,34 36,31.5368098 36,28.5 C36,25.4631902 38.4615031,23 41.5,23 C44.5384969,23 47,25.4631902 47,28.5" id="Fill-8" fill="#FFFFFF"></path>
                <path d="M23,41.5 C23,44.5368098 20.5384969,47 17.5,47 C14.4615031,47 12,44.5368098 12,41.5 C12,38.4631902 14.4615031,36 17.5,36 C20.5384969,36 23,38.4631902 23,41.5" id="Fill-10" fill="#FFFFFF"></path>
                <path d="M39,41.5 C39,44.5368098 36.5384969,47 33.5,47 C30.4615031,47 28,44.5368098 28,41.5 C28,38.4631902 30.4615031,36 33.5,36 C36.5384969,36 39,38.4631902 39,41.5" id="Fill-12" fill="#FFFFFF"></path>
                <path d="M55,41.5 C55,44.5368098 52.5384969,47 49.5,47 C46.4615031,47 44,44.5368098 44,41.5 C44,38.4631902 46.4615031,36 49.5,36 C52.5384969,36 55,38.4631902 55,41.5" id="Fill-14" fill="#FFFFFF"></path>
            </g>
        </g>
    </g>
</svg>