<?xml version="1.0" encoding="utf-8"?>
<!-- Generator: Adobe Illustrator 22.1.0, SVG Export Plug-In . SVG Version: 6.00 Build 0)  -->
<svg version="1.1" id="Layer_1" xmlns="http://www.w3.org/2000/svg" xmlns:xlink="http://www.w3.org/1999/xlink" x="0px" y="0px"
	 viewBox="0 0 84 84" style="enable-background:new 0 0 84 84;" xml:space="preserve">
<style type="text/css">
	.st0{fill:#464D5A;}
</style>
<path class="st0" d="M21.2,43c0-4.5-2.2-7.2-5.8-7.2c-4,0-7.2,3.2-7.2,7.2c0,4,3.2,7.2,7.2,7.2C19.1,50.2,21.2,47.5,21.2,43z
	 M11.2,43c0-2.3,1.9-4.2,4.2-4.2c0.7,0,2.8,0,2.8,4.2c0,4.2-2,4.2-2.8,4.2C13.1,47.2,11.2,45.3,11.2,43z M79.4,64.1
	c0.7-0.4,0.9-1.4,0.5-2.1c-0.3-0.5-0.6-0.9-0.9-1.4l1.7-1.3c0.7-0.5,0.8-1.4,0.3-2.1c-0.5-0.6-1.4-0.8-2.1-0.3l-1.6,1.3
	c-0.8-1-1.6-1.9-2.5-2.7L76,54c0.6-0.6,0.5-1.6-0.1-2.1c-0.6-0.5-1.6-0.5-2.1,0.1l-1.4,1.5c-1-0.8-2-1.5-3-2.1l1.1-1.8
	c0.4-0.7,0.2-1.6-0.5-2.1c-0.7-0.4-1.6-0.2-2.1,0.5l-1.1,1.8c-1.1-0.6-2.3-1.1-3.3-1.5l0.7-2c0.3-0.8-0.1-1.6-0.9-1.9
	c-0.8-0.3-1.6,0.1-1.9,0.9l-0.8,2.1c-0.6-0.1-1.1-0.3-1.7-0.4c0.1-1.2,0.2-2.6,0.2-4.1c0-1.5,0-2.9-0.2-4.1c0.5-0.1,1.1-0.2,1.7-0.4
	l0.8,2.1c0.3,0.8,1.1,1.2,1.9,0.9c0.8-0.3,1.2-1.1,0.9-1.9l-0.7-2c1.1-0.4,2.2-0.9,3.3-1.5l1.1,1.8c0.4,0.7,1.3,0.9,2.1,0.5
	c0.7-0.4,0.9-1.3,0.5-2.1l-1.1-1.8c1-0.6,2-1.4,3-2.1l1.4,1.5c0.5,0.6,1.5,0.7,2.1,0.1c0.6-0.5,0.7-1.5,0.1-2.1l-1.4-1.6
	c0.9-0.8,1.7-1.7,2.5-2.7l1.6,1.3c0.7,0.5,1.6,0.4,2.1-0.3c0.5-0.7,0.4-1.6-0.3-2.1L79,25.3c0.3-0.4,0.6-0.9,0.9-1.4
	c0.4-0.7,0.2-1.6-0.5-2.1c-0.7-0.4-1.6-0.2-2.1,0.5c-5.1,8.4-13.6,12.7-19.1,13.5c-0.5-1.1-1.2-2.2-2.2-3.4
	c-3.6-3.9-6.7-5.9-9.5-5.9c-2.9,0-6.8,2.3-10.9,4.8c-1,0.6-2,1.2-3,1.7c-4.3-0.3-6.9-1-9.2-1.7c-2.4-0.6-4.6-1.3-8.1-1.3
	C8.4,30.3,2.7,36,2.7,43c0,7,5.7,12.7,12.7,12.7c3.4,0,5.7-0.6,8.1-1.3c2.3-0.6,4.9-1.3,9.2-1.7c1,0.6,2,1.1,3,1.8
	c4.1,2.4,7.9,4.7,10.9,4.7c2.7,0,5.8-1.9,9.5-5.9c1.1-1.1,1.7-2.2,2.2-3.4c5.5,0.9,14,5.2,19.1,13.5C77.7,64.3,78.7,64.5,79.4,64.1
	L79.4,64.1z M56.1,41.5c0,0.5,0,1,0,1.5c0,0.5,0,1,0,1.5H35.6v-3H56.1z M46.6,29.7c1.2,0,3.5,0.9,7.2,4.9c1.2,1.3,1.8,2.4,2,3.9
	h-8.9c-1.6-3.1-4.9-5.1-8.4-5.1h-0.2C41.4,31.6,44.7,29.7,46.6,29.7z M5.7,43c0-5.4,4.4-9.7,9.7-9.7c3,0,4.9,0.5,7.3,1.2
	c3.3,0.9,7.3,2,15.8,2c1.8,0,3.5,0.8,4.7,2.1h-9.2c-0.8,0-1.5,0.7-1.5,1.5v6c0,0.8,0.7,1.5,1.5,1.5h9.2c-1.2,1.3-2.9,2.1-4.7,2.1
	c-8.5,0-12.6,1.1-15.8,2c-2.4,0.6-4.3,1.2-7.3,1.2C10.1,52.7,5.7,48.4,5.7,43L5.7,43z M53.8,51.4c-3.7,4.1-6,4.9-7.2,4.9
	c-1.9,0-5.2-1.9-8.3-3.7h0.2c3.5,0,6.7-2,8.4-5.1h8.9C55.6,49,55,50.1,53.8,51.4z"/>
</svg>
