<?xml version="1.0" encoding="UTF-8"?>
<svg width="75px" height="75px" viewBox="0 0 75 75" version="1.1" xmlns="http://www.w3.org/2000/svg" xmlns:xlink="http://www.w3.org/1999/xlink">
    <!-- Generator: Sketch 46.2 (44496) - http://www.bohemiancoding.com/sketch -->
    <title>icon-ResponsiveSupport</title>
    <desc>Created with Sketch.</desc>
    <defs>
        <polygon id="path-1" points="100.68233 29.2058894 100.68233 56.0002298 0.000282122905 56.0002298 0.000282122905 29.2058894"></polygon>
    </defs>
    <g id="Page-1" stroke="none" stroke-width="1" fill="none" fill-rule="evenodd">
        <g id="icon-ResponsiveSupport">
            <g id="Page-1" transform="translate(-13.000000, 6.000000)">
                <path d="M50.4940131,47.6409143 C63.3048702,47.6409143 73.6901917,37.0346286 73.6901917,23.9512 C73.6901917,10.8683429 63.3048702,0.262057143 50.4940131,0.262057143 C37.683156,0.262057143 27.298394,10.8683429 27.298394,23.9512 C27.298394,37.0346286 37.683156,47.6409143 50.4940131,47.6409143" id="Fill-1" fill="#414A59"></path>
                <path d="M36,61.2433449 C37.7842499,61.9676643 39.6311554,62.5584298 41.4912819,63 L42,60.6537825 C40.2496647,60.2380809 38.5108258,59.6816063 36.8317685,59 L36,61.2433449 Z" id="Fill-4" fill="#414A59"></path>
                <path d="M47.6567818,61.49218 L47.4926,63.88498 C48.4111455,63.96118 49.3444182,64.00018 50.2662364,64.00018 C51.1569636,64.00018 52.0575091,63.96418 52.9433273,63.89278 L52.7846,61.49938 C51.0887818,61.63558 49.3547818,61.63258 47.6567818,61.49218" id="Fill-6" fill="#414A59"></path>
                <path d="M58,60.6445383 L58.503211,63 C60.3642289,62.5618588 62.2137448,61.9740495 64,61.2528666 L63.1741589,59 C61.4919965,59.6789378 59.7511742,60.2323476 58,60.6445383" id="Fill-9" fill="#414A59"></path>
                <path d="M27,55.8181295 C28.5337029,56.9897619 30.1654508,58.0601633 31.8503064,59 L33,56.9983895 C31.4131894,56.1126193 29.8754012,55.1037616 28.4304056,54 L27,55.8181295 Z" id="Fill-11" fill="#414A59"></path>
                <path d="M68,56.9918174 L69.1450515,59 C70.8314213,58.0618877 72.4652926,56.9935462 74,55.8255157 L72.5761229,54 C71.1294964,55.101187 69.5901225,56.1078714 68,56.9918174" id="Fill-13" fill="#414A59"></path>
                <path d="M75,48.8540824 L77.0607189,49.5418567 C76.6846713,50.0007743 76.3013597,50.4542717 75.906314,50.8927127 L77.5105234,52.5705928 C77.9754144,52.0538587 78.4252188,51.5178525 78.8655243,50.9746193 L80.0864221,53 C79.9512013,50.9107803 80.4144161,48.0958444 81,46 C79.2885081,47.1774069 76.9014714,48.4252775 75,48.8540824" id="Fill-15" fill="#414A59"></path>
                <path d="M19,46 C19.5806993,48.0969296 20.0372028,50.9121011 19.8967832,53 L21.1241958,50.9801325 C21.5644755,51.5249849 22.0137063,52.063817 22.4769231,52.5803733 L24.0875524,50.9084889 C23.6942657,50.4695966 23.311049,50.0138471 22.9345455,49.5532812 L25,48.871764 C23.0973427,48.4370861 20.7113287,47.1824202 19,46" id="Fill-17" fill="#414A59"></path>
                <mask id="mask-2" fill="white">
                    <use xlink:href="#path-1"></use>
                </mask>
                <g id="Clip-20"></g>
                <path d="M98.9898743,29.2058894 L77.2274777,29.2058894 L76.9402765,30.5673787 C74.2522095,43.306783 63.0113045,52.5534213 50.2119525,52.5534213 C37.4120363,52.5534213 26.1711313,43.306783 23.4841927,30.5673787 L23.1964274,29.2058894 L1.69301955,29.2058894 C0.7575,29.2058894 0.000282122905,29.9774 0.000282122905,30.9292936 C0.000282122905,31.8811872 0.7575,32.6526979 1.69301955,32.6526979 L20.4931257,32.6526979 C24.0038631,46.2624213 36.2869302,56.0002298 50.2119525,56.0002298 C64.1364106,56.0002298 76.4194777,46.2624213 79.9307793,32.6526979 L98.9898743,32.6526979 C99.9248296,32.6526979 100.682612,31.8811872 100.682612,30.9292936 C100.682612,29.9774 99.9248296,29.2058894 98.9898743,29.2058894" id="Fill-19" fill="#414A59" mask="url(#mask-2)"></path>
            </g>
            <path d="M26,30.3563898 C26,30.8556702 26.1882276,31.3594242 26.561148,31.74149 L36.1315941,41.4327174 C36.4833058,41.7879401 36.9649211,42 37.4995582,42 C38.0341952,42 38.5166942,41.7825715 38.8675222,41.4327174 L48.438852,31.74149 C48.8161909,31.3594242 49,30.8556702 49,30.3563898 C49,29.8580043 48.8108887,29.3963042 48.438852,29.0142385 C48.0615131,28.631278 47.5631075,28.4031122 47.0708879,28.4031122 C46.5777846,28.4031122 46.0802628,28.631278 45.7029239,29.0142385 L39.4286702,35.3241393 L39.4286702,20.9532776 C39.4286702,19.8759774 38.5635302,19 37.4995582,19 C36.4355861,19 35.5713298,19.8759774 35.5713298,20.9532776 L35.5713298,35.3241393 L29.2970761,29.0142385 C28.9197372,28.631278 28.4213317,28.4031122 27.9291121,28.4031122 C27.4360088,28.4031122 26.9384869,28.631278 26.561148,29.0142385 C26.1838091,29.3963042 26,29.8580043 26,30.3563898 Z" id="Stroke-1" fill="#FFFFFF" fill-rule="nonzero"></path>
        </g>
    </g>
</svg>