<?xml version="1.0" encoding="UTF-8"?>
<svg width="125px" height="75px" viewBox="0 0 125 75" version="1.1" xmlns="http://www.w3.org/2000/svg" xmlns:xlink="http://www.w3.org/1999/xlink">
    <!-- Generator: Sketch 46.2 (44496) - http://www.bohemiancoding.com/sketch -->
    <title>icon-Feather</title>
    <desc>Created with Sketch.</desc>
    <defs>
        <polygon id="path-1" points="0 35 0 0 117 0 117 35"></polygon>
    </defs>
    <g id="Page-1" stroke="none" stroke-width="1" fill="none" fill-rule="evenodd">
        <g id="icon-Feather">
            <g id="Page-1" transform="translate(4.000000, 19.000000)">
                <mask id="mask-2" fill="white">
                    <use xlink:href="#path-1"></use>
                </mask>
                <g id="Clip-2"></g>
                <path d="M116.816141,28.4602611 C114.406635,18.2299852 105.323387,10.8499058 95.8144471,9.42878554 C96.7894179,9.09762175 98.2523317,8.60037883 99.2273024,8.26921505 C92.6460211,5.09481624 85.2399055,2.50716408 77.6662596,1.11289492 C61.6309664,-1.83675008 44.8413297,0.590789857 33.5215992,14.3097221 C34.1724951,13.6284992 33.4154052,12.6996495 33.7944079,12.0950021 C28.1816891,15.8362578 24.9400258,19.4541973 20.7874745,24.7985642 C32.1548092,21.5187499 40.6631453,16.6954936 51.554438,11.4167627 C59.9080604,7.36821087 68.602236,5.74719895 76.9503656,6.49803576 C87.3051956,7.90125528 92.5087013,14.6428748 92.5087013,14.6428748 C87.9029945,12.7543462 83.8850166,10.2154238 75.0379583,9.39994545 C69.2979898,9.28060715 62.2562294,10.1865837 54.3292138,13.3629715 C44.1483223,17.4423525 34.1377074,23.8816483 23.9678015,27.0998045 C16.1909223,29.5601624 8.3728472,29.7153022 0,28.0246763 C2.71343966,30.0106645 6.43114493,29.9102215 9.66182258,29.974863 C20.4807935,30.3696739 30.4465506,33.3799826 41.0833439,35 C39.8035232,34.2720364 39.4986732,33.2129089 39.1938232,32.1537815 C44.2590937,34.3466228 49.7592102,34.0512605 55.3179166,33.3362252 C60.4948738,32.6709142 65.7240126,31.6436103 70.7059757,31.9141104 C69.2732722,30.6560858 68.3285118,29.2329766 67.8707791,27.6437882 C72.5341602,28.9674489 77.1966259,30.2901151 81.4388928,30.9971945 C85.7122857,31.800739 89.7266018,32.2800812 93.4955731,32.1398587 C92.3750434,30.9484647 90.9423399,29.6914346 90.8196675,27.4071006 C97.1903917,32.8021863 105.449721,31.7400754 113.007804,33.8245177 C115.903421,34.5852994 117.578723,31.1085769 116.816141,28.4602611" id="Fill-1" fill="#345388" mask="url(#mask-2)"></path>
            </g>
        </g>
    </g>
</svg>