<?xml version="1.0" encoding="UTF-8"?>
<svg width="160px" height="30px" viewBox="0 0 160 30" version="1.1" xmlns="http://www.w3.org/2000/svg" xmlns:xlink="http://www.w3.org/1999/xlink">
    <!-- Generator: Sketch 62 (91390) - https://sketch.com -->
    <title>logo-brentwoodhome-v3</title>
    <desc>Created with Sketch.</desc>
    <g id="logo-brentwoodhome-v3" stroke="none" stroke-width="1" fill="none" fill-rule="evenodd">
        <g id="BRENTWOOD-logo-short" fill="#454D5C" fill-rule="nonzero">
            <path d="M4.77647799,14.6370968 C5.45789597,14.6370968 6.09344928,14.5497312 6.68313793,14.375 C7.27282657,14.2002688 7.79044215,13.9448925 8.23598468,13.608871 C8.68152721,13.2728495 9.03206434,12.859543 9.28759609,12.3689516 C9.54312783,11.8783602 9.6708937,11.3104839 9.6708937,10.6653226 C9.6708937,10.1814516 9.59226855,9.7311828 9.43501825,9.31451613 C9.27776794,8.89784946 9.06482482,8.53158602 8.79618889,8.21572581 C8.52755295,7.89986559 8.20977629,7.64448925 7.84285892,7.44959677 C7.47594154,7.2547043 7.08281578,7.1438172 6.66348164,7.11693548 L6.66348164,7.11693548 L6.66348164,7.0766129 C7.37110801,6.83467742 7.94769245,6.45497312 8.39323498,5.9375 C8.83877751,5.42002688 9.06154878,4.75134409 9.06154878,3.93145161 C9.06154878,3.3266129 8.95343919,2.79905914 8.73722002,2.34879032 C8.52100085,1.89852151 8.22615653,1.52889785 7.85268706,1.23991935 C7.47921759,0.95094086 7.03367506,0.732526882 6.51605948,0.584677419 C5.99844389,0.436827957 5.43823968,0.362903226 4.83544685,0.362903226 L4.83544685,0.362903226 L0,0.362903226 L0,14.6370968 L4.77647799,14.6370968 Z M4.46197738,6.29032258 L1.88700365,6.29032258 L1.88700365,2.05645161 L4.85510314,2.05645161 C5.61514628,2.05645161 6.17207444,2.26478495 6.52588762,2.68145161 C6.87970081,3.09811828 7.0566074,3.58870968 7.0566074,4.15322581 C7.0566074,4.54301075 6.98781039,4.87231183 6.85021637,5.14112903 C6.71262236,5.40994624 6.52588762,5.63172043 6.29001217,5.80645161 C6.05413671,5.9811828 5.77894868,6.10551075 5.46444807,6.17943548 C5.14994746,6.25336022 4.81579056,6.29032258 4.46197738,6.29032258 L4.46197738,6.29032258 Z M4.65854026,12.9435484 L1.88700365,12.9435484 L1.88700365,7.98387097 L4.67819655,7.98387097 C5.59548999,7.98387097 6.32277265,8.19556452 6.86004452,8.61895161 C7.39731639,9.04233871 7.66595233,9.67741935 7.66595233,10.5241935 C7.66595233,11.0349462 7.56111879,11.4448925 7.35145172,11.7540323 C7.14178465,12.063172 6.8862529,12.3084677 6.58485649,12.4899194 C6.28346007,12.671371 5.95913132,12.7923387 5.61187023,12.8528226 C5.26460914,12.9133065 4.94683248,12.9435484 4.65854026,12.9435484 L4.65854026,12.9435484 Z M18.4201259,14.6370968 L18.4201259,8.34677419 L20.5233487,8.34677419 L24.0614805,14.6370968 L26.4202351,14.6370968 L22.4693212,8.125 C22.9934889,8.07123656 23.4685158,7.92674731 23.8944021,7.69153226 C24.3202883,7.4563172 24.6806536,7.16733871 24.9754979,6.82459677 C25.2703422,6.48185484 25.4963895,6.09879032 25.6536398,5.67540323 C25.8108901,5.25201613 25.8895153,4.81182796 25.8895153,4.35483871 C25.8895153,3.91129032 25.8239943,3.45094086 25.6929524,2.97379032 C25.5619105,2.49663978 25.3293111,2.06653226 24.9951542,1.68346774 C24.6609973,1.30040323 24.2056266,0.984543011 23.6290422,0.735887097 C23.0524577,0.487231183 22.318623,0.362903226 21.4275379,0.362903226 L21.4275379,0.362903226 L16.5331222,0.362903226 L16.5331222,14.6370968 L18.4201259,14.6370968 Z M20.8968181,6.65322581 L18.4201259,6.65322581 L18.4201259,2.05645161 L20.8968181,2.05645161 C21.2637355,2.05645161 21.6273768,2.08669355 21.9877421,2.14717742 C22.3481074,2.20766129 22.6691601,2.31854839 22.9509002,2.47983871 C23.2326404,2.64112903 23.4586877,2.87298387 23.6290422,3.17540323 C23.7993967,3.47782258 23.8845739,3.87096774 23.8845739,4.35483871 C23.8845739,4.83870968 23.7993967,5.23185484 23.6290422,5.53427419 C23.4586877,5.83669355 23.2326404,6.06854839 22.9509002,6.22983871 C22.6691601,6.39112903 22.3481074,6.50201613 21.9877421,6.5625 C21.6273768,6.62298387 21.2637355,6.65322581 20.8968181,6.65322581 L20.8968181,6.65322581 Z M42.0295117,14.6370968 L42.0295117,12.8225806 L34.5797786,12.8225806 L34.5797786,8.24596774 L41.1842914,8.24596774 L41.1842914,6.43145161 L34.5797786,6.43145161 L34.5797786,2.17741935 L41.6756986,2.17741935 L41.6756986,0.362903226 L32.6927749,0.362903226 L32.6927749,14.6370968 L42.0295117,14.6370968 Z M50.7394313,14.6370968 L50.7394313,2.90322581 L50.7787439,2.90322581 L58.5233214,14.6370968 L60.9213885,14.6370968 L60.9213885,0.362903226 L59.0343849,0.362903226 L59.0343849,12.0967742 L58.9950723,12.0967742 L51.3291199,0.362903226 L48.8524277,0.362903226 L48.8524277,14.6370968 L50.7394313,14.6370968 Z M73.4446279,14.6370968 L73.4446279,2.17741935 L77.9262616,2.17741935 L77.9262616,0.362903226 L67.0759906,0.362903226 L67.0759906,2.17741935 L71.5576243,2.17741935 L71.5576243,14.6370968 L73.4446279,14.6370968 Z M88.3659345,14.6370968 L91.7271598,2.98387097 L91.7664724,2.98387097 L95.1473539,14.6370968 L97.132639,14.6370968 L101.181834,0.362903226 L99.2162055,0.362903226 L96.1498246,11.7741935 L96.110512,11.7741935 L92.8279119,0.362903226 L90.6657202,0.362903226 L87.3831201,11.7741935 L87.3438076,11.7741935 L84.2774266,0.362903226 L82.3117978,0.362903226 L86.3806494,14.6370968 L88.3659345,14.6370968 Z M113.528167,15 C114.589607,15 115.565869,14.8084677 116.456954,14.4254032 C117.348039,14.0423387 118.111358,13.5147849 118.746912,12.8427419 C119.382465,12.1706989 119.880424,11.3776882 120.24079,10.4637097 C120.601155,9.54973118 120.781337,8.56182796 120.781337,7.5 C120.781337,6.43817204 120.601155,5.45026882 120.24079,4.53629032 C119.880424,3.62231183 119.382465,2.82930108 118.746912,2.15725806 C118.111358,1.48521505 117.348039,0.95766129 116.456954,0.574596774 C115.565869,0.191532258 114.589607,0 113.528167,0 C112.466728,0 111.490465,0.191532258 110.59938,0.574596774 C109.708295,0.95766129 108.944976,1.48521505 108.309423,2.15725806 C107.673869,2.82930108 107.17591,3.62231183 106.815545,4.53629032 C106.45518,5.45026882 106.274997,6.43817204 106.274997,7.5 C106.274997,8.56182796 106.45518,9.54973118 106.815545,10.4637097 C107.17591,11.3776882 107.673869,12.1706989 108.309423,12.8427419 C108.944976,13.5147849 109.708295,14.0423387 110.59938,14.4254032 C111.490465,14.8084677 112.466728,15 113.528167,15 Z M113.528167,13.1854839 C112.728811,13.1854839 112.008081,13.0342742 111.365975,12.7318548 C110.72387,12.4294355 110.173494,12.0228495 109.714847,11.5120968 C109.256201,11.0013441 108.902387,10.3998656 108.653408,9.70766129 C108.404428,9.01545699 108.279938,8.27956989 108.279938,7.5 C108.279938,6.72043011 108.404428,5.98454301 108.653408,5.29233871 C108.902387,4.60013441 109.256201,3.99865591 109.714847,3.48790323 C110.173494,2.97715054 110.72387,2.57056452 111.365975,2.26814516 C112.008081,1.96572581 112.728811,1.81451613 113.528167,1.81451613 C114.327523,1.81451613 115.048253,1.96572581 115.690359,2.26814516 C116.332464,2.57056452 116.88284,2.97715054 117.341487,3.48790323 C117.800134,3.99865591 118.153947,4.60013441 118.402927,5.29233871 C118.651906,5.98454301 118.776396,6.72043011 118.776396,7.5 C118.776396,8.27956989 118.651906,9.01545699 118.402927,9.70766129 C118.153947,10.3998656 117.800134,11.0013441 117.341487,11.5120968 C116.88284,12.0228495 116.332464,12.4294355 115.690359,12.7318548 C115.048253,13.0342742 114.327523,13.1854839 113.528167,13.1854839 Z M134.03186,15 C135.093299,15 136.069561,14.8084677 136.960646,14.4254032 C137.851732,14.0423387 138.615051,13.5147849 139.250604,12.8427419 C139.886157,12.1706989 140.384117,11.3776882 140.744482,10.4637097 C141.104847,9.54973118 141.28503,8.56182796 141.28503,7.5 C141.28503,6.43817204 141.104847,5.45026882 140.744482,4.53629032 C140.384117,3.62231183 139.886157,2.82930108 139.250604,2.15725806 C138.615051,1.48521505 137.851732,0.95766129 136.960646,0.574596774 C136.069561,0.191532258 135.093299,0 134.03186,0 C132.97042,0 131.994158,0.191532258 131.103073,0.574596774 C130.211988,0.95766129 129.448668,1.48521505 128.813115,2.15725806 C128.177562,2.82930108 127.679602,3.62231183 127.319237,4.53629032 C126.958872,5.45026882 126.778689,6.43817204 126.778689,7.5 C126.778689,8.56182796 126.958872,9.54973118 127.319237,10.4637097 C127.679602,11.3776882 128.177562,12.1706989 128.813115,12.8427419 C129.448668,13.5147849 130.211988,14.0423387 131.103073,14.4254032 C131.994158,14.8084677 132.97042,15 134.03186,15 Z M134.03186,13.1854839 C133.232504,13.1854839 132.511773,13.0342742 131.869668,12.7318548 C131.227562,12.4294355 130.677186,12.0228495 130.21854,11.5120968 C129.759893,11.0013441 129.40608,10.3998656 129.1571,9.70766129 C128.90812,9.01545699 128.783631,8.27956989 128.783631,7.5 C128.783631,6.72043011 128.90812,5.98454301 129.1571,5.29233871 C129.40608,4.60013441 129.759893,3.99865591 130.21854,3.48790323 C130.677186,2.97715054 131.227562,2.57056452 131.869668,2.26814516 C132.511773,1.96572581 133.232504,1.81451613 134.03186,1.81451613 C134.831215,1.81451613 135.551946,1.96572581 136.194051,2.26814516 C136.836157,2.57056452 137.386533,2.97715054 137.845179,3.48790323 C138.303826,3.99865591 138.657639,4.60013441 138.906619,5.29233871 C139.155599,5.98454301 139.280088,6.72043011 139.280088,7.5 C139.280088,8.27956989 139.155599,9.01545699 138.906619,9.70766129 C138.657639,10.3998656 138.303826,11.0013441 137.845179,11.5120968 C137.386533,12.0228495 136.836157,12.4294355 136.194051,12.7318548 C135.551946,13.0342742 134.831215,13.1854839 134.03186,13.1854839 Z M152.37336,14.6370968 C153.618258,14.6370968 154.715735,14.4354839 155.665788,14.0322581 C156.615842,13.6290323 157.411922,13.0947581 158.054027,12.4294355 C158.696133,11.7641129 159.180988,11.0047043 159.508593,10.1512097 C159.836198,9.29771505 160,8.41397849 160,7.5 C160,7.05645161 159.954135,6.57258065 159.862406,6.0483871 C159.770677,5.52419355 159.619978,5 159.410311,4.47580645 C159.200644,3.9516129 158.915628,3.44086022 158.555263,2.94354839 C158.194898,2.44623656 157.742803,2.00604839 157.198979,1.62298387 C156.655155,1.23991935 156.01305,0.934139785 155.272663,0.705645161 C154.532276,0.477150538 153.670675,0.362903226 152.687861,0.362903226 L152.687861,0.362903226 L147.832758,0.362903226 L147.832758,14.6370968 L152.37336,14.6370968 Z M152.098172,12.8225806 L149.719761,12.8225806 L149.719761,2.17741935 L152.550267,2.17741935 C153.677227,2.17741935 154.594521,2.36895161 155.302147,2.75201613 C156.009774,3.13508065 156.563426,3.60215054 156.963104,4.15322581 C157.362781,4.70430108 157.634693,5.28561828 157.778839,5.89717742 C157.922986,6.50873656 157.995059,7.04301075 157.995059,7.5 C157.995059,8.38709677 157.837808,9.16330645 157.523308,9.82862903 C157.208807,10.4939516 156.782921,11.0483871 156.245649,11.4919355 C155.708377,11.9354839 155.082652,12.2681452 154.368473,12.4899194 C153.654295,12.7116935 152.897528,12.8225806 152.098172,12.8225806 L152.098172,12.8225806 Z" id="BRENTWOOD"></path>
            <path d="M2.7810375,29.8837209 L2.7810375,29.3023256 L0.634155819,29.3023256 L0.634155819,25.3100775 L0,25.3100775 L0,29.8837209 L2.7810375,29.8837209 Z M8.21760249,30 C8.57431514,30 8.90240269,29.9386305 9.20186516,29.8158915 C9.50132763,29.6931525 9.75785247,29.5241171 9.97143967,29.3087855 C10.1850269,29.0934539 10.3523736,28.8393626 10.4734797,28.5465116 C10.5945858,28.2536606 10.6551389,27.9371232 10.6551389,27.5968992 C10.6551389,27.2566753 10.5945858,26.9401378 10.4734797,26.6472868 C10.3523736,26.3544358 10.1850269,26.1003445 9.97143967,25.8850129 C9.75785247,25.6696813 9.50132763,25.500646 9.20186516,25.377907 C8.90240269,25.255168 8.57431514,25.1937984 8.21760249,25.1937984 C7.86088984,25.1937984 7.53280228,25.255168 7.23333981,25.377907 C6.93387734,25.500646 6.6773525,25.6696813 6.4637653,25.8850129 C6.2501781,26.1003445 6.08283142,26.3544358 5.96172528,26.6472868 C5.84061913,26.9401378 5.78006606,27.2566753 5.78006606,27.5968992 C5.78006606,27.9371232 5.84061913,28.2536606 5.96172528,28.5465116 C6.08283142,28.8393626 6.2501781,29.0934539 6.4637653,29.3087855 C6.6773525,29.5241171 6.93387734,29.6931525 7.23333981,29.8158915 C7.53280228,29.9386305 7.86088984,30 8.21760249,30 Z M8.21760249,29.4186047 C7.94896704,29.4186047 7.70675474,29.370155 7.49096561,29.2732558 C7.27517648,29.1763566 7.09021436,29.046081 6.93607927,28.8824289 C6.78194417,28.7187769 6.66303996,28.5260551 6.57936662,28.3042636 C6.49569328,28.082472 6.45385662,27.8466839 6.45385662,27.5968992 C6.45385662,27.3471146 6.49569328,27.1113264 6.57936662,26.8895349 C6.66303996,26.6677433 6.78194417,26.4750215 6.93607927,26.3113695 C7.09021436,26.1477175 7.27517648,26.0174419 7.49096561,25.9205426 C7.70675474,25.8236434 7.94896704,25.7751938 8.21760249,25.7751938 C8.48623794,25.7751938 8.72845023,25.8236434 8.94423936,25.9205426 C9.1600285,26.0174419 9.34499061,26.1477175 9.4991257,26.3113695 C9.6532608,26.4750215 9.77216502,26.6677433 9.85583835,26.8895349 C9.93951169,27.1113264 9.98134836,27.3471146 9.98134836,27.5968992 C9.98134836,27.8466839 9.93951169,28.082472 9.85583835,28.3042636 C9.77216502,28.5260551 9.6532608,28.7187769 9.4991257,28.8824289 C9.34499061,29.046081 9.1600285,29.1763566 8.94423936,29.2732558 C8.72845023,29.370155 8.48623794,29.4186047 8.21760249,29.4186047 Z M15.3188265,30 C15.5434234,30 15.7548086,29.9677003 15.9529823,29.9031008 C16.151156,29.8385013 16.3229065,29.7459087 16.4682339,29.625323 C16.6135613,29.5047373 16.7291626,29.3561585 16.8150379,29.1795866 C16.9009132,29.0030146 16.9438508,28.8049096 16.9438508,28.5852713 C16.9438508,28.3096469 16.8866006,28.0932386 16.7721003,27.9360465 C16.6575999,27.7788544 16.5155754,27.6539621 16.3460268,27.5613695 C16.1764782,27.4687769 15.9915161,27.3966408 15.7911405,27.3449612 C15.5907648,27.2932817 15.4058027,27.2351421 15.2362541,27.1705426 C15.0667055,27.1059432 14.924681,27.0219638 14.8101807,26.9186047 C14.6956803,26.8152455 14.6384302,26.6666667 14.6384302,26.4728682 C14.6384302,26.4039621 14.6527427,26.328596 14.6813678,26.24677 C14.7099929,26.164944 14.7595363,26.0885013 14.8299981,26.0174419 C14.9004598,25.9463824 14.9940418,25.8882429 15.1107441,25.8430233 C15.2274464,25.7978036 15.3738747,25.7751938 15.5500291,25.7751938 C15.7349913,25.7751938 15.900136,25.8118002 16.0454634,25.8850129 C16.1907908,25.9582257 16.3030892,26.0551249 16.3823587,26.1757106 L16.3823587,26.1757106 L16.8976103,25.7170543 C16.7214559,25.5060293 16.5166764,25.3660637 16.2832718,25.2971576 C16.0498672,25.2282515 15.805453,25.1937984 15.5500291,25.1937984 C15.2681821,25.1937984 15.0270708,25.2357881 14.8266952,25.3197674 C14.6263195,25.4037468 14.4622758,25.5081826 14.3345638,25.6330749 C14.2068519,25.7579673 14.1132699,25.8957795 14.0538178,26.0465116 C13.9943656,26.1972438 13.9646396,26.3393626 13.9646396,26.4728682 C13.9646396,26.7700258 14.0218898,27.005814 14.1363901,27.1802326 C14.2508905,27.3546512 14.392915,27.4935401 14.5624636,27.5968992 C14.7320122,27.7002584 14.9169743,27.7810078 15.1173499,27.8391473 C15.3177255,27.8972868 15.5026876,27.9575797 15.6722363,28.0200258 C15.8417849,28.082472 15.9838093,28.1599914 16.0983097,28.252584 C16.2128101,28.3451766 16.2700602,28.4797588 16.2700602,28.6563307 C16.2700602,28.7812231 16.2414351,28.8910422 16.184185,28.9857881 C16.1269348,29.080534 16.0531701,29.1602067 15.962891,29.2248062 C15.8726119,29.2894057 15.7724241,29.3378553 15.6623276,29.370155 C15.5522311,29.4024548 15.4443365,29.4186047 15.3386439,29.4186047 C15.1492779,29.4186047 14.9654167,29.3787683 14.7870604,29.2990956 C14.6087041,29.2194229 14.4622758,29.0956072 14.3477754,28.9276486 L14.3477754,28.9276486 L13.825918,29.3669251 C13.984457,29.5822567 14.1980442,29.7416021 14.4666796,29.8449612 C14.7353151,29.9483204 15.019364,30 15.3188265,30 Z M25.1482417,29.8837209 L25.610647,28.75323 L27.8367981,28.75323 L28.3058092,29.8837209 L29.0456577,29.8837209 L27.0441034,25.3100775 L26.4693997,25.3100775 L24.4083932,29.8837209 L25.1482417,29.8837209 Z M27.6055955,28.2105943 L25.8352438,28.2105943 L26.7204197,26.1111111 L26.7336312,26.1111111 L27.6055955,28.2105943 Z M32.9298621,29.8837209 L32.9298621,26.124031 L32.9430736,26.124031 L35.5457548,29.8837209 L36.3516612,29.8837209 L36.3516612,25.3100775 L35.7175053,25.3100775 L35.7175053,29.0697674 L35.7042938,29.0697674 L33.1280357,25.3100775 L32.2957062,25.3100775 L32.2957062,29.8837209 L32.9298621,29.8837209 Z M42.4091704,30 C42.5500939,30 42.7009261,29.9913867 42.861667,29.9741602 C43.0224079,29.9569337 43.1809468,29.9300172 43.3372839,29.8934109 C43.4936209,29.8568045 43.6444531,29.8126615 43.7897805,29.7609819 C43.9351078,29.7093023 44.0650217,29.6490095 44.1795221,29.5801034 L44.1795221,29.5801034 L44.1795221,27.3255814 L42.5082572,27.3255814 L42.5082572,27.9069767 L43.5453662,27.9069767 L43.5453662,29.1795866 C43.4044427,29.2571059 43.2337931,29.3163221 43.0334175,29.3572351 C42.8330419,29.3981481 42.6205557,29.4186047 42.3959588,29.4186047 C42.1361311,29.4186047 41.8961207,29.3723084 41.6759277,29.2797158 C41.4557347,29.1871232 41.2641668,29.0590009 41.101224,28.8953488 C40.9382812,28.7316968 40.8105693,28.538975 40.7180882,28.3171835 C40.6256071,28.0953919 40.5793666,27.8552972 40.5793666,27.5968992 C40.5793666,27.3471146 40.6212033,27.1113264 40.7048766,26.8895349 C40.78855,26.6677433 40.9074542,26.4750215 41.0615893,26.3113695 C41.2157244,26.1477175 41.4006865,26.0174419 41.6164756,25.9205426 C41.8322647,25.8236434 42.074477,25.7751938 42.3431125,25.7751938 C42.5809209,25.7751938 42.8077197,25.8107235 43.0235088,25.8817829 C43.239298,25.9528424 43.4440775,26.0788114 43.6378473,26.2596899 L43.6378473,26.2596899 L44.087041,25.7881137 C43.9020789,25.6029285 43.6730782,25.4575797 43.4000389,25.3520672 C43.1269995,25.2465547 42.7746908,25.1937984 42.3431125,25.1937984 C41.9863998,25.1937984 41.6583123,25.255168 41.3588498,25.377907 C41.0593873,25.500646 40.8028625,25.6696813 40.5892753,25.8850129 C40.3756881,26.1003445 40.2083414,26.3544358 40.0872353,26.6472868 C39.9661291,26.9401378 39.9055761,27.2566753 39.9055761,27.5968992 C39.9055761,27.9198966 39.9617253,28.2267442 40.0740237,28.5174419 C40.1863221,28.8081395 40.3492649,29.0633075 40.5628521,29.2829457 C40.7764393,29.502584 41.038469,29.6770026 41.3489411,29.8062016 C41.6594133,29.9354005 42.012823,30 42.4091704,30 Z M51.1156013,29.8837209 L51.1156013,29.3023256 L48.612007,29.3023256 L48.612007,27.8359173 L50.8315524,27.8359173 L50.8315524,27.254522 L48.612007,27.254522 L48.612007,25.8914729 L50.9966971,25.8914729 L50.9966971,25.3100775 L47.9778512,25.3100775 L47.9778512,29.8837209 L51.1156013,29.8837209 Z M57.4373421,29.8837209 L57.4373421,29.3023256 L55.2904605,29.3023256 L55.2904605,25.3100775 L54.6563046,25.3100775 L54.6563046,29.8837209 L57.4373421,29.8837209 Z M63.8647756,29.8837209 L63.8647756,29.3023256 L61.3611813,29.3023256 L61.3611813,27.8359173 L63.5807266,27.8359173 L63.5807266,27.254522 L61.3611813,27.254522 L61.3611813,25.8914729 L63.7458714,25.8914729 L63.7458714,25.3100775 L60.7270255,25.3100775 L60.7270255,29.8837209 L63.8647756,29.8837209 Z M68.5152516,30 C68.7398485,30 68.9512337,29.9677003 69.1494074,29.9031008 C69.3475811,29.8385013 69.5193316,29.7459087 69.664659,29.625323 C69.8099864,29.5047373 69.9255877,29.3561585 70.011463,29.1795866 C70.0973383,29.0030146 70.1402759,28.8049096 70.1402759,28.5852713 C70.1402759,28.3096469 70.0830257,28.0932386 69.9685254,27.9360465 C69.854025,27.7788544 69.7120005,27.6539621 69.5424519,27.5613695 C69.3729033,27.4687769 69.1879412,27.3966408 68.9875656,27.3449612 C68.7871899,27.2932817 68.6022278,27.2351421 68.4326792,27.1705426 C68.2631306,27.1059432 68.1211061,27.0219638 68.0066058,26.9186047 C67.8921054,26.8152455 67.8348553,26.6666667 67.8348553,26.4728682 C67.8348553,26.4039621 67.8491678,26.328596 67.8777929,26.24677 C67.906418,26.164944 67.9559614,26.0885013 68.0264232,26.0174419 C68.0968849,25.9463824 68.1904669,25.8882429 68.3071692,25.8430233 C68.4238715,25.7978036 68.5702999,25.7751938 68.7464542,25.7751938 C68.9314164,25.7751938 69.0965611,25.8118002 69.2418885,25.8850129 C69.3872159,25.9582257 69.4995143,26.0551249 69.5787838,26.1757106 L69.5787838,26.1757106 L70.0940354,25.7170543 C69.917881,25.5060293 69.7131015,25.3660637 69.4796969,25.2971576 C69.2462923,25.2282515 69.0018781,25.1937984 68.7464542,25.1937984 C68.4646072,25.1937984 68.2234959,25.2357881 68.0231203,25.3197674 C67.8227446,25.4037468 67.6587009,25.5081826 67.5309889,25.6330749 C67.403277,25.7579673 67.309695,25.8957795 67.2502429,26.0465116 C67.1907908,26.1972438 67.1610647,26.3393626 67.1610647,26.4728682 C67.1610647,26.7700258 67.2183149,27.005814 67.3328152,27.1802326 C67.4473156,27.3546512 67.5893401,27.4935401 67.7588887,27.5968992 C67.9284373,27.7002584 68.1133994,27.7810078 68.313775,27.8391473 C68.5141506,27.8972868 68.6991128,27.9575797 68.8686614,28.0200258 C69.03821,28.082472 69.1802344,28.1599914 69.2947348,28.252584 C69.4092352,28.3451766 69.4664853,28.4797588 69.4664853,28.6563307 C69.4664853,28.7812231 69.4378602,28.8910422 69.3806101,28.9857881 C69.3233599,29.080534 69.2495952,29.1602067 69.1593161,29.2248062 C69.069037,29.2894057 68.9688492,29.3378553 68.8587527,29.370155 C68.7486562,29.4024548 68.6407616,29.4186047 68.535069,29.4186047 C68.345703,29.4186047 68.1618418,29.3787683 67.9834855,29.2990956 C67.8051292,29.2194229 67.6587009,29.0956072 67.5442005,28.9276486 L67.5442005,28.9276486 L67.0223431,29.3669251 C67.1808821,29.5822567 67.3944693,29.7416021 67.6631047,29.8449612 C67.9317402,29.9483204 68.2157891,30 68.5152516,30 Z M78.589081,30 L78.589081,25 L78.0738294,25 L78.0738294,30 L78.589081,30 Z M89.9246163,29.8837209 L89.9246163,29.3023256 L87.421022,29.3023256 L87.421022,27.8359173 L89.6405673,27.8359173 L89.6405673,27.254522 L87.421022,27.254522 L87.421022,25.8914729 L89.8057121,25.8914729 L89.8057121,25.3100775 L86.7868661,25.3100775 L86.7868661,29.8837209 L89.9246163,29.8837209 Z M94.5750923,30 C94.7996891,30 95.0110744,29.9677003 95.2092481,29.9031008 C95.4074218,29.8385013 95.5791723,29.7459087 95.7244997,29.625323 C95.8698271,29.5047373 95.9854284,29.3561585 96.0713037,29.1795866 C96.1571789,29.0030146 96.2001166,28.8049096 96.2001166,28.5852713 C96.2001166,28.3096469 96.1428664,28.0932386 96.028366,27.9360465 C95.9138657,27.7788544 95.7718412,27.6539621 95.6022926,27.5613695 C95.432744,27.4687769 95.2477819,27.3966408 95.0474063,27.3449612 C94.8470306,27.2932817 94.6620685,27.2351421 94.4925199,27.1705426 C94.3229713,27.1059432 94.1809468,27.0219638 94.0664465,26.9186047 C93.9519461,26.8152455 93.8946959,26.6666667 93.8946959,26.4728682 C93.8946959,26.4039621 93.9090085,26.328596 93.9376336,26.24677 C93.9662587,26.164944 94.0158021,26.0885013 94.0862638,26.0174419 C94.1567256,25.9463824 94.2503076,25.8882429 94.3670099,25.8430233 C94.4837122,25.7978036 94.6301405,25.7751938 94.8062949,25.7751938 C94.991257,25.7751938 95.1564018,25.8118002 95.3017292,25.8850129 C95.4470565,25.9582257 95.559355,26.0551249 95.6386244,26.1757106 L95.6386244,26.1757106 L96.153876,25.7170543 C95.9777217,25.5060293 95.7729422,25.3660637 95.5395376,25.2971576 C95.306133,25.2282515 95.0617188,25.1937984 94.8062949,25.1937984 C94.5244479,25.1937984 94.2833366,25.2357881 94.0829609,25.3197674 C93.8825853,25.4037468 93.7185415,25.5081826 93.5908296,25.6330749 C93.4631177,25.7579673 93.3695357,25.8957795 93.3100835,26.0465116 C93.2506314,26.1972438 93.2209054,26.3393626 93.2209054,26.4728682 C93.2209054,26.7700258 93.2781556,27.005814 93.3926559,27.1802326 C93.5071563,27.3546512 93.6491808,27.4935401 93.8187294,27.5968992 C93.988278,27.7002584 94.1732401,27.7810078 94.3736157,27.8391473 C94.5739913,27.8972868 94.7589534,27.9575797 94.928502,28.0200258 C95.0980506,28.082472 95.2400751,28.1599914 95.3545755,28.252584 C95.4690758,28.3451766 95.526326,28.4797588 95.526326,28.6563307 C95.526326,28.7812231 95.4977009,28.8910422 95.4404507,28.9857881 C95.3832006,29.080534 95.3094359,29.1602067 95.2191568,29.2248062 C95.1288777,29.2894057 95.0286899,29.3378553 94.9185934,29.370155 C94.8084969,29.4024548 94.7006023,29.4186047 94.5949097,29.4186047 C94.4055437,29.4186047 94.2216825,29.3787683 94.0433262,29.2990956 C93.8649699,29.2194229 93.7185415,29.0956072 93.6040412,28.9276486 L93.6040412,28.9276486 L93.0821838,29.3669251 C93.2407228,29.5822567 93.45431,29.7416021 93.7229454,29.8449612 C93.9915809,29.9483204 94.2756298,30 94.5750923,30 Z M101.392267,29.8837209 L101.392267,25.8914729 L102.898387,25.8914729 L102.898387,25.3100775 L99.2519915,25.3100775 L99.2519915,25.8914729 L100.758112,25.8914729 L100.758112,29.8837209 L101.392267,29.8837209 Z M105.798329,29.9224806 C105.917233,29.9224806 106.019623,29.880491 106.105498,29.7965116 C106.191374,29.7125323 106.234311,29.6124031 106.234311,29.496124 C106.234311,29.379845 106.191374,29.2797158 106.105498,29.1957364 C106.019623,29.1117571 105.917233,29.0697674 105.798329,29.0697674 C105.679425,29.0697674 105.577035,29.1117571 105.49116,29.1957364 C105.405285,29.2797158 105.362347,29.379845 105.362347,29.496124 C105.362347,29.6124031 105.405285,29.7125323 105.49116,29.7965116 C105.577035,29.880491 105.679425,29.9224806 105.798329,29.9224806 Z M116.255294,29.8837209 L116.255294,25.3100775 L115.693802,25.3100775 L114.392462,26.3630491 L114.762386,26.7958656 L115.621139,26.0206718 L115.621139,29.8837209 L116.255294,29.8837209 Z M121.942879,29.8837209 L123.125316,28.0555556 C123.195777,27.9478898 123.259633,27.8423773 123.316884,27.7390181 C123.374134,27.6356589 123.423677,27.5312231 123.465514,27.4257106 C123.507351,27.3201981 123.539279,27.2093023 123.561298,27.0930233 C123.583317,26.9767442 123.594327,26.8475452 123.594327,26.7054264 C123.594327,26.4814815 123.551389,26.2790698 123.465514,26.0981912 C123.379639,25.9173127 123.264037,25.7622739 123.11871,25.6330749 C122.973383,25.503876 122.803834,25.4048234 122.610064,25.3359173 C122.416294,25.2670112 122.209313,25.2325581 121.98912,25.2325581 C121.768927,25.2325581 121.561945,25.2659345 121.368176,25.3326873 C121.174406,25.3994401 121.004857,25.497416 120.85953,25.626615 C120.714202,25.755814 120.598601,25.916236 120.512726,26.1078811 C120.426851,26.2995263 120.383913,26.5202412 120.383913,26.7700258 C120.383913,27.0198105 120.427952,27.2362188 120.516029,27.4192506 C120.604106,27.6022825 120.717505,27.7530146 120.856227,27.871447 C120.994949,27.9898794 121.150185,28.0770887 121.321935,28.1330749 C121.493686,28.1890612 121.663234,28.2170543 121.830581,28.2170543 C122.028755,28.2170543 122.200505,28.1826012 122.345833,28.1136951 L122.345833,28.1136951 L122.372256,28.1136951 L121.196425,29.8837209 L121.942879,29.8837209 Z M121.98912,27.6744186 C121.843793,27.6744186 121.711677,27.6507321 121.592772,27.6033592 C121.473868,27.5559862 121.371479,27.4903101 121.285603,27.4063307 C121.199728,27.3223514 121.13367,27.2222222 121.08743,27.1059432 C121.041189,26.9896641 121.018069,26.8626184 121.018069,26.7248062 C121.018069,26.586994 121.041189,26.4599483 121.08743,26.3436693 C121.13367,26.2273902 121.199728,26.127261 121.285603,26.0432817 C121.371479,25.9593023 121.473868,25.8936262 121.592772,25.8462532 C121.711677,25.7988803 121.843793,25.7751938 121.98912,25.7751938 C122.134447,25.7751938 122.266563,25.7988803 122.385467,25.8462532 C122.504371,25.8936262 122.606761,25.9593023 122.692636,26.0432817 C122.778512,26.127261 122.84457,26.2273902 122.89081,26.3436693 C122.937051,26.4599483 122.960171,26.586994 122.960171,26.7248062 C122.960171,26.8626184 122.937051,26.9896641 122.89081,27.1059432 C122.84457,27.2222222 122.778512,27.3223514 122.692636,27.4063307 C122.606761,27.4903101 122.504371,27.5559862 122.385467,27.6033592 C122.266563,27.6507321 122.134447,27.6744186 121.98912,27.6744186 Z M128.304255,29.9612403 C128.51564,29.9612403 128.714915,29.9300172 128.902079,29.8675711 C129.089243,29.8051249 129.251085,29.713609 129.387604,29.5930233 C129.524124,29.4724376 129.632019,29.3260121 129.711288,29.1537468 C129.790558,28.9814815 129.830192,28.787683 129.830192,28.5723514 C129.830192,28.4302326 129.807072,28.2988803 129.760832,28.1782946 C129.714591,28.0577089 129.651836,27.9489664 129.572567,27.8520672 C129.493297,27.755168 129.399715,27.6733419 129.29182,27.6065891 C129.183926,27.5398363 129.066123,27.4892334 128.938411,27.4547804 L128.938411,27.4547804 L128.938411,27.4354005 C129.026488,27.4138674 129.114565,27.3751077 129.202642,27.3191214 C129.29072,27.2631352 129.368888,27.1920758 129.437148,27.1059432 C129.505408,27.0198105 129.561557,26.9153747 129.605595,26.7926357 C129.649634,26.6698966 129.671653,26.5288544 129.671653,26.369509 C129.671653,26.1972438 129.635322,26.0411283 129.562658,25.9011628 C129.489994,25.7611972 129.390907,25.6416882 129.265397,25.5426357 C129.139887,25.4435831 128.99456,25.3671404 128.829415,25.3133075 C128.66427,25.2594746 128.489217,25.2325581 128.304255,25.2325581 C128.119293,25.2325581 127.944239,25.2594746 127.779095,25.3133075 C127.61395,25.3671404 127.468622,25.4435831 127.343112,25.5426357 C127.217602,25.6416882 127.118516,25.7611972 127.045852,25.9011628 C126.973188,26.0411283 126.936856,26.1972438 126.936856,26.369509 C126.936856,26.5288544 126.958876,26.6698966 127.002914,26.7926357 C127.046953,26.9153747 127.103102,27.0198105 127.171362,27.1059432 C127.239622,27.1920758 127.31779,27.2631352 127.405867,27.3191214 C127.493945,27.3751077 127.582022,27.4138674 127.670099,27.4354005 L127.670099,27.4354005 L127.670099,27.4547804 C127.542387,27.4892334 127.424584,27.5398363 127.316689,27.6065891 C127.208795,27.6733419 127.115213,27.755168 127.035943,27.8520672 C126.956674,27.9489664 126.893919,28.0577089 126.847678,28.1782946 C126.801438,28.2988803 126.778317,28.4302326 126.778317,28.5723514 C126.778317,28.787683 126.817952,28.9814815 126.897222,29.1537468 C126.976491,29.3260121 127.084386,29.4724376 127.220905,29.5930233 C127.357425,29.713609 127.519267,29.8051249 127.706431,29.8675711 C127.893595,29.9300172 128.09287,29.9612403 128.304255,29.9612403 Z M128.304255,27.1834625 C128.185351,27.1834625 128.080759,27.1619294 127.99048,27.118863 C127.900201,27.0757967 127.824234,27.0208872 127.76258,26.9541344 C127.700926,26.8873816 127.653585,26.8109388 127.620556,26.7248062 C127.587527,26.6386736 127.571012,26.5503876 127.571012,26.4599483 C127.571012,26.2446167 127.642575,26.0701981 127.7857,25.9366925 C127.928826,25.8031869 128.101677,25.7364341 128.304255,25.7364341 C128.524448,25.7364341 128.701703,25.8042636 128.836021,25.9399225 C128.970339,26.0755814 129.037498,26.2489233 129.037498,26.4599483 C129.037498,26.5546942 129.022084,26.6451335 128.991257,26.7312661 C128.96043,26.8173988 128.914189,26.8938415 128.852535,26.9605943 C128.790881,27.0273471 128.714915,27.08118 128.624636,27.122093 C128.534357,27.163006 128.427563,27.1834625 128.304255,27.1834625 Z M128.304255,29.4186047 C128.185351,29.4186047 128.071951,29.3992248 127.964057,29.3604651 C127.856162,29.3217054 127.761479,29.2667959 127.680008,29.1957364 C127.598536,29.124677 127.533579,29.036391 127.485137,28.9308786 C127.436695,28.8253661 127.412473,28.705857 127.412473,28.5723514 C127.412473,28.3268734 127.496147,28.1255383 127.663493,27.9683463 C127.83084,27.8111542 128.044427,27.7304048 128.304255,27.7260982 C128.427563,27.7260982 128.543164,27.7444014 128.651059,27.7810078 C128.758953,27.8176141 128.853636,27.871447 128.935108,27.9425065 C129.016579,28.0135659 129.080435,28.1018519 129.126676,28.2073643 C129.172916,28.3128768 129.196037,28.4345392 129.196037,28.5723514 C129.196037,28.8221361 129.113464,29.0256245 128.948319,29.1828165 C128.783175,29.3400086 128.568486,29.4186047 128.304255,29.4186047 Z M134.137167,29.8837209 L136,25.8397933 L136,25.3100775 L133.060424,25.3100775 L133.060424,25.8527132 L135.319604,25.8527132 L133.423742,29.8837209 L134.137167,29.8837209 Z" id="LOSANGELES|EST.1987"></path>
        </g>
    </g>
</svg>