<?xml version="1.0" encoding="UTF-8"?>
<svg width="161px" height="30px" viewBox="0 0 161 30" version="1.1" xmlns="http://www.w3.org/2000/svg" xmlns:xlink="http://www.w3.org/1999/xlink">
    <!-- Generator: Sketch 62 (91390) - https://sketch.com -->
    <title>logo-brentwoodhome-v3-mobile-clean</title>
    <desc>Created with Sketch.</desc>
    <g id="logo-brentwoodhome-v3-mobile-clean" stroke="none" stroke-width="1" fill="none" fill-rule="evenodd">
        <path d="M5.77647799,14.6370968 C6.45789597,14.6370968 7.09344928,14.5497312 7.68313793,14.375 C8.27282657,14.2002688 8.79044215,13.9448925 9.23598468,13.608871 C9.68152721,13.2728495 10.0320643,12.859543 10.2875961,12.3689516 C10.5431278,11.8783602 10.6708937,11.3104839 10.6708937,10.6653226 C10.6708937,10.1814516 10.5922686,9.7311828 10.4350182,9.31451613 C10.2777679,8.89784946 10.0648248,8.53158602 9.79618889,8.21572581 C9.52755295,7.89986559 9.20977629,7.64448925 8.84285892,7.44959677 C8.47594154,7.2547043 8.08281578,7.1438172 7.66348164,7.11693548 L7.66348164,7.11693548 L7.66348164,7.0766129 C8.37110801,6.83467742 8.94769245,6.45497312 9.39323498,5.9375 C9.83877751,5.42002688 10.0615488,4.75134409 10.0615488,3.93145161 C10.0615488,3.3266129 9.95343919,2.79905914 9.73722002,2.34879032 C9.52100085,1.89852151 9.22615653,1.52889785 8.85268706,1.23991935 C8.47921759,0.95094086 8.03367506,0.732526882 7.51605948,0.584677419 C6.99844389,0.436827957 6.43823968,0.362903226 5.83544685,0.362903226 L5.83544685,0.362903226 L1,0.362903226 L1,14.6370968 L5.77647799,14.6370968 Z M5.46197738,6.29032258 L2.88700365,6.29032258 L2.88700365,2.05645161 L5.85510314,2.05645161 C6.61514628,2.05645161 7.17207444,2.26478495 7.52588762,2.68145161 C7.87970081,3.09811828 8.0566074,3.58870968 8.0566074,4.15322581 C8.0566074,4.54301075 7.98781039,4.87231183 7.85021637,5.14112903 C7.71262236,5.40994624 7.52588762,5.63172043 7.29001217,5.80645161 C7.05413671,5.9811828 6.77894868,6.10551075 6.46444807,6.17943548 C6.14994746,6.25336022 5.81579056,6.29032258 5.46197738,6.29032258 L5.46197738,6.29032258 Z M5.65854026,12.9435484 L2.88700365,12.9435484 L2.88700365,7.98387097 L5.67819655,7.98387097 C6.59548999,7.98387097 7.32277265,8.19556452 7.86004452,8.61895161 C8.39731639,9.04233871 8.66595233,9.67741935 8.66595233,10.5241935 C8.66595233,11.0349462 8.56111879,11.4448925 8.35145172,11.7540323 C8.14178465,12.063172 7.8862529,12.3084677 7.58485649,12.4899194 C7.28346007,12.671371 6.95913132,12.7923387 6.61187023,12.8528226 C6.26460914,12.9133065 5.94683248,12.9435484 5.65854026,12.9435484 L5.65854026,12.9435484 Z M19.4201259,14.6370968 L19.4201259,8.34677419 L21.5233487,8.34677419 L25.0614805,14.6370968 L27.4202351,14.6370968 L23.4693212,8.125 C23.9934889,8.07123656 24.4685158,7.92674731 24.8944021,7.69153226 C25.3202883,7.4563172 25.6806536,7.16733871 25.9754979,6.82459677 C26.2703422,6.48185484 26.4963895,6.09879032 26.6536398,5.67540323 C26.8108901,5.25201613 26.8895153,4.81182796 26.8895153,4.35483871 C26.8895153,3.91129032 26.8239943,3.45094086 26.6929524,2.97379032 C26.5619105,2.49663978 26.3293111,2.06653226 25.9951542,1.68346774 C25.6609973,1.30040323 25.2056266,0.984543011 24.6290422,0.735887097 C24.0524577,0.487231183 23.318623,0.362903226 22.4275379,0.362903226 L22.4275379,0.362903226 L17.5331222,0.362903226 L17.5331222,14.6370968 L19.4201259,14.6370968 Z M21.8968181,6.65322581 L19.4201259,6.65322581 L19.4201259,2.05645161 L21.8968181,2.05645161 C22.2637355,2.05645161 22.6273768,2.08669355 22.9877421,2.14717742 C23.3481074,2.20766129 23.6691601,2.31854839 23.9509002,2.47983871 C24.2326404,2.64112903 24.4586877,2.87298387 24.6290422,3.17540323 C24.7993967,3.47782258 24.8845739,3.87096774 24.8845739,4.35483871 C24.8845739,4.83870968 24.7993967,5.23185484 24.6290422,5.53427419 C24.4586877,5.83669355 24.2326404,6.06854839 23.9509002,6.22983871 C23.6691601,6.39112903 23.3481074,6.50201613 22.9877421,6.5625 C22.6273768,6.62298387 22.2637355,6.65322581 21.8968181,6.65322581 L21.8968181,6.65322581 Z M43.0295117,14.6370968 L43.0295117,12.8225806 L35.5797786,12.8225806 L35.5797786,8.24596774 L42.1842914,8.24596774 L42.1842914,6.43145161 L35.5797786,6.43145161 L35.5797786,2.17741935 L42.6756986,2.17741935 L42.6756986,0.362903226 L33.6927749,0.362903226 L33.6927749,14.6370968 L43.0295117,14.6370968 Z M51.7394313,14.6370968 L51.7394313,2.90322581 L51.7787439,2.90322581 L59.5233214,14.6370968 L61.9213885,14.6370968 L61.9213885,0.362903226 L60.0343849,0.362903226 L60.0343849,12.0967742 L59.9950723,12.0967742 L52.3291199,0.362903226 L49.8524277,0.362903226 L49.8524277,14.6370968 L51.7394313,14.6370968 Z M74.4446279,14.6370968 L74.4446279,2.17741935 L78.9262616,2.17741935 L78.9262616,0.362903226 L68.0759906,0.362903226 L68.0759906,2.17741935 L72.5576243,2.17741935 L72.5576243,14.6370968 L74.4446279,14.6370968 Z M89.3659345,14.6370968 L92.7271598,2.98387097 L92.7664724,2.98387097 L96.1473539,14.6370968 L98.132639,14.6370968 L102.181834,0.362903226 L100.216206,0.362903226 L97.1498246,11.7741935 L97.110512,11.7741935 L93.8279119,0.362903226 L91.6657202,0.362903226 L88.3831201,11.7741935 L88.3438076,11.7741935 L85.2774266,0.362903226 L83.3117978,0.362903226 L87.3806494,14.6370968 L89.3659345,14.6370968 Z M114.528167,15 C115.589607,15 116.565869,14.8084677 117.456954,14.4254032 C118.348039,14.0423387 119.111358,13.5147849 119.746912,12.8427419 C120.382465,12.1706989 120.880424,11.3776882 121.24079,10.4637097 C121.601155,9.54973118 121.781337,8.56182796 121.781337,7.5 C121.781337,6.43817204 121.601155,5.45026882 121.24079,4.53629032 C120.880424,3.62231183 120.382465,2.82930108 119.746912,2.15725806 C119.111358,1.48521505 118.348039,0.95766129 117.456954,0.574596774 C116.565869,0.191532258 115.589607,0 114.528167,0 C113.466728,0 112.490465,0.191532258 111.59938,0.574596774 C110.708295,0.95766129 109.944976,1.48521505 109.309423,2.15725806 C108.673869,2.82930108 108.17591,3.62231183 107.815545,4.53629032 C107.45518,5.45026882 107.274997,6.43817204 107.274997,7.5 C107.274997,8.56182796 107.45518,9.54973118 107.815545,10.4637097 C108.17591,11.3776882 108.673869,12.1706989 109.309423,12.8427419 C109.944976,13.5147849 110.708295,14.0423387 111.59938,14.4254032 C112.490465,14.8084677 113.466728,15 114.528167,15 Z M114.528167,13.1854839 C113.728811,13.1854839 113.008081,13.0342742 112.365975,12.7318548 C111.72387,12.4294355 111.173494,12.0228495 110.714847,11.5120968 C110.256201,11.0013441 109.902387,10.3998656 109.653408,9.70766129 C109.404428,9.01545699 109.279938,8.27956989 109.279938,7.5 C109.279938,6.72043011 109.404428,5.98454301 109.653408,5.29233871 C109.902387,4.60013441 110.256201,3.99865591 110.714847,3.48790323 C111.173494,2.97715054 111.72387,2.57056452 112.365975,2.26814516 C113.008081,1.96572581 113.728811,1.81451613 114.528167,1.81451613 C115.327523,1.81451613 116.048253,1.96572581 116.690359,2.26814516 C117.332464,2.57056452 117.88284,2.97715054 118.341487,3.48790323 C118.800134,3.99865591 119.153947,4.60013441 119.402927,5.29233871 C119.651906,5.98454301 119.776396,6.72043011 119.776396,7.5 C119.776396,8.27956989 119.651906,9.01545699 119.402927,9.70766129 C119.153947,10.3998656 118.800134,11.0013441 118.341487,11.5120968 C117.88284,12.0228495 117.332464,12.4294355 116.690359,12.7318548 C116.048253,13.0342742 115.327523,13.1854839 114.528167,13.1854839 Z M135.03186,15 C136.093299,15 137.069561,14.8084677 137.960646,14.4254032 C138.851732,14.0423387 139.615051,13.5147849 140.250604,12.8427419 C140.886157,12.1706989 141.384117,11.3776882 141.744482,10.4637097 C142.104847,9.54973118 142.28503,8.56182796 142.28503,7.5 C142.28503,6.43817204 142.104847,5.45026882 141.744482,4.53629032 C141.384117,3.62231183 140.886157,2.82930108 140.250604,2.15725806 C139.615051,1.48521505 138.851732,0.95766129 137.960646,0.574596774 C137.069561,0.191532258 136.093299,0 135.03186,0 C133.97042,0 132.994158,0.191532258 132.103073,0.574596774 C131.211988,0.95766129 130.448668,1.48521505 129.813115,2.15725806 C129.177562,2.82930108 128.679602,3.62231183 128.319237,4.53629032 C127.958872,5.45026882 127.778689,6.43817204 127.778689,7.5 C127.778689,8.56182796 127.958872,9.54973118 128.319237,10.4637097 C128.679602,11.3776882 129.177562,12.1706989 129.813115,12.8427419 C130.448668,13.5147849 131.211988,14.0423387 132.103073,14.4254032 C132.994158,14.8084677 133.97042,15 135.03186,15 Z M135.03186,13.1854839 C134.232504,13.1854839 133.511773,13.0342742 132.869668,12.7318548 C132.227562,12.4294355 131.677186,12.0228495 131.21854,11.5120968 C130.759893,11.0013441 130.40608,10.3998656 130.1571,9.70766129 C129.90812,9.01545699 129.783631,8.27956989 129.783631,7.5 C129.783631,6.72043011 129.90812,5.98454301 130.1571,5.29233871 C130.40608,4.60013441 130.759893,3.99865591 131.21854,3.48790323 C131.677186,2.97715054 132.227562,2.57056452 132.869668,2.26814516 C133.511773,1.96572581 134.232504,1.81451613 135.03186,1.81451613 C135.831215,1.81451613 136.551946,1.96572581 137.194051,2.26814516 C137.836157,2.57056452 138.386533,2.97715054 138.845179,3.48790323 C139.303826,3.99865591 139.657639,4.60013441 139.906619,5.29233871 C140.155599,5.98454301 140.280088,6.72043011 140.280088,7.5 C140.280088,8.27956989 140.155599,9.01545699 139.906619,9.70766129 C139.657639,10.3998656 139.303826,11.0013441 138.845179,11.5120968 C138.386533,12.0228495 137.836157,12.4294355 137.194051,12.7318548 C136.551946,13.0342742 135.831215,13.1854839 135.03186,13.1854839 Z M153.37336,14.6370968 C154.618258,14.6370968 155.715735,14.4354839 156.665788,14.0322581 C157.615842,13.6290323 158.411922,13.0947581 159.054027,12.4294355 C159.696133,11.7641129 160.180988,11.0047043 160.508593,10.1512097 C160.836198,9.29771505 161,8.41397849 161,7.5 C161,7.05645161 160.954135,6.57258065 160.862406,6.0483871 C160.770677,5.52419355 160.619978,5 160.410311,4.47580645 C160.200644,3.9516129 159.915628,3.44086022 159.555263,2.94354839 C159.194898,2.44623656 158.742803,2.00604839 158.198979,1.62298387 C157.655155,1.23991935 157.01305,0.934139785 156.272663,0.705645161 C155.532276,0.477150538 154.670675,0.362903226 153.687861,0.362903226 L153.687861,0.362903226 L148.832758,0.362903226 L148.832758,14.6370968 L153.37336,14.6370968 Z M153.098172,12.8225806 L150.719761,12.8225806 L150.719761,2.17741935 L153.550267,2.17741935 C154.677227,2.17741935 155.594521,2.36895161 156.302147,2.75201613 C157.009774,3.13508065 157.563426,3.60215054 157.963104,4.15322581 C158.362781,4.70430108 158.634693,5.28561828 158.778839,5.89717742 C158.922986,6.50873656 158.995059,7.04301075 158.995059,7.5 C158.995059,8.38709677 158.837808,9.16330645 158.523308,9.82862903 C158.208807,10.4939516 157.782921,11.0483871 157.245649,11.4919355 C156.708377,11.9354839 156.082652,12.2681452 155.368473,12.4899194 C154.654295,12.7116935 153.897528,12.8225806 153.098172,12.8225806 L153.098172,12.8225806 Z" id="BRENTWOOD" fill="#454D5C" fill-rule="nonzero"></path>
        <path d="M1.032,28 L1.032,24.436 L1.044,24.436 L2.568,28 L2.874,28 L4.398,24.436 L4.41,24.436 L4.41,28 L4.914,28 L4.914,23.752 L4.182,23.752 L2.73,27.082 L2.718,27.082 L1.278,23.752 L0.528,23.752 L0.528,28 L1.032,28 Z M7.598,28 L8.036,26.956 L10.16,26.956 L10.592,28 L11.18,28 L9.374,23.752 L8.9,23.752 L7.028,28 L7.598,28 Z M9.968,26.488 L8.234,26.488 L9.116,24.4 L9.128,24.4 L9.968,26.488 Z M14.188,28 L14.188,24.22 L15.592,24.22 L15.592,23.752 L12.28,23.752 L12.28,24.22 L13.684,24.22 L13.684,28 L14.188,28 Z M19.182,28 L19.182,24.22 L20.586,24.22 L20.586,23.752 L17.274,23.752 L17.274,24.22 L18.678,24.22 L18.678,28 L19.182,28 Z M23.234,28 L23.234,26.092 L23.882,26.092 L25.034,28 L25.652,28 L24.446,26.044 C24.778,25.992 25.038,25.87 25.226,25.678 C25.414,25.486 25.508,25.234 25.508,24.922 C25.508,24.658 25.458,24.449 25.358,24.295 C25.258,24.141 25.128,24.024 24.968,23.944 C24.808,23.864 24.627,23.812 24.425,23.788 C24.223,23.764 24.02,23.752 23.816,23.752 L23.816,23.752 L22.73,23.752 L22.73,28 L23.234,28 Z M23.684,25.624 L23.234,25.624 L23.234,24.22 L23.942,24.22 C24.066,24.22 24.189,24.228 24.311,24.244 C24.433,24.26 24.543,24.293 24.641,24.343 C24.739,24.393 24.818,24.464 24.878,24.556 C24.938,24.648 24.968,24.77 24.968,24.922 C24.968,25.098 24.927,25.233 24.845,25.327 C24.763,25.421 24.659,25.49 24.533,25.534 C24.407,25.578 24.269,25.604 24.119,25.612 C23.969,25.62 23.824,25.624 23.684,25.624 L23.684,25.624 Z M30.724,28 L30.724,27.532 L28.45,27.532 L28.45,26.02 L30.472,26.02 L30.472,25.552 L28.45,25.552 L28.45,24.22 L30.616,24.22 L30.616,23.752 L27.946,23.752 L27.946,28 L30.724,28 Z M34.062,28.108 C34.254,28.108 34.44,28.083 34.62,28.033 C34.8,27.983 34.959,27.907 35.097,27.805 C35.235,27.703 35.346,27.574 35.43,27.418 C35.514,27.262 35.556,27.078 35.556,26.866 C35.556,26.658 35.521,26.485 35.451,26.347 C35.381,26.209 35.287,26.094 35.169,26.002 C35.051,25.91 34.915,25.834 34.761,25.774 C34.607,25.714 34.448,25.658 34.284,25.606 C34.116,25.554 33.974,25.502 33.858,25.45 C33.742,25.398 33.65,25.342 33.582,25.282 C33.514,25.222 33.465,25.155 33.435,25.081 C33.405,25.007 33.39,24.922 33.39,24.826 C33.39,24.702 33.416,24.594 33.468,24.502 C33.52,24.41 33.589,24.336 33.675,24.28 C33.761,24.224 33.858,24.182 33.966,24.154 C34.074,24.126 34.184,24.112 34.296,24.112 C34.448,24.112 34.594,24.143 34.734,24.205 C34.874,24.267 34.986,24.366 35.07,24.502 L35.07,24.502 L35.484,24.142 C35.328,23.958 35.151,23.829 34.953,23.755 C34.755,23.681 34.536,23.644 34.296,23.644 C34.108,23.644 33.928,23.67 33.756,23.722 C33.584,23.774 33.43,23.851 33.294,23.953 C33.158,24.055 33.05,24.182 32.97,24.334 C32.89,24.486 32.85,24.664 32.85,24.868 C32.85,25.044 32.877,25.195 32.931,25.321 C32.985,25.447 33.059,25.555 33.153,25.645 C33.247,25.735 33.358,25.811 33.486,25.873 C33.614,25.935 33.754,25.99 33.906,26.038 C34.094,26.102 34.258,26.158 34.398,26.206 C34.538,26.254 34.654,26.308 34.746,26.368 C34.838,26.428 34.906,26.499 34.95,26.581 C34.994,26.663 35.016,26.77 35.016,26.902 C35.016,27.022 34.988,27.128 34.932,27.22 C34.876,27.312 34.804,27.389 34.716,27.451 C34.628,27.513 34.529,27.56 34.419,27.592 C34.309,27.624 34.2,27.64 34.092,27.64 C33.908,27.64 33.734,27.6 33.57,27.52 C33.406,27.44 33.278,27.322 33.186,27.166 L33.186,27.166 L32.754,27.52 C32.826,27.628 32.912,27.719 33.012,27.793 C33.112,27.867 33.219,27.927 33.333,27.973 C33.447,28.019 33.566,28.053 33.69,28.075 C33.814,28.097 33.938,28.108 34.062,28.108 Z M38.948,28.108 C39.14,28.108 39.326,28.083 39.506,28.033 C39.686,27.983 39.845,27.907 39.983,27.805 C40.121,27.703 40.232,27.574 40.316,27.418 C40.4,27.262 40.442,27.078 40.442,26.866 C40.442,26.658 40.407,26.485 40.337,26.347 C40.267,26.209 40.173,26.094 40.055,26.002 C39.937,25.91 39.801,25.834 39.647,25.774 C39.493,25.714 39.334,25.658 39.17,25.606 C39.002,25.554 38.86,25.502 38.744,25.45 C38.628,25.398 38.536,25.342 38.468,25.282 C38.4,25.222 38.351,25.155 38.321,25.081 C38.291,25.007 38.276,24.922 38.276,24.826 C38.276,24.702 38.302,24.594 38.354,24.502 C38.406,24.41 38.475,24.336 38.561,24.28 C38.647,24.224 38.744,24.182 38.852,24.154 C38.96,24.126 39.07,24.112 39.182,24.112 C39.334,24.112 39.48,24.143 39.62,24.205 C39.76,24.267 39.872,24.366 39.956,24.502 L39.956,24.502 L40.37,24.142 C40.214,23.958 40.037,23.829 39.839,23.755 C39.641,23.681 39.422,23.644 39.182,23.644 C38.994,23.644 38.814,23.67 38.642,23.722 C38.47,23.774 38.316,23.851 38.18,23.953 C38.044,24.055 37.936,24.182 37.856,24.334 C37.776,24.486 37.736,24.664 37.736,24.868 C37.736,25.044 37.763,25.195 37.817,25.321 C37.871,25.447 37.945,25.555 38.039,25.645 C38.133,25.735 38.244,25.811 38.372,25.873 C38.5,25.935 38.64,25.99 38.792,26.038 C38.98,26.102 39.144,26.158 39.284,26.206 C39.424,26.254 39.54,26.308 39.632,26.368 C39.724,26.428 39.792,26.499 39.836,26.581 C39.88,26.663 39.902,26.77 39.902,26.902 C39.902,27.022 39.874,27.128 39.818,27.22 C39.762,27.312 39.69,27.389 39.602,27.451 C39.514,27.513 39.415,27.56 39.305,27.592 C39.195,27.624 39.086,27.64 38.978,27.64 C38.794,27.64 38.62,27.6 38.456,27.52 C38.292,27.44 38.164,27.322 38.072,27.166 L38.072,27.166 L37.64,27.52 C37.712,27.628 37.798,27.719 37.898,27.793 C37.998,27.867 38.105,27.927 38.219,27.973 C38.333,28.019 38.452,28.053 38.576,28.075 C38.7,28.097 38.824,28.108 38.948,28.108 Z M45.604,28 L45.604,27.532 L43.33,27.532 L43.33,26.02 L45.352,26.02 L45.352,25.552 L43.33,25.552 L43.33,24.22 L45.496,24.22 L45.496,23.752 L42.826,23.752 L42.826,28 L45.604,28 Z M48.942,28.108 C49.134,28.108 49.32,28.083 49.5,28.033 C49.68,27.983 49.839,27.907 49.977,27.805 C50.115,27.703 50.226,27.574 50.31,27.418 C50.394,27.262 50.436,27.078 50.436,26.866 C50.436,26.658 50.401,26.485 50.331,26.347 C50.261,26.209 50.167,26.094 50.049,26.002 C49.931,25.91 49.795,25.834 49.641,25.774 C49.487,25.714 49.328,25.658 49.164,25.606 C48.996,25.554 48.854,25.502 48.738,25.45 C48.622,25.398 48.53,25.342 48.462,25.282 C48.394,25.222 48.345,25.155 48.315,25.081 C48.285,25.007 48.27,24.922 48.27,24.826 C48.27,24.702 48.296,24.594 48.348,24.502 C48.4,24.41 48.469,24.336 48.555,24.28 C48.641,24.224 48.738,24.182 48.846,24.154 C48.954,24.126 49.064,24.112 49.176,24.112 C49.328,24.112 49.474,24.143 49.614,24.205 C49.754,24.267 49.866,24.366 49.95,24.502 L49.95,24.502 L50.364,24.142 C50.208,23.958 50.031,23.829 49.833,23.755 C49.635,23.681 49.416,23.644 49.176,23.644 C48.988,23.644 48.808,23.67 48.636,23.722 C48.464,23.774 48.31,23.851 48.174,23.953 C48.038,24.055 47.93,24.182 47.85,24.334 C47.77,24.486 47.73,24.664 47.73,24.868 C47.73,25.044 47.757,25.195 47.811,25.321 C47.865,25.447 47.939,25.555 48.033,25.645 C48.127,25.735 48.238,25.811 48.366,25.873 C48.494,25.935 48.634,25.99 48.786,26.038 C48.974,26.102 49.138,26.158 49.278,26.206 C49.418,26.254 49.534,26.308 49.626,26.368 C49.718,26.428 49.786,26.499 49.83,26.581 C49.874,26.663 49.896,26.77 49.896,26.902 C49.896,27.022 49.868,27.128 49.812,27.22 C49.756,27.312 49.684,27.389 49.596,27.451 C49.508,27.513 49.409,27.56 49.299,27.592 C49.189,27.624 49.08,27.64 48.972,27.64 C48.788,27.64 48.614,27.6 48.45,27.52 C48.286,27.44 48.158,27.322 48.066,27.166 L48.066,27.166 L47.634,27.52 C47.706,27.628 47.792,27.719 47.892,27.793 C47.992,27.867 48.099,27.927 48.213,27.973 C48.327,28.019 48.446,28.053 48.57,28.075 C48.694,28.097 48.818,28.108 48.942,28.108 Z M57.22,28.072 C57.504,28.072 57.744,28.012 57.94,27.892 C58.136,27.772 58.32,27.604 58.492,27.388 L58.492,27.388 L59.068,28 L59.758,28 L58.786,27.004 L59.602,25.696 L59.032,25.696 L58.462,26.65 L57.562,25.696 C57.67,25.64 57.777,25.577 57.883,25.507 C57.989,25.437 58.085,25.359 58.171,25.273 C58.257,25.187 58.327,25.089 58.381,24.979 C58.435,24.869 58.462,24.748 58.462,24.616 C58.462,24.46 58.434,24.323 58.378,24.205 C58.322,24.087 58.245,23.989 58.147,23.911 C58.049,23.833 57.936,23.774 57.808,23.734 C57.68,23.694 57.544,23.674 57.4,23.674 C57.252,23.674 57.112,23.695 56.98,23.737 C56.848,23.779 56.732,23.841 56.632,23.923 C56.532,24.005 56.452,24.107 56.392,24.229 C56.332,24.351 56.302,24.49 56.302,24.646 C56.302,24.85 56.352,25.03 56.452,25.186 C56.552,25.342 56.672,25.49 56.812,25.63 C56.684,25.69 56.563,25.759 56.449,25.837 C56.335,25.915 56.235,26.005 56.149,26.107 C56.063,26.209 55.995,26.323 55.945,26.449 C55.895,26.575 55.87,26.712 55.87,26.86 C55.87,27.052 55.907,27.223 55.981,27.373 C56.055,27.523 56.153,27.65 56.275,27.754 C56.397,27.858 56.54,27.937 56.704,27.991 C56.868,28.045 57.04,28.072 57.22,28.072 Z M57.25,25.39 L57.1,25.234 C57.028,25.158 56.961,25.075 56.899,24.985 C56.837,24.895 56.806,24.792 56.806,24.676 C56.806,24.5 56.866,24.361 56.986,24.259 C57.106,24.157 57.25,24.106 57.418,24.106 C57.566,24.106 57.693,24.15 57.799,24.238 C57.905,24.326 57.958,24.448 57.958,24.604 C57.958,24.708 57.936,24.8 57.892,24.88 C57.848,24.96 57.792,25.03 57.724,25.09 C57.656,25.15 57.58,25.204 57.496,25.252 C57.412,25.3 57.33,25.346 57.25,25.39 L57.25,25.39 Z M57.202,27.64 C57.09,27.64 56.984,27.62 56.884,27.58 C56.784,27.54 56.696,27.484 56.62,27.412 C56.544,27.34 56.484,27.256 56.44,27.16 C56.396,27.064 56.374,26.958 56.374,26.842 C56.374,26.73 56.396,26.628 56.44,26.536 C56.484,26.444 56.542,26.362 56.614,26.29 C56.686,26.218 56.766,26.153 56.854,26.095 C56.942,26.037 57.032,25.984 57.124,25.936 L57.124,25.936 L58.186,27.052 C58.118,27.132 58.049,27.207 57.979,27.277 C57.909,27.347 57.835,27.409 57.757,27.463 C57.679,27.517 57.594,27.56 57.502,27.592 C57.41,27.624 57.31,27.64 57.202,27.64 Z M66.404,28 C66.6,28 66.797,27.982 66.995,27.946 C67.193,27.91 67.371,27.847 67.529,27.757 C67.687,27.667 67.815,27.546 67.913,27.394 C68.011,27.242 68.06,27.048 68.06,26.812 C68.06,26.672 68.036,26.541 67.988,26.419 C67.94,26.297 67.873,26.19 67.787,26.098 C67.701,26.006 67.599,25.931 67.481,25.873 C67.363,25.815 67.236,25.78 67.1,25.768 L67.1,25.768 L67.1,25.756 C67.328,25.688 67.509,25.573 67.643,25.411 C67.777,25.249 67.844,25.044 67.844,24.796 C67.844,24.6 67.803,24.436 67.721,24.304 C67.639,24.172 67.532,24.065 67.4,23.983 C67.268,23.901 67.118,23.842 66.95,23.806 C66.782,23.77 66.61,23.752 66.434,23.752 L66.434,23.752 L65.138,23.752 L65.138,28 L66.404,28 Z M66.338,25.552 L65.642,25.552 L65.642,24.22 L66.392,24.22 C66.504,24.22 66.615,24.229 66.725,24.247 C66.835,24.265 66.933,24.298 67.019,24.346 C67.105,24.394 67.174,24.459 67.226,24.541 C67.278,24.623 67.304,24.73 67.304,24.862 C67.304,25.01 67.276,25.129 67.22,25.219 C67.164,25.309 67.09,25.379 66.998,25.429 C66.906,25.479 66.803,25.512 66.689,25.528 C66.575,25.544 66.458,25.552 66.338,25.552 L66.338,25.552 Z M66.494,27.532 L65.642,27.532 L65.642,26.02 L66.506,26.02 C66.634,26.02 66.759,26.032 66.881,26.056 C67.003,26.08 67.111,26.122 67.205,26.182 C67.299,26.242 67.375,26.322 67.433,26.422 C67.491,26.522 67.52,26.646 67.52,26.794 C67.52,26.93 67.49,27.045 67.43,27.139 C67.37,27.233 67.291,27.309 67.193,27.367 C67.095,27.425 66.985,27.467 66.863,27.493 C66.741,27.519 66.618,27.532 66.494,27.532 L66.494,27.532 Z M73.246,28 L73.246,27.532 L70.972,27.532 L70.972,26.02 L72.994,26.02 L72.994,25.552 L70.972,25.552 L70.972,24.22 L73.138,24.22 L73.138,23.752 L70.468,23.752 L70.468,28 L73.246,28 Z M77.13,28 C77.27,28 77.418,27.984 77.574,27.952 C77.73,27.92 77.885,27.869 78.039,27.799 C78.193,27.729 78.341,27.638 78.483,27.526 C78.625,27.414 78.75,27.279 78.858,27.121 C78.966,26.963 79.052,26.781 79.116,26.575 C79.18,26.369 79.212,26.136 79.212,25.876 C79.212,25.616 79.18,25.383 79.116,25.177 C79.052,24.971 78.966,24.789 78.858,24.631 C78.75,24.473 78.625,24.338 78.483,24.226 C78.341,24.114 78.193,24.023 78.039,23.953 C77.885,23.883 77.73,23.832 77.574,23.8 C77.418,23.768 77.27,23.752 77.13,23.752 L77.13,23.752 L75.498,23.752 L75.498,28 L77.13,28 Z M76.962,27.532 L76.002,27.532 L76.002,24.22 L76.962,24.22 C77.206,24.22 77.432,24.252 77.64,24.316 C77.848,24.38 78.028,24.479 78.18,24.613 C78.332,24.747 78.452,24.918 78.54,25.126 C78.628,25.334 78.672,25.584 78.672,25.876 C78.672,26.168 78.628,26.418 78.54,26.626 C78.452,26.834 78.332,27.005 78.18,27.139 C78.028,27.273 77.848,27.372 77.64,27.436 C77.432,27.5 77.206,27.532 76.962,27.532 L76.962,27.532 Z M83.126,28 C83.266,28 83.414,27.984 83.57,27.952 C83.726,27.92 83.881,27.869 84.035,27.799 C84.189,27.729 84.337,27.638 84.479,27.526 C84.621,27.414 84.746,27.279 84.854,27.121 C84.962,26.963 85.048,26.781 85.112,26.575 C85.176,26.369 85.208,26.136 85.208,25.876 C85.208,25.616 85.176,25.383 85.112,25.177 C85.048,24.971 84.962,24.789 84.854,24.631 C84.746,24.473 84.621,24.338 84.479,24.226 C84.337,24.114 84.189,24.023 84.035,23.953 C83.881,23.883 83.726,23.832 83.57,23.8 C83.414,23.768 83.266,23.752 83.126,23.752 L83.126,23.752 L81.494,23.752 L81.494,28 L83.126,28 Z M82.958,27.532 L81.998,27.532 L81.998,24.22 L82.958,24.22 C83.202,24.22 83.428,24.252 83.636,24.316 C83.844,24.38 84.024,24.479 84.176,24.613 C84.328,24.747 84.448,24.918 84.536,25.126 C84.624,25.334 84.668,25.584 84.668,25.876 C84.668,26.168 84.624,26.418 84.536,26.626 C84.448,26.834 84.328,27.005 84.176,27.139 C84.024,27.273 83.844,27.372 83.636,27.436 C83.428,27.5 83.202,27.532 82.958,27.532 L82.958,27.532 Z M88.072,28 L88.072,23.752 L87.568,23.752 L87.568,28 L88.072,28 Z M91.182,28 L91.182,24.472 L91.194,24.472 L93.654,28 L94.29,28 L94.29,23.752 L93.786,23.752 L93.786,27.28 L93.774,27.28 L91.314,23.752 L90.678,23.752 L90.678,28 L91.182,28 Z M98.918,28.108 C99.194,28.108 99.467,28.076 99.737,28.012 C100.007,27.948 100.264,27.848 100.508,27.712 L100.508,27.712 L100.508,25.624 L99.026,25.624 L99.026,26.092 L100.004,26.092 L100.004,27.394 C99.848,27.474 99.676,27.535 99.488,27.577 C99.3,27.619 99.12,27.64 98.948,27.64 C98.688,27.64 98.45,27.596 98.234,27.508 C98.018,27.42 97.833,27.297 97.679,27.139 C97.525,26.981 97.405,26.794 97.319,26.578 C97.233,26.362 97.19,26.128 97.19,25.876 C97.19,25.62 97.233,25.384 97.319,25.168 C97.405,24.952 97.525,24.766 97.679,24.61 C97.833,24.454 98.014,24.332 98.222,24.244 C98.43,24.156 98.656,24.112 98.9,24.112 C99.116,24.112 99.327,24.154 99.533,24.238 C99.739,24.322 99.914,24.442 100.058,24.598 L100.058,24.598 L100.436,24.202 C100.232,23.998 100.001,23.854 99.743,23.77 C99.485,23.686 99.216,23.644 98.936,23.644 C98.616,23.644 98.318,23.698 98.042,23.806 C97.766,23.914 97.524,24.065 97.316,24.259 C97.108,24.453 96.945,24.687 96.827,24.961 C96.709,25.235 96.65,25.54 96.65,25.876 C96.65,26.208 96.706,26.511 96.818,26.785 C96.93,27.059 97.087,27.294 97.289,27.49 C97.491,27.686 97.73,27.838 98.006,27.946 C98.282,28.054 98.586,28.108 98.918,28.108 Z M106.668,29.5 L106.668,23.5 L106.272,23.5 L106.272,29.5 L106.668,29.5 Z M114.346,28.108 C114.686,28.108 114.991,28.048 115.261,27.928 C115.531,27.808 115.762,27.62 115.954,27.364 L115.954,27.364 L115.576,27.046 C115.424,27.238 115.246,27.385 115.042,27.487 C114.838,27.589 114.606,27.64 114.346,27.64 C114.106,27.64 113.887,27.594 113.689,27.502 C113.491,27.41 113.321,27.285 113.179,27.127 C113.037,26.969 112.926,26.783 112.846,26.569 C112.766,26.355 112.726,26.124 112.726,25.876 C112.726,25.644 112.766,25.421 112.846,25.207 C112.926,24.993 113.038,24.805 113.182,24.643 C113.326,24.481 113.497,24.352 113.695,24.256 C113.893,24.16 114.11,24.112 114.346,24.112 C114.55,24.112 114.746,24.155 114.934,24.241 C115.122,24.327 115.28,24.456 115.408,24.628 L115.408,24.628 L115.846,24.31 C115.666,24.074 115.443,23.904 115.177,23.8 C114.911,23.696 114.634,23.644 114.346,23.644 C114.03,23.644 113.74,23.702 113.476,23.818 C113.212,23.934 112.984,24.092 112.792,24.292 C112.6,24.492 112.451,24.728 112.345,25 C112.239,25.272 112.186,25.564 112.186,25.876 C112.186,26.2 112.241,26.498 112.351,26.77 C112.461,27.042 112.613,27.277 112.807,27.475 C113.001,27.673 113.23,27.828 113.494,27.94 C113.758,28.052 114.042,28.108 114.346,28.108 Z M118.284,28 L118.722,26.956 L120.846,26.956 L121.278,28 L121.866,28 L120.06,23.752 L119.586,23.752 L117.714,28 L118.284,28 Z M120.654,26.488 L118.92,26.488 L119.802,24.4 L119.814,24.4 L120.654,26.488 Z M126.428,28 L126.428,27.532 L124.484,27.532 L124.484,23.752 L123.98,23.752 L123.98,28 L126.428,28 Z M129.034,28 L129.034,23.752 L128.53,23.752 L128.53,28 L129.034,28 Z M132.144,28 L132.144,26.092 L134.124,26.092 L134.124,25.624 L132.144,25.624 L132.144,24.22 L134.274,24.22 L134.274,23.752 L131.64,23.752 L131.64,28 L132.144,28 Z M138.5,28.108 C138.824,28.108 139.121,28.052 139.391,27.94 C139.661,27.828 139.895,27.673 140.093,27.475 C140.291,27.277 140.445,27.041 140.555,26.767 C140.665,26.493 140.72,26.196 140.72,25.876 C140.72,25.556 140.665,25.259 140.555,24.985 C140.445,24.711 140.291,24.475 140.093,24.277 C139.895,24.079 139.661,23.924 139.391,23.812 C139.121,23.7 138.824,23.644 138.5,23.644 C138.176,23.644 137.879,23.7 137.609,23.812 C137.339,23.924 137.105,24.079 136.907,24.277 C136.709,24.475 136.555,24.711 136.445,24.985 C136.335,25.259 136.28,25.556 136.28,25.876 C136.28,26.196 136.335,26.493 136.445,26.767 C136.555,27.041 136.709,27.277 136.907,27.475 C137.105,27.673 137.339,27.828 137.609,27.94 C137.879,28.052 138.176,28.108 138.5,28.108 Z M138.5,27.64 C138.252,27.64 138.025,27.594 137.819,27.502 C137.613,27.41 137.436,27.284 137.288,27.124 C137.14,26.964 137.025,26.777 136.943,26.563 C136.861,26.349 136.82,26.12 136.82,25.876 C136.82,25.632 136.861,25.403 136.943,25.189 C137.025,24.975 137.14,24.788 137.288,24.628 C137.436,24.468 137.613,24.342 137.819,24.25 C138.025,24.158 138.252,24.112 138.5,24.112 C138.748,24.112 138.975,24.158 139.181,24.25 C139.387,24.342 139.564,24.468 139.712,24.628 C139.86,24.788 139.975,24.975 140.057,25.189 C140.139,25.403 140.18,25.632 140.18,25.876 C140.18,26.12 140.139,26.349 140.057,26.563 C139.975,26.777 139.86,26.964 139.712,27.124 C139.564,27.284 139.387,27.41 139.181,27.502 C138.975,27.594 138.748,27.64 138.5,27.64 Z M143.584,28 L143.584,26.092 L144.232,26.092 L145.384,28 L146.002,28 L144.796,26.044 C145.128,25.992 145.388,25.87 145.576,25.678 C145.764,25.486 145.858,25.234 145.858,24.922 C145.858,24.658 145.808,24.449 145.708,24.295 C145.608,24.141 145.478,24.024 145.318,23.944 C145.158,23.864 144.977,23.812 144.775,23.788 C144.573,23.764 144.37,23.752 144.166,23.752 L144.166,23.752 L143.08,23.752 L143.08,28 L143.584,28 Z M144.034,25.624 L143.584,25.624 L143.584,24.22 L144.292,24.22 C144.416,24.22 144.539,24.228 144.661,24.244 C144.783,24.26 144.893,24.293 144.991,24.343 C145.089,24.393 145.168,24.464 145.228,24.556 C145.288,24.648 145.318,24.77 145.318,24.922 C145.318,25.098 145.277,25.233 145.195,25.327 C145.113,25.421 145.009,25.49 144.883,25.534 C144.757,25.578 144.619,25.604 144.469,25.612 C144.319,25.62 144.174,25.624 144.034,25.624 L144.034,25.624 Z M148.8,28 L148.8,24.472 L148.812,24.472 L151.272,28 L151.908,28 L151.908,23.752 L151.404,23.752 L151.404,27.28 L151.392,27.28 L148.932,23.752 L148.296,23.752 L148.296,28 L148.8,28 Z M155.018,28 L155.018,23.752 L154.514,23.752 L154.514,28 L155.018,28 Z M157.702,28 L158.14,26.956 L160.264,26.956 L160.696,28 L161.284,28 L159.478,23.752 L159.004,23.752 L157.132,28 L157.702,28 Z M160.072,26.488 L158.338,26.488 L159.22,24.4 L159.232,24.4 L160.072,26.488 Z" id="MATTRESSES&amp;BEDDING|CALIFORNIA" fill="#38414F" fill-rule="nonzero"></path>
    </g>
</svg>