<?xml version="1.0" encoding="UTF-8"?>
<svg width="52px" height="35px" viewBox="0 0 52 35" version="1.1" xmlns="http://www.w3.org/2000/svg" xmlns:xlink="http://www.w3.org/1999/xlink">
    <!-- Generator: Sketch 49 (51002) - http://www.bohemiancoding.com/sketch -->
    <title>logo-bh-new-tiny</title>
    <desc>Created with Sketch.</desc>
    <defs></defs>
    <g id="logo-bh-new-tiny" stroke="none" stroke-width="1" fill="none" fill-rule="evenodd">
        <g id="trees">
            <polygon id="Fill-1" fill="#53585A" points="29.5235955 8.63947753 33.1025266 7.11716191 33.2048193 6.89361114 30.3616083 7.58336293 32.917613 4.35555029 32.6937932 4.01002328 27.4558852 8.58304724 27.0318516 1.79665364 26.2323078 0 25.5704656 14.2343238 19.3140026 7.12410718 18.8641773 7.2256817 21.0110114 10.4947319 18.1686747 9.80454599 18.2709673 10.0276627 21.6448761 11.4696737 25.4345126 17.2411902 24.6301601 33 28.8176014 33 28.1942282 22.9402155 29.8754997 20.6322166 32.9031871 19.3325836 33.0046055 19.1290004 30.5299103 19.7384476 32.8620952 16.5310367 32.6981647 15.9011878 28.0744497 20.6113808 27.5844067 11.0946293"></polygon>
            <polygon id="Fill-2" fill="#888C8D" points="11.3552509 8.63947753 14.933849 7.11716191 15.0361446 6.89361114 12.1937253 7.58336293 14.7493671 4.35555029 14.5242293 4.01002328 9.28748049 8.58304724 8.86343455 1.79665364 8.06430467 0 7.40200611 14.2343238 1.14492405 7.12410718 0.69552278 7.2256817 2.84285647 10.4947319 0 9.80454599 0.102295619 10.0276627 3.47630242 11.4696737 7.26604911 17.2411902 6.46211046 33 10.6492363 33 10.0262822 22.9402155 11.7071653 20.6322166 14.7340665 19.3325836 14.8359249 19.1290004 12.361595 19.7384476 14.6934105 16.5310367 14.5294752 15.9011878 9.90650014 20.6113808 9.41688008 11.0946293"></polygon>
            <polygon id="Fill-3" fill="#888C8D" points="48.318232 8.63947753 51.8968301 7.11716191 52 6.89361114 49.1571435 7.58336293 51.7132225 4.35555029 51.4876476 4.01002328 46.2508988 8.58304724 45.82729 1.79665364 45.0272858 0 44.3654244 14.2343238 38.1079051 7.12410718 37.658941 7.2256817 39.8062747 10.4947319 36.9638554 9.80454599 37.066151 10.0276627 40.4392835 11.4696737 44.2290302 17.2411902 43.4255287 33 47.6113431 33 46.9888261 22.9402155 48.6697093 20.6322166 51.6970476 19.3325836 51.7984689 19.1290004 49.3250133 19.7384476 51.6559545 16.5310367 51.4924563 15.9011878 46.8703556 20.6113808 46.379424 11.0946293"></polygon>
        </g>
    </g>
</svg>