<?xml version="1.0" encoding="UTF-8"?>
<svg width="169px" height="35px" viewBox="0 0 169 35" version="1.1" xmlns="http://www.w3.org/2000/svg" xmlns:xlink="http://www.w3.org/1999/xlink">
    <!-- Generator: Sketch 49 (51002) - http://www.bohemiancoding.com/sketch -->
    <title>logo-bh-new-mobile</title>
    <desc>Created with Sketch.</desc>
    <defs></defs>
    <g id="logo-bh-new-mobile" stroke="none" stroke-width="1" fill="none" fill-rule="evenodd">
        <g id="name" transform="translate(0.000000, 7.000000)" fill="#53585A">
            <path d="M5.3638263,7.35971017 C5.3638263,6.37615106 4.86990029,5.45397083 3.22470631,5.45397083 L0.904304963,5.45397083 L0.904304963,9.2355086 L3.22470631,9.2355086 C4.85256033,9.2355086 5.3638263,8.34426731 5.3638263,7.35971017 Z M4.86990029,3.01777825 C4.86990029,2.17194736 4.44165593,1.39098845 3.06023946,1.39098845 L0.904304963,1.39098845 L0.904304963,4.68798238 L3.06023946,4.68798238 C4.44165593,4.68798238 4.86990029,3.85961702 4.86990029,3.01777825 Z M3.06023946,0.625 C4.93558194,0.625 5.74162715,1.71884149 5.74162715,3.01777825 C5.74162715,3.70392426 5.47890055,4.65654442 4.57354468,5.01733246 C5.84041236,5.35965694 6.26865672,6.4230585 6.26865672,7.35971017 C6.26865672,8.84477963 5.3470118,10 3.22470631,10 L0,10 L0,0.625 L3.06023946,0.625 Z" id="Fill-1"></path>
            <path d="M16.1803234,3.34437151 C16.1803234,2.38645033 15.6998044,1.38216221 14.1657066,1.38216221 L12.1357487,1.38216221 L12.1357487,5.30559429 L14.1657066,5.30559429 C15.6998044,5.30559429 16.1803234,4.31709066 16.1803234,3.34437151 Z M15.9017115,8.07034621 C16.4906071,9.13629249 17.0636669,9.29117779 17.8218081,9.29117779 C17.9475052,9.29117779 18.0553869,9.29117779 18.1791045,9.27490003 L18.1791045,9.9388351 C17.9475052,9.98569531 17.7144213,10 17.4971732,10 C16.5049583,10 15.6998044,9.49144349 15.0648858,8.30218089 L13.8712587,6.06176997 L12.1357487,6.06176997 L12.1357487,9.8919749 L11.2835821,9.8919749 L11.2835821,0.625 L14.1657066,0.625 C16.1649825,0.625 17.0324901,1.89219852 17.0324901,3.34437151 C17.0324901,4.65695044 16.334723,5.78455488 14.7699432,6.01540303 L15.9017115,8.07034621 Z" id="Fill-3"></path>
            <polygon id="Fill-5" points="28.2089552 0.625 28.2089552 1.39098845 23.4792846 1.39098845 23.4792846 4.6884814 27.3789839 4.6884814 27.3789839 5.45397083 23.4792846 5.45397083 23.4792846 9.2355086 28.2089552 9.2355086 28.2089552 10 22.5671642 10 22.5671642 0.625"></polygon>
            <polygon id="Fill-7" points="33.8014651 0.625 39.3274122 8.26592191 39.3274122 0.625 40.119403 0.625 40.119403 10 39.5408461 10 34.0148991 2.36007612 34.0148991 10 33.2238806 10 33.2238806 0.625"></polygon>
            <polygon id="Fill-9" points="44.5074627 1.39098845 44.5074627 0.625 52.0298507 0.625 52.0298507 1.39098845 48.697122 1.39098845 48.697122 10 47.8406888 10 47.8406888 1.39098845"></polygon>
            <polygon id="Fill-11" points="57.3411242 0.625 59.9181963 8.37620429 62.4327723 0.625 63.0363925 0.625 65.5336932 8.37620429 68.0792633 0.625 68.9552239 0.625 65.8045094 10 65.1993649 10 62.7020641 2.31316868 60.1722452 10 59.5681169 10 56.4179104 0.625"></polygon>
            <path d="M77.7308215,0.809043443 C75.3626623,0.809043443 73.6471947,2.4915091 73.6471947,4.9987327 C73.6471947,7.50798398 75.3626623,9.1894358 77.7308215,9.1894358 C80.0676766,9.1894358 81.8154918,7.50798398 81.8154918,4.9987327 C81.8154918,2.4915091 80.0676766,0.809043443 77.7308215,0.809043443 M77.7308215,0 C80.606108,0 82.7462687,2.09509809 82.7462687,4.9987327 C82.7462687,7.92010949 80.606108,10 77.7308215,10 C74.839883,10 72.7164179,7.92010949 72.7164179,4.9987327 C72.7164179,2.09509809 74.839883,0 77.7308215,0" id="Fill-13"></path>
            <path d="M92.1482104,0.809043443 C89.7802975,0.809043443 88.0650084,2.4915091 88.0650084,4.9987327 C88.0650084,7.50798398 89.7802975,9.1894358 92.1482104,9.1894358 C94.4848223,9.1894358 96.2334991,7.50798398 96.2334991,4.9987327 C96.2334991,2.4915091 94.4848223,0.809043443 92.1482104,0.809043443 M92.1482104,0 C95.0242411,0 97.1641791,2.09509809 97.1641791,4.9987327 C97.1641791,7.92010949 95.0242411,10 92.1482104,10 C89.2575725,10 87.1343284,7.92010949 87.1343284,4.9987327 C87.1343284,2.09509809 89.2575725,0 92.1482104,0" id="Fill-15"></path>
            <path d="M108.767217,5.31200101 C108.767217,3.26564829 107.701493,1.43835161 104.453522,1.43835161 L102.452998,1.43835161 L102.452998,9.18814536 L104.453522,9.18814536 C107.701493,9.18814536 108.767217,7.3598507 108.767217,5.31200101 Z M104.437287,0.625 C108.127258,0.625 109.701493,2.73522328 109.701493,5.31200101 C109.701493,7.89127369 108.127258,10 104.437287,10 L101.552239,10 L101.552239,0.625 L104.437287,0.625 Z" id="Fill-17"></path>
            <polygon id="Fill-19" points="121.242682 0.625 121.242682 4.6884814 126.996124 4.6884814 126.996124 0.625 127.880597 0.625 127.880597 10 126.996124 10 126.996124 5.45397083 121.242682 5.45397083 121.242682 10 120.358209 10 120.358209 0.625"></polygon>
            <path d="M137.910448,0.809043443 C135.541492,0.809043443 133.826724,2.4915091 133.826724,4.9987327 C133.826724,7.50798398 135.541492,9.1894358 137.910448,9.1894358 C140.246538,9.1894358 141.994693,7.50798398 141.994693,4.9987327 C141.994693,2.4915091 140.246538,0.809043443 137.910448,0.809043443 M137.910448,0 C140.785435,0 142.925373,2.09509809 142.925373,4.9987327 C142.925373,7.92010949 140.785435,10 137.910448,10 C135.019288,10 132.895522,7.92010949 132.895522,4.9987327 C132.895522,2.09509809 135.019288,0 137.910448,0" id="Fill-21"></path>
            <path d="M148.298015,0.625 L152.031411,8.85975009 L155.763793,0.625 L156.716418,0.625 L156.716418,10 L155.841403,10 L155.841403,3.62507984 C155.841403,2.89152739 155.85865,2.10957045 155.85865,2.09410097 C155.841403,2.12553894 155.524369,2.95340528 155.238784,3.59364188 L152.348446,10 L151.649448,10 L148.759617,3.59364188 C148.456786,2.92296535 148.171201,2.15647788 148.139244,2.09410097 C148.139244,2.10957045 148.155983,2.87605791 148.155983,3.62507984 L148.155983,10 L147.313433,10 L147.313433,0.625 L148.298015,0.625 Z" id="Fill-23"></path>
            <polygon id="Fill-25" points="168 0.625 168 1.39098845 163.270244 1.39098845 163.270244 4.6884814 167.170107 4.6884814 167.170107 5.45397083 163.270244 5.45397083 163.270244 9.2355086 168 9.2355086 168 10 162.358209 10 162.358209 0.625"></polygon>
        </g>
        <path d="M24,31.9009629 L24,26.0990371 L24.5507464,26.0990371 L24.5507464,31.389271 L27.1528238,31.389271 L27.1528238,31.9009629 L24,31.9009629 Z M29.0986173,28.9628611 C29.0986173,27.2957359 30.3677287,26 31.9561133,26 C33.544498,26 34.8136094,27.2957359 34.8136094,28.9628611 C34.8136094,30.6629986 33.544498,32 31.9561133,32 C30.3677287,32 29.0986173,30.6629986 29.0986173,28.9628611 Z M29.6733093,28.9628611 C29.6733093,30.3823934 30.687002,31.4718019 31.9561133,31.4718019 C33.2172429,31.4718019 34.2389174,30.3823934 34.2389174,28.9628611 C34.2389174,27.5763411 33.2172429,26.5281981 31.9561133,26.5281981 C30.687002,26.5281981 29.6733093,27.5763411 29.6733093,28.9628611 Z M37.2223491,31.2572215 L37.5496043,30.8198074 C37.5496043,30.8198074 38.132278,31.4552957 39.0182614,31.4552957 C39.6328625,31.4552957 40.135718,31.0756534 40.135718,30.4484182 C40.135718,28.9876204 37.3340948,29.3590096 37.3340948,27.5598349 C37.3340948,26.7262724 38.0444779,26 39.0821161,26 C40.0558997,26 40.5827006,26.5612105 40.5827006,26.5612105 L40.3113183,27.03989 C40.3113183,27.03989 39.8164447,26.5447043 39.0821161,26.5447043 C38.3637512,26.5447043 37.9008049,27.0316369 37.9008049,27.5433287 C37.9008049,28.9215956 40.7024281,28.525447 40.7024281,30.431912 C40.7024281,31.2984869 40.0558997,32 39.0022978,32 C37.8529139,32 37.2223491,31.2572215 37.2223491,31.2572215 Z M50.6522259,31.9009629 L50.0056975,30.0522696 L47.7468389,30.0522696 L47.1082923,31.9009629 L46.5256185,31.9009629 L48.5849313,26.0990371 L49.1755869,26.0990371 L51.2348997,31.9009629 L50.6522259,31.9009629 Z M48.8882409,26.7015131 L48.8722773,26.7015131 C48.8722773,26.7015131 48.7525498,27.1801926 48.6567678,27.4525447 L47.9064755,29.5570839 L49.838079,29.5570839 L49.1037504,27.4525447 C49.0079684,27.1801926 48.8882409,26.7015131 48.8882409,26.7015131 Z M53.7314396,31.9009629 L53.7314396,26.0990371 L54.2662224,26.0990371 L57.1317002,30.2751032 C57.3232642,30.5639615 57.5946465,31.0591472 57.5946465,31.0591472 L57.6106102,31.0591472 C57.6106102,31.0591472 57.5627192,30.5804677 57.5627192,30.2751032 L57.5627192,26.0990371 L58.1134656,26.0990371 L58.1134656,31.9009629 L57.5786829,31.9009629 L54.713205,27.7248968 C54.521641,27.4360385 54.2502587,26.9408528 54.2502587,26.9408528 L54.2342951,26.9408528 C54.2342951,26.9408528 54.2821861,27.4195323 54.2821861,27.7248968 L54.2821861,31.9009629 L53.7314396,31.9009629 Z M60.9452425,28.9958735 C60.9452425,27.3204952 62.1584811,26 63.7708112,26 C65.0718499,26 65.7662693,26.6767538 65.7662693,26.6767538 L65.4709415,27.1059147 C65.4709415,27.1059147 64.8164313,26.5281981 63.7947567,26.5281981 C62.4378452,26.5281981 61.5199345,27.6093535 61.5199345,28.9876204 C61.5199345,30.4154058 62.4697725,31.4718019 63.7468657,31.4718019 C64.8403768,31.4718019 65.5108507,30.6217331 65.5108507,30.6217331 L65.5108507,29.6396149 L64.5530308,29.6396149 L64.5530308,29.127923 L66.0376516,29.127923 L66.0376516,31.9009629 L65.5268144,31.9009629 L65.5268144,31.4635488 C65.5268144,31.3397524 65.5347962,31.215956 65.5347962,31.215956 L65.5188325,31.215956 C65.5188325,31.215956 64.8723041,32 63.6909929,32 C62.1584811,32 60.9452425,30.7207703 60.9452425,28.9958735 Z M68.9492469,31.9009629 L68.9492469,26.0990371 L72.1100525,26.0990371 L72.1100525,26.610729 L69.4999933,26.610729 L69.4999933,28.7235213 L71.6311426,28.7235213 L71.6311426,29.2352132 L69.4999933,29.2352132 L69.4999933,31.389271 L72.2537255,31.389271 L72.2537255,31.9009629 L68.9492469,31.9009629 Z M75.0855024,31.9009629 L75.0855024,26.0990371 L75.6362488,26.0990371 L75.6362488,31.389271 L78.2383262,31.389271 L78.2383262,31.9009629 L75.0855024,31.9009629 Z M80.7987208,31.9009629 L80.7987208,26.0990371 L83.9595265,26.0990371 L83.9595265,26.610729 L81.3494672,26.610729 L81.3494672,28.7235213 L83.4806165,28.7235213 L83.4806165,29.2352132 L81.3494672,29.2352132 L81.3494672,31.389271 L84.1031994,31.389271 L84.1031994,31.9009629 L80.7987208,31.9009629 Z M86.5199211,31.2572215 L86.8471762,30.8198074 C86.8471762,30.8198074 87.42985,31.4552957 88.3158334,31.4552957 C88.9304345,31.4552957 89.4332899,31.0756534 89.4332899,30.4484182 C89.4332899,28.9876204 86.6316667,29.3590096 86.6316667,27.5598349 C86.6316667,26.7262724 87.3420498,26 88.379688,26 C89.3534716,26 89.8802725,26.5612105 89.8802725,26.5612105 L89.6088902,27.03989 C89.6088902,27.03989 89.1140166,26.5447043 88.379688,26.5447043 C87.6613231,26.5447043 87.1983768,27.0316369 87.1983768,27.5433287 C87.1983768,28.9215956 90,28.525447 90,30.431912 C90,31.2984869 89.3534716,32 88.2998697,32 C87.1504858,32 86.5199211,31.2572215 86.5199211,31.2572215 Z" id="LOS-ANGELES" fill="#53585A"></path>
        <rect id="Rectangle" fill="#888C8D" x="100" y="24" width="45" height="10"></rect>
        <path d="M104,29.8219178 C104,28.4986301 104.861302,27.6438356 105.999168,27.6438356 C107.129133,27.6438356 107.729674,28.5150685 107.729674,29.5917808 C107.729674,29.6986301 107.705968,29.9369863 107.705968,29.9369863 L104.790185,29.9369863 C104.829694,30.8493151 105.453941,31.309589 106.165107,31.309589 C106.852568,31.309589 107.350385,30.8246575 107.350385,30.8246575 L107.666459,31.4082192 C107.666459,31.4082192 107.07382,32 106.117696,32 C104.861302,32 104,31.0547945 104,29.8219178 Z M104.813891,29.3369863 L106.94739,29.3369863 C106.923685,28.6219178 106.496985,28.2767123 105.983365,28.2767123 C105.398628,28.2767123 104.924517,28.6547945 104.813891,29.3369863 Z M109.104596,31.3917808 L109.475983,30.8246575 C109.475983,30.8246575 109.926388,31.309589 110.621751,31.309589 C110.953629,31.309589 111.285506,31.1287671 111.285506,30.7917808 C111.285506,30.0273973 109.231025,30.1835616 109.231025,28.8273973 C109.231025,28.0712329 109.878977,27.6438356 110.677064,27.6438356 C111.554169,27.6438356 111.965065,28.1041096 111.965065,28.1041096 L111.656893,28.7041096 C111.656893,28.7041096 111.30131,28.3342466 110.669162,28.3342466 C110.337284,28.3342466 110.013308,28.4821918 110.013308,28.8438356 C110.013308,29.5917808 112.06779,29.4273973 112.06779,30.7917808 C112.06779,31.4821918 111.498856,32 110.621751,32 C109.641921,32 109.104596,31.3917808 109.104596,31.3917808 Z M113.901019,30.3808219 L113.901019,28.4410959 L113.379497,28.4410959 L113.379497,27.8 L113.924724,27.8 L113.924724,26.6 L114.667498,26.6 L114.667498,27.8 L115.631524,27.8 L115.631524,28.4410959 L114.667498,28.4410959 L114.667498,30.290411 C114.667498,31.1205479 115.22853,31.2273973 115.520898,31.2273973 C115.631524,31.2273973 115.702641,31.2109589 115.702641,31.2109589 L115.702641,31.9178082 C115.702641,31.9178082 115.592015,31.9342466 115.433978,31.9342466 C114.920358,31.9342466 113.901019,31.769863 113.901019,30.3808219 Z M117.330422,31.9013699 L117.330422,31.0547945 L118.136411,31.0547945 L118.136411,31.9013699 L117.330422,31.9013699 Z M122.74319,31.9013699 L122.74319,31.1945205 L123.975879,31.1945205 L123.975879,27.4465753 C123.975879,27.2657534 123.98378,27.0849315 123.98378,27.0849315 L123.967977,27.0849315 C123.967977,27.0849315 123.904762,27.2164384 123.699314,27.4219178 L123.177792,27.9561644 L122.703681,27.4465753 L124.039093,26.0986301 L124.734456,26.0986301 L124.734456,31.1945205 L125.951341,31.1945205 L125.951341,31.9013699 L122.74319,31.9013699 Z M128.685382,32 C128.021626,32 127.602828,31.7616438 127.602828,31.7616438 L127.855687,31.0547945 C127.855687,31.0547945 128.211271,31.2520548 128.653774,31.2520548 C129.681015,31.2520548 130.210439,30.2657534 130.328967,29.3041096 L130.313163,29.3041096 C130.084009,29.6328767 129.570389,29.8465753 129.080474,29.8465753 C128.021626,29.8465753 127.318361,29.0164384 127.318361,27.939726 C127.318361,26.7972603 128.069037,26 129.112082,26 C130.297359,26 131.19817,27.0767123 131.19817,28.7369863 C131.19817,30.2246575 130.415887,32 128.685382,32 Z M129.238511,29.1643836 C129.870659,29.1643836 130.376378,28.7616438 130.376378,28.3506849 C130.376378,27.5945205 129.83115,26.7479452 129.119983,26.7479452 C128.472032,26.7479452 128.092743,27.2657534 128.092743,27.939726 C128.092743,28.6465753 128.519443,29.1643836 129.238511,29.1643836 Z M132.881264,30.2246575 C132.881264,29.3369863 133.624038,28.7863014 133.774173,28.6794521 C133.410688,28.4082192 133.149927,28.0547945 133.149927,27.5205479 C133.149927,26.7479452 133.710959,26 134.888334,26 C135.923477,26 136.642545,26.6 136.642545,27.5534247 C136.642545,28.3260274 136.049906,28.9835616 135.97879,29.0657534 C136.40549,29.3369863 136.737367,29.6986301 136.737367,30.2986301 C136.737367,31.2027397 135.986692,32 134.82512,32 C133.710959,32 132.881264,31.2767123 132.881264,30.2246575 Z M135.931379,30.2739726 C135.931379,29.6493151 135.101684,29.4027397 134.351009,29.0246575 C134.169266,29.1561644 133.679351,29.5506849 133.679351,30.1753425 C133.679351,30.8410959 134.232481,31.2684932 134.82512,31.2684932 C135.409857,31.2684932 135.931379,30.8739726 135.931379,30.2739726 Z M133.924309,27.5369863 C133.924309,28.1780822 134.667083,28.4246575 135.386151,28.7452055 C135.473071,28.6547945 135.876066,28.2109589 135.876066,27.6027397 C135.876066,27.0684932 135.465169,26.7315068 134.880433,26.7315068 C134.264088,26.7315068 133.924309,27.0931507 133.924309,27.5369863 Z M138.673321,31.9013699 L140.84633,27.3315068 C141.004367,27.0027397 141.170306,26.7972603 141.170306,26.7972603 L141.170306,26.7808219 C141.170306,26.7808219 141.043876,26.8054795 140.759409,26.8054795 L138.270326,26.8054795 L138.270326,26.0986301 L142,26.0986301 L142,26.6575342 L139.47931,31.9013699 L138.673321,31.9013699 Z" id="est.-1987" fill="#FFFFFF"></path>
    </g>
</svg>