<?xml version="1.0" encoding="UTF-8"?>
<svg width="248px" height="30px" viewBox="0 0 248 30" version="1.1" xmlns="http://www.w3.org/2000/svg" xmlns:xlink="http://www.w3.org/1999/xlink">
    <!-- Generator: Sketch 62 (91390) - https://sketch.com -->
    <title>logo-brentwoodhome-v3-desktop-clean</title>
    <desc>Created with Sketch.</desc>
    <g id="logo-brentwoodhome-v3-desktop-clean" stroke="none" stroke-width="1" fill="none" fill-rule="evenodd">
        <path d="M5.77647799,14.6370968 C6.45789597,14.6370968 7.09344928,14.5497312 7.68313793,14.375 C8.27282657,14.2002688 8.79044215,13.9448925 9.23598468,13.608871 C9.68152721,13.2728495 10.0320643,12.859543 10.2875961,12.3689516 C10.5431278,11.8783602 10.6708937,11.3104839 10.6708937,10.6653226 C10.6708937,10.1814516 10.5922686,9.7311828 10.4350182,9.31451613 C10.2777679,8.89784946 10.0648248,8.53158602 9.79618889,8.21572581 C9.52755295,7.89986559 9.20977629,7.64448925 8.84285892,7.44959677 C8.47594154,7.2547043 8.08281578,7.1438172 7.66348164,7.11693548 L7.66348164,7.11693548 L7.66348164,7.0766129 C8.37110801,6.83467742 8.94769245,6.45497312 9.39323498,5.9375 C9.83877751,5.42002688 10.0615488,4.75134409 10.0615488,3.93145161 C10.0615488,3.3266129 9.95343919,2.79905914 9.73722002,2.34879032 C9.52100085,1.89852151 9.22615653,1.52889785 8.85268706,1.23991935 C8.47921759,0.95094086 8.03367506,0.732526882 7.51605948,0.584677419 C6.99844389,0.436827957 6.43823968,0.362903226 5.83544685,0.362903226 L5.83544685,0.362903226 L1,0.362903226 L1,14.6370968 L5.77647799,14.6370968 Z M5.46197738,6.29032258 L2.88700365,6.29032258 L2.88700365,2.05645161 L5.85510314,2.05645161 C6.61514628,2.05645161 7.17207444,2.26478495 7.52588762,2.68145161 C7.87970081,3.09811828 8.0566074,3.58870968 8.0566074,4.15322581 C8.0566074,4.54301075 7.98781039,4.87231183 7.85021637,5.14112903 C7.71262236,5.40994624 7.52588762,5.63172043 7.29001217,5.80645161 C7.05413671,5.9811828 6.77894868,6.10551075 6.46444807,6.17943548 C6.14994746,6.25336022 5.81579056,6.29032258 5.46197738,6.29032258 L5.46197738,6.29032258 Z M5.65854026,12.9435484 L2.88700365,12.9435484 L2.88700365,7.98387097 L5.67819655,7.98387097 C6.59548999,7.98387097 7.32277265,8.19556452 7.86004452,8.61895161 C8.39731639,9.04233871 8.66595233,9.67741935 8.66595233,10.5241935 C8.66595233,11.0349462 8.56111879,11.4448925 8.35145172,11.7540323 C8.14178465,12.063172 7.8862529,12.3084677 7.58485649,12.4899194 C7.28346007,12.671371 6.95913132,12.7923387 6.61187023,12.8528226 C6.26460914,12.9133065 5.94683248,12.9435484 5.65854026,12.9435484 L5.65854026,12.9435484 Z M19.4201259,14.6370968 L19.4201259,8.34677419 L21.5233487,8.34677419 L25.0614805,14.6370968 L27.4202351,14.6370968 L23.4693212,8.125 C23.9934889,8.07123656 24.4685158,7.92674731 24.8944021,7.69153226 C25.3202883,7.4563172 25.6806536,7.16733871 25.9754979,6.82459677 C26.2703422,6.48185484 26.4963895,6.09879032 26.6536398,5.67540323 C26.8108901,5.25201613 26.8895153,4.81182796 26.8895153,4.35483871 C26.8895153,3.91129032 26.8239943,3.45094086 26.6929524,2.97379032 C26.5619105,2.49663978 26.3293111,2.06653226 25.9951542,1.68346774 C25.6609973,1.30040323 25.2056266,0.984543011 24.6290422,0.735887097 C24.0524577,0.487231183 23.318623,0.362903226 22.4275379,0.362903226 L22.4275379,0.362903226 L17.5331222,0.362903226 L17.5331222,14.6370968 L19.4201259,14.6370968 Z M21.8968181,6.65322581 L19.4201259,6.65322581 L19.4201259,2.05645161 L21.8968181,2.05645161 C22.2637355,2.05645161 22.6273768,2.08669355 22.9877421,2.14717742 C23.3481074,2.20766129 23.6691601,2.31854839 23.9509002,2.47983871 C24.2326404,2.64112903 24.4586877,2.87298387 24.6290422,3.17540323 C24.7993967,3.47782258 24.8845739,3.87096774 24.8845739,4.35483871 C24.8845739,4.83870968 24.7993967,5.23185484 24.6290422,5.53427419 C24.4586877,5.83669355 24.2326404,6.06854839 23.9509002,6.22983871 C23.6691601,6.39112903 23.3481074,6.50201613 22.9877421,6.5625 C22.6273768,6.62298387 22.2637355,6.65322581 21.8968181,6.65322581 L21.8968181,6.65322581 Z M43.0295117,14.6370968 L43.0295117,12.8225806 L35.5797786,12.8225806 L35.5797786,8.24596774 L42.1842914,8.24596774 L42.1842914,6.43145161 L35.5797786,6.43145161 L35.5797786,2.17741935 L42.6756986,2.17741935 L42.6756986,0.362903226 L33.6927749,0.362903226 L33.6927749,14.6370968 L43.0295117,14.6370968 Z M51.7394313,14.6370968 L51.7394313,2.90322581 L51.7787439,2.90322581 L59.5233214,14.6370968 L61.9213885,14.6370968 L61.9213885,0.362903226 L60.0343849,0.362903226 L60.0343849,12.0967742 L59.9950723,12.0967742 L52.3291199,0.362903226 L49.8524277,0.362903226 L49.8524277,14.6370968 L51.7394313,14.6370968 Z M74.4446279,14.6370968 L74.4446279,2.17741935 L78.9262616,2.17741935 L78.9262616,0.362903226 L68.0759906,0.362903226 L68.0759906,2.17741935 L72.5576243,2.17741935 L72.5576243,14.6370968 L74.4446279,14.6370968 Z M89.3659345,14.6370968 L92.7271598,2.98387097 L92.7664724,2.98387097 L96.1473539,14.6370968 L98.132639,14.6370968 L102.181834,0.362903226 L100.216206,0.362903226 L97.1498246,11.7741935 L97.110512,11.7741935 L93.8279119,0.362903226 L91.6657202,0.362903226 L88.3831201,11.7741935 L88.3438076,11.7741935 L85.2774266,0.362903226 L83.3117978,0.362903226 L87.3806494,14.6370968 L89.3659345,14.6370968 Z M114.528167,15 C115.589607,15 116.565869,14.8084677 117.456954,14.4254032 C118.348039,14.0423387 119.111358,13.5147849 119.746912,12.8427419 C120.382465,12.1706989 120.880424,11.3776882 121.24079,10.4637097 C121.601155,9.54973118 121.781337,8.56182796 121.781337,7.5 C121.781337,6.43817204 121.601155,5.45026882 121.24079,4.53629032 C120.880424,3.62231183 120.382465,2.82930108 119.746912,2.15725806 C119.111358,1.48521505 118.348039,0.95766129 117.456954,0.574596774 C116.565869,0.191532258 115.589607,0 114.528167,0 C113.466728,0 112.490465,0.191532258 111.59938,0.574596774 C110.708295,0.95766129 109.944976,1.48521505 109.309423,2.15725806 C108.673869,2.82930108 108.17591,3.62231183 107.815545,4.53629032 C107.45518,5.45026882 107.274997,6.43817204 107.274997,7.5 C107.274997,8.56182796 107.45518,9.54973118 107.815545,10.4637097 C108.17591,11.3776882 108.673869,12.1706989 109.309423,12.8427419 C109.944976,13.5147849 110.708295,14.0423387 111.59938,14.4254032 C112.490465,14.8084677 113.466728,15 114.528167,15 Z M114.528167,13.1854839 C113.728811,13.1854839 113.008081,13.0342742 112.365975,12.7318548 C111.72387,12.4294355 111.173494,12.0228495 110.714847,11.5120968 C110.256201,11.0013441 109.902387,10.3998656 109.653408,9.70766129 C109.404428,9.01545699 109.279938,8.27956989 109.279938,7.5 C109.279938,6.72043011 109.404428,5.98454301 109.653408,5.29233871 C109.902387,4.60013441 110.256201,3.99865591 110.714847,3.48790323 C111.173494,2.97715054 111.72387,2.57056452 112.365975,2.26814516 C113.008081,1.96572581 113.728811,1.81451613 114.528167,1.81451613 C115.327523,1.81451613 116.048253,1.96572581 116.690359,2.26814516 C117.332464,2.57056452 117.88284,2.97715054 118.341487,3.48790323 C118.800134,3.99865591 119.153947,4.60013441 119.402927,5.29233871 C119.651906,5.98454301 119.776396,6.72043011 119.776396,7.5 C119.776396,8.27956989 119.651906,9.01545699 119.402927,9.70766129 C119.153947,10.3998656 118.800134,11.0013441 118.341487,11.5120968 C117.88284,12.0228495 117.332464,12.4294355 116.690359,12.7318548 C116.048253,13.0342742 115.327523,13.1854839 114.528167,13.1854839 Z M135.03186,15 C136.093299,15 137.069561,14.8084677 137.960646,14.4254032 C138.851732,14.0423387 139.615051,13.5147849 140.250604,12.8427419 C140.886157,12.1706989 141.384117,11.3776882 141.744482,10.4637097 C142.104847,9.54973118 142.28503,8.56182796 142.28503,7.5 C142.28503,6.43817204 142.104847,5.45026882 141.744482,4.53629032 C141.384117,3.62231183 140.886157,2.82930108 140.250604,2.15725806 C139.615051,1.48521505 138.851732,0.95766129 137.960646,0.574596774 C137.069561,0.191532258 136.093299,0 135.03186,0 C133.97042,0 132.994158,0.191532258 132.103073,0.574596774 C131.211988,0.95766129 130.448668,1.48521505 129.813115,2.15725806 C129.177562,2.82930108 128.679602,3.62231183 128.319237,4.53629032 C127.958872,5.45026882 127.778689,6.43817204 127.778689,7.5 C127.778689,8.56182796 127.958872,9.54973118 128.319237,10.4637097 C128.679602,11.3776882 129.177562,12.1706989 129.813115,12.8427419 C130.448668,13.5147849 131.211988,14.0423387 132.103073,14.4254032 C132.994158,14.8084677 133.97042,15 135.03186,15 Z M135.03186,13.1854839 C134.232504,13.1854839 133.511773,13.0342742 132.869668,12.7318548 C132.227562,12.4294355 131.677186,12.0228495 131.21854,11.5120968 C130.759893,11.0013441 130.40608,10.3998656 130.1571,9.70766129 C129.90812,9.01545699 129.783631,8.27956989 129.783631,7.5 C129.783631,6.72043011 129.90812,5.98454301 130.1571,5.29233871 C130.40608,4.60013441 130.759893,3.99865591 131.21854,3.48790323 C131.677186,2.97715054 132.227562,2.57056452 132.869668,2.26814516 C133.511773,1.96572581 134.232504,1.81451613 135.03186,1.81451613 C135.831215,1.81451613 136.551946,1.96572581 137.194051,2.26814516 C137.836157,2.57056452 138.386533,2.97715054 138.845179,3.48790323 C139.303826,3.99865591 139.657639,4.60013441 139.906619,5.29233871 C140.155599,5.98454301 140.280088,6.72043011 140.280088,7.5 C140.280088,8.27956989 140.155599,9.01545699 139.906619,9.70766129 C139.657639,10.3998656 139.303826,11.0013441 138.845179,11.5120968 C138.386533,12.0228495 137.836157,12.4294355 137.194051,12.7318548 C136.551946,13.0342742 135.831215,13.1854839 135.03186,13.1854839 Z M153.37336,14.6370968 C154.618258,14.6370968 155.715735,14.4354839 156.665788,14.0322581 C157.615842,13.6290323 158.411922,13.0947581 159.054027,12.4294355 C159.696133,11.7641129 160.180988,11.0047043 160.508593,10.1512097 C160.836198,9.29771505 161,8.41397849 161,7.5 C161,7.05645161 160.954135,6.57258065 160.862406,6.0483871 C160.770677,5.52419355 160.619978,5 160.410311,4.47580645 C160.200644,3.9516129 159.915628,3.44086022 159.555263,2.94354839 C159.194898,2.44623656 158.742803,2.00604839 158.198979,1.62298387 C157.655155,1.23991935 157.01305,0.934139785 156.272663,0.705645161 C155.532276,0.477150538 154.670675,0.362903226 153.687861,0.362903226 L153.687861,0.362903226 L148.832758,0.362903226 L148.832758,14.6370968 L153.37336,14.6370968 Z M153.098172,12.8225806 L150.719761,12.8225806 L150.719761,2.17741935 L153.550267,2.17741935 C154.677227,2.17741935 155.594521,2.36895161 156.302147,2.75201613 C157.009774,3.13508065 157.563426,3.60215054 157.963104,4.15322581 C158.362781,4.70430108 158.634693,5.28561828 158.778839,5.89717742 C158.922986,6.50873656 158.995059,7.04301075 158.995059,7.5 C158.995059,8.38709677 158.837808,9.16330645 158.523308,9.82862903 C158.208807,10.4939516 157.782921,11.0483871 157.245649,11.4919355 C156.708377,11.9354839 156.082652,12.2681452 155.368473,12.4899194 C154.654295,12.7116935 153.897528,12.8225806 153.098172,12.8225806 L153.098172,12.8225806 Z" id="BRENTWOOD" fill="#454D5C" fill-rule="nonzero"></path>
        <path d="M178.922088,14.6370968 L178.922088,8.10483871 L186.270072,8.10483871 L186.270072,14.6370968 L188.192161,14.6370968 L188.192161,0.362903226 L186.270072,0.362903226 L186.270072,6.29032258 L178.922088,6.29032258 L178.922088,0.362903226 L177,0.362903226 L177,14.6370968 L178.922088,14.6370968 Z M202.295103,15 C203.376277,15 204.370691,14.8084677 205.278344,14.4254032 C206.185997,14.0423387 206.963508,13.5147849 207.610878,12.8427419 C208.258248,12.1706989 208.765466,11.3776882 209.132532,10.4637097 C209.499597,9.54973118 209.68313,8.56182796 209.68313,7.5 C209.68313,6.43817204 209.499597,5.45026882 209.132532,4.53629032 C208.765466,3.62231183 208.258248,2.82930108 207.610878,2.15725806 C206.963508,1.48521505 206.185997,0.95766129 205.278344,0.574596774 C204.370691,0.191532258 203.376277,0 202.295103,0 C201.213928,0 200.219514,0.191532258 199.311861,0.574596774 C198.404208,0.95766129 197.626697,1.48521505 196.979327,2.15725806 C196.331957,2.82930108 195.824739,3.62231183 195.457674,4.53629032 C195.090608,5.45026882 194.907075,6.43817204 194.907075,7.5 C194.907075,8.56182796 195.090608,9.54973118 195.457674,10.4637097 C195.824739,11.3776882 196.331957,12.1706989 196.979327,12.8427419 C197.626697,13.5147849 198.404208,14.0423387 199.311861,14.4254032 C200.219514,14.8084677 201.213928,15 202.295103,15 Z M202.295103,13.1854839 C201.480885,13.1854839 200.746754,13.0342742 200.09271,12.7318548 C199.438666,12.4294355 198.878057,12.0228495 198.410882,11.5120968 C197.943708,11.0013441 197.583317,10.3998656 197.329708,9.70766129 C197.076099,9.01545699 196.949294,8.27956989 196.949294,7.5 C196.949294,6.72043011 197.076099,5.98454301 197.329708,5.29233871 C197.583317,4.60013441 197.943708,3.99865591 198.410882,3.48790323 C198.878057,2.97715054 199.438666,2.57056452 200.09271,2.26814516 C200.746754,1.96572581 201.480885,1.81451613 202.295103,1.81451613 C203.109321,1.81451613 203.843452,1.96572581 204.497496,2.26814516 C205.15154,2.57056452 205.712149,2.97715054 206.179323,3.48790323 C206.646497,3.99865591 207.006889,4.60013441 207.260498,5.29233871 C207.514107,5.98454301 207.640911,6.72043011 207.640911,7.5 C207.640911,8.27956989 207.514107,9.01545699 207.260498,9.70766129 C207.006889,10.3998656 206.646497,11.0013441 206.179323,11.5120968 C205.712149,12.0228495 205.15154,12.4294355 204.497496,12.7318548 C203.843452,13.0342742 203.109321,13.1854839 202.295103,13.1854839 Z M218.179981,14.6370968 L218.179981,2.90322581 L218.220024,2.90322581 L223.005224,14.6370968 L224.286616,14.6370968 L229.071815,2.90322581 L229.111859,2.90322581 L229.111859,14.6370968 L231.033947,14.6370968 L231.033947,0.362903226 L228.170836,0.362903226 L223.705985,11.1693548 L223.625898,11.1693548 L219.121003,0.362903226 L216.257893,0.362903226 L216.257893,14.6370968 L218.179981,14.6370968 Z M248,14.6370968 L248,12.8225806 L240.411755,12.8225806 L240.411755,8.24596774 L247.139065,8.24596774 L247.139065,6.43145161 L240.411755,6.43145161 L240.411755,2.17741935 L247.639608,2.17741935 L247.639608,0.362903226 L238.489667,0.362903226 L238.489667,14.6370968 L248,14.6370968 Z" id="HOME" fill="#454D5C" fill-rule="nonzero"></path>
        <path d="M1.26,28 L1.26,23.926 L1.274,23.926 L2.947,28 L3.395,28 L5.068,23.926 L5.082,23.926 L5.082,28 L5.754,28 L5.754,23.044 L4.753,23.044 L3.192,26.796 L3.164,26.796 L1.589,23.044 L0.588,23.044 L0.588,28 L1.26,28 Z M10.783,28 L11.273,26.775 L13.632,26.775 L14.129,28 L14.913,28 L12.792,23.044 L12.183,23.044 L9.999,28 L10.783,28 Z M13.387,26.187 L11.511,26.187 L12.449,23.912 L12.463,23.912 L13.387,26.187 Z M20.271,28 L20.271,23.674 L21.867,23.674 L21.867,23.044 L18.003,23.044 L18.003,23.674 L19.599,23.674 L19.599,28 L20.271,28 Z M27.939,28 L27.939,23.674 L29.535,23.674 L29.535,23.044 L25.671,23.044 L25.671,23.674 L27.267,23.674 L27.267,28 L27.939,28 Z M34.571,28 L34.571,25.816 L35.32,25.816 L36.58,28 L37.42,28 L36.013,25.739 C36.1996667,25.7203333 36.3688333,25.6701667 36.5205,25.5885 C36.6721667,25.5068333 36.8005,25.4065 36.9055,25.2875 C37.0105,25.1685 37.091,25.0355 37.147,24.8885 C37.203,24.7415 37.231,24.5886667 37.231,24.43 C37.231,24.276 37.2076667,24.1161667 37.161,23.9505 C37.1143333,23.7848333 37.0315,23.6355 36.9125,23.5025 C36.7935,23.3695 36.6313333,23.2598333 36.426,23.1735 C36.2206667,23.0871667 35.9593333,23.044 35.642,23.044 L35.642,23.044 L33.899,23.044 L33.899,28 L34.571,28 Z M35.453,25.228 L34.571,25.228 L34.571,23.632 L35.453,23.632 C35.5836667,23.632 35.7131667,23.6425 35.8415,23.6635 C35.9698333,23.6845 36.0841667,23.723 36.1845,23.779 C36.2848333,23.835 36.3653333,23.9155 36.426,24.0205 C36.4866667,24.1255 36.517,24.262 36.517,24.43 C36.517,24.598 36.4866667,24.7345 36.426,24.8395 C36.3653333,24.9445 36.2848333,25.025 36.1845,25.081 C36.0841667,25.137 35.9698333,25.1755 35.8415,25.1965 C35.7131667,25.2175 35.5836667,25.228 35.453,25.228 L35.453,25.228 Z M45.151,28 L45.151,27.37 L42.498,27.37 L42.498,25.781 L44.85,25.781 L44.85,25.151 L42.498,25.151 L42.498,23.674 L45.025,23.674 L45.025,23.044 L41.826,23.044 L41.826,28 L45.151,28 Z M50.929,28.126 C51.167,28.126 51.391,28.091 51.601,28.021 C51.811,27.951 51.993,27.8506667 52.147,27.72 C52.301,27.5893333 52.4235,27.4283333 52.5145,27.237 C52.6055,27.0456667 52.651,26.831 52.651,26.593 C52.651,26.2943333 52.5903333,26.0598333 52.469,25.8895 C52.3476667,25.7191667 52.1971667,25.5838333 52.0175,25.4835 C51.8378333,25.3831667 51.6418333,25.305 51.4295,25.249 C51.2171667,25.193 51.0211667,25.13 50.8415,25.06 C50.6618333,24.99 50.5113333,24.899 50.39,24.787 C50.2686667,24.675 50.208,24.514 50.208,24.304 C50.208,24.2293333 50.2231667,24.1476667 50.2535,24.059 C50.2838333,23.9703333 50.3363333,23.8875 50.411,23.8105 C50.4856667,23.7335 50.5848333,23.6705 50.7085,23.6215 C50.8321667,23.5725 50.9873333,23.548 51.174,23.548 C51.37,23.548 51.545,23.5876667 51.699,23.667 C51.853,23.7463333 51.972,23.8513333 52.056,23.982 L52.056,23.982 L52.602,23.485 C52.4153333,23.2563333 52.1983333,23.1046667 51.951,23.03 C51.7036667,22.9553333 51.4446667,22.918 51.174,22.918 C50.8753333,22.918 50.6198333,22.9635 50.4075,23.0545 C50.1951667,23.1455 50.0213333,23.2586667 49.886,23.394 C49.7506667,23.5293333 49.6515,23.6786667 49.5885,23.842 C49.5255,24.0053333 49.494,24.1593333 49.494,24.304 C49.494,24.626 49.5546667,24.8815 49.676,25.0705 C49.7973333,25.2595 49.9478333,25.41 50.1275,25.522 C50.3071667,25.634 50.5031667,25.7215 50.7155,25.7845 C50.9278333,25.8475 51.1238333,25.9128333 51.3035,25.9805 C51.4831667,26.0481667 51.6336667,26.1321667 51.755,26.2325 C51.8763333,26.3328333 51.937,26.4786667 51.937,26.67 C51.937,26.8053333 51.9066667,26.9243333 51.846,27.027 C51.7853333,27.1296667 51.7071667,27.216 51.6115,27.286 C51.5158333,27.356 51.4096667,27.4085 51.293,27.4435 C51.1763333,27.4785 51.062,27.496 50.95,27.496 C50.7493333,27.496 50.5545,27.4528333 50.3655,27.3665 C50.1765,27.2801667 50.0213333,27.146 49.9,26.964 L49.9,26.964 L49.347,27.44 C49.515,27.6733333 49.7413333,27.846 50.026,27.958 C50.3106667,28.07 50.6116667,28.126 50.929,28.126 Z M58.471,28.126 C58.709,28.126 58.933,28.091 59.143,28.021 C59.353,27.951 59.535,27.8506667 59.689,27.72 C59.843,27.5893333 59.9655,27.4283333 60.0565,27.237 C60.1475,27.0456667 60.193,26.831 60.193,26.593 C60.193,26.2943333 60.1323333,26.0598333 60.011,25.8895 C59.8896667,25.7191667 59.7391667,25.5838333 59.5595,25.4835 C59.3798333,25.3831667 59.1838333,25.305 58.9715,25.249 C58.7591667,25.193 58.5631667,25.13 58.3835,25.06 C58.2038333,24.99 58.0533333,24.899 57.932,24.787 C57.8106667,24.675 57.75,24.514 57.75,24.304 C57.75,24.2293333 57.7651667,24.1476667 57.7955,24.059 C57.8258333,23.9703333 57.8783333,23.8875 57.953,23.8105 C58.0276667,23.7335 58.1268333,23.6705 58.2505,23.6215 C58.3741667,23.5725 58.5293333,23.548 58.716,23.548 C58.912,23.548 59.087,23.5876667 59.241,23.667 C59.395,23.7463333 59.514,23.8513333 59.598,23.982 L59.598,23.982 L60.144,23.485 C59.9573333,23.2563333 59.7403333,23.1046667 59.493,23.03 C59.2456667,22.9553333 58.9866667,22.918 58.716,22.918 C58.4173333,22.918 58.1618333,22.9635 57.9495,23.0545 C57.7371667,23.1455 57.5633333,23.2586667 57.428,23.394 C57.2926667,23.5293333 57.1935,23.6786667 57.1305,23.842 C57.0675,24.0053333 57.036,24.1593333 57.036,24.304 C57.036,24.626 57.0966667,24.8815 57.218,25.0705 C57.3393333,25.2595 57.4898333,25.41 57.6695,25.522 C57.8491667,25.634 58.0451667,25.7215 58.2575,25.7845 C58.4698333,25.8475 58.6658333,25.9128333 58.8455,25.9805 C59.0251667,26.0481667 59.1756667,26.1321667 59.297,26.2325 C59.4183333,26.3328333 59.479,26.4786667 59.479,26.67 C59.479,26.8053333 59.4486667,26.9243333 59.388,27.027 C59.3273333,27.1296667 59.2491667,27.216 59.1535,27.286 C59.0578333,27.356 58.9516667,27.4085 58.835,27.4435 C58.7183333,27.4785 58.604,27.496 58.492,27.496 C58.2913333,27.496 58.0965,27.4528333 57.9075,27.3665 C57.7185,27.2801667 57.5633333,27.146 57.442,26.964 L57.442,26.964 L56.889,27.44 C57.057,27.6733333 57.2833333,27.846 57.568,27.958 C57.8526667,28.07 58.1536667,28.126 58.471,28.126 Z M68.162,28 L68.162,27.37 L65.509,27.37 L65.509,25.781 L67.861,25.781 L67.861,25.151 L65.509,25.151 L65.509,23.674 L68.036,23.674 L68.036,23.044 L64.837,23.044 L64.837,28 L68.162,28 Z M73.94,28.126 C74.178,28.126 74.402,28.091 74.612,28.021 C74.822,27.951 75.004,27.8506667 75.158,27.72 C75.312,27.5893333 75.4345,27.4283333 75.5255,27.237 C75.6165,27.0456667 75.662,26.831 75.662,26.593 C75.662,26.2943333 75.6013333,26.0598333 75.48,25.8895 C75.3586667,25.7191667 75.2081667,25.5838333 75.0285,25.4835 C74.8488333,25.3831667 74.6528333,25.305 74.4405,25.249 C74.2281667,25.193 74.0321667,25.13 73.8525,25.06 C73.6728333,24.99 73.5223333,24.899 73.401,24.787 C73.2796667,24.675 73.219,24.514 73.219,24.304 C73.219,24.2293333 73.2341667,24.1476667 73.2645,24.059 C73.2948333,23.9703333 73.3473333,23.8875 73.422,23.8105 C73.4966667,23.7335 73.5958333,23.6705 73.7195,23.6215 C73.8431667,23.5725 73.9983333,23.548 74.185,23.548 C74.381,23.548 74.556,23.5876667 74.71,23.667 C74.864,23.7463333 74.983,23.8513333 75.067,23.982 L75.067,23.982 L75.613,23.485 C75.4263333,23.2563333 75.2093333,23.1046667 74.962,23.03 C74.7146667,22.9553333 74.4556667,22.918 74.185,22.918 C73.8863333,22.918 73.6308333,22.9635 73.4185,23.0545 C73.2061667,23.1455 73.0323333,23.2586667 72.897,23.394 C72.7616667,23.5293333 72.6625,23.6786667 72.5995,23.842 C72.5365,24.0053333 72.505,24.1593333 72.505,24.304 C72.505,24.626 72.5656667,24.8815 72.687,25.0705 C72.8083333,25.2595 72.9588333,25.41 73.1385,25.522 C73.3181667,25.634 73.5141667,25.7215 73.7265,25.7845 C73.9388333,25.8475 74.1348333,25.9128333 74.3145,25.9805 C74.4941667,26.0481667 74.6446667,26.1321667 74.766,26.2325 C74.8873333,26.3328333 74.948,26.4786667 74.948,26.67 C74.948,26.8053333 74.9176667,26.9243333 74.857,27.027 C74.7963333,27.1296667 74.7181667,27.216 74.6225,27.286 C74.5268333,27.356 74.4206667,27.4085 74.304,27.4435 C74.1873333,27.4785 74.073,27.496 73.961,27.496 C73.7603333,27.496 73.5655,27.4528333 73.3765,27.3665 C73.1875,27.2801667 73.0323333,27.146 72.911,26.964 L72.911,26.964 L72.358,27.44 C72.526,27.6733333 72.7523333,27.846 73.037,27.958 C73.3216667,28.07 73.6226667,28.126 73.94,28.126 Z M87.218,28.126 C87.5493333,28.126 87.8328333,28.0583333 88.0685,27.923 C88.3041667,27.7876667 88.527,27.594 88.737,27.342 L88.737,27.342 L89.346,28 L90.249,28 L89.122,26.845 L90.081,25.361 L89.318,25.361 L88.695,26.376 L87.715,25.354 C87.841,25.2886667 87.9646667,25.2151667 88.086,25.1335 C88.2073333,25.0518333 88.317,24.9585 88.415,24.8535 C88.513,24.7485 88.5923333,24.6318333 88.653,24.5035 C88.7136667,24.3751667 88.744,24.234 88.744,24.08 C88.744,23.8933333 88.7101667,23.73 88.6425,23.59 C88.5748333,23.45 88.4826667,23.3333333 88.366,23.24 C88.2493333,23.1466667 88.1128333,23.0766667 87.9565,23.03 C87.8001667,22.9833333 87.6356667,22.96 87.463,22.96 C87.2856667,22.96 87.1176667,22.9856667 86.959,23.037 C86.8003333,23.0883333 86.6603333,23.163 86.539,23.261 C86.4176667,23.359 86.3208333,23.4803333 86.2485,23.625 C86.1761667,23.7696667 86.14,23.9353333 86.14,24.122 C86.14,24.3646667 86.1971667,24.5746667 86.3115,24.752 C86.4258333,24.9293333 86.5623333,25.102 86.721,25.27 C86.5716667,25.34 86.4281667,25.4216667 86.2905,25.515 C86.1528333,25.6083333 86.0326667,25.7133333 85.93,25.83 C85.8273333,25.9466667 85.7456667,26.0761667 85.685,26.2185 C85.6243333,26.3608333 85.594,26.5183333 85.594,26.691 C85.594,26.873 85.6255,27.0491667 85.6885,27.2195 C85.7515,27.3898333 85.8495,27.5426667 85.9825,27.678 C86.1155,27.8133333 86.2846667,27.9218333 86.49,28.0035 C86.6953333,28.0851667 86.938,28.126 87.218,28.126 Z M87.302,24.955 C87.246,24.899 87.19,24.8406667 87.134,24.78 C87.078,24.7193333 87.0255,24.654 86.9765,24.584 C86.9275,24.514 86.8878333,24.4416667 86.8575,24.367 C86.8271667,24.2923333 86.812,24.213 86.812,24.129 C86.812,23.9423333 86.8773333,23.7988333 87.008,23.6985 C87.1386667,23.5981667 87.2926667,23.548 87.47,23.548 C87.6473333,23.548 87.792,23.5958333 87.904,23.6915 C88.016,23.7871667 88.072,23.9166667 88.072,24.08 C88.072,24.192 88.0475,24.2911667 87.9985,24.3775 C87.9495,24.4638333 87.8876667,24.542 87.813,24.612 C87.7383333,24.682 87.6555,24.745 87.5645,24.801 C87.4735,24.857 87.386,24.9083333 87.302,24.955 Z M87.239,27.538 C87.1176667,27.538 87.0021667,27.5158333 86.8925,27.4715 C86.7828333,27.4271667 86.6836667,27.3653333 86.595,27.286 C86.5063333,27.2066667 86.4363333,27.1145 86.385,27.0095 C86.3336667,26.9045 86.308,26.7913333 86.308,26.67 C86.308,26.544 86.3325,26.4308333 86.3815,26.3305 C86.4305,26.2301667 86.4946667,26.1403333 86.574,26.061 C86.6533333,25.9816667 86.7431667,25.9093333 86.8435,25.844 C86.9438333,25.7786667 87.043,25.718 87.141,25.662 L87.141,25.662 L88.338,26.908 C88.2726667,26.9873333 88.2015,27.0643333 88.1245,27.139 C88.0475,27.2136667 87.9635,27.2801667 87.8725,27.3385 C87.7815,27.3968333 87.6835,27.4446667 87.5785,27.482 C87.4735,27.5193333 87.3603333,27.538 87.239,27.538 Z M101.903,28 C102.145667,28 102.372,27.9696667 102.582,27.909 C102.792,27.8483333 102.976333,27.7596667 103.135,27.643 C103.293667,27.5263333 103.4185,27.3828333 103.5095,27.2125 C103.6005,27.0421667 103.646,26.845 103.646,26.621 C103.646,26.453 103.618,26.2966667 103.562,26.152 C103.506,26.0073333 103.430167,25.8801667 103.3345,25.7705 C103.238833,25.6608333 103.125667,25.5721667 102.995,25.5045 C102.864333,25.4368333 102.724333,25.3983333 102.575,25.389 L102.575,25.389 L102.575,25.375 C102.827,25.291 103.032333,25.1591667 103.191,24.9795 C103.349667,24.7998333 103.429,24.5676667 103.429,24.283 C103.429,24.073 103.3905,23.8898333 103.3135,23.7335 C103.2365,23.5771667 103.1315,23.4488333 102.9985,23.3485 C102.8655,23.2481667 102.706833,23.1723333 102.5225,23.121 C102.338167,23.0696667 102.138667,23.044 101.924,23.044 L101.924,23.044 L100.202,23.044 L100.202,28 L101.903,28 Z M101.791,25.102 L100.874,25.102 L100.874,23.632 L101.931,23.632 C102.201667,23.632 102.4,23.7043333 102.526,23.849 C102.652,23.9936667 102.715,24.164 102.715,24.36 C102.715,24.4953333 102.6905,24.6096667 102.6415,24.703 C102.5925,24.7963333 102.526,24.8733333 102.442,24.934 C102.358,24.9946667 102.26,25.0378333 102.148,25.0635 C102.036,25.0891667 101.917,25.102 101.791,25.102 L101.791,25.102 Z M101.861,27.412 L100.874,27.412 L100.874,25.69 L101.868,25.69 C102.194667,25.69 102.453667,25.7635 102.645,25.9105 C102.836333,26.0575 102.932,26.278 102.932,26.572 C102.932,26.7493333 102.894667,26.8916667 102.82,26.999 C102.745333,27.1063333 102.654333,27.1915 102.547,27.2545 C102.439667,27.3175 102.324167,27.3595 102.2005,27.3805 C102.076833,27.4015 101.963667,27.412 101.861,27.412 L101.861,27.412 Z M111.587,28 L111.587,27.37 L108.934,27.37 L108.934,25.781 L111.286,25.781 L111.286,25.151 L108.934,25.151 L108.934,23.674 L111.461,23.674 L111.461,23.044 L108.262,23.044 L108.262,28 L111.587,28 Z M117.694,28 C118.137333,28 118.528167,27.93 118.8665,27.79 C119.204833,27.65 119.488333,27.4645 119.717,27.2335 C119.945667,27.0025 120.118333,26.7388333 120.235,26.4425 C120.351667,26.1461667 120.41,25.8393333 120.41,25.522 C120.41,25.368 120.393667,25.2 120.361,25.018 C120.328333,24.836 120.274667,24.654 120.2,24.472 C120.125333,24.29 120.023833,24.1126667 119.8955,23.94 C119.767167,23.7673333 119.606167,23.6145 119.4125,23.4815 C119.218833,23.3485 118.990167,23.2423333 118.7265,23.163 C118.462833,23.0836667 118.156,23.044 117.806,23.044 L117.806,23.044 L116.077,23.044 L116.077,28 L117.694,28 Z M117.596,27.37 L116.749,27.37 L116.749,23.674 L117.757,23.674 C118.158333,23.674 118.485,23.7405 118.737,23.8735 C118.989,24.0065 119.186167,24.1686667 119.3285,24.36 C119.470833,24.5513333 119.567667,24.7531667 119.619,24.9655 C119.670333,25.1778333 119.696,25.3633333 119.696,25.522 C119.696,25.83 119.64,26.0995 119.528,26.3305 C119.416,26.5615 119.264333,26.754 119.073,26.908 C118.881667,27.062 118.658833,27.1775 118.4045,27.2545 C118.150167,27.3315 117.880667,27.37 117.596,27.37 L117.596,27.37 Z M126.531,28 C126.974333,28 127.365167,27.93 127.7035,27.79 C128.041833,27.65 128.325333,27.4645 128.554,27.2335 C128.782667,27.0025 128.955333,26.7388333 129.072,26.4425 C129.188667,26.1461667 129.247,25.8393333 129.247,25.522 C129.247,25.368 129.230667,25.2 129.198,25.018 C129.165333,24.836 129.111667,24.654 129.037,24.472 C128.962333,24.29 128.860833,24.1126667 128.7325,23.94 C128.604167,23.7673333 128.443167,23.6145 128.2495,23.4815 C128.055833,23.3485 127.827167,23.2423333 127.5635,23.163 C127.299833,23.0836667 126.993,23.044 126.643,23.044 L126.643,23.044 L124.914,23.044 L124.914,28 L126.531,28 Z M126.433,27.37 L125.586,27.37 L125.586,23.674 L126.594,23.674 C126.995333,23.674 127.322,23.7405 127.574,23.8735 C127.826,24.0065 128.023167,24.1686667 128.1655,24.36 C128.307833,24.5513333 128.404667,24.7531667 128.456,24.9655 C128.507333,25.1778333 128.533,25.3633333 128.533,25.522 C128.533,25.83 128.477,26.0995 128.365,26.3305 C128.253,26.5615 128.101333,26.754 127.91,26.908 C127.718667,27.062 127.495833,27.1775 127.2415,27.2545 C126.987167,27.3315 126.717667,27.37 126.433,27.37 L126.433,27.37 Z M134.535,28 L134.535,23.044 L133.863,23.044 L133.863,28 L134.535,28 Z M140.131,28 L140.131,23.926 L140.145,23.926 L142.903,28 L143.757,28 L143.757,23.044 L143.085,23.044 L143.085,27.118 L143.071,27.118 L140.341,23.044 L139.459,23.044 L139.459,28 L140.131,28 Z M151.026,28.126 C151.175333,28.126 151.335167,28.1166667 151.5055,28.098 C151.675833,28.0793333 151.843833,28.0501667 152.0095,28.0105 C152.175167,27.9708333 152.335,27.923 152.489,27.867 C152.643,27.811 152.780667,27.7456667 152.902,27.671 L152.902,27.671 L152.902,25.228 L151.131,25.228 L151.131,25.858 L152.23,25.858 L152.23,27.237 C152.080667,27.321 151.899833,27.3851667 151.6875,27.4295 C151.475167,27.4738333 151.25,27.496 151.012,27.496 C150.736667,27.496 150.482333,27.4458333 150.249,27.3455 C150.015667,27.2451667 149.812667,27.1063333 149.64,26.929 C149.467333,26.7516667 149.332,26.5428333 149.234,26.3025 C149.136,26.0621667 149.087,25.802 149.087,25.522 C149.087,25.2513333 149.131333,24.9958333 149.22,24.7555 C149.308667,24.5151667 149.434667,24.3063333 149.598,24.129 C149.761333,23.9516667 149.957333,23.8105 150.186,23.7055 C150.414667,23.6005 150.671333,23.548 150.956,23.548 C151.208,23.548 151.448333,23.5865 151.677,23.6635 C151.905667,23.7405 152.122667,23.877 152.328,24.073 L152.328,24.073 L152.804,23.562 C152.608,23.3613333 152.365333,23.2038333 152.076,23.0895 C151.786667,22.9751667 151.413333,22.918 150.956,22.918 C150.578,22.918 150.230333,22.9845 149.913,23.1175 C149.595667,23.2505 149.323833,23.4336667 149.0975,23.667 C148.871167,23.9003333 148.693833,24.1756667 148.5655,24.493 C148.437167,24.8103333 148.373,25.1533333 148.373,25.522 C148.373,25.872 148.4325,26.2045 148.5515,26.5195 C148.6705,26.8345 148.843167,27.111 149.0695,27.349 C149.295833,27.587 149.5735,27.776 149.9025,27.916 C150.2315,28.056 150.606,28.126 151.026,28.126 Z M163.786,28.126 L163.786,22.708 L163.24,22.708 L163.24,28.126 L163.786,28.126 Z M176.413,28.126 C176.697667,28.126 176.9485,28.0898333 177.1655,28.0175 C177.3825,27.9451667 177.568,27.8611667 177.722,27.7655 C177.876,27.6698333 177.999667,27.5741667 178.093,27.4785 C178.186333,27.3828333 178.251667,27.3093333 178.289,27.258 L178.289,27.258 L177.722,26.831 C177.572667,27.041 177.390667,27.2043333 177.176,27.321 C176.961333,27.4376667 176.711667,27.496 176.427,27.496 C176.137667,27.496 175.878667,27.4446667 175.65,27.342 C175.421333,27.2393333 175.227667,27.0993333 175.069,26.922 C174.910333,26.7446667 174.789,26.5393333 174.705,26.306 C174.621,26.0726667 174.579,25.8253333 174.579,25.564 C174.579,25.284 174.623333,25.0215 174.712,24.7765 C174.800667,24.5315 174.9255,24.318 175.0865,24.136 C175.2475,23.954 175.441167,23.8105 175.6675,23.7055 C175.893833,23.6005 176.147,23.548 176.427,23.548 C176.655667,23.548 176.877333,23.597 177.092,23.695 C177.306667,23.793 177.484,23.933 177.624,24.115 L177.624,24.115 L178.184,23.688 C177.983333,23.4266667 177.7255,23.233 177.4105,23.107 C177.0955,22.981 176.774667,22.918 176.448,22.918 C176.065333,22.918 175.715333,22.9833333 175.398,23.114 C175.080667,23.2446667 174.808833,23.4278333 174.5825,23.6635 C174.356167,23.8991667 174.18,24.1791667 174.054,24.5035 C173.928,24.8278333 173.865,25.1813333 173.865,25.564 C173.865,25.8766667 173.923333,26.1858333 174.04,26.4915 C174.156667,26.7971667 174.325833,27.0713333 174.5475,27.314 C174.769167,27.5566667 175.0375,27.7526667 175.3525,27.902 C175.6675,28.0513333 176.021,28.126 176.413,28.126 Z M182.905,28 L183.395,26.775 L185.754,26.775 L186.251,28 L187.035,28 L184.914,23.044 L184.305,23.044 L182.121,28 L182.905,28 Z M185.509,26.187 L183.633,26.187 L184.571,23.912 L184.585,23.912 L185.509,26.187 Z M194.276,28 L194.276,27.37 L192.001,27.37 L192.001,23.044 L191.329,23.044 L191.329,28 L194.276,28 Z M199.284,28 L199.284,23.044 L198.612,23.044 L198.612,28 L199.284,28 Z M204.88,28 L204.88,25.858 L207.155,25.858 L207.155,25.228 L204.88,25.228 L204.88,23.674 L207.323,23.674 L207.323,23.044 L204.208,23.044 L204.208,28 L204.88,28 Z M214.151,28.126 C214.529,28.126 214.876667,28.0595 215.194,27.9265 C215.511333,27.7935 215.783167,27.6103333 216.0095,27.377 C216.235833,27.1436667 216.413167,26.8683333 216.5415,26.551 C216.669833,26.2336667 216.734,25.8906667 216.734,25.522 C216.734,25.1533333 216.669833,24.8103333 216.5415,24.493 C216.413167,24.1756667 216.235833,23.9003333 216.0095,23.667 C215.783167,23.4336667 215.511333,23.2505 215.194,23.1175 C214.876667,22.9845 214.529,22.918 214.151,22.918 C213.773,22.918 213.425333,22.9845 213.108,23.1175 C212.790667,23.2505 212.518833,23.4336667 212.2925,23.667 C212.066167,23.9003333 211.888833,24.1756667 211.7605,24.493 C211.632167,24.8103333 211.568,25.1533333 211.568,25.522 C211.568,25.8906667 211.632167,26.2336667 211.7605,26.551 C211.888833,26.8683333 212.066167,27.1436667 212.2925,27.377 C212.518833,27.6103333 212.790667,27.7935 213.108,27.9265 C213.425333,28.0595 213.773,28.126 214.151,28.126 Z M214.151,27.496 C213.866333,27.496 213.609667,27.4435 213.381,27.3385 C213.152333,27.2335 212.956333,27.0923333 212.793,26.915 C212.629667,26.7376667 212.503667,26.5288333 212.415,26.2885 C212.326333,26.0481667 212.282,25.7926667 212.282,25.522 C212.282,25.2513333 212.326333,24.9958333 212.415,24.7555 C212.503667,24.5151667 212.629667,24.3063333 212.793,24.129 C212.956333,23.9516667 213.152333,23.8105 213.381,23.7055 C213.609667,23.6005 213.866333,23.548 214.151,23.548 C214.435667,23.548 214.692333,23.6005 214.921,23.7055 C215.149667,23.8105 215.345667,23.9516667 215.509,24.129 C215.672333,24.3063333 215.798333,24.5151667 215.887,24.7555 C215.975667,24.9958333 216.02,25.2513333 216.02,25.522 C216.02,25.7926667 215.975667,26.0481667 215.887,26.2885 C215.798333,26.5288333 215.672333,26.7376667 215.509,26.915 C215.345667,27.0923333 215.149667,27.2335 214.921,27.3385 C214.692333,27.4435 214.435667,27.496 214.151,27.496 Z M222.022,28 L222.022,25.816 L222.771,25.816 L224.031,28 L224.871,28 L223.464,25.739 C223.650667,25.7203333 223.819833,25.6701667 223.9715,25.5885 C224.123167,25.5068333 224.2515,25.4065 224.3565,25.2875 C224.4615,25.1685 224.542,25.0355 224.598,24.8885 C224.654,24.7415 224.682,24.5886667 224.682,24.43 C224.682,24.276 224.658667,24.1161667 224.612,23.9505 C224.565333,23.7848333 224.4825,23.6355 224.3635,23.5025 C224.2445,23.3695 224.082333,23.2598333 223.877,23.1735 C223.671667,23.0871667 223.410333,23.044 223.093,23.044 L223.093,23.044 L221.35,23.044 L221.35,28 L222.022,28 Z M222.904,25.228 L222.022,25.228 L222.022,23.632 L222.904,23.632 C223.034667,23.632 223.164167,23.6425 223.2925,23.6635 C223.420833,23.6845 223.535167,23.723 223.6355,23.779 C223.735833,23.835 223.816333,23.9155 223.877,24.0205 C223.937667,24.1255 223.968,24.262 223.968,24.43 C223.968,24.598 223.937667,24.7345 223.877,24.8395 C223.816333,24.9445 223.735833,25.025 223.6355,25.081 C223.535167,25.137 223.420833,25.1755 223.2925,25.1965 C223.164167,25.2175 223.034667,25.228 222.904,25.228 L222.904,25.228 Z M229.949,28 L229.949,23.926 L229.963,23.926 L232.721,28 L233.575,28 L233.575,23.044 L232.903,23.044 L232.903,27.118 L232.889,27.118 L230.159,23.044 L229.277,23.044 L229.277,28 L229.949,28 Z M239.171,28 L239.171,23.044 L238.499,23.044 L238.499,28 L239.171,28 Z M244.249,28 L244.739,26.775 L247.098,26.775 L247.595,28 L248.379,28 L246.258,23.044 L245.649,23.044 L243.465,28 L244.249,28 Z M246.853,26.187 L244.977,26.187 L245.915,23.912 L245.929,23.912 L246.853,26.187 Z" id="MATTRESSES&amp;BEDDING|CALIFORNIA" fill="#38414F" fill-rule="nonzero"></path>
    </g>
</svg>