<?xml version="1.0" encoding="UTF-8"?>
<svg width="260px" height="43px" viewBox="0 0 260 43" version="1.1" xmlns="http://www.w3.org/2000/svg" xmlns:xlink="http://www.w3.org/1999/xlink">
    <!-- Generator: Sketch 49.1 (51147) - http://www.bohemiancoding.com/sketch -->
    <title>logo-bh-new-desktop-dark260</title>
    <desc>Created with Sketch.</desc>
    <defs></defs>
    <g id="logo-bh-new-desktop-dark260" stroke="none" stroke-width="1" fill="none" fill-rule="evenodd">
        <g id="trees">
            <polygon id="Fill-1" fill="#53585A" points="35.5931504 10.472094 39.8775439 8.62686292 40 8.3558923 36.5963484 9.19195507 39.656181 5.2794549 39.3882428 4.86063428 33.1178625 10.4036936 32.6102454 2.17776199 31.6530992 0 30.8607978 17.2537258 23.3710897 8.63528143 22.8325968 8.75840206 25.402605 12.7208871 22 11.8842982 22.1224561 12.1547426 26.1614141 13.9026347 30.6980463 20.8984123 29.7351436 40 34.747994 40 34.0017444 27.8063218 36.0144203 25.0087474 39.6389115 23.4334346 39.760321 23.1866672 36.7978253 23.925391 39.5897197 20.0376202 39.393476 19.274167 33.8583556 24.9834918 33.2717176 13.4480355"></polygon>
            <polygon id="Fill-2" fill="#888C8D" points="13.5935456 10.472094 17.8775403 8.62686292 18 8.3558923 14.5972961 9.19195507 17.6566943 5.2794549 17.3871784 4.86063428 11.1181858 10.4036936 10.6105539 2.17776199 9.65390318 0 8.86105539 17.2537258 1.37060619 8.63528143 0.83262102 8.75840206 3.40322721 12.7208871 0 11.8842982 0.12245966 12.1547426 4.16153511 13.9026347 8.69829917 20.8984123 7.73589184 40 12.7483646 40 12.0026167 27.8063218 14.0148277 25.0087474 17.6383777 23.4334346 17.760314 23.1866672 14.7982556 23.925391 17.5897078 20.0376202 17.3934584 19.274167 11.8592237 24.9834918 11.273092 13.4480355"></polygon>
            <polygon id="Fill-3" fill="#888C8D" points="58.5924989 10.472094 62.8764937 8.62686292 63 8.3558923 59.5967728 9.19195507 62.6566943 5.2794549 62.386655 4.86063428 56.1176625 10.4036936 55.6105539 2.17776199 54.6528565 0 53.8605321 17.2537258 46.3695595 8.63528143 45.8320977 8.75840206 48.4027039 12.7208871 45 11.8842982 45.1224597 12.1547426 49.1604884 13.9026347 53.6972525 20.8984123 52.7353685 40 57.7462713 40 57.0010467 27.8063218 59.0132577 25.0087474 62.637331 23.4334346 62.758744 23.1866672 59.7977322 23.925391 62.5881378 20.0376202 62.3924117 19.274167 56.8592237 24.9834918 56.271522 13.4480355"></polygon>
        </g>
        <path d="M74.62,9.4 L77.596,9.4 C79.42,9.4 80.204,10.52 80.204,11.848 C80.204,12.552 79.948,13.528 79.068,13.896 C80.3,14.248 80.716,15.336 80.716,16.296 C80.716,17.816 79.82,19 77.756,19 L74.62,19 L74.62,9.4 Z M77.756,18.216 C79.34,18.216 79.836,17.304 79.836,16.296 C79.836,15.288 79.356,14.344 77.756,14.344 L75.5,14.344 L75.5,18.216 L77.756,18.216 Z M77.596,13.56 C78.94,13.56 79.356,12.712 79.356,11.848 C79.356,10.984 78.94,10.184 77.596,10.184 L75.5,10.184 L75.5,13.56 L77.596,13.56 Z M90.3800001,14.984 L91.5480001,17.112 C92.1560001,18.216 92.7480001,18.376 93.5320001,18.376 C93.6600001,18.376 93.7720001,18.376 93.9000001,18.36 L93.9000001,19.048 C93.6600001,19.096 93.4200001,19.112 93.1960001,19.112 C92.1720001,19.112 91.3400001,18.584 90.6840001,17.352 L89.4520001,15.032 L87.6600001,15.032 L87.6600001,19 L86.7800001,19 L86.7800001,9.4 L89.7560001,9.4 C91.8200001,9.4 92.7160001,10.712 92.7160001,12.216 C92.7160001,13.576 91.9960001,14.744 90.3800001,14.984 Z M89.7560001,14.248 C91.3400001,14.248 91.8360001,13.224 91.8360001,12.216 C91.8360001,11.224 91.3400001,10.184 89.7560001,10.184 L87.6600001,10.184 L87.6600001,14.248 L89.7560001,14.248 Z M99.6600002,9.4 L105.1,9.4 L105.1,10.184 L100.54,10.184 L100.54,13.56 L104.3,13.56 L104.3,14.344 L100.54,14.344 L100.54,18.216 L105.1,18.216 L105.1,19 L99.6600002,19 L99.6600002,9.4 Z M111.42,9.4 L112.028,9.4 L117.836,17.224 L117.836,9.4 L118.668,9.4 L118.668,19 L118.06,19 L112.252,11.176 L112.252,19 L111.42,19 L111.42,9.4 Z M127.836,10.184 L124.412,10.184 L124.412,9.4 L132.14,9.4 L132.14,10.184 L128.716,10.184 L128.716,19 L127.836,19 L127.836,10.184 Z M137.052,9.4 L137.98,9.4 L140.572,17.336 L143.1,9.4 L143.708,9.4 L146.22,17.336 L148.78,9.4 L149.66,9.4 L146.492,19 L145.884,19 L143.372,11.128 L140.828,19 L140.22,19 L137.052,9.4 Z M154.684001,14.2 C154.684001,11.272 156.764001,9.16 159.596001,9.16 C162.412001,9.16 164.508001,11.272 164.508001,14.2 C164.508001,17.144 162.412001,19.24 159.596001,19.24 C156.764001,19.24 154.684001,17.144 154.684001,14.2 Z M163.596001,14.2 C163.596001,11.672 161.884001,9.976 159.596001,9.976 C157.276001,9.976 155.596001,11.672 155.596001,14.2 C155.596001,16.728 157.276001,18.424 159.596001,18.424 C161.884001,18.424 163.596001,16.728 163.596001,14.2 Z M170.220001,14.2 C170.220001,11.272 172.300001,9.16 175.132001,9.16 C177.948001,9.16 180.044001,11.272 180.044001,14.2 C180.044001,17.144 177.948001,19.24 175.132001,19.24 C172.300001,19.24 170.220001,17.144 170.220001,14.2 Z M179.132001,14.2 C179.132001,11.672 177.420001,9.976 175.132001,9.976 C172.812001,9.976 171.132001,11.672 171.132001,14.2 C171.132001,16.728 172.812001,18.424 175.132001,18.424 C177.420001,18.424 179.132001,16.728 179.132001,14.2 Z M186.220001,9.4 L189.036001,9.4 C192.636001,9.4 194.172001,11.56 194.172001,14.2 C194.172001,16.84 192.636001,19 189.036001,19 L186.220001,19 L186.220001,9.4 Z M189.052001,18.168 C192.220001,18.168 193.260001,16.296 193.260001,14.2 C193.260001,12.104 192.220001,10.232 189.052001,10.232 L187.100001,10.232 L187.100001,18.168 L189.052001,18.168 Z M207.516001,9.4 L208.396001,9.4 L208.396001,13.56 L214.124001,13.56 L214.124001,9.4 L215.004001,9.4 L215.004001,19 L214.124001,19 L214.124001,14.344 L208.396001,14.344 L208.396001,19 L207.516001,19 L207.516001,9.4 Z M221.180001,14.2 C221.180001,11.272 223.260001,9.16 226.092001,9.16 C228.908001,9.16 231.004001,11.272 231.004001,14.2 C231.004001,17.144 228.908001,19.24 226.092001,19.24 C223.260001,19.24 221.180001,17.144 221.180001,14.2 Z M230.092001,14.2 C230.092001,11.672 228.380001,9.976 226.092001,9.976 C223.772001,9.976 222.092001,11.672 222.092001,14.2 C222.092001,16.728 223.772001,18.424 226.092001,18.424 C228.380001,18.424 230.092001,16.728 230.092001,14.2 Z M237.180001,9.4 L238.172001,9.4 L241.932001,17.832 L245.692001,9.4 L246.652001,9.4 L246.652001,19 L245.772001,19 L245.772001,12.472 C245.772001,11.72 245.788001,10.92 245.788001,10.904 C245.772001,10.936 245.452001,11.784 245.164001,12.44 L242.252001,19 L241.548001,19 L238.636001,12.44 C238.332001,11.752 238.044001,10.968 238.012001,10.904 C238.012001,10.92 238.028001,11.704 238.028001,12.472 L238.028001,19 L237.180001,19 L237.180001,9.4 Z M253.292001,9.4 L258.732001,9.4 L258.732001,10.184 L254.172001,10.184 L254.172001,13.56 L257.932001,13.56 L257.932001,14.344 L254.172001,14.344 L254.172001,18.216 L258.732001,18.216 L258.732001,19 L253.292001,19 L253.292001,9.4 Z" id="Brentwood-home" fill="#4A4A4A"></path>
        <path d="M74.816,40 L74.816,34.376 L75.368,34.376 L75.368,39.504 L77.976,39.504 L77.976,40 L74.816,40 Z M80.004,37.152 C80.004,35.536 81.276,34.28 82.868,34.28 C84.46,34.28 85.732,35.536 85.732,37.152 C85.732,38.8 84.46,40.096 82.868,40.096 C81.276,40.096 80.004,38.8 80.004,37.152 Z M80.58,37.152 C80.58,38.528 81.596,39.584 82.868,39.584 C84.132,39.584 85.156,38.528 85.156,37.152 C85.156,35.808 84.132,34.792 82.868,34.792 C81.596,34.792 80.58,35.808 80.58,37.152 Z M88.2239999,39.376 L88.5519999,38.952 C88.5519999,38.952 89.1359999,39.568 90.0239999,39.568 C90.6399999,39.568 91.1439999,39.2 91.1439999,38.592 C91.1439999,37.176 88.3359999,37.536 88.3359999,35.792 C88.3359999,34.984 89.0479999,34.28 90.0879999,34.28 C91.0639999,34.28 91.5919999,34.824 91.5919999,34.824 L91.3199999,35.288 C91.3199999,35.288 90.8239999,34.808 90.0879999,34.808 C89.3679999,34.808 88.9039999,35.28 88.9039999,35.776 C88.9039999,37.112 91.7119999,36.728 91.7119999,38.576 C91.7119999,39.416 91.0639999,40.096 90.0079999,40.096 C88.8559999,40.096 88.2239999,39.376 88.2239999,39.376 Z M101.84,40 L101.192,38.208 L98.9279999,38.208 L98.2879999,40 L97.7039999,40 L99.7679999,34.376 L100.36,34.376 L102.424,40 L101.84,40 Z M100.072,34.96 L100.056,34.96 C100.056,34.96 99.9359999,35.424 99.8399999,35.688 L99.0879999,37.728 L101.024,37.728 L100.288,35.688 C100.192,35.424 100.072,34.96 100.072,34.96 Z M105.004,40 L105.004,34.376 L105.54,34.376 L108.412,38.424 C108.604,38.704 108.876,39.184 108.876,39.184 L108.892,39.184 C108.892,39.184 108.844,38.72 108.844,38.424 L108.844,34.376 L109.396,34.376 L109.396,40 L108.86,40 L105.988,35.952 C105.796,35.672 105.524,35.192 105.524,35.192 L105.508,35.192 C105.508,35.192 105.556,35.656 105.556,35.952 L105.556,40 L105.004,40 Z M112.312,37.184 C112.312,35.56 113.528,34.28 115.144,34.28 C116.448,34.28 117.144,34.936 117.144,34.936 L116.848,35.352 C116.848,35.352 116.192,34.792 115.168,34.792 C113.808,34.792 112.888,35.84 112.888,37.176 C112.888,38.56 113.84,39.584 115.12,39.584 C116.216,39.584 116.888,38.76 116.888,38.76 L116.888,37.808 L115.928,37.808 L115.928,37.312 L117.416,37.312 L117.416,40 L116.904,40 L116.904,39.576 C116.904,39.456 116.912,39.336 116.912,39.336 L116.896,39.336 C116.896,39.336 116.248,40.096 115.064,40.096 C113.528,40.096 112.312,38.856 112.312,37.184 Z M120.412,40 L120.412,34.376 L123.58,34.376 L123.58,34.872 L120.964,34.872 L120.964,36.92 L123.1,36.92 L123.1,37.416 L120.964,37.416 L120.964,39.504 L123.724,39.504 L123.724,40 L120.412,40 Z M126.64,40 L126.64,34.376 L127.192,34.376 L127.192,39.504 L129.8,39.504 L129.8,40 L126.64,40 Z M132.444,40 L132.444,34.376 L135.612,34.376 L135.612,34.872 L132.996,34.872 L132.996,36.92 L135.132,36.92 L135.132,37.416 L132.996,37.416 L132.996,39.504 L135.756,39.504 L135.756,40 L132.444,40 Z M138.256,39.376 L138.584,38.952 C138.584,38.952 139.168,39.568 140.056,39.568 C140.672,39.568 141.176,39.2 141.176,38.592 C141.176,37.176 138.368,37.536 138.368,35.792 C138.368,34.984 139.08,34.28 140.12,34.28 C141.096,34.28 141.624,34.824 141.624,34.824 L141.352,35.288 C141.352,35.288 140.856,34.808 140.12,34.808 C139.4,34.808 138.936,35.28 138.936,35.776 C138.936,37.112 141.744,36.728 141.744,38.576 C141.744,39.416 141.096,40.096 140.04,40.096 C138.888,40.096 138.256,39.376 138.256,39.376 Z" id="los-angeles" fill="#353535"></path>
        <rect id="Rectangle" fill="#888C8D" x="151" y="32" width="46" height="10"></rect>
        <path d="M155,37.8219178 C155,36.4986301 155.861302,35.6438356 156.999168,35.6438356 C158.129133,35.6438356 158.729674,36.5150685 158.729674,37.5917808 C158.729674,37.6986301 158.705968,37.9369863 158.705968,37.9369863 L155.790185,37.9369863 C155.829694,38.8493151 156.453941,39.309589 157.165107,39.309589 C157.852568,39.309589 158.350385,38.8246575 158.350385,38.8246575 L158.666459,39.4082192 C158.666459,39.4082192 158.07382,40 157.117696,40 C155.861302,40 155,39.0547945 155,37.8219178 Z M155.813891,37.3369863 L157.94739,37.3369863 C157.923685,36.6219178 157.496985,36.2767123 156.983365,36.2767123 C156.398628,36.2767123 155.924517,36.6547945 155.813891,37.3369863 Z M160.104596,39.3917808 L160.475983,38.8246575 C160.475983,38.8246575 160.926388,39.309589 161.621751,39.309589 C161.953629,39.309589 162.285506,39.1287671 162.285506,38.7917808 C162.285506,38.0273973 160.231025,38.1835616 160.231025,36.8273973 C160.231025,36.0712329 160.878977,35.6438356 161.677064,35.6438356 C162.554169,35.6438356 162.965065,36.1041096 162.965065,36.1041096 L162.656893,36.7041096 C162.656893,36.7041096 162.30131,36.3342466 161.669162,36.3342466 C161.337284,36.3342466 161.013308,36.4821918 161.013308,36.8438356 C161.013308,37.5917808 163.06779,37.4273973 163.06779,38.7917808 C163.06779,39.4821918 162.498856,40 161.621751,40 C160.641921,40 160.104596,39.3917808 160.104596,39.3917808 Z M164.901019,38.3808219 L164.901019,36.4410959 L164.379497,36.4410959 L164.379497,35.8 L164.924724,35.8 L164.924724,34.6 L165.667498,34.6 L165.667498,35.8 L166.631524,35.8 L166.631524,36.4410959 L165.667498,36.4410959 L165.667498,38.290411 C165.667498,39.1205479 166.22853,39.2273973 166.520898,39.2273973 C166.631524,39.2273973 166.702641,39.2109589 166.702641,39.2109589 L166.702641,39.9178082 C166.702641,39.9178082 166.592015,39.9342466 166.433978,39.9342466 C165.920358,39.9342466 164.901019,39.769863 164.901019,38.3808219 Z M168.330422,39.9013699 L168.330422,39.0547945 L169.136411,39.0547945 L169.136411,39.9013699 L168.330422,39.9013699 Z M173.74319,39.9013699 L173.74319,39.1945205 L174.975879,39.1945205 L174.975879,35.4465753 C174.975879,35.2657534 174.98378,35.0849315 174.98378,35.0849315 L174.967977,35.0849315 C174.967977,35.0849315 174.904762,35.2164384 174.699314,35.4219178 L174.177792,35.9561644 L173.703681,35.4465753 L175.039093,34.0986301 L175.734456,34.0986301 L175.734456,39.1945205 L176.951341,39.1945205 L176.951341,39.9013699 L173.74319,39.9013699 Z M179.685382,40 C179.021626,40 178.602828,39.7616438 178.602828,39.7616438 L178.855687,39.0547945 C178.855687,39.0547945 179.211271,39.2520548 179.653774,39.2520548 C180.681015,39.2520548 181.210439,38.2657534 181.328967,37.3041096 L181.313163,37.3041096 C181.084009,37.6328767 180.570389,37.8465753 180.080474,37.8465753 C179.021626,37.8465753 178.318361,37.0164384 178.318361,35.939726 C178.318361,34.7972603 179.069037,34 180.112082,34 C181.297359,34 182.19817,35.0767123 182.19817,36.7369863 C182.19817,38.2246575 181.415887,40 179.685382,40 Z M180.238511,37.1643836 C180.870659,37.1643836 181.376378,36.7616438 181.376378,36.3506849 C181.376378,35.5945205 180.83115,34.7479452 180.119983,34.7479452 C179.472032,34.7479452 179.092743,35.2657534 179.092743,35.939726 C179.092743,36.6465753 179.519443,37.1643836 180.238511,37.1643836 Z M183.881264,38.2246575 C183.881264,37.3369863 184.624038,36.7863014 184.774173,36.6794521 C184.410688,36.4082192 184.149927,36.0547945 184.149927,35.5205479 C184.149927,34.7479452 184.710959,34 185.888334,34 C186.923477,34 187.642545,34.6 187.642545,35.5534247 C187.642545,36.3260274 187.049906,36.9835616 186.97879,37.0657534 C187.40549,37.3369863 187.737367,37.6986301 187.737367,38.2986301 C187.737367,39.2027397 186.986692,40 185.82512,40 C184.710959,40 183.881264,39.2767123 183.881264,38.2246575 Z M186.931379,38.2739726 C186.931379,37.6493151 186.101684,37.4027397 185.351009,37.0246575 C185.169266,37.1561644 184.679351,37.5506849 184.679351,38.1753425 C184.679351,38.8410959 185.232481,39.2684932 185.82512,39.2684932 C186.409857,39.2684932 186.931379,38.8739726 186.931379,38.2739726 Z M184.924309,35.5369863 C184.924309,36.1780822 185.667083,36.4246575 186.386151,36.7452055 C186.473071,36.6547945 186.876066,36.2109589 186.876066,35.6027397 C186.876066,35.0684932 186.465169,34.7315068 185.880433,34.7315068 C185.264088,34.7315068 184.924309,35.0931507 184.924309,35.5369863 Z M189.673321,39.9013699 L191.84633,35.3315068 C192.004367,35.0027397 192.170306,34.7972603 192.170306,34.7972603 L192.170306,34.7808219 C192.170306,34.7808219 192.043876,34.8054795 191.759409,34.8054795 L189.270326,34.8054795 L189.270326,34.0986301 L193,34.0986301 L193,34.6575342 L190.47931,39.9013699 L189.673321,39.9013699 Z" id="est.-1987" fill="#FFFFFF"></path>
    </g>
</svg>