<?xml version="1.0" encoding="utf-8"?>
<!-- Generator: Adobe Illustrator 22.1.0, SVG Export Plug-In . SVG Version: 6.00 Build 0)  -->
<svg version="1.1" id="Layer_1" xmlns="http://www.w3.org/2000/svg" xmlns:xlink="http://www.w3.org/1999/xlink" x="0px" y="0px"
	 viewBox="0 0 132 129" style="enable-background:new 0 0 132 129;" xml:space="preserve">
<style type="text/css">
	.st0{fill:#93C847;}
	.st1{fill:none;stroke:#FEFEFE;stroke-width:1.8711;}
	.st2{fill:#FFFFFF;}
</style>
<title>logo-greenguard</title>
<desc>Created with Sketch.</desc>
<g id="logo-greenguard" transform="translate(524.000000, 1935.000000)">
	<g>
		<path class="st0" d="M-409.3-1852.2h-1.2v8.6h1.3c2.6,0,3.5-1.5,3.5-4.3C-405.8-1851.2-407.1-1852.2-409.3-1852.2z"/>
		<path class="st0" d="M-496.5-1852.2h-1.2v3.9h1.2c1.5,0,2.2-0.6,2.2-2S-495-1852.2-496.5-1852.2z"/>
		<path class="st0" d="M-430.4-1852.6L-430.4-1852.6c-0.3,0.9-0.5,1.8-0.9,3.1l-0.8,2.7h3.3l-0.8-2.6
			C-429.9-1850.8-430.1-1851.6-430.4-1852.6z"/>
		<path class="st0" d="M-419.9-1852.2h-1.2v3.9h1.2c1.5,0,2.2-0.6,2.2-2S-418.5-1852.2-419.9-1852.2z"/>
	</g>
	<path class="st0" d="M-458.8-1892.5c9.2,0,17.6,2.3,24.1,6.1c1.5-3.3,2.3-6.9,2.3-10.7c0-14.2-11.5-25.6-25.6-25.6
		s-25.6,11.5-25.6,25.6c0,3.5,0.7,6.9,2,10C-475.2-1890.5-467.3-1892.5-458.8-1892.5z"/>
	<g>
		<path class="st0" d="M-460.6-1821.7c-1.3,0-2.2,0.8-2.2,3.4c0,2.7,0.9,3.5,2.3,3.5c1.3,0,2.2-0.8,2.2-3.4
			C-458.4-1820.9-459.2-1821.7-460.6-1821.7z"/>
		<path class="st0" d="M-446.4-1821.6h-1.1v6.8h1.1c1.9,0,2.7-1,2.7-3.4C-443.6-1820.8-444.6-1821.6-446.4-1821.6z"/>
		<path class="st0" d="M-416.3-1935h-83.4c-13.4,0-24.3,11-24.3,24.4v80.3c0,13.4,10.9,24.4,24.3,24.4h83.4
			c13.4,0,24.3-11,24.3-24.4v-80.3C-392-1924-402.9-1935-416.3-1935z M-506.3-1843.5c0.5,0,1.2-0.1,1.5-0.3v-4.3h2.2v5.3
			c-0.9,0.6-2,1.1-4.2,1.1c-3.3,0-5.1-2.1-5.1-6.2c0-4.4,2.5-6.4,5.6-6.4c2.2,0,3.3,0.9,3.6,1.3l-1.4,1.6c-0.5-0.5-1.2-0.9-2.4-0.9
			c-1.7,0-3.3,0.9-3.3,4.2C-509.5-1844.8-508.4-1843.5-506.3-1843.5z M-493.7-1841.8l-2.1-4c-0.3-0.6-0.7-0.8-1.4-0.8h-0.5v4.7h-2.2
			v-12.2h3.6c2.6,0,4.2,1,4.2,3.5c0,2.1-1.2,3.1-2.6,3.4v0.1c0.6,0.3,1,0.7,1.6,1.7l2,3.5h-2.6V-1841.8z M-482.1-1841.8h-7.2v-12.2
			h7v1.8h-4.8v3.3h4.1v1.8h-4.1v3.5h5V-1841.8z M-472.5-1841.8h-7.2v-12.2h7v1.8h-4.8v3.3h4.1v1.8h-4.1v3.5h5V-1841.8z
			 M-465.8-1814.4c-0.6,0.5-1.5,0.8-2.9,0.8c-2.4,0-3.6-1.5-3.6-4.6c0-3.2,1.8-4.7,4-4.7c1.6,0,2.3,0.6,2.6,0.8l-0.8,0.9
			c-0.4-0.4-0.9-0.6-1.8-0.6c-1.3,0-2.6,0.7-2.6,3.4c0,2.6,0.9,3.6,2.6,3.6c0.5,0,1.1-0.1,1.4-0.3v-3.3h1.3v4H-465.8z
			 M-462.7-1848.9v-5.1h2.1v12.2h-2.7l-3.2-6.2c-0.6-1.1-1-2.2-1.5-3.4h-0.1c0.1,1.2,0.1,2.1,0.1,3.9v5.6h-2.1v-12.2h2.7l3.1,5.9
			c0.6,1.1,1.1,2.3,1.6,3.4h0.1C-462.7-1846.2-462.7-1847.7-462.7-1848.9z M-460.7-1813.6c-2.2,0-3.5-1.2-3.5-4.6
			c0-3.3,1.4-4.7,3.6-4.7s3.5,1.3,3.5,4.6C-457-1815-458.5-1813.6-460.7-1813.6z M-450.2-1813.8h-5v-9h1.3v7.9h3.7V-1813.8z
			 M-452.7-1843.5c0.5,0,1.2-0.1,1.5-0.3v-4.3h2.2v5.3c-0.9,0.6-2,1.1-4.2,1.1c-3.3,0-5.1-2.1-5.1-6.2c0-4.4,2.5-6.4,5.6-6.4
			c2.2,0,3.3,0.9,3.6,1.3l-1.4,1.6c-0.5-0.5-1.2-0.9-2.4-0.9c-1.7,0-3.3,0.9-3.3,4.2C-455.9-1844.8-454.8-1843.5-452.7-1843.5z
			 M-446.3-1813.8h-2.5v-9h2.5c2.8,0,4,1.4,4,4.4C-442.3-1815.6-443.4-1813.8-446.3-1813.8z M-437.1-1846.4c0,3.4-2.1,4.8-4.8,4.8
			c-3,0-4.4-1.8-4.4-4.3v-8h2.2v7.6c0,1.9,0.8,2.9,2.5,2.9c1.5,0,2.3-0.7,2.3-2.6v-7.9h2.2L-437.1-1846.4L-437.1-1846.4z
			 M-457.7-1865c-2.1,0-4.1-0.2-6-0.6v-7.2c0-3.8,1.3-11.3,9.9-14.2c-7.9,4.7-8.2,12.3-8.2,13.7l3.3-0.6c3.9-0.7,7.1-4.5,7.1-8.4v-7
			l-7,1.2c-3.9,0.7-7.3,4.7-7.3,8.9v5.5v1.1v6.4c-13.1-3.6-22.7-15.6-22.7-29.9c0-17.1,13.9-31,31-31s31,13.9,31,31
			C-426.7-1878.9-440.5-1865-457.7-1865z M-427.3-1841.8l-0.9-3.1h-4.4l-0.9,3.1h-2.2l3.8-12.2h3.1l3.8,12.2H-427.3z M-417.2-1841.8
			l-2.1-4c-0.3-0.6-0.7-0.8-1.4-0.8h-0.5v4.7h-2.2v-12.2h3.6c2.6,0,4.2,1,4.2,3.5c0,2.1-1.2,3.1-2.6,3.4v0.1c0.6,0.3,1,0.7,1.6,1.7
			l2,3.5h-2.6V-1841.8z M-409.2-1841.8h-3.6v-12.2h3.6c3.9,0,5.6,1.9,5.6,5.9C-403.6-1844.7-404.9-1841.8-409.2-1841.8z"/>
	</g>
	<path id="Stroke-3" class="st1" d="M-524-1830h132"/>
</g>
<g>
	<path class="st2" d="M68.3,29.5c-0.2,0.7-0.5,1.3-0.8,1.8c-0.4,0.5-0.9,0.9-1.5,1.2s-1.4,0.4-2.2,0.4s-1.6-0.1-2.2-0.4
		s-1.1-0.7-1.5-1.2c-0.4-0.5-0.7-1.1-0.8-1.8C59.1,28.8,59,28,59,27.3V16.3h3.2V27c0,0.4,0,0.8,0.1,1.1c0,0.3,0.1,0.6,0.2,0.9
		s0.3,0.4,0.5,0.6c0.2,0.1,0.5,0.2,0.8,0.2c0.3,0,0.6-0.1,0.8-0.2c0.2-0.1,0.4-0.3,0.5-0.6s0.2-0.5,0.2-0.9c0-0.3,0.1-0.7,0.1-1.1
		V16.3h3.2v10.9C68.6,28,68.5,28.8,68.3,29.5z"/>
</g>
<g>
	<path class="st2" d="M70.2,40V23.8h3.2V37h3.8v3H70.2z"/>
</g>
</svg>
