<?xml version="1.0" encoding="UTF-8"?>
<svg width="232px" height="35px" viewBox="0 0 232 35" version="1.1" xmlns="http://www.w3.org/2000/svg" xmlns:xlink="http://www.w3.org/1999/xlink">
    <!-- Generator: Sketch 49 (51002) - http://www.bohemiancoding.com/sketch -->
    <title>logo-bh-new-desktop-dark</title>
    <desc>Created with Sketch.</desc>
    <defs>
        <filter x="0.0%" y="0.0%" width="100.0%" height="100.0%" filterUnits="objectBoundingBox" id="filter-1">
            <feOffset dx="0" dy="0" in="SourceAlpha" result="shadowOffsetOuter1"></feOffset>
            <feColorMatrix values="0 0 0 0 0.453151573   0 0 0 0 0.453151573   0 0 0 0 0.453151573  0 0 0 1 0" type="matrix" in="shadowOffsetOuter1" result="shadowMatrixOuter1"></feColorMatrix>
            <feMerge>
                <feMergeNode in="shadowMatrixOuter1"></feMergeNode>
                <feMergeNode in="SourceGraphic"></feMergeNode>
            </feMerge>
        </filter>
    </defs>
    <g id="logo-bh-new-desktop-dark" stroke="none" stroke-width="1" fill="none" fill-rule="evenodd">
        <g id="trees">
            <polygon id="Fill-1" fill="#53585A" points="29.5235955 8.63947753 33.1025266 7.11716191 33.2048193 6.89361114 30.3616083 7.58336293 32.917613 4.35555029 32.6937932 4.01002328 27.4558852 8.58304724 27.0318516 1.79665364 26.2323078 0 25.5704656 14.2343238 19.3140026 7.12410718 18.8641773 7.2256817 21.0110114 10.4947319 18.1686747 9.80454599 18.2709673 10.0276627 21.6448761 11.4696737 25.4345126 17.2411902 24.6301601 33 28.8176014 33 28.1942282 22.9402155 29.8754997 20.6322166 32.9031871 19.3325836 33.0046055 19.1290004 30.5299103 19.7384476 32.8620952 16.5310367 32.6981647 15.9011878 28.0744497 20.6113808 27.5844067 11.0946293"></polygon>
            <polygon id="Fill-2" fill="#888C8D" points="11.3552509 8.63947753 14.933849 7.11716191 15.0361446 6.89361114 12.1937253 7.58336293 14.7493671 4.35555029 14.5242293 4.01002328 9.28748049 8.58304724 8.86343455 1.79665364 8.06430467 0 7.40200611 14.2343238 1.14492405 7.12410718 0.69552278 7.2256817 2.84285647 10.4947319 0 9.80454599 0.102295619 10.0276627 3.47630242 11.4696737 7.26604911 17.2411902 6.46211046 33 10.6492363 33 10.0262822 22.9402155 11.7071653 20.6322166 14.7340665 19.3325836 14.8359249 19.1290004 12.361595 19.7384476 14.6934105 16.5310367 14.5294752 15.9011878 9.90650014 20.6113808 9.41688008 11.0946293"></polygon>
            <polygon id="Fill-3" fill="#888C8D" points="48.318232 8.63947753 51.8968301 7.11716191 52 6.89361114 49.1571435 7.58336293 51.7132225 4.35555029 51.4876476 4.01002328 46.2508988 8.58304724 45.82729 1.79665364 45.0272858 0 44.3654244 14.2343238 38.1079051 7.12410718 37.658941 7.2256817 39.8062747 10.4947319 36.9638554 9.80454599 37.066151 10.0276627 40.4392835 11.4696737 44.2290302 17.2411902 43.4255287 33 47.6113431 33 46.9888261 22.9402155 48.6697093 20.6322166 51.6970476 19.3325836 51.7984689 19.1290004 49.3250133 19.7384476 51.6559545 16.5310367 51.4924563 15.9011878 46.8703556 20.6113808 46.379424 11.0946293"></polygon>
        </g>
        <g id="name" filter="url(#filter-1)" transform="translate(63.000000, 8.000000)" fill="#53585A">
            <path d="M5.3638263,7.35971017 C5.3638263,6.37615106 4.86990029,5.45397083 3.22470631,5.45397083 L0.904304963,5.45397083 L0.904304963,9.2355086 L3.22470631,9.2355086 C4.85256033,9.2355086 5.3638263,8.34426731 5.3638263,7.35971017 Z M4.86990029,3.01777825 C4.86990029,2.17194736 4.44165593,1.39098845 3.06023946,1.39098845 L0.904304963,1.39098845 L0.904304963,4.68798238 L3.06023946,4.68798238 C4.44165593,4.68798238 4.86990029,3.85961702 4.86990029,3.01777825 Z M3.06023946,0.625 C4.93558194,0.625 5.74162715,1.71884149 5.74162715,3.01777825 C5.74162715,3.70392426 5.47890055,4.65654442 4.57354468,5.01733246 C5.84041236,5.35965694 6.26865672,6.4230585 6.26865672,7.35971017 C6.26865672,8.84477963 5.3470118,10 3.22470631,10 L0,10 L0,0.625 L3.06023946,0.625 Z" id="Fill-1"></path>
            <path d="M16.1803234,3.34437151 C16.1803234,2.38645033 15.6998044,1.38216221 14.1657066,1.38216221 L12.1357487,1.38216221 L12.1357487,5.30559429 L14.1657066,5.30559429 C15.6998044,5.30559429 16.1803234,4.31709066 16.1803234,3.34437151 Z M15.9017115,8.07034621 C16.4906071,9.13629249 17.0636669,9.29117779 17.8218081,9.29117779 C17.9475052,9.29117779 18.0553869,9.29117779 18.1791045,9.27490003 L18.1791045,9.9388351 C17.9475052,9.98569531 17.7144213,10 17.4971732,10 C16.5049583,10 15.6998044,9.49144349 15.0648858,8.30218089 L13.8712587,6.06176997 L12.1357487,6.06176997 L12.1357487,9.8919749 L11.2835821,9.8919749 L11.2835821,0.625 L14.1657066,0.625 C16.1649825,0.625 17.0324901,1.89219852 17.0324901,3.34437151 C17.0324901,4.65695044 16.334723,5.78455488 14.7699432,6.01540303 L15.9017115,8.07034621 Z" id="Fill-3"></path>
            <polygon id="Fill-5" points="28.2089552 0.625 28.2089552 1.39098845 23.4792846 1.39098845 23.4792846 4.6884814 27.3789839 4.6884814 27.3789839 5.45397083 23.4792846 5.45397083 23.4792846 9.2355086 28.2089552 9.2355086 28.2089552 10 22.5671642 10 22.5671642 0.625"></polygon>
            <polygon id="Fill-7" points="33.8014651 0.625 39.3274122 8.26592191 39.3274122 0.625 40.119403 0.625 40.119403 10 39.5408461 10 34.0148991 2.36007612 34.0148991 10 33.2238806 10 33.2238806 0.625"></polygon>
            <polygon id="Fill-9" points="44.5074627 1.39098845 44.5074627 0.625 52.0298507 0.625 52.0298507 1.39098845 48.697122 1.39098845 48.697122 10 47.8406888 10 47.8406888 1.39098845"></polygon>
            <polygon id="Fill-11" points="57.3411242 0.625 59.9181963 8.37620429 62.4327723 0.625 63.0363925 0.625 65.5336932 8.37620429 68.0792633 0.625 68.9552239 0.625 65.8045094 10 65.1993649 10 62.7020641 2.31316868 60.1722452 10 59.5681169 10 56.4179104 0.625"></polygon>
            <path d="M77.7308215,0.809043443 C75.3626623,0.809043443 73.6471947,2.4915091 73.6471947,4.9987327 C73.6471947,7.50798398 75.3626623,9.1894358 77.7308215,9.1894358 C80.0676766,9.1894358 81.8154918,7.50798398 81.8154918,4.9987327 C81.8154918,2.4915091 80.0676766,0.809043443 77.7308215,0.809043443 M77.7308215,0 C80.606108,0 82.7462687,2.09509809 82.7462687,4.9987327 C82.7462687,7.92010949 80.606108,10 77.7308215,10 C74.839883,10 72.7164179,7.92010949 72.7164179,4.9987327 C72.7164179,2.09509809 74.839883,0 77.7308215,0" id="Fill-13"></path>
            <path d="M92.1482104,0.809043443 C89.7802975,0.809043443 88.0650084,2.4915091 88.0650084,4.9987327 C88.0650084,7.50798398 89.7802975,9.1894358 92.1482104,9.1894358 C94.4848223,9.1894358 96.2334991,7.50798398 96.2334991,4.9987327 C96.2334991,2.4915091 94.4848223,0.809043443 92.1482104,0.809043443 M92.1482104,0 C95.0242411,0 97.1641791,2.09509809 97.1641791,4.9987327 C97.1641791,7.92010949 95.0242411,10 92.1482104,10 C89.2575725,10 87.1343284,7.92010949 87.1343284,4.9987327 C87.1343284,2.09509809 89.2575725,0 92.1482104,0" id="Fill-15"></path>
            <path d="M108.767217,5.31200101 C108.767217,3.26564829 107.701493,1.43835161 104.453522,1.43835161 L102.452998,1.43835161 L102.452998,9.18814536 L104.453522,9.18814536 C107.701493,9.18814536 108.767217,7.3598507 108.767217,5.31200101 Z M104.437287,0.625 C108.127258,0.625 109.701493,2.73522328 109.701493,5.31200101 C109.701493,7.89127369 108.127258,10 104.437287,10 L101.552239,10 L101.552239,0.625 L104.437287,0.625 Z" id="Fill-17"></path>
            <polygon id="Fill-19" points="121.242682 0.625 121.242682 4.6884814 126.996124 4.6884814 126.996124 0.625 127.880597 0.625 127.880597 10 126.996124 10 126.996124 5.45397083 121.242682 5.45397083 121.242682 10 120.358209 10 120.358209 0.625"></polygon>
            <path d="M137.910448,0.809043443 C135.541492,0.809043443 133.826724,2.4915091 133.826724,4.9987327 C133.826724,7.50798398 135.541492,9.1894358 137.910448,9.1894358 C140.246538,9.1894358 141.994693,7.50798398 141.994693,4.9987327 C141.994693,2.4915091 140.246538,0.809043443 137.910448,0.809043443 M137.910448,0 C140.785435,0 142.925373,2.09509809 142.925373,4.9987327 C142.925373,7.92010949 140.785435,10 137.910448,10 C135.019288,10 132.895522,7.92010949 132.895522,4.9987327 C132.895522,2.09509809 135.019288,0 137.910448,0" id="Fill-21"></path>
            <path d="M148.298015,0.625 L152.031411,8.85975009 L155.763793,0.625 L156.716418,0.625 L156.716418,10 L155.841403,10 L155.841403,3.62507984 C155.841403,2.89152739 155.85865,2.10957045 155.85865,2.09410097 C155.841403,2.12553894 155.524369,2.95340528 155.238784,3.59364188 L152.348446,10 L151.649448,10 L148.759617,3.59364188 C148.456786,2.92296535 148.171201,2.15647788 148.139244,2.09410097 C148.139244,2.10957045 148.155983,2.87605791 148.155983,3.62507984 L148.155983,10 L147.313433,10 L147.313433,0.625 L148.298015,0.625 Z" id="Fill-23"></path>
            <polygon id="Fill-25" points="168 0.625 168 1.39098845 163.270244 1.39098845 163.270244 4.6884814 167.170107 4.6884814 167.170107 5.45397083 163.270244 5.45397083 163.270244 9.2355086 168 9.2355086 168 10 162.358209 10 162.358209 0.625"></polygon>
        </g>
        <path d="M62.816,33 L62.816,27.376 L63.368,27.376 L63.368,32.504 L65.976,32.504 L65.976,33 L62.816,33 Z M67.9262223,30.152 C67.9262223,28.536 69.1982223,27.28 70.7902223,27.28 C72.3822223,27.28 73.6542223,28.536 73.6542223,30.152 C73.6542223,31.8 72.3822223,33.096 70.7902223,33.096 C69.1982223,33.096 67.9262223,31.8 67.9262223,30.152 Z M68.5022223,30.152 C68.5022223,31.528 69.5182223,32.584 70.7902223,32.584 C72.0542223,32.584 73.0782223,31.528 73.0782223,30.152 C73.0782223,28.808 72.0542223,27.792 70.7902223,27.792 C69.5182223,27.792 68.5022223,28.808 68.5022223,30.152 Z M76.0684447,32.376 L76.3964447,31.952 C76.3964447,31.952 76.9804447,32.568 77.8684447,32.568 C78.4844447,32.568 78.9884447,32.2 78.9884447,31.592 C78.9884447,30.176 76.1804447,30.536 76.1804447,28.792 C76.1804447,27.984 76.8924447,27.28 77.9324447,27.28 C78.9084447,27.28 79.4364447,27.824 79.4364447,27.824 L79.1644447,28.288 C79.1644447,28.288 78.6684447,27.808 77.9324447,27.808 C77.2124447,27.808 76.7484447,28.28 76.7484447,28.776 C76.7484447,30.112 79.5564447,29.728 79.5564447,31.576 C79.5564447,32.416 78.9084447,33.096 77.8524447,33.096 C76.7004447,33.096 76.0684447,32.376 76.0684447,32.376 Z M89.5288894,33 L88.8808894,31.208 L86.6168894,31.208 L85.9768894,33 L85.3928894,33 L87.4568894,27.376 L88.0488894,27.376 L90.1128894,33 L89.5288894,33 Z M87.7608894,27.96 L87.7448894,27.96 C87.7448894,27.96 87.6248894,28.424 87.5288894,28.688 L86.7768894,30.728 L88.7128894,30.728 L87.9768894,28.688 C87.8808894,28.424 87.7608894,27.96 87.7608894,27.96 Z M92.6151117,33 L92.6151117,27.376 L93.1511117,27.376 L96.0231117,31.424 C96.2151117,31.704 96.4871117,32.184 96.4871117,32.184 L96.5031117,32.184 C96.5031117,32.184 96.4551117,31.72 96.4551117,31.424 L96.4551117,27.376 L97.0071117,27.376 L97.0071117,33 L96.4711117,33 L93.5991117,28.952 C93.4071117,28.672 93.1351117,28.192 93.1351117,28.192 L93.1191117,28.192 C93.1191117,28.192 93.1671117,28.656 93.1671117,28.952 L93.1671117,33 L92.6151117,33 Z M99.8453341,30.184 C99.8453341,28.56 101.061334,27.28 102.677334,27.28 C103.981334,27.28 104.677334,27.936 104.677334,27.936 L104.381334,28.352 C104.381334,28.352 103.725334,27.792 102.701334,27.792 C101.341334,27.792 100.421334,28.84 100.421334,30.176 C100.421334,31.56 101.373334,32.584 102.653334,32.584 C103.749334,32.584 104.421334,31.76 104.421334,31.76 L104.421334,30.808 L103.461334,30.808 L103.461334,30.312 L104.949334,30.312 L104.949334,33 L104.437334,33 L104.437334,32.576 C104.437334,32.456 104.445334,32.336 104.445334,32.336 L104.429334,32.336 C104.429334,32.336 103.781334,33.096 102.597334,33.096 C101.061334,33.096 99.8453341,31.856 99.8453341,30.184 Z M107.867556,33 L107.867556,27.376 L111.035556,27.376 L111.035556,27.872 L108.419556,27.872 L108.419556,29.92 L110.555556,29.92 L110.555556,30.416 L108.419556,30.416 L108.419556,32.504 L111.179556,32.504 L111.179556,33 L107.867556,33 Z M114.017779,33 L114.017779,27.376 L114.569779,27.376 L114.569779,32.504 L117.177779,32.504 L117.177779,33 L114.017779,33 Z M119.744001,33 L119.744001,27.376 L122.912001,27.376 L122.912001,27.872 L120.296001,27.872 L120.296001,29.92 L122.432001,29.92 L122.432001,30.416 L120.296001,30.416 L120.296001,32.504 L123.056001,32.504 L123.056001,33 L119.744001,33 Z M125.478223,32.376 L125.806223,31.952 C125.806223,31.952 126.390223,32.568 127.278223,32.568 C127.894223,32.568 128.398223,32.2 128.398223,31.592 C128.398223,30.176 125.590223,30.536 125.590223,28.792 C125.590223,27.984 126.302223,27.28 127.342223,27.28 C128.318223,27.28 128.846223,27.824 128.846223,27.824 L128.574223,28.288 C128.574223,28.288 128.078223,27.808 127.342223,27.808 C126.622223,27.808 126.158223,28.28 126.158223,28.776 C126.158223,30.112 128.966223,29.728 128.966223,31.576 C128.966223,32.416 128.318223,33.096 127.262223,33.096 C126.110223,33.096 125.478223,32.376 125.478223,32.376 Z" id="LOS-ANGELES" fill="#53585A"></path>
        <rect id="Rectangle" fill="#888C8D" x="139" y="25" width="45" height="10"></rect>
        <path d="M142.7312,30.976 C142.7312,29.688 143.6032,28.856 144.7552,28.856 C145.8992,28.856 146.5072,29.704 146.5072,30.752 C146.5072,30.856 146.4832,31.088 146.4832,31.088 L143.5312,31.088 C143.5712,31.976 144.2032,32.424 144.9232,32.424 C145.6192,32.424 146.1232,31.952 146.1232,31.952 L146.4432,32.52 C146.4432,32.52 145.8432,33.096 144.8752,33.096 C143.6032,33.096 142.7312,32.176 142.7312,30.976 Z M143.5552,30.504 L145.7152,30.504 C145.6912,29.808 145.2592,29.472 144.7392,29.472 C144.1472,29.472 143.6672,29.84 143.5552,30.504 Z M147.8992,32.504 L148.2752,31.952 C148.2752,31.952 148.7312,32.424 149.4352,32.424 C149.7712,32.424 150.1072,32.248 150.1072,31.92 C150.1072,31.176 148.0272,31.328 148.0272,30.008 C148.0272,29.272 148.6832,28.856 149.4912,28.856 C150.3792,28.856 150.7952,29.304 150.7952,29.304 L150.4832,29.888 C150.4832,29.888 150.1232,29.528 149.4832,29.528 C149.1472,29.528 148.8192,29.672 148.8192,30.024 C148.8192,30.752 150.8992,30.592 150.8992,31.92 C150.8992,32.592 150.3232,33.096 149.4352,33.096 C148.4432,33.096 147.8992,32.504 147.8992,32.504 Z M152.7552,31.52 L152.7552,29.632 L152.2272,29.632 L152.2272,29.008 L152.7792,29.008 L152.7792,27.84 L153.5312,27.84 L153.5312,29.008 L154.5072,29.008 L154.5072,29.632 L153.5312,29.632 L153.5312,31.432 C153.5312,32.24 154.0992,32.344 154.3952,32.344 C154.5072,32.344 154.5792,32.328 154.5792,32.328 L154.5792,33.016 C154.5792,33.016 154.4672,33.032 154.3072,33.032 C153.7872,33.032 152.7552,32.872 152.7552,31.52 Z M156.2272,33 L156.2272,32.176 L157.0432,32.176 L157.0432,33 L156.2272,33 Z M161.7072,33 L161.7072,32.312 L162.9552,32.312 L162.9552,28.664 C162.9552,28.488 162.9632,28.312 162.9632,28.312 L162.9472,28.312 C162.9472,28.312 162.8832,28.44 162.6752,28.64 L162.1472,29.16 L161.6672,28.664 L163.0192,27.352 L163.7232,27.352 L163.7232,32.312 L164.9552,32.312 L164.9552,33 L161.7072,33 Z M167.7232,33.096 C167.0512,33.096 166.6272,32.864 166.6272,32.864 L166.8832,32.176 C166.8832,32.176 167.2432,32.368 167.6912,32.368 C168.7312,32.368 169.2672,31.408 169.3872,30.472 L169.3712,30.472 C169.1392,30.792 168.6192,31 168.1232,31 C167.0512,31 166.3392,30.192 166.3392,29.144 C166.3392,28.032 167.0992,27.256 168.1552,27.256 C169.3552,27.256 170.2672,28.304 170.2672,29.92 C170.2672,31.368 169.4752,33.096 167.7232,33.096 Z M168.2832,30.336 C168.9232,30.336 169.4352,29.944 169.4352,29.544 C169.4352,28.808 168.8832,27.984 168.1632,27.984 C167.5072,27.984 167.1232,28.488 167.1232,29.144 C167.1232,29.832 167.5552,30.336 168.2832,30.336 Z M171.9712,31.368 C171.9712,30.504 172.7232,29.968 172.8752,29.864 C172.5072,29.6 172.2432,29.256 172.2432,28.736 C172.2432,27.984 172.8112,27.256 174.0032,27.256 C175.0512,27.256 175.7792,27.84 175.7792,28.768 C175.7792,29.52 175.1792,30.16 175.1072,30.24 C175.5392,30.504 175.8752,30.856 175.8752,31.44 C175.8752,32.32 175.1152,33.096 173.9392,33.096 C172.8112,33.096 171.9712,32.392 171.9712,31.368 Z M175.0592,31.416 C175.0592,30.808 174.2192,30.568 173.4592,30.2 C173.2752,30.328 172.7792,30.712 172.7792,31.32 C172.7792,31.968 173.3392,32.384 173.9392,32.384 C174.5312,32.384 175.0592,32 175.0592,31.416 Z M173.0272,28.752 C173.0272,29.376 173.7792,29.616 174.5072,29.928 C174.5952,29.84 175.0032,29.408 175.0032,28.816 C175.0032,28.296 174.5872,27.968 173.9952,27.968 C173.3712,27.968 173.0272,28.32 173.0272,28.752 Z M177.8352,33 L180.0352,28.552 C180.1952,28.232 180.3632,28.032 180.3632,28.032 L180.3632,28.016 C180.3632,28.016 180.2352,28.04 179.9472,28.04 L177.4272,28.04 L177.4272,27.352 L181.2032,27.352 L181.2032,27.896 L178.6512,33 L177.8352,33 Z" id="est.-1987" fill="#FFFFFF"></path>
    </g>
</svg>