<?xml version="1.0" encoding="UTF-8"?>
<svg width="2048px" height="199px" viewBox="0 0 2048 199" version="1.1" xmlns="http://www.w3.org/2000/svg" xmlns:xlink="http://www.w3.org/1999/xlink">
    <!-- Generator: Sketch 55.1 (78136) - https://sketchapp.com -->
    <title>oceanowaves-pattern2</title>
    <desc>Created with Sketch.</desc>
    <defs>
        <polygon id="path-1" points="0.287422484 0.96903233 1306.28742 0.96903233 1306.28742 198.969032 0.287422484 198.969032"></polygon>
        <polygon id="path-3" points="0.287422484 0.96903233 1321.28742 0.96903233 1321.28742 198.969032 0.287422484 198.969032"></polygon>
        <polygon id="path-5" points="3.26158853e-14 0 1322 0 1322 290 3.26158853e-14 290"></polygon>
        <polygon id="path-7" points="3.26158853e-14 0 1322 0 1322 295 3.26158853e-14 295"></polygon>
    </defs>
    <g id="oceanowaves-pattern2" stroke="none" stroke-width="1" fill="none" fill-rule="evenodd">
        <g id="Group-16" transform="translate(-158.000000, -28.000000)">
            <mask id="mask-2" fill="white">
                <use xlink:href="#path-1"></use>
            </mask>
            <g id="Clip-15"></g>
            <path d="M1373.06467,507.351455 L0.282244766,507.351455 L-45,88 C-11.1565541,54.9672394 43.0224476,22.5683279 113,58 C192,98 274,28 367,69 C460,110 562.573202,39.0298238 700,54 C837.426798,68.9701762 978.898491,146.210939 1307,54 C1341.85546,44.2040847 1354.28367,55.6469334 1373.06467,48.512218 L1373.06467,507.351455 Z" id="Fill-14" fill="#EEF7FC" mask="url(#mask-2)"></path>
        </g>
        <g id="Group-16-Copy-3" transform="translate(1147.000000, -28.000000)">
            <mask id="mask-4" fill="white">
                <use xlink:href="#path-3"></use>
            </mask>
            <g id="Clip-15"></g>
            <path d="M1388.06467,507.351455 L15.2822448,507.351455 L-34,78 C-0.156554075,44.9672394 58.0224476,22.5683279 128,58 C207,98 289,28 382,69 C475,110 577.573202,39.0298238 715,54 C852.426798,68.9701762 993.898491,146.210939 1322,54 C1356.85546,44.2040847 1369.28367,55.6469334 1388.06467,48.512218 L1388.06467,507.351455 Z" id="Fill-14" fill="#EEF7FC" mask="url(#mask-4)"></path>
        </g>
        <g id="Group-16-Copy-5" transform="translate(-164.000000, -70.000000)">
            <mask id="mask-6" fill="white">
                <use xlink:href="#path-5"></use>
            </mask>
            <g id="Clip-15"></g>
            <path d="M1373,1080 L0.280179728,1080 L-45,185.803967 C-11.1580975,115.367193 43.0184335,46.2819959 112.992795,121.834042 C191.989192,207.127275 245,81 366.981211,145.289681 C488.962423,209.579363 562.545494,81.3833509 699.966025,113.304719 C837.386556,145.226087 966,243 1306.93834,113.304719 C1347.26544,97.9640158 1354.21986,116.816526 1373,101.602952 L1373,1080 Z" id="Fill-14" fill="#FAFAFA" mask="url(#mask-6)"></path>
        </g>
        <g id="Group-16-Copy-4" transform="translate(1158.000000, -65.000000)">
            <mask id="mask-8" fill="white">
                <use xlink:href="#path-7"></use>
            </mask>
            <g id="Clip-15"></g>
            <path d="M1373,1079 L0.280179728,1079 L-35,117 C-20,125 38,54 112.992795,120.919404 C202.63405,200.91028 273.985452,56.9551783 366.981211,144.372953 C459.97697,231.790728 562.545494,80.4723162 699.966025,112.390841 C837.386556,144.309365 978.851798,308.99755 1306.93834,112.390841 C1341.79221,91.5045693 1354.21986,115.902334 1373,100.690116 L1373,1079 Z" id="Fill-14" fill="#FAFAFA" mask="url(#mask-8)"></path>
        </g>
    </g>
</svg>