<?xml version="1.0" encoding="UTF-8"?>
<svg width="2048px" height="199px" viewBox="0 0 2048 199" version="1.1" xmlns="http://www.w3.org/2000/svg" xmlns:xlink="http://www.w3.org/1999/xlink">
    <!-- Generator: Sketch 55.1 (78136) - https://sketchapp.com -->
    <title>oceanowaves-pattern</title>
    <desc>Created with Sketch.</desc>
    <defs>
        <polygon id="path-1" points="0.287422484 0.96903233 1306.28742 0.96903233 1306.28742 198.969032 0.287422484 198.969032"></polygon>
        <polygon id="path-3" points="3.26158853e-14 0 1322 0 1322 179 3.26158853e-14 179"></polygon>
        <polygon id="path-5" points="0.287422484 0.96903233 1321.28742 0.96903233 1321.28742 198.969032 0.287422484 198.969032"></polygon>
        <polygon id="path-7" points="3.26158853e-14 0 1322 0 1322 179 3.26158853e-14 179"></polygon>
    </defs>
    <g id="oceanowaves-pattern" stroke="none" stroke-width="1" fill="none" fill-rule="evenodd">
        <g id="Group-16" transform="translate(-158.000000, 0.000000)">
            <mask id="mask-2" fill="white">
                <use xlink:href="#path-1"></use>
            </mask>
            <g id="Clip-15"></g>
            <path d="M1373.06467,507.351455 L0.282244766,507.351455 L-45,88 C-11.1565541,54.9672394 43.0224476,22.5683279 113,58 C192,98 274,28 367,69 C460,110 562.573202,39.0298238 700,54 C837.426798,68.9701762 978.898491,146.210939 1307,54 C1341.85546,44.2040847 1354.28367,55.6469334 1373.06467,48.512218 L1373.06467,507.351455 Z" id="Fill-14" fill="#EEF7FC" mask="url(#mask-2)"></path>
        </g>
        <g id="Group-16-Copy" transform="translate(-174.000000, 20.000000)">
            <mask id="mask-4" fill="white">
                <use xlink:href="#path-3"></use>
            </mask>
            <g id="Clip-15"></g>
            <path d="M1373,770 L0.280179728,770 L-45,132.061962 C-11.1580975,81.8109039 43.0184335,32.5240879 112.992795,86.4244883 C191.989192,147.274454 273.985452,40.7870144 366.981211,103.158229 C459.97697,165.529443 562.545494,57.5661242 699.966025,80.3394918 C837.386556,103.112859 978.851798,220.615302 1306.93834,80.3394918 C1341.79221,65.4374641 1354.21986,82.8448878 1373,71.9912082 L1373,770 Z" id="Fill-14" fill="#76BAE9" mask="url(#mask-4)"></path>
        </g>
        <g id="Group-16-Copy-3" transform="translate(1147.000000, 0.000000)">
            <mask id="mask-6" fill="white">
                <use xlink:href="#path-5"></use>
            </mask>
            <g id="Clip-15"></g>
            <path d="M1388.06467,507.351455 L15.2822448,507.351455 L-34,78 C-0.156554075,44.9672394 58.0224476,22.5683279 128,58 C207,98 289,28 382,69 C475,110 577.573202,39.0298238 715,54 C852.426798,68.9701762 993.898491,146.210939 1322,54 C1356.85546,44.2040847 1369.28367,55.6469334 1388.06467,48.512218 L1388.06467,507.351455 Z" id="Fill-14" fill="#EEF7FC" mask="url(#mask-6)"></path>
        </g>
        <g id="Group-16-Copy-2" transform="translate(1147.000000, 20.000000)">
            <mask id="mask-8" fill="white">
                <use xlink:href="#path-7"></use>
            </mask>
            <g id="Clip-15"></g>
            <path d="M1373,770 L0.280179728,770 L-48,124 C-32,83 43,34 112.992795,86.4244883 C193.553825,146.764568 273.985452,40.7870144 366.981211,103.158229 C459.97697,165.529443 562.545494,57.5661242 699.966025,80.3394918 C837.386556,103.112859 978.851798,220.615302 1306.93834,80.3394918 C1341.79221,65.4374641 1354.21986,82.8448878 1373,71.9912082 L1373,770 Z" id="Fill-14" fill="#76BAE9" mask="url(#mask-8)"></path>
        </g>
    </g>
</svg>