
<svg width="290px" height="77px" viewBox="0 0 290 77" version="1.1" xmlns="http://www.w3.org/2000/svg" xmlns:xlink="http://www.w3.org/1999/xlink">
    <!-- Generator: Sketch 45.2 (43514) - http://www.bohemiancoding.com/sketch -->
    <desc>Created with Sketch.</desc>
    <defs></defs>
    <g id="Page-1" stroke="none" stroke-width="1" fill="none" fill-rule="evenodd">
        <g id="Cedar-mobile-Copy-2" transform="translate(-15.000000, -1768.000000)" fill="#A39096">
            <g id="materials" transform="translate(-11.000000, 1509.000000)">
                <text id="2-Inch-Coconut-Husk" font-family="Avenir-Roman, Avenir" font-size="16" font-weight="normal" letter-spacing="0.147692263">
                    <tspan x="112.868924" y="278">2-Inch Coconut Husk</tspan>
                </text>
                <text id="Eco-friendly-and-sus" font-family="Avenir-Roman, Avenir" font-size="12" font-weight="normal" letter-spacing="0.110769205">
                    <tspan x="25.2446161" y="317">Eco-friendly and sustainable layer of organic coconut </tspan>
                    <tspan x="73.3987697" y="333">husk for its antimicrobial properties</tspan>
                </text>
                <g id="np_coconut_1042165_A39096" transform="translate(79.000000, 259.000000)" fill-rule="nonzero">
                    <path d="M19.9511344,9.94240776 C19.3852979,9.32716368 18.7377625,8.8817842 17.7316818,9.02793501 C16.9146295,9.14644079 15.9951492,9.64613699 16.0000193,10.3818714 C16.0012387,10.6090081 16.3768273,10.6396136 16.4792867,10.4747016 C16.5305038,10.5546939 16.5975769,10.6317208 16.6817203,10.7018383 C17.0878114,11.0385843 17.6828997,11.0464973 18.2133655,10.9378614 C18.6779914,10.8430567 19.1450523,10.6159301 19.2279689,10.2031382 C19.2486999,10.0964817 19.2389441,9.97007554 19.2035794,9.84169238 C19.3121138,9.93550851 19.4145482,10.039202 19.5145443,10.1478228 C19.7072222,10.3561958 20.1462208,10.1527608 19.9511048,9.94241281 L19.9511344,9.94240776 Z M18.7023918,10.1774448 C18.6109308,10.4233453 18.2902131,10.5063031 18.0072793,10.5586353 C17.3743853,10.6751666 16.5780622,10.3670516 16.9304886,9.75082405 C17.2146275,9.56812669 17.591448,9.45455328 17.9085038,9.41999384 C18.0243527,9.40715577 18.1316665,9.40616804 18.2341134,9.41406842 C18.2572835,9.46739665 18.3097216,9.511836 18.399962,9.52961124 C18.643857,9.57701355 18.7548234,10.0372078 18.7023918,10.1774428 L18.7023918,10.1774448 Z" id="Shape"></path>
                    <path d="M16.6238163,17.1205191 C16.5996381,17.1441781 16.5733576,17.1667118 16.5481282,17.1881151 C16.5996392,17.0765789 16.6353801,16.9560298 16.6490457,16.8219712 C16.6931963,16.3972212 16.5186926,15.9454466 16.2621956,15.6266318 C15.8837687,15.1568312 15.3055792,14.9990966 14.8167622,15.1883839 C14.776815,15.0092517 14.5245323,14.9089811 14.4183402,15.1140274 C13.9610633,15.9995506 13.7087697,16.9222505 14.5770739,17.61964 C15.3055631,18.2043454 16.2716522,18.0894405 16.930764,17.4495208 C17.1389068,17.2489824 16.8308988,16.9200182 16.6238136,17.1205537 L16.6238163,17.1205191 Z M15.7113614,17.4787892 C15.6882346,17.4968152 15.6703647,17.5170937 15.6566992,17.5385 C15.3959958,17.5418799 15.134243,17.4641435 14.8977195,17.2940214 C14.5907691,17.0743293 14.3521465,16.7250635 14.4120511,16.3127442 C14.4278192,16.2068408 14.4562018,16.1043176 14.4908931,16.0040527 C14.5318898,15.9894064 14.5707874,15.9601155 14.6002203,15.9139228 C14.958679,15.3708935 15.6609027,15.5229751 15.9920464,16.0096855 C16.3725992,16.5684912 16.202291,17.1025219 15.7113614,17.4788181 L15.7113614,17.4787892 Z" id="Shape"></path>
                    <path d="M20.6308656,12.4400047 C19.7505498,13.2142923 19.7836478,15.2159824 20.7797896,15.5397325 C20.6121111,15.6524021 20.6507216,16.0011936 20.8978268,15.9999969 C21.6854852,15.9987984 21.9281567,14.5772581 21.9877443,13.9575887 C22.0737906,13.0598275 21.7108538,12.0458036 20.7687673,12.0002681 C20.5326929,11.9894807 20.4874656,12.307111 20.6308741,12.4401582 L20.6308656,12.4400047 Z M21.1493347,12.6809256 C21.1647789,12.6749323 21.1791201,12.6689394 21.1923564,12.6605493 C21.5553046,12.9733758 21.5784619,13.6673625 21.506759,14.148032 C21.4802834,14.3206312 21.4140959,14.7341635 21.2894391,15.0601841 C21.2850265,15.0613827 21.280614,15.0613827 21.2762014,15.0625812 C20.1432734,15.3670277 20.222686,13.0093721 21.149339,12.6809581 L21.1493347,12.6809256 Z" id="Shape"></path>
                    <path d="M23.8619728,8.09329601 C22.6934572,5.61299488 20.7383392,3.58718443 18.4729687,2.08700791 C18.4664587,2.08155676 18.4610339,2.07719578 18.4534392,2.07174463 C18.4425893,2.06520302 18.4317393,2.05975187 18.4208891,2.05321026 C18.296116,1.97144157 18.1713428,1.89076417 18.0443921,1.81226656 C18.0053342,1.78719087 17.9662735,1.77847003 17.9293848,1.77847003 C16.514556,1.04909119 14.8946328,0.747102165 13.3150396,0.694770426 C12.8929908,0.680597038 12.4676644,0.68604847 12.0434491,0.708943536 C12.2712944,0.508338537 12.5338535,0.343709864 12.8213855,0.225956474 C12.9537525,0.171444944 12.8951628,-0.0466039675 12.7617126,0.00899885385 C12.3515795,0.177987109 11.9935532,0.423298764 11.6995216,0.732935196 C10.3400494,0.839778465 8.99032634,1.14067619 7.73595661,1.66619849 C7.72185193,1.67164993 7.71100199,1.67928171 7.69906796,1.68582303 C6.58913088,2.14371877 5.58226871,2.70410099 4.67737042,3.53814331 C3.34392383,4.76574821 2.1851574,5.99338103 1.49401943,7.70291241 C0.451354626,10.2857 0.551179802,13.1738817 1.55260909,15.7271124 C1.08498063,15.4338313 0.632545376,15.1165754 0.197469815,14.7720511 C0.0857178357,14.6837403 -0.0748607099,14.8418268 0.0390633145,14.9312262 C0.568520052,15.3498801 1.12078048,15.7325576 1.69692785,16.0781704 C1.96925837,16.7126823 2.29801762,17.3232192 2.67884761,17.9010454 C3.59241185,19.2834685 4.7685102,20.4565646 6.08579145,21.444253 C6.28325865,21.606699 6.49048061,21.7560664 6.70424092,21.8945292 C6.3028015,21.9097925 5.90136208,21.889078 5.49883941,21.8280246 C5.3577926,21.8073099 5.29703368,22.0242672 5.43916651,22.0449822 C5.96862325,22.1245711 6.49485803,22.142015 7.01998178,22.097314 C7.02215188,22.0994943 7.02540662,22.1005845 7.02757672,22.1027651 C7.05253107,22.1191186 7.07748653,22.128931 7.10244005,22.1343819 C8.45107985,22.895383 10.0383113,23.2736787 11.5465214,23.5833151 C14.3360156,24.1567873 17.4390954,24.3955596 19.8380661,22.5595668 C20.458682,22.0842271 21.0348016,21.5292874 21.5697024,20.9383714 C21.474224,21.3472009 21.3223253,21.7418799 21.1226833,22.1158495 C21.0543306,22.2434077 21.2474565,22.3578844 21.3168952,22.2292349 C21.5881397,21.7211844 21.7747467,21.1826001 21.8582954,20.6123935 C22.1512437,20.2744281 22.4311653,19.9288154 22.6991434,19.5821141 C23.111443,19.0489723 23.4857458,18.4896786 23.8047475,17.9009675 C23.9674953,18.1669858 24.1530246,18.4188424 24.2799587,18.706653 C24.3385483,18.8385736 24.5316742,18.7240969 24.4741706,18.5932675 C24.3287825,18.2629217 24.0976736,17.9870846 23.9262431,17.6720057 C24.2018289,17.1323329 24.4318407,16.5686851 24.6011047,15.9788576 C25.3519044,13.3764491 25.0079603,10.5254718 23.8622206,8.09309255 L23.8619728,8.09329601 Z M24.4315929,14.6739773 C24.2970539,15.5298175 24.0399027,16.3322375 23.6916256,17.0899453 C23.6243561,16.8490016 23.5863815,16.6015157 23.5766184,16.3452995 C23.5701083,16.2002973 23.3466038,16.2002973 23.3520284,16.3452995 C23.3672183,16.7028858 23.4268917,17.0506755 23.5494956,17.3843148 C23.1057263,18.2728658 22.5372172,19.0970838 21.8949086,19.8700584 C21.872124,19.3718045 21.777732,18.8866683 21.754945,18.3731474 C21.7484352,18.2281452 21.5238444,18.2281452 21.530355,18.3731474 C21.5553096,18.9618865 21.6985274,19.5320652 21.6800817,20.1240697 C21.3046679,20.559079 20.9064782,20.9788214 20.4963728,21.3832969 C19.53834,22.3296222 18.4544286,23.0284673 17.1372029,23.3424577 C15.7299845,23.678246 14.261049,23.5975742 12.8439426,23.3686236 C11.209965,23.1047851 9.32534119,22.7755305 7.7465813,21.9927314 C7.83880432,21.9382199 7.7780454,21.7648693 7.65001697,21.7888554 C7.57515364,21.8030285 7.50137356,21.8150212 7.42651023,21.825923 C7.38419702,21.8030279 7.34296706,21.7790421 7.30173709,21.755056 C7.28871733,21.7397927 7.27352829,21.7267104 7.25508257,21.7147173 C6.89052903,21.4759534 6.5335582,21.2219338 6.18855861,20.9548047 C6.1386488,20.9101036 6.09091103,20.864314 6.04208724,20.8174332 C6.05836203,20.7879962 6.06053185,20.7509286 6.03449231,20.713861 C5.59180626,20.0771721 5.14914799,19.4404553 4.70648971,18.80265 C4.62402978,18.6849022 4.42982065,18.7971989 4.5122778,18.9160355 C4.79436586,19.3215995 5.07645393,19.7282799 5.35856976,20.1349324 C5.31517053,20.129481 5.27068528,20.1349324 5.23054133,20.1501957 C4.06852517,19.090471 3.08010594,17.8552187 2.3727193,16.4618547 C2.38573906,16.4683963 2.39767392,16.4760278 2.40960795,16.4814793 C2.53763638,16.5490751 2.65047438,16.3550123 2.52244595,16.2863251 C2.4150325,16.2296338 2.30761906,16.1707599 2.20130552,16.1107947 C1.84977869,15.357441 1.57960632,14.559375 1.40817589,13.7209786 C1.10764489,12.251336 1.12717107,10.7119734 1.4721901,9.25087129 C3.11486143,9.29666086 4.75303313,9.41985954 6.38401097,9.62045896 C6.52722982,9.63790287 6.5261438,9.41222329 6.38401097,9.39477938 C4.7706428,9.19635417 3.15177508,9.07425795 1.52774112,9.02628021 C1.56679904,8.87800695 1.608029,8.73082219 1.6535975,8.58473989 C1.66661755,8.58910086 1.68072223,8.59237167 1.69699673,8.59128121 C2.08757593,8.57601793 2.47168343,8.52586794 2.85359667,8.44082816 C2.99464348,8.40921142 2.93497058,8.1922538 2.79392377,8.22387054 C2.44131369,8.30236815 2.0854261,8.34924901 1.72520554,8.36451314 C2.30457486,6.65500967 3.36026638,5.35550793 4.6774643,4.14643544 C5.09626342,3.76158085 5.50423008,3.36799036 5.97619152,3.04855742 C6.73351852,2.53724145 7.58847644,2.19054019 8.43910138,1.87437275 C8.44669632,1.87110223 8.45320606,1.86783143 8.45971609,1.86456062 C9.38194628,1.53748028 10.3443399,1.32597632 11.3186491,1.22022434 C11.2090664,1.39684327 11.1168434,1.58545802 11.0430633,1.78713756 C10.9931535,1.92341778 11.2101497,1.98229168 11.2589735,1.84709996 C11.3457719,1.61160714 11.4618652,1.39246973 11.6040008,1.19185077 C12.1269581,1.1460612 12.6520819,1.12861729 13.1750391,1.14061033 C13.3301903,1.14388113 13.4853471,1.15151263 13.6405011,1.15914441 C15.4860447,1.50258017 17.1960439,2.35186149 18.5859303,3.63182605 C18.6922577,3.72994736 18.8517503,3.57077235 18.7443368,3.47265104 C17.7114212,2.52197174 16.5049365,1.8002124 15.1974044,1.34231666 C16.248763,1.5363795 17.2697073,1.88198946 18.1821605,2.43801768 C22.2171086,5.10367086 25.2182523,9.6564484 24.4316499,14.673876 L24.4315929,14.6739773 Z" id="Shape"></path>
                    <path d="M11.0728582,11.1456011 C12.3672644,11.3462824 13.6205697,11.6935151 14.8757089,11.9960063 C15.000341,12.0256049 15.0533352,11.8819456 14.9296829,11.8523489 C13.6745185,11.550597 12.4213138,11.2026434 11.1268322,11.0019436 C10.9992556,10.9817295 10.9452791,11.1253888 11.0728582,11.1456011 Z" id="Shape"></path>
                    <path d="M19.5844536,4.90658243 C19.6571497,4.98937023 19.774752,5.02984574 19.8880739,4.9746523 C19.9821558,4.92865839 20.0398813,4.79619554 19.9671852,4.71340773 C19.783302,4.50735661 19.5994187,4.29946398 19.4155464,4.09341757 C19.3428503,4.01062977 19.225248,3.97015426 19.1119261,4.0253477 C19.0178442,4.07134161 18.9601187,4.20380446 19.0328148,4.28659227 C19.216698,4.49264339 19.4005813,4.70053602 19.5844536,4.90658243 Z" id="Shape"></path>
                    <path d="M21.1898911,7.93174535 C21.2299368,8.05148468 21.53645,8.00029852 21.4964005,7.88147412 C21.4086044,7.6200562 21.3500777,7.35681314 21.3192706,7.09083234 C21.3054084,6.97018044 20.9865755,6.96926553 21.0004392,7.09083234 C21.034325,7.3732629 21.0974738,7.65386831 21.1898911,7.93175939 L21.1898911,7.93174535 Z" id="Shape"></path>
                    <path d="M21.0305915,8.84573059 C20.9778565,9.00090537 21.3665265,9.06655848 21.4192615,8.91138064 C21.5149665,8.63564677 21.5071515,8.36109854 21.395824,8.08776039 C21.333324,7.93377736 20.942699,7.99943046 21.007154,8.15341044 C21.100904,8.38259279 21.110669,8.61296688 21.030592,8.84572448 L21.0305915,8.84573059 Z" id="Shape"></path>
                    <path d="M16.7976622,20.0190078 C16.0388954,20.4346201 15.1210096,20.7229874 14.0841435,20.872812 C13.9365066,20.8941254 13.9994539,21.0188749 14.147088,20.9975598 C15.2217488,20.8420944 16.179656,20.5411855 16.9659046,20.1105362 C17.0723394,20.0516094 16.9052484,19.9600858 16.797668,20.0190126 L16.7976622,20.0190078 Z" id="Shape"></path>
                    <path d="M13.8518736,22.0074189 C13.2622402,22.2380973 12.6737977,22.4672766 12.0841644,22.6979626 C11.9364687,22.7556303 11.9992667,23.0513694 12.1481264,22.9922216 C12.7377598,22.761547 13.3262023,22.5323638 13.9158356,22.3016779 C14.0635313,22.2454865 14.0007333,21.9497474 13.8518736,22.0074189 Z" id="Shape"></path>
                    <path d="M10.8248195,20.0178209 C10.2776841,20.3419246 9.68538568,20.6294616 9.04787408,20.8791943 C8.93687534,20.9225732 9.03903361,21.0334982 9.15003134,20.9901194 C9.80227874,20.7341837 10.4083322,20.4404598 10.968242,20.1082971 C11.0645049,20.0519049 10.9201093,19.9614303 10.8248295,20.0178225 L10.8248195,20.0178209 Z" id="Shape"></path>
                    <path d="M8.03502635,11.2136145 C8.25632633,11.4295814 8.40042757,11.6551762 8.48277114,11.8972797 C8.54452882,12.0774822 9.0566004,12.0004493 8.99484273,11.8216237 C8.90477863,11.5561338 8.73237096,11.3057935 8.49306079,11.0705569 C8.33094937,10.9096135 7.87033922,11.0526739 8.03502635,11.213618 L8.03502635,11.2136145 Z" id="Shape"></path>
                    <path d="M9.4790248,12.759929 C9.37789076,12.585506 9.33886064,12.3911891 9.37256744,12.1984038 C9.40805247,11.9995003 9.05497586,11.9138184 9.0194931,12.1142534 C8.96981179,12.3973112 9.01417069,12.6635187 9.16320917,12.9205841 C9.26789058,13.1011291 9.58370621,12.9420043 9.4790248,12.759929 L9.4790248,12.759929 Z" id="Shape"></path>
                    <path d="M14.7251813,7.96326814 C14.8724612,8.07788885 15.1003602,7.89794684 14.9515285,7.78332613 C14.6802223,7.57380447 14.4631622,7.33469371 14.2957563,7.0648012 C14.2042864,6.91813667 13.9267768,7.04631416 14.0182468,7.19297964 C14.1980831,7.48138033 14.4368408,7.74021085 14.7251774,7.96328076 L14.7251813,7.96326814 Z" id="Shape"></path>
                    <path d="M16.7801087,7.98895424 C17.0001167,8.0678478 17.0944019,7.70090376 16.8761417,7.62384669 C16.6281964,7.53578012 16.4413646,7.34496923 16.3313405,7.09727907 C16.231812,6.87711265 15.9210098,7.06975862 16.0187906,7.28808997 C16.1689551,7.62567848 16.4465811,7.87153685 16.7800729,7.98895894 L16.7801087,7.98895424 Z" id="Shape"></path>
                    <path d="M19.8207435,17.0301427 C19.5655184,17.2824411 19.3073188,17.5265142 19.0431446,17.7659129 C18.9398622,17.8597917 19.0411583,18.0710117 19.146427,17.9759672 C19.4245077,17.7248405 19.6976055,17.4678496 19.9657456,17.2026456 C20.0670425,17.101725 19.9210564,16.9303968 19.8207537,17.0301427 L19.8207435,17.0301427 Z" id="Shape"></path>
                    <path d="M19.8535269,18.0272735 C19.605737,18.2895128 19.344335,18.5132095 19.0664175,18.6924961 C18.9488374,18.7680566 19.0003412,19.0643706 19.1198616,18.9873271 C19.4142969,18.7976861 19.6922143,18.5695101 19.9555543,18.2910034 C20.0605022,18.1798852 19.9604129,17.9146837 19.8535219,18.0272849 L19.8535269,18.0272735 Z" id="Shape"></path>
                </g>
            </g>
        </g>
    </g>
</svg>
