
<svg width="83px" height="83px" viewBox="0 0 83 83" version="1.1" xmlns="http://www.w3.org/2000/svg" xmlns:xlink="http://www.w3.org/1999/xlink">
    <!-- Generator: Sketch 45.2 (43514) - http://www.bohemiancoding.com/sketch -->
    <desc>Created with Sketch.</desc>
    <defs></defs>
    <g id="Page-1" stroke="none" stroke-width="1" fill="none" fill-rule="evenodd">
        <g id="Cedar-Desktop" transform="translate(-81.000000, -797.000000)">
            <g id="Guatantees" transform="translate(-2.000000, 652.000000)">
                <circle id="Oval-2" fill="#FFFFFF" cx="124.5" cy="186.5" r="41.5"></circle>
                <g id="120-night" transform="translate(95.000000, 156.000000)">
                    <g id="np_calendar_1146238_454D5A" transform="translate(3.000000, 0.000000)" fill-rule="nonzero" fill="#454D5A">
                        <path d="M40.4576562,5.45875 L40.4576562,0.695234375 L37.0201562,0.695234375 L37.0201562,5.45539844 L16.2610937,5.45875516 L16.2610937,0.695239531 L12.8235938,0.695239531 L12.8235938,5.45540359 L0.281875,5.45876031 L0.281875,54.3056353 L52.999375,54.3056353 L52.999375,5.45876031 L40.4576562,5.45875 Z M12.8304687,8.89625 L12.8304687,15.3751641 L16.2679687,15.3751641 L16.2679687,8.89625 L37.0201562,8.89625 L37.0201562,15.3751641 L40.4576562,15.3751641 L40.4576562,8.89625 L49.561875,8.89625 L49.561875,19.7339063 L3.719375,19.7305495 L3.719375,8.89633078 L12.8304687,8.89625 Z M3.719375,50.868125 L3.719375,23.1679688 L49.561875,23.1679688 L49.561875,50.868125 L3.719375,50.868125 Z" id="Shape"></path>
                    </g>
                    <text id="120" font-family="Avenir-MediumOblique, Avenir" font-size="18" font-style="italic" font-weight="500" line-spacing="24" letter-spacing="-0.075000003" fill="#414A59">
                        <tspan x="11.003125" y="43">120</tspan>
                    </text>
                </g>
            </g>
        </g>
    </g>
</svg>
