
<svg width="287px" height="76px" viewBox="0 0 287 76" version="1.1" xmlns="http://www.w3.org/2000/svg" xmlns:xlink="http://www.w3.org/1999/xlink">
    <!-- Generator: Sketch 45.2 (43514) - http://www.bohemiancoding.com/sketch -->
    <desc>Created with Sketch.</desc>
    <defs></defs>
    <g id="Page-1" stroke="none" stroke-width="1" fill="none" fill-rule="evenodd">
        <g id="Cedar-mobile-Copy-2" transform="translate(-16.000000, -1951.000000)" fill="#A39096">
            <g id="materials" transform="translate(-11.000000, 1509.000000)">
                <text id="Allows-precise-body" font-family="Avenir-Roman, Avenir" font-size="12" font-weight="normal" letter-spacing="0.110769205">
                    <tspan x="27.4153853" y="501">Allows precise body contouring for optimal support. </tspan>
                    <tspan x="74.4909235" y="517">Reduce noise and motion isolation.</tspan>
                </text>
                <text id="Individually-Wrapped" font-family="Avenir-Roman, Avenir" font-size="16" font-weight="normal" letter-spacing="0.147692263">
                    <tspan x="91.0480006" y="461">Individually Wrapped Coils</tspan>
                </text>
                <g id="np_spring_9430_A39096" transform="translate(65.000000, 442.000000)" fill-rule="nonzero">
                    <path d="M0.857946461,4.99999137 C0.556604398,4.99999137 0.264205168,4.70439912 0.107948437,4.18060263 C-0.121962386,3.41179806 0.0275915058,2.44180776 0.440547561,2.01471968 C3.15148328,-0.78398331 12.1725167,0.112950559 13.1927997,0.224218469 C13.6648842,0.275921936 14.0253975,1.02899017 13.9985976,1.9068183 C13.9706959,2.7857686 13.561113,3.46238223 13.0923428,3.40282066 C10.4584069,3.11620869 3.20294028,2.80599652 1.27323108,4.79768346 C1.14153429,4.93480742 0.998677519,5 0.858060747,5 L0.857946461,4.99999137 Z" id="Shape"></path>
                    <path d="M1.03367909,5.09181815 C0.674089128,5.02066115 3.2933622,4.06755796 4.15906594,4.01137633 C6.14794848,3.88217296 11.3798461,4.89614117 10.9780918,4.89614117 C9.84158749,4.89614117 3.59081379,6 3.59081379,6 C3.59081379,5.9990638 1.31780517,5.14799979 1.03367909,5.09181815 L1.03367909,5.09181815 Z" id="Shape"></path>
                    <path d="M0.792900269,11 C0.506775865,11 0.229142685,10.7218448 0.0807768592,10.2289472 C-0.137523555,9.50549459 0.112568761,8.34947044 0.520557149,8.00254136 C3.08610042,5.81634387 11.2648039,4.9025717 12.233563,5.00816941 C12.6818074,5.05682288 13.0241149,5.76546744 12.9986684,6.59151228 C12.9721758,7.4186131 12.5832766,8.05531313 12.1381791,7.99926512 C9.63725599,7.72956045 3.23351675,9.00087292 1.18721317,10.810601 C1.05792954,10.9248307 0.926524462,10.9999242 0.793008783,10.9999242 L0.792900269,11 Z" id="Shape"></path>
                    <path d="M1.03367909,11.3951598 C0.674089128,11.3240052 3.2933622,10.067534 4.15906594,10.0113763 C6.14794848,9.88217303 11.3798461,10.8961406 10.9780918,10.8961406 C9.84158749,10.8961406 3.59081379,11.9999988 3.59081379,11.9999988 C3.59081379,12.000935 1.31780517,11.4522761 1.03367909,11.3951838 L1.03367909,11.3951598 Z" id="Shape"></path>
                    <path d="M0.792900269,18 C0.506775865,18 0.229142685,17.7218452 0.0807768592,17.2289482 C-0.137523555,16.5054966 0.112568761,15.3505299 0.520557149,15.0025453 C3.08610042,12.8152948 11.2648039,11.9025798 12.233563,12.0081774 C12.6818074,12.0568308 13.0241149,12.7654744 12.9986684,13.5915181 C12.9721758,14.4186179 12.5832766,15.055317 12.1381791,14.9992691 C9.63725599,14.7295648 3.23351675,16.0019316 1.18721317,17.8106013 C1.05792954,17.9248308 0.926524462,17.9999242 0.793008783,17.9999242 L0.792900269,18 Z" id="Shape"></path>
                    <path d="M1.03367909,18.0923331 C0.674089128,18.0211431 3.2933622,17.0675989 4.15906594,17.0113913 C6.14794848,16.8821281 11.3798461,17.8956303 10.9780918,17.8956303 C9.84158749,17.8956303 3.59081379,19 3.59081379,19 C3.59081379,19 1.31780517,18.1494759 1.03367909,18.0923331 Z" id="Shape"></path>
                    <path d="M0.792900269,25 C0.506775865,25 0.229142685,24.7218452 0.0807768592,24.2289482 C-0.137523555,23.5054966 0.112568761,22.3505299 0.520557149,22.0025453 C3.08610042,19.8152948 11.2648039,18.9025798 12.233563,19.0081774 C12.6818074,19.0568308 13.0241149,19.7654744 12.9986684,20.5915181 C12.9721758,21.4175619 12.5832766,22.055317 12.1381791,21.9992691 C9.63725599,21.7295648 3.23351675,23.0019316 1.18721317,24.8116843 C1.05792954,24.9259138 0.926524462,24.9999486 0.793008783,24.9999486 L0.792900269,25 Z" id="Shape"></path>
                    <path d="M2.05304622,25.1810916 C1.5105281,24.7804888 5.30815494,23.1780457 5.30815494,23.1780457 C5.30815494,23.1780457 12.0896315,22.7774429 12.6321496,23.1780457 C13.1746677,23.5786485 13.067656,25.0062069 12.6321496,25.7156521 C12.225261,26.3791853 2.82016684,25.7478985 2.05304622,25.1810916 Z" id="Shape"></path>
                </g>
            </g>
        </g>
    </g>
</svg>
