
<svg width="83px" height="83px" viewBox="0 0 83 83" version="1.1" xmlns="http://www.w3.org/2000/svg" xmlns:xlink="http://www.w3.org/1999/xlink">
    <!-- Generator: Sketch 45.2 (43514) - http://www.bohemiancoding.com/sketch -->
    <desc>Created with Sketch.</desc>
    <defs></defs>
    <g id="Page-1" stroke="none" stroke-width="1" fill="none" fill-rule="evenodd">
        <g id="Cedar-Desktop" transform="translate(-331.000000, -797.000000)">
            <g id="Guatantees" transform="translate(-2.000000, 652.000000)">
                <circle id="Oval-2-Copy" fill="#FFFFFF" cx="374.5" cy="186.5" r="41.5"></circle>
                <g id="made-in-ca" transform="translate(295.000000, 159.000000)" fill-rule="nonzero">
                    <g id="np_california_1012856_454D5A" transform="translate(57.000000, 0.000000)" stroke="#606877" stroke-width="2">
                        <path d="M43.1377146,36.5686944 L43.1699237,36.6341926 L42.2725562,37.0754767 L43.0963363,36.5085672 L43.1377146,36.5686944 Z M43.1137257,44.9150218 L44.2745394,45.8172803 L43.4051117,48.1980129 L42.2242215,48.2859482 L36.6586058,49.2694532 L30.8109065,50.1176543 L29.9460404,47.5869207 L28.1447566,45.2515685 L23.6883642,42.5526988 L21.8467616,42.4202257 L19.891562,40.8246634 L16.4700371,40.5168119 L14.8089962,39.2987099 L14.1996021,36.2974805 L10.0651831,31.1846001 L6.36435638,23.5487561 L6.48713539,22.5405905 L5.02791241,21.1497605 L4.90225284,21.0045109 L1.62104297,16.3794292 L1.12783038,12.1090897 L-1.07374585,9.05453535 L-0.0367422113,4.40481883 L-0.094185022,-0.982314804 L18.3756626,-1.0009854 L18.7976304,15.2190068 L26.4714962,21.7002615 L34.3730099,28.1749682 L42.2899902,34.4624843 L42.4849908,35.1721644 L42.7345743,35.7488936 L43.1377146,36.5686944 L43.6909656,37.3726271 L45.2425006,38.9561563 L43.5800878,40.5760845 L43.4508803,42.854869 L42.8084242,43.9439739 L42.9675853,44.4138738 L42.9809913,44.4565751 L43.1137257,44.9150218 Z" id="Shape"></path>
                    </g>
                    <g id="np_star_827230_454D5A" transform="translate(68.000000, 30.000000)" stroke="#414A59" fill="#414A59">
                        <polygon id="Shape" points="6.39395342 0 8.31528906 3.87142039 12.5511648 4.52265639 9.50314352 7.56688865 10.198782 11.8406545 6.39319562 9.85087986 2.58760927 11.8406545 3.28324772 7.56688865 0.235226442 4.52265639 4.47110218 3.87142039"></polygon>
                    </g>
                </g>
            </g>
        </g>
    </g>
</svg>
