
<svg width="83px" height="83px" viewBox="0 0 83 83" version="1.1" xmlns="http://www.w3.org/2000/svg" xmlns:xlink="http://www.w3.org/1999/xlink">
	<!-- Generator: Sketch 45.2 (43514) - http://www.bohemiancoding.com/sketch -->
	<desc>Created with Sketch.</desc>
	<defs></defs>
	<g id="Page-1" stroke="none" stroke-width="1" fill="none" fill-rule="evenodd">
		<g id="Cedar-Desktop" transform="translate(-598.000000, -797.000000)">
			<g id="Guatantees" transform="translate(-2.000000, 652.000000)">
				<circle id="Oval-2-Copy-2" fill="#FFFFFF" cx="641.5" cy="186.5" r="41.5"></circle>
				<g id="warranty" transform="translate(561.000000, 160.000000)">
					<g id="np_badge_367540_454D5A" transform="translate(57.000000, 0.000000)">
						<path d="M9.46581851,37.8415092 L4.46623603,49.0737056 L12.2586625,48.0323111 L16.699203,54.5194599 L21.9737478,42.6721327 L20.4747559,43.1815545 C19.5686209,43.48811 18.3717125,43.2491785 17.6549062,42.6202851 L15.8944549,41.0784764 C15.6329839,40.8485583 15.0221348,40.5961008 14.6727335,40.5713051 L12.3397374,40.4180302 C11.3862846,40.3549129 10.3718958,39.676411 9.94817109,38.8221524 L9.46581851,37.8415092 Z M24.7281028,42.6720173 L30.0026476,54.5193445 L34.4431881,48.0321957 L42.2356145,49.0735902 L37.236032,37.8413938 L36.7536564,38.82191 C36.3298912,39.6784768 35.3155428,40.354659 34.3620901,40.4177879 L32.0290939,40.5710628 C31.67971,40.5958573 31.068832,40.848316 30.8073725,41.0782341 L29.0469212,42.6200427 C28.3278645,43.2489073 27.1309561,43.4878619 26.2270715,43.1813121 L24.7281028,42.6720173 Z" id="Shape" fill="#808A9C" fill-rule="nonzero"></path>
						<path d="M26.6511961,45.8483558 C27.2478863,46.0521641 28.1245348,45.8778219 28.6033478,45.4603833 L30.518663,43.7807973 C30.9925792,43.3658135 31.8962013,42.9901303 32.527264,42.9483905 L35.0711902,42.7814189 C35.6998013,42.7396753 36.4438254,42.2436609 36.7261975,41.6764463 L37.8532971,39.3903764 C38.1332239,38.825607 38.823244,38.1331542 39.3904398,37.8532337 L41.6765098,36.726134 C42.2412791,36.4462072 42.7397426,35.704641 42.7814823,35.0711267 L42.948454,32.5272005 C42.9901976,31.9010473 43.3634379,30.994961 43.7808608,30.5185995 L45.4604468,28.6032844 C45.8754307,28.1293682 46.0522276,27.2527763 45.8484193,26.6511326 L45.030722,24.2373918 C44.8293715,23.6407016 44.8269137,22.6634125 45.030722,22.0618317 L45.8484193,19.6505424 C46.0522276,19.0538522 45.8778854,18.1747522 45.4604468,17.6983907 L43.7808608,15.780624 C43.3658769,15.3091657 42.9901938,14.4055372 42.948454,13.772023 L42.7814823,11.2305483 C42.7397388,10.6019372 42.2437244,9.85546158 41.6765098,9.57554106 L39.3904398,8.44844138 C38.8256705,8.16851458 38.1332177,7.47849447 37.8532971,6.90884711 L36.7261975,4.62522875 C36.4462707,4.0604594 35.7047044,3.56199596 35.0711902,3.52025618 L32.527264,3.35082663 C31.9011108,3.30908308 30.9950245,2.93830061 30.518663,2.51841983 L28.6033478,0.838833866 C28.1294317,0.42384997 27.2528398,0.247053102 26.6511961,0.450861389 L24.2374553,1.27101027 C23.640765,1.47236069 22.663476,1.47481856 22.0618952,1.27101027 L19.6506059,0.450861389 C19.0539157,0.249510971 18.1748156,0.421395244 17.6984541,0.838833866 L15.7806874,2.51841983 C15.3092291,2.93340373 14.4056007,3.30908686 13.7720864,3.35082663 L11.2306118,3.52025618 C10.6020007,3.56199973 9.85552505,4.05555624 9.57560454,4.62522875 L8.44850486,6.90884711 C8.16857805,7.47361645 7.47855795,8.16606928 6.90891058,8.44844138 L4.62529222,9.57554106 C4.06052288,9.85546787 3.56205943,10.5970341 3.52031965,11.2305483 L3.35089011,13.772023 C3.30914656,14.400634 2.93836408,15.3042625 2.51848331,15.780624 L0.838897341,17.6983907 C0.423913445,18.1723069 0.247116577,19.0488987 0.450924864,19.6505424 L1.27107375,22.0618317 C1.47242417,22.6585219 1.47488204,23.6382626 1.27107375,24.2373918 L0.450924864,26.6511326 C0.249574446,27.2478229 0.421458719,28.1244713 0.838897341,28.6032844 L2.51848331,30.5185995 C2.9334672,30.9925157 3.30915033,31.8961378 3.35089011,32.5272005 L3.52031965,35.0711267 C3.5620632,35.6997378 4.05561971,36.4437619 4.62529222,36.726134 L6.90891058,37.8532337 C7.47367993,38.1331605 8.16613276,38.8231806 8.44850486,39.3903764 L9.57560454,41.6764463 C9.85553134,42.2412156 10.5970976,42.7396791 11.2306118,42.7814189 L13.7720864,42.9483905 C14.4006975,42.9901341 15.304326,43.3633744 15.7806874,43.7807973 L17.6984541,45.4603833 C18.1723703,45.8753672 19.0489622,46.0521641 19.6506059,45.8483558 L22.0618952,45.0306585 C22.6585854,44.8293081 23.638326,44.8268502 24.2374553,45.0306585 L26.6511961,45.8483558 Z M23.1496438,40.2940111 C32.617784,40.2940111 40.293754,32.6180411 40.293754,23.1499009 C40.293754,13.6817607 32.617784,6.0057907 23.1496438,6.0057907 C13.6815036,6.0057907 6.00553359,13.6817607 6.00553359,23.1499009 C6.00553359,32.6180411 13.6815036,40.2940111 23.1496438,40.2940111 Z" id="Shape" stroke="#FFFFFF" fill="#414A59" fill-rule="nonzero"></path>
						<circle id="Oval" fill="#FFFFFF" cx="22.8438615" cy="22.8438672" r="18.5191341"></circle>
						<text id="25" font-family="Avenir-MediumOblique, Avenir" font-size="15" font-style="italic" font-weight="500" line-spacing="24" letter-spacing="-0.0625" fill="#414A59">
							<tspan x="14.2225" y="21">25</tspan>
						</text>
						<text id="year" font-family="Avenir-MediumOblique, Avenir" font-size="12" font-style="italic" font-weight="500" line-spacing="24" letter-spacing="-0.0500000007" fill="#414A59">
							<tspan x="11.93" y="28">year</tspan>
						</text>
					</g>
				</g>
			</g>
		</g>
	</g>
</svg>
