
<svg width="278px" height="78px" viewBox="0 0 278 78" version="1.1" xmlns="http://www.w3.org/2000/svg" xmlns:xlink="http://www.w3.org/1999/xlink">
    <!-- Generator: Sketch 45.2 (43514) - http://www.bohemiancoding.com/sketch -->
    <desc>Created with Sketch.</desc>
    <defs></defs>
    <g id="Page-1" stroke="none" stroke-width="1" fill="none" fill-rule="evenodd">
        <g id="Cedar-mobile-Copy-2" transform="translate(-20.000000, -1582.000000)" fill="#A39096">
            <g id="materials" transform="translate(-11.000000, 1509.000000)">
                <g id="Group-4" transform="translate(19.000000, 73.000000)">
                    <text id="New-Zealand-Wool" font-family="Avenir-Medium, Avenir" font-size="16" font-weight="400" letter-spacing="0.147692263">
                        <tspan x="99.4864619" y="21">New Zealand Wool</tspan>
                    </text>
                    <text id="Wicks-away-moisture," font-family="Avenir-Roman, Avenir" font-size="12" font-weight="normal" letter-spacing="0.110769205">
                        <tspan x="12.9260007" y="59">Wicks away moisture, allows for air circulation, and </tspan>
                        <tspan x="90.6929233" y="75">regulates temperature</tspan>
                    </text>
                    <g id="np_sheep_668502_A39096" transform="translate(60.000000, 0.000000)" fill-rule="nonzero">
                        <path d="M24.3501342,13.3627782 C25.0403344,12.1043221 25.1899768,10.6176755 24.7548098,9.23067969 C24.3180791,7.84384614 23.3545508,6.7280497 22.0840758,6.14004526 C21.9344294,4.69932889 21.2106144,3.40760177 20.0714869,2.54856023 C18.9384577,1.68951869 17.5244385,1.37888096 16.1623329,1.67685947 C15.2247614,0.608616243 13.9084711,0 12.5005502,0 C11.0926293,0 9.77790263,0.608616243 8.83876747,1.67685947 C7.47666185,1.38681732 6.06264267,1.69746357 4.92961348,2.54856023 C3.79658428,3.40760177 3.07276533,4.69932889 2.91702464,6.14004526 C1.64654959,6.7343793 0.683021311,7.84384614 0.246290627,9.23067969 C-0.190440057,10.6175132 -0.040789824,12.1041598 0.650966248,13.3627782 C-0.0392339808,14.6212343 -0.188876396,16.1078809 0.246290627,17.4948768 C0.683021311,18.8817103 1.64654959,19.9975068 2.91702464,20.5855112 C3.06667096,22.0262276 3.790486,23.3179547 4.92961348,24.1769962 C5.50222636,24.6096818 6.14817496,24.9013307 6.81851669,25.048697 L6.81851669,28.5118046 C6.81851669,28.7749053 7.02008049,28.9857137 7.27510587,28.9857137 C7.52859106,28.9857137 7.73169506,28.7765039 7.73169506,28.5118046 L7.73169506,25.150133 C8.09664977,25.1564728 8.46771058,25.1231892 8.83876747,25.0423593 C9.01437449,25.2452314 9.20983219,25.4338375 9.41138035,25.6034223 L9.41138035,28.5038439 C9.41138035,28.7669446 9.61294806,28.977753 9.86796954,28.977753 C10.1214547,28.977753 10.3245587,28.7685432 10.3245587,28.5038439 L10.3215049,26.2120385 C10.9857483,26.5496299 11.7294258,26.7335009 12.4913981,26.7335009 C13.2594687,26.7335009 13.9970478,26.5512325 14.6612913,26.2120385 L14.6612913,28.5181261 C14.6612913,28.7812268 14.8628551,28.9920352 15.1178805,28.9920352 C15.3713657,28.9920352 15.5744697,28.7828254 15.5744697,28.5181261 L15.5744697,25.6177045 C15.7760335,25.4481156 15.9714833,25.2595095 16.1470825,25.0566415 C16.5120372,25.1374738 16.8830981,25.1723435 17.254155,25.1644193 L17.254155,28.5260908 C17.254155,28.7891916 17.4557227,29 17.7107441,29 C17.9642293,29 18.1673333,28.7907902 18.1673333,28.5260908 L18.1673333,25.0629832 C18.8376751,24.913998 19.4836237,24.6239681 20.0562365,24.1912825 C21.1892657,23.3322409 21.9130847,22.0405138 22.0688254,20.5997975 C23.3393004,20.0054634 24.3028287,18.8959966 24.7395594,17.509163 C25.1762901,16.1223295 25.0403805,14.6214007 24.3501725,13.3628634 L24.3501342,13.3627782 Z M23.893545,17.2030656 C23.5163742,18.4139685 22.6429284,19.3664935 21.496139,19.8197908 L21.216697,19.9275687 L21.202954,20.2318768 C21.137292,21.5029921 20.5387106,22.6600121 19.5415636,23.4033354 C19.1246914,23.7139813 18.6681022,23.9374571 18.1871199,24.0658345 L18.1871199,20.9276469 C18.1871199,20.6645461 17.9855561,20.4537377 17.7305307,20.4537377 C17.4770455,20.4537377 17.2739415,20.6629515 17.2739415,20.9276469 L17.2739415,24.194212 C16.8891322,24.2005521 16.5058709,24.1609284 16.1210538,24.0515685 L15.8339734,23.9707362 L15.6446218,24.2068915 C15.6247707,24.227496 15.6049204,24.2544406 15.5927043,24.2750443 C15.3254784,24.5999561 15.0200914,24.8836606 14.6810896,25.1071444 C14.0428029,25.5335004 13.2930272,25.7633139 12.5111964,25.7633139 C11.7293656,25.7633139 10.9795899,25.5334963 10.3413032,25.1071444 C10.0023053,24.8836687 9.69691825,24.5999642 9.42968848,24.2750443 C9.40983702,24.2544402 9.38998711,24.2338369 9.37777101,24.2068915 L9.18841941,23.9707362 L8.90133895,24.0515685 C8.51652965,24.1593423 8.13326838,24.2068915 7.74845126,24.194212 L7.74845126,20.9276469 C7.74845126,20.6645461 7.54688746,20.4537377 7.29186207,20.4537377 C7.03837689,20.4537377 6.83527289,20.6629515 6.83527289,20.9276469 L6.83527289,24.0658345 C6.35272692,23.937453 5.89770139,23.7139772 5.48082921,23.4033354 C4.48978049,22.6520596 3.88511255,21.4966625 3.81943876,20.2318768 L3.80569574,19.9275687 L3.52625378,19.8197908 C2.37946436,19.3664935 1.50600299,18.4139685 1.12884781,17.2030656 C0.751677001,15.9921627 0.913539431,14.6877764 1.585437,13.6258627 L1.74882791,13.3691038 L1.585437,13.1123448 C0.915095275,12.0441016 0.751692638,10.7380923 1.12884781,9.53514199 C1.50601863,8.3321917 2.37946436,7.37171412 3.52625378,6.91841674 L3.80569574,6.81063892 L3.81943876,6.5063308 C3.88510082,5.23521549 4.48368221,4.07819543 5.48082921,3.33487213 C6.47187793,2.58359624 7.71483253,2.34745314 8.90133895,2.67870267 L9.18841941,2.75953502 L9.37777101,2.52337975 C10.1458416,1.53596076 11.292631,0.968568119 12.5188544,0.968568119 C13.7435142,0.968568119 14.8903036,1.53596076 15.6599378,2.52337975 L15.8492855,2.75953502 L16.136366,2.67870267 C17.3228724,2.34744908 18.565827,2.5915326 19.5568757,3.33487213 C20.5479245,4.08614802 21.1525924,5.2415451 21.2182662,6.5063308 L21.2320092,6.81063892 L21.5114512,6.91841674 C22.6582406,7.37171412 23.5317019,8.32423911 23.9088571,9.53514199 C24.2860123,10.7460449 24.1241655,12.0504312 23.4522679,13.1123448 L23.288877,13.3691038 L23.4522679,13.6258627 C24.1012657,14.6877764 24.2707666,15.9937451 23.8935723,17.2030656 L23.893545,17.2030656 Z" id="Shape"></path>
                        <path d="M17.5830748,10.1964114 C17.2069041,9.86357658 16.6754822,9.7811307 16.2240626,9.9535336 C15.6974065,9.37183358 14.9066846,9 14.0246626,9 L10.9096382,9 C10.0356479,9 9.2496796,9.36431861 8.72466258,9.94002354 C8.28127482,9.78709892 7.76101132,9.86956016 7.3992528,10.196396 L6.38921382,11.1109347 C6.14270334,11.3283276 6.0066423,11.6296901 6.00023736,11.9490187 C5.99383446,12.2683588 6.11709175,12.5697137 6.35559913,12.7990776 C6.58770566,13.0299614 6.90946503,13.1573973 7.25040646,13.1633962 L7.27761866,13.1633962 C7.55774384,13.1633962 7.81706012,13.0809388 8.03637725,12.9265135 L8.03637725,15.2998311 C8.03637725,16.7900824 9.3265455,18 10.9192993,18 L14.0343237,18 C15.6254383,18 16.9172457,16.7916176 16.9172457,15.2998311 L16.9172457,12.8950412 C17.1429473,13.0674556 17.4230848,13.1634077 17.722392,13.1634077 L17.7496046,13.1634077 C18.0905583,13.1574107 18.4059169,13.028476 18.6444119,12.7990891 C18.8765185,12.5682053 19.0061746,12.2683588 18.9997737,11.9490302 C18.9933708,11.6296901 18.8557096,11.3343227 18.6107972,11.1109462 L17.5830748,10.1964114 Z M17.5478587,12.2249156 L16.7827074,10.772124 C16.8307302,10.7856172 16.8851538,10.8111036 16.9187685,10.8425874 L17.9288074,11.757126 C17.989636,11.8140986 18.0248529,11.8845619 18.0248529,11.96852 C18.0248529,12.0509774 17.9976407,12.1214447 17.9368146,12.179914 C17.8759861,12.2368865 17.8007536,12.269871 17.7111131,12.269871 C17.6582876,12.269871 17.5958609,12.2503809 17.5478382,12.2248925 L17.5478587,12.2249156 Z M15.9503514,15.3013702 C15.9503514,16.2923635 15.0891465,17.1049626 14.024688,17.1049626 L10.9096636,17.1049626 C9.85159775,17.1049626 8.98400017,16.2983509 8.98400017,15.3013702 L8.98400017,11.6941853 C8.98400017,11.4887864 9.01761527,11.2908794 9.08644651,11.1049626 L9.29774004,10.7016568 C9.63869376,10.2159089 10.2341816,9.88905762 10.9032791,9.88905762 L14.0183036,9.88905762 C15.0763694,9.88905762 15.9439669,10.6956694 15.9439669,11.6926501 L15.9439669,15.3013318 L15.9503514,15.3013702 Z M7.2694582,12.2698979 C7.18141991,12.2698979 7.10618332,12.2384137 7.04375661,12.1799409 C6.98292807,12.1229684 6.95571833,12.0450092 6.95571833,11.9685469 C6.95571833,11.8920846 6.98933343,11.8156223 7.05176382,11.7571529 L8.06180279,10.8426142 C8.10342059,10.8036347 8.14984108,10.7856417 8.19786383,10.7721509 L7.44070341,12.2249424 C7.39268066,12.2504296 7.33025396,12.2699209 7.26942542,12.2699209 L7.2694582,12.2698979 Z" id="Shape"></path>
                        <path d="M11,12.5 C11,13.1666667 10,13.1666667 10,12.5 C10,11.8333333 11,11.8333333 11,12.5" id="Shape"></path>
                        <path d="M15,12.5 C15,13.1666667 14,13.1666667 14,12.5 C14,11.8333333 15,11.8333333 15,12.5" id="Shape"></path>
                    </g>
                </g>
            </g>
        </g>
    </g>
</svg>
