
<svg width="83px" height="83px" viewBox="0 0 83 83" version="1.1" xmlns="http://www.w3.org/2000/svg" xmlns:xlink="http://www.w3.org/1999/xlink">
    <!-- Generator: Sketch 45.2 (43514) - http://www.bohemiancoding.com/sketch -->
    <desc>Created with Sketch.</desc>
    <defs></defs>
    <g id="Page-1" stroke="none" stroke-width="1" fill="none" fill-rule="evenodd">
        <g id="Cedar-Desktop" transform="translate(-854.000000, -797.000000)">
            <g id="Guatantees" transform="translate(-2.000000, 652.000000)">
                <circle id="Oval-2-Copy-3" fill="#FFFFFF" cx="897.5" cy="186.5" r="41.5"></circle>
                <g id="shipping" transform="translate(822.000000, 155.000000)" fill-rule="nonzero" fill="#454D5A">
                    <g id="np_fast-shipping_576215_454D5A" transform="translate(38.000000, 0.000000)">
                        <path d="M74.14125,25.60875 L59.37525,18.22005 L59.37525,11.3763 C59.37525,10.9602825 59.208255,10.5648 58.91529,10.271775 C58.6223175,9.97881 58.2268125,9.811815 57.810765,9.811815 L27.998265,9.811815 C27.614475,7.119465 26.23749,4.66434 24.13989,2.929965 C22.04229,1.19559 19.373265,0.304965 16.654515,0.43389 C13.935765,0.562815 11.36349,1.70244 9.43869,3.62724 C7.51389,5.55204 6.374265,8.124315 6.24534,10.843065 C6.116415,13.561815 7.00704,16.230765 8.741415,18.32844 C10.47579,20.426115 12.93084,21.80304 15.623265,22.186815 L15.623265,48.876315 C15.623265,49.2894 15.79026,49.687815 16.083225,49.98084 C16.3761975,50.273805 16.7717025,50.437875 17.18775,50.437875 L23.6565,50.437875 C24.394785,53.15955 26.8674,55.049175 29.685825,55.049175 C32.5071,55.049175 34.979775,53.15955 35.718075,50.437875 L54.904575,50.437875 C55.645785,53.15955 58.115475,55.049175 60.936825,55.049175 C63.758175,55.049175 66.22785,53.15955 66.969075,50.437875 L73.437825,50.437875 C73.85091,50.437875 74.249325,50.2738125 74.54235,49.98084 C74.835375,49.6878675 74.999385,49.28943 74.999385,48.876315 L74.999385,27.000315 C74.9964555,26.411445 74.6654025,25.875315 74.14101,25.60869 L74.14125,25.60875 Z M27.999,12.9375 L56.25,12.9375 L56.25,34.8135 L18.75,34.8135 L18.75,22.1865 C21.08205,21.849585 23.24415,20.765625 24.9111,19.0986 C26.57805,17.431575 27.6621,15.269475 27.999,12.9375 L27.999,12.9375 Z M9.375,11.376 C9.375,8.2149 11.279325,5.367225 14.197275,4.15725 C17.11815,2.947275 20.478525,3.615255 22.711275,5.8506 C24.94665,8.085975 25.6146,11.446275 24.404625,14.3646 C23.197575,17.285475 20.346975,19.186875 17.1888,19.186875 C12.873375,19.186875 9.3753,15.6888 9.3753,11.376375 L9.375,11.376 Z M29.6865,51.999 C28.4238,51.999 27.284175,51.2373 26.800725,50.071275 C26.3173275,48.902325 26.58393,47.557575 27.47748,46.664025 C28.37103,45.770475 29.71578,45.50385 30.88473,45.98727 C32.050755,46.4706675 32.812455,47.610345 32.812455,48.87597 C32.812455,49.705095 32.48433,50.499045 31.898355,51.084945 C31.31238,51.670845 30.515505,51.999045 29.686455,51.999045 L29.6865,51.999 Z M60.9375,51.999 C59.6748,51.999 58.535175,51.2373 58.051725,50.071275 C57.565395,48.902325 57.83493,47.557575 58.72848,46.664025 C59.62203,45.770475 60.96678,45.50385 62.132805,45.98727 C63.301755,46.4706675 64.063455,47.610345 64.063455,48.87597 C64.063455,49.705095 63.7323975,50.499045 63.14643,51.084945 C62.5604625,51.670845 61.76658,51.999045 60.937455,51.999045 L60.9375,51.999 Z M71.874,36.375 L71.874,47.3115 L66.969675,47.3115 C66.228465,44.589825 63.758775,42.7002 60.937425,42.7002 C58.116075,42.7002 55.6464,44.589825 54.905175,47.3115 L35.718675,47.3115 C34.98039,44.589825 32.507775,42.7002 29.686425,42.7002 C26.868075,42.7002 24.3954,44.589825 23.6571,47.3115 L18.74985,47.3115 L18.74985,37.9365 L57.81135,37.9365 C58.2273675,37.9365 58.62285,37.7724375 58.915875,37.479465 C59.20884,37.1865 59.375835,36.788055 59.375835,36.37494 L59.375835,21.71769 L71.876835,27.96669 L71.874,36.375 Z M14.0625,37.9365 C14.0625,38.3525175 13.8984375,38.748 13.605465,39.041025 C13.3125,39.33399 12.914055,39.500985 12.50094,39.500985 L1.56144,39.500985 C0.70014,39.500985 -6e-05,38.8007925 -6e-05,37.93656 C-6e-05,37.07526 0.7001325,36.37506 1.56144,36.37506 L12.50094,36.37506 C12.914025,36.37506 13.31244,36.5391225 13.605465,36.832095 C13.89849,37.1250675 14.0625,37.523505 14.0625,37.93662 L14.0625,37.9365 Z M14.0625,42.624 C14.0625,43.0400175 13.8984375,43.4355 13.605465,43.728525 C13.3125,44.02149 12.914055,44.188485 12.50094,44.188485 L4.68744,44.188485 C3.823215,44.188485 3.12594,43.4882925 3.12594,42.62406 C3.12594,41.76276 3.8232075,41.06256 4.68744,41.06256 L12.50094,41.06256 C12.914025,41.06256 13.31244,41.2266225 13.605465,41.519595 C13.89849,41.8125675 14.0625,42.211005 14.0625,42.62412 L14.0625,42.624 Z M14.0625,47.3115 C14.0625,47.7275175 13.8984375,48.123 13.605465,48.416025 C13.3125,48.70899 12.914055,48.875985 12.50094,48.875985 L7.81344,48.875985 C6.949215,48.875985 6.249015,48.1757925 6.249015,47.31156 C6.249015,46.45026 6.9492075,45.75006 7.81344,45.75006 L12.50094,45.75006 C12.914025,45.75006 13.31244,45.9141225 13.605465,46.207095 C13.89849,46.5000675 14.0625,46.898505 14.0625,47.31162 L14.0625,47.3115 Z M21.421875,8.7015 L21.421875,8.70443025 C22.0283175,9.31380525 22.0283175,10.2981803 21.421875,10.9075553 L16.734375,15.5950553 C16.125,16.1985728 15.140625,16.1985728 14.53125,15.5950553 L12.96975,14.0335553 L12.96975,14.030625 C12.436545,13.41246 12.47463,12.486675 13.051785,11.90955 C13.6289325,11.3324025 14.551785,11.2972425 15.17286,11.827515 L15.62403,12.296265 L19.201155,8.71914 L19.2040852,8.71914 C19.4941252,8.42031 19.8925627,8.2533225 20.3086102,8.25039 C20.7246577,8.2474575 21.1259602,8.408595 21.4219102,8.7044925 L21.421875,8.7015 Z" id="Shape"></path>
                    </g>
                </g>
            </g>
        </g>
    </g>
</svg>
