<svg id="rainforestalliance" xmlns="http://www.w3.org/2000/svg" viewBox="0 0 49.33 44.42"><defs><style>.cls-1{fill:#fff;}.cls-2,.cls-3{fill:#4c835d;}.cls-3,.cls-4{fill-rule:evenodd;}.cls-4,.cls-5{fill:#8da890;}</style></defs><path class="cls-1" d="M46.16,27.65l3.7-2.31-3.92-1.93,3.16-3-4.22-1.1,2.49-3.59L43,15.48l1.71-4-4.31.65.87-4.27L37.19,9.36V5L33.47,7.3,32.59,3,29.42,6,27.69,2l-2.5,3.57L22.69,2,21,6,17.8,3,16.91,7.3,13.21,5V9.36L9.11,7.85,10,12.12l-4.32-.65,1.72,4L3,15.71,5.51,19.3,1.28,20.4l3.16,3L.53,25.34l3.7,2.31L.78,30.33l4.09,1.52L2,35.17l4.32.66L4.23,39.65l3.86-.19-.64.33.06.2a18.28,18.28,0,0,0,3.35,6.25l.17.2a33.19,33.19,0,0,1,6-2.48,19.16,19.16,0,0,0,16.26,0,34,34,0,0,1,6,2.43l.17-.13A18.28,18.28,0,0,0,42.88,40l.06-.2-.64-.33,3.85.19L44,35.83l4.31-.66-2.83-3.32,4.09-1.52Z" transform="translate(-0.53 -2.02)"/><path class="cls-2" d="M45.16,27.6l3.53-2.2L45,23.56l3-2.87-4-1.05,2.37-3.41L42.16,16l1.63-3.82-4.1.62.83-4.07-3.9,1.44V6L33.08,8.21l-.85-4.07L29.22,7,27.57,3.19l-2.38,3.4-2.38-3.4L21.17,7l-3-2.86-.84,4.07L13.78,6v4.16L9.87,8.74l.83,4.07-4.11-.62L8.23,16l-4.16.22,2.37,3.41-4,1.05,3,2.87L1.7,25.4l3.52,2.2L1.94,30.15l3.9,1.45L3.13,34.76l4.11.63L5.23,39l4.15-.2h0l.81-.35a19.11,19.11,0,1,1,30,0l.81.35h0l4.16.2-2-3.64,4.11-.63-2.7-3.16,3.89-1.45Z" transform="translate(-0.53 -2.02)"/><path class="cls-3" d="M18,43.7a18.51,18.51,0,0,0,14.41,0,28,28,0,0,0-7.07-.91A30.2,30.2,0,0,0,18,43.7M25.19,8.15A18.49,18.49,0,0,0,10.78,38.24a37.22,37.22,0,0,1,5.57-1.78A13.2,13.2,0,0,1,13.82,20a1.08,1.08,0,0,1-.1-1,1.1,1.1,0,0,1,.6-.6,1.14,1.14,0,0,1,.63-.06,13.33,13.33,0,0,1,1.91-1.92,1.09,1.09,0,0,1,.43-.34A13.2,13.2,0,0,1,34.08,36.47a37.87,37.87,0,0,1,5.53,1.77A18.5,18.5,0,0,0,25.19,8.15" transform="translate(-0.53 -2.02)"/><path class="cls-3" d="M42.32,40a37.64,37.64,0,0,0-14-4,.94.94,0,0,1-.41.21A1.23,1.23,0,0,1,26.75,36l-.06,0c-.5,0-1,0-1.5,0h-.12a1.06,1.06,0,0,1,.24,1.13,1.1,1.1,0,0,1-1.43.56,1.13,1.13,0,0,1-.7-.82v0A1.51,1.51,0,0,0,23,36,37.68,37.68,0,0,0,8.06,40h0a18,18,0,0,0,3.06,5.71h0a31.54,31.54,0,0,1,14.22-3.5,30.53,30.53,0,0,1,13.91,3.5h0a17.62,17.62,0,0,0,3.06-5.71Z" transform="translate(-0.53 -2.02)"/><path class="cls-1" d="M14.72,40.12a1,1,0,0,0-.94-.08,1,1,0,0,0-.57,1.32,1,1,0,0,0,1.3.59,1.11,1.11,0,0,0,.65-.66l.4,1.09a2.67,2.67,0,0,1-.74.46,2.1,2.1,0,0,1-1.5,0,1.84,1.84,0,0,1-1.06-1.11,2,2,0,0,1,0-1.48,2,2,0,0,1,1.12-1.06,2.32,2.32,0,0,1,.9-.14Z" transform="translate(-0.53 -2.02)"/><polygon class="cls-1" points="15.92 37.15 16.09 37.75 17.14 37.46 17.36 38.26 16.3 38.55 16.48 39.17 17.59 38.86 17.81 39.65 15.76 40.22 14.77 36.61 16.82 36.05 17.04 36.85 15.92 37.15"/><path class="cls-1" d="M22.1,41l-1.19.2-1.14-1.27h0L20,41.34l-1,.16-.61-3.69,1.43-.23a1.12,1.12,0,0,1,1.47.92,1,1,0,0,1-.64,1.17Zm-2.44-1.68.09,0c.31,0,.66-.17.59-.57s-.43-.4-.74-.35l-.09,0Z" transform="translate(-0.53 -2.02)"/><polygon class="cls-1" points="23.45 38.88 22.48 38.94 22.32 36.03 21.52 36.08 21.47 35.25 24.04 35.11 24.09 35.93 23.29 35.98 23.45 38.88"/><rect class="cls-1" x="23.91" y="38.54" width="3.74" height="0.97" transform="translate(-14.28 61.99) rotate(-88.84)"/><polygon class="cls-1" points="27.68 36.09 27.63 36.71 28.69 36.8 28.61 37.62 27.55 37.53 27.42 38.99 26.46 38.91 26.79 35.18 28.92 35.37 28.85 36.19 27.68 36.09"/><rect class="cls-1" x="28.68" y="38.95" width="3.74" height="0.97" transform="matrix(0.15, -0.99, 0.99, 0.15, -13.65, 61.54)"/><polygon class="cls-1" points="32.54 36.84 32.41 37.44 33.48 37.68 33.3 38.48 32.23 38.25 32.09 38.88 33.22 39.13 33.04 39.93 30.96 39.47 31.77 35.82 33.85 36.28 33.67 37.09 32.54 36.84"/><path class="cls-1" d="M35.43,38.56l1.31.43a1.87,1.87,0,1,1-1.16,3.55l-1.31-.42Zm0,3.08.21.06a1,1,0,1,0,.65-2l-.22-.07Z" transform="translate(-0.53 -2.02)"/><path class="cls-2" d="M34.38,25H34.1c0,.16,0,.18,0,.32a5.82,5.82,0,0,0,0,.62h-.2c0-.22,0-.43,0-.65V25h-.3a.45.45,0,0,0,0-.11v0h.75V25Z" transform="translate(-0.53 -2.02)"/><path class="cls-2" d="M35.56,24.84c0,.35,0,.71,0,1.06h-.18V25c0,.09,0,.17-.11.38l-.07.22c-.06.17-.07.23-.11.35h-.2l0-.08s-.08-.28-.09-.32l-.06-.22c-.06-.22-.07-.24-.09-.34,0,.15,0,.19,0,.34v.27c0,.18,0,.22,0,.34h-.16v-.1l0-.54a4.15,4.15,0,0,0,0-.42h.25c0,.12.06.21.09.31l.16.62.2-.63c.06-.2.06-.21.08-.29h.25Z" transform="translate(-0.53 -2.02)"/><path class="cls-1" d="M10.79,27.33l.12.92-1,.85h0L11,29l.1.74-2.85.4L8.11,29a.86.86,0,0,1,.74-1.11.77.77,0,0,1,.89.51ZM9.44,29.17V29.1c0-.24-.12-.51-.43-.47s-.32.32-.28.57v.07Z" transform="translate(-0.53 -2.02)"/><path class="cls-1" d="M10.34,26l.48.24-.06.79L8,25.66l.07-.82L11,24l-.06.79-.52.15ZM8.9,25.32h0l.89.38.05-.62Z" transform="translate(-0.53 -2.02)"/><rect class="cls-1" x="9.53" y="21.24" width="0.75" height="2.87" transform="matrix(0.25, -0.97, 0.97, 0.25, -15.07, 24.55)"/><polygon class="cls-1" points="8.47 18.58 8.79 17.9 10.96 17.42 10.96 17.41 9.38 16.66 9.69 15.98 12.29 17.21 11.97 17.89 9.8 18.37 9.79 18.38 11.39 19.13 11.07 19.81 8.47 18.58"/><polygon class="cls-1" points="11.49 14.54 11.87 14.84 12.37 14.19 12.87 14.57 12.37 15.22 13.27 15.91 12.81 16.5 10.53 14.75 11.54 13.44 12.04 13.83 11.49 14.54"/><path class="cls-1" d="M16.22,13.49a1.59,1.59,0,1,1-2.17-.1,1.53,1.53,0,0,1,2.17.1M14.38,15a.84.84,0,0,0,1.18.14A.82.82,0,0,0,15.62,14a.81.81,0,0,0-1.24,1" transform="translate(-0.53 -2.02)"/><path class="cls-1" d="M20,13.21l-.83.42L18,13h0l.49,1-.66.33-1.3-2.57,1-.5a.87.87,0,0,1,1.29.34.76.76,0,0,1-.2,1Zm-2.18-.68.07,0c.21-.11.44-.28.3-.56s-.41-.19-.63-.08l-.06,0Z" transform="translate(-0.53 -2.02)"/><polygon class="cls-1" points="20.11 8.66 20.24 9.13 21.05 8.9 21.23 9.51 20.42 9.73 20.55 10.21 21.41 9.97 21.58 10.58 20 11.02 19.22 8.26 20.8 7.81 20.97 8.42 20.11 8.66"/><path class="cls-1" d="M24.31,10.16a.79.79,0,0,0-.52-.14c-.13,0-.31.11-.29.26s.22.22.35.25l.2,0c.41.08.74.25.78.71a1,1,0,0,1-.23.8,1.25,1.25,0,0,1-.78.35,1.8,1.8,0,0,1-1-.24l.26-.63a1.06,1.06,0,0,0,.69.24c.18,0,.35-.12.33-.32s-.31-.26-.48-.29c-.48-.09-.8-.18-.85-.73a1,1,0,0,1,.9-1.06,2.07,2.07,0,0,1,.92.15Z" transform="translate(-0.53 -2.02)"/><polygon class="cls-1" points="26.27 10.34 25.53 10.28 25.71 8.05 25.1 8 25.15 7.37 27.12 7.53 27.07 8.16 26.46 8.11 26.27 10.34"/><path class="cls-1" d="M30.57,12.76l-.38.38-.72-.31,2.14-2.21.75.32L32.23,14l-.73-.31,0-.54Zm1.06-1.16h0l-.64.72.57.25Z" transform="translate(-0.53 -2.02)"/><polygon class="cls-1" points="33.18 12.25 33.92 12.76 33.57 13.28 32.21 12.36 33.83 9.98 34.44 10.4 33.18 12.25"/><polygon class="cls-1" points="35.02 13.74 35.68 14.35 35.24 14.81 34.05 13.69 36.02 11.6 36.56 12.11 35.02 13.74"/><rect class="cls-1" x="36.08" y="16.33" width="2.87" height="0.75" transform="translate(-2.66 25.38) rotate(-39.09)"/><path class="cls-1" d="M38,19l-.54.07-.38-.69,3-.44.4.71-2,2.35-.39-.69.35-.41Zm1.55-.27h0l-.94.18.3.54Z" transform="translate(-0.53 -2.02)"/><polygon class="cls-1" points="41.01 18.8 41.2 19.52 39.86 21.3 39.86 21.3 41.56 20.85 41.75 21.57 38.98 22.31 38.78 21.59 40.13 19.81 40.13 19.81 38.43 20.26 38.23 19.54 41.01 18.8"/><path class="cls-1" d="M41.56,27.2a.81.81,0,0,0,.29-.67.79.79,0,0,0-1.58.06.88.88,0,0,0,.33.64l-.9,0a2.4,2.4,0,0,1-.15-.66,1.61,1.61,0,0,1,.39-1.09A1.4,1.4,0,0,1,41,25a1.57,1.57,0,0,1,1.07.39,1.6,1.6,0,0,1,.49,1.08,1.62,1.62,0,0,1-.12.69Z" transform="translate(-0.53 -2.02)"/><polygon class="cls-1" points="41.15 27.16 40.67 27.09 40.54 27.92 39.92 27.83 40.05 26.99 39.56 26.92 39.42 27.8 38.8 27.7 39.05 26.08 41.89 26.52 41.64 28.14 41.01 28.04 41.15 27.16"/><path class="cls-3" d="M33.51,28.75a3.55,3.55,0,0,0,.57.18.87.87,0,1,0-.54-1.32,1.94,1.94,0,0,1-1.85.46c-.16-.36.2-.57.55-.79.52-.33.62-.8.23-1.17a.77.77,0,0,0-.59-.19.75.75,0,0,0-.59.68,1.34,1.34,0,0,1-1.22,1.24c-.75.07-1,.2-1-.26a3.6,3.6,0,0,1,.27-1.49,4.93,4.93,0,0,1,1.59-2l1.35-1.06c.44-.43,1-.67,1.28-1.28a1.3,1.3,0,0,0,.08-1,3.71,3.71,0,0,0,.75-1.33c.1-.66-.07-1.38-.71-1.55l-.1,0c-.65-.23-1.27-.06-1.91-.31-.95-.37-1.1-1.18-2.35-1.31a2,2,0,0,0-1.93,1.17,2.39,2.39,0,0,1-.66.78,5,5,0,0,1-2,.53A6.6,6.6,0,0,0,21,20.49c-.45.4-2.5,2.44-3,2.82-.61,0-1.08-.37-.84-1.19A1.34,1.34,0,0,1,18.68,21a.85.85,0,0,0,1.05-.61.7.7,0,0,0-.44-.88.85.85,0,0,0-1.08.43c-.06.06-.38.69-.89.6a1.11,1.11,0,0,1,0-1.1c.57-1.31,1.07-1.47,1.26-2.09A.85.85,0,0,0,18,16.3a.89.89,0,0,0-1.12.58c-.16.42-.09,1.54-.42,2.53-.12.38-.42,1.38-.77.9a1.22,1.22,0,0,1-.25-.88.73.73,0,0,0-.43-.76.83.83,0,0,0-1.09.46.81.81,0,0,0,.24.94c.32.3.87,0,1.09.81a2.51,2.51,0,0,1-.11,1.9,3.85,3.85,0,0,0,0,3.21c.56.76,1.13.66,1.13.66a1.86,1.86,0,0,0,.79,2.48,4.3,4.3,0,0,0,1.63.65c-.41,1.09-1.36.51-1.74,1.54-.52,1.46,2.08,2.23,3.44,2.7,1.62.57,2,.7,2.52,1.43a2.4,2.4,0,0,1,.51,1.3.88.88,0,0,0,.55.64.81.81,0,1,0,.6-1.5c-.48-.2-.55-.37-.46-.71.57-.4,2.08,0,2.81.65a.91.91,0,0,0,1.45-.32.81.81,0,0,0-.54-1c-.45-.19-.86.07-1.24.07a2.76,2.76,0,0,1-1.71-.64s.09-.6.92-.52a.77.77,0,0,0,.86-.7.58.58,0,0,0-.44-.62.68.68,0,0,0-.81.23c-.23.2-.25.47-.7.7a1.69,1.69,0,0,1-1.11.23,1.75,1.75,0,0,1-1-.44.78.78,0,0,1-.12-.38c-.1,0,2.25-.46,2.83-1.23.75-1,0-1.65-.93-2.09a7.2,7.2,0,0,0,2.5-1.93c.11.05.25.71.3.93l.12,1.12c.29,1,1.36.14,2.31.26a2.19,2.19,0,0,1,1.53.66,6.93,6.93,0,0,1,.64,1A.76.76,0,1,0,32.7,30c-.66-.14-1.41-.59-.78-1a2.3,2.3,0,0,1,1.59-.29M31.18,21.1a1.9,1.9,0,0,1-1.8,0,.77.77,0,0,1-.43.1c-.11,0-.12-.05-.13-.11a1.72,1.72,0,0,1,.19-.95,1.5,1.5,0,0,1,1-.79,1.26,1.26,0,0,1,1,.13,1,1,0,0,1,.09,1.64" transform="translate(-0.53 -2.02)"/><path class="cls-3" d="M31,20.61a1.47,1.47,0,0,0-.17-.15,1,1,0,0,0-1.14.05c-.08,0-.07-.07-.06-.11a.84.84,0,0,1,1-.61c.32.12.41.44.33.82" transform="translate(-0.53 -2.02)"/><path class="cls-4" d="M18.53,26.18c-.13.1-.19-.11-.19-.11,1.06-1.52,2.43-3.56,4.18-4.65a9.87,9.87,0,0,1,3.87-1.27,16,16,0,0,0-4,2.07c-1.61,1.12-3.23,3.44-3.88,4" transform="translate(-0.53 -2.02)"/><path class="cls-5" d="M23.55,29.82c.55.2,1.36-.41,2,.21a2.28,2.28,0,0,0-1.16-.92,5.46,5.46,0,0,0-3-.35c1.65,0,1.58.86,2.14,1.06" transform="translate(-0.53 -2.02)"/></svg>