<svg xmlns="http://www.w3.org/2000/svg" width="154.57" height="154.6" viewBox="0 0 154.57 154.6"><defs><style>.a{fill:#fff;}.b,.e,.g{fill:none;stroke:#a8a8a8;stroke-miterlimit:10;}.b{stroke-width:0.02px;}.c{fill:#a9a7a8;}.d{fill:#231f20;}.e{stroke-width:0px;}.f{fill:#a8a8a8;}.g{stroke-width:0.5px;}</style></defs><title>slatted</title><circle class="a" cx="77.8" cy="77.49" r="76.11"/><path class="b" d="M40.5,16.63" transform="translate(-2.43 -2.2)"/><path class="b" d="M38.78,15.33" transform="translate(-2.43 -2.2)"/><path class="c" d="M116.78,61.5c-0.13.26-45.3-21.55-59.37-28.42S32,20.41,32.15,20.15s11.64,5.1,25.72,12S116.91,61.24,116.78,61.5Z" transform="translate(-2.43 -2.2)"/><path class="c" d="M111.22,71.83a1.77,1.77,0,0,1,.45.16l0,0.09c-4.67-2-46.86-22.25-60.52-28.9C43.88,39.67,37.36,36.43,32.66,34c-2.35-1.19-4.24-2.18-5.54-2.88a9.59,9.59,0,0,1-2-1.19,9.59,9.59,0,0,1,2.15.81c1.35,0.59,3.29,1.47,5.68,2.58,4.78,2.22,11.35,5.35,18.58,8.86,13.67,6.65,55.67,27.31,60.1,29.76l0,0.09A1.77,1.77,0,0,1,111.22,71.83Z" transform="translate(-2.43 -2.2)"/><path class="b" d="M15.71,39.58" transform="translate(-2.43 -2.2)"/><path class="c" d="M102.6,90.62A2.68,2.68,0,0,1,102,90.4l-1.59-.72L94.69,87,76.28,78.22,38.68,60.09C31.1,56.4,24.27,53,19.34,50.5c-2.46-1.25-4.45-2.28-5.81-3a10.53,10.53,0,0,1-2.07-1.24,10.52,10.52,0,0,1,2.25.86c1.42,0.62,3.45,1.55,6,2.71,5,2.33,11.9,5.62,19.48,9.31L76.61,77.55l18.27,9.08,5.66,2.87,1.54,0.81A2.68,2.68,0,0,1,102.6,90.62Z" transform="translate(-2.43 -2.2)"/><path class="b" d="M9,54.3" transform="translate(-2.43 -2.2)"/><path class="c" d="M97.32,101.12l0.15,0,0,0c-2.9-1.1-48.27-22.94-62.71-30-7.45-3.63-14.18-7-19-9.43-2.42-1.23-4.37-2.25-5.71-3a10.18,10.18,0,0,1-2-1.22,10.19,10.19,0,0,1,2.21.85c1.39,0.61,3.4,1.52,5.86,2.67,4.93,2.29,11.7,5.52,19.15,9.15,14.45,7,59.62,29.28,62.27,30.88l0,0A0.34,0.34,0,0,1,97.32,101.12Z" transform="translate(-2.43 -2.2)"/><path class="c" d="M87.43,119.1a6.85,6.85,0,0,1,1.09.44l-0.07.14C81.5,116.59,42.81,98,30,91.71c-7.06-3.44-13.43-6.61-18-8.95-2.29-1.17-4.14-2.13-5.41-2.82a9.17,9.17,0,0,1-1.92-1.16,9.17,9.17,0,0,1,2.1.79C8,80.14,9.93,81,12.27,82.09c4.67,2.17,11.09,5.23,18.15,8.67C43.28,97,81.79,116,88.52,119.55l-0.07.14A6.85,6.85,0,0,1,87.43,119.1Z" transform="translate(-2.43 -2.2)"/><path class="b" d="M4.84,87.88" transform="translate(-2.43 -2.2)"/><path class="c" d="M84.05,130.77a2,2,0,0,1-.5-0.18L82.18,130l-5-2.31-15.9-7.55L28.88,104.5c-6.54-3.18-12.43-6.12-16.68-8.29-2.12-1.09-3.83-2-5-2.62a7.89,7.89,0,0,1-1.77-1.09,7.89,7.89,0,0,1,2,.72c1.23,0.53,3,1.32,5.15,2.32,4.33,2,10.27,4.83,16.81,8l32.31,15.9L77.4,127.3l4.88,2.49,1.33,0.71A2,2,0,0,1,84.05,130.77Z" transform="translate(-2.43 -2.2)"/><path class="c" d="M74.46,148.41c-0.13.26-30.71-14.36-40.23-19s-17.13-8.61-17-8.87,7.95,3.28,17.47,7.92S74.59,148.14,74.46,148.41Z" transform="translate(-2.43 -2.2)"/><path class="b" d="M114.38,60.15" transform="translate(-2.43 -2.2)"/><path class="d" d="M50.58,42.57s0.38,0.17.5,0.22a0.81,0.81,0,0,1,.21.12,0.81,0.81,0,0,1-.22-0.09C50.95,42.77,50.57,42.58,50.58,42.57Z" transform="translate(-2.43 -2.2)"/><path class="e" d="M51.22,43.05" transform="translate(-2.43 -2.2)"/><path class="e" d="M51.19,43.12" transform="translate(-2.43 -2.2)"/><path class="e" d="M51.22,43.05" transform="translate(-2.43 -2.2)"/><path class="c" d="M54.88,44.93a0.18,0.18,0,0,1,.06-0.11l-0.16.35-0.61,1.3L52,50.95,46.22,63l-0.2-.1,3.08-6.35,3.68-7.47,1.14-2.25,0.32-.61a0.89,0.89,0,0,1,.13-0.2,0.89,0.89,0,0,1-.08.23L54,46.85l-1.07,2.29-3.61,7.5L46.22,63l-0.2-.1,5.89-12,2.2-4.44,0.65-1.29,0.18-.34A0.18,0.18,0,0,1,54.88,44.93Z" transform="translate(-2.43 -2.2)"/><path class="d" d="M42.33,61.31c-0.06,0,4.73-10,6.24-13.09s2.79-5.6,2.85-5.57-1.11,2.57-2.63,5.67S42.39,61.34,42.33,61.31Z" transform="translate(-2.43 -2.2)"/><path class="c" d="M32,92.12c-0.06,0,4.57-9.66,6-12.66s2.7-5.41,2.76-5.38-1.07,2.49-2.54,5.49S32.07,92.15,32,92.12Z" transform="translate(-2.43 -2.2)"/><path class="d" d="M28.34,89.91c-0.06,0,4.51-9.54,5.95-12.5S36.95,72.07,37,72.1s-1.06,2.46-2.5,5.42S28.4,89.94,28.34,89.91Z" transform="translate(-2.43 -2.2)"/><path class="c" d="M17.94,120.88s0.06-.16.18-0.43l0.53-1.14,1.73-3.65L24,108.21c1.14-2.34,2.14-4.32,2.55-5.06l0.08,0a1.29,1.29,0,0,1-.21.33,1.29,1.29,0,0,1,.13-0.36l0.08,0c-0.33.78-1.27,2.79-2.41,5.13l-3.65,7.42-1.81,3.62-0.57,1.12C18,120.74,17.94,120.88,17.94,120.88Z" transform="translate(-2.43 -2.2)"/><path class="d" d="M22.82,101.29l-0.1,0v0l0.06,0a0.09,0.09,0,0,1,.06,0l-0.07,0-0.06,0v0Z" transform="translate(-2.43 -2.2)"/><path class="d" d="M14.92,117.51a0.52,0.52,0,0,1,0,.13h0c0.46-1.08,4.2-8.88,5.45-11.43,0.67-1.37,1.28-2.6,1.74-3.49a10.48,10.48,0,0,1,.79-1.41,10.48,10.48,0,0,1-.63,1.49c-0.42.91-1,2.15-1.68,3.52-1.24,2.55-5.07,10.31-5.64,11.34h0Z" transform="translate(-2.43 -2.2)"/><path class="f" d="M80,155.88a77.39,77.39,0,0,1-7.89-.41l-1.28-.13L121.3,51.73a5.55,5.55,0,0,0-2.56-7.42L47.29,9.52l1.78-.78c2.07-.91,3.94-1.65,5.71-2.26A76.81,76.81,0,0,1,149,112.62,76.86,76.86,0,0,1,80,155.88Zm-6.42-2.07A75,75,0,0,0,150.8,54.52,75,75,0,0,0,55.37,8.17c-1.2.42-2.45,0.89-3.78,1.44l67.93,33.08a7.35,7.35,0,0,1,3.39,9.82Z" transform="translate(-2.43 -2.2)"/><path class="f" d="M79.64,156.8A77.28,77.28,0,0,1,54.43,6.5,77.26,77.26,0,0,1,149.2,113.26,77.47,77.47,0,0,1,79.64,156.8ZM79.76,4.9a74.71,74.71,0,1,0,32.52,7.53A74.66,74.66,0,0,0,79.76,4.9Z" transform="translate(-2.43 -2.2)"/><path class="c" d="M51.13,43.22a0.18,0.18,0,0,1,.06-0.11L51,43.47l-0.61,1.3-2.14,4.47-5.81,12-0.2-.1,3.08-6.35L49,47.35l1.14-2.25,0.32-.61a0.88,0.88,0,0,1,.13-0.2,0.88,0.88,0,0,1-.08.23l-0.28.63-1.07,2.29-3.61,7.5-3.1,6.34-0.2-.1,5.89-12,2.2-4.44L51,43.45l0.18-.34A0.18,0.18,0,0,1,51.13,43.22Z" transform="translate(-2.43 -2.2)"/><path class="c" d="M38.58,59.6c-0.06,0,4.73-10,6.24-13.09s2.79-5.6,2.85-5.57S46.56,43.51,45,46.61,38.65,59.63,38.58,59.6Z" transform="translate(-2.43 -2.2)"/><path class="c" d="M28.33,89.93c-0.06,0,4.57-9.66,6-12.66s2.7-5.41,2.76-5.38S36,74.38,34.58,77.38,28.39,90,28.33,89.93Z" transform="translate(-2.43 -2.2)"/><path class="c" d="M24.32,88.42c-0.06,0,4.68-9.9,6.18-13s2.76-5.55,2.82-5.52-1.1,2.55-2.6,5.62S24.39,88.45,24.32,88.42Z" transform="translate(-2.43 -2.2)"/><path class="c" d="M14.08,119s0.06-.16.18-0.43l0.53-1.14,1.73-3.65,3.59-7.45c1.14-2.34,2.14-4.32,2.55-5.06l0.08,0a1.29,1.29,0,0,1-.21.33,1.29,1.29,0,0,1,.13-0.36l0.08,0c-0.33.78-1.27,2.79-2.41,5.13l-3.65,7.42-1.81,3.62-0.57,1.12C14.17,118.89,14.08,119,14.08,119Z" transform="translate(-2.43 -2.2)"/><path class="c" d="M11.64,114.47a0.45,0.45,0,0,1,0,.12h0c0.42-1,3.89-8.24,5-10.6,0.62-1.27,1.19-2.41,1.62-3.23A9,9,0,0,1,19,99.44a9,9,0,0,1-.58,1.38c-0.38.84-.93,2-1.55,3.27-1.15,2.36-4.7,9.55-5.24,10.5h0Z" transform="translate(-2.43 -2.2)"/><path class="g" d="M109.74,39.92" transform="translate(-2.43 -2.2)"/><rect class="f" x="112.62" y="38.13" width="1.8" height="24.19" transform="translate(-12.61 37.57) rotate(-19.04)"/><path class="c" d="M110.71,65.14c-1.26,2.66-1.66,5.13-.92,5.62h0l2,1,4.7-9.92-2-1h0C113.63,60.61,112,62.47,110.71,65.14Z" transform="translate(-2.43 -2.2)"/><path class="f" d="M112,72.33L109.15,71l0.08-.15c-0.67-1.07,0-3.69,1.06-5.88s2.64-4.41,3.89-4.55l0.06-.14,0.41,0.18,2.42,1.15Zm-1.93-1.91,1.51,0.71L115.9,62l-1.56-.73c-0.38-.11-1.89,1.2-3.23,4s-1.42,4.83-1.08,5.06Z" transform="translate(-2.43 -2.2)"/><path class="c" d="M96.59,94.13c-1.26,2.66-1.66,5.13-.92,5.62h0l2,1,4.7-9.92-2-1h0C99.51,89.6,97.85,91.47,96.59,94.13Z" transform="translate(-2.43 -2.2)"/><path class="f" d="M97.89,101.32L95,100l0.08-.15c-0.68-1.07,0-3.69,1.06-5.88s2.64-4.41,3.89-4.55l0.06-.14,0.41,0.18L103,90.59ZM96,99.42l1.5,0.71L101.78,91l-1.56-.73c-0.37-.11-1.89,1.2-3.23,4s-1.42,4.83-1.08,5.06Z" transform="translate(-2.43 -2.2)"/><path class="c" d="M82.31,123.45c-1.26,2.66-1.66,5.13-.92,5.62h0l2,1,4.7-9.92-2-1h0C85.24,118.92,83.58,120.79,82.31,123.45Z" transform="translate(-2.43 -2.2)"/><path class="f" d="M83.62,130.64l-2.83-1.34,0.07-.14c-0.7-1.06,0-3.69,1.05-5.9s2.64-4.41,3.89-4.55l0.06-.14,0.41,0.18,2.42,1.15Zm-1.93-1.91,1.51,0.71,4.32-9.11L86,119.61c-0.37-.12-1.88,1.2-3.23,4s-1.42,4.83-1.08,5.06Z" transform="translate(-2.43 -2.2)"/><path class="c" d="M71,155.46l3.19-6.74-2-1h0c-0.85-.26-2.51,1.61-3.77,4.28a16.79,16.79,0,0,0-.72,1.79Z" transform="translate(-2.43 -2.2)"/><path class="f" d="M71.22,156.06l-4.08-2,0.13-.38a17.24,17.24,0,0,1,.74-1.84c1-2.22,2.66-4.44,3.91-4.55l0.07-.12,0.39,0.17,2.42,1.15Zm-3-2.45,2.55,1.24,2.81-5.93L72,148.2c-0.39-.13-1.89,1.2-3.23,4C68.61,152.68,68.42,153.13,68.24,153.62Z" transform="translate(-2.43 -2.2)"/><path class="c" d="M35.51,64.39c-1.26,2.66-1.66,5.13-.92,5.62h0l2,1,4.7-9.92-2-1h0C38.43,59.85,36.78,61.72,35.51,64.39Z" transform="translate(-2.43 -2.2)"/><path class="f" d="M36.82,71.58L34,70.24l0.07-.14c-0.7-1.06,0-3.69,1.05-5.9s2.64-4.41,3.89-4.55l0.06-.14,0.41,0.18,2.42,1.15Zm-1.93-1.91,1.51,0.71,4.32-9.11-1.56-.73c-0.38-.12-1.89,1.2-3.23,4h0c-1.35,2.84-1.42,4.83-1.08,5.06Z" transform="translate(-2.43 -2.2)"/><path class="c" d="M44.13,68.54c1.27-2.66,1.68-5.13.95-5.62h0l-2-1-4.74,9.9,2,1h0C41.18,73.06,42.85,71.2,44.13,68.54Z" transform="translate(-2.43 -2.2)"/><path class="f" d="M40.56,73.4l-0.42-.19-2.42-1.16,5.13-10.71,2.82,1.35-0.07.14c0.69,1.06,0,3.69-1.07,5.9h0c-1.05,2.2-2.66,4.4-3.91,4.53Zm-0.13-1h0c0.41,0.13,1.89-1.19,3.25-4s1.44-4.83,1.1-5.05l0,0-1.5-.72-4.36,9.09Z" transform="translate(-2.43 -2.2)"/><path class="c" d="M21.36,93.45c-1.26,2.66-1.66,5.13-.92,5.62h0l2,1,4.7-9.92-2-1h0C24.28,88.92,22.62,90.79,21.36,93.45Z" transform="translate(-2.43 -2.2)"/><path class="f" d="M22.66,100.64L19.84,99.3l0.07-.14c-0.7-1.05,0-3.69,1-5.9s2.64-4.41,3.89-4.55l0.06-.13,0.41,0.18,2.42,1.15Zm-1.93-1.91,1.51,0.71,4.32-9.11L25,89.6c-0.4-.13-1.89,1.2-3.23,4s-1.42,4.83-1.08,5.06Z" transform="translate(-2.43 -2.2)"/><path class="c" d="M30,97.61c1.27-2.66,1.68-5.13.95-5.62h0l-2-1-4.74,9.9,2,1h0C27,102.13,28.7,100.27,30,97.61Z" transform="translate(-2.43 -2.2)"/><path class="f" d="M26.4,102.47L26,102.28l-2.42-1.16L28.7,90.41l2.84,1.36-0.08.15c0.67,1.07,0,3.69-1.09,5.88h0c-1.05,2.2-2.65,4.4-3.91,4.53Zm-0.13-1h0c0.39,0.12,1.89-1.19,3.25-4h0c1.36-2.83,1.44-4.83,1.1-5.05l0,0-1.5-.72-4.36,9.09Z" transform="translate(-2.43 -2.2)"/><path class="c" d="M49.54,35.57c-1.26,2.66-1.66,5.13-.92,5.62h0l2,1,4.7-9.92-2-1h0C52.47,31,50.81,32.9,49.54,35.57Z" transform="translate(-2.43 -2.2)"/><path class="f" d="M50.85,42.76L48,41.42l0.07-.14c-0.69-1.06,0-3.69,1.05-5.9s2.66-4.44,3.92-4.55l0.07-.12,0.38,0.17L55.93,32Zm-1.94-1.91,1.51,0.72,4.32-9.11-1.56-.73c-0.4-.12-1.89,1.2-3.23,4s-1.42,4.83-1.08,5.06Z" transform="translate(-2.43 -2.2)"/><path class="c" d="M58.16,39.73c1.27-2.66,1.68-5.13.95-5.62h0l-2-1L52.35,43l2,1h0C55.22,44.25,56.88,42.39,58.16,39.73Z" transform="translate(-2.43 -2.2)"/><path class="f" d="M54.56,44.57l-0.39-.17-2.42-1.16,5.13-10.71,2.82,1.35L59.64,34c0.69,1.06,0,3.69-1.08,5.89h0c-1.06,2.21-2.68,4.43-3.94,4.54Zm-0.09-1h0c0.39,0.12,1.89-1.19,3.25-4h0c1.36-2.83,1.44-4.83,1.1-5.06l0,0-1.5-.72-4.36,9.09Z" transform="translate(-2.43 -2.2)"/><path class="c" d="M67.6,18.81a0.13,0.13,0,0,1,.05-0.09L67.52,19,67,20.09,65.25,23.8l-4.81,10-0.2-.1,2.55-5.27,3.06-6.2,1-1.87a4.58,4.58,0,0,1,.38-0.67,4.58,4.58,0,0,1-.29.71L66,22.3l-3,6.23-2.57,5.26-0.2-.1,4.89-9.95L67,20.06,67.49,19l0.15-.28A0.13,0.13,0,0,1,67.6,18.81Z" transform="translate(-2.43 -2.2)"/><path class="d" d="M56.52,32.16c-0.06,0,3.93-8.35,5.19-10.94s2.33-4.67,2.4-4.64-0.91,2.15-2.17,4.75S56.58,32.19,56.52,32.16Z" transform="translate(-2.43 -2.2)"/><path class="c" d="M63.83,17.15a0.13,0.13,0,0,1,.05-0.09l-0.13.29-0.51,1.09-1.78,3.73-4.84,10-0.2-.1L59,26.82l3.08-6.23,1-1.88A4.63,4.63,0,0,1,63.4,18a4.63,4.63,0,0,1-.29.72l-0.89,1.91-3,6.26-2.59,5.29-0.2-.1,4.92-10,1.84-3.7,0.54-1.07L63.87,17A0.13,0.13,0,0,1,63.83,17.15Z" transform="translate(-2.43 -2.2)"/><path class="c" d="M52.82,30.36c-0.06,0,3.9-8.3,5.16-10.87s2.32-4.64,2.38-4.61S59.45,17,58.2,19.6,52.88,30.39,52.82,30.36Z" transform="translate(-2.43 -2.2)"/></svg>