<svg xmlns="http://www.w3.org/2000/svg" viewBox="0 0 346.67 346.67"><title>veganlogo</title><path d="M177.67,4.66A173.34,173.34,0,1,0,351,178,173.33,173.33,0,0,0,177.67,4.66Zm0,339.83A166.5,166.5,0,1,1,344.17,178,166.49,166.49,0,0,1,177.67,344.49Z" transform="translate(-4.34 -4.66)"/><path d="M224.62,92.5a55.32,55.32,0,0,0-48.75,29.14,55.33,55.33,0,1,0-92.31,60.29h0l.44.53.87,1L175.79,294l89-108.18A55.32,55.32,0,0,0,224.62,92.5ZM175.87,174c.13.23.26.45.38.68l-.46,0-.29,0C175.63,174.46,175.75,174.24,175.87,174Zm-.33,99.64L103.87,133h35l36.67,79.33L212.21,133h35Z" transform="translate(-4.34 -4.66)"/><path d="M66.21,283.29l12.19-26.2,4.25,4.18L73.4,280.45l18.89-9.66,4.15,4.09-26,12.53Z" transform="translate(-4.34 -4.66)"/><path d="M85.92,300.85l15-22.73,16.86,11.11-2.54,3.85L103,285l-3.32,5,11.41,7.52-2.53,3.83-11.41-7.52L93,300l12.7,8.37-2.52,3.83Z" transform="translate(-4.34 -4.66)"/><path d="M127.16,312.45l1.74-4.23,10.95,4.5-4.13,10a14.89,14.89,0,0,1-5.74.81,17.9,17.9,0,0,1-6.62-1.35,14.82,14.82,0,0,1-6.19-4.49,11.37,11.37,0,0,1-2.46-6.54,16.57,16.57,0,0,1,1.28-7.31,15.6,15.6,0,0,1,4.53-6.3,12,12,0,0,1,6.75-2.7,14.05,14.05,0,0,1,6.53,1.23q4.68,1.94,6.51,5a9.61,9.61,0,0,1,1.15,6.82L136,306.76a5.76,5.76,0,0,0-.8-3.75,6.46,6.46,0,0,0-3.22-2.58,7.44,7.44,0,0,0-6.16-.07c-1.89.87-3.4,2.68-4.54,5.45-1.23,3-1.49,5.5-.78,7.53a7.18,7.18,0,0,0,4.3,4.39,9.31,9.31,0,0,0,3.45.69,11.6,11.6,0,0,0,3.38-.38l1.31-3.19Z" transform="translate(-4.34 -4.66)"/><path d="M167.39,333.07,161.51,332l-1.24-6.5-10.7-1.92-3.3,5.68-5.73-1,15.23-24.88,5.71,1Zm-8-12.37-1.9-10.59-5.4,9.28Z" transform="translate(-4.34 -4.66)"/><path d="M176.18,333.25l-1.87-27.15,5.33-.37L192,323.1,190.76,305l5.09-.35,1.87,27.16-5.5.38-12.17-17,1.22,17.71Z" transform="translate(-4.34 -4.66)"/><path d="M209,329.31l-1.22-5.07L212.8,323l1.23,5.07Z" transform="translate(-4.34 -4.66)"/><path d="M218.56,313.36a17.24,17.24,0,0,1-1.56-6.91,12.64,12.64,0,0,1,.88-4.41,10.66,10.66,0,0,1,2.29-3.63,14.87,14.87,0,0,1,5-3.27,12.82,12.82,0,0,1,10.31-.3q4.77,2,7.35,8.16t.71,10.88a14.31,14.31,0,0,1-17.7,7.48Q221.08,319.35,218.56,313.36ZM223.7,311q1.8,4.26,4.69,5.63a7.34,7.34,0,0,0,10-4.18q1-3-.82-7.36t-4.6-5.63a7.6,7.6,0,0,0-10,4.27C222.21,305.69,222.49,308.11,223.7,311Z" transform="translate(-4.34 -4.66)"/><path d="M256.79,310.43l-15.45-22.37,9.51-6.57a19.59,19.59,0,0,1,5.63-3,6.27,6.27,0,0,1,4.08.34,7.84,7.84,0,0,1,3.41,2.85,7.27,7.27,0,0,1,1.39,5.18,8.65,8.65,0,0,1-3,5.13,12.37,12.37,0,0,1,3.71.21,30.94,30.94,0,0,1,5.08,1.85l5.75,2.48-5.41,3.73-6.62-2.61a39.48,39.48,0,0,0-4.66-1.65,4.21,4.21,0,0,0-2,0,8.83,8.83,0,0,0-2.44,1.32l-.92.63,6.45,9.34Zm-4.4-16,3.35-2.31a21.47,21.47,0,0,0,3.87-3.08,3,3,0,0,0,.61-1.82,3.62,3.62,0,0,0-.7-2,3.29,3.29,0,0,0-1.87-1.41,3.39,3.39,0,0,0-2.3.3c-.4.2-1.52.93-3.35,2.2l-3.53,2.43Z" transform="translate(-4.34 -4.66)"/><path d="M284.4,275.19,281.09,272l8.16-8.57,7.84,7.47a15,15,0,0,1-1.32,5.65,18.22,18.22,0,0,1-3.65,5.67,14.82,14.82,0,0,1-6.43,4.15,11.36,11.36,0,0,1-7-.07,16.7,16.7,0,0,1-6.35-3.85,15.53,15.53,0,0,1-4.23-6.49,11.94,11.94,0,0,1-.07-7.27,14.1,14.1,0,0,1,3.51-5.64c2.32-2.45,4.66-3.87,7-4.27a9.64,9.64,0,0,1,6.78,1.4l-3,4.65a5.73,5.73,0,0,0-3.78-.61,6.56,6.56,0,0,0-3.57,2.06,7.49,7.49,0,0,0-2.29,5.72q.18,3.11,3.44,6.21,3.5,3.33,6.74,3.45a7.2,7.2,0,0,0,5.64-2.42,9.43,9.43,0,0,0,1.89-3,12,12,0,0,0,.87-3.29l-2.5-2.38Z" transform="translate(-4.34 -4.66)"/><path d="M42.16,141.77,45.39,137A12.29,12.29,0,0,1,50.7,143a11.9,11.9,0,0,1,0,7.74,12,12,0,0,1-6.26,7.68q-4.66,2.34-11,.45-6.67-2-9.35-6.55a12.36,12.36,0,0,1-1-10.17A11.6,11.6,0,0,1,28.41,135a11,11,0,0,1,5.75-1.27l-.32,5.73a6,6,0,0,0-3.88,1,5.9,5.9,0,0,0-2.29,3.3,6.32,6.32,0,0,0,.69,5.47c1.05,1.66,3.17,3,6.36,3.92q5.07,1.52,7.77.33a6.17,6.17,0,0,0,3.57-4.1,5.63,5.63,0,0,0-.26-4.12A8.3,8.3,0,0,0,42.16,141.77Z" transform="translate(-4.34 -4.66)"/><path d="M56.27,133.21l-24.79-12.8L41,102l4.2,2.17-6.91,13.37,5.5,2.84L50.18,108l4.18,2.15-6.43,12.44,6.75,3.49,7.15-13.85L66,114.36Z" transform="translate(-4.34 -4.66)"/><path d="M69.68,108.59,47.81,91.25,55.17,82a20.1,20.1,0,0,1,4.63-4.63,6.39,6.39,0,0,1,4.11-.89,8,8,0,0,1,4.21,1.78A7.49,7.49,0,0,1,71,82.89a8.92,8.92,0,0,1-1.41,5.93,12.78,12.78,0,0,1,3.71-.91,30.49,30.49,0,0,1,5.54.3l6.39.71L81.08,94.2l-7.29-.58a39.57,39.57,0,0,0-5.06-.22,4.32,4.32,0,0,0-2,.61,9,9,0,0,0-2,2l-.71.89,9.13,7.24ZM60.56,94.17l2.59-3.27A21.23,21.23,0,0,0,66,86.72a3.06,3.06,0,0,0,.06-2A3.62,3.62,0,0,0,64.79,83a3.32,3.32,0,0,0-2.25-.83,3.42,3.42,0,0,0-2.17,1c-.34.32-1.21,1.37-2.63,3.16L55,89.77Z" transform="translate(-4.34 -4.66)"/><path d="M92.15,83.08,76.83,65.67l-6.22,5.47-3.12-3.55L84.15,52.94l3.11,3.54-6.2,5.46L96.38,79.36Z" transform="translate(-4.34 -4.66)"/><path d="M107.27,71.07,92,47.71l4.72-3.08L112,68Z" transform="translate(-4.34 -4.66)"/><path d="M118.22,64,106.57,38.64l17.39-8,2,4.29-12.27,5.63,2.76,6L127,41.72,129,46l-10.59,4.86,5,10.78Z" transform="translate(-4.34 -4.66)"/><path d="M141.83,54.33l-7.59-26.84L139.66,26l7.59,26.85Z" transform="translate(-4.34 -4.66)"/><path d="M154.35,50.79l-3-27.73,20.57-2.24.51,4.69-15,1.63.67,6.15L172,31.77l.5,4.68L158.62,38l.82,7.55,15.5-1.69.5,4.68Z" transform="translate(-4.34 -4.66)"/><path d="M185.85,20.85l10.22,1.33a20.16,20.16,0,0,1,5.2,1.21,9.36,9.36,0,0,1,3.84,3.09,12.17,12.17,0,0,1,2.06,4.83,20.4,20.4,0,0,1,.06,6.67,18.23,18.23,0,0,1-1.61,5.78,12.4,12.4,0,0,1-3.6,4.51A10.14,10.14,0,0,1,197.8,50a17,17,0,0,1-5-.06l-10.52-1.37Zm5,5.41L188.45,44.6l4.17.55a15.28,15.28,0,0,0,3.42.17,5.15,5.15,0,0,0,2.41-.86A5.88,5.88,0,0,0,200.26,42a17.92,17.92,0,0,0,1.22-5,16.6,16.6,0,0,0,.08-5,6.35,6.35,0,0,0-1.24-2.89,5.35,5.35,0,0,0-2.42-1.64,24.92,24.92,0,0,0-4.56-.86Z" transform="translate(-4.34 -4.66)"/><path d="M230.48,60.92l3.68-29.42,5.45,2.75-3,21.63L252,40.52l5.34,2.69-21.5,20.42Z" transform="translate(-4.34 -4.66)"/><path d="M247.44,70.19l17.28-21.92L281,61.08l-2.92,3.71-11.83-9.32-3.83,4.86,11,8.67-2.92,3.69-11-8.67-4.7,6L267,79.64l-2.91,3.69Z" transform="translate(-4.34 -4.66)"/><path d="M284.16,90.22l3.6-3,7.83,9.29-8.5,7.17a15.47,15.47,0,0,1-5.62-2,18.69,18.69,0,0,1-5.38-4.37,15.36,15.36,0,0,1-3.52-7,11.7,11.7,0,0,1,.87-7.13,17,17,0,0,1,4.62-6,16.19,16.19,0,0,1,7.11-3.6,12.33,12.33,0,0,1,7.42.74A14.52,14.52,0,0,1,298,78.46q3.35,4,3.57,7.62a9.88,9.88,0,0,1-2.18,6.76l-4.41-3.61A5.94,5.94,0,0,0,296,85.44a6.65,6.65,0,0,0-1.71-3.87,7.64,7.64,0,0,0-5.58-3q-3.19-.16-6.72,2.81c-2.53,2.14-4,4.3-4.27,6.5a7.34,7.34,0,0,0,1.83,6,9.59,9.59,0,0,0,2.82,2.27,12.23,12.23,0,0,0,3.26,1.25l2.71-2.28Z" transform="translate(-4.34 -4.66)"/><path d="M299.93,134.39,297,129l4.44-5.15L296.2,114l-6.67,1-2.83-5.27,29.74-3.6,2.82,5.26ZM304.76,120l7.32-8.28-10.91,1.57Z" transform="translate(-4.34 -4.66)"/><path d="M301.62,139.18l26.67-8.2,1.61,5.24-14.45,16.39,17.8-5.48,1.54,5-26.66,8.2-1.66-5.4,14.08-16.1-17.39,5.35Z" transform="translate(-4.34 -4.66)"/></svg>